<svg width="340" height="358" viewBox="0 0 340 358" fill="none" xmlns="http://www.w3.org/2000/svg">
<g clip-path="url(#clip0_834_26538)">
<rect width="340" height="358" rx="10" fill="white"/>
<path d="M222.367 173.219L222.174 173.378C204.441 187.816 180.886 188.469 163.717 172.924C154.777 164.823 138.897 166.372 127.536 163.442C88.3628 153.339 95.1334 105.275 114.486 82.0388C131.948 61.0729 169.779 56.3337 195.201 66.6518C217.552 75.7167 233.267 95.9673 238.872 117.145C239.436 119.267 239.894 121.41 240.247 123.572C243.194 141.596 237.538 160.743 222.367 173.219Z" fill="#FFF0E0"/>
<path d="M150.147 66.3331C150.577 67.4917 150.651 68.7544 150.36 69.9613C150.069 71.1682 149.426 72.2652 148.511 73.1134C147.597 73.9615 146.453 74.5228 145.223 74.7261C143.994 74.9294 142.735 74.7656 141.606 74.2554C140.476 73.7453 139.527 72.9117 138.878 71.8602C138.23 70.8087 137.911 69.5865 137.962 68.3483C138.013 67.1101 138.431 65.9116 139.164 64.9044C139.898 63.8972 140.913 63.1266 142.081 62.6901C142.856 62.3997 143.679 62.2636 144.503 62.2896C145.328 62.3155 146.138 62.503 146.887 62.8413C147.636 63.1796 148.309 63.6621 148.868 64.2613C149.428 64.8604 149.862 65.5644 150.147 66.3331Z" fill="#F9C0A8"/>
<path d="M148.74 66.8621C149.068 67.745 149.124 68.7073 148.902 69.627C148.681 70.5468 148.19 71.3827 147.493 72.029C146.796 72.6753 145.924 73.1029 144.988 73.2578C144.051 73.4126 143.091 73.2877 142.231 72.8988C141.37 72.5099 140.647 71.8745 140.153 71.0731C139.658 70.2717 139.415 69.3403 139.454 68.3967C139.493 67.4531 139.812 66.5398 140.371 65.7723C140.93 65.0049 141.704 64.4178 142.594 64.0854C143.185 63.8642 143.812 63.7606 144.44 63.7804C145.068 63.8003 145.685 63.9432 146.256 64.2011C146.827 64.4589 147.34 64.8267 147.766 65.2832C148.192 65.7398 148.523 66.2763 148.74 66.8621Z" fill="#FCD3C3"/>
<path d="M144.297 65.9372C144.444 65.8043 144.459 65.5808 144.329 65.438C144.2 65.2953 143.976 65.2872 143.829 65.4201L141.716 67.3257C141.568 67.4586 141.554 67.6822 141.683 67.8249C141.812 67.9677 142.036 67.9757 142.184 67.8428L142.789 67.2966C143.039 67.0704 143.395 67.0068 143.699 67.134L142.514 68.2024C142.367 68.3352 142.352 68.5589 142.481 68.7016C142.61 68.8444 142.835 68.8523 142.982 68.7195L144.167 67.6511C144.261 67.9656 144.162 68.3115 143.913 68.5376L143.307 69.0838C143.198 69.1826 143.158 69.336 143.207 69.4711C143.255 69.6061 143.382 69.6957 143.528 69.6972L146.29 69.7184C146.381 69.7186 146.469 69.6842 146.537 69.6222C146.61 69.5556 146.654 69.4635 146.659 69.3665C146.663 69.273 146.629 69.183 146.565 69.1165C146.501 69.0499 146.413 69.0121 146.319 69.0115L144.445 68.997C144.938 68.4992 145.054 67.7474 144.729 67.1484L145.095 66.8188C145.242 66.6859 145.257 66.4625 145.127 66.3197C144.998 66.1769 144.774 66.1688 144.627 66.3017L144.261 66.6314C144.114 66.5306 143.948 66.4569 143.773 66.4138L144.299 65.9398L144.297 65.9372Z" fill="#F38D5D"/>
<path d="M148.687 66.724C148.659 66.7283 148.569 66.5467 148.37 66.2319C148.092 65.7885 147.746 65.3915 147.345 65.055C147.069 64.8267 146.768 64.629 146.449 64.4653C146.081 64.2809 145.69 64.1444 145.287 64.0592C145.07 64.0119 144.85 63.9813 144.628 63.9677C144.159 63.9362 143.687 63.9753 143.229 64.0836C142.988 64.1412 142.752 64.2166 142.523 64.3092C142.294 64.4044 142.072 64.5158 141.859 64.6424C141.654 64.7672 141.458 64.9076 141.273 65.0622C141.094 65.2096 140.927 65.3711 140.774 65.5451C140.625 65.7126 140.489 65.8907 140.367 66.0779C140.138 66.4218 139.955 66.7932 139.821 67.183C139.705 67.5237 139.627 67.8758 139.59 68.2329C139.537 68.7552 139.566 69.2817 139.675 69.7938C139.753 70.1588 139.819 70.3582 139.792 70.3686C139.765 70.3791 139.659 70.1953 139.537 69.8308C139.368 69.3106 139.298 68.7628 139.331 68.2153C139.38 67.3925 139.64 66.5943 140.088 65.8975C140.352 65.4849 140.675 65.113 141.048 64.7937C141.245 64.6251 141.456 64.4725 141.677 64.3375C141.906 64.1991 142.145 64.0782 142.392 63.976C142.639 63.8757 142.895 63.7946 143.155 63.7336C143.408 63.6731 143.665 63.6331 143.924 63.614C144.173 63.5962 144.423 63.5982 144.671 63.6199C144.909 63.6387 145.145 63.6758 145.377 63.7307C145.803 63.8334 146.213 63.9927 146.596 64.2046C146.926 64.3866 147.234 64.6072 147.512 64.8617C147.917 65.2301 148.249 65.6708 148.491 66.1614C148.661 66.5074 148.708 66.7161 148.687 66.724Z" fill="#F38D5D"/>
<path d="M182.114 149.733C181.95 150.698 181.501 151.593 180.823 152.306C180.146 153.018 179.27 153.516 178.307 153.736C177.344 153.955 176.337 153.887 175.413 153.54C174.489 153.193 173.69 152.582 173.118 151.784C172.545 150.987 172.224 150.039 172.196 149.061C172.167 148.083 172.432 147.118 172.958 146.289C173.483 145.46 174.245 144.804 175.147 144.403C176.048 144.003 177.05 143.876 178.024 144.04C178.67 144.147 179.289 144.38 179.844 144.724C180.399 145.068 180.881 145.518 181.261 146.046C181.64 146.575 181.911 147.173 182.058 147.805C182.204 148.438 182.223 149.093 182.114 149.733Z" fill="#F9C0A8"/>
<path d="M180.941 149.537C180.816 150.273 180.474 150.955 179.958 151.498C179.441 152.041 178.774 152.42 178.04 152.588C177.306 152.755 176.538 152.703 175.834 152.438C175.13 152.173 174.522 151.708 174.085 151.1C173.649 150.493 173.404 149.77 173.383 149.025C173.361 148.279 173.563 147.544 173.964 146.912C174.364 146.281 174.945 145.781 175.632 145.476C176.32 145.17 177.083 145.074 177.825 145.199C178.318 145.281 178.789 145.458 179.212 145.721C179.635 145.983 180.002 146.325 180.291 146.728C180.58 147.131 180.787 147.587 180.898 148.069C181.01 148.551 181.024 149.05 180.941 149.537Z" fill="#FCD3C3"/>
<path d="M178.26 147.14C178.414 147.107 178.513 146.959 178.481 146.81C178.448 146.661 178.298 146.567 178.144 146.599L175.94 147.07C175.786 147.103 175.688 147.25 175.72 147.399C175.752 147.548 175.903 147.643 176.056 147.61L176.688 147.475C176.949 147.419 177.218 147.516 177.376 147.724L176.14 147.987C175.987 148.02 175.888 148.168 175.92 148.317C175.952 148.466 176.103 148.56 176.257 148.527L177.492 148.264C177.433 148.517 177.228 148.715 176.967 148.771L176.335 148.906C176.221 148.931 176.133 149.02 176.113 149.132C176.093 149.244 176.145 149.356 176.244 149.414L178.13 150.523C178.192 150.559 178.267 150.57 178.338 150.555C178.414 150.538 178.481 150.492 178.523 150.428C178.563 150.365 178.575 150.29 178.557 150.219C178.54 150.148 178.494 150.087 178.43 150.049L177.15 149.297C177.686 149.151 178.063 148.681 178.077 148.142L178.459 148.06C178.612 148.028 178.711 147.88 178.679 147.731C178.647 147.582 178.496 147.488 178.342 147.52L177.961 147.602C177.9 147.474 177.816 147.358 177.713 147.259L178.261 147.142L178.26 147.14Z" fill="#F38D5D"/>
<path d="M180.961 149.423C180.94 149.415 180.951 149.255 180.938 148.96C180.924 148.546 180.844 148.137 180.702 147.747C180.603 147.481 180.475 147.226 180.32 146.987C180.141 146.715 179.927 146.467 179.684 146.249C179.554 146.13 179.415 146.022 179.269 145.925C178.959 145.718 178.62 145.558 178.263 145.45C178.075 145.395 177.883 145.353 177.689 145.326C177.495 145.3 177.299 145.289 177.102 145.291C176.912 145.296 176.722 145.314 176.534 145.347C176.353 145.377 176.174 145.422 176 145.481C175.832 145.537 175.668 145.605 175.51 145.685C175.217 145.83 174.944 146.012 174.698 146.227C174.483 146.415 174.291 146.625 174.123 146.855C173.88 147.193 173.692 147.565 173.564 147.96C173.473 148.241 173.439 148.404 173.416 148.4C173.394 148.397 173.394 148.229 173.455 147.931C173.545 147.507 173.714 147.103 173.953 146.741C174.312 146.196 174.807 145.751 175.39 145.451C175.735 145.272 176.104 145.145 176.486 145.074C176.688 145.036 176.893 145.015 177.098 145.01C177.31 145.006 177.521 145.017 177.731 145.045C177.941 145.074 178.148 145.12 178.351 145.181C178.548 145.24 178.741 145.314 178.926 145.404C179.104 145.49 179.274 145.59 179.436 145.703C179.591 145.811 179.739 145.929 179.876 146.059C180.128 146.298 180.346 146.57 180.525 146.867C180.679 147.123 180.803 147.396 180.893 147.68C181.025 148.093 181.078 148.527 181.05 148.96C181.029 149.264 180.978 149.426 180.961 149.423Z" fill="#F38D5D"/>
<path d="M134.245 70.6746C134.586 71.5923 134.645 72.5924 134.415 73.5483C134.184 74.5043 133.674 75.3732 132.95 76.045C132.226 76.7167 131.32 77.1613 130.346 77.3223C129.372 77.4833 128.375 77.3536 127.48 76.9495C126.586 76.5455 125.834 75.8852 125.32 75.0523C124.807 74.2195 124.554 73.2514 124.594 72.2707C124.634 71.29 124.966 70.3407 125.547 69.5429C126.128 68.7452 126.932 68.1348 127.857 67.7891C128.471 67.5591 129.122 67.4513 129.776 67.4718C130.429 67.4924 131.07 67.6409 131.663 67.9088C132.257 68.1768 132.79 68.559 133.233 69.0335C133.676 69.5081 134.02 70.0657 134.245 70.6746Z" fill="#F9C0A8"/>
<path d="M133.127 71.0933C133.387 71.7926 133.432 72.5548 133.256 73.2833C133.08 74.0118 132.692 74.6739 132.14 75.1858C131.588 75.6977 130.897 76.0364 130.155 76.159C129.413 76.2817 128.653 76.1827 127.972 75.8747C127.29 75.5667 126.717 75.0634 126.326 74.4287C125.934 73.7939 125.742 73.0561 125.773 72.3088C125.804 71.5614 126.056 70.838 126.499 70.2301C126.942 69.6223 127.555 69.1573 128.26 68.894C128.727 68.7188 129.224 68.6367 129.722 68.6524C130.219 68.6681 130.708 68.7814 131.16 68.9856C131.612 69.1898 132.019 69.4811 132.356 69.8427C132.694 70.2044 132.956 70.6293 133.127 71.0933Z" fill="#FCD3C3"/>
<path d="M129.611 70.3591C129.727 70.2538 129.739 70.0768 129.637 69.9637C129.534 69.8507 129.357 69.8442 129.24 69.9495L127.566 71.4589C127.45 71.5642 127.438 71.7412 127.54 71.8542C127.643 71.9674 127.82 71.9737 127.937 71.8684L128.417 71.4358C128.615 71.2566 128.896 71.2063 129.137 71.307L128.199 72.1533C128.082 72.2585 128.07 72.4356 128.173 72.5486C128.275 72.6617 128.453 72.668 128.569 72.5628L129.508 71.7166C129.583 71.9657 129.504 72.2397 129.306 72.4188L128.827 72.8514C128.74 72.9296 128.709 73.0512 128.747 73.1581C128.786 73.2651 128.886 73.336 129.002 73.3372L131.189 73.354C131.261 73.3542 131.331 73.3269 131.385 73.2778C131.443 73.2251 131.478 73.1521 131.482 73.0753C131.485 73.0012 131.458 72.93 131.407 72.8772C131.357 72.8245 131.287 72.7946 131.212 72.7941L129.728 72.7826C130.119 72.3883 130.21 71.7929 129.953 71.3185L130.243 71.0574C130.359 70.9521 130.371 70.7751 130.269 70.662C130.166 70.5489 129.989 70.5426 129.872 70.6478L129.583 70.9089C129.466 70.8291 129.335 70.7707 129.196 70.7366L129.612 70.3611L129.611 70.3591Z" fill="#F38D5D"/>
<path d="M133.091 70.9856C133.069 70.989 132.997 70.8452 132.839 70.5958C132.62 70.2446 132.346 69.9301 132.028 69.6636C131.809 69.4828 131.571 69.3262 131.318 69.1965C131.027 69.0505 130.717 68.9424 130.398 68.8749C130.226 68.8374 130.052 68.8132 129.876 68.8024C129.504 68.7775 129.131 68.8085 128.768 68.8942C128.577 68.9398 128.39 68.9996 128.208 69.0729C128.027 69.1483 127.852 69.2365 127.683 69.3368C127.52 69.4357 127.365 69.5469 127.219 69.6693C127.077 69.7861 126.944 69.914 126.823 70.0518C126.705 70.1845 126.598 70.3255 126.501 70.4738C126.319 70.7462 126.174 71.0404 126.068 71.3491C125.977 71.619 125.915 71.8979 125.885 72.1807C125.843 72.5944 125.866 73.0114 125.953 73.417C126.014 73.7061 126.067 73.8641 126.045 73.8723C126.024 73.8806 125.94 73.735 125.844 73.4464C125.71 73.0343 125.654 72.6004 125.68 72.1668C125.719 71.5151 125.925 70.8828 126.28 70.3309C126.489 70.0042 126.745 69.7095 127.04 69.4567C127.196 69.3231 127.363 69.2023 127.539 69.0953C127.72 68.9857 127.909 68.89 128.104 68.809C128.301 68.7295 128.503 68.6653 128.709 68.617C128.909 68.5691 129.113 68.5374 129.318 68.5223C129.515 68.5082 129.713 68.5098 129.91 68.5269C130.098 68.5418 130.285 68.5712 130.469 68.6147C130.806 68.696 131.131 68.8222 131.434 68.99C131.696 69.1342 131.94 69.3089 132.16 69.5105C132.481 69.8023 132.744 70.1513 132.936 70.5399C133.07 70.814 133.107 70.9793 133.091 70.9856Z" fill="#F38D5D"/>
<path d="M171.437 156.948C171.231 158.167 170.664 159.298 169.808 160.197C168.953 161.097 167.847 161.725 166.631 162.003C165.415 162.28 164.143 162.194 162.977 161.755C161.811 161.317 160.802 160.546 160.079 159.539C159.356 158.532 158.951 157.336 158.915 156.101C158.879 154.866 159.214 153.648 159.877 152.601C160.54 151.554 161.502 150.726 162.641 150.22C163.779 149.714 165.044 149.555 166.274 149.761C167.09 149.897 167.871 150.19 168.572 150.625C169.273 151.06 169.88 151.627 170.36 152.295C170.839 152.962 171.181 153.717 171.366 154.515C171.551 155.314 171.575 156.141 171.437 156.948Z" fill="#F9C0A8"/>
<path d="M169.956 156.701C169.798 157.63 169.366 158.492 168.714 159.177C168.062 159.863 167.219 160.341 166.293 160.553C165.366 160.764 164.397 160.698 163.508 160.364C162.619 160.03 161.851 159.442 161.3 158.675C160.749 157.907 160.441 156.996 160.413 156.054C160.386 155.113 160.641 154.185 161.147 153.388C161.652 152.59 162.385 151.958 163.253 151.573C164.121 151.188 165.085 151.067 166.022 151.224C166.644 151.327 167.239 151.551 167.773 151.883C168.307 152.214 168.77 152.646 169.135 153.155C169.5 153.664 169.761 154.239 169.902 154.847C170.042 155.456 170.061 156.086 169.956 156.701Z" fill="#FCD3C3"/>
<path d="M166.569 153.675C166.763 153.634 166.887 153.448 166.847 153.259C166.806 153.071 166.616 152.952 166.422 152.994L163.639 153.587C163.445 153.629 163.321 153.815 163.361 154.003C163.402 154.192 163.592 154.311 163.786 154.269L164.584 154.099C164.913 154.028 165.253 154.151 165.452 154.413L163.892 154.746C163.698 154.787 163.574 154.974 163.614 155.162C163.655 155.35 163.845 155.469 164.039 155.428L165.599 155.095C165.524 155.414 165.265 155.664 164.936 155.735L164.138 155.906C163.994 155.937 163.883 156.05 163.858 156.191C163.832 156.332 163.898 156.473 164.023 156.547L166.404 157.947C166.483 157.992 166.577 158.007 166.667 157.987C166.763 157.966 166.847 157.908 166.9 157.827C166.95 157.748 166.966 157.653 166.944 157.563C166.922 157.473 166.864 157.396 166.783 157.349L165.167 156.399C165.843 156.215 166.319 155.622 166.338 154.941L166.819 154.838C167.013 154.797 167.138 154.61 167.097 154.422C167.056 154.234 166.866 154.115 166.672 154.156L166.191 154.259C166.113 154.098 166.007 153.951 165.877 153.827L166.57 153.679L166.569 153.675Z" fill="#F38D5D"/>
<path d="M169.98 156.555C169.953 156.545 169.966 156.343 169.951 155.971C169.932 155.448 169.832 154.931 169.652 154.439C169.527 154.103 169.366 153.782 169.171 153.48C168.944 153.137 168.675 152.823 168.368 152.548C168.204 152.398 168.028 152.262 167.843 152.139C167.452 151.877 167.024 151.675 166.573 151.54C166.336 151.469 166.094 151.417 165.849 151.382C165.603 151.35 165.356 151.336 165.108 151.339C164.867 151.344 164.627 151.368 164.39 151.41C164.161 151.448 163.936 151.504 163.716 151.578C163.504 151.649 163.297 151.735 163.097 151.836C162.727 152.019 162.383 152.249 162.072 152.52C161.801 152.757 161.558 153.023 161.347 153.314C161.04 153.74 160.802 154.21 160.64 154.708C160.525 155.063 160.482 155.269 160.454 155.264C160.426 155.26 160.426 155.048 160.503 154.671C160.616 154.136 160.829 153.627 161.131 153.169C161.585 152.481 162.21 151.92 162.946 151.54C163.381 151.315 163.847 151.155 164.329 151.064C164.584 151.017 164.843 150.99 165.102 150.984C165.37 150.978 165.637 150.993 165.902 151.028C166.167 151.065 166.428 151.122 166.684 151.2C166.933 151.274 167.176 151.368 167.41 151.481C167.634 151.59 167.85 151.716 168.054 151.859C168.25 151.994 168.436 152.145 168.61 152.308C168.927 152.61 169.203 152.953 169.428 153.328C169.624 153.651 169.78 153.996 169.893 154.355C170.06 154.877 170.127 155.424 170.092 155.97C170.065 156.355 170.002 156.559 169.98 156.555Z" fill="#F38D5D"/>
<g clip-path="url(#clip1_834_26538)">
<path d="M206.78 98.9054L186.121 96.9199L183.137 127.712L203.796 129.698L206.78 98.9054Z" fill="white" stroke="#263238" stroke-width="0.0891923" stroke-linecap="round" stroke-linejoin="round"/>
<path d="M187.468 99.165L192.846 99.671" stroke="#263238" stroke-width="0.178385" stroke-linecap="round" stroke-linejoin="round"/>
<path d="M187.37 100.19L191.028 100.533" stroke="#263238" stroke-width="0.178385" stroke-linecap="round" stroke-linejoin="round"/>
<path d="M188.45 102.73L203.92 104.184" stroke="#263238" stroke-width="0.178385" stroke-linecap="round" stroke-linejoin="round"/>
<path d="M188.354 103.751L203.823 105.207" stroke="#263238" stroke-width="0.178385" stroke-linecap="round" stroke-linejoin="round"/>
<path d="M188.241 104.945L201.433 106.187" stroke="#263238" stroke-width="0.178385" stroke-linecap="round" stroke-linejoin="round"/>
<path d="M189.462 106.158L188.204 106.04L188.086 107.288L189.344 107.406L189.462 106.158Z" stroke="#263238" stroke-width="0.0891923" stroke-linecap="round" stroke-linejoin="round"/>
<path d="M191.741 106.37L190.483 106.252L190.365 107.5L191.623 107.618L191.741 106.37Z" stroke="#263238" stroke-width="0.0891923" stroke-linecap="round" stroke-linejoin="round"/>
<path d="M194.026 106.587L192.768 106.469L192.649 107.716L193.907 107.835L194.026 106.587Z" stroke="#263238" stroke-width="0.0891923" stroke-linecap="round" stroke-linejoin="round"/>
<path d="M196.304 106.801L195.046 106.683L194.928 107.931L196.186 108.049L196.304 106.801Z" stroke="#263238" stroke-width="0.0891923" stroke-linecap="round" stroke-linejoin="round"/>
<path d="M187.63 102.651C187.625 102.713 187.601 102.772 187.562 102.821C187.522 102.87 187.469 102.906 187.409 102.925C187.349 102.943 187.285 102.944 187.224 102.926C187.164 102.909 187.11 102.874 187.07 102.825C187.029 102.777 187.004 102.718 186.998 102.656C186.991 102.594 187.003 102.531 187.033 102.476C187.062 102.421 187.108 102.376 187.163 102.346C187.219 102.317 187.282 102.304 187.345 102.31C187.428 102.319 187.504 102.359 187.558 102.422C187.611 102.486 187.637 102.568 187.63 102.651Z" fill="#263238"/>
<path d="M187.885 108.702L203.354 110.155" stroke="#263238" stroke-width="0.178385" stroke-linecap="round" stroke-linejoin="round"/>
<path d="M187.789 109.723L203.258 111.179" stroke="#263238" stroke-width="0.178385" stroke-linecap="round" stroke-linejoin="round"/>
<path d="M187.675 110.921L200.868 112.161" stroke="#263238" stroke-width="0.178385" stroke-linecap="round" stroke-linejoin="round"/>
<path d="M188.897 112.129L187.639 112.011L187.52 113.259L188.779 113.377L188.897 112.129Z" stroke="#263238" stroke-width="0.0891923" stroke-linecap="round" stroke-linejoin="round"/>
<path d="M191.178 112.344L189.92 112.226L189.802 113.474L191.06 113.592L191.178 112.344Z" stroke="#263238" stroke-width="0.0891923" stroke-linecap="round" stroke-linejoin="round"/>
<path d="M193.459 112.561L192.201 112.443L192.083 113.691L193.341 113.809L193.459 112.561Z" stroke="#263238" stroke-width="0.0891923" stroke-linecap="round" stroke-linejoin="round"/>
<path d="M195.739 112.773L194.48 112.655L194.362 113.902L195.62 114.021L195.739 112.773Z" stroke="#263238" stroke-width="0.0891923" stroke-linecap="round" stroke-linejoin="round"/>
<path d="M187.065 108.624C187.059 108.686 187.035 108.746 186.995 108.794C186.955 108.842 186.902 108.878 186.842 108.896C186.782 108.915 186.717 108.915 186.657 108.897C186.597 108.879 186.543 108.844 186.503 108.796C186.463 108.747 186.438 108.689 186.432 108.626C186.426 108.564 186.438 108.502 186.468 108.447C186.497 108.392 186.543 108.347 186.598 108.317C186.654 108.288 186.717 108.275 186.78 108.282C186.863 108.29 186.94 108.331 186.993 108.395C187.047 108.459 187.072 108.541 187.065 108.624Z" fill="#263238"/>
<path d="M187.318 114.671L202.787 116.127" stroke="#263238" stroke-width="0.178385" stroke-linecap="round" stroke-linejoin="round"/>
<path d="M187.222 115.697L202.689 117.15" stroke="#263238" stroke-width="0.178385" stroke-linecap="round" stroke-linejoin="round"/>
<path d="M187.108 116.893L200.3 118.132" stroke="#263238" stroke-width="0.178385" stroke-linecap="round" stroke-linejoin="round"/>
<path d="M188.334 118.101L187.076 117.983L186.958 119.231L188.216 119.349L188.334 118.101Z" stroke="#263238" stroke-width="0.0891923" stroke-linecap="round" stroke-linejoin="round"/>
<path d="M190.613 118.316L189.354 118.197L189.236 119.445L190.494 119.563L190.613 118.316Z" stroke="#263238" stroke-width="0.0891923" stroke-linecap="round" stroke-linejoin="round"/>
<path d="M192.894 118.532L191.636 118.414L191.517 119.662L192.776 119.78L192.894 118.532Z" stroke="#263238" stroke-width="0.0891923" stroke-linecap="round" stroke-linejoin="round"/>
<path d="M195.171 118.747L193.913 118.629L193.795 119.877L195.053 119.995L195.171 118.747Z" stroke="#263238" stroke-width="0.0891923" stroke-linecap="round" stroke-linejoin="round"/>
<path d="M186.496 114.596C186.491 114.658 186.466 114.717 186.427 114.766C186.387 114.814 186.334 114.85 186.274 114.868C186.213 114.886 186.149 114.887 186.089 114.869C186.029 114.851 185.975 114.815 185.935 114.767C185.895 114.719 185.87 114.66 185.864 114.598C185.857 114.536 185.87 114.473 185.9 114.418C185.929 114.363 185.975 114.318 186.03 114.289C186.086 114.259 186.149 114.247 186.211 114.253C186.295 114.262 186.372 114.302 186.425 114.366C186.478 114.431 186.504 114.513 186.496 114.596Z" fill="#263238"/>
<path d="M186.738 120.813L202.205 122.268" stroke="#263238" stroke-width="0.178385" stroke-linecap="round" stroke-linejoin="round"/>
<path d="M186.64 121.839L202.107 123.295" stroke="#263238" stroke-width="0.178385" stroke-linecap="round" stroke-linejoin="round"/>
<path d="M186.523 123.033L199.715 124.274" stroke="#263238" stroke-width="0.178385" stroke-linecap="round" stroke-linejoin="round"/>
<path d="M187.751 124.243L186.493 124.125L186.375 125.373L187.633 125.491L187.751 124.243Z" stroke="#263238" stroke-width="0.0891923" stroke-linecap="round" stroke-linejoin="round"/>
<path d="M190.028 124.458L188.77 124.339L188.651 125.587L189.909 125.705L190.028 124.458Z" stroke="#263238" stroke-width="0.0891923" stroke-linecap="round" stroke-linejoin="round"/>
<path d="M192.309 124.672L191.051 124.554L190.933 125.802L192.191 125.92L192.309 124.672Z" stroke="#263238" stroke-width="0.0891923" stroke-linecap="round" stroke-linejoin="round"/>
<path d="M194.593 124.887L193.335 124.769L193.217 126.016L194.475 126.134L194.593 124.887Z" stroke="#263238" stroke-width="0.0891923" stroke-linecap="round" stroke-linejoin="round"/>
<path d="M185.925 120.737C185.919 120.799 185.895 120.857 185.856 120.905C185.816 120.953 185.764 120.989 185.704 121.007C185.645 121.025 185.581 121.026 185.521 121.008C185.461 120.991 185.408 120.956 185.368 120.908C185.328 120.861 185.304 120.803 185.297 120.741C185.29 120.68 185.302 120.618 185.331 120.563C185.36 120.508 185.405 120.463 185.46 120.434C185.515 120.404 185.577 120.391 185.639 120.397C185.68 120.401 185.72 120.413 185.757 120.432C185.794 120.451 185.826 120.477 185.853 120.509C185.879 120.54 185.899 120.577 185.912 120.616C185.924 120.655 185.928 120.697 185.925 120.737Z" fill="#263238"/>
<path d="M188.607 106.581L188.759 106.866L189.462 106.161" stroke="#263238" stroke-width="0.178385" stroke-linecap="round" stroke-linejoin="round"/>
<path d="M192.612 112.906L192.763 113.193L193.467 112.485" stroke="#263238" stroke-width="0.178385" stroke-linecap="round" stroke-linejoin="round"/>
<path d="M189.75 118.787L189.905 119.075L190.605 118.367" stroke="#263238" stroke-width="0.178385" stroke-linecap="round" stroke-linejoin="round"/>
<path d="M193.706 125.305L193.858 125.592L194.561 124.884" stroke="#263238" stroke-width="0.178385" stroke-linecap="round" stroke-linejoin="round"/>
</g>
<path opacity="0.2" d="M185.436 130.587C185.436 130.587 184.85 142.373 184.842 143.061C184.834 143.75 185.548 147.933 185.548 147.933L182.399 153.071L184.8 155.175L189.876 150.693C189.876 150.693 193.886 153.411 194.469 157.053C195.053 160.696 199.423 163.536 203.612 173.744C207.8 183.953 214.659 151.873 214.659 151.873L201.119 133.289L185.436 130.587Z" fill="black" fill-opacity="0.7"/>
<path d="M226.613 178.738L204.286 181.407C204.286 181.407 201.393 160.988 199.245 157.688C197.098 154.389 197.588 153.099 196.567 150.897C195.955 149.568 192.688 146.987 190.153 144.472C189.932 144.255 189.718 144.037 189.512 143.824C189.422 143.736 189.339 143.642 189.256 143.555C188.92 143.193 188.608 142.842 188.334 142.498C188.233 142.376 188.135 142.254 188.039 142.132C187.573 141.567 187.237 140.909 187.055 140.203C187.047 140.172 187.042 140.14 187.041 140.107C187.033 140.069 187.029 140.031 187.027 139.992C186.991 139.512 186.954 138.963 186.92 138.368C186.926 138.251 186.907 138.127 186.897 138.003L186.885 137.854C186.856 137.358 186.821 136.831 186.778 136.289C186.735 135.746 186.69 135.132 186.63 134.539C186.612 134.334 186.593 134.13 186.569 133.918C186.546 133.689 186.519 133.459 186.493 133.226L186.418 132.629C186.419 132.595 186.405 132.564 186.404 132.536L186.312 131.836C186.304 131.811 186.3 131.785 186.3 131.759C186.266 131.556 186.235 131.357 186.197 131.154C186.122 130.703 186.033 130.26 185.948 129.83C185.771 129.019 185.532 128.222 185.232 127.448C183.803 123.849 185.82 125.22 185 116.096C185 116.096 186.021 114.038 188.565 115.842C188.761 115.983 188.95 116.133 189.131 116.292C189.642 116.743 190.088 117.261 190.455 117.832C190.953 118.61 191.32 119.462 191.542 120.355C191.903 121.804 191.953 123.312 191.688 124.78C191.688 124.78 193.342 131.55 194.308 133.119C195.275 134.688 199.986 126.164 199.757 125.133C199.681 124.672 199.629 124.208 199.601 123.742C199.59 123.59 199.579 123.432 199.565 123.258C199.551 123.084 199.541 122.911 199.531 122.728C199.535 122.642 199.517 122.548 199.509 122.458C199.511 122.421 199.513 122.384 199.514 122.351C199.493 122 199.467 121.628 199.445 121.244C199.45 121.136 199.433 121.034 199.425 120.934L199.396 120.377C199.395 120.346 199.397 120.315 199.4 120.285C199.405 120.18 199.385 120.071 199.381 119.959C199.366 119.742 199.355 119.522 199.344 119.303C199.332 119.083 199.324 118.925 199.314 118.736C199.294 118.38 199.276 118.023 199.258 117.68C199.245 117.423 199.233 117.169 199.222 116.921C199.225 116.866 199.228 116.81 199.215 116.757C199.148 115.395 199.098 114.28 199.083 113.797C199.083 113.797 196.181 109.081 195.972 106.915C195.762 104.748 195.889 102.484 197.24 101.624C200.438 99.5957 199.36 103.06 200.683 104.569C202.006 106.077 204.01 108.567 205.179 109.367C206.256 110.117 207.12 112.858 207.241 113.271C207.11 112.672 205.799 106.777 205.821 105.604C205.839 104.369 205.195 97.8017 206.925 95.5393C208.656 93.2769 210.728 95.1952 210.906 95.667C211.084 96.1389 210.842 102.46 211.329 104.244C211.817 106.029 213.858 113.469 213.858 113.469C213.858 113.469 214.297 106.347 214.988 103.183C215.68 100.018 217.199 97.5915 218.579 97.5151C219.958 97.4387 221.157 98.994 221.157 98.994C221.157 98.994 220.372 104.054 220.472 105.236C220.572 106.417 219.989 110.641 220.532 112.962C220.532 112.962 220.747 106.883 221.738 106.152C222.73 105.42 223.568 105.087 224.079 105.645C224.591 106.204 224.535 109.797 224.978 111.987C225.421 114.177 225.212 117.114 225.411 120.506C225.609 123.898 226.799 128.651 226.391 131.316C225.982 133.981 224.802 140.582 223.921 144.448C223.039 148.314 221.01 153.578 221.01 153.578C221.01 153.578 221.682 156.467 221.405 159.003C221.128 161.538 226.613 178.738 226.613 178.738Z" fill="white"/>
<path opacity="0.8" d="M211.289 104.239C211.651 105.563 212.861 109.982 213.462 112.189C213.462 112.189 210.261 114.289 210.239 116.382C210.218 118.476 209.371 122.661 207.985 122.475C206.6 122.288 207.161 113.52 206.76 112.024C207.015 112.654 207.17 113.196 207.203 113.3C207.118 112.916 205.752 106.799 205.774 105.601C205.788 105.318 205.749 104.757 205.718 104.029L205.719 104.014C205.719 104.014 208.933 101.25 211.107 103.139C211.14 103.51 211.201 103.877 211.289 104.239Z" fill="#FFE4C8"/>
<path opacity="0.8" d="M220.365 107.201C218.859 108.486 216.571 110.768 216.187 113.058C216.187 113.058 216.686 119.526 216.209 122.311L213.815 113.482C213.815 113.482 214.255 106.361 214.946 103.196L215.005 102.936C216.8 102.138 218.756 101.757 220.724 101.825C220.549 102.953 220.454 104.092 220.44 105.234C220.45 105.891 220.425 106.547 220.365 107.201Z" fill="#FFE4C8"/>
<path opacity="0.4" d="M221.697 106.139C221.662 106.162 221.574 106.222 221.448 106.321C221.528 106.186 221.615 106.055 221.71 105.929L221.697 106.139Z" fill="#92E3A9"/>
<path opacity="0.8" d="M221.584 123.94C221.584 123.94 220.058 116.984 220.302 111.454C220.384 109.406 220.713 107.553 221.444 106.324C221.524 106.189 221.612 106.058 221.706 105.932L221.697 106.132C222.044 105.86 222.427 105.635 222.836 105.464C222.276 106.24 221.603 107.781 222.173 110.375C223.072 114.415 221.892 119.246 221.584 123.94Z" fill="#FFE4C8"/>
<path opacity="0.8" d="M195.4 135.82C195.4 135.82 195.585 142.388 190.151 144.477C189.93 144.259 189.715 144.042 189.51 143.829C189.42 143.741 189.337 143.647 189.254 143.56C188.918 143.198 188.606 142.843 188.331 142.503C188.228 142.377 188.137 142.256 188.036 142.137C187.57 141.572 187.234 140.914 187.052 140.208C187.045 140.177 187.04 140.144 187.038 140.112C187.031 140.074 187.027 140.036 187.025 139.997C186.988 139.516 186.952 138.968 186.918 138.373C186.923 138.256 186.904 138.132 186.895 138.007L186.883 137.859C186.853 137.36 186.819 136.836 186.776 136.293C186.733 135.751 186.687 135.137 186.628 134.544C186.606 134.339 186.588 134.131 186.567 133.923C186.543 133.694 186.517 133.461 186.49 133.231L186.416 132.634L186.401 132.541C186.369 132.307 186.339 132.08 186.303 131.85C186.297 131.824 186.293 131.799 186.291 131.772C186.257 131.57 186.226 131.368 186.188 131.168C186.11 130.717 186.021 130.274 185.939 129.843C188.14 127.94 192.94 129.429 190.809 124.678C190.809 124.678 192.183 120.765 189.122 116.306C191.271 118.191 192.267 121.374 191.68 124.769C191.68 124.769 193.334 131.536 194.301 133.108C195.267 134.68 199.978 126.153 199.749 125.119C199.673 124.66 199.622 124.196 199.597 123.731C199.582 123.579 199.571 123.421 199.56 123.247C199.55 123.074 199.533 122.9 199.523 122.714C199.527 122.631 199.51 122.538 199.501 122.448C199.503 122.411 199.505 122.374 199.506 122.34C199.486 121.987 199.463 121.618 199.437 121.23C199.442 121.126 199.425 121.023 199.418 120.921C199.427 120.736 199.398 120.549 199.388 120.363C199.388 120.332 199.389 120.301 199.392 120.271C199.397 120.166 199.378 120.057 199.373 119.945C199.359 119.725 199.35 119.509 199.336 119.289L199.307 118.719C199.286 118.366 199.269 118.01 199.251 117.666C199.241 117.406 199.228 117.152 199.215 116.907C199.217 116.852 199.22 116.796 199.207 116.743C199.275 117.151 200.503 124.664 201.322 126.442C202.139 128.267 197.767 137.478 195.4 135.82Z" fill="#FFE4C8"/>
<path opacity="0.8" d="M223.88 144.441C222.999 148.31 220.97 153.57 220.97 153.57C220.97 153.57 221.642 156.46 221.365 158.995C221.289 159.678 221.637 161.424 222.177 163.615C222.015 163.132 220.258 157.945 220.386 156.168C220.512 154.321 220 153.768 219.048 151.428C218.097 149.087 216.491 149.261 216.491 149.261C216.491 149.261 215.595 154.946 214.326 151.123C213.057 147.299 212.981 142.918 217.362 127.928C217.362 127.928 217.824 129.856 217.093 135.484C216.363 141.111 217.648 142.887 217.648 142.887C219.874 139.444 221.687 135.755 223.049 131.896C223.049 131.896 222.261 138.467 221.697 141.449C221.133 144.431 223.363 138.04 224.895 134.1C226.322 130.399 226.449 128.975 226.096 126.277C226.362 128.177 226.545 129.987 226.345 131.293C225.943 133.955 224.762 140.563 223.88 144.441Z" fill="#FFE4C8"/>
<path opacity="0.8" d="M198.242 155.944C199.241 157.694 201.776 160.061 203.063 166.334C204.35 172.608 203.029 179.345 203.029 179.345L198.242 155.944Z" fill="#FFE4C8"/>
<path opacity="0.8" d="M191.428 120.357C191.428 120.357 185.771 122.868 185.114 127.47C183.685 123.871 185.702 125.243 184.883 116.119C184.883 116.119 185.903 114.06 188.447 115.865C188.643 116.005 188.832 116.156 189.013 116.315C189.525 116.765 189.97 117.284 190.337 117.855L191.428 120.357Z" fill="#FFE4C8" fill-opacity="0.7"/>
<path d="M204.283 181.409C204.283 181.409 201.393 160.99 199.243 157.69C197.092 154.391 197.585 153.101 196.564 150.899C195.543 148.698 187.266 143.061 187.034 139.992C186.802 136.922 186.65 131.051 185.217 127.452C183.784 123.853 185.804 125.225 184.982 116.097C184.982 116.097 186.018 114.043 188.549 115.847C191.08 117.651 192.312 121.074 191.676 124.772C191.676 124.772 193.33 131.539 194.3 133.112C195.269 134.684 199.971 126.156 199.745 125.123C199.519 124.089 199.106 115.37 199.05 113.783C199.05 113.783 196.148 109.063 195.938 106.897C195.729 104.731 195.855 102.466 197.206 101.61C200.405 99.5809 199.327 103.045 200.649 104.554C201.972 106.063 203.977 108.546 205.143 109.349C206.308 110.152 207.222 113.3 207.222 113.3C207.222 113.3 205.763 106.824 205.788 105.586C205.812 104.349 205.162 97.7839 206.892 95.5215C208.623 93.2591 210.695 95.1773 210.873 95.6492C211.05 96.121 210.809 102.443 211.299 104.224C211.79 106.005 213.821 113.451 213.821 113.451C213.821 113.451 214.263 106.33 214.955 103.165C215.647 100.001 217.169 97.5739 218.545 97.4973C219.922 97.4207 221.123 98.9762 221.123 98.9762C221.123 98.9762 220.338 104.036 220.435 105.218C220.532 106.399 219.956 110.62 220.499 112.944C220.499 112.944 220.713 106.865 221.705 106.134C222.697 105.403 223.535 105.069 224.046 105.627C224.557 106.186 224.502 109.78 224.945 111.969C225.388 114.159 225.182 117.096 225.377 120.488C225.572 123.881 226.766 128.633 226.358 131.295C225.949 133.957 224.769 140.564 223.884 144.43C223 148.296 220.98 153.56 220.98 153.56C220.98 153.56 221.652 156.449 221.372 158.985C221.092 161.52 226.619 178.749 226.619 178.749" stroke="#263238" stroke-width="0.0891923" stroke-linecap="round" stroke-linejoin="round"/>
<path d="M213.812 113.466C214.386 114.995 215.679 121.393 216.205 122.298C216.471 122.797 216.874 123.211 217.368 123.493" stroke="#263238" stroke-width="0.0891923" stroke-linecap="round" stroke-linejoin="round"/>
<path d="M220.491 112.95C220.491 112.95 220.292 114.238 220.804 118.405C221.315 122.572 221.578 124.345 221.933 125.286" stroke="#263238" stroke-width="0.0891923" stroke-linecap="round" stroke-linejoin="round"/>
<path d="M207.209 113.315C207.953 115.874 208.252 119.911 208.687 121.142C209.123 122.374 209.554 122.645 209.554 122.645" stroke="#263238" stroke-width="0.0891923" stroke-linecap="round" stroke-linejoin="round"/>
<path d="M208.32 119.423C208.822 119.838 209.21 120.372 209.447 120.975" stroke="#263238" stroke-width="0.0891923" stroke-linecap="round" stroke-linejoin="round"/>
<path d="M194.301 133.114C194.301 133.114 194.616 136.474 196.743 136.319" stroke="#263238" stroke-width="0.0891923" stroke-linecap="round" stroke-linejoin="round"/>
<path d="M199.747 125.126C199.747 125.126 200.104 129.122 199.125 130.762" stroke="#263238" stroke-width="0.0891923" stroke-linecap="round" stroke-linejoin="round"/>
<path d="M216.662 125.969C216.662 125.969 218.044 126.897 216.972 129.382C215.9 131.867 213.759 141.966 213.759 141.966" stroke="#263238" stroke-width="0.0891923" stroke-linecap="round" stroke-linejoin="round"/>
<path d="M222.729 128.937C223.216 131.247 223.267 131.308 222.172 134.064C221.078 136.82 219.177 143.597 219.177 143.597" stroke="#263238" stroke-width="0.0891923" stroke-linecap="round" stroke-linejoin="round"/>
<path d="M220.97 153.551C220.97 153.551 220.122 151.658 220.969 150.153" stroke="#263238" stroke-width="0.0891923" stroke-linecap="round" stroke-linejoin="round"/>
<path d="M199.243 157.692C199.243 157.692 201.44 161.068 202.289 164.769" stroke="#263238" stroke-width="0.0891923" stroke-linecap="round" stroke-linejoin="round"/>
<path d="M219.274 101.299L219.94 100.707L220.231 100.641L220.198 100.948L219.579 101.657L219.274 101.299Z" fill="#757575" stroke="#263238" stroke-width="0.0891923" stroke-linecap="round" stroke-linejoin="round"/>
<path d="M219.774 101.668L218.628 103.939L189.055 139.272L186.05 137.174L190.516 132.159L216.983 102.372L219.254 101.093C219.384 101.136 219.5 101.212 219.591 101.313C219.682 101.413 219.745 101.536 219.774 101.668Z" fill="#20446C"/>
<path opacity="0.3" d="M219.772 101.668L218.626 103.939L189.053 139.272L186.048 137.174L190.514 132.159C192.455 132.054 192.726 133.191 192.726 133.191L218.163 103.42C217.965 102.58 216.962 102.371 216.962 102.371L219.234 101.092C219.367 101.133 219.487 101.207 219.581 101.308C219.676 101.41 219.742 101.533 219.772 101.668Z" fill="black" fill-opacity="0.7"/>
<path d="M219.774 101.668L218.628 103.939L189.055 139.272L186.05 137.174L190.516 132.159L216.983 102.372L219.254 101.093C219.384 101.136 219.5 101.212 219.591 101.313C219.682 101.413 219.745 101.536 219.774 101.668Z" stroke="#263238" stroke-width="0.0891923" stroke-linecap="round" stroke-linejoin="round"/>
<path d="M198.648 128.852C198.648 128.852 195.239 134.794 192.057 138.961L189.898 139.405C189.898 139.405 184.771 143.981 181.668 146.236C181.141 145.878 180.669 145.446 180.266 144.955C180.266 144.955 184.891 137.11 189.829 132.235C190.37 132.456 190.875 132.754 191.329 133.119C191.919 133.573 192.437 134.112 192.866 134.718L198.407 128.464L198.648 128.852Z" fill="#F0792E"/>
<path opacity="0.3" d="M198.651 128.851C198.651 128.851 195.241 134.793 192.06 138.96L189.9 139.404C189.9 139.404 184.773 143.98 181.67 146.235L181.813 144.935C185.288 140.198 189.66 135.059 191.331 133.118C191.921 133.572 192.439 134.111 192.868 134.717L189.778 138.413L191.459 138.184L198.41 128.45L198.651 128.851Z" fill="black" fill-opacity="0.7"/>
<path d="M198.648 128.852C198.648 128.852 195.239 134.794 192.057 138.961L189.898 139.405C189.898 139.405 184.771 143.981 181.668 146.236C181.141 145.878 180.669 145.446 180.266 144.955C180.266 144.955 184.891 137.11 189.829 132.235C190.37 132.456 190.875 132.754 191.329 133.119C191.919 133.573 192.437 134.112 192.866 134.718L198.407 128.464L198.648 128.852Z" stroke="#263238" stroke-width="0.0891923" stroke-linecap="round" stroke-linejoin="round"/>
<path d="M209.552 122.647L200.461 130.555L199.009 131.827C200.076 129.455 199.793 125.685 199.754 125.242C199.756 125.228 199.756 125.215 199.756 125.202C199.759 125.179 199.76 125.157 199.76 125.134C199.684 124.674 199.633 124.211 199.607 123.746C199.592 123.594 199.581 123.436 199.57 123.262C199.56 123.089 199.543 122.915 199.533 122.729C199.537 122.646 199.52 122.552 199.511 122.462C199.513 122.425 199.515 122.388 199.517 122.354C199.496 122.004 199.47 121.632 199.447 121.245C199.452 121.14 199.435 121.037 199.428 120.935C199.437 120.75 199.408 120.564 199.398 120.378C199.398 120.347 199.399 120.316 199.402 120.285C199.407 120.18 199.388 120.071 199.384 119.96C199.369 119.74 199.361 119.523 199.346 119.303L199.317 118.733C199.296 118.38 199.279 118.024 199.261 117.68C199.248 117.42 199.235 117.169 199.225 116.922C199.228 116.866 199.23 116.811 199.217 116.758C199.151 115.395 199.1 114.281 199.086 113.798C199.086 113.798 196.184 109.082 195.974 106.912C195.765 104.743 195.891 102.481 197.242 101.625C200.44 99.5963 199.363 103.061 200.685 104.569C202.008 106.078 204.013 108.568 205.181 109.368C206.35 110.168 207.257 113.319 207.257 113.319C208.001 115.878 208.3 119.912 208.736 121.147C209.171 122.381 209.552 122.647 209.552 122.647Z" fill="white"/>
<path d="M208.32 119.423C208.822 119.838 209.21 120.372 209.447 120.975" stroke="#263238" stroke-width="0.0891923" stroke-linecap="round" stroke-linejoin="round"/>
<path opacity="0.8" d="M200.638 104.566C201.948 106.086 203.954 108.548 205.122 109.357C204.958 109.266 202.79 108.094 201.495 109.222C200.148 110.393 199.052 113.786 199.052 113.786C199.052 113.786 196.149 109.069 195.94 106.9C195.731 104.731 195.857 102.469 197.208 101.613C200.394 99.5834 199.322 103.048 200.638 104.566Z" fill="#FFE4C8"/>
<path opacity="0.8" d="M200.458 130.557L199.006 131.823C200.073 129.452 199.789 125.681 199.751 125.238C199.757 125.202 199.758 125.166 199.756 125.13C199.68 124.67 199.629 124.207 199.604 123.742C199.589 123.59 199.578 123.432 199.567 123.258C199.557 123.085 199.54 122.911 199.53 122.725C199.534 122.642 199.516 122.548 199.508 122.458C199.51 122.421 199.512 122.384 199.513 122.35C199.493 121.997 199.47 121.629 199.444 121.241C199.449 121.136 199.432 121.034 199.425 120.931C199.433 120.746 199.405 120.56 199.395 120.374C199.395 120.343 199.396 120.312 199.399 120.281C199.404 120.177 199.384 120.068 199.38 119.956C199.366 119.736 199.357 119.519 199.343 119.299L199.314 118.73C199.293 118.376 199.276 118.02 199.257 117.677C199.248 117.417 199.235 117.163 199.222 116.918C199.224 116.863 199.227 116.807 199.214 116.754C199.282 117.162 200.51 124.675 201.329 126.453C201.604 127.115 201.208 128.789 200.458 130.557Z" fill="#FFE4C8"/>
<path d="M209.551 122.645C209.551 122.645 209.123 122.375 208.684 121.143C208.246 119.911 207.95 115.875 207.206 113.315C207.206 113.315 206.295 110.183 205.127 109.364C203.959 108.545 201.95 106.089 200.634 104.569C199.318 103.048 200.39 99.5833 197.191 101.624C195.84 102.487 195.707 104.745 195.923 106.912C196.139 109.078 199.035 113.797 199.035 113.797C199.09 115.385 199.501 124.107 199.73 125.137" stroke="#263238" stroke-width="0.0891923" stroke-linecap="round" stroke-linejoin="round"/>
<path d="M199.747 125.126C199.747 125.126 200.104 129.122 199.125 130.762" stroke="#263238" stroke-width="0.0891923" stroke-linecap="round" stroke-linejoin="round"/>
<path opacity="0.2" d="M146.154 127.456C146.154 127.456 147.698 136.609 143.107 142.998C138.516 149.387 135.141 150.985 133.569 152.881C131.996 154.777 125.674 165.483 125.674 165.483L119.847 145.357L127.783 121.172L146.154 127.456Z" fill="black" fill-opacity="0.7"/>
<g clip-path="url(#clip2_834_26538)">
<path d="M143.239 90.168L123.656 96.9702L133.988 126.169L153.571 119.367L143.239 90.168Z" fill="white" stroke="#263238" stroke-width="0.0891923" stroke-linecap="round" stroke-linejoin="round"/>
<path d="M125.828 98.4492L130.921 96.6685" stroke="#263238" stroke-width="0.178385" stroke-linecap="round" stroke-linejoin="round"/>
<path d="M126.174 99.4175L129.637 98.2052" stroke="#263238" stroke-width="0.178385" stroke-linecap="round" stroke-linejoin="round"/>
<path d="M128.232 101.275L142.882 96.1516" stroke="#263238" stroke-width="0.178385" stroke-linecap="round" stroke-linejoin="round"/>
<path d="M128.574 102.243L143.224 97.1213" stroke="#263238" stroke-width="0.178385" stroke-linecap="round" stroke-linejoin="round"/>
<path d="M128.981 103.373L141.474 99.0056" stroke="#263238" stroke-width="0.178385" stroke-linecap="round" stroke-linejoin="round"/>
<path d="M130.602 103.965L129.41 104.382L129.831 105.564L131.023 105.147L130.602 103.965Z" stroke="#263238" stroke-width="0.0891923" stroke-linecap="round" stroke-linejoin="round"/>
<path d="M132.762 103.21L131.57 103.626L131.991 104.808L133.183 104.392L132.762 103.21Z" stroke="#263238" stroke-width="0.0891923" stroke-linecap="round" stroke-linejoin="round"/>
<path d="M134.921 102.454L133.729 102.871L134.151 104.053L135.342 103.636L134.921 102.454Z" stroke="#263238" stroke-width="0.0891923" stroke-linecap="round" stroke-linejoin="round"/>
<path d="M137.078 101.699L135.887 102.115L136.308 103.297L137.499 102.881L137.078 101.699Z" stroke="#263238" stroke-width="0.0891923" stroke-linecap="round" stroke-linejoin="round"/>
<path d="M127.452 101.543C127.474 101.602 127.477 101.665 127.462 101.726C127.447 101.787 127.414 101.842 127.368 101.884C127.321 101.926 127.263 101.953 127.2 101.962C127.138 101.971 127.074 101.962 127.017 101.935C126.96 101.908 126.913 101.865 126.881 101.811C126.848 101.758 126.833 101.696 126.836 101.633C126.84 101.571 126.862 101.511 126.9 101.461C126.938 101.411 126.99 101.373 127.049 101.353C127.128 101.326 127.214 101.33 127.29 101.366C127.365 101.401 127.424 101.465 127.452 101.543Z" fill="#263238"/>
<path d="M130.245 106.932L144.894 101.808" stroke="#263238" stroke-width="0.178385" stroke-linecap="round" stroke-linejoin="round"/>
<path d="M130.593 107.9L145.243 102.779" stroke="#263238" stroke-width="0.178385" stroke-linecap="round" stroke-linejoin="round"/>
<path d="M130.994 109.033L143.487 104.663" stroke="#263238" stroke-width="0.178385" stroke-linecap="round" stroke-linejoin="round"/>
<path d="M132.615 109.62L131.424 110.037L131.845 111.219L133.036 110.802L132.615 109.62Z" stroke="#263238" stroke-width="0.0891923" stroke-linecap="round" stroke-linejoin="round"/>
<path d="M134.777 108.867L133.586 109.284L134.007 110.466L135.198 110.049L134.777 108.867Z" stroke="#263238" stroke-width="0.0891923" stroke-linecap="round" stroke-linejoin="round"/>
<path d="M136.935 108.111L135.743 108.528L136.164 109.71L137.356 109.293L136.935 108.111Z" stroke="#263238" stroke-width="0.0891923" stroke-linecap="round" stroke-linejoin="round"/>
<path d="M139.096 107.358L137.904 107.775L138.325 108.957L139.517 108.54L139.096 107.358Z" stroke="#263238" stroke-width="0.0891923" stroke-linecap="round" stroke-linejoin="round"/>
<path d="M129.466 107.205C129.487 107.264 129.49 107.327 129.474 107.388C129.459 107.448 129.426 107.503 129.379 107.545C129.332 107.586 129.274 107.613 129.212 107.622C129.149 107.631 129.086 107.621 129.029 107.594C128.972 107.567 128.925 107.524 128.893 107.47C128.861 107.416 128.846 107.354 128.849 107.292C128.853 107.23 128.875 107.17 128.913 107.12C128.951 107.07 129.003 107.033 129.062 107.012C129.141 106.985 129.228 106.99 129.304 107.026C129.379 107.062 129.438 107.126 129.466 107.205Z" fill="#263238"/>
<path d="M132.263 112.589L146.913 107.468" stroke="#263238" stroke-width="0.178385" stroke-linecap="round" stroke-linejoin="round"/>
<path d="M132.604 113.559L147.251 108.436" stroke="#263238" stroke-width="0.178385" stroke-linecap="round" stroke-linejoin="round"/>
<path d="M133.009 114.692L145.503 110.322" stroke="#263238" stroke-width="0.178385" stroke-linecap="round" stroke-linejoin="round"/>
<path d="M134.631 115.28L133.439 115.696L133.86 116.878L135.052 116.462L134.631 115.28Z" stroke="#263238" stroke-width="0.0891923" stroke-linecap="round" stroke-linejoin="round"/>
<path d="M136.793 114.524L135.602 114.94L136.023 116.122L137.214 115.706L136.793 114.524Z" stroke="#263238" stroke-width="0.0891923" stroke-linecap="round" stroke-linejoin="round"/>
<path d="M138.955 113.771L137.764 114.188L138.185 115.369L139.376 114.953L138.955 113.771Z" stroke="#263238" stroke-width="0.0891923" stroke-linecap="round" stroke-linejoin="round"/>
<path d="M141.112 113.015L139.921 113.432L140.342 114.614L141.533 114.197L141.112 113.015Z" stroke="#263238" stroke-width="0.0891923" stroke-linecap="round" stroke-linejoin="round"/>
<path d="M131.482 112.862C131.503 112.921 131.506 112.985 131.491 113.045C131.475 113.106 131.442 113.16 131.395 113.202C131.349 113.244 131.29 113.271 131.228 113.279C131.166 113.288 131.102 113.278 131.045 113.251C130.989 113.224 130.941 113.181 130.909 113.127C130.877 113.074 130.862 113.012 130.866 112.949C130.869 112.887 130.891 112.827 130.929 112.777C130.967 112.728 131.019 112.69 131.079 112.67C131.158 112.642 131.245 112.647 131.32 112.683C131.396 112.719 131.454 112.784 131.482 112.862Z" fill="#263238"/>
<path d="M134.334 118.405L148.982 113.284" stroke="#263238" stroke-width="0.178385" stroke-linecap="round" stroke-linejoin="round"/>
<path d="M134.678 119.375L149.326 114.254" stroke="#263238" stroke-width="0.178385" stroke-linecap="round" stroke-linejoin="round"/>
<path d="M135.081 120.507L147.575 116.14" stroke="#263238" stroke-width="0.178385" stroke-linecap="round" stroke-linejoin="round"/>
<path d="M136.705 121.098L135.514 121.514L135.935 122.696L137.126 122.279L136.705 121.098Z" stroke="#263238" stroke-width="0.0891923" stroke-linecap="round" stroke-linejoin="round"/>
<path d="M138.862 120.344L137.671 120.761L138.092 121.943L139.283 121.526L138.862 120.344Z" stroke="#263238" stroke-width="0.0891923" stroke-linecap="round" stroke-linejoin="round"/>
<path d="M141.024 119.589L139.833 120.005L140.254 121.187L141.445 120.771L141.024 119.589Z" stroke="#263238" stroke-width="0.0891923" stroke-linecap="round" stroke-linejoin="round"/>
<path d="M143.184 118.833L141.992 119.25L142.413 120.432L143.605 120.015L143.184 118.833Z" stroke="#263238" stroke-width="0.0891923" stroke-linecap="round" stroke-linejoin="round"/>
<path d="M133.566 118.676C133.587 118.735 133.59 118.798 133.574 118.858C133.559 118.918 133.526 118.972 133.48 119.013C133.434 119.055 133.376 119.081 133.315 119.09C133.253 119.099 133.19 119.09 133.134 119.063C133.077 119.037 133.03 118.994 132.998 118.941C132.966 118.888 132.951 118.827 132.954 118.765C132.957 118.703 132.979 118.644 133.016 118.594C133.053 118.545 133.104 118.507 133.163 118.486C133.202 118.473 133.243 118.467 133.285 118.469C133.326 118.471 133.367 118.481 133.404 118.499C133.441 118.516 133.475 118.541 133.503 118.572C133.531 118.602 133.552 118.638 133.566 118.676Z" fill="#263238"/>
<path d="M130.006 104.705L130.265 104.9L130.603 103.967" stroke="#263238" stroke-width="0.178385" stroke-linecap="round" stroke-linejoin="round"/>
<path d="M136.314 108.78L136.573 108.977L136.911 108.042" stroke="#263238" stroke-width="0.178385" stroke-linecap="round" stroke-linejoin="round"/>
<path d="M136.209 115.31L136.471 115.507L136.807 114.572" stroke="#263238" stroke-width="0.178385" stroke-linecap="round" stroke-linejoin="round"/>
<path d="M142.556 119.582L142.815 119.78L143.153 118.844" stroke="#263238" stroke-width="0.178385" stroke-linecap="round" stroke-linejoin="round"/>
</g>
<path d="M141.641 123.481C142.488 121.05 145.709 113.292 145.501 109.782C145.485 109.489 145.432 109.2 145.342 108.921C144.468 106.266 140.375 106.325 138.706 108.411C136.871 110.705 135.27 114.914 135.018 117.503C134.847 118.799 134.359 120.033 133.596 121.099C133.333 121.495 133.039 121.869 132.718 122.219L124.45 99.9689C123.473 100.697 122.609 101.563 121.885 102.538C121.478 103.081 121.202 103.709 121.079 104.374C120.786 106.523 117.901 115.233 116.7 118.911C116.678 118.99 116.649 119.063 116.627 119.139C115.47 122.674 117.439 136.101 116.51 139.928C115.58 143.754 115.126 143.649 114.886 146.387C114.712 148.387 111.521 154.343 107.963 160.441C105.921 163.934 103.776 167.474 102.004 170.352L125.86 170.509C126.408 167.668 126.976 164.674 127.502 161.77C127.728 160.563 128.023 159.369 128.385 158.194C129.009 156.123 129.739 154.258 130.188 153.167C130.77 151.561 131.266 149.924 131.672 148.264C134.577 145.502 138.425 141.122 139.623 138.09L139.624 138.068C139.912 137.447 140.027 136.76 139.956 136.079C139.866 135.519 139.829 134.951 139.846 134.384C139.896 131.025 140.932 125.505 141.641 123.481Z" fill="white"/>
<path opacity="0.8" d="M133.601 121.117C132.795 122.546 131.839 123.928 131.202 125.541C130.566 127.154 129.934 127.359 128.207 128.562C126.48 129.764 125.363 127.595 125.363 127.595C125.363 127.595 127.677 125.435 127.004 124.142C126.33 122.85 123.725 119.59 123.97 117.859C124.215 116.129 122.574 112.17 122.574 112.17C122.574 112.17 126.847 109.958 126.174 107.09C125.807 105.537 123.701 103.794 121.885 102.536C122.609 101.561 123.473 100.696 124.449 99.9675L132.723 122.237C133.044 121.886 133.338 121.512 133.601 121.117Z" fill="#FFE4C8"/>
<path opacity="0.8" d="M117.862 133.788C117.91 133.975 119.053 138.46 117.824 140.245C116.594 142.031 115.305 144.413 115.745 146.943C116.092 148.961 112.009 155.996 107.97 160.444C111.518 154.344 114.71 148.389 114.892 146.389C115.132 143.651 115.587 143.757 116.516 139.93C117.446 136.103 115.461 122.676 116.633 119.142C116.656 119.065 116.684 118.993 116.707 118.913C117.24 123.007 118.55 131.173 118.891 133.793C119.314 137.128 117.918 133.923 117.862 133.788Z" fill="#FFE4C8"/>
<path opacity="0.8" d="M125.169 160.847C128.496 149.211 138.238 140.626 139.623 138.075C138.425 141.108 134.58 145.487 131.672 148.25C131.266 149.909 130.771 151.546 130.188 153.153C129.745 154.244 129.015 156.109 128.385 158.18C125.54 161.202 125.169 160.847 125.169 160.847Z" fill="#FFE4C8"/>
<path opacity="0.8" d="M141.64 123.483C140.918 125.506 139.895 131.027 139.855 134.371C139.465 132.249 138.65 129.544 138.67 125.828C138.704 119.528 142.203 121.956 141.093 118.798C139.984 115.641 136.21 119.44 138.288 112.968C139.808 108.24 143.474 108.461 145.341 108.923C145.43 109.202 145.484 109.491 145.5 109.783C145.708 113.294 142.487 121.058 141.64 123.483Z" fill="#FFE4C8"/>
<path d="M132.722 122.236C132.107 123.287 131.593 124.393 131.189 125.54C130.728 127.032 128.763 126.722 127.698 127.61" stroke="#263238" stroke-width="0.0891923" stroke-linecap="round" stroke-linejoin="round"/>
<path d="M125.398 119.226C125.398 119.226 128.044 120.279 129.549 121.571C131.054 122.863 132.198 123.198 132.198 123.198" stroke="#263238" stroke-width="0.0891923" stroke-linecap="round" stroke-linejoin="round"/>
<path d="M124 112.564C124 112.564 126.14 113.269 127.783 112.59C127.892 111.824 128.065 111.069 128.3 110.331" stroke="#263238" stroke-width="0.0891923" stroke-linecap="round" stroke-linejoin="round"/>
<path d="M128.284 112.923C128.284 112.923 128.291 113.233 129.396 113.285" stroke="#263238" stroke-width="0.0891923" stroke-linecap="round" stroke-linejoin="round"/>
<path d="M131.668 148.256C130.084 149.689 128.835 151.446 128.009 153.405" stroke="#263238" stroke-width="0.0891923" stroke-linecap="round" stroke-linejoin="round"/>
<path d="M116.466 119.789C116.281 121.634 118.162 128.297 118.675 131.59C119.187 134.883 119.324 137.2 119.324 137.2" stroke="#263238" stroke-width="0.0891923" stroke-linecap="round" stroke-linejoin="round"/>
<path d="M105.941 164.022C109.199 158.777 112.348 153.369 114.739 147.487C115.032 146.639 114.749 145.504 115.042 144.656C118.239 137.023 115.416 128.786 116.322 120.859C116.911 117.745 118.076 114.634 119.243 111.523C119.829 109.258 120.129 106.712 121.002 104.449C121.871 102.754 122.741 100.775 124.458 99.9793C127.297 107.334 130.125 114.722 132.731 122.248C134.103 121.55 134.408 119.857 134.692 118.437C135.572 115.04 136.449 111.928 137.9 109.105C139.346 106.845 142.793 106.017 144.79 108.015C145.361 108.636 145.665 109.452 145.639 110.289C145.043 114.252 143.585 118.224 142.132 121.886C141.548 123.582 140.967 124.997 140.671 126.695C140.669 127.26 140.665 127.544 140.663 128.112C139.787 130.941 140.347 133.494 140.043 136.328C139.154 141.423 134.835 144.795 131.649 148.459C130.773 151.287 129.895 154.115 128.744 156.943C127.291 161.183 126.689 165.433 126.064 169.558" stroke="#263238" stroke-width="0.0891923" stroke-linecap="round" stroke-linejoin="round"/>
<g clip-path="url(#clip3_834_26538)">
<path d="M180.718 85.2708L154.862 84.04L153.021 122.728L178.877 123.958L180.718 85.2708Z" fill="white" stroke="#263238" stroke-width="0.0891923" stroke-linecap="round" stroke-linejoin="round"/>
<path d="M156.673 86.7651L163.404 87.0719" stroke="#263238" stroke-width="0.178385" stroke-linecap="round" stroke-linejoin="round"/>
<path d="M156.616 88.053L161.193 88.2599" stroke="#263238" stroke-width="0.178385" stroke-linecap="round" stroke-linejoin="round"/>
<path d="M158.116 91.1639L177.475 92.0441" stroke="#263238" stroke-width="0.178385" stroke-linecap="round" stroke-linejoin="round"/>
<path d="M158.061 92.4475L177.42 93.3307" stroke="#263238" stroke-width="0.178385" stroke-linecap="round" stroke-linejoin="round"/>
<path d="M157.992 93.9485L174.501 94.7016" stroke="#263238" stroke-width="0.178385" stroke-linecap="round" stroke-linejoin="round"/>
<path d="M159.588 95.391L158.014 95.3193L157.942 96.8867L159.517 96.9583L159.588 95.391Z" stroke="#263238" stroke-width="0.0891923" stroke-linecap="round" stroke-linejoin="round"/>
<path d="M162.438 95.5204L160.863 95.4487L160.792 97.0161L162.366 97.0877L162.438 95.5204Z" stroke="#263238" stroke-width="0.0891923" stroke-linecap="round" stroke-linejoin="round"/>
<path d="M165.296 95.6468L163.722 95.5752L163.65 97.1426L165.225 97.2142L165.296 95.6468Z" stroke="#263238" stroke-width="0.0891923" stroke-linecap="round" stroke-linejoin="round"/>
<path d="M168.151 95.7787L166.576 95.707L166.505 97.2744L168.079 97.346L168.151 95.7787Z" stroke="#263238" stroke-width="0.0891923" stroke-linecap="round" stroke-linejoin="round"/>
<path d="M157.089 91.1148C157.086 91.193 157.06 91.2686 157.014 91.332C156.968 91.3954 156.904 91.4437 156.83 91.4708C156.757 91.4978 156.676 91.5025 156.6 91.484C156.524 91.4656 156.454 91.425 156.401 91.3673C156.348 91.3096 156.313 91.2375 156.301 91.1602C156.289 91.0828 156.301 91.0036 156.334 90.9328C156.368 90.862 156.422 90.8026 156.489 90.7623C156.556 90.722 156.634 90.7026 156.713 90.7065C156.817 90.7117 156.915 90.7574 156.985 90.8338C157.055 90.9102 157.093 91.0112 157.089 91.1148Z" fill="#263238"/>
<path d="M157.775 98.6634L177.135 99.5436" stroke="#263238" stroke-width="0.178385" stroke-linecap="round" stroke-linejoin="round"/>
<path d="M157.719 99.9499L177.078 100.833" stroke="#263238" stroke-width="0.178385" stroke-linecap="round" stroke-linejoin="round"/>
<path d="M157.653 101.454L174.162 102.204" stroke="#263238" stroke-width="0.178385" stroke-linecap="round" stroke-linejoin="round"/>
<path d="M159.247 102.891L157.673 102.819L157.602 104.387L159.176 104.458L159.247 102.891Z" stroke="#263238" stroke-width="0.0891923" stroke-linecap="round" stroke-linejoin="round"/>
<path d="M162.101 103.025L160.526 102.953L160.455 104.52L162.029 104.592L162.101 103.025Z" stroke="#263238" stroke-width="0.0891923" stroke-linecap="round" stroke-linejoin="round"/>
<path d="M164.953 103.152L163.379 103.08L163.308 104.647L164.882 104.719L164.953 103.152Z" stroke="#263238" stroke-width="0.0891923" stroke-linecap="round" stroke-linejoin="round"/>
<path d="M167.807 103.283L166.232 103.211L166.161 104.779L167.736 104.85L167.807 103.283Z" stroke="#263238" stroke-width="0.0891923" stroke-linecap="round" stroke-linejoin="round"/>
<path d="M156.748 98.6198C156.745 98.6979 156.718 98.7732 156.672 98.8362C156.625 98.8991 156.561 98.947 156.487 98.9735C156.413 99.0001 156.333 99.0043 156.257 98.9855C156.181 98.9667 156.112 98.9258 156.059 98.868C156.006 98.8102 155.972 98.7381 155.96 98.6608C155.949 98.5835 155.96 98.5045 155.994 98.4339C156.027 98.3632 156.081 98.3041 156.149 98.2639C156.216 98.2238 156.294 98.2045 156.372 98.2085C156.477 98.2137 156.575 98.2599 156.645 98.337C156.716 98.4141 156.753 98.5157 156.748 98.6198Z" fill="#263238"/>
<path d="M157.434 106.167L176.793 107.05" stroke="#263238" stroke-width="0.178385" stroke-linecap="round" stroke-linejoin="round"/>
<path d="M157.375 107.452L176.731 108.332" stroke="#263238" stroke-width="0.178385" stroke-linecap="round" stroke-linejoin="round"/>
<path d="M157.309 108.953L173.819 109.704" stroke="#263238" stroke-width="0.178385" stroke-linecap="round" stroke-linejoin="round"/>
<path d="M158.905 110.393L157.331 110.321L157.26 111.889L158.834 111.96L158.905 110.393Z" stroke="#263238" stroke-width="0.0891923" stroke-linecap="round" stroke-linejoin="round"/>
<path d="M161.758 110.525L160.184 110.453L160.112 112.02L161.687 112.092L161.758 110.525Z" stroke="#263238" stroke-width="0.0891923" stroke-linecap="round" stroke-linejoin="round"/>
<path d="M164.616 110.656L163.042 110.584L162.971 112.152L164.545 112.223L164.616 110.656Z" stroke="#263238" stroke-width="0.0891923" stroke-linecap="round" stroke-linejoin="round"/>
<path d="M167.466 110.783L165.892 110.711L165.82 112.279L167.395 112.35L167.466 110.783Z" stroke="#263238" stroke-width="0.0891923" stroke-linecap="round" stroke-linejoin="round"/>
<path d="M156.404 106.122C156.401 106.2 156.374 106.276 156.328 106.339C156.282 106.402 156.217 106.449 156.144 106.476C156.07 106.503 155.99 106.507 155.913 106.488C155.837 106.469 155.768 106.428 155.715 106.37C155.663 106.313 155.628 106.241 155.617 106.163C155.605 106.086 155.617 106.007 155.65 105.936C155.684 105.866 155.738 105.807 155.805 105.766C155.872 105.726 155.95 105.707 156.028 105.711C156.133 105.716 156.231 105.762 156.302 105.839C156.372 105.917 156.409 106.018 156.404 106.122Z" fill="#263238"/>
<path d="M157.085 113.882L176.441 114.764" stroke="#263238" stroke-width="0.178385" stroke-linecap="round" stroke-linejoin="round"/>
<path d="M157.027 115.169L176.382 116.051" stroke="#263238" stroke-width="0.178385" stroke-linecap="round" stroke-linejoin="round"/>
<path d="M156.956 116.67L173.465 117.423" stroke="#263238" stroke-width="0.178385" stroke-linecap="round" stroke-linejoin="round"/>
<path d="M158.557 118.112L156.982 118.041L156.911 119.608L158.486 119.68L158.557 118.112Z" stroke="#263238" stroke-width="0.0891923" stroke-linecap="round" stroke-linejoin="round"/>
<path d="M161.409 118.241L159.835 118.169L159.764 119.737L161.338 119.808L161.409 118.241Z" stroke="#263238" stroke-width="0.0891923" stroke-linecap="round" stroke-linejoin="round"/>
<path d="M164.261 118.37L162.687 118.299L162.615 119.866L164.19 119.938L164.261 118.37Z" stroke="#263238" stroke-width="0.0891923" stroke-linecap="round" stroke-linejoin="round"/>
<path d="M167.119 118.499L165.545 118.428L165.474 119.995L167.048 120.067L167.119 118.499Z" stroke="#263238" stroke-width="0.0891923" stroke-linecap="round" stroke-linejoin="round"/>
<path d="M156.07 113.838C156.066 113.915 156.04 113.99 155.994 114.052C155.948 114.115 155.885 114.162 155.812 114.189C155.738 114.215 155.659 114.219 155.584 114.201C155.508 114.183 155.44 114.142 155.387 114.085C155.335 114.028 155.3 113.957 155.288 113.881C155.276 113.804 155.287 113.726 155.32 113.656C155.353 113.585 155.406 113.527 155.472 113.486C155.539 113.446 155.616 113.426 155.693 113.43C155.745 113.432 155.796 113.444 155.842 113.466C155.889 113.487 155.931 113.518 155.966 113.556C156.001 113.594 156.029 113.638 156.046 113.687C156.064 113.735 156.072 113.786 156.07 113.838Z" fill="#263238"/>
<path d="M158.549 95.9694L158.756 96.3163L159.588 95.3913" stroke="#263238" stroke-width="0.178385" stroke-linecap="round" stroke-linejoin="round"/>
<path d="M163.918 103.637L164.125 103.987L164.958 103.059" stroke="#263238" stroke-width="0.178385" stroke-linecap="round" stroke-linejoin="round"/>
<path d="M160.718 111.167L160.928 111.517L161.757 110.589" stroke="#263238" stroke-width="0.178385" stroke-linecap="round" stroke-linejoin="round"/>
<path d="M166.041 119.078L166.248 119.428L167.081 118.5" stroke="#263238" stroke-width="0.178385" stroke-linecap="round" stroke-linejoin="round"/>
</g>
</g>
<defs>
<clipPath id="clip0_834_26538">
<rect width="340" height="358" rx="12" fill="white"/>
</clipPath>
<clipPath id="clip1_834_26538">
<rect width="23.8896" height="33.0098" fill="white" transform="matrix(0.995413 0.0956655 -0.0964679 0.995336 184.661 95.7368)"/>
</clipPath>
<clipPath id="clip2_834_26538">
<rect width="23.8624" height="33.0481" fill="white" transform="matrix(0.944634 -0.328127 0.333576 0.942723 121.83 96.5073)"/>
</clipPath>
<clipPath id="clip3_834_26538">
<rect width="29.7961" height="41.3269" fill="white" transform="translate(152.968 82.6499) rotate(2.72531)"/>
</clipPath>
</defs>
</svg>
