<svg width="198" height="206" viewBox="0 0 198 206" fill="none" xmlns="http://www.w3.org/2000/svg">
<path d="M183.016 41.2776C184.115 40.7869 185.047 39.9813 185.697 38.9607C186.348 37.9401 186.687 36.7493 186.674 35.5356C186.674 32.1063 184.121 29.3171 180.94 29.2984C177.758 29.2797 175.168 32.0549 175.154 35.4796C175.131 36.7044 175.467 37.9087 176.121 38.9407C176.774 39.9726 177.716 40.7858 178.826 41.2776C169.961 42.6278 170.363 52.3597 170.363 52.3597L191.327 52.4578C191.327 52.4578 191.803 42.6185 183.016 41.2776Z" fill="#F5F5F5"/>
<path d="M59.1448 4.89631L45.442 0L31.8732 4.8309C30.1436 5.64384 28.636 6.12973 28.636 7.73692V15.7261C28.6134 21.3486 30.1636 26.8632 33.108 31.6345C36.0651 36.4923 40.4222 40.3202 45.5946 42.6045C51.1442 40.8104 55.2786 36.0309 57.8129 31.9475C60.7486 27.1811 62.2968 21.6762 62.2804 16.0625V8.8769C62.2619 6.56423 61.0456 5.44761 59.1448 4.89631Z" fill="#F5F5F5"/>
<path d="M49.9926 17.796C49.9907 17.0838 49.7924 16.3862 49.4198 15.7816C49.0473 15.1769 48.5153 14.6892 47.8835 14.3731C47.2518 14.057 46.5453 13.9251 45.8435 13.9921C45.1417 14.0591 44.4722 14.3225 43.9103 14.7526C43.3484 15.1827 42.9163 15.7625 42.6625 16.4269C42.4087 17.0914 42.3432 17.8142 42.4735 18.5141C42.6038 19.214 42.9246 19.8634 43.3999 20.3894C43.8753 20.9153 44.4863 21.297 45.1645 21.4916V27.1961H47.2363V21.4916C48.0321 21.2641 48.7324 20.7797 49.2301 20.1123C49.7278 19.445 49.9956 18.6315 49.9926 17.796Z" fill="#EBEBEB"/>
<path d="M175.649 78.9808L177.984 80.261L176.935 82.0364L174.576 80.6348L174.618 83.2558H172.606V80.6161L170.247 82.0457L169.221 80.2703L171.556 78.9902L169.262 77.682L170.289 75.9066L172.648 77.3363V74.6919H174.659L174.618 77.3363L176.976 75.9066L178.026 77.682L175.649 78.9808Z" fill="#E0E0E0"/>
<path d="M185.379 78.9808L187.691 80.261L186.642 82.0364L184.283 80.6348L184.329 83.2558H182.313V80.6161L179.959 82.0457L178.928 80.2703L181.263 78.9902L178.974 77.682L180.005 75.9066L182.359 77.3363V74.6919H184.376L184.329 77.3363L186.688 75.9066L187.738 77.682L185.379 78.9808Z" fill="#E0E0E0"/>
<path d="M195.109 78.9808L197.449 80.261L196.399 82.0364L194.041 80.6348L194.083 83.2558H192.066L192.089 80.6161L189.731 82.0457L188.699 80.2703L191.039 78.9902L188.686 77.682L189.717 75.9066L192.075 77.3363L192.052 74.6919H194.069L194.027 77.3363L196.386 75.9066L197.435 77.682L195.109 78.9808Z" fill="#E0E0E0"/>
<path d="M96.1006 190.812V205.323H117.11H140.28V190.812H96.1006Z" fill="#F5F5F5"/>
<path d="M94.251 186.756V190.811H141.825V186.756H117.111H94.251Z" fill="#EBEBEB"/>
<path d="M118.035 205.323H140.28V190.811H141.825V186.756H117.11V190.437L118.035 205.323Z" fill="#EBEBEB"/>
<path d="M111.237 193.152H102.279V195.338H111.237V193.152Z" fill="#E0E0E0"/>
<path d="M112.633 198.067H101.127V202.678H112.633V198.067Z" fill="white"/>
<path d="M102.898 172.263V186.775H123.908H147.078V172.263H102.898Z" fill="#F5F5F5"/>
<path d="M101.044 168.203V172.263H148.622V168.203H123.908H101.044Z" fill="#EBEBEB"/>
<path d="M124.833 186.775H147.078V172.263H148.622V168.203H123.908V171.885L124.833 186.775Z" fill="#EBEBEB"/>
<path d="M118.035 174.604H109.077V176.79H118.035V174.604Z" fill="#E0E0E0"/>
<path d="M119.432 179.519H107.926V184.13H119.432V179.519Z" fill="white"/>
<path d="M198 205.435C198 205.505 153.673 205.556 99.0046 205.556C44.3366 205.556 0 205.505 0 205.435C0 205.365 44.3181 205.313 99.0046 205.313C153.691 205.313 198 205.37 198 205.435Z" fill="#263238"/>
<path d="M157.137 8.80225H74.5221C72.8465 8.80225 71.4883 10.1744 71.4883 11.8671V88.6523C71.4883 90.345 72.8465 91.7172 74.5221 91.7172H157.137C158.812 91.7172 160.171 90.345 160.171 88.6523V11.8671C160.171 10.1744 158.812 8.80225 157.137 8.80225Z" fill="white"/>
<path d="M157.137 91.7172H157.354C157.569 91.6969 157.781 91.6562 157.988 91.5957C158.319 91.4927 158.632 91.3348 158.913 91.1285C159.309 90.8336 159.627 90.4434 159.837 89.9932C160.087 89.4142 160.185 88.7807 160.124 88.1524C160.124 87.4516 160.124 86.6901 160.124 85.8631C160.124 84.2092 160.124 82.2983 160.124 80.1492C160.124 71.5526 160.101 59.1249 160.083 43.7445C160.083 36.059 160.083 27.64 160.083 18.6042C160.083 16.3492 160.083 14.0536 160.083 11.7176C160.048 11.1477 159.851 10.6002 159.514 10.1416C159.177 9.68292 158.716 9.33288 158.186 9.13398C157.635 8.95867 157.056 8.8936 156.48 8.94242H139.975H74.5311C73.8271 8.93857 73.1449 9.18874 72.6073 9.6479C72.074 10.1078 71.7268 10.7496 71.6315 11.4513C71.5995 11.8085 71.5887 12.1674 71.5991 12.5259V41.287C71.5991 52.3458 71.5991 63.0168 71.5991 73.1785C71.5991 78.2586 71.5991 83.2078 71.5991 88.0263C71.5991 88.3253 71.5991 88.6336 71.5991 88.9186C71.6252 89.2071 71.6922 89.4903 71.7979 89.7596C72.0133 90.2952 72.378 90.7562 72.8477 91.0865C73.3148 91.4131 73.8661 91.595 74.434 91.6097H82.9942H107.879L143.915 91.6471H153.71H156.258H157.127H156.258H153.71H143.915L107.879 91.6892H82.9942H74.4571C73.8461 91.6736 73.253 91.4778 72.7509 91.1258C72.2488 90.7738 71.8597 90.281 71.6315 89.7082C71.5174 89.4194 71.4442 89.1159 71.4141 88.8065C71.4141 88.4935 71.4141 88.1991 71.4141 87.8721C71.4141 83.0599 71.4141 78.1106 71.4141 73.0243C71.4141 62.8626 71.4141 52.1916 71.4141 41.1329C71.4141 35.6043 71.4141 29.9822 71.4141 24.2668V12.5259C71.4012 12.1564 71.4136 11.7864 71.4511 11.4186C71.5534 10.6576 71.9286 9.96105 72.5055 9.46102C73.0812 8.95836 73.8165 8.68145 74.5774 8.68079H140.021H154.718H156.498C157.099 8.62914 157.704 8.6974 158.279 8.88169C158.841 9.10629 159.327 9.48968 159.679 9.98599C160.031 10.4823 160.233 11.0705 160.263 11.6802C160.263 14.0163 160.263 16.3149 160.263 18.5762C160.263 27.6119 160.263 36.031 160.263 43.7165C160.263 59.0829 160.235 71.5246 160.226 80.1212C160.226 82.2703 160.226 84.1812 160.226 85.8351C160.226 86.662 160.226 87.4236 160.226 88.1244C160.287 88.7635 160.182 89.4077 159.921 89.9932C159.711 90.4475 159.393 90.8423 158.996 91.1425C158.705 91.3522 158.382 91.5102 158.039 91.6097C157.829 91.6689 157.613 91.705 157.396 91.7172H157.137Z" fill="#263238"/>
<path d="M78.1801 14.5489C78.1811 14.8561 78.0917 15.1566 77.9233 15.4124C77.755 15.6682 77.5152 15.8677 77.2345 15.9857C76.9537 16.1037 76.6446 16.1348 76.3464 16.0751C76.0481 16.0154 75.7741 15.8676 75.5591 15.6504C75.3441 15.4332 75.1978 15.1564 75.1387 14.855C75.0796 14.5537 75.1103 14.2414 75.2271 13.9578C75.3439 13.6742 75.5414 13.432 75.7946 13.2619C76.0478 13.0918 76.3453 13.0015 76.6494 13.0024C77.055 13.0037 77.4436 13.167 77.7304 13.4568C78.0173 13.7465 78.1789 14.1391 78.1801 14.5489Z" fill="#263238"/>
<path d="M81.1255 16.0953C81.9709 16.0953 82.6562 15.403 82.6562 14.5489C82.6562 13.6948 81.9709 13.0024 81.1255 13.0024C80.2801 13.0024 79.5947 13.6948 79.5947 14.5489C79.5947 15.403 80.2801 16.0953 81.1255 16.0953Z" fill="#263238"/>
<path d="M85.603 16.0953C86.4484 16.0953 87.1338 15.403 87.1338 14.5489C87.1338 13.6948 86.4484 13.0024 85.603 13.0024C84.7576 13.0024 84.0723 13.6948 84.0723 14.5489C84.0723 15.403 84.7576 16.0953 85.603 16.0953Z" fill="#263238"/>
<path d="M160.171 18.9452C160.171 19.0106 140.317 19.0667 115.829 19.0667C91.3419 19.0667 71.4883 19.0106 71.4883 18.9452C71.4883 18.8798 91.3373 18.8237 115.829 18.8237C140.322 18.8237 160.171 18.8751 160.171 18.9452Z" fill="#263238"/>
<path d="M128.357 50.178L128.459 50.0331L128.519 49.9537C128.543 49.9218 128.563 49.8873 128.579 49.8509C128.634 49.7652 128.68 49.6745 128.718 49.58C128.718 49.5239 128.764 49.4678 128.783 49.4071L128.838 49.2109C128.858 49.1389 128.872 49.0655 128.88 48.9913C128.897 48.9128 128.91 48.8332 128.917 48.753C128.947 48.3644 128.928 47.9735 128.861 47.5897C128.664 46.5396 128.308 45.5265 127.807 44.5855C127.158 43.3304 126.398 42.1373 125.536 41.0208C124.5 39.6619 123.37 38.3786 122.155 37.1803C120.765 35.7995 119.28 34.5194 117.711 33.3492C116.885 32.7263 116.009 32.1345 115.084 31.5739C114.147 30.9972 113.174 30.4822 112.171 30.0321C111.139 29.5516 110.052 29.2062 108.934 29.0042C108.362 28.9023 107.78 28.8865 107.204 28.9575C106.915 29.0028 106.634 29.086 106.367 29.2051C106.104 29.332 105.867 29.5079 105.669 29.7237C105.477 29.9475 105.33 30.2059 105.234 30.4853C105.147 30.7669 105.099 31.0593 105.09 31.3543C105.083 31.9392 105.162 32.5219 105.326 33.0829C105.657 34.1854 106.123 35.2417 106.714 36.2272C107.27 37.1847 107.888 38.104 108.564 38.9791C109.22 39.8387 109.909 40.647 110.608 41.4132C111.936 42.8546 113.364 44.1989 114.881 45.4358C116.197 46.5196 117.588 47.5078 119.043 48.3932C120.238 49.1297 121.496 49.7552 122.803 50.2621C123.787 50.6606 124.826 50.9033 125.883 50.9816C126.267 51.0054 126.653 50.9787 127.03 50.9021C127.108 50.8874 127.185 50.8671 127.261 50.8414C127.334 50.8258 127.406 50.8023 127.474 50.7713L127.659 50.6966C127.719 50.6685 127.77 50.6358 127.821 50.6078C127.909 50.5609 127.992 50.5062 128.07 50.4443L128.167 50.3695L128.241 50.2994L128.371 50.178L128.246 50.3088L128.172 50.3789L128.08 50.4536C128.001 50.5182 127.915 50.5745 127.825 50.6218L127.668 50.7106L127.478 50.79C127.41 50.8196 127.338 50.8431 127.266 50.8601C127.19 50.8858 127.113 50.9061 127.034 50.9208C126.655 51.001 126.266 51.0309 125.878 51.0096C124.82 50.9351 123.779 50.6955 122.794 50.2994C121.48 49.7941 120.216 49.1686 119.015 48.4306C117.56 47.5455 116.17 46.5572 114.853 45.4732C113.32 44.2382 111.875 42.8956 110.529 41.4553C109.826 40.6921 109.143 39.8792 108.48 39.0164C107.805 38.1393 107.187 37.2185 106.63 36.2599C106.039 35.2699 105.573 34.2088 105.243 33.1016C105.075 32.5334 104.994 31.9426 105.003 31.3496C105.013 31.0484 105.062 30.7499 105.151 30.4619C105.245 30.172 105.398 29.9048 105.599 29.6773C105.8 29.4498 106.046 29.2668 106.321 29.1397C106.594 29.0205 106.882 28.9373 107.176 28.8921C107.758 28.8171 108.347 28.8312 108.924 28.9341C110.051 29.1405 111.147 29.4874 112.189 29.9667C113.195 30.4199 114.172 30.938 115.112 31.5178C116.037 32.0831 116.911 32.6811 117.739 33.2978C119.309 34.4699 120.794 35.7533 122.183 37.1383C123.398 38.3394 124.528 39.6259 125.564 40.988C126.425 42.1089 127.184 43.3068 127.83 44.5668C128.331 45.5127 128.685 46.5306 128.88 47.585C128.944 47.9708 128.96 48.3633 128.926 48.753C128.918 48.8347 128.906 48.9158 128.889 48.9959C128.881 49.0706 128.866 49.1442 128.843 49.2155L128.787 49.4118C128.787 49.4725 128.741 49.5286 128.718 49.5846C128.682 49.68 128.635 49.7709 128.579 49.8556L128.519 49.9584L128.459 50.0378L128.357 50.178Z" fill="#F0792E"/>
<path d="M132.552 39.9415V39.764V39.6612C132.552 39.6285 132.552 39.5864 132.529 39.5444C132.511 39.4443 132.484 39.3458 132.45 39.25C132.45 39.194 132.413 39.1379 132.39 39.0772L132.298 38.895C132.266 38.8282 132.229 38.7641 132.187 38.7034C132.147 38.6318 132.102 38.5631 132.052 38.4978C131.82 38.1877 131.549 37.9083 131.248 37.6662C130.404 37.0172 129.469 36.5006 128.473 36.1338C127.153 35.6332 125.791 35.2548 124.403 35.0031C122.734 34.6869 121.045 34.4887 119.348 34.4098C117.401 34.3132 115.449 34.357 113.508 34.5406C112.485 34.6387 111.44 34.7789 110.381 34.9798C109.3 35.1813 108.233 35.4513 107.186 35.7881C106.1 36.1246 105.059 36.5953 104.087 37.1897C103.594 37.4974 103.15 37.8785 102.769 38.3203C102.581 38.5466 102.426 38.7982 102.307 39.0678C102.186 39.3373 102.124 39.6295 102.124 39.9252C102.124 40.2208 102.186 40.513 102.307 40.7825C102.427 41.0512 102.583 41.3025 102.769 41.53C103.15 41.9732 103.596 42.3545 104.092 42.6606C105.061 43.2596 106.102 43.7306 107.19 44.0623C108.237 44.4027 109.304 44.6743 110.386 44.8752C111.44 45.0714 112.49 45.2162 113.512 45.3144C115.454 45.4957 117.405 45.5394 119.353 45.4452C121.047 45.3754 122.735 45.1865 124.403 44.8799C125.782 44.6252 127.134 44.2452 128.445 43.7446C129.443 43.3815 130.379 42.8646 131.22 42.2121C131.524 41.9725 131.794 41.6928 132.025 41.3805C132.074 41.3169 132.119 41.2497 132.159 41.1796C132.201 41.1189 132.238 41.0548 132.27 40.988L132.362 40.8058C132.362 40.7451 132.404 40.6844 132.422 40.633C132.456 40.5372 132.483 40.4387 132.501 40.3386C132.501 40.2966 132.501 40.2545 132.524 40.2172V40.119V39.9415C132.524 39.9415 132.524 40.0022 132.524 40.119V40.2218C132.524 40.2592 132.524 40.2966 132.524 40.3386C132.51 40.4406 132.485 40.5409 132.45 40.6376C132.45 40.689 132.413 40.7498 132.39 40.8105L132.302 40.9927C132.27 41.0606 132.233 41.1262 132.191 41.1889C132.145 41.2544 132.113 41.3291 132.057 41.3945C131.825 41.7078 131.554 41.9903 131.252 42.2355C130.412 42.8934 129.476 43.4151 128.478 43.7819C127.166 44.288 125.812 44.6712 124.431 44.9266C122.759 45.2487 121.067 45.4502 119.367 45.5293C117.418 45.6267 115.465 45.5861 113.521 45.4078C112.495 45.3097 111.445 45.1649 110.386 44.9406C109.301 44.7435 108.23 44.4735 107.181 44.1323C106.09 43.7969 105.045 43.3261 104.069 42.7307C103.566 42.4185 103.114 42.031 102.727 41.5814C102.539 41.3506 102.383 41.0942 102.265 40.8199C102.14 40.5418 102.075 40.2399 102.075 39.9345C102.075 39.6291 102.14 39.3272 102.265 39.0491C102.383 38.7748 102.539 38.5184 102.727 38.2876C103.11 37.842 103.558 37.4576 104.055 37.1476C105.029 36.5486 106.075 36.0776 107.167 35.746C108.217 35.4061 109.288 35.1345 110.372 34.9331C111.431 34.7368 112.481 34.592 113.508 34.4939C115.451 34.3155 117.404 34.275 119.353 34.3724C121.053 34.4524 122.745 34.6522 124.417 34.9704C125.797 35.2301 127.152 35.6148 128.464 36.1198C129.462 36.4877 130.398 37.0093 131.238 37.6662C131.542 37.9102 131.812 38.1929 132.043 38.5072C132.099 38.5726 132.131 38.6473 132.177 38.7128C132.218 38.7745 132.255 38.8385 132.288 38.9043L132.376 39.0912C132.399 39.1519 132.418 39.208 132.436 39.2641C132.472 39.3607 132.497 39.461 132.51 39.5631C132.51 39.6051 132.51 39.6425 132.51 39.6799V39.778C132.552 39.8808 132.552 39.9415 132.552 39.9415Z" fill="#F0792E"/>
<path d="M126.993 27.1961L126.84 27.098L126.757 27.0466L126.651 26.9905C126.561 26.9438 126.469 26.9047 126.373 26.8737L126.202 26.8177L126.003 26.7803C125.93 26.7619 125.856 26.7509 125.781 26.7476C125.701 26.7425 125.621 26.7425 125.541 26.7476C125.156 26.7407 124.772 26.7846 124.398 26.8784C123.375 27.1501 122.398 27.5787 121.503 28.1492C120.309 28.8893 119.184 29.7369 118.141 30.6814C116.87 31.821 115.68 33.0497 114.58 34.3583C113.313 35.8521 112.152 37.4353 111.107 39.0958C110.557 39.9742 110.025 40.8992 109.535 41.8663C109.03 42.8468 108.59 43.8597 108.217 44.8985C107.816 45.9742 107.55 47.0965 107.426 48.239C107.364 48.8221 107.391 49.4113 107.504 49.9864C107.568 50.2722 107.667 50.5486 107.8 50.8086C107.946 51.0664 108.137 51.2945 108.365 51.4814C108.598 51.6557 108.861 51.7841 109.142 51.8599C109.425 51.9291 109.715 51.959 110.006 51.9486C110.587 51.916 111.159 51.7947 111.704 51.5889C112.761 51.1827 113.764 50.646 114.691 49.991C115.598 49.3635 116.463 48.6768 117.281 47.9353C118.086 47.2112 118.84 46.4636 119.542 45.7068C120.881 44.2688 122.117 42.7372 123.242 41.1235C124.222 39.7225 125.103 38.2534 125.878 36.7271C126.525 35.4701 127.057 34.1565 127.469 32.8026C127.793 31.7847 127.96 30.7226 127.964 29.6536C127.961 29.2652 127.908 28.8789 127.807 28.5043C127.807 28.4202 127.756 28.3454 127.733 28.2707C127.709 28.2004 127.682 28.1317 127.649 28.0651L127.562 27.8829C127.529 27.8268 127.492 27.7754 127.464 27.724C127.408 27.639 127.346 27.5579 127.28 27.4811L127.206 27.3923L127.132 27.3222L127.002 27.2008L127.136 27.3176L127.21 27.383L127.289 27.4764C127.358 27.5514 127.42 27.6327 127.474 27.7194L127.575 27.8735C127.603 27.9296 127.631 27.995 127.663 28.0557C127.697 28.1234 127.725 28.1938 127.747 28.266C127.778 28.3405 127.804 28.417 127.825 28.4949C127.932 28.8719 127.988 29.2616 127.992 29.6536C127.989 30.7266 127.825 31.793 127.506 32.8166C127.096 34.172 126.565 35.4871 125.92 36.7458C125.149 38.2783 124.27 39.7523 123.288 41.1562C122.174 42.7742 120.945 44.3091 119.612 45.7488C118.904 46.5104 118.155 47.2579 117.346 47.9821C116.527 48.7277 115.66 49.4176 114.751 50.0471C113.814 50.7109 112.798 51.2539 111.727 51.6636C111.178 51.8704 110.601 51.9917 110.016 52.0234C109.717 52.0358 109.418 52.0059 109.128 51.9346C108.838 51.8557 108.565 51.7226 108.323 51.5422C108.088 51.3514 107.892 51.1166 107.745 50.8507C107.604 50.5845 107.5 50.2999 107.435 50.0051C107.323 49.4235 107.298 48.8281 107.361 48.239C107.486 47.0901 107.754 45.9616 108.157 44.8798C108.532 43.833 108.976 42.8123 109.484 41.8243C109.979 40.8572 110.51 39.9321 111.061 39.0538C112.112 37.3925 113.277 35.8079 114.548 34.3116C115.65 33.0016 116.843 31.7728 118.118 30.6347C119.167 29.6926 120.297 28.8467 121.494 28.1071C122.394 27.5358 123.375 27.1073 124.403 26.8363C124.78 26.7457 125.167 26.7033 125.555 26.7102C125.638 26.7102 125.716 26.7102 125.795 26.7102C125.87 26.7158 125.944 26.7268 126.017 26.7429L126.211 26.7849L126.387 26.841C126.483 26.8735 126.576 26.9141 126.664 26.9625L126.771 27.0185L126.854 27.0746L126.993 27.1961Z" fill="#F0792E"/>
<path d="M101.936 46.2909C101.989 46.3439 102.031 46.4069 102.06 46.4762C102.088 46.5456 102.103 46.62 102.103 46.6951C102.103 46.7702 102.088 46.8445 102.06 46.9139C102.031 46.9833 101.989 47.0462 101.936 47.0992C101.829 47.2045 101.686 47.2634 101.536 47.2634C101.387 47.2634 101.243 47.2045 101.136 47.0992C101.084 47.0461 101.042 46.9831 101.014 46.9138C100.985 46.8444 100.971 46.7701 100.971 46.6951C100.971 46.62 100.985 46.5457 101.014 46.4764C101.042 46.407 101.084 46.344 101.136 46.2909C101.189 46.2379 101.251 46.1958 101.32 46.167C101.389 46.1383 101.462 46.1235 101.536 46.1235C101.611 46.1235 101.684 46.1383 101.753 46.167C101.822 46.1958 101.884 46.2379 101.936 46.2909Z" fill="#F0792E"/>
<path d="M133.842 28.5882C133.846 28.7026 133.816 28.8155 133.756 28.9124C133.695 29.0093 133.608 29.0859 133.504 29.1323C133.401 29.1786 133.286 29.1927 133.174 29.1727C133.063 29.1527 132.96 29.0995 132.878 29.0199C132.797 28.9403 132.741 28.838 132.717 28.7261C132.694 28.6141 132.704 28.4976 132.747 28.3915C132.789 28.2854 132.862 28.1945 132.956 28.1305C133.05 28.0665 133.16 28.0323 133.274 28.0322C133.421 28.0321 133.563 28.0901 133.669 28.1939C133.776 28.2976 133.838 28.4391 133.842 28.5882Z" fill="#F0792E"/>
<path d="M105.507 48.1692C105.507 48.1979 105.499 48.2259 105.483 48.2497C105.468 48.2735 105.445 48.2921 105.419 48.303C105.393 48.314 105.364 48.3169 105.336 48.3113C105.308 48.3057 105.283 48.2919 105.263 48.2717C105.243 48.2514 105.229 48.2256 105.223 48.1975C105.218 48.1694 105.221 48.1403 105.232 48.1138C105.242 48.0874 105.261 48.0647 105.284 48.0488C105.308 48.0329 105.336 48.0244 105.364 48.0244C105.402 48.0244 105.439 48.0397 105.465 48.0668C105.492 48.094 105.507 48.1308 105.507 48.1692Z" fill="#F0792E"/>
<path d="M108.573 32.1627C108.572 32.1911 108.563 32.2186 108.546 32.2418C108.53 32.265 108.507 32.2829 108.481 32.2931C108.455 32.3034 108.426 32.3056 108.399 32.2995C108.371 32.2934 108.346 32.2792 108.327 32.2588C108.307 32.2384 108.294 32.2126 108.289 32.1846C108.283 32.1566 108.286 32.1278 108.297 32.1016C108.308 32.0754 108.327 32.053 108.35 32.0373C108.374 32.0216 108.401 32.0132 108.429 32.0132C108.449 32.0132 108.468 32.0171 108.485 32.0246C108.503 32.0322 108.519 32.0433 108.532 32.0572C108.546 32.0712 108.556 32.0877 108.563 32.1058C108.57 32.1239 108.573 32.1433 108.573 32.1627Z" fill="#F0792E"/>
<path d="M130.998 39.9417C130.998 39.9704 130.989 39.9984 130.974 40.0222C130.958 40.046 130.935 40.0646 130.909 40.0755C130.883 40.0865 130.854 40.0894 130.826 40.0838C130.799 40.0782 130.773 40.0644 130.753 40.0441C130.733 40.0239 130.719 39.9981 130.714 39.97C130.708 39.9419 130.711 39.9128 130.722 39.8863C130.733 39.8598 130.751 39.8372 130.775 39.8213C130.798 39.8054 130.826 39.7969 130.854 39.7969C130.892 39.7969 130.929 39.8121 130.956 39.8393C130.983 39.8665 130.998 39.9033 130.998 39.9417Z" fill="#F0792E"/>
<path d="M132.996 33.1717C132.996 33.2003 132.987 33.2283 132.972 33.2522C132.956 33.276 132.933 33.2945 132.907 33.3055C132.881 33.3165 132.852 33.3193 132.824 33.3137C132.797 33.3082 132.771 33.2944 132.751 33.2741C132.731 33.2538 132.717 33.228 132.712 33.1999C132.706 33.1719 132.709 33.1427 132.72 33.1163C132.731 33.0898 132.749 33.0672 132.773 33.0513C132.796 33.0353 132.824 33.0269 132.852 33.0269C132.89 33.0269 132.927 33.0421 132.954 33.0693C132.981 33.0964 132.996 33.1333 132.996 33.1717Z" fill="#F0792E"/>
<path d="M123.312 43.1325H121.536V33.3632C121.536 32.2567 121.101 31.1955 120.327 30.413C119.552 29.6306 118.502 29.191 117.407 29.191C116.311 29.191 115.261 29.6306 114.486 30.413C113.712 31.1955 113.277 32.2567 113.277 33.3632V43.1325H111.501V33.3632C111.501 31.7809 112.123 30.2633 113.231 29.1444C114.338 28.0256 115.84 27.397 117.407 27.397C118.973 27.397 120.475 28.0256 121.583 29.1444C122.69 30.2633 123.312 31.7809 123.312 33.3632V43.1325Z" fill="#20446C"/>
<g opacity="0.3">
<path opacity="0.3" d="M123.312 43.1325H121.536V33.3632C121.536 32.2567 121.101 31.1955 120.327 30.413C119.552 29.6306 118.502 29.191 117.407 29.191C116.311 29.191 115.261 29.6306 114.486 30.413C113.712 31.1955 113.277 32.2567 113.277 33.3632V43.1325H111.501V33.3632C111.501 31.7809 112.123 30.2633 113.231 29.1444C114.338 28.0256 115.84 27.397 117.407 27.397C118.973 27.397 120.475 28.0256 121.583 29.1444C122.69 30.2633 123.312 31.7809 123.312 33.3632V43.1325Z" fill="black"/>
</g>
<path d="M124.325 38.7876H110.488C109.913 38.7876 109.447 39.2582 109.447 39.8388V48.0523C109.447 48.6329 109.913 49.1035 110.488 49.1035H124.325C124.899 49.1035 125.365 48.6329 125.365 48.0523V39.8388C125.365 39.2582 124.899 38.7876 124.325 38.7876Z" fill="#20446C"/>
<g opacity="0.3">
<path d="M118.738 42.6C118.739 42.3496 118.67 42.1039 118.541 41.8906C118.411 41.6773 118.225 41.5049 118.003 41.3927C117.781 41.2804 117.533 41.2329 117.286 41.2555C117.039 41.278 116.804 41.3697 116.606 41.5202C116.407 41.6707 116.255 41.874 116.165 42.1074C116.075 42.3408 116.051 42.5948 116.097 42.841C116.142 43.0872 116.254 43.3158 116.421 43.501C116.588 43.6863 116.802 43.8208 117.041 43.8895V45.8985H117.767V43.8895C118.045 43.8103 118.291 43.6416 118.466 43.409C118.641 43.1763 118.737 42.8923 118.738 42.6Z" fill="#F0792E"/>
</g>
<path d="M110.293 48.1221C110.261 48.1221 110.229 46.3981 110.229 44.2769C110.229 42.1558 110.261 40.4365 110.293 40.4365C110.326 40.4365 110.363 42.1558 110.363 44.2769C110.363 46.3981 110.33 48.1221 110.293 48.1221Z" fill="#FAFAFA"/>
<path d="M141.038 57.9429H92.0309C89.6504 57.9429 87.7207 59.8924 87.7207 62.2972V62.8298C87.7207 65.2347 89.6504 67.1842 92.0309 67.1842H141.038C143.419 67.1842 145.349 65.2347 145.349 62.8298V62.2972C145.349 59.8924 143.419 57.9429 141.038 57.9429Z" fill="#F5F5F5"/>
<path d="M141.459 70.6182H92.4518C90.0713 70.6182 88.1416 72.5677 88.1416 74.9725V75.5051C88.1416 77.91 90.0713 79.8595 92.4518 79.8595H141.459C143.84 79.8595 145.769 77.91 145.769 75.5051V74.9725C145.769 72.5677 143.84 70.6182 141.459 70.6182Z" fill="#F5F5F5"/>
<path d="M96.8265 62.4932V61.1523H97.3769V62.4745C97.3769 62.9417 97.5711 63.1146 97.8994 63.1146C98.2278 63.1146 98.4313 62.9277 98.4313 62.4745V61.1523H98.9677V62.4932C98.9774 62.6412 98.9568 62.7897 98.9074 62.9293C98.8579 63.069 98.7806 63.1969 98.6803 63.3052C98.5799 63.4135 98.4586 63.4998 98.3239 63.5588C98.1892 63.6178 98.044 63.6483 97.8971 63.6483C97.7503 63.6483 97.605 63.6178 97.4703 63.5588C97.3356 63.4998 97.2143 63.4135 97.114 63.3052C97.0136 63.1969 96.9363 63.069 96.8869 62.9293C96.8374 62.7897 96.8169 62.6412 96.8265 62.4932Z" fill="#263238"/>
<path d="M99.2959 63.3765L99.4716 62.9934C99.6639 63.1072 99.8823 63.1684 100.105 63.1709C100.35 63.1709 100.438 63.1055 100.438 63.0027C100.438 62.7037 99.3421 63.0027 99.3421 62.2739C99.3421 61.9282 99.652 61.6805 100.184 61.6805C100.426 61.6752 100.666 61.7297 100.882 61.8394L100.706 62.2225C100.547 62.1303 100.367 62.0819 100.184 62.0823C99.948 62.0823 99.8462 62.1571 99.8462 62.2552C99.8462 62.5682 100.942 62.2552 100.942 62.9887C100.942 63.3298 100.628 63.5727 100.087 63.5727C99.8107 63.5782 99.538 63.5105 99.2959 63.3765Z" fill="#263238"/>
<path d="M103.042 62.7787H101.654C101.683 62.8936 101.751 62.9942 101.847 63.0621C101.943 63.1299 102.06 63.1604 102.177 63.1478C102.262 63.1516 102.347 63.1378 102.426 63.1073C102.506 63.0768 102.578 63.0301 102.639 62.9703L102.922 63.274C102.779 63.4115 102.601 63.5061 102.408 63.5473C102.215 63.5885 102.014 63.5747 101.828 63.5073C101.643 63.4399 101.479 63.3216 101.356 63.1657C101.233 63.0099 101.155 62.8225 101.132 62.6245C101.132 62.4978 101.157 62.3724 101.206 62.2558C101.256 62.1393 101.328 62.0341 101.419 61.9467C101.51 61.8593 101.617 61.7915 101.735 61.7474C101.852 61.7033 101.978 61.6838 102.103 61.6901C102.226 61.687 102.349 61.7089 102.464 61.7544C102.579 61.8 102.684 61.8683 102.772 61.9554C102.86 62.0425 102.931 62.1466 102.979 62.2615C103.026 62.3764 103.051 62.4998 103.051 62.6245C103.051 62.6759 103.042 62.732 103.042 62.7787ZM101.654 62.4657H102.547C102.52 62.3667 102.462 62.2793 102.382 62.2171C102.301 62.1548 102.202 62.121 102.101 62.121C101.999 62.121 101.9 62.1548 101.82 62.2171C101.739 62.2793 101.681 62.3667 101.654 62.4657Z" fill="#263238"/>
<path d="M104.517 61.6714V62.1386H104.397C104.332 62.1383 104.269 62.1517 104.21 62.1777C104.151 62.2038 104.098 62.242 104.054 62.29C104.011 62.3379 103.978 62.3945 103.957 62.4561C103.936 62.5178 103.929 62.5831 103.934 62.6479V63.5402H103.407V61.7041H103.911V61.9471C103.983 61.8557 104.076 61.7831 104.181 61.7351C104.287 61.6872 104.402 61.6653 104.517 61.6714Z" fill="#263238"/>
<path d="M106.705 62.4936V63.5401H106.178V62.573C106.178 62.274 106.043 62.1385 105.808 62.1385C105.572 62.1385 105.373 62.2927 105.373 62.6338V63.5401H104.846V61.704H105.35V61.9189C105.427 61.8374 105.521 61.7735 105.624 61.7316C105.728 61.6897 105.839 61.6707 105.951 61.676C106.057 61.6687 106.163 61.6853 106.261 61.7247C106.36 61.764 106.448 61.8251 106.521 61.9034C106.593 61.9818 106.647 62.0754 106.679 62.1775C106.711 62.2796 106.72 62.3876 106.705 62.4936Z" fill="#263238"/>
<path d="M108.791 62.498V63.5398H108.296V63.3109C108.235 63.4002 108.152 63.4713 108.054 63.5165C107.956 63.5618 107.848 63.5795 107.741 63.5679C107.316 63.5679 107.062 63.3296 107.062 63.0119C107.062 62.6942 107.288 62.4606 107.843 62.4606H108.264C108.264 62.2317 108.13 62.1008 107.843 62.1008C107.656 62.0991 107.472 62.1581 107.321 62.269L107.131 61.8999C107.365 61.7472 107.639 61.669 107.917 61.6757C108.467 61.671 108.791 61.942 108.791 62.498ZM108.264 62.9652V62.7783H107.903C107.653 62.7783 107.575 62.8671 107.575 62.9932C107.575 63.1193 107.69 63.2128 107.875 63.2128C107.958 63.2193 108.04 63.1988 108.11 63.1542C108.18 63.1095 108.234 63.0432 108.264 62.9652Z" fill="#263238"/>
<path d="M112.338 62.4936V63.5402H111.811V62.573C111.811 62.274 111.681 62.1385 111.468 62.1385C111.256 62.1385 111.066 62.2927 111.066 62.6057V63.5402H110.53V62.573C110.53 62.274 110.405 62.1385 110.183 62.1385C109.961 62.1385 109.785 62.2927 109.785 62.6057V63.5402H109.258V61.704H109.762V61.9143C109.834 61.8356 109.922 61.7736 110.021 61.7325C110.119 61.6914 110.225 61.6721 110.331 61.676C110.448 61.6696 110.565 61.6937 110.67 61.7461C110.775 61.7984 110.865 61.8773 110.932 61.975C111.011 61.8776 111.112 61.8 111.226 61.7481C111.34 61.6963 111.464 61.6716 111.589 61.676C111.694 61.6676 111.801 61.6836 111.899 61.7227C111.998 61.7617 112.087 61.8229 112.159 61.9016C112.231 61.9802 112.285 62.0743 112.316 62.1769C112.347 62.2794 112.354 62.3877 112.338 62.4936Z" fill="#263238"/>
<path d="M114.604 62.7787H113.217C113.24 62.8953 113.307 62.9984 113.403 63.067C113.499 63.1356 113.618 63.1645 113.735 63.1478C113.82 63.1514 113.904 63.1374 113.984 63.1069C114.063 63.0764 114.136 63.0299 114.197 62.9703L114.475 63.274C114.332 63.4119 114.155 63.5069 113.962 63.5483C113.769 63.5898 113.568 63.5759 113.383 63.5084C113.197 63.4409 113.034 63.3224 112.911 63.1663C112.789 63.0101 112.712 62.8225 112.689 62.6245C112.689 62.4978 112.715 62.3724 112.764 62.2558C112.813 62.1393 112.886 62.0341 112.977 61.9467C113.067 61.8593 113.175 61.7915 113.292 61.7474C113.41 61.7033 113.535 61.6838 113.661 61.6901C113.906 61.6901 114.141 61.7886 114.315 61.9638C114.488 62.1391 114.586 62.3767 114.586 62.6245C114.613 62.6759 114.609 62.732 114.604 62.7787ZM113.217 62.4657H114.114C114.089 62.3647 114.031 62.275 113.95 62.2109C113.868 62.1469 113.768 62.1121 113.665 62.1121C113.562 62.1121 113.462 62.1469 113.381 62.2109C113.299 62.275 113.242 62.3647 113.217 62.4657Z" fill="#263238"/>
<path d="M118.091 62.6057C118.091 63.2177 117.813 63.5635 117.397 63.5635C117.299 63.5704 117.201 63.5456 117.118 63.4927C117.035 63.4398 116.971 63.3615 116.935 63.2691C116.873 63.3658 116.787 63.4441 116.685 63.4958C116.584 63.5476 116.47 63.5709 116.357 63.5635C116.141 63.5474 115.94 63.4496 115.793 63.2898C115.646 63.1299 115.564 62.9197 115.564 62.7015C115.564 62.4832 115.646 62.2731 115.793 62.1132C115.94 61.9533 116.141 61.8555 116.357 61.8395C116.454 61.835 116.551 61.8528 116.641 61.8917C116.731 61.9305 116.81 61.9893 116.874 62.0637V61.8628H117.337V62.9701C117.337 63.1336 117.406 63.1897 117.499 63.1897C117.591 63.1897 117.749 63.0075 117.749 62.6104C117.75 62.4477 117.717 62.2866 117.653 62.1374C117.589 61.9882 117.495 61.8543 117.376 61.7442C117.258 61.6341 117.118 61.5504 116.965 61.4984C116.813 61.4464 116.651 61.4273 116.491 61.4423C116.166 61.4423 115.854 61.5728 115.624 61.805C115.394 62.0372 115.265 62.3521 115.265 62.6804C115.265 63.0088 115.394 63.3237 115.624 63.5559C115.854 63.7881 116.166 63.9185 116.491 63.9185C116.721 63.919 116.949 63.8662 117.157 63.7644L117.263 64.0821C117.02 64.192 116.757 64.2478 116.491 64.2456C116.08 64.2456 115.686 64.0807 115.395 63.7872C115.105 63.4936 114.941 63.0955 114.941 62.6804C114.941 62.2653 115.105 61.8672 115.395 61.5737C115.686 61.2802 116.08 61.1153 116.491 61.1153C116.694 61.0985 116.9 61.1246 117.093 61.1919C117.286 61.2592 117.464 61.3662 117.614 61.5062C117.764 61.6463 117.884 61.8163 117.966 62.0055C118.048 62.1947 118.091 62.3991 118.091 62.6057ZM116.884 62.6991C116.89 62.6393 116.884 62.5788 116.866 62.5216C116.847 62.4644 116.817 62.4118 116.776 62.3675C116.736 62.3232 116.687 62.2882 116.632 62.2648C116.577 62.2414 116.518 62.2302 116.458 62.2319C116.399 62.2308 116.341 62.2425 116.287 62.2662C116.232 62.29 116.184 62.3252 116.145 62.3695C116.105 62.4138 116.075 62.4662 116.058 62.523C116.04 62.5799 116.035 62.64 116.042 62.6991C116.042 62.8119 116.086 62.92 116.165 62.9998C116.244 63.0795 116.351 63.1243 116.463 63.1243C116.575 63.1243 116.682 63.0795 116.76 62.9998C116.839 62.92 116.884 62.8119 116.884 62.6991Z" fill="#263238"/>
<path d="M121.536 62.4937V63.5403H121.008V62.5732C121.008 62.2741 120.879 62.1387 120.662 62.1387C120.444 62.1387 120.264 62.2928 120.264 62.6059V63.5403H119.732V62.5732C119.732 62.2741 119.607 62.1387 119.39 62.1387C119.172 62.1387 118.992 62.2928 118.992 62.6059V63.5403H118.465V61.7042H118.969V61.9144C119.041 61.8357 119.129 61.7737 119.228 61.7326C119.326 61.6915 119.432 61.6722 119.538 61.6761C119.654 61.6691 119.771 61.6931 119.875 61.7455C119.98 61.798 120.069 61.8771 120.134 61.9751C120.214 61.8785 120.315 61.8015 120.429 61.7497C120.543 61.6979 120.666 61.6728 120.791 61.6761C120.896 61.6685 121.002 61.685 121.1 61.7244C121.199 61.7638 121.287 61.8251 121.358 61.9037C121.43 61.9822 121.483 62.0761 121.514 62.1782C121.544 62.2804 121.552 62.3882 121.536 62.4937Z" fill="#263238"/>
<path d="M123.618 62.4984V63.5402H123.127V63.3113C123.066 63.4003 122.982 63.471 122.885 63.5162C122.787 63.5614 122.679 63.5794 122.572 63.5682C122.147 63.5682 121.893 63.33 121.893 63.0123C121.893 62.6946 122.119 62.461 122.674 62.461H123.09C123.09 62.232 122.956 62.1012 122.674 62.1012C122.486 62.1017 122.302 62.1604 122.147 62.2694L121.962 61.9003C122.194 61.7485 122.467 61.6704 122.744 61.6761C123.298 61.6714 123.618 61.9424 123.618 62.4984ZM123.09 62.9656V62.7787H122.73C122.485 62.7787 122.406 62.8674 122.406 62.9936C122.406 63.1197 122.517 63.2132 122.702 63.2132C122.784 63.2197 122.867 63.1992 122.937 63.1545C123.007 63.1099 123.061 63.0436 123.09 62.9656Z" fill="#263238"/>
<path d="M124.033 61.1526C124.034 61.1115 124.044 61.071 124.061 61.0337C124.078 60.9963 124.102 60.9628 124.133 60.9353C124.163 60.9078 124.198 60.8868 124.237 60.8735C124.275 60.8603 124.316 60.8551 124.357 60.8583C124.397 60.8537 124.438 60.8577 124.477 60.8698C124.516 60.8819 124.552 60.9019 124.582 60.9287C124.613 60.9554 124.638 60.9882 124.656 61.0252C124.674 61.0621 124.684 61.1023 124.685 61.1433C124.686 61.186 124.678 61.2284 124.661 61.2678C124.645 61.3072 124.62 61.3426 124.589 61.3717C124.558 61.4008 124.522 61.4229 124.482 61.4367C124.442 61.4505 124.399 61.4556 124.357 61.4516C124.316 61.4548 124.275 61.4495 124.236 61.436C124.197 61.4224 124.161 61.401 124.131 61.373C124.101 61.3449 124.076 61.3109 124.059 61.273C124.043 61.2351 124.034 61.1941 124.033 61.1526ZM124.093 61.7086H124.621V63.54H124.093V61.7086Z" fill="#263238"/>
<path d="M125.111 61.0127H125.639V63.5403H125.111V61.0127Z" fill="#263238"/>
<path d="M126.003 63.2363C126.013 63.1557 126.051 63.0814 126.111 63.0275C126.171 62.9736 126.249 62.9438 126.329 62.9438C126.41 62.9438 126.487 62.9736 126.547 63.0275C126.607 63.0814 126.646 63.1557 126.655 63.2363C126.661 63.2828 126.657 63.33 126.643 63.3748C126.629 63.4195 126.606 63.4607 126.575 63.4958C126.544 63.5309 126.506 63.5589 126.464 63.5781C126.422 63.5974 126.376 63.6073 126.329 63.6073C126.283 63.6073 126.237 63.5974 126.195 63.5781C126.152 63.5589 126.115 63.5309 126.084 63.4958C126.053 63.4607 126.03 63.4195 126.016 63.3748C126.002 63.33 125.998 63.2828 126.003 63.2363Z" fill="#263238"/>
<path d="M126.859 62.6056C126.858 62.4751 126.885 62.3459 126.937 62.2263C126.989 62.1067 127.065 61.9995 127.16 61.9114C127.256 61.8234 127.368 61.7565 127.491 61.7152C127.613 61.6738 127.743 61.6588 127.872 61.6712C128.038 61.6589 128.204 61.6968 128.349 61.78C128.494 61.8631 128.611 61.9879 128.686 62.1384L128.279 62.3627C128.24 62.2865 128.181 62.2227 128.108 62.1782C128.035 62.1337 127.952 62.1102 127.867 62.1104C127.742 62.1225 127.627 62.1811 127.542 62.2749C127.458 62.3686 127.411 62.4907 127.411 62.6173C127.411 62.7439 127.458 62.866 127.542 62.9597C127.627 63.0535 127.742 63.1121 127.867 63.1242C127.952 63.1244 128.035 63.1009 128.108 63.0564C128.181 63.0119 128.24 62.9481 128.279 62.8719L128.686 63.1009C128.61 63.2506 128.493 63.3747 128.348 63.4577C128.203 63.5407 128.038 63.5791 127.872 63.5681C127.741 63.5808 127.609 63.5651 127.484 63.5221C127.359 63.479 127.245 63.4097 127.15 63.3186C127.054 63.2275 126.978 63.1167 126.928 62.9938C126.878 62.8708 126.854 62.7385 126.859 62.6056Z" fill="#263238"/>
<path d="M128.829 62.6054C128.814 62.4035 128.86 62.2017 128.96 62.0264C129.06 61.851 129.21 61.7101 129.39 61.622C129.571 61.5339 129.773 61.5027 129.972 61.5324C130.17 61.5621 130.355 61.6514 130.502 61.7886C130.649 61.9258 130.753 62.1046 130.798 62.3018C130.843 62.499 130.829 62.7054 130.757 62.8943C130.685 63.0832 130.558 63.2457 130.393 63.3608C130.228 63.4759 130.033 63.5383 129.832 63.5398C129.705 63.5508 129.576 63.5348 129.454 63.4928C129.333 63.4508 129.221 63.3838 129.127 63.2959C129.033 63.208 128.957 63.1012 128.906 62.9823C128.855 62.8634 128.828 62.7351 128.829 62.6054ZM130.295 62.6054C130.287 62.5152 130.253 62.4294 130.198 62.3583C130.142 62.2871 130.067 62.2339 129.982 62.2049C129.898 62.1758 129.806 62.1724 129.719 62.1949C129.633 62.2174 129.554 62.2649 129.494 62.3316C129.433 62.3983 129.393 62.4814 129.378 62.5707C129.363 62.66 129.375 62.7517 129.411 62.8346C129.447 62.9176 129.505 62.9882 129.58 63.0379C129.655 63.0876 129.743 63.1143 129.832 63.1146C129.897 63.1149 129.961 63.1016 130.02 63.0755C130.079 63.0494 130.132 63.0112 130.175 62.9633C130.219 62.9153 130.252 62.8587 130.272 62.7971C130.293 62.7355 130.301 62.6702 130.295 62.6054Z" fill="#263238"/>
<path d="M134.254 62.4934V63.54H133.727V62.5729C133.727 62.2738 133.593 62.1384 133.38 62.1384C133.167 62.1384 132.978 62.2925 132.978 62.6056V63.54H132.451V62.5729C132.451 62.2738 132.326 62.1384 132.108 62.1384C131.891 62.1384 131.706 62.2925 131.706 62.6056V63.54H131.179V61.7039H131.683V61.9141C131.757 61.8335 131.847 61.7701 131.948 61.7281C132.048 61.6862 132.157 61.6668 132.266 61.6712C132.382 61.6647 132.498 61.6888 132.603 61.7412C132.707 61.7936 132.797 61.8725 132.862 61.9702C132.942 61.8736 133.043 61.7965 133.157 61.7447C133.27 61.6929 133.394 61.6678 133.519 61.6712C133.624 61.6649 133.729 61.6826 133.827 61.7229C133.924 61.7632 134.011 61.8251 134.082 61.904C134.152 61.9829 134.205 62.0769 134.234 62.1789C134.264 62.2809 134.271 62.3884 134.254 62.4934Z" fill="#263238"/>
<path d="M103.889 75.2902L104.744 75.7574L104.36 76.4068L103.496 75.8929V76.8507H102.756V75.8836L101.891 76.4068L101.512 75.7574L102.372 75.2902L101.512 74.823L101.891 74.1736L102.756 74.6969V73.7251H103.496V74.6969L104.36 74.1736L104.744 74.823L103.889 75.2902Z" fill="#263238"/>
<path d="M107.454 75.2902L108.309 75.7574L107.925 76.4068L107.061 75.8929V76.8507H106.325V75.8836L105.465 76.4068L105.086 75.7574L105.942 75.2902L105.086 74.823L105.465 74.1736L106.325 74.6969V73.7251H107.061V74.6969L107.925 74.1736L108.309 74.823L107.454 75.2902Z" fill="#263238"/>
<path d="M111.02 75.2902L111.875 75.7574L111.487 76.4068L110.627 75.8929V76.8507H109.887V75.8836L109.022 76.4068L108.647 75.7574L109.503 75.2902L108.647 74.823L109.022 74.1736L109.887 74.6969V73.7251H110.627V74.6969L111.487 74.1736L111.875 74.823L111.02 75.2902Z" fill="#263238"/>
<path d="M114.58 75.2902L115.436 75.7574L115.052 76.4068L114.187 75.8929V76.8507H113.447V75.8836L112.582 76.4068L112.203 75.7574L113.063 75.2902L112.203 74.823L112.582 74.1736L113.447 74.6969V73.7251H114.229V74.6969L115.094 74.1736L115.477 74.823L114.58 75.2902Z" fill="#263238"/>
<path d="M118.146 75.2902L119.002 75.7574L118.618 76.4068L117.753 75.8929V76.8507H117.018V75.8836L116.158 76.4068L115.778 75.7574L116.634 75.2902L115.778 74.823L116.158 74.1736L117.018 74.6969V73.7251H117.753V74.6969L118.618 74.1736L119.002 74.823L118.146 75.2902Z" fill="#263238"/>
<path d="M121.712 75.2902L122.568 75.7574L122.179 76.4068L121.319 75.8929V76.8507H120.579V75.8836L119.714 76.4068L119.34 75.7574L120.195 75.2902L119.34 74.823L119.714 74.1736L120.579 74.6969V73.7251H121.319V74.6969L122.179 74.1736L122.568 74.823L121.712 75.2902Z" fill="#263238"/>
<path d="M125.273 75.2902L126.128 75.7574L125.744 76.4068L124.879 75.8929V76.8507H124.14V75.8836L123.275 76.4068L122.896 75.7574L123.756 75.2902L122.896 74.823L123.275 74.1736L124.14 74.6969V73.7251H124.879V74.6969L125.744 74.1736L126.128 74.823L125.273 75.2902Z" fill="#263238"/>
<path d="M128.839 75.2902L129.694 75.7574L129.31 76.4068L128.445 75.8929V76.8507H127.71V75.8836L126.85 76.4068L126.471 75.7574L127.326 75.2902L126.471 74.823L126.85 74.1736L127.71 74.6969V73.7251H128.445V74.6969L129.31 74.1736L129.694 74.823L128.839 75.2902Z" fill="#263238"/>
<path d="M167.811 101.047H98.8939C97.2644 101.047 95.9434 102.382 95.9434 104.028V140.068C95.9434 141.715 97.2644 143.049 98.8939 143.049H167.811C169.44 143.049 170.761 141.715 170.761 140.068V104.028C170.761 102.382 169.44 101.047 167.811 101.047Z" fill="white"/>
<path d="M167.81 143.049C167.81 143.049 168.014 143.049 168.393 142.974C168.88 142.874 169.334 142.65 169.711 142.323C170.088 141.996 170.376 141.577 170.548 141.105C170.63 140.876 170.685 140.638 170.71 140.395C170.724 140.128 170.724 139.859 170.71 139.592C170.71 138.47 170.71 137.176 170.71 135.723C170.71 129.897 170.687 121.473 170.673 111.069C170.673 109.77 170.673 108.438 170.673 107.074V105.009C170.673 104.313 170.742 103.608 170.46 102.963C170.265 102.476 169.941 102.052 169.525 101.736C169.108 101.421 168.615 101.227 168.097 101.173C167.75 101.145 167.376 101.173 167.015 101.173H162.552H143.212H98.8984C98.4261 101.179 97.9619 101.298 97.5434 101.519C97.132 101.752 96.7816 102.08 96.5214 102.477C96.2606 102.874 96.1017 103.33 96.0589 103.804C96.0589 104.271 96.0589 104.78 96.0589 105.266V122.553C96.0589 126.29 96.0589 129.964 96.0589 133.574C96.0589 135.378 96.0589 137.159 96.0589 138.919C96.0589 139.358 96.0589 139.807 96.0589 140.232C96.0773 140.653 96.1878 141.065 96.3826 141.437C96.5785 141.806 96.8511 142.127 97.1816 142.378C97.5121 142.63 97.8928 142.806 98.2972 142.895C98.7086 142.959 99.1255 142.981 99.5413 142.96H117.61H134.462L158.862 143.002H165.493H167.218H167.806C167.806 143.002 167.607 143.002 167.218 143.002H165.493H158.862L134.462 143.04H117.61H108.222H99.5459C99.1146 143.062 98.6821 143.039 98.2556 142.97C97.8197 142.875 97.4095 142.685 97.0533 142.414C96.6972 142.143 96.4036 141.797 96.193 141.4C95.9805 140.999 95.8589 140.555 95.8369 140.101C95.8369 139.634 95.8369 139.218 95.8369 138.774C95.8369 137.011 95.8369 135.23 95.8369 133.429C95.8369 129.826 95.8369 126.152 95.8369 122.408V105.121C95.8369 104.631 95.8369 104.15 95.8369 103.64C95.8713 103.129 96.0302 102.635 96.2994 102.201C96.5803 101.768 96.9612 101.411 97.4093 101.159C97.8633 100.919 98.3673 100.791 98.8799 100.786H143.193H162.534H166.996C167.366 100.786 167.718 100.786 168.097 100.786C168.677 100.85 169.225 101.082 169.678 101.453C170.131 101.824 170.468 102.319 170.65 102.879C170.788 103.217 170.862 103.578 170.867 103.944C170.867 104.299 170.867 104.649 170.867 104.995C170.867 105.691 170.867 106.397 170.867 107.06V111.055C170.867 121.459 170.835 129.883 170.826 135.709C170.826 137.162 170.826 138.456 170.826 139.578C170.826 139.853 170.826 140.124 170.826 140.386C170.795 140.635 170.736 140.879 170.65 141.115C170.501 141.521 170.266 141.889 169.961 142.194C169.544 142.608 169.017 142.889 168.444 143.002C168.299 143.029 168.152 143.043 168.005 143.044L167.81 143.049Z" fill="#263238"/>
<path d="M122.013 115.89V116.414H119.844V113.61H121.957V114.138H120.491V114.75H121.786V115.26H120.491V115.914L122.013 115.89Z" fill="#263238"/>
<path d="M125.093 113.587V116.39H124.561L123.173 114.676V116.39H122.535V113.587H123.072L124.459 115.302V113.587H125.093Z" fill="#263238"/>
<path d="M126.332 114.12H125.439V113.587H127.877V114.12H126.979V116.414H126.332V114.12Z" fill="#263238"/>
<path d="M130.388 115.89V116.414H128.224V113.61H130.337V114.138H128.866V114.75H130.166V115.26H128.866V115.914L130.388 115.89Z" fill="#263238"/>
<path d="M132.686 116.414L132.145 115.624H131.553V116.414H130.905V113.61H132.112C132.862 113.61 133.329 114.003 133.329 114.638C133.334 114.828 133.282 115.015 133.18 115.175C133.077 115.334 132.929 115.458 132.755 115.531L133.379 116.437L132.686 116.414ZM132.08 114.12H131.553V115.105H132.08C132.473 115.105 132.672 114.919 132.672 114.615C132.672 114.311 132.473 114.12 132.08 114.12Z" fill="#263238"/>
<path d="M134.795 115.003C134.813 114.698 134.919 114.406 135.101 114.162C135.282 113.918 135.53 113.733 135.814 113.631C136.099 113.528 136.407 113.512 136.7 113.585C136.993 113.658 137.258 113.816 137.463 114.04L137.047 114.428C136.962 114.322 136.855 114.238 136.733 114.18C136.612 114.123 136.479 114.094 136.344 114.096C136.118 114.113 135.906 114.215 135.752 114.383C135.597 114.55 135.511 114.771 135.511 115C135.511 115.229 135.597 115.45 135.752 115.618C135.906 115.785 136.118 115.888 136.344 115.904C136.479 115.906 136.613 115.877 136.735 115.819C136.856 115.761 136.963 115.675 137.047 115.568L137.463 115.956C137.261 116.181 136.998 116.341 136.706 116.416C136.415 116.491 136.108 116.478 135.824 116.379C135.539 116.279 135.29 116.097 135.108 115.856C134.925 115.615 134.816 115.324 134.795 115.021V115.003Z" fill="#263238"/>
<path d="M137.662 115.003C137.643 114.693 137.718 114.384 137.875 114.117C138.032 113.85 138.265 113.636 138.544 113.505C138.823 113.373 139.134 113.329 139.438 113.378C139.742 113.427 140.024 113.568 140.248 113.781C140.472 113.994 140.627 114.27 140.694 114.574C140.76 114.877 140.735 115.194 140.621 115.483C140.508 115.772 140.311 116.019 140.056 116.194C139.801 116.368 139.5 116.461 139.193 116.461C138.996 116.472 138.799 116.443 138.614 116.375C138.429 116.307 138.26 116.201 138.117 116.065C137.973 115.928 137.859 115.764 137.781 115.581C137.703 115.399 137.662 115.202 137.662 115.003ZM140.067 115.003C140.063 114.829 140.009 114.66 139.911 114.518C139.812 114.375 139.675 114.265 139.515 114.201C139.355 114.137 139.179 114.122 139.011 114.158C138.843 114.194 138.689 114.28 138.568 114.404C138.448 114.528 138.367 114.685 138.334 114.856C138.302 115.027 138.32 115.203 138.387 115.364C138.454 115.524 138.566 115.661 138.709 115.757C138.852 115.853 139.021 115.905 139.193 115.905C139.31 115.907 139.426 115.886 139.535 115.841C139.643 115.796 139.741 115.73 139.823 115.645C139.905 115.561 139.969 115.46 140.011 115.35C140.053 115.239 140.072 115.121 140.067 115.003Z" fill="#263238"/>
<path d="M141.214 113.587H142.481C142.849 113.587 143.202 113.735 143.462 113.997C143.722 114.26 143.868 114.617 143.868 114.989C143.868 115.36 143.722 115.717 143.462 115.98C143.202 116.242 142.849 116.39 142.481 116.39H141.214V113.587ZM142.439 115.867C142.559 115.876 142.678 115.86 142.791 115.82C142.904 115.779 143.007 115.716 143.095 115.634C143.182 115.552 143.252 115.452 143.3 115.342C143.348 115.231 143.372 115.112 143.372 114.991C143.372 114.87 143.348 114.751 143.3 114.64C143.252 114.529 143.182 114.43 143.095 114.348C143.007 114.265 142.904 114.202 142.791 114.162C142.678 114.122 142.559 114.106 142.439 114.115H141.847V115.867H142.439Z" fill="#263238"/>
<path d="M146.676 115.89V116.414H144.512V113.61H146.625V114.138H145.155V114.75H146.454V115.26H145.155V115.914L146.676 115.89Z" fill="#263238"/>
<path d="M111.404 120.922H104.61C103.601 120.922 102.783 121.749 102.783 122.768V133.453C102.783 134.472 103.601 135.298 104.61 135.298H111.404C112.412 135.298 113.23 134.472 113.23 133.453V122.768C113.23 121.749 112.412 120.922 111.404 120.922Z" fill="#EBEBEB"/>
<path d="M124.449 120.922H117.656C116.647 120.922 115.829 121.749 115.829 122.768V133.453C115.829 134.472 116.647 135.298 117.656 135.298H124.449C125.458 135.298 126.276 134.472 126.276 133.453V122.768C126.276 121.749 125.458 120.922 124.449 120.922Z" fill="#EBEBEB"/>
<path d="M137.495 120.922H130.702C129.693 120.922 128.875 121.749 128.875 122.768V133.453C128.875 134.472 129.693 135.298 130.702 135.298H137.495C138.504 135.298 139.322 134.472 139.322 133.453V122.768C139.322 121.749 138.504 120.922 137.495 120.922Z" fill="#EBEBEB"/>
<path d="M150.537 120.922H143.744C142.735 120.922 141.917 121.749 141.917 122.768V133.453C141.917 134.472 142.735 135.298 143.744 135.298H150.537C151.546 135.298 152.364 134.472 152.364 133.453V122.768C152.364 121.749 151.546 120.922 150.537 120.922Z" fill="#EBEBEB"/>
<path d="M163.583 120.922H156.79C155.781 120.922 154.963 121.749 154.963 122.768V133.453C154.963 134.472 155.781 135.298 156.79 135.298H163.583C164.592 135.298 165.41 134.472 165.41 133.453V122.768C165.41 121.749 164.592 120.922 163.583 120.922Z" fill="#EBEBEB"/>
<path d="M110.285 129.22C110.285 130.248 109.499 130.916 108.435 130.916C106.973 130.916 106.201 129.855 106.201 128.112C106.201 126.211 107.205 125.234 108.671 125.234C109.11 125.214 109.546 125.315 109.933 125.524L109.767 125.851C109.432 125.665 109.053 125.577 108.671 125.594C107.427 125.594 106.608 126.421 106.608 128.047C106.608 128.274 106.623 128.5 106.654 128.724C106.784 128.362 107.027 128.053 107.347 127.844C107.667 127.634 108.046 127.537 108.426 127.566C109.536 127.547 110.285 128.211 110.285 129.22ZM109.878 129.22C109.878 128.421 109.304 127.898 108.37 127.898C107.436 127.898 106.83 128.482 106.83 129.248C106.83 129.902 107.376 130.561 108.416 130.561C108.601 130.581 108.788 130.562 108.965 130.504C109.142 130.446 109.305 130.351 109.443 130.226C109.581 130.1 109.691 129.946 109.766 129.774C109.841 129.603 109.879 129.417 109.878 129.229V129.22Z" fill="#F0792E"/>
<path d="M123.187 129.318H122.022V130.874H121.629V129.318H118.461V129.019L121.476 125.281H121.939L118.979 128.982H121.629V127.608H122.017V128.949H123.183L123.187 129.318Z" fill="#F0792E"/>
<path d="M136.64 131.673C135.03 131.835 133.408 131.835 131.798 131.673C133.408 131.511 135.03 131.511 136.64 131.673Z" fill="#F0792E"/>
<path d="M100.693 106.383C101.318 106.383 101.826 105.87 101.826 105.238C101.826 104.606 101.318 104.093 100.693 104.093C100.067 104.093 99.5596 104.606 99.5596 105.238C99.5596 105.87 100.067 106.383 100.693 106.383Z" fill="#263238"/>
<path d="M105.091 105.238C105.091 105.464 105.025 105.686 104.9 105.874C104.776 106.062 104.599 106.209 104.392 106.295C104.185 106.382 103.957 106.405 103.737 106.361C103.517 106.316 103.316 106.207 103.157 106.047C102.999 105.887 102.891 105.683 102.847 105.461C102.803 105.239 102.826 105.009 102.911 104.8C102.997 104.591 103.142 104.412 103.329 104.286C103.515 104.16 103.734 104.093 103.958 104.093C104.259 104.093 104.547 104.214 104.759 104.429C104.972 104.643 105.091 104.934 105.091 105.238Z" fill="#263238"/>
<path d="M107.162 106.383C107.788 106.383 108.295 105.87 108.295 105.238C108.295 104.606 107.788 104.093 107.162 104.093C106.537 104.093 106.029 104.606 106.029 105.238C106.029 105.87 106.537 106.383 107.162 106.383Z" fill="#263238"/>
<path d="M170.872 108.462C170.872 108.532 154.122 108.583 133.463 108.583C112.805 108.583 96.0498 108.532 96.0498 108.462C96.0498 108.392 112.796 108.34 133.463 108.34C154.131 108.34 170.872 108.392 170.872 108.462Z" fill="#263238"/>
</svg>
