<svg width="56" height="19" viewBox="0 0 56 19" fill="none" xmlns="http://www.w3.org/2000/svg">
<path d="M0.450498 15.5684H0.869742L0.480163 17.1981C0.422347 17.4399 0.433244 17.622 0.513158 17.7434C0.592769 17.865 0.740942 17.9257 0.957526 17.9257C1.17275 17.9257 1.34922 17.865 1.48711 17.7434C1.62514 17.622 1.72306 17.4399 1.78088 17.1981L2.17031 15.5684H2.595L2.19588 17.2384C2.10916 17.6013 1.95463 17.873 1.73335 18.0531C1.51193 18.2335 1.22163 18.3235 0.862477 18.3235C0.503017 18.3235 0.256465 18.2336 0.122216 18.054C-0.0121838 17.8745 -0.0356433 17.6026 0.0513839 17.2384L0.450498 15.5684Z" fill="#434244"/>
<path d="M2.53852 18.2507L3.20537 15.4607L4.47249 17.1013C4.50639 17.1476 4.54059 17.1971 4.57435 17.2497C4.6081 17.3024 4.64261 17.3615 4.67802 17.4276L5.12284 15.567H5.5153L4.8489 18.3548L3.55514 16.6849C3.52048 16.6399 3.48825 16.5923 3.45813 16.5421C3.42771 16.492 3.40031 16.4394 3.37519 16.3845L2.92915 18.2507H2.53852Z" fill="#434244"/>
<path d="M5.48022 18.2511L6.12165 15.5674H6.54604L5.90476 18.2511H5.48022Z" fill="#434244"/>
<path d="M6.51559 18.2511L7.15702 15.5674H8.61453L8.52599 15.9376H7.49302L7.33304 16.6067H8.36601L8.2746 16.9897H7.24147L6.94013 18.2511H6.51559Z" fill="#434244"/>
<path d="M8.44149 18.2511L9.08292 15.5674H9.50731L8.86603 18.2511H8.44149Z" fill="#434244"/>
<path d="M9.47491 18.2511L10.1163 15.5674H11.5738L11.4853 15.9376H10.4523L10.2914 16.6103H11.3244L11.233 16.9935H10.2L9.99268 17.8606H11.0257L10.9324 18.2511H9.47491Z" fill="#434244"/>
<path d="M11.9391 17.8568H12.296C12.4921 17.8568 12.6425 17.8433 12.7471 17.8165C12.8517 17.7897 12.9477 17.7443 13.0356 17.6808C13.155 17.5943 13.2548 17.4863 13.335 17.3573C13.415 17.2285 13.4757 17.0783 13.5166 16.9071C13.5573 16.736 13.5685 16.5862 13.5501 16.4575C13.5314 16.3284 13.4833 16.2206 13.4054 16.1337C13.3468 16.0704 13.2694 16.0249 13.1729 15.9979C13.0762 15.9712 12.9188 15.9577 12.6999 15.9577H12.5464H12.393L11.9391 17.8568ZM11.4204 18.2511L12.0618 15.5672H12.6344C13.0067 15.5672 13.264 15.5863 13.4066 15.6248C13.5488 15.6635 13.6664 15.7281 13.7589 15.8184C13.8817 15.937 13.9598 16.0892 13.9934 16.2747C14.0268 16.4605 14.015 16.6726 13.9581 16.9109C13.9012 17.1492 13.8117 17.3604 13.6898 17.5442C13.5681 17.7283 13.4172 17.88 13.2377 17.9998C13.1019 18.0903 12.9563 18.1547 12.8016 18.1933C12.6465 18.2317 12.4152 18.2511 12.1071 18.2511H11.9928H11.4204Z" fill="#434244"/>
<path d="M16.025 16.6893H16.1339C16.3693 16.6893 16.5326 16.6628 16.6237 16.6103C16.715 16.5579 16.7763 16.4649 16.808 16.3317C16.8423 16.1887 16.8245 16.0878 16.7546 16.0293C16.6847 15.9706 16.5376 15.9411 16.3128 15.9411H16.2038L16.025 16.6893ZM15.9128 17.0464L15.6249 18.2511H15.2272L15.8688 15.5674H16.5109C16.7012 15.5674 16.8388 15.578 16.9235 15.5994C17.008 15.6206 17.0778 15.6559 17.1328 15.7049C17.1999 15.7672 17.2439 15.8512 17.2651 15.9568C17.2862 16.0626 17.2816 16.179 17.2514 16.3059C17.2208 16.4331 17.1696 16.5504 17.0976 16.6581C17.0255 16.7655 16.9411 16.85 16.8445 16.9109C16.7661 16.9599 16.6797 16.9947 16.585 17.0153C16.4901 17.0363 16.3476 17.0464 16.1574 17.0464H16.0737H15.9128Z" fill="#434244"/>
<path d="M17.7749 17.1971H18.5028L18.3813 16.5847C18.3755 16.5457 18.3701 16.5009 18.3654 16.4501C18.361 16.3993 18.358 16.3428 18.356 16.2805C18.3278 16.3391 18.2995 16.3938 18.2712 16.4446C18.2431 16.4953 18.2157 16.5419 18.1887 16.5847L17.7749 17.1971ZM18.697 18.2511L18.5658 17.56H17.531L17.0625 18.2511H16.6168L18.5482 15.4611L19.1447 18.2511H18.697Z" fill="#434244"/>
<path d="M19.7537 18.2511L20.047 17.0228L19.5154 15.5674H19.9615L20.2914 16.4784C20.299 16.5018 20.3081 16.5322 20.3185 16.5701C20.3291 16.608 20.3394 16.6488 20.3491 16.6929C20.3757 16.6502 20.4031 16.6096 20.4305 16.5718C20.4579 16.5339 20.4856 16.4992 20.5136 16.4674L21.2905 15.5674H21.7152L20.4681 17.0228L20.1746 18.2511H19.7537Z" fill="#434244"/>
<path d="M23.8051 16.925C23.8053 16.9043 23.8113 16.847 23.8231 16.7528C23.8322 16.6746 23.8393 16.6097 23.8445 16.5583C23.8192 16.6196 23.7894 16.6808 23.7552 16.7418C23.7208 16.8028 23.6815 16.8651 23.6365 16.9288L22.6114 18.3587L22.2769 16.8996C22.2627 16.8395 22.2518 16.7815 22.2445 16.7254C22.2373 16.6691 22.2323 16.6135 22.2298 16.5583C22.2153 16.6147 22.1969 16.6735 22.1743 16.7354C22.1518 16.7971 22.1248 16.8617 22.0932 16.9288L21.4972 18.2505H21.1067L22.3924 15.453L22.7584 17.1469C22.7637 17.1738 22.7714 17.2185 22.7808 17.2808C22.7902 17.3431 22.8012 17.4201 22.8141 17.5117C22.8574 17.4347 22.9197 17.337 23.0017 17.2185C23.0235 17.1867 23.0402 17.1623 23.0514 17.1451L24.2088 15.453L24.1717 18.2505H23.7773L23.8051 16.925Z" fill="#434244"/>
<path d="M24.5103 18.2511L25.1519 15.5674H26.6094L26.5208 15.9376H25.4877L25.327 16.6103H26.3599L26.2685 16.9935H25.2354L25.0282 17.8606H26.0612L25.9676 18.2511H24.5103Z" fill="#434244"/>
<path d="M26.4538 18.2507L27.1207 15.4607L28.3878 17.1013C28.4217 17.1476 28.4559 17.1971 28.4896 17.2497C28.5234 17.3024 28.5579 17.3615 28.5933 17.4276L29.0381 15.567H29.4307L28.7642 18.3548L27.4704 16.6849C27.4358 16.6399 27.4035 16.5923 27.3734 16.5421C27.343 16.492 27.3156 16.4394 27.2905 16.3845L26.8444 18.2507H26.4538Z" fill="#434244"/>
<path d="M30.7862 15.9376L30.2333 18.2511H29.8088L30.3615 15.9376H29.6676L29.7561 15.5674H31.565L31.4767 15.9376H30.7862Z" fill="#434244"/>
<path d="M31.2275 17.7129L31.605 17.5518C31.6088 17.6714 31.6457 17.7628 31.7163 17.8257C31.7868 17.8888 31.8887 17.9201 32.0221 17.9201C32.1481 17.9201 32.257 17.8841 32.3485 17.8119C32.44 17.7399 32.5004 17.6433 32.5293 17.5224C32.567 17.3646 32.473 17.2241 32.2483 17.1008C32.2168 17.0825 32.1926 17.069 32.1759 17.0603C31.9224 16.9162 31.7617 16.7857 31.6939 16.6689C31.6262 16.5522 31.6123 16.4096 31.6525 16.241C31.7048 16.0223 31.8195 15.8451 31.9964 15.7094C32.1733 15.5737 32.3789 15.5058 32.6133 15.5058C32.806 15.5058 32.9581 15.544 33.0694 15.6204C33.1807 15.697 33.2443 15.8066 33.2601 15.9495L32.8864 16.1255C32.854 16.0412 32.8113 15.9795 32.7583 15.9403C32.7052 15.9012 32.638 15.8816 32.5573 15.8816C32.4432 15.8816 32.3451 15.9124 32.2633 15.9732C32.1818 16.0344 32.1284 16.1163 32.1037 16.219C32.0653 16.3803 32.1768 16.5305 32.4385 16.6699C32.4586 16.6808 32.4744 16.6896 32.4857 16.6956C32.7147 16.8177 32.8637 16.9373 32.9319 17.054C33.0003 17.1709 33.0138 17.3165 32.9719 17.4912C32.9112 17.7455 32.7851 17.9474 32.5935 18.097C32.4019 18.2467 32.1733 18.3215 31.9083 18.3215C31.6857 18.3215 31.516 18.2691 31.3992 18.1639C31.282 18.0588 31.2248 17.9086 31.2275 17.7129Z" fill="#434244"/>
<path d="M34.3629 18.2511L35.0044 15.5674H35.4289L34.7875 18.2511H34.3629Z" fill="#434244"/>
<path d="M35.3983 18.2507L36.0651 15.4607L37.3323 17.1013C37.3662 17.1476 37.4004 17.1971 37.4341 17.2497C37.4679 17.3024 37.5024 17.3615 37.5378 17.4276L37.9826 15.567H38.3751L37.7087 18.3548L36.4149 16.6849C36.3803 16.6399 36.3479 16.5923 36.3178 16.5421C36.2875 16.492 36.2599 16.4394 36.2348 16.3845L35.7889 18.2507H35.3983Z" fill="#434244"/>
<path d="M39.7307 15.9376L39.1777 18.2511H38.7533L39.306 15.9376H38.6121L38.7006 15.5674H40.5096L40.4212 15.9376H39.7307Z" fill="#434244"/>
<path d="M40.1915 18.2511L40.833 15.5674H42.2905L42.2021 15.9376H41.1691L41.0082 16.6103H42.0412L41.9496 16.9935H40.9167L40.7095 17.8606H41.7424L41.649 18.2511H40.1915Z" fill="#434244"/>
<path d="M42.9296 16.7111H43.0065C43.2311 16.7111 43.3869 16.6844 43.4734 16.6306C43.56 16.5768 43.62 16.4816 43.6523 16.3446C43.6878 16.1968 43.6732 16.0925 43.6083 16.0322C43.544 15.9714 43.4046 15.9412 43.1906 15.9412H43.1137L42.9296 16.7111ZM42.8219 17.0502L42.5348 18.2511H42.137L42.7786 15.5674H43.3708C43.5444 15.5674 43.6764 15.5789 43.7665 15.6023C43.8567 15.6255 43.9293 15.6638 43.9843 15.7178C44.0496 15.7823 44.092 15.8663 44.1117 15.9689C44.1309 16.0714 44.1259 16.1839 44.0969 16.3059C44.0456 16.521 43.9547 16.6894 43.8246 16.8112C43.6944 16.9326 43.5276 17.0058 43.3244 17.0301L43.9319 18.2511H43.4518L42.87 17.0502H42.8219Z" fill="#434244"/>
<path d="M44.1843 18.2511L44.8257 15.5674H46.2832L46.1948 15.9376H45.1617L45.0017 16.6067H46.0348L45.9433 16.9897H44.9103L44.6088 18.2511H44.1843Z" fill="#434244"/>
<path d="M46.7751 17.1971H47.5031L47.3816 16.5847C47.3757 16.5457 47.3704 16.5009 47.3657 16.4501C47.3613 16.3993 47.3582 16.3428 47.3563 16.2805C47.328 16.3391 47.2997 16.3938 47.2715 16.4446C47.2434 16.4953 47.2158 16.5419 47.1889 16.5847L46.7751 17.1971ZM47.6973 18.2511L47.5661 17.56H46.5313L46.0628 18.2511H45.6169L47.5483 15.4611L48.145 18.2511H47.6973Z" fill="#434244"/>
<path d="M50.9076 16.219C50.8127 16.114 50.7046 16.0352 50.5832 15.9826C50.4621 15.9303 50.3277 15.9037 50.1802 15.9037C49.8949 15.9037 49.64 15.9979 49.4161 16.186C49.192 16.3743 49.0443 16.618 48.9727 16.9175C48.9035 17.2072 48.9336 17.446 49.0629 17.6341C49.1921 17.8224 49.3895 17.9167 49.6545 17.9167C49.8094 17.9167 49.9631 17.8885 50.1163 17.8322C50.2695 17.776 50.424 17.6911 50.5794 17.5773L50.4615 18.0705C50.3273 18.1548 50.1879 18.2179 50.0437 18.2592C49.8993 18.3008 49.7487 18.3215 49.5917 18.3215C49.3919 18.3215 49.2152 18.288 49.0618 18.2207C48.9084 18.1536 48.7829 18.0548 48.6859 17.9238C48.5893 17.7955 48.5274 17.6444 48.5009 17.4701C48.474 17.2961 48.4841 17.1105 48.531 16.9136C48.5781 16.717 48.6567 16.5322 48.7664 16.3593C48.876 16.1863 49.0114 16.0344 49.1722 15.9037C49.3335 15.7717 49.5061 15.672 49.6898 15.6039C49.8737 15.5363 50.0633 15.5022 50.2584 15.5022C50.4119 15.5022 50.5527 15.5252 50.6808 15.5712C50.809 15.6168 50.9274 15.6861 51.0362 15.7793L50.9076 16.219Z" fill="#434244"/>
<path d="M50.9484 18.2511L51.5898 15.5674H53.0474L52.9588 15.9376H51.926L51.7651 16.6103H52.7981L52.7065 16.9935H51.6735L51.4663 17.8606H52.4993L52.4059 18.2511H50.9484Z" fill="#434244"/>
<path d="M43.2059 14.6811H40.2874L44.3464 -0.000809456H47.265L43.2059 14.6811Z" fill="#6D6E71"/>
<path d="M41.6893 0.463829C41.487 0.184455 41.1749 0.0434784 40.751 0.0434784H24.7022L23.9073 2.91908H26.8275V2.91741H38.5072L37.6575 5.99037H25.9775L25.9786 5.98401H23.0596L20.6369 14.7437H23.5574L25.1832 8.8643H38.3124C38.7224 8.8643 39.1083 8.72424 39.4713 8.44411C39.8335 8.16367 40.0718 7.8179 40.1861 7.40498L41.8118 1.52433C41.9304 1.09761 41.8894 0.743506 41.6893 0.463829Z" fill="#6D6E71"/>
<path d="M18.9371 13.7642C18.776 14.3455 18.2474 14.7477 17.6449 14.7477H2.58678C2.17647 14.7477 1.87149 14.6076 1.67095 14.3278C1.47056 14.0476 1.42758 13.7011 1.54215 13.2883L5.21637 0.0416292H8.1376L4.85585 11.873H16.5411L19.8229 0.0416292H22.7435L18.9371 13.7642Z" fill="#6D6E71"/>
<path d="M52.3044 0.0277012L55.9995 7.38769L48.2318 14.7457L52.3044 0.0277012Z" fill="#2B8B4B"/>
<path d="M49.715 0.0277012L53.4074 7.38769L45.6365 14.7457L49.715 0.0277012Z" fill="#D9782D"/>
</svg>
