<svg width="20" height="20" viewBox="0 0 20 20" fill="none" xmlns="http://www.w3.org/2000/svg">
<path fill-rule="evenodd" clip-rule="evenodd" d="M18.5485 14.1157L19.9215 18.1116C20.0998 18.6304 19.9695 19.1937 19.5816 19.5816C19.3087 19.8546 18.9486 20 18.5786 20C18.4228 20 18.2653 19.9743 18.1116 19.9214L14.1158 18.5484C12.7808 19.2088 11.2929 19.5581 9.79566 19.5604H9.78027C7.2076 19.5605 4.77602 18.5632 2.93133 16.7514C1.08268 14.9357 0.0420896 12.5162 0.00126901 9.93868C-0.0200983 8.58891 0.228458 7.27786 0.740063 6.04192C1.2335 4.84985 1.94831 3.78083 2.86461 2.86458C3.78086 1.94833 4.84989 1.23353 6.04197 0.740053C7.27791 0.228452 8.58831 -0.020376 9.93875 0.00130363C12.5163 0.042202 14.9358 1.08275 16.7515 2.93138C18.5669 4.77966 19.5644 7.21751 19.5604 9.79571C19.5581 11.2929 19.2088 12.7808 18.5485 14.1157ZM18.4967 18.8002C18.6194 18.8423 18.7036 18.7826 18.7429 18.7433C18.7823 18.704 18.842 18.6196 18.7999 18.497L17.3449 14.2629C17.2917 14.1079 17.3049 13.9378 17.3816 13.793C18.0289 12.5693 18.3722 11.1865 18.3744 9.79402C18.3817 5.12222 14.5889 1.26117 9.91973 1.18715C7.56987 1.15 5.36267 2.04344 3.70285 3.7032C2.04304 5.363 1.14944 7.57086 1.18666 9.92003C1.26065 14.5892 5.12364 18.3823 9.79359 18.3748C11.1861 18.3726 12.5689 18.0293 13.7926 17.3819C13.8789 17.3362 13.9742 17.3131 14.0699 17.3131C14.1348 17.3131 14.1999 17.3238 14.2625 17.3453L18.4967 18.8002Z" fill="#20446C"/>
<path d="M9.6842 4.9873C8.05766 4.9873 6.73438 6.31058 6.73438 7.93711C6.73438 8.26453 6.99985 8.53 7.32727 8.53C7.65469 8.53 7.92016 8.26453 7.92016 7.93711C7.92016 6.96445 8.71154 6.17309 9.6842 6.17309C10.6569 6.17309 11.4482 6.96445 11.4482 7.93711C11.4482 8.90976 10.6569 9.70113 9.6842 9.70113C9.35677 9.70113 9.0913 9.9666 9.0913 10.294V12.7122C9.0913 13.0396 9.35677 13.3051 9.6842 13.3051C10.0116 13.3051 10.2771 13.0396 10.2771 12.7121V10.827C11.6204 10.5518 12.634 9.36062 12.634 7.93711C12.634 6.31058 11.3107 4.9873 9.6842 4.9873Z" fill="#F0792E"/>
<path d="M9.69922 14C9.43791 14 9.18756 14.23 9.19964 14.5C9.21175 14.7709 9.41915 15 9.69922 15C9.96053 15 10.2109 14.77 10.1988 14.5C10.1867 14.2291 9.97929 14 9.69922 14Z" fill="#F0792E"/>
</svg>
