<svg width="25" height="25" viewBox="0 0 25 25" fill="none" xmlns="http://www.w3.org/2000/svg">
<path d="M12.5 0C5.59722 0 0 5.59722 0 12.5C0 18.2917 3.94444 23.1528 9.29167 24.5694L12.5 25L15.7083 24.5694C21.0556 23.1528 25 18.2917 25 12.5C25 5.59722 19.4028 0 12.5 0ZM12.5 2.77778C14.8056 2.77778 16.6667 4.63889 16.6667 6.94444C16.6667 9.25 14.8056 11.1111 12.5 11.1111C10.1944 11.1111 8.33333 9.25 8.33333 6.94444C8.33333 4.63889 10.1944 2.77778 12.5 2.77778ZM12.5 22.6389C9.02778 22.6389 5.95833 20.8611 4.16667 18.1667C4.20833 15.4028 9.72222 13.8889 12.5 13.8889C15.2639 13.8889 20.7917 15.4028 20.8333 18.1667C19.0417 20.8611 15.9722 22.6389 12.5 22.6389Z" fill="#434B53"/>
</svg>
