<svg width="40" height="25" viewBox="0 0 40 25" fill="none" xmlns="http://www.w3.org/2000/svg">
<path d="M38.0549 0.0842394H1.98214C1.73696 0.081143 1.49361 0.127257 1.2662 0.219908C1.03879 0.31256 0.831861 0.449901 0.657403 0.623971C0.482945 0.798041 0.344437 1.00538 0.249908 1.23394C0.155379 1.46251 0.106711 1.70777 0.10673 1.95548V18.5581C0.103621 18.8077 0.150005 19.0555 0.243153 19.2868C0.3363 19.5181 0.474326 19.7282 0.649097 19.9048C0.823869 20.0813 1.03185 20.2208 1.26079 20.3149C1.48973 20.409 1.735 20.4558 1.98214 20.4527H17.1151L20.3288 24.6162L23.0053 20.4527H38.0549C38.5482 20.4466 39.0193 20.2442 39.366 19.8896C39.7128 19.5349 39.9072 19.0565 39.9071 18.5581V1.99758C39.9121 1.49589 39.7198 1.0127 39.3726 0.654005C39.0254 0.295312 38.5515 0.0904086 38.0549 0.0842394Z" fill="white"/>
<path d="M38.0551 0.0842061H38.2311C38.4071 0.0977289 38.5803 0.137128 38.7451 0.201159C39.0155 0.299122 39.2596 0.459278 39.4582 0.668969C39.7337 0.966204 39.9074 1.34505 39.9537 1.74961C39.9907 3.56004 39.9814 6.18913 39.9953 9.51995C39.9953 11.1854 39.9953 13.0238 39.9953 15.0167C39.9953 16.0132 39.9953 17.0517 39.9953 18.123C40.008 18.3996 39.9956 18.6767 39.9583 18.951C39.9004 19.2345 39.7836 19.5024 39.6156 19.7369C39.4428 19.977 39.2185 20.1745 38.9595 20.3146C38.7005 20.4547 38.4135 20.5339 38.1199 20.5462L22.9823 20.5696L23.0796 20.5182L20.4031 24.6864L20.3151 24.822L20.2132 24.691L16.9995 20.5322L17.0922 20.579H2.5473C2.28335 20.579 2.03793 20.579 1.75546 20.579C1.48207 20.5487 1.21833 20.4594 0.982139 20.317C0.748139 20.1766 0.545186 19.9892 0.385873 19.7663C0.22656 19.5433 0.114285 19.2897 0.0560096 19.0212C0.00752666 18.7575 -0.00957406 18.489 0.00507221 18.2212V11.3818C0.00507221 9.3952 0.00507221 7.44287 0.00507221 5.52484V1.99755C0.00979065 1.75 0.0551714 1.50497 0.139361 1.27244C0.310548 0.816816 0.639642 0.439468 1.06549 0.210513C1.2776 0.09853 1.50838 0.0271587 1.7462 0C1.98699 0 2.20926 0 2.43153 0H11.3594H20.3197L33.2855 0.0374221H36.8095H37.7356H38.0505H37.7356H36.8095L33.2855 0.0608141L20.3197 0.0982398H11.3594H2.44079C2.22022 0.0864038 1.99918 0.0864038 1.77861 0.0982398C1.56737 0.118241 1.36246 0.181933 1.17663 0.285361C0.793653 0.483544 0.495576 0.816288 0.338479 1.22098C0.259037 1.42513 0.218198 1.64253 0.218082 1.86188V2.55892C0.218082 3.49454 0.218082 4.43017 0.218082 5.40321V11.2602C0.218082 13.2531 0.218082 15.2803 0.218082 17.3417V18.1136C0.2033 18.3624 0.217288 18.612 0.259759 18.8574C0.313439 19.0954 0.415178 19.3196 0.558604 19.5161C0.70203 19.7125 0.884051 19.8768 1.09327 19.9989C1.30044 20.1256 1.53301 20.2039 1.77398 20.2281C2.01014 20.2281 2.28335 20.2281 2.53804 20.2281H17.1616L17.1987 20.2702C18.3054 21.7111 19.3982 23.1239 20.4123 24.4384H20.2225L22.9036 20.2749L22.936 20.2235H22.9962H38.1246C38.3906 20.2134 38.651 20.1426 38.886 20.0161C39.121 19.8897 39.3246 19.7111 39.4813 19.4937C39.6364 19.2827 39.7439 19.04 39.7962 18.7826C39.8321 18.5192 39.8445 18.253 39.8333 17.9873C39.8333 16.916 39.8333 15.8775 39.8333 14.8811C39.8333 12.8882 39.8333 11.0497 39.8333 9.38428C39.8333 6.06283 39.8333 3.43373 39.8564 1.6233C39.8216 1.28429 39.6958 0.961332 39.4926 0.689267C39.2894 0.417202 39.0165 0.20637 38.7034 0.079527C38.4883 0.0478068 38.2697 0.0493853 38.0551 0.0842061Z" fill="#263238"/>
<path d="M13.2627 4.76683V5.38433H12.8691V4.76215L12.2023 3.64876H12.6237L13.0868 4.42065L13.5498 3.64876H13.9388L13.2627 4.76683Z" fill="#263238"/>
<path d="M13.9152 4.51425C13.9078 4.32779 13.9558 4.14336 14.053 3.98465C14.1502 3.82595 14.2921 3.70022 14.4605 3.62363C14.629 3.54705 14.8162 3.52309 14.9983 3.55486C15.1803 3.58662 15.3488 3.67265 15.482 3.80188C15.6153 3.93111 15.7072 4.09765 15.7461 4.28009C15.7849 4.46253 15.7689 4.65254 15.7 4.82569C15.6311 4.99885 15.5125 5.14724 15.3595 5.2518C15.2065 5.35636 15.0261 5.41231 14.8414 5.41246C14.7215 5.41751 14.6019 5.39801 14.4897 5.35514C14.3776 5.31226 14.2751 5.2469 14.1886 5.16299C14.1021 5.07907 14.0333 4.97834 13.9863 4.86685C13.9393 4.75536 13.9151 4.63542 13.9152 4.51425ZM15.3924 4.51425C15.3897 4.40757 15.3559 4.30406 15.2952 4.21669C15.2346 4.12931 15.1497 4.06195 15.0514 4.02302C14.953 3.98409 14.8455 3.97532 14.7422 3.99782C14.6389 4.02032 14.5445 4.07308 14.4708 4.1495C14.3971 4.22592 14.3473 4.32261 14.3276 4.42748C14.308 4.53234 14.3194 4.64073 14.3605 4.73907C14.4015 4.83741 14.4703 4.92135 14.5583 4.98038C14.6463 5.03941 14.7496 5.07092 14.8553 5.07095C14.9275 5.073 14.9995 5.05989 15.0665 5.03245C15.1335 5.00501 15.1941 4.96383 15.2446 4.91153C15.2951 4.85922 15.3343 4.79691 15.3597 4.72853C15.3851 4.66016 15.3963 4.5872 15.3924 4.51425Z" fill="#263238"/>
<path d="M16.0823 4.6218V3.64876H16.4806V4.58438C16.4806 4.91184 16.6195 5.05218 16.8603 5.05218C17.1011 5.05218 17.2446 4.91652 17.2446 4.58438V3.64876H17.6382V4.6218C17.6382 4.83024 17.5563 5.03014 17.4104 5.17753C17.2645 5.32492 17.0666 5.40772 16.8603 5.40772C16.654 5.40772 16.4561 5.32492 16.3102 5.17753C16.1643 5.03014 16.0823 4.83024 16.0823 4.6218Z" fill="#263238"/>
<path d="M19.1249 5.38433L18.7915 4.91652H18.4304V5.38433H18.0321V3.64876H18.773C19.2361 3.64876 19.5186 3.89202 19.5186 4.2803C19.523 4.39708 19.4915 4.51238 19.4285 4.61037C19.3655 4.70837 19.274 4.78427 19.1666 4.82764L19.551 5.38433H19.1249ZM18.7499 3.98091H18.4304V4.58438H18.7499C18.9953 4.58438 19.1157 4.47211 19.1157 4.28498C19.1157 4.09786 18.9953 3.97623 18.7499 3.97623V3.98091Z" fill="#263238"/>
<path d="M20.4219 4.51458C20.4244 4.32312 20.4849 4.13703 20.5954 3.98143C20.7058 3.82583 20.8609 3.70821 21.0396 3.64446C21.2183 3.5807 21.4121 3.57388 21.5948 3.62491C21.7775 3.67594 21.9403 3.78237 22.0612 3.92982L21.8065 4.16372C21.7527 4.10029 21.686 4.04945 21.6108 4.01471C21.5356 3.97997 21.4539 3.96218 21.3712 3.96257C21.2344 3.97528 21.1072 4.03918 21.0146 4.14173C20.922 4.24429 20.8706 4.3781 20.8706 4.51692C20.8706 4.65574 20.922 4.78955 21.0146 4.89211C21.1072 4.99466 21.2344 5.05856 21.3712 5.07128C21.4544 5.07207 21.5367 5.05398 21.612 5.01836C21.6874 4.98273 21.7538 4.93047 21.8065 4.86544L22.0612 5.10402C21.94 5.25177 21.7768 5.3583 21.5937 5.4092C21.4106 5.46009 21.2164 5.45288 21.0375 5.38854C20.8586 5.3242 20.7035 5.20585 20.5934 5.04952C20.4833 4.89319 20.4235 4.70644 20.4219 4.51458Z" fill="#263238"/>
<path d="M22.1857 4.51425C22.1783 4.32779 22.2263 4.14335 22.3235 3.98465C22.4206 3.82594 22.5625 3.70022 22.731 3.62363C22.8994 3.54705 23.0867 3.52309 23.2687 3.55486C23.4507 3.58662 23.6192 3.67264 23.7525 3.80188C23.8857 3.93111 23.9777 4.09765 24.0165 4.28009C24.0554 4.46253 24.0393 4.65253 23.9704 4.82568C23.9016 4.99884 23.783 5.14723 23.63 5.25179C23.477 5.35635 23.2965 5.4123 23.1118 5.41244C22.9918 5.41817 22.8719 5.39913 22.7595 5.3565C22.647 5.31387 22.5443 5.24854 22.4576 5.16449C22.371 5.08044 22.3022 4.97944 22.2554 4.86765C22.2087 4.75585 22.1849 4.63561 22.1857 4.51425ZM23.6582 4.51425C23.6555 4.40756 23.6217 4.30406 23.561 4.21668C23.5004 4.12931 23.4156 4.06194 23.3172 4.02301C23.2188 3.98408 23.1113 3.97532 23.008 3.99781C22.9048 4.02031 22.8104 4.07307 22.7366 4.14949C22.6629 4.22592 22.6131 4.32261 22.5935 4.42747C22.5738 4.53234 22.5853 4.64072 22.6263 4.73906C22.6673 4.8374 22.7361 4.92134 22.8242 4.98037C22.9122 5.0394 23.0155 5.07091 23.1211 5.07094C23.1936 5.0737 23.2658 5.06108 23.3331 5.03389C23.4005 5.00671 23.4614 4.96555 23.512 4.91309C23.5626 4.86063 23.6018 4.79804 23.627 4.72934C23.6522 4.66064 23.6628 4.58736 23.6582 4.51425Z" fill="#263238"/>
<path d="M24.3626 3.64915H25.1452C25.2633 3.64038 25.3819 3.65632 25.4936 3.69595C25.6054 3.73559 25.7078 3.79808 25.7946 3.87952C25.8813 3.96095 25.9505 4.05959 25.9978 4.16926C26.0452 4.27893 26.0696 4.39729 26.0696 4.51692C26.0696 4.63656 26.0452 4.75491 25.9978 4.86458C25.9505 4.97425 25.8813 5.07289 25.7946 5.15433C25.7078 5.23577 25.6054 5.29826 25.4936 5.33789C25.3819 5.37753 25.2633 5.39346 25.1452 5.3847H24.3626V3.64915ZM25.122 5.05256C25.1958 5.05953 25.2702 5.05087 25.3405 5.02712C25.4108 5.00337 25.4754 4.96507 25.5302 4.91465C25.585 4.86424 25.6288 4.80282 25.6587 4.73433C25.6887 4.66584 25.7041 4.5918 25.7041 4.51692C25.7041 4.44205 25.6887 4.368 25.6587 4.29952C25.6288 4.23103 25.585 4.16961 25.5302 4.1192C25.4754 4.06878 25.4108 4.03047 25.3405 4.00672C25.2702 3.98298 25.1958 3.97431 25.122 3.98129H24.7608V5.05256H25.122Z" fill="#263238"/>
<path d="M27.7196 5.06155V5.38433H26.3906V3.64876H27.6872V3.97155H26.7842V4.33644H27.5807V4.6452H26.7842V5.04751L27.7196 5.06155Z" fill="#263238"/>
<path d="M34.5309 7.20415H5.50141C4.59352 7.20415 3.85753 7.94768 3.85753 8.86487V15.0587C3.85753 15.9759 4.59352 16.7194 5.50141 16.7194H34.5309C35.4388 16.7194 36.1748 15.9759 36.1748 15.0587V8.86487C36.1748 7.94768 35.4388 7.20415 34.5309 7.20415Z" fill="#F5F5F5"/>
<path d="M10.4291 12.542C10.4299 12.7378 10.3902 12.9317 10.3124 13.1111C10.2346 13.2905 10.1205 13.4515 9.97746 13.5837C9.8344 13.7159 9.66554 13.8164 9.48173 13.8787C9.29792 13.941 9.10324 13.9637 8.91021 13.9454C7.71088 13.9454 7.05796 13.08 7.05796 11.6344C7.05796 10.0766 7.87758 9.29537 9.08618 9.29537C9.44544 9.27877 9.8024 9.36124 10.1188 9.53395L9.98452 9.80528C9.71063 9.65117 9.39926 9.5782 9.08618 9.59476C8.06281 9.59476 7.39137 10.2731 7.39137 11.6064C7.38978 11.791 7.40216 11.9756 7.42841 12.1584C7.53716 11.8639 7.73793 11.6133 8.00029 11.4445C8.26266 11.2757 8.57234 11.1978 8.88243 11.2228C9.81782 11.176 10.4291 11.7139 10.4291 12.542ZM10.0957 12.542C10.0957 11.8824 9.63259 11.4567 8.85928 11.4567C8.70385 11.4399 8.54667 11.4555 8.39744 11.5025C8.24822 11.5495 8.11011 11.6269 7.99164 11.7299C7.87318 11.8329 7.77687 11.9594 7.70867 12.1015C7.64047 12.2435 7.60182 12.3983 7.59511 12.556C7.59511 13.094 8.05818 13.632 8.90095 13.632C9.05128 13.6484 9.20334 13.6327 9.34727 13.5859C9.49119 13.5391 9.62378 13.4622 9.73643 13.3603C9.84907 13.2584 9.93926 13.1338 10.0011 12.9944C10.063 12.855 10.0952 12.7041 10.0957 12.5513V12.542Z" fill="#F0792E"/>
<path d="M16.4808 12.6216H15.5269V13.8988H15.1981V12.6216H12.6003V12.3784L15.0731 9.29083H15.4713L13.0402 12.3269H15.2305V11.1995H15.55V12.3269H16.5039L16.4808 12.6216Z" fill="#F0792E"/>
<path d="M21.5465 12.6026C21.5465 13.3651 20.9955 13.9312 19.9489 13.9312C19.6536 13.9438 19.3589 13.8956 19.0826 13.7895C18.8063 13.6833 18.5544 13.5214 18.3421 13.3137L18.5088 13.0564C18.698 13.2449 18.9233 13.3923 19.171 13.4897C19.4186 13.587 19.6834 13.6322 19.9489 13.6224C20.7685 13.6224 21.2085 13.2294 21.2085 12.6026C21.2085 11.9757 20.7871 11.5828 19.8748 11.5828H19.5924V11.3535L20.9399 9.60859H18.5088V9.30452H21.3705V9.5431L19.9813 11.3161C21.0279 11.3255 21.5465 11.8541 21.5465 12.6026Z" fill="#F0792E"/>
<path d="M27.0476 9.29083V9.52941L25.0889 13.8988H24.7323L26.6726 9.59491H24.1118V10.4791H23.8062V9.29083H27.0476Z" fill="#F0792E"/>
<path d="M29.3867 11.5971C29.3867 10.1563 30.1229 9.25807 31.1694 9.25807C32.216 9.25807 32.9522 10.1563 32.9522 11.5971C32.9522 13.038 32.216 13.9362 31.1694 13.9362C30.1229 13.9362 29.3867 13.038 29.3867 11.5971ZM32.6281 11.5971C32.6281 10.3153 32.0354 9.57151 31.1741 9.57151C30.3128 9.57151 29.7201 10.3153 29.7201 11.5971C29.7201 12.8789 30.3128 13.6227 31.1741 13.6227C32.0354 13.6227 32.6049 12.8789 32.6049 11.5971H32.6281Z" fill="#F0792E"/>
</svg>
