<svg width="12" height="12" viewBox="0 0 12 12" fill="none" xmlns="http://www.w3.org/2000/svg">
<g clip-path="url(#clip0_834_34812)">
<path d="M11.1171 1.99997C11.1171 2.89746 10.3896 3.62503 9.49216 3.62503C8.59467 3.62503 7.86719 2.89746 7.86719 1.99997C7.86719 1.10257 8.59467 0.375 9.49216 0.375C10.3896 0.375 11.1171 1.10257 11.1171 1.99997Z" fill="#20446C"/>
<path d="M9.49216 4.00003C8.38913 4.00003 7.49219 3.103 7.49219 1.99997C7.49219 0.897034 8.38913 0 9.49216 0C10.5952 0 11.4921 0.897034 11.4921 1.99997C11.4921 3.103 10.5952 4.00003 9.49216 4.00003ZM9.49216 0.75C8.80267 0.75 8.24219 1.31104 8.24219 1.99997C8.24219 2.689 8.80267 3.25003 9.49216 3.25003C10.1816 3.25003 10.7421 2.689 10.7421 1.99997C10.7421 1.31104 10.1816 0.75 9.49216 0.75Z" fill="#20446C"/>
<path d="M11.1171 10.0001C11.1171 10.8975 10.3896 11.625 9.49216 11.625C8.59467 11.625 7.86719 10.8975 7.86719 10.0001C7.86719 9.10257 8.59467 8.375 9.49216 8.375C10.3896 8.375 11.1171 9.10257 11.1171 10.0001Z" fill="#20446C"/>
<path d="M9.49216 12C8.38913 12 7.49219 11.103 7.49219 10.0001C7.49219 8.89703 8.38913 8 9.49216 8C10.5952 8 11.4921 8.89703 11.4921 10.0001C11.4921 11.103 10.5952 12 9.49216 12ZM9.49216 8.75C8.80267 8.75 8.24219 9.31103 8.24219 10.0001C8.24219 10.689 8.80267 11.25 9.49216 11.25C10.1816 11.25 10.7421 10.689 10.7421 10.0001C10.7421 9.31103 10.1816 8.75 9.49216 8.75Z" fill="#20446C"/>
<path d="M4.11722 5.99997C4.11722 6.89746 3.38965 7.62494 2.49216 7.62494C1.59476 7.62494 0.867188 6.89746 0.867188 5.99997C0.867188 5.10248 1.59476 4.375 2.49216 4.375C3.38965 4.375 4.11722 5.10248 4.11722 5.99997Z" fill="#20446C"/>
<path d="M2.49216 7.99994C1.38922 7.99994 0.492188 7.103 0.492188 5.99997C0.492188 4.89694 1.38922 4 2.49216 4C3.59518 4 4.49222 4.89694 4.49222 5.99997C4.49222 7.103 3.59518 7.99994 2.49216 7.99994ZM2.49216 4.75C1.80267 4.75 1.24219 5.31094 1.24219 5.99997C1.24219 6.68899 1.80267 7.24994 2.49216 7.24994C3.18173 7.24994 3.74222 6.68899 3.74222 5.99997C3.74222 5.31094 3.18173 4.75 2.49216 4.75Z" fill="#20446C"/>
<path d="M3.67335 5.75989C3.49931 5.75989 3.3303 5.66935 3.23829 5.50739C3.10179 5.26789 3.18583 4.96238 3.42533 4.82532L8.06477 2.18036C8.30427 2.04285 8.60978 2.1269 8.74684 2.36732C8.88334 2.60682 8.7993 2.91233 8.55979 3.04938L3.92027 5.69434C3.84227 5.73884 3.7573 5.75989 3.67335 5.75989Z" fill="#20446C"/>
<path d="M8.31179 9.88529C8.22775 9.88529 8.14279 9.86424 8.06478 9.81974L3.42526 7.17478C3.18576 7.03827 3.10181 6.73276 3.23831 6.49271C3.37427 6.25275 3.68024 6.16824 3.92029 6.30575L8.55981 8.95072C8.79931 9.08723 8.88326 9.39274 8.74676 9.63279C8.65429 9.79475 8.48528 9.88529 8.31179 9.88529Z" fill="#20446C"/>
</g>
<defs>
<clipPath id="clip0_834_34812">
<rect width="12" height="12" fill="white"/>
</clipPath>
</defs>
</svg>
