<svg width="21" height="20" viewBox="0 0 21 20" fill="none" xmlns="http://www.w3.org/2000/svg">
<path d="M10.4546 1.78323C15.7174 1.78323 19.126 4.57745 19.126 9.08742C19.126 13.5974 15.7174 16.3934 10.4546 16.3934C9.65028 16.3934 8.86725 16.3011 8.06114 16.1128L7.52314 16.8609L7.16269 17.2799C6.85197 17.6439 5.80792 18.7128 4.08561 19.0129C4.41409 18.4199 4.66268 17.8162 4.82603 17.2125C4.95209 16.7419 4.97518 16.4951 4.98228 16.2803L5.00359 14.8983L4.58277 14.6143C2.24789 13.0358 1.78323 11.5768 1.78323 9.08742C1.78323 4.57745 5.1918 1.78323 10.4546 1.78323ZM10.4546 0C4.69463 0 0 4.03589 0 9.08742C0 12.0207 1.60513 14.574 4.07318 16.2412C4.06963 16.3389 4.07673 16.4987 3.94712 16.9745C3.78909 17.5658 3.46593 18.3968 2.81252 19.3343L2.34732 20.0001H3.15876C5.97305 20.0001 7.60126 18.166 7.85339 17.8712C8.69147 18.0683 9.5544 18.1766 10.4546 18.1766C16.2146 18.1766 20.9092 14.1407 20.9092 9.08742C20.9092 4.03589 16.2146 0 10.4546 0Z" fill="white"/>
</svg>
