<svg width="28" height="28" viewBox="0 0 28 28" fill="none" xmlns="http://www.w3.org/2000/svg">
<path d="M0.0392971 12.4147C0.0393658 12.4149 0.0393658 12.4149 0.0394344 12.4151L5.32594 25.689C5.43814 25.9711 5.75783 26.1088 6.03987 25.9966C6.04007 25.9965 6.04028 25.9964 6.04049 25.9963L27.4872 17.4564C27.5746 17.4186 27.6505 17.3583 27.707 17.2816C27.8854 17.189 27.9981 17.0055 28 16.8045V2.51372C28 2.21017 27.7539 1.96407 27.4504 1.96407H4.36516C4.06162 1.96407 3.81551 2.21017 3.81551 2.51372V10.3187L0.346138 11.7005C0.0641689 11.813 -0.0731754 12.1328 0.0392971 12.4147ZM4.91481 3.06336H26.9007V16.2549H4.91481V3.06336ZM18.8291 17.3514L9.62584 21.0187C8.80445 20.1553 7.66634 19.6646 6.47471 19.66L5.5568 17.3514H18.8291ZM3.81551 11.4994V16.8045C3.81551 17.1081 4.06162 17.3542 4.36516 17.3542H4.37395L5.53866 20.2794C5.55157 20.3038 5.56662 20.327 5.58373 20.3487C5.64268 20.6134 5.88782 20.794 6.15811 20.7719C7.26689 20.6708 8.35155 21.1379 9.03991 22.013C9.21119 22.2244 9.51226 22.277 9.74511 22.1361C9.77122 22.133 9.79712 22.1282 9.82261 22.1218L21.0585 17.6477C21.1945 17.5944 21.3032 17.4887 21.3603 17.3542H24.7725L6.14382 24.7717L1.2635 12.5173L3.81551 11.4994Z" fill="#20446C"/>
<path d="M25.4093 6.77418C24.3422 6.45875 23.5071 5.62473 23.1904 4.558C23.1209 4.32516 22.9068 4.16562 22.6638 4.16555C22.6353 4.16734 22.607 4.1716 22.5792 4.1782C22.5545 4.17119 22.5293 4.16603 22.5039 4.16281H9.31233C9.28966 4.16576 9.26726 4.17036 9.24528 4.17655C8.97066 4.10977 8.69391 4.27816 8.62706 4.55278C8.62686 4.55381 8.62658 4.55477 8.62637 4.5558C8.31046 5.62363 7.47528 6.45882 6.40745 6.77473C6.14849 6.85388 5.98759 7.11194 6.03039 7.37935C6.02304 7.406 6.01775 7.43321 6.01445 7.46069V11.8579C6.01768 11.8854 6.02317 11.9126 6.03094 11.9392C5.98786 12.2067 6.14884 12.4649 6.408 12.5438C7.47582 12.8597 8.31081 13.6952 8.62582 14.7633C8.70539 15.0241 8.96599 15.1854 9.23483 15.1404C9.26026 15.1474 9.28616 15.1526 9.31233 15.1558H22.5039C22.5316 15.1525 22.559 15.147 22.5858 15.1393C22.8531 15.1819 23.111 15.021 23.1904 14.7622C23.5065 13.6946 24.3416 12.8597 25.4093 12.5438C25.6683 12.4647 25.8292 12.2066 25.7864 11.9392C25.7935 11.9125 25.7987 11.8854 25.8018 11.8579V7.46069C25.7986 7.43486 25.7934 7.4093 25.7864 7.38429C25.8314 7.11517 25.6702 6.85422 25.4093 6.77418ZM24.7025 11.6347C23.5988 12.078 22.724 12.9528 22.2807 14.0565H9.53604C9.09254 12.9528 8.21757 12.078 7.11374 11.6347V7.68385C8.21709 7.24008 9.09172 6.36545 9.53549 5.2621H22.2807C22.7245 6.36545 23.5991 7.24008 24.7025 7.68385V11.6347Z" fill="#20446C"/>
<path d="M15.9082 6.36127C14.0868 6.36127 12.6103 7.83776 12.6103 9.65915C12.6103 11.4805 14.0868 12.957 15.9082 12.957C17.7296 12.957 19.2061 11.4805 19.2061 9.65915C19.2043 7.83851 17.7288 6.36305 15.9082 6.36127ZM15.9082 11.8577C14.6939 11.8577 13.7096 10.8734 13.7096 9.65915C13.7096 8.44491 14.6939 7.46056 15.9082 7.46056C17.1224 7.46056 18.1068 8.44491 18.1068 9.65915C18.1068 10.8734 17.1224 11.8577 15.9082 11.8577Z" fill="#F0792E"/>
<path d="M21.9538 8.83446C21.4985 8.83446 21.1294 9.20361 21.1294 9.65893C21.1294 10.1142 21.4985 10.4834 21.9538 10.4834C22.4092 10.4834 22.7783 10.1142 22.7783 9.65893C22.7783 9.20355 22.4092 8.83446 21.9538 8.83446ZM21.9538 9.93375C21.8021 9.93375 21.679 9.8107 21.679 9.65893C21.679 9.50716 21.8021 9.3841 21.9538 9.3841C22.1056 9.3841 22.2287 9.50716 22.2287 9.65893C22.2287 9.8107 22.1056 9.93375 21.9538 9.93375Z" fill="#F0792E"/>
<path d="M9.86205 8.83446C9.40674 8.83446 9.03758 9.20361 9.03758 9.65893C9.03758 10.1142 9.40674 10.4834 9.86205 10.4834C10.3174 10.4834 10.6865 10.1142 10.6865 9.65893C10.6865 9.20355 10.3174 8.83446 9.86205 8.83446ZM9.86205 9.93375C9.71028 9.93375 9.58723 9.8107 9.58723 9.65893C9.58723 9.50716 9.71028 9.3841 9.86205 9.3841C10.0138 9.3841 10.1369 9.50716 10.1369 9.65893C10.1369 9.8107 10.0138 9.93375 9.86205 9.93375Z" fill="#F0792E"/>
</svg>
