<svg width="24" height="24" viewBox="0 0 24 24" fill="none" xmlns="http://www.w3.org/2000/svg">
<g clip-path="url(#clip0_834_29453)">
<path d="M18.4069 19.4186C18.0573 19.4186 17.7322 19.1969 17.6165 18.8471C17.4722 18.4107 17.7091 17.9396 18.1455 17.7956C20.6515 16.9681 22.3352 14.6391 22.3352 11.9999C22.3352 9.39684 20.6798 7.0773 18.216 6.22837C17.7816 6.07858 17.5508 5.60501 17.7006 5.17026C17.8502 4.7358 18.3229 4.50473 18.7584 4.65452C21.8934 5.73481 23.9998 8.6866 23.9998 11.9999C23.9998 15.3584 21.857 18.323 18.668 19.3763C18.5814 19.405 18.4932 19.4186 18.4069 19.4186Z" fill="#F0792E"/>
<path d="M19.84 12.0002C19.84 10.0166 18.2304 8.40286 16.249 8.39456V2.45408C16.249 1.52944 15.766 0.706586 14.9887 0.306797C14.2754 -0.0604921 13.4556 0.00218756 12.7959 0.473831L4.94976 6.09472H2.21938C0.99568 6.09472 0 7.0904 0 8.31411V15.6864C0 16.9101 0.99568 17.9058 2.21938 17.9058H4.94981L12.7965 23.5275C13.171 23.7952 13.5971 23.9309 14.0263 23.9309C14.3526 23.9309 14.6805 23.8523 14.9888 23.694C15.7664 23.2942 16.2491 22.4714 16.2491 21.5467V15.606C18.2301 15.5976 19.84 13.9836 19.84 12.0002ZM4.38579 16.2413H2.21938C1.91337 16.2413 1.66454 15.9924 1.66454 15.6864V8.31411C1.66454 8.00809 1.91337 7.75926 2.21938 7.75926H4.38579V16.2413ZM14.5842 21.5464C14.5842 21.9029 14.3997 22.1248 14.2271 22.2136C14.0696 22.2938 13.9142 22.2805 13.765 22.1737L6.05062 16.6468V7.35368L13.7644 1.82738C13.9151 1.72028 14.0704 1.70642 14.2274 1.78687C14.4 1.87562 14.5845 2.09756 14.5845 2.45408V21.5464H14.5842ZM16.2488 13.9414V10.0591C17.3124 10.0674 18.1752 10.9346 18.1752 12.0002C18.1755 13.0658 17.3124 13.9331 16.2488 13.9414Z" fill="#20446C"/>
</g>
<defs>
<clipPath id="clip0_834_29453">
<rect width="24" height="24" fill="white"/>
</clipPath>
</defs>
</svg>
