<svg width="77" height="67" viewBox="0 0 77 67" fill="none" xmlns="http://www.w3.org/2000/svg">
<path d="M59.2194 7.66066L38.328 0L17.6379 7.57598C14.9974 8.83271 12.6791 9.59476 12.6791 12.1082V24.6175C12.6352 33.3811 14.9918 41.9907 19.4953 49.5202C23.3531 55.9152 29.3412 62.5019 38.5293 66.6909C46.9879 63.8834 53.2983 56.4054 57.1562 50.006C61.657 42.4774 64.0105 33.8691 63.9633 25.1077V13.8551C63.9633 10.2721 62.115 8.52075 59.2194 7.66066Z" fill="#FFD0AE"/>
<path d="M48.923 37.5663H45.7717V20.3828C45.7717 18.4371 44.9996 16.571 43.6252 15.1952C42.2508 13.8193 40.3868 13.0464 38.4431 13.0464C36.4994 13.0464 34.6354 13.8193 33.261 15.1952C31.8866 16.571 31.1145 18.4371 31.1145 20.3828V37.5663H27.9595V20.3828C27.9224 18.9817 28.1661 17.5874 28.6761 16.2821C29.1861 14.9768 29.9521 13.787 30.9289 12.7828C31.9057 11.7787 33.0735 10.9806 34.3635 10.4357C35.6534 9.89078 37.0393 9.61003 38.4394 9.61003C39.8395 9.61003 41.2254 9.89078 42.5154 10.4357C43.8053 10.9806 44.9732 11.7787 45.95 12.7828C46.9268 13.787 47.6928 14.9768 48.2028 16.2821C48.7128 17.5874 48.9564 18.9817 48.9194 20.3828L48.923 37.5663Z" fill="#20446C"/>
<path d="M50.3039 29.7036H26.5758C25.4082 29.7036 24.4617 30.6718 24.4617 31.8662V45.8874C24.4617 47.0817 25.4082 48.0499 26.5758 48.0499H50.3039C51.4715 48.0499 52.418 47.0817 52.418 45.8874V31.8662C52.418 30.6718 51.4715 29.7036 50.3039 29.7036Z" fill="#20446C"/>
<path d="M41.0605 36.6179C41.0642 36.1462 40.9309 35.683 40.6757 35.2805C40.4205 34.8781 40.0536 34.5526 39.6165 34.3408C39.1794 34.129 38.6895 34.0394 38.2023 34.0821C37.7151 34.1248 37.2501 34.2982 36.8598 34.5825C36.4694 34.8669 36.1695 35.2509 35.9937 35.6911C35.818 36.1313 35.7736 36.6102 35.8654 37.0735C35.9573 37.5368 36.1818 37.966 36.5135 38.3127C36.8453 38.6594 37.271 38.9096 37.7426 39.035V42.8081H39.1733V39.035C39.7172 38.8841 40.1955 38.5667 40.5359 38.1307C40.8764 37.6946 41.0605 37.1637 41.0605 36.6179Z" fill="white"/>
<path d="M25.4228 46.3027C25.3737 46.3027 25.3355 43.3684 25.3355 39.7523C25.3355 36.1361 25.3737 33.1982 25.4228 33.1982C25.472 33.1982 25.5102 36.129 25.5102 39.7523C25.5102 43.3755 25.4693 46.3027 25.4228 46.3027Z" fill="#FAFAFA"/>
<path d="M36.3113 39.3137C36.3113 39.3137 36.2145 39.2765 36.0662 39.1537C35.8616 38.9759 35.6821 38.7626 35.534 38.5214C35.2756 38.1281 35.0958 37.6738 35.0075 37.1909C34.9192 36.7081 34.9245 36.2087 35.0232 35.7286C35.1218 35.2484 35.3113 34.7993 35.578 34.4135C35.8447 34.0276 36.1822 33.7145 36.5661 33.4967C36.7916 33.3598 37.0343 33.2645 37.2853 33.214C37.378 33.1929 37.4733 33.1929 37.5659 33.214C37.2454 33.3355 36.9338 33.486 36.6338 33.664C36.2836 33.8887 35.9779 34.1954 35.7366 34.5644C35.4952 34.9334 35.3235 35.3565 35.2323 35.8066C35.1412 36.2567 35.1328 36.7238 35.2075 37.1779C35.2822 37.632 35.4385 38.063 35.6663 38.4433C35.8607 38.7529 36.0764 39.0439 36.3113 39.3137Z" fill="#FAFAFA"/>
<path d="M64.1514 61.8379L64.402 61.5036L64.5407 61.3209C64.59 61.2496 64.6302 61.1694 64.6839 61.0803C64.807 60.8805 64.9118 60.6703 64.9972 60.4519C65.0465 60.3271 65.1046 60.1979 65.1583 60.0597C65.212 59.9216 65.2389 59.7612 65.2836 59.6141C65.3304 59.449 65.3648 59.2807 65.3866 59.1105C65.4219 58.9263 65.4473 58.7404 65.4627 58.5535C65.538 57.6607 65.4973 56.762 65.3418 55.8796C64.8773 53.4545 64.0426 51.1145 62.8669 48.9409C61.3476 46.0441 59.5696 43.2893 57.5545 40.7098C55.1303 37.5688 52.4862 34.6023 49.6419 31.8325C46.3853 28.6433 42.905 25.6887 39.2276 22.9909C37.2852 21.5693 35.2355 20.1878 33.0783 18.8909C30.8818 17.5564 28.6005 16.3655 26.2488 15.3258C23.8222 14.2217 21.2662 13.4252 18.6405 12.9549C17.3051 12.716 15.9413 12.6785 14.5947 12.8435C13.9199 12.9425 13.2619 13.133 12.6389 13.4095C12.0192 13.7103 11.4608 14.1228 10.992 14.6261C10.5471 15.1522 10.2055 15.7569 9.98498 16.4087C9.78106 17.0574 9.66516 17.7304 9.64037 18.4097C9.6223 19.7671 9.81092 21.1193 10.1998 22.4205C10.9704 24.9616 12.0558 27.3972 13.4311 29.6711C14.7377 31.8802 16.1863 34.0029 17.7678 36.026C19.3073 38.0136 20.9006 39.8853 22.5565 41.6412C25.6688 44.9673 29.0128 48.0708 32.5636 50.9284C35.6455 53.4316 38.9013 55.7145 42.3067 57.7602C45.1096 59.46 48.0603 60.9053 51.1233 62.0785C53.4244 62.9947 55.853 63.5538 58.3243 63.7363C59.2236 63.7887 60.1259 63.7273 61.0096 63.5536C61.2065 63.5269 61.3811 63.4556 61.5601 63.4155C61.7272 63.3747 61.8904 63.3195 62.0479 63.2506L62.4954 63.0768C62.6297 63.0099 62.755 62.9386 62.8714 62.8762C63.0783 62.7645 63.2759 62.6363 63.4621 62.493C63.5427 62.4306 63.6233 62.3816 63.6859 62.3236C63.7486 62.2657 63.8023 62.2122 63.856 62.1676L64.1558 61.8824C64.1558 61.8824 64.0619 61.9849 63.8649 62.1766L63.6993 62.3414C63.6367 62.3949 63.5561 62.4484 63.4756 62.5108C63.2932 62.6599 63.0968 62.7912 62.8893 62.903C62.7684 62.9698 62.6476 63.0411 62.5133 63.108L62.0658 63.2907C61.9042 63.3569 61.7382 63.412 61.569 63.4556C61.39 63.5136 61.2076 63.5612 61.023 63.5982C60.1403 63.7793 59.2378 63.8467 58.3377 63.7987C55.857 63.626 53.4177 63.0744 51.1054 62.1632C48.0329 60.9957 45.073 59.5533 42.2619 57.8538C38.8474 55.8124 35.5826 53.5324 32.492 51.0309C28.9328 48.1749 25.5812 45.0714 22.4625 41.7437C20.82 39.9611 19.2044 38.1117 17.6604 36.1196C16.0744 34.0921 14.6214 31.965 13.3102 29.7513C11.9256 27.4674 10.834 25.0195 10.0611 22.465C9.66675 21.1513 9.47658 19.7851 9.49716 18.4141C9.51977 17.7197 9.63721 17.0315 9.84625 16.3686C10.0761 15.704 10.4299 15.0887 10.889 14.5548C11.3631 14.0311 11.9325 13.6016 12.5673 13.2892C13.2063 13.0067 13.8808 12.8118 14.5723 12.7098C15.9361 12.5363 17.3185 12.5709 18.6718 12.8123C21.3085 13.2859 23.875 14.0869 26.3114 15.1965C28.6678 16.2355 30.9537 17.4264 33.1544 18.7617C35.3205 20.063 37.3703 21.4356 39.3126 22.8706C42.9876 25.5778 46.4662 28.5398 49.7225 31.7345C52.5709 34.5156 55.218 37.4941 57.6441 40.6474C59.6588 43.2348 61.4338 45.9987 62.9475 48.9052C64.1204 51.0878 64.9491 53.4371 65.4045 55.8707C65.5545 56.7628 65.5906 57.6702 65.5119 58.5713C65.5119 58.7674 65.4537 58.9501 65.4313 59.1283C65.4027 59.3006 65.3608 59.4705 65.306 59.6364L65.1762 60.082C65.127 60.2246 65.0644 60.3539 65.0151 60.4786C64.9247 60.6971 64.8153 60.9073 64.6884 61.107C64.6392 61.1917 64.5944 61.2764 64.5452 61.3477L64.402 61.5259C64.2453 61.7309 64.1514 61.8379 64.1514 61.8379Z" fill="#8E9398"/>
<path d="M73.9836 38.2051C73.9836 38.2051 73.9836 38.0625 73.9478 37.7906C73.9478 37.7238 73.9478 37.648 73.9478 37.5634C73.9478 37.4787 73.912 37.3851 73.8941 37.2871C73.8518 37.0561 73.7889 36.8295 73.7061 36.6097C73.6613 36.4849 73.6211 36.3512 73.5629 36.2131L73.3525 35.7674C73.2779 35.6123 73.1911 35.4633 73.093 35.3218C72.99 35.1747 72.905 35.0054 72.7797 34.8761C72.2359 34.159 71.6028 33.5136 70.8955 32.9554C68.9281 31.453 66.7411 30.2597 64.4106 29.417C61.3407 28.2635 58.1727 27.388 54.945 26.801C51.0363 26.0694 47.0806 25.6137 43.1074 25.4373C38.5471 25.2147 33.9766 25.3145 29.4305 25.7359C27.0316 25.9632 24.5836 26.293 22.1042 26.752C19.5657 27.211 17.0601 27.8348 14.6033 28.6192C12.0578 29.4026 9.6206 30.5 7.34861 31.8858C6.19203 32.5969 5.14951 33.4773 4.25607 34.4973C3.81917 35.0197 3.45488 35.5983 3.17301 36.2175C2.90936 36.8467 2.7652 37.5191 2.74784 38.2006C2.76581 38.8816 2.90837 39.5537 3.16853 40.1838C3.45117 40.8025 3.8154 41.381 4.25159 41.9039C5.14475 42.9255 6.18728 43.8074 7.34413 44.5199C9.61726 45.9065 12.056 47.004 14.6033 47.7865C17.0541 48.5707 19.5537 49.1945 22.0863 49.6537C24.5657 50.0994 27.0093 50.447 29.4126 50.6743C33.959 51.092 38.5293 51.1903 43.0895 50.9684C47.0619 50.7988 51.0175 50.352 54.9271 49.6315C58.1619 49.0374 61.336 48.1529 64.4106 46.9888C66.7411 46.1461 68.9281 44.9527 70.8955 43.4503C71.6038 42.8933 72.237 42.2477 72.7797 41.5296C72.905 41.3825 72.99 41.2132 73.093 41.084C73.1909 40.9423 73.2777 40.7933 73.3525 40.6383C73.4241 40.4913 73.4958 40.3531 73.5629 40.2194C73.63 40.0857 73.6613 39.9431 73.7061 39.8183C73.79 39.5989 73.8529 39.3721 73.8941 39.1409C73.8941 39.0429 73.9343 38.9538 73.9478 38.8691C73.9612 38.7844 73.9478 38.7087 73.9478 38.6374C73.9702 38.3655 73.9836 38.2274 73.9836 38.2274C73.9836 38.2274 73.9836 38.3655 73.9836 38.6418C73.9836 38.7072 73.9836 38.7829 73.9836 38.8691C73.9836 38.9538 73.9478 39.0474 73.9299 39.1454C73.8938 39.3796 73.8338 39.6096 73.7508 39.8317C73.7061 39.9565 73.6658 40.0946 73.6076 40.2328C73.5495 40.3709 73.4734 40.5091 73.4018 40.6784C73.3276 40.8329 73.2423 40.9818 73.1467 41.1241C73.0437 41.2711 72.9587 41.4449 72.8334 41.592C72.2917 42.3175 71.6584 42.9706 70.9492 43.535C68.9817 45.049 66.7913 46.2515 64.4553 47.1002C61.3843 48.2657 58.213 49.1502 54.9808 49.7429C51.0668 50.4826 47.105 50.9458 43.1254 51.1288C38.5594 51.3561 33.9829 51.2608 29.4305 50.8436C27.0272 50.6208 24.5746 50.291 22.0863 49.832C19.5475 49.3723 17.0418 48.7471 14.5854 47.9603C12.0249 47.1749 9.5739 46.0714 7.29042 44.6759C6.11705 43.959 5.06059 43.0679 4.15761 42.0332C3.70966 41.4917 3.33778 40.892 3.05217 40.2506C2.77624 39.6025 2.62445 38.9087 2.60463 38.2051C2.62621 37.5016 2.77793 36.8082 3.05217 36.1596C3.34013 35.5267 3.71355 34.936 4.16208 34.4037C5.06497 33.3677 6.12142 32.4751 7.2949 31.7566C9.56785 30.3651 12.0065 29.2617 14.5541 28.4722C17.0125 27.6884 19.5196 27.0646 22.0594 26.6049C24.5433 26.1593 26.9824 25.8161 29.3991 25.5889C33.9519 25.1753 38.5285 25.0859 43.094 25.3215C47.0721 25.5029 51.0324 25.9645 54.945 26.703C58.1738 27.2914 61.3421 28.1715 64.4106 29.3323C66.7449 30.1814 68.9338 31.3839 70.9 32.8974C71.6105 33.4619 72.2453 34.1149 72.7886 34.8405C72.9009 34.9917 73.004 35.1494 73.0974 35.3128C73.1954 35.4545 73.2822 35.6035 73.357 35.7585C73.4286 35.9056 73.5002 36.0482 73.5629 36.2041C73.6255 36.3601 73.6613 36.4804 73.7061 36.6097C73.7869 36.8309 73.8469 37.0592 73.8851 37.2915C73.8851 37.394 73.9254 37.4831 73.9388 37.5678C73.9522 37.6525 73.9388 37.7282 73.9388 37.7996C73.9791 38.0625 73.9836 38.2051 73.9836 38.2051Z" fill="#8E9398"/>
<path d="M60.9605 8.78407C60.9605 8.78407 60.8396 8.71277 60.6069 8.56125L60.4145 8.43647C60.3428 8.3919 60.2533 8.35625 60.1638 8.31169C59.9545 8.202 59.7359 8.11103 59.5104 8.03984C59.3851 7.99973 59.2508 7.95071 59.1076 7.91061L58.6601 7.81702C58.4922 7.78048 58.3215 7.75811 58.1499 7.75017C57.9629 7.72525 57.7746 7.71185 57.586 7.71006C56.6814 7.69782 55.7789 7.80116 54.9007 8.01756C52.5025 8.64379 50.2155 9.63435 48.1204 10.9544C45.3224 12.6618 42.686 14.6188 40.2436 16.8012C37.2684 19.424 34.4837 22.2536 31.9103 25.2685C28.9346 28.7225 26.2096 32.3831 23.7561 36.2225C22.4627 38.2502 21.223 40.3804 20.0728 42.6131C18.8863 44.8874 17.8502 47.2365 16.9713 49.6454C16.0318 52.1294 15.4094 54.721 15.1184 57.3595C14.9699 58.7051 15.0303 60.0653 15.2975 61.3926C15.442 62.0556 15.6769 62.6959 15.9956 63.2955C16.3194 63.8956 16.7652 64.4219 17.3046 64.8408C17.844 65.2597 18.4651 65.5622 19.1284 65.7287C19.7935 65.8866 20.477 65.9541 21.1603 65.9293C22.5167 65.8556 23.8539 65.5761 25.1255 65.1004C27.6255 64.1622 29.998 62.9166 32.1878 61.3926C34.3099 59.9424 36.3355 58.3571 38.252 56.6465C40.1407 54.9797 41.8995 53.2506 43.551 51.5037C46.6681 48.1822 49.5456 44.6453 52.1617 40.9196C54.4566 37.6862 56.5189 34.2953 58.3334 30.7723C59.843 27.8708 61.0877 24.8401 62.0525 21.7167C62.8134 19.3679 63.2059 16.9162 63.2161 14.4482C63.2103 13.5449 63.087 12.6461 62.8491 11.7744C62.8002 11.5927 62.7404 11.4141 62.6701 11.2396C62.6175 11.0762 62.5532 10.9169 62.4776 10.7627C62.4015 10.6157 62.3344 10.4731 62.2673 10.3171C62.2002 10.1611 62.1151 10.072 62.0435 9.96058C61.9119 9.76015 61.7621 9.57219 61.596 9.39906C61.5288 9.3233 61.4707 9.24754 61.4125 9.18515L61.2424 9.03363C61.0365 8.84646 60.9381 8.74842 60.9381 8.74842L61.2514 9.02026L61.4259 9.17178C61.4886 9.23417 61.5467 9.30548 61.6139 9.38124C61.78 9.55438 61.9298 9.74234 62.0614 9.94275C62.133 10.0542 62.2136 10.17 62.2897 10.2993L62.5045 10.7449C62.5835 10.8996 62.6493 11.0606 62.7014 11.2262C62.7739 11.4004 62.8352 11.579 62.8849 11.761C63.1311 12.6315 63.2605 13.5306 63.2698 14.4349C63.2765 16.9193 62.8945 19.3895 62.1375 21.7568C61.1829 24.889 59.9425 27.9276 58.4318 30.8346C56.6228 34.3674 54.5634 37.7674 52.2691 41.0087C49.6531 44.7428 46.7741 48.2871 43.6539 51.6151C42.0025 53.371 40.2391 55.1001 38.3505 56.7713C36.4289 58.4888 34.3973 60.0802 32.2684 61.5352C30.076 63.0688 27.6989 64.322 25.1927 65.2653C23.9001 65.745 22.5421 66.0275 21.1648 66.1031C20.4665 66.1284 19.7679 66.0594 19.0882 65.8981C18.4017 65.7279 17.7585 65.4168 17.1997 64.9848C16.641 64.5527 16.179 64.0092 15.8435 63.3891C15.5175 62.7736 15.2766 62.117 15.1274 61.4372C14.8612 60.0948 14.7993 58.7202 14.9439 57.3595C15.2377 54.7072 15.8647 52.1021 16.8102 49.6053C17.6986 47.191 18.7451 44.8374 19.943 42.5596C21.0976 40.3314 22.3418 38.1878 23.6352 36.1601C26.0897 32.3174 28.8162 28.6538 31.794 25.1972C34.3762 22.1816 37.1699 19.3521 40.1541 16.7299C42.6061 14.5482 45.2531 12.5941 48.0622 10.892C50.1651 9.56225 52.4632 8.56692 54.8738 7.9418C55.7525 7.72898 56.6549 7.62864 57.5591 7.64322C57.756 7.64322 57.944 7.67441 58.1275 7.68778C58.3009 7.69862 58.4731 7.72396 58.6422 7.76354L59.0897 7.86158C59.2329 7.90169 59.3672 7.95071 59.497 7.99528C59.7219 8.06587 59.9393 8.15842 60.1459 8.27158C60.2399 8.3206 60.3249 8.35625 60.3965 8.40082L60.589 8.53005L60.9605 8.78407Z" fill="#8E9398"/>
<path d="M2.278 52.8587C2.46971 53.0441 2.6015 53.2822 2.65651 53.5426C2.71152 53.803 2.68725 54.0738 2.5868 54.3204C2.48635 54.5669 2.31429 54.7781 2.09265 54.9267C1.871 55.0753 1.60986 55.1547 1.34263 55.1547C1.07541 55.1547 0.814265 55.0753 0.592621 54.9267C0.370978 54.7781 0.19892 54.5669 0.0984703 54.3204C-0.00197995 54.0738 -0.026253 53.803 0.0287579 53.5426C0.0837688 53.2822 0.215561 53.0441 0.407266 52.8587C0.657834 52.6164 0.993361 52.4809 1.34263 52.4809C1.69191 52.4809 2.02744 52.6164 2.278 52.8587Z" fill="#F0792E"/>
<path d="M77.0002 11.9967C77.0002 12.2611 76.9214 12.5196 76.7739 12.7395C76.6263 12.9593 76.4167 13.1307 76.1713 13.2319C75.926 13.3331 75.656 13.3596 75.3956 13.308C75.1351 13.2564 74.8959 13.1291 74.7081 12.9421C74.5203 12.7551 74.3925 12.5169 74.3407 12.2575C74.2889 11.9982 74.3155 11.7294 74.4171 11.4851C74.5187 11.2408 74.6908 11.032 74.9116 10.8851C75.1324 10.7382 75.392 10.6598 75.6575 10.6598C76.0136 10.6598 76.3551 10.8006 76.6069 11.0514C76.8587 11.3021 77.0002 11.6421 77.0002 11.9967Z" fill="#F0792E"/>
<path d="M10.6431 57.1948C10.6431 57.2609 10.6234 57.3255 10.5866 57.3804C10.5497 57.4354 10.4973 57.4782 10.4359 57.5035C10.3746 57.5288 10.3071 57.5355 10.242 57.5226C10.1769 57.5097 10.1171 57.4778 10.0701 57.4311C10.0232 57.3843 9.99121 57.3248 9.97826 57.26C9.96531 57.1951 9.97195 57.1279 9.99736 57.0668C10.0228 57.0058 10.0658 56.9536 10.121 56.9168C10.1762 56.8801 10.2411 56.8605 10.3075 56.8605C10.3965 56.8605 10.4819 56.8957 10.5448 56.9584C10.6078 57.0211 10.6431 57.1061 10.6431 57.1948Z" fill="#F0792E"/>
<path d="M17.8257 20.241C17.8257 20.3071 17.806 20.3718 17.7692 20.4267C17.7323 20.4817 17.6799 20.5245 17.6185 20.5498C17.5572 20.5751 17.4897 20.5817 17.4246 20.5688C17.3595 20.5559 17.2997 20.5241 17.2527 20.4774C17.2058 20.4306 17.1738 20.3711 17.1609 20.3062C17.1479 20.2414 17.1546 20.1742 17.18 20.1131C17.2054 20.0521 17.2484 19.9999 17.3036 19.9631C17.3588 19.9264 17.4237 19.9068 17.4901 19.9068C17.5791 19.9068 17.6645 19.942 17.7274 20.0047C17.7904 20.0674 17.8257 20.1524 17.8257 20.241Z" fill="#F0792E"/>
<path d="M70.3453 38.2052C70.3453 38.2713 70.3257 38.3359 70.2888 38.3909C70.2519 38.4458 70.1995 38.4887 70.1381 38.514C70.0768 38.5393 70.0093 38.5459 69.9442 38.533C69.8791 38.5201 69.8193 38.4882 69.7724 38.4415C69.7254 38.3948 69.6935 38.3352 69.6805 38.2704C69.6676 38.2055 69.6742 38.1383 69.6996 38.0773C69.725 38.0162 69.768 37.964 69.8232 37.9273C69.8784 37.8905 69.9433 37.8709 70.0097 37.8709C70.0987 37.8709 70.1841 37.9061 70.247 37.9688C70.31 38.0315 70.3453 38.1165 70.3453 38.2052Z" fill="#F0792E"/>
<path d="M75.0225 22.5811C75.0225 22.6472 75.0028 22.7118 74.9659 22.7668C74.929 22.8217 74.8766 22.8646 74.8153 22.8899C74.754 22.9152 74.6865 22.9218 74.6214 22.9089C74.5562 22.896 74.4964 22.8642 74.4495 22.8174C74.4026 22.7707 74.3706 22.7111 74.3576 22.6463C74.3447 22.5814 74.3513 22.5142 74.3767 22.4532C74.4021 22.3921 74.4452 22.3399 74.5004 22.3032C74.5556 22.2664 74.6205 22.2468 74.6868 22.2468C74.7759 22.2468 74.8612 22.2821 74.9242 22.3447C74.9871 22.4074 75.0225 22.4924 75.0225 22.5811Z" fill="#F0792E"/>
</svg>
