<svg width="16" height="18" viewBox="0 0 16 18" fill="none" xmlns="http://www.w3.org/2000/svg">
<path d="M8.42058 1.16162H7.83984V1.74236H8.42058V1.16162Z" fill="#F0792E"/>
<path d="M10.4531 9.87256H2.32275V10.4533H10.4531V9.87256Z" fill="#F0792E"/>
<path d="M12.7763 10.5587V1.45185C12.7763 1.37484 12.7457 1.30098 12.6912 1.24653C12.6368 1.19207 12.5629 1.16148 12.4859 1.16148H9.58222V0.29037C9.58222 0.213359 9.55163 0.139502 9.49717 0.0850475C9.44272 0.0305925 9.36886 0 9.29185 0H3.48444C3.40743 0 3.33358 0.0305925 3.27912 0.0850475C3.22467 0.139502 3.19407 0.213359 3.19407 0.29037V1.16148H0.29037C0.213359 1.16148 0.139503 1.19207 0.0850476 1.24653C0.0305926 1.30098 0 1.37484 0 1.45185V17.1319C0 17.2089 0.0305926 17.2827 0.0850476 17.3372C0.139503 17.3916 0.213359 17.4222 0.29037 17.4222H9.90163C10.3652 17.7134 10.8866 17.9002 11.4296 17.9696C11.9726 18.039 12.5242 17.9893 13.0461 17.8241C13.568 17.6588 14.0476 17.3819 14.4517 17.0126C14.8559 16.6434 15.1747 16.1905 15.3862 15.6856C15.5977 15.1807 15.6967 14.6358 15.6764 14.0887C15.6561 13.5417 15.5169 13.0056 15.2686 12.5178C15.0202 12.0299 14.6686 11.602 14.2383 11.2637C13.8079 10.9254 13.309 10.6848 12.7763 10.5587ZM9.58222 2.61333V1.74222H12.1956V10.4681C12.0994 10.4606 12.0033 10.4533 11.9052 10.4533C11.807 10.4533 11.7109 10.4606 11.6148 10.4681V3.77481C11.6148 3.6978 11.5842 3.62395 11.5298 3.56949C11.4753 3.51504 11.4015 3.48444 11.3244 3.48444H8.39751C8.41216 3.38833 8.41993 3.29129 8.42074 3.19407V2.9037H9.29185C9.36886 2.9037 9.44272 2.87311 9.49717 2.81866C9.55163 2.7642 9.58222 2.69034 9.58222 2.61333ZM9.90163 11.0341H2.32296V11.6148H9.18761C9.0163 11.793 8.86284 11.9875 8.7294 12.1956H2.32296V12.7763H8.42074C8.34322 12.9645 8.28107 13.1588 8.2349 13.357H2.32296V13.9378H8.14518C8.13763 14.0339 8.13037 14.13 8.13037 14.2281C8.13142 14.5216 8.16679 14.814 8.23577 15.0993H1.74222V4.06518H4.55446C4.71868 4.4126 4.97823 4.70622 5.30286 4.91184C5.6275 5.11746 6.00387 5.22663 6.38815 5.22663C6.77242 5.22663 7.1488 5.11746 7.47343 4.91184C7.79807 4.70622 8.05761 4.4126 8.22184 4.06518H11.0341V10.5587C10.6331 10.654 10.2505 10.8145 9.90163 11.0341ZM4.9363 3.19407V2.9037H7.84V3.19407C7.8401 3.29159 7.83037 3.38887 7.81096 3.48444H4.96533C4.94593 3.38887 4.9362 3.29159 4.9363 3.19407ZM7.54208 4.06518C7.40843 4.24536 7.23445 4.39173 7.03407 4.49258C6.83369 4.59343 6.61248 4.64596 6.38815 4.64596C6.16382 4.64596 5.94261 4.59343 5.74223 4.49258C5.54185 4.39173 5.36786 4.24536 5.23422 4.06518H7.54208ZM3.77481 0.580741H9.00148V2.32296H3.77481V0.580741ZM0.580741 1.74222H3.19407V2.61333C3.19407 2.69034 3.22467 2.7642 3.27912 2.81866C3.33358 2.87311 3.40743 2.9037 3.48444 2.9037H4.35556V3.19407C4.35637 3.29129 4.36413 3.38833 4.37878 3.48444H1.45185C1.37484 3.48444 1.30098 3.51504 1.24653 3.56949C1.19207 3.62395 1.16148 3.6978 1.16148 3.77481V15.3896C1.16148 15.4666 1.19207 15.5405 1.24653 15.595C1.30098 15.6494 1.37484 15.68 1.45185 15.68H8.42074C8.60198 16.1112 8.86171 16.5051 9.18674 16.8415H0.580741V1.74222ZM11.9052 17.4222C11.2735 17.4222 10.6559 17.2349 10.1307 16.8839C9.60539 16.533 9.196 16.0341 8.95424 15.4505C8.71249 14.8668 8.64924 14.2246 8.77248 13.605C8.89573 12.9854 9.19993 12.4163 9.64663 11.9696C10.0933 11.5229 10.6625 11.2187 11.2821 11.0954C11.9016 10.9722 12.5439 11.0355 13.1275 11.2772C13.7111 11.519 14.21 11.9284 14.561 12.4536C14.9119 12.9789 15.0993 13.5964 15.0993 14.2281C15.0983 15.075 14.7614 15.8868 14.1626 16.4856C13.5638 17.0844 12.752 17.4212 11.9052 17.4222Z" fill="#F0792E"/>
<path d="M13.9626 12.7512C13.8787 12.6669 13.7789 12.5999 13.6689 12.5544C13.559 12.5088 13.4411 12.4855 13.3221 12.4858C13.203 12.4855 13.0851 12.5088 12.9752 12.5544C12.8652 12.5999 12.7654 12.6669 12.6815 12.7512L11.3243 14.1079L11.1292 13.9127C10.9592 13.7428 10.7287 13.6473 10.4883 13.6473C10.248 13.6473 10.0174 13.7428 9.84748 13.9127C9.67752 14.0827 9.58203 14.3132 9.58203 14.5536C9.58203 14.7939 9.67752 15.0245 9.84748 15.1944L10.6233 15.9703C10.8093 16.1562 11.0614 16.2606 11.3243 16.2606C11.5872 16.2606 11.8393 16.1562 12.0253 15.9703L13.9626 14.0329C14.1325 13.8629 14.228 13.6324 14.228 13.3921C14.228 13.1517 14.1325 12.9212 13.9626 12.7512ZM13.552 13.6224L11.6147 15.5597C11.5359 15.6333 11.4321 15.6742 11.3243 15.6742C11.2165 15.6742 11.1127 15.6333 11.0339 15.5597L10.2581 14.7838C10.197 14.7228 10.1627 14.6399 10.1627 14.5536C10.1627 14.4672 10.197 14.3844 10.2581 14.3233C10.3191 14.2622 10.402 14.2279 10.4883 14.2279C10.5747 14.2279 10.6575 14.2622 10.7186 14.3233L11.119 14.7237C11.1735 14.7782 11.2473 14.8087 11.3243 14.8087C11.4013 14.8087 11.4751 14.7782 11.5296 14.7237L13.0915 13.1618C13.1527 13.101 13.2355 13.0668 13.3218 13.0666C13.4081 13.0667 13.4909 13.101 13.5519 13.1621C13.613 13.2232 13.6473 13.306 13.6473 13.3924C13.647 13.4786 13.6128 13.5612 13.552 13.6224Z" fill="#F0792E"/>
<path d="M4.93621 1.16162H4.35547V1.74236H4.93621V1.16162Z" fill="#F0792E"/>
</svg>
