<svg width="44" height="28" viewBox="0 0 44 28" fill="none" xmlns="http://www.w3.org/2000/svg">
<path d="M41.8604 0.0922359H2.18035C1.91065 0.0888434 1.64296 0.139367 1.39281 0.240877C1.14266 0.342387 0.915038 0.492859 0.723134 0.683573C0.53123 0.874286 0.378871 1.10144 0.274889 1.35187C0.170907 1.60229 0.117372 1.87099 0.117393 2.14239V20.3324C0.113973 20.6059 0.164996 20.8774 0.267458 21.1308C0.369921 21.3842 0.521749 21.6144 0.713998 21.8079C0.906246 22.0013 1.13503 22.1541 1.38686 22.2572C1.6387 22.3603 1.90849 22.4116 2.18035 22.4082H18.8266L22.3616 26.9698L25.3058 22.4082H41.8604C42.4031 22.4014 42.9213 22.1798 43.3027 21.7912C43.6841 21.4027 43.8979 20.8785 43.8979 20.3324V2.18852C43.9033 1.63886 43.6918 1.10947 43.3099 0.716478C42.9279 0.32349 42.4066 0.098995 41.8604 0.0922359Z" fill="white"/>
<path d="M41.8606 0.0922573H42.0542C42.2478 0.107073 42.4383 0.150239 42.6196 0.220392C42.917 0.327722 43.1856 0.503191 43.404 0.732932C43.7072 1.05859 43.8982 1.47365 43.9491 1.9169C43.9898 3.90042 43.9796 6.7809 43.9949 10.4302C43.9949 12.2548 43.9949 14.2691 43.9949 16.4525C43.9949 17.5442 43.9949 18.6821 43.9949 19.8558C44.0088 20.1588 43.9952 20.4625 43.9541 20.763C43.8905 21.0736 43.762 21.3671 43.5772 21.624C43.3871 21.887 43.1404 22.1034 42.8555 22.2569C42.5706 22.4105 42.2549 22.4972 41.9319 22.5107L25.2806 22.5364L25.3876 22.48L22.4434 27.0467L22.3466 27.1953L22.2346 27.0518L18.6995 22.4954L18.8014 22.5466H2.80203C2.51169 22.5466 2.24172 22.5466 1.931 22.5466C1.63027 22.5134 1.34016 22.4156 1.08035 22.2596C0.822953 22.1058 0.599705 21.9004 0.424461 21.6562C0.249216 21.4119 0.125713 21.1341 0.0616106 20.8399C0.00827933 20.551 -0.0105315 20.2568 0.00557943 19.9634V12.4701C0.00557943 10.2935 0.00557943 8.1545 0.00557943 6.05309V2.18854C0.0107697 1.91733 0.0606885 1.64886 0.153298 1.3941C0.341603 0.894915 0.703607 0.481487 1.17204 0.230641C1.40536 0.107951 1.65922 0.0297555 1.92082 0C2.18569 0 2.43019 0 2.67468 0H12.4954H22.3517L36.6141 0.0410002H40.4904H41.5092H41.8555H41.5092H40.4904L36.6141 0.0666287L22.3517 0.107633H12.4954H2.68487C2.44224 0.0946651 2.1991 0.0946651 1.95647 0.107633C1.72411 0.129546 1.4987 0.199329 1.29429 0.312645C0.873019 0.529777 0.545134 0.894336 0.372327 1.33772C0.284941 1.56139 0.240018 1.79957 0.23989 2.0399V2.80359C0.23989 3.82867 0.23989 4.85375 0.23989 5.91983V12.3368C0.23989 14.5202 0.23989 16.7412 0.23989 18.9998V19.8455C0.22363 20.118 0.239017 20.3915 0.285735 20.6605C0.344783 20.9212 0.456696 21.1668 0.614465 21.382C0.772233 21.5972 0.972457 21.7773 1.2026 21.9111C1.43048 22.0499 1.68631 22.1357 1.95138 22.1622C2.21116 22.1622 2.51169 22.1622 2.79184 22.1622H18.8778L18.9185 22.2083C20.1359 23.787 21.3381 25.3348 22.4536 26.7751H22.2447L25.194 22.2135L25.2297 22.1571H25.2959H41.937C42.2297 22.1461 42.5161 22.0684 42.7746 21.9299C43.0331 21.7914 43.2571 21.5957 43.4295 21.3575C43.6001 21.1264 43.7183 20.8605 43.7759 20.5785C43.8153 20.2898 43.829 19.9982 43.8166 19.7071C43.8166 18.5334 43.8166 17.3956 43.8166 16.3039C43.8166 14.1205 43.8166 12.1062 43.8166 10.2815C43.8166 6.64251 43.8166 3.76204 43.8421 1.77851C43.8038 1.40709 43.6654 1.05325 43.4419 0.75517C43.2184 0.457092 42.9182 0.226101 42.5737 0.0871308C42.3372 0.0523778 42.0967 0.0541072 41.8606 0.0922573Z" fill="#263238"/>
<path d="M14.5885 5.22281V5.89936H14.1556V5.21769L13.4221 3.99785H13.8856L14.395 4.84353L14.9043 3.99785H15.3322L14.5885 5.22281Z" fill="#263238"/>
<path d="M15.3074 4.94603C15.2992 4.74174 15.352 4.53967 15.4589 4.36579C15.5658 4.19191 15.7219 4.05417 15.9072 3.97025C16.0925 3.88634 16.2985 3.8601 16.4987 3.8949C16.6989 3.9297 16.8842 4.02395 17.0308 4.16554C17.1774 4.30713 17.2786 4.4896 17.3213 4.68948C17.364 4.88936 17.3463 5.09753 17.2706 5.28724C17.1948 5.47695 17.0644 5.63954 16.8961 5.75409C16.7278 5.86865 16.5293 5.92995 16.3261 5.93011C16.1943 5.93564 16.0627 5.91428 15.9393 5.8673C15.8159 5.82033 15.7032 5.74872 15.6081 5.65679C15.5129 5.56485 15.4372 5.45448 15.3855 5.33234C15.3338 5.21019 15.3073 5.07878 15.3074 4.94603ZM16.9323 4.94603C16.9293 4.82914 16.8921 4.71574 16.8253 4.62001C16.7586 4.52428 16.6653 4.45047 16.5571 4.40782C16.4489 4.36517 16.3306 4.35557 16.217 4.38021C16.1034 4.40486 15.9996 4.46267 15.9185 4.5464C15.8374 4.63013 15.7826 4.73606 15.761 4.85095C15.7394 4.96585 15.752 5.08459 15.7971 5.19234C15.8423 5.30008 15.918 5.39205 16.0148 5.45672C16.1116 5.5214 16.2252 5.55591 16.3414 5.55595C16.4209 5.55819 16.5 5.54383 16.5737 5.51376C16.6474 5.4837 16.7142 5.43859 16.7697 5.38128C16.8252 5.32397 16.8683 5.25571 16.8963 5.18079C16.9243 5.10588 16.9365 5.02594 16.9323 4.94603Z" fill="#263238"/>
<path d="M17.6912 5.06392V3.99785H18.1293V5.02292C18.1293 5.38169 18.2821 5.53545 18.547 5.53545C18.8119 5.53545 18.9698 5.38682 18.9698 5.02292V3.99785H19.4027V5.06392C19.4027 5.29229 19.3126 5.5113 19.1521 5.67278C18.9916 5.83426 18.7739 5.92498 18.547 5.92498C18.32 5.92498 18.1024 5.83426 17.9419 5.67278C17.7814 5.5113 17.6912 5.29229 17.6912 5.06392Z" fill="#263238"/>
<path d="M21.0377 5.89936L20.671 5.38682H20.2737V5.89936H19.8356V3.99785H20.6506C21.16 3.99785 21.4707 4.26436 21.4707 4.68977C21.4756 4.81771 21.441 4.94403 21.3717 5.0514C21.3024 5.15877 21.2017 5.24192 21.0836 5.28944L21.5063 5.89936H21.0377ZM20.6251 4.36175H20.2737V5.02292H20.6251C20.8951 5.02292 21.0275 4.89991 21.0275 4.6949C21.0275 4.48988 20.8951 4.35662 20.6251 4.35662V4.36175Z" fill="#263238"/>
<path d="M22.4636 4.94597C22.4663 4.7362 22.5328 4.53232 22.6544 4.36184C22.7759 4.19136 22.9464 4.0625 23.143 3.99265C23.3396 3.9228 23.5528 3.91533 23.7537 3.97124C23.9547 4.02715 24.1337 4.14375 24.2667 4.3053L23.9866 4.56157C23.9274 4.49207 23.854 4.43636 23.7713 4.39831C23.6886 4.36025 23.5987 4.34075 23.5078 4.34117C23.3573 4.3551 23.2173 4.42511 23.1155 4.53747C23.0136 4.64984 22.9571 4.79644 22.9571 4.94854C22.9571 5.10063 23.0136 5.24723 23.1155 5.35959C23.2173 5.47195 23.3573 5.54196 23.5078 5.55589C23.5993 5.55676 23.6898 5.53694 23.7727 5.49791C23.8555 5.45888 23.9286 5.40163 23.9866 5.33037L24.2667 5.59177C24.1334 5.75364 23.9539 5.87036 23.7525 5.92612C23.5511 5.98188 23.3375 5.97398 23.1407 5.90349C22.9438 5.833 22.7733 5.70334 22.6522 5.53206C22.5311 5.36078 22.4652 5.15617 22.4636 4.94597Z" fill="#263238"/>
<path d="M24.4046 4.94602C24.3964 4.74173 24.4492 4.53967 24.5561 4.36579C24.663 4.19191 24.8191 4.05416 25.0044 3.97025C25.1897 3.88634 25.3957 3.8601 25.5959 3.8949C25.7961 3.9297 25.9814 4.02395 26.128 4.16554C26.2746 4.30713 26.3757 4.48959 26.4185 4.68947C26.4612 4.88936 26.4435 5.09753 26.3678 5.28723C26.292 5.47694 26.1616 5.63952 25.9933 5.75408C25.825 5.86864 25.6265 5.92993 25.4233 5.9301C25.2913 5.93637 25.1594 5.91551 25.0357 5.8688C24.912 5.8221 24.799 5.75052 24.7037 5.65844C24.6083 5.56635 24.5327 5.4557 24.4812 5.33321C24.4298 5.21073 24.4037 5.07898 24.4046 4.94602ZM26.0244 4.94602C26.0213 4.82913 25.9842 4.71574 25.9174 4.62001C25.8507 4.52428 25.7574 4.45047 25.6492 4.40782C25.541 4.36517 25.4227 4.35556 25.3091 4.38021C25.1955 4.40486 25.0917 4.46267 25.0106 4.54639C24.9295 4.63012 24.8747 4.73606 24.8531 4.85095C24.8315 4.96584 24.8441 5.08458 24.8892 5.19233C24.9343 5.30008 25.0101 5.39204 25.1069 5.45671C25.2037 5.52139 25.3173 5.5559 25.4335 5.55594C25.5132 5.55897 25.5927 5.54514 25.6667 5.51535C25.7408 5.48556 25.8078 5.44048 25.8635 5.383C25.9192 5.32553 25.9623 5.25694 25.99 5.18167C26.0177 5.10641 26.0294 5.02613 26.0244 4.94602Z" fill="#263238"/>
<path d="M26.7982 3.99784H27.659C27.789 3.98824 27.9195 4.0057 28.0424 4.04912C28.1653 4.09255 28.278 4.16101 28.3734 4.25024C28.4688 4.33946 28.5449 4.44753 28.597 4.56769C28.649 4.68785 28.6759 4.81752 28.6759 4.94859C28.6759 5.07967 28.649 5.20933 28.597 5.32949C28.5449 5.44965 28.4688 5.55772 28.3734 5.64694C28.278 5.73617 28.1653 5.80463 28.0424 5.84806C27.9195 5.89148 27.789 5.90894 27.659 5.89934H26.7982V3.99784ZM27.6336 5.53544C27.7147 5.54308 27.7966 5.53359 27.8739 5.50757C27.9512 5.48155 28.0223 5.43959 28.0826 5.38435C28.1429 5.32911 28.191 5.26182 28.224 5.18679C28.2569 5.11175 28.2739 5.03062 28.2739 4.94859C28.2739 4.86656 28.2569 4.78543 28.224 4.7104C28.191 4.63536 28.1429 4.56807 28.0826 4.51284C28.0223 4.4576 27.9512 4.41563 27.8739 4.38961C27.7966 4.36359 27.7147 4.3541 27.6336 4.36174H27.2363V5.53544H27.6336Z" fill="#263238"/>
<path d="M30.4914 5.54571V5.89936H29.0295V3.99785H30.4557V4.3515H29.4625V4.75128H30.3386V5.08955H29.4625V5.53033L30.4914 5.54571Z" fill="#263238"/>
<path d="M37.9845 7.89305H6.05206C5.05338 7.89305 4.24379 8.70768 4.24379 9.71257V16.4986C4.24379 17.5035 5.05338 18.3181 6.05206 18.3181H37.9845C38.9832 18.3181 39.7928 17.5035 39.7928 16.4986V9.71257C39.7928 8.70768 38.9832 7.89305 37.9845 7.89305Z" fill="#F5F5F5"/>
<path d="M11.4719 13.7412C11.4728 13.9558 11.4291 14.1682 11.3435 14.3648C11.258 14.5613 11.1325 14.7377 10.9751 14.8825C10.8178 15.0274 10.632 15.1374 10.4298 15.2057C10.2276 15.2739 10.0135 15.2988 9.80115 15.2788C8.48188 15.2788 7.76367 14.3306 7.76367 12.7469C7.76367 11.0401 8.66526 10.1842 9.99471 10.1842C10.3899 10.166 10.7826 10.2563 11.1306 10.4456L10.9829 10.7428C10.6816 10.574 10.3391 10.494 9.99471 10.5122C8.869 10.5122 8.13042 11.2554 8.13042 12.7161C8.12867 12.9185 8.14229 13.1207 8.17117 13.3209C8.29079 12.9983 8.51163 12.7238 8.80024 12.5388C9.08884 12.3538 9.42949 12.2685 9.77059 12.2958C10.7995 12.2446 11.4719 12.834 11.4719 13.7412ZM11.1051 13.7412C11.1051 13.0185 10.5958 12.5521 9.74512 12.5521C9.57415 12.5337 9.40125 12.5508 9.2371 12.6023C9.07295 12.6538 8.92104 12.7386 8.79072 12.8515C8.66041 12.9643 8.55448 13.1029 8.47946 13.2586C8.40444 13.4142 8.36192 13.5837 8.35454 13.7566C8.35454 14.346 8.86391 14.9354 9.79096 14.9354C9.95632 14.9534 10.1236 14.9362 10.2819 14.8849C10.4402 14.8336 10.5861 14.7494 10.71 14.6378C10.8339 14.5262 10.9331 14.3896 11.0012 14.2369C11.0693 14.0842 11.1047 13.9188 11.1051 13.7514V13.7412Z" fill="#F0792E"/>
<path d="M18.1292 13.8283H17.0799V15.2275H16.7183V13.8283H13.8607V13.5618L16.5807 10.179H17.0188L14.3446 13.5054H16.7539V12.2702H17.1054V13.5054H18.1547L18.1292 13.8283Z" fill="#F0792E"/>
<path d="M23.7014 13.8078C23.7014 14.6432 23.0953 15.2634 21.9441 15.2634C21.6192 15.2773 21.295 15.2245 20.9911 15.1082C20.6872 14.9919 20.4101 14.8145 20.1766 14.5869L20.3599 14.305C20.568 14.5115 20.8159 14.6731 21.0883 14.7797C21.3607 14.8864 21.652 14.9359 21.9441 14.9251C22.8457 14.9251 23.3296 14.4946 23.3296 13.8078C23.3296 13.121 22.866 12.6905 21.8626 12.6905H21.5519V12.4393L23.0341 10.5275H20.3599V10.1944H23.5079V10.4558L21.9797 12.3983C23.1309 12.4086 23.7014 12.9877 23.7014 13.8078Z" fill="#F0792E"/>
<path d="M29.7532 10.179V10.4404L27.5986 15.2275H27.2064L29.3406 10.5122H26.5238V11.4809H26.1876V10.179H29.7532Z" fill="#F0792E"/>
<path d="M32.3257 12.7059C32.3257 11.1272 33.1356 10.1432 34.2867 10.1432C35.4379 10.1432 36.2478 11.1272 36.2478 12.7059C36.2478 14.2845 35.4379 15.2686 34.2867 15.2686C33.1356 15.2686 32.3257 14.2845 32.3257 12.7059ZM35.8913 12.7059C35.8913 11.3015 35.2393 10.4866 34.2918 10.4866C33.3444 10.4866 32.6924 11.3015 32.6924 12.7059C32.6924 14.1102 33.3444 14.9252 34.2918 14.9252C35.2393 14.9252 35.8658 14.1102 35.8658 12.7059H35.8913Z" fill="#F0792E"/>
</svg>
