<svg width="22" height="22" viewBox="0 0 22 22" fill="none" xmlns="http://www.w3.org/2000/svg">
<path d="M11 22C17.0751 22 22 17.0751 22 11C22 4.92487 17.0751 0 11 0C4.92487 0 0 4.92487 0 11C0 17.0751 4.92487 22 11 22Z" fill="#F0792E"/>
<path d="M7.79276 15.2498H7.92652V13.9505C7.92652 12.8345 8.48566 11.8254 9.38566 11.3171L9.9471 11L9.38566 10.6829C8.48562 10.1746 7.92652 9.16551 7.92652 8.04953V6.75022H7.79276C7.35564 6.75022 7 6.35763 7 5.87511C7 5.39258 7.35564 5 7.79276 5H14.2072C14.6444 5 15 5.39258 15 5.87511C15 6.35763 14.6444 6.75022 14.2072 6.75022H14.0735V8.04953C14.0735 9.16555 13.5143 10.1746 12.6143 10.6829L12.0529 11L12.6143 11.3171C13.5144 11.8254 14.0735 12.8345 14.0735 13.9504V15.2498H14.2072C14.6444 15.2498 15 15.6424 15 16.1249C15 16.6074 14.6444 17 14.2072 17H7.79276C7.35564 17 7 16.6074 7 16.1249C7 15.6424 7.35568 15.2498 7.79276 15.2498ZM14.4595 5.87511C14.4595 5.7216 14.3463 5.59669 14.2072 5.59669H7.79276C7.65369 5.59669 7.54054 5.7216 7.54054 5.87511C7.54054 6.02862 7.65369 6.15353 7.79276 6.15353H14.2072C14.3463 6.15353 14.4595 6.02862 14.4595 5.87511ZM8.46706 6.75022V8.04953C8.46706 8.37059 8.52504 8.6806 8.63283 8.96478H13.3672C13.475 8.6806 13.5329 8.37063 13.5329 8.04953V6.75022H8.46706ZM12.3681 10.1517C12.6309 10.0033 12.8573 9.80142 13.0387 9.56147H8.96133C9.14277 9.80142 9.36912 10.0033 9.63189 10.1517L10.2656 10.5096C10.3456 10.5548 10.4111 10.6212 10.4578 10.7009H11.5423C11.589 10.6212 11.6545 10.5548 11.7345 10.5096L12.3681 10.1517ZM12.3681 11.8483L11.7345 11.4904C11.6539 11.4449 11.5881 11.3779 11.5414 11.2975H10.4587C10.412 11.3779 10.3461 11.4449 10.2656 11.4904L9.63186 11.8483C9.15233 12.1191 8.79405 12.568 8.60876 13.1015H13.3912C13.2059 12.568 12.8477 12.1191 12.3681 11.8483ZM13.5329 13.9504C13.5329 13.8655 13.5289 13.7813 13.5209 13.6982H8.4791C8.47114 13.7813 8.46706 13.8655 8.46706 13.9505V15.2498H13.5329V13.9504ZM7.79276 16.4033H14.2072C14.3463 16.4033 14.4595 16.2784 14.4595 16.1249C14.4595 15.9714 14.3463 15.8465 14.2072 15.8465H7.79276C7.65369 15.8465 7.54054 15.9714 7.54054 16.1249C7.54054 16.2784 7.65369 16.4033 7.79276 16.4033Z" fill="white"/>
</svg>
