<svg width="13" height="12" viewBox="0 0 13 12" fill="none" xmlns="http://www.w3.org/2000/svg">
<path d="M11.2908 0.709175C10.8104 0.228714 9.36898 -0.612092 7.86754 0.709175L0.900864 7.67585L0 12L4.32415 11.0991L11.2908 4.0724C12.2517 3.17154 12.2517 1.61004 11.2908 0.709175ZM1.80173 9.23735L2.76265 10.1983L1.50144 10.4385L1.80173 9.23735ZM4.02386 9.71781L2.34225 8.0362L7.32702 2.99136L9.00864 4.67298L4.02386 9.71781ZM10.45 3.23159L9.84944 3.83217L8.16783 2.15056L8.76841 1.54998C9.24887 1.06952 10.0296 1.06952 10.45 1.54998C10.9305 2.03044 10.9305 2.75113 10.45 3.23159Z" fill="#F0792E"/>
</svg>
