<svg width="27" height="26" viewBox="0 0 27 26" fill="none" xmlns="http://www.w3.org/2000/svg">
<path d="M9.19 21H2.75C1.233 21 0 19.767 0 18.25V2.75C0 1.233 1.233 0 2.75 0H14.25C15.767 0 17 1.233 17 2.75V8.84H15.5V2.75C15.5 2.061 14.939 1.5 14.25 1.5H2.75C2.061 1.5 1.5 2.061 1.5 2.75V18.25C1.5 18.939 2.061 19.5 2.75 19.5H9.19V21Z" fill="#20446C"/>
<path d="M3.75 8H13.25V9.5H3.75V8Z" fill="#F0792E"/>
<path d="M3.75 12H9.25V13.5H3.75V12Z" fill="#F0792E"/>
<circle cx="16.5" cy="15.5" r="10.5" fill="white"/>
<path d="M16.5 23.9C11.8685 23.9 8.1 20.1315 8.1 15.5C8.1 10.8685 11.8685 7.1 16.5 7.1C21.1315 7.1 24.9 10.8685 24.9 15.5C24.9 20.1315 21.1315 23.9 16.5 23.9ZM16.5 8.86154C12.8395 8.86154 9.86154 11.8395 9.86154 15.5C9.86154 19.1605 12.8395 22.1385 16.5 22.1385C20.1605 22.1385 23.1385 19.1605 23.1385 15.5C23.1385 11.8395 20.1605 8.86154 16.5 8.86154Z" fill="#20446C" stroke="white" stroke-width="0.2"/>
<path d="M15.5195 11.9038H17.4811V19.0961H15.5195V11.9038Z" fill="#F0792E"/>
<path d="M12.9043 14.519H20.0966V16.4806H12.9043V14.519Z" fill="#F0792E"/>
<path d="M3.75 4H8.25V5.5H3.75V4Z" fill="#F0792E"/>
</svg>
