<svg width="24" height="24" viewBox="0 0 24 24" fill="none" xmlns="http://www.w3.org/2000/svg">
<path d="M16.5 14C15.397 14 14.5 13.103 14.5 12C14.5 10.897 15.397 10 16.5 10C17.603 10 18.5 10.897 18.5 12C18.5 13.103 17.603 14 16.5 14ZM16.5 11.5C16.224 11.5 16 11.724 16 12C16 12.276 16.224 12.5 16.5 12.5C16.776 12.5 17 12.276 17 12C17 11.724 16.776 11.5 16.5 11.5Z" fill="#F0792E"/>
<path d="M11.5 11.25H12.5V12.75H11.5V11.25Z" fill="#F0792E"/>
<path d="M20.5 11.25H21.5V12.75H20.5V11.25Z" fill="#F0792E"/>
<path d="M22.25 17H10.75C9.785 17 9 16.215 9 15.25V8.75C9 7.785 9.785 7 10.75 7H22.25C23.215 7 24 7.785 24 8.75V15.25C24 16.215 23.215 17 22.25 17ZM10.75 8.5C10.612 8.5 10.5 8.612 10.5 8.75V15.25C10.5 15.388 10.612 15.5 10.75 15.5H22.25C22.388 15.5 22.5 15.388 22.5 15.25V8.75C22.5 8.612 22.388 8.5 22.25 8.5H10.75Z" fill="#20446C"/>
<path d="M10.25 4H5.75C4.785 4 4 3.215 4 2.25C4 1.836 3.664 1.5 3.25 1.5H2.75V0H3.25C4.491 0 5.5 1.009 5.5 2.25C5.5 2.388 5.612 2.5 5.75 2.5H10.25C10.388 2.5 10.5 2.388 10.5 2.25C10.5 1.009 11.509 0 12.75 0H13.25V1.5H12.75C12.336 1.5 12 1.836 12 2.25C12 3.215 11.215 4 10.25 4Z" fill="#20446C"/>
<path d="M13.25 24H2.75C1.233 24 0 22.767 0 21.25V2.75C0 1.233 1.233 0 2.75 0H13.25C14.767 0 16 1.233 16 2.75V4.25H14.5V2.75C14.5 2.061 13.939 1.5 13.25 1.5H2.75C2.061 1.5 1.5 2.061 1.5 2.75V21.25C1.5 21.939 2.061 22.5 2.75 22.5H13.25C13.939 22.5 14.5 21.939 14.5 21.25V19.75H16V21.25C16 22.767 14.767 24 13.25 24Z" fill="#20446C"/>
</svg>
