<svg width="22" height="22" viewBox="0 0 22 22" fill="none" xmlns="http://www.w3.org/2000/svg">
<g clip-path="url(#clip0_834_51774)">
<path d="M5.87964 12.1382L2.46582 20.483L5.12099 19.7244L6.25893 22.0002L9.67271 14.0347L5.87964 12.1382Z" fill="#DE4C3C"/>
<path d="M14.2247 11.7588L10.4316 14.0347L13.8454 22.0002L14.9834 19.7243L17.6385 20.483L14.2247 11.7588Z" fill="#DE4C3C"/>
<path d="M5.87957 12.1382L4.62402 15.2068L4.68852 15.2257L5.50024 17.7444L8.08713 17.1906L8.25402 17.3423L9.67264 14.0347L5.87957 12.1382Z" fill="#C74436"/>
<path d="M10.4316 14.0347L11.8503 17.3422L12.0171 17.1905L14.604 17.7443L15.4158 15.2257L15.5637 15.1802L14.2247 11.7588L10.4316 14.0347Z" fill="#C74436"/>
<path d="M10.0517 0L12.0165 1.77517L14.6034 1.21761L15.4151 3.74L17.9337 4.55172L17.38 7.13861L19.1551 9.10345L17.38 11.0683L17.9337 13.6552L15.4151 14.4669L14.6034 16.9855L12.0165 16.4317L10.0517 18.2069L8.08686 16.4317L5.49996 16.9855L4.68824 14.4669L2.16585 13.6552L2.72341 11.0683L0.948242 9.10345L2.72341 7.13861L2.16585 4.55172L4.68824 3.74L5.49996 1.21761L8.08686 1.77517L10.0517 0Z" fill="#FDB62F"/>
<path d="M19.5348 3.03445C19.4059 2.25612 18.7959 1.64618 18.0176 1.51723C18.7959 1.38828 19.4059 0.778336 19.5348 0C19.6638 0.778336 20.2737 1.38828 21.052 1.51723C20.2737 1.64618 19.6638 2.25607 19.5348 3.03445Z" fill="#FDB62F"/>
<path d="M19.1555 9.10363L17.3804 7.13879L17.9342 4.5519L15.9731 3.91846C13.8452 9.79396 8.78902 13.1167 4.8252 14.8881L5.50036 16.9857L8.08726 16.4319L10.0521 18.2071L12.0169 16.4319L14.6038 16.9857L15.4155 14.4671L17.9342 13.6554L17.3804 11.0685L19.1555 9.10363Z" fill="#FFA83D"/>
<path d="M7.77602 8.345C6.93813 8.345 6.25879 7.66566 6.25879 6.82777C6.25879 5.98988 6.93813 5.31055 7.77602 5.31055C8.61391 5.31055 9.29324 5.98988 9.29324 6.82777C9.29324 7.66566 8.61391 8.345 7.77602 8.345ZM7.77602 6.06912C7.3569 6.06912 7.0174 6.40861 7.0174 6.82773C7.0174 7.24685 7.3569 7.58634 7.77602 7.58634C8.19513 7.58634 8.53463 7.24685 8.53463 6.82773C8.53463 6.40861 8.19513 6.06912 7.77602 6.06912Z" fill="white"/>
<path d="M12.7067 13.2762C11.8688 13.2762 11.1895 12.5968 11.1895 11.7589C11.1895 10.921 11.8688 10.2417 12.7067 10.2417C13.5446 10.2417 14.2239 10.921 14.2239 11.7589C14.2239 12.5968 13.5446 13.2762 12.7067 13.2762ZM12.7067 11.0003C12.2876 11.0003 11.9481 11.3398 11.9481 11.7589C11.9481 12.178 12.2876 12.5175 12.7067 12.5175C13.1258 12.5175 13.4653 12.178 13.4653 11.7589C13.4653 11.3398 13.1258 11.0003 12.7067 11.0003Z" fill="white"/>
<path d="M7.66311 12.0278L12.9736 6.71729L12.4372 6.18087L7.12669 11.4914L7.66311 12.0278Z" fill="white"/>
</g>
<defs>
<clipPath id="clip0_834_51774">
<rect width="22" height="22" fill="white"/>
</clipPath>
</defs>
</svg>
