<svg width="24" height="24" viewBox="0 0 24 24" fill="none" xmlns="http://www.w3.org/2000/svg">
<path d="M10.4023 2.40039C5.99354 2.40039 2.40234 5.99159 2.40234 10.4004C2.40234 14.8092 5.99354 18.4004 10.4023 18.4004C12.3195 18.4004 14.0802 17.7196 15.4602 16.5895L20.2367 21.366C20.3104 21.4428 20.3987 21.5041 20.4964 21.5463C20.5941 21.5886 20.6993 21.6109 20.8057 21.6119C20.9121 21.613 21.0177 21.5929 21.1163 21.5526C21.2148 21.5124 21.3043 21.4529 21.3796 21.3777C21.4549 21.3024 21.5143 21.2129 21.5546 21.1143C21.5948 21.0158 21.615 20.9102 21.6139 20.8038C21.6128 20.6973 21.5905 20.5922 21.5483 20.4945C21.506 20.3968 21.4447 20.3085 21.368 20.2348L16.5914 15.4582C17.7215 14.0783 18.4023 12.3176 18.4023 10.4004C18.4023 5.99159 14.8111 2.40039 10.4023 2.40039ZM10.4023 4.00039C13.9464 4.00039 16.8023 6.85629 16.8023 10.4004C16.8023 13.9445 13.9464 16.8004 10.4023 16.8004C6.85824 16.8004 4.00234 13.9445 4.00234 10.4004C4.00234 6.85629 6.85824 4.00039 10.4023 4.00039Z" fill="#434B53" stroke="#434B53"/>
</svg>
