<svg width="20" height="19" viewBox="0 0 20 19" fill="none" xmlns="http://www.w3.org/2000/svg">
<mask id="path-1-outside-1_3049_12377" maskUnits="userSpaceOnUse" x="-0.890942" y="-0.890942" width="21.821" height="20.7819" fill="black">
<rect fill="white" x="-0.890942" y="-0.890942" width="21.821" height="20.7819"/>
<path d="M19.3772 7.32079C19.1189 7.24747 18.8548 7.18929 18.5891 7.13921V6.8254C18.5896 6.66925 18.5343 6.51806 18.4331 6.39913C18.3319 6.2802 18.1915 6.20137 18.0373 6.17688C16.0205 5.90264 13.9671 6.14717 12.0711 6.88737C12.2044 6.63233 12.3725 6.39709 12.5706 6.1884C13.0506 5.68378 13.3727 5.05001 13.4975 4.3649C13.6223 3.67978 13.5444 2.97313 13.2732 2.33169C13.0021 1.69025 12.5496 1.14193 11.9712 0.754044C11.3928 0.366155 10.7138 0.155575 10.0175 0.148152H9.98143C9.06071 0.154362 8.17731 0.512833 7.51261 1.14996C6.84791 1.78709 6.45236 2.65452 6.40717 3.57414C6.38616 4.04639 6.45953 4.51808 6.62297 4.96164C6.78641 5.4052 7.03665 5.81172 7.35906 6.15742C7.55975 6.37344 7.7316 6.61456 7.87031 6.87476C5.98336 6.14431 3.94209 5.9039 1.93706 6.17597C1.78283 6.20047 1.64243 6.27929 1.54122 6.39822C1.44 6.51714 1.38463 6.66833 1.3851 6.8245V7.13957C1.11903 7.18929 0.855474 7.24766 0.596966 7.32079C0.465466 7.36109 0.350611 7.44301 0.269682 7.55422C0.188754 7.66543 0.146131 7.79991 0.148226 7.93743V17.1695C0.147402 17.2676 0.169128 17.3647 0.211731 17.4531C0.254333 17.5415 0.316673 17.619 0.393943 17.6795C0.467291 17.7371 0.552872 17.777 0.644099 17.7963C0.735325 17.8156 0.829765 17.8137 0.920146 17.7908C3.7549 17.0767 7.27241 17.4566 9.47414 18.7142C9.63003 18.8044 9.80693 18.8518 9.98701 18.8518C10.1671 18.8518 10.344 18.8044 10.4999 18.7142C12.7016 17.4566 16.2189 17.0771 19.0539 17.7908C19.1443 17.8137 19.2387 17.8156 19.3299 17.7963C19.4211 17.777 19.5067 17.737 19.5801 17.6795C19.6573 17.619 19.7197 17.5415 19.7623 17.4531C19.8049 17.3647 19.8266 17.2676 19.8258 17.1695V7.93743C19.8279 7.79993 19.7853 7.66547 19.7044 7.55426C19.6235 7.44306 19.5087 7.36113 19.3772 7.32079ZM17.9799 6.53158C18.0496 6.54273 18.1131 6.57849 18.1587 6.63239C18.2044 6.68628 18.2293 6.75475 18.2288 6.8254V15.5163C18.2282 15.5558 18.2197 15.5949 18.204 15.6312C18.1883 15.6674 18.1655 15.7003 18.1371 15.7277C18.1086 15.7552 18.075 15.7768 18.0382 15.7913C18.0014 15.8058 17.9621 15.8128 17.9226 15.8121C14.1536 15.9625 11.4914 16.6889 10.1677 17.9198V10.1375C10.5452 10.0978 10.8985 9.93291 11.1715 9.66916C11.1668 9.94046 11.1781 10.2247 11.1915 10.4465C11.1948 10.5031 11.2114 10.558 11.2399 10.607C11.2684 10.656 11.3079 10.6977 11.3554 10.7286C11.436 10.7814 11.5307 10.8089 11.627 10.8075C11.6905 10.8073 11.7535 10.7969 11.8137 10.7767L11.9012 10.7482C12.1803 10.6677 12.4504 10.5591 12.7076 10.424C12.7763 10.3762 12.8339 10.3142 12.8764 10.2421C12.9189 10.17 12.9453 10.0896 12.9538 10.0064C12.9731 9.68555 12.9734 9.33211 12.9718 8.99758C12.972 8.93641 12.9581 8.87602 12.9312 8.82108C12.9043 8.76614 12.8651 8.71811 12.8167 8.68071C12.7603 8.63865 12.6949 8.61008 12.6257 8.59722C12.5565 8.58435 12.4853 8.58752 12.4175 8.60649C12.1542 8.67654 11.8963 8.76596 11.6461 8.874C11.6929 8.70869 11.7167 8.53777 11.7171 8.36599V8.36455V8.36257V8.33447C11.7177 8.00778 11.7694 7.68319 11.8704 7.3725C13.7934 6.54489 15.9048 6.25427 17.9799 6.53158ZM11.3376 8.61153C11.2939 8.93968 11.1316 9.2405 10.8814 9.45726C10.6312 9.67403 10.3103 9.79175 9.97926 9.78824C9.64954 9.78748 9.33107 9.66821 9.08196 9.4522C8.83284 9.23619 8.66968 8.93782 8.62223 8.61153C9.50987 8.86301 10.4499 8.86301 11.3376 8.61153ZM11.6027 9.29608C11.891 9.15063 12.1941 9.03649 12.5067 8.95561C12.5185 8.95247 12.5306 8.95084 12.5427 8.95074C12.5615 8.94997 12.58 8.95528 12.5955 8.96587C12.6006 8.96969 12.6046 8.97469 12.6072 8.98045C12.6099 8.9862 12.611 8.99252 12.6106 8.99884C12.6115 9.32761 12.6106 9.67457 12.5926 9.98495C12.583 10.0344 12.5589 10.0798 12.5233 10.1154C12.2889 10.2363 12.0432 10.3339 11.7897 10.4067L11.6996 10.4359C11.6759 10.4469 11.6497 10.4517 11.6235 10.45C11.5974 10.4483 11.5721 10.44 11.5499 10.4259C11.5228 10.0641 11.5219 9.70076 11.5472 9.33878C11.5472 9.33878 11.5566 9.32238 11.6027 9.29608ZM6.7671 3.58874C6.80765 2.76173 7.16336 1.98166 7.76116 1.40875C8.35896 0.835851 9.15345 0.513622 9.98143 0.508261H10.0135C10.6399 0.51466 11.2507 0.703851 11.771 1.0526C12.2914 1.40135 12.6985 1.89447 12.9425 2.47141C13.1864 3.04834 13.2566 3.68396 13.1443 4.30021C13.0321 4.91646 12.7423 5.48651 12.3105 5.94035C11.7229 6.55894 11.385 7.37313 11.3621 8.22602C10.9716 8.34522 10.5675 8.41358 10.1596 8.4294V6.67371C10.1596 6.62594 10.1406 6.58012 10.1068 6.54633C10.073 6.51255 10.0272 6.49357 9.97944 6.49357C9.93167 6.49357 9.88585 6.51255 9.85206 6.54633C9.81828 6.58012 9.7993 6.62594 9.7993 6.67371V8.42959C9.39174 8.41381 8.98792 8.34539 8.59791 8.22602C8.56363 7.3622 8.21723 6.54012 7.62297 5.91224C7.33305 5.60127 7.10803 5.23562 6.96107 4.83667C6.81412 4.43772 6.74818 4.01347 6.7671 3.58874ZM1.74539 6.8254C1.74493 6.75475 1.76979 6.68628 1.81546 6.63239C1.86113 6.57849 1.92459 6.54273 1.99435 6.53158C2.47942 6.45644 2.96969 6.41987 3.46055 6.42223C5.04884 6.41819 6.62113 6.73944 8.08054 7.36619C8.18653 7.67801 8.24128 8.00495 8.24267 8.33429V8.35609C8.24214 8.35798 8.24172 8.35991 8.24141 8.36185C8.23138 8.80061 8.38683 9.22707 8.67684 9.55647C8.96685 9.88586 9.37019 10.0941 9.80669 10.1397V17.922C7.94057 16.1915 3.80787 15.8694 2.04047 15.8126C2.00109 15.8149 1.96168 15.8087 1.92483 15.7947C1.88799 15.7806 1.85452 15.7589 1.82663 15.731C1.79874 15.7031 1.77706 15.6697 1.763 15.6328C1.74893 15.596 1.74281 15.5566 1.74503 15.5172L1.74539 6.8254ZM3.98261 17.0655C2.92098 17.062 1.86291 17.1885 0.832055 17.4422C0.794906 17.4517 0.756065 17.4525 0.718565 17.4445C0.681066 17.4365 0.645923 17.4199 0.615881 17.3961C0.581972 17.3691 0.554707 17.3348 0.536186 17.2956C0.517665 17.2564 0.508383 17.2135 0.509056 17.1702V7.93743C0.50678 7.87824 0.523756 7.81992 0.557438 7.7712C0.59112 7.72248 0.639691 7.68599 0.695866 7.66721C0.917804 7.60434 1.14947 7.55336 1.38564 7.50887V15.5163C1.38391 15.6019 1.3993 15.6869 1.43091 15.7665C1.46253 15.846 1.50972 15.9185 1.56971 15.9795C1.62971 16.0406 1.7013 16.089 1.78029 16.122C1.85927 16.155 1.94406 16.1719 2.02966 16.1717C3.852 16.2304 8.25186 16.5727 9.83443 18.4718C9.77131 18.4569 9.71065 18.433 9.65428 18.401C8.12593 17.5292 6.06256 17.0655 3.98261 17.0655ZM19.4653 17.1702C19.466 17.2135 19.4567 17.2564 19.4382 17.2956C19.4197 17.3348 19.3924 17.3691 19.3585 17.3961C19.3284 17.4199 19.2933 17.4365 19.2558 17.4445C19.2183 17.4525 19.1795 17.4517 19.1423 17.4422C16.1782 16.6953 12.6335 17.0819 10.3217 18.4022C10.2649 18.4345 10.2038 18.4584 10.1401 18.4732C10.9252 17.5309 12.9154 16.3736 17.9467 16.1729C18.1179 16.1684 18.2807 16.0975 18.4006 15.9752C18.5205 15.8529 18.5883 15.6888 18.5895 15.5176V7.50887C18.8258 7.55354 19.0578 7.60452 19.2794 7.66739C19.3355 7.68623 19.3841 7.72273 19.4177 7.77144C19.4513 7.82015 19.4683 7.87845 19.466 7.93761L19.4653 17.1702Z"/>
</mask>
<path d="M19.3772 7.32079C19.1189 7.24747 18.8548 7.18929 18.5891 7.13921V6.8254C18.5896 6.66925 18.5343 6.51806 18.4331 6.39913C18.3319 6.2802 18.1915 6.20137 18.0373 6.17688C16.0205 5.90264 13.9671 6.14717 12.0711 6.88737C12.2044 6.63233 12.3725 6.39709 12.5706 6.1884C13.0506 5.68378 13.3727 5.05001 13.4975 4.3649C13.6223 3.67978 13.5444 2.97313 13.2732 2.33169C13.0021 1.69025 12.5496 1.14193 11.9712 0.754044C11.3928 0.366155 10.7138 0.155575 10.0175 0.148152H9.98143C9.06071 0.154362 8.17731 0.512833 7.51261 1.14996C6.84791 1.78709 6.45236 2.65452 6.40717 3.57414C6.38616 4.04639 6.45953 4.51808 6.62297 4.96164C6.78641 5.4052 7.03665 5.81172 7.35906 6.15742C7.55975 6.37344 7.7316 6.61456 7.87031 6.87476C5.98336 6.14431 3.94209 5.9039 1.93706 6.17597C1.78283 6.20047 1.64243 6.27929 1.54122 6.39822C1.44 6.51714 1.38463 6.66833 1.3851 6.8245V7.13957C1.11903 7.18929 0.855474 7.24766 0.596966 7.32079C0.465466 7.36109 0.350611 7.44301 0.269682 7.55422C0.188754 7.66543 0.146131 7.79991 0.148226 7.93743V17.1695C0.147402 17.2676 0.169128 17.3647 0.211731 17.4531C0.254333 17.5415 0.316673 17.619 0.393943 17.6795C0.467291 17.7371 0.552872 17.777 0.644099 17.7963C0.735325 17.8156 0.829765 17.8137 0.920146 17.7908C3.7549 17.0767 7.27241 17.4566 9.47414 18.7142C9.63003 18.8044 9.80693 18.8518 9.98701 18.8518C10.1671 18.8518 10.344 18.8044 10.4999 18.7142C12.7016 17.4566 16.2189 17.0771 19.0539 17.7908C19.1443 17.8137 19.2387 17.8156 19.3299 17.7963C19.4211 17.777 19.5067 17.737 19.5801 17.6795C19.6573 17.619 19.7197 17.5415 19.7623 17.4531C19.8049 17.3647 19.8266 17.2676 19.8258 17.1695V7.93743C19.8279 7.79993 19.7853 7.66547 19.7044 7.55426C19.6235 7.44306 19.5087 7.36113 19.3772 7.32079ZM17.9799 6.53158C18.0496 6.54273 18.1131 6.57849 18.1587 6.63239C18.2044 6.68628 18.2293 6.75475 18.2288 6.8254V15.5163C18.2282 15.5558 18.2197 15.5949 18.204 15.6312C18.1883 15.6674 18.1655 15.7003 18.1371 15.7277C18.1086 15.7552 18.075 15.7768 18.0382 15.7913C18.0014 15.8058 17.9621 15.8128 17.9226 15.8121C14.1536 15.9625 11.4914 16.6889 10.1677 17.9198V10.1375C10.5452 10.0978 10.8985 9.93291 11.1715 9.66916C11.1668 9.94046 11.1781 10.2247 11.1915 10.4465C11.1948 10.5031 11.2114 10.558 11.2399 10.607C11.2684 10.656 11.3079 10.6977 11.3554 10.7286C11.436 10.7814 11.5307 10.8089 11.627 10.8075C11.6905 10.8073 11.7535 10.7969 11.8137 10.7767L11.9012 10.7482C12.1803 10.6677 12.4504 10.5591 12.7076 10.424C12.7763 10.3762 12.8339 10.3142 12.8764 10.2421C12.9189 10.17 12.9453 10.0896 12.9538 10.0064C12.9731 9.68555 12.9734 9.33211 12.9718 8.99758C12.972 8.93641 12.9581 8.87602 12.9312 8.82108C12.9043 8.76614 12.8651 8.71811 12.8167 8.68071C12.7603 8.63865 12.6949 8.61008 12.6257 8.59722C12.5565 8.58435 12.4853 8.58752 12.4175 8.60649C12.1542 8.67654 11.8963 8.76596 11.6461 8.874C11.6929 8.70869 11.7167 8.53777 11.7171 8.36599V8.36455V8.36257V8.33447C11.7177 8.00778 11.7694 7.68319 11.8704 7.3725C13.7934 6.54489 15.9048 6.25427 17.9799 6.53158ZM11.3376 8.61153C11.2939 8.93968 11.1316 9.2405 10.8814 9.45726C10.6312 9.67403 10.3103 9.79175 9.97926 9.78824C9.64954 9.78748 9.33107 9.66821 9.08196 9.4522C8.83284 9.23619 8.66968 8.93782 8.62223 8.61153C9.50987 8.86301 10.4499 8.86301 11.3376 8.61153ZM11.6027 9.29608C11.891 9.15063 12.1941 9.03649 12.5067 8.95561C12.5185 8.95247 12.5306 8.95084 12.5427 8.95074C12.5615 8.94997 12.58 8.95528 12.5955 8.96587C12.6006 8.96969 12.6046 8.97469 12.6072 8.98045C12.6099 8.9862 12.611 8.99252 12.6106 8.99884C12.6115 9.32761 12.6106 9.67457 12.5926 9.98495C12.583 10.0344 12.5589 10.0798 12.5233 10.1154C12.2889 10.2363 12.0432 10.3339 11.7897 10.4067L11.6996 10.4359C11.6759 10.4469 11.6497 10.4517 11.6235 10.45C11.5974 10.4483 11.5721 10.44 11.5499 10.4259C11.5228 10.0641 11.5219 9.70076 11.5472 9.33878C11.5472 9.33878 11.5566 9.32238 11.6027 9.29608ZM6.7671 3.58874C6.80765 2.76173 7.16336 1.98166 7.76116 1.40875C8.35896 0.835851 9.15345 0.513622 9.98143 0.508261H10.0135C10.6399 0.51466 11.2507 0.703851 11.771 1.0526C12.2914 1.40135 12.6985 1.89447 12.9425 2.47141C13.1864 3.04834 13.2566 3.68396 13.1443 4.30021C13.0321 4.91646 12.7423 5.48651 12.3105 5.94035C11.7229 6.55894 11.385 7.37313 11.3621 8.22602C10.9716 8.34522 10.5675 8.41358 10.1596 8.4294V6.67371C10.1596 6.62594 10.1406 6.58012 10.1068 6.54633C10.073 6.51255 10.0272 6.49357 9.97944 6.49357C9.93167 6.49357 9.88585 6.51255 9.85206 6.54633C9.81828 6.58012 9.7993 6.62594 9.7993 6.67371V8.42959C9.39174 8.41381 8.98792 8.34539 8.59791 8.22602C8.56363 7.3622 8.21723 6.54012 7.62297 5.91224C7.33305 5.60127 7.10803 5.23562 6.96107 4.83667C6.81412 4.43772 6.74818 4.01347 6.7671 3.58874ZM1.74539 6.8254C1.74493 6.75475 1.76979 6.68628 1.81546 6.63239C1.86113 6.57849 1.92459 6.54273 1.99435 6.53158C2.47942 6.45644 2.96969 6.41987 3.46055 6.42223C5.04884 6.41819 6.62113 6.73944 8.08054 7.36619C8.18653 7.67801 8.24128 8.00495 8.24267 8.33429V8.35609C8.24214 8.35798 8.24172 8.35991 8.24141 8.36185C8.23138 8.80061 8.38683 9.22707 8.67684 9.55647C8.96685 9.88586 9.37019 10.0941 9.80669 10.1397V17.922C7.94057 16.1915 3.80787 15.8694 2.04047 15.8126C2.00109 15.8149 1.96168 15.8087 1.92483 15.7947C1.88799 15.7806 1.85452 15.7589 1.82663 15.731C1.79874 15.7031 1.77706 15.6697 1.763 15.6328C1.74893 15.596 1.74281 15.5566 1.74503 15.5172L1.74539 6.8254ZM3.98261 17.0655C2.92098 17.062 1.86291 17.1885 0.832055 17.4422C0.794906 17.4517 0.756065 17.4525 0.718565 17.4445C0.681066 17.4365 0.645923 17.4199 0.615881 17.3961C0.581972 17.3691 0.554707 17.3348 0.536186 17.2956C0.517665 17.2564 0.508383 17.2135 0.509056 17.1702V7.93743C0.50678 7.87824 0.523756 7.81992 0.557438 7.7712C0.59112 7.72248 0.639691 7.68599 0.695866 7.66721C0.917804 7.60434 1.14947 7.55336 1.38564 7.50887V15.5163C1.38391 15.6019 1.3993 15.6869 1.43091 15.7665C1.46253 15.846 1.50972 15.9185 1.56971 15.9795C1.62971 16.0406 1.7013 16.089 1.78029 16.122C1.85927 16.155 1.94406 16.1719 2.02966 16.1717C3.852 16.2304 8.25186 16.5727 9.83443 18.4718C9.77131 18.4569 9.71065 18.433 9.65428 18.401C8.12593 17.5292 6.06256 17.0655 3.98261 17.0655ZM19.4653 17.1702C19.466 17.2135 19.4567 17.2564 19.4382 17.2956C19.4197 17.3348 19.3924 17.3691 19.3585 17.3961C19.3284 17.4199 19.2933 17.4365 19.2558 17.4445C19.2183 17.4525 19.1795 17.4517 19.1423 17.4422C16.1782 16.6953 12.6335 17.0819 10.3217 18.4022C10.2649 18.4345 10.2038 18.4584 10.1401 18.4732C10.9252 17.5309 12.9154 16.3736 17.9467 16.1729C18.1179 16.1684 18.2807 16.0975 18.4006 15.9752C18.5205 15.8529 18.5883 15.6888 18.5895 15.5176V7.50887C18.8258 7.55354 19.0578 7.60452 19.2794 7.66739C19.3355 7.68623 19.3841 7.72273 19.4177 7.77144C19.4513 7.82015 19.4683 7.87845 19.466 7.93761L19.4653 17.1702Z" fill="#F0792E"/>
<path d="M19.3772 7.32079C19.1189 7.24747 18.8548 7.18929 18.5891 7.13921V6.8254C18.5896 6.66925 18.5343 6.51806 18.4331 6.39913C18.3319 6.2802 18.1915 6.20137 18.0373 6.17688C16.0205 5.90264 13.9671 6.14717 12.0711 6.88737C12.2044 6.63233 12.3725 6.39709 12.5706 6.1884C13.0506 5.68378 13.3727 5.05001 13.4975 4.3649C13.6223 3.67978 13.5444 2.97313 13.2732 2.33169C13.0021 1.69025 12.5496 1.14193 11.9712 0.754044C11.3928 0.366155 10.7138 0.155575 10.0175 0.148152H9.98143C9.06071 0.154362 8.17731 0.512833 7.51261 1.14996C6.84791 1.78709 6.45236 2.65452 6.40717 3.57414C6.38616 4.04639 6.45953 4.51808 6.62297 4.96164C6.78641 5.4052 7.03665 5.81172 7.35906 6.15742C7.55975 6.37344 7.7316 6.61456 7.87031 6.87476C5.98336 6.14431 3.94209 5.9039 1.93706 6.17597C1.78283 6.20047 1.64243 6.27929 1.54122 6.39822C1.44 6.51714 1.38463 6.66833 1.3851 6.8245V7.13957C1.11903 7.18929 0.855474 7.24766 0.596966 7.32079C0.465466 7.36109 0.350611 7.44301 0.269682 7.55422C0.188754 7.66543 0.146131 7.79991 0.148226 7.93743V17.1695C0.147402 17.2676 0.169128 17.3647 0.211731 17.4531C0.254333 17.5415 0.316673 17.619 0.393943 17.6795C0.467291 17.7371 0.552872 17.777 0.644099 17.7963C0.735325 17.8156 0.829765 17.8137 0.920146 17.7908C3.7549 17.0767 7.27241 17.4566 9.47414 18.7142C9.63003 18.8044 9.80693 18.8518 9.98701 18.8518C10.1671 18.8518 10.344 18.8044 10.4999 18.7142C12.7016 17.4566 16.2189 17.0771 19.0539 17.7908C19.1443 17.8137 19.2387 17.8156 19.3299 17.7963C19.4211 17.777 19.5067 17.737 19.5801 17.6795C19.6573 17.619 19.7197 17.5415 19.7623 17.4531C19.8049 17.3647 19.8266 17.2676 19.8258 17.1695V7.93743C19.8279 7.79993 19.7853 7.66547 19.7044 7.55426C19.6235 7.44306 19.5087 7.36113 19.3772 7.32079ZM17.9799 6.53158C18.0496 6.54273 18.1131 6.57849 18.1587 6.63239C18.2044 6.68628 18.2293 6.75475 18.2288 6.8254V15.5163C18.2282 15.5558 18.2197 15.5949 18.204 15.6312C18.1883 15.6674 18.1655 15.7003 18.1371 15.7277C18.1086 15.7552 18.075 15.7768 18.0382 15.7913C18.0014 15.8058 17.9621 15.8128 17.9226 15.8121C14.1536 15.9625 11.4914 16.6889 10.1677 17.9198V10.1375C10.5452 10.0978 10.8985 9.93291 11.1715 9.66916C11.1668 9.94046 11.1781 10.2247 11.1915 10.4465C11.1948 10.5031 11.2114 10.558 11.2399 10.607C11.2684 10.656 11.3079 10.6977 11.3554 10.7286C11.436 10.7814 11.5307 10.8089 11.627 10.8075C11.6905 10.8073 11.7535 10.7969 11.8137 10.7767L11.9012 10.7482C12.1803 10.6677 12.4504 10.5591 12.7076 10.424C12.7763 10.3762 12.8339 10.3142 12.8764 10.2421C12.9189 10.17 12.9453 10.0896 12.9538 10.0064C12.9731 9.68555 12.9734 9.33211 12.9718 8.99758C12.972 8.93641 12.9581 8.87602 12.9312 8.82108C12.9043 8.76614 12.8651 8.71811 12.8167 8.68071C12.7603 8.63865 12.6949 8.61008 12.6257 8.59722C12.5565 8.58435 12.4853 8.58752 12.4175 8.60649C12.1542 8.67654 11.8963 8.76596 11.6461 8.874C11.6929 8.70869 11.7167 8.53777 11.7171 8.36599V8.36455V8.36257V8.33447C11.7177 8.00778 11.7694 7.68319 11.8704 7.3725C13.7934 6.54489 15.9048 6.25427 17.9799 6.53158ZM11.3376 8.61153C11.2939 8.93968 11.1316 9.2405 10.8814 9.45726C10.6312 9.67403 10.3103 9.79175 9.97926 9.78824C9.64954 9.78748 9.33107 9.66821 9.08196 9.4522C8.83284 9.23619 8.66968 8.93782 8.62223 8.61153C9.50987 8.86301 10.4499 8.86301 11.3376 8.61153ZM11.6027 9.29608C11.891 9.15063 12.1941 9.03649 12.5067 8.95561C12.5185 8.95247 12.5306 8.95084 12.5427 8.95074C12.5615 8.94997 12.58 8.95528 12.5955 8.96587C12.6006 8.96969 12.6046 8.97469 12.6072 8.98045C12.6099 8.9862 12.611 8.99252 12.6106 8.99884C12.6115 9.32761 12.6106 9.67457 12.5926 9.98495C12.583 10.0344 12.5589 10.0798 12.5233 10.1154C12.2889 10.2363 12.0432 10.3339 11.7897 10.4067L11.6996 10.4359C11.6759 10.4469 11.6497 10.4517 11.6235 10.45C11.5974 10.4483 11.5721 10.44 11.5499 10.4259C11.5228 10.0641 11.5219 9.70076 11.5472 9.33878C11.5472 9.33878 11.5566 9.32238 11.6027 9.29608ZM6.7671 3.58874C6.80765 2.76173 7.16336 1.98166 7.76116 1.40875C8.35896 0.835851 9.15345 0.513622 9.98143 0.508261H10.0135C10.6399 0.51466 11.2507 0.703851 11.771 1.0526C12.2914 1.40135 12.6985 1.89447 12.9425 2.47141C13.1864 3.04834 13.2566 3.68396 13.1443 4.30021C13.0321 4.91646 12.7423 5.48651 12.3105 5.94035C11.7229 6.55894 11.385 7.37313 11.3621 8.22602C10.9716 8.34522 10.5675 8.41358 10.1596 8.4294V6.67371C10.1596 6.62594 10.1406 6.58012 10.1068 6.54633C10.073 6.51255 10.0272 6.49357 9.97944 6.49357C9.93167 6.49357 9.88585 6.51255 9.85206 6.54633C9.81828 6.58012 9.7993 6.62594 9.7993 6.67371V8.42959C9.39174 8.41381 8.98792 8.34539 8.59791 8.22602C8.56363 7.3622 8.21723 6.54012 7.62297 5.91224C7.33305 5.60127 7.10803 5.23562 6.96107 4.83667C6.81412 4.43772 6.74818 4.01347 6.7671 3.58874ZM1.74539 6.8254C1.74493 6.75475 1.76979 6.68628 1.81546 6.63239C1.86113 6.57849 1.92459 6.54273 1.99435 6.53158C2.47942 6.45644 2.96969 6.41987 3.46055 6.42223C5.04884 6.41819 6.62113 6.73944 8.08054 7.36619C8.18653 7.67801 8.24128 8.00495 8.24267 8.33429V8.35609C8.24214 8.35798 8.24172 8.35991 8.24141 8.36185C8.23138 8.80061 8.38683 9.22707 8.67684 9.55647C8.96685 9.88586 9.37019 10.0941 9.80669 10.1397V17.922C7.94057 16.1915 3.80787 15.8694 2.04047 15.8126C2.00109 15.8149 1.96168 15.8087 1.92483 15.7947C1.88799 15.7806 1.85452 15.7589 1.82663 15.731C1.79874 15.7031 1.77706 15.6697 1.763 15.6328C1.74893 15.596 1.74281 15.5566 1.74503 15.5172L1.74539 6.8254ZM3.98261 17.0655C2.92098 17.062 1.86291 17.1885 0.832055 17.4422C0.794906 17.4517 0.756065 17.4525 0.718565 17.4445C0.681066 17.4365 0.645923 17.4199 0.615881 17.3961C0.581972 17.3691 0.554707 17.3348 0.536186 17.2956C0.517665 17.2564 0.508383 17.2135 0.509056 17.1702V7.93743C0.50678 7.87824 0.523756 7.81992 0.557438 7.7712C0.59112 7.72248 0.639691 7.68599 0.695866 7.66721C0.917804 7.60434 1.14947 7.55336 1.38564 7.50887V15.5163C1.38391 15.6019 1.3993 15.6869 1.43091 15.7665C1.46253 15.846 1.50972 15.9185 1.56971 15.9795C1.62971 16.0406 1.7013 16.089 1.78029 16.122C1.85927 16.155 1.94406 16.1719 2.02966 16.1717C3.852 16.2304 8.25186 16.5727 9.83443 18.4718C9.77131 18.4569 9.71065 18.433 9.65428 18.401C8.12593 17.5292 6.06256 17.0655 3.98261 17.0655ZM19.4653 17.1702C19.466 17.2135 19.4567 17.2564 19.4382 17.2956C19.4197 17.3348 19.3924 17.3691 19.3585 17.3961C19.3284 17.4199 19.2933 17.4365 19.2558 17.4445C19.2183 17.4525 19.1795 17.4517 19.1423 17.4422C16.1782 16.6953 12.6335 17.0819 10.3217 18.4022C10.2649 18.4345 10.2038 18.4584 10.1401 18.4732C10.9252 17.5309 12.9154 16.3736 17.9467 16.1729C18.1179 16.1684 18.2807 16.0975 18.4006 15.9752C18.5205 15.8529 18.5883 15.6888 18.5895 15.5176V7.50887C18.8258 7.55354 19.0578 7.60452 19.2794 7.66739C19.3355 7.68623 19.3841 7.72273 19.4177 7.77144C19.4513 7.82015 19.4683 7.87845 19.466 7.93761L19.4653 17.1702Z" stroke="#F0792E" stroke-width="0.285" mask="url(#path-1-outside-1_3049_12377)"/>
<mask id="path-2-outside-2_3049_12377" maskUnits="userSpaceOnUse" x="2.44806" y="2.02238" width="14.5473" height="14.5473" fill="black">
<rect fill="white" x="2.44806" y="2.02238" width="14.5473" height="14.5473"/>
<path d="M13.8777 8.6764C13.8928 8.67643 13.9078 8.67449 13.9224 8.67064C14.6355 8.47834 15.3709 8.38047 16.1095 8.37952C16.1334 8.38124 16.1573 8.378 16.1799 8.37002C16.2024 8.36204 16.2231 8.34949 16.2405 8.33315C16.258 8.31681 16.2719 8.29704 16.2814 8.27507C16.2909 8.25311 16.2957 8.22942 16.2956 8.2055C16.2971 8.15778 16.2797 8.11139 16.2471 8.07653C16.2144 8.04167 16.1693 8.02119 16.1216 8.01959C15.3489 8.01781 14.5795 8.11941 13.8337 8.3217C13.7912 8.33254 13.7541 8.35852 13.7294 8.39477C13.7047 8.43103 13.694 8.47505 13.6995 8.51859C13.7049 8.56213 13.7261 8.60219 13.7589 8.63124C13.7918 8.6603 13.8342 8.67636 13.878 8.6764H13.8777ZM13.8777 9.72791C13.8928 9.72793 13.9078 9.72599 13.9224 9.72214C14.6355 9.52963 15.3708 9.43175 16.1095 9.43103C16.1334 9.4328 16.1573 9.4296 16.1799 9.42164C16.2025 9.41368 16.2232 9.40113 16.2407 9.38478C16.2581 9.36843 16.272 9.34864 16.2815 9.32665C16.291 9.30466 16.2957 9.28094 16.2956 9.25701C16.2971 9.20928 16.2797 9.1629 16.2471 9.12804C16.2144 9.09318 16.1693 9.0727 16.1216 9.0711C15.3489 9.06917 14.5794 9.17078 13.8337 9.3732C13.7912 9.38405 13.7541 9.41004 13.7294 9.44632C13.7047 9.48259 13.694 9.52663 13.6995 9.57019C13.705 9.61374 13.7261 9.65379 13.759 9.68283C13.7919 9.71188 13.8343 9.7279 13.8782 9.72791H13.8777ZM16.118 10.812C14.4848 10.7877 12.481 11.2899 11.2566 12.0298C11.2172 12.0552 11.1892 12.0949 11.1786 12.1406C11.1681 12.1863 11.1757 12.2343 11.2 12.2744C11.2242 12.3145 11.2632 12.3436 11.3085 12.3555C11.3538 12.3674 11.402 12.3611 11.4428 12.338C12.6152 11.6299 14.535 11.1491 16.1131 11.1723H16.1156C16.1634 11.1726 16.2093 11.1539 16.2433 11.1204C16.2773 11.0868 16.2966 11.0411 16.2969 10.9933C16.2972 10.9456 16.2786 10.8996 16.245 10.8656C16.2114 10.8316 16.1657 10.8123 16.118 10.812ZM16.1425 12.4445C15.1983 12.3004 12.7754 12.8345 11.3983 13.6426C11.3575 13.667 11.328 13.7065 11.3162 13.7526C11.3044 13.7986 11.3112 13.8475 11.3353 13.8885C11.3594 13.9295 11.3987 13.9593 11.4446 13.9715C11.4906 13.9836 11.5395 13.9771 11.5807 13.9534C12.9559 13.1462 15.2916 12.6776 16.0877 12.8005C16.1115 12.805 16.1359 12.8046 16.1596 12.7995C16.1833 12.7943 16.2056 12.7845 16.2254 12.7705C16.2452 12.7565 16.2619 12.7386 16.2746 12.718C16.2873 12.6974 16.2957 12.6744 16.2994 12.6505C16.303 12.6266 16.3018 12.6021 16.2958 12.5787C16.2897 12.5552 16.2791 12.5332 16.2643 12.514C16.2496 12.4948 16.2312 12.4787 16.2101 12.4668C16.1891 12.4548 16.1658 12.4472 16.1417 12.4445H16.1425ZM16.0727 14.0586C15.1279 13.9145 12.7057 14.4486 11.3288 15.2567C11.288 15.2811 11.2585 15.3206 11.2467 15.3667C11.2348 15.4127 11.2417 15.4616 11.2658 15.5026C11.2898 15.5436 11.3291 15.5734 11.3751 15.5856C11.421 15.5977 11.4699 15.5912 11.5111 15.5675C12.8863 14.7601 15.2221 14.2922 16.0182 14.4146C16.042 14.4191 16.0664 14.4187 16.0901 14.4136C16.1137 14.4084 16.1361 14.3986 16.1559 14.3846C16.1756 14.3706 16.1924 14.3527 16.2051 14.3321C16.2178 14.3115 16.2262 14.2885 16.2298 14.2646C16.2335 14.2407 16.2323 14.2162 16.2262 14.1928C16.2202 14.1693 16.2095 14.1473 16.1948 14.1281C16.1801 14.1089 16.1617 14.0928 16.1406 14.0809C16.1195 14.0689 16.0963 14.0613 16.0722 14.0586H16.0727ZM8.72194 12.0323C7.60216 11.3139 5.34423 10.8061 3.69266 10.6756C3.66907 10.6738 3.64535 10.6766 3.62285 10.6839C3.60035 10.6912 3.57951 10.7029 3.56152 10.7183C3.54353 10.7336 3.52874 10.7524 3.518 10.7735C3.50726 10.7945 3.50077 10.8175 3.49891 10.8411C3.49706 10.8647 3.49986 10.8884 3.50717 10.9109C3.51448 10.9334 3.52616 10.9543 3.54152 10.9723C3.55688 10.9902 3.57564 11.005 3.59672 11.0158C3.6178 11.0265 3.64079 11.033 3.66438 11.0349C5.5078 11.1804 7.59838 11.7396 8.52738 12.3355C8.54729 12.3487 8.56963 12.3579 8.59311 12.3624C8.61659 12.3669 8.64073 12.3668 8.66413 12.3618C8.68753 12.3569 8.70972 12.3474 8.72941 12.3339C8.7491 12.3203 8.76589 12.3029 8.7788 12.2828C8.79171 12.2627 8.80049 12.2402 8.80462 12.2167C8.80875 12.1931 8.80816 12.169 8.80286 12.1457C8.79757 12.1223 8.78769 12.1003 8.7738 12.0809C8.7599 12.0614 8.74228 12.0449 8.72194 12.0323ZM3.67879 9.56019H3.68239C5.38011 9.56436 7.04916 9.99817 8.53405 10.8212C8.57535 10.8452 8.62451 10.8519 8.67071 10.8397C8.71691 10.8275 8.75637 10.7974 8.7804 10.7561C8.80443 10.7148 8.81107 10.6656 8.79886 10.6194C8.78664 10.5732 8.75658 10.5338 8.71527 10.5097C7.17504 9.65523 5.4436 9.20444 3.68221 9.19936C3.63443 9.19891 3.58843 9.21745 3.55433 9.25092C3.52022 9.28438 3.50081 9.33002 3.50036 9.3778C3.4999 9.42557 3.51845 9.47157 3.55191 9.50568C3.58537 9.53978 3.63101 9.5592 3.67879 9.55965V9.56019ZM3.77715 8.27738C4.8092 8.20821 6.20442 8.52652 6.86555 8.77458C6.88791 8.78391 6.91191 8.78863 6.93614 8.78847C6.96036 8.78831 6.98431 8.78326 7.00653 8.77363C7.02876 8.764 7.04882 8.74998 7.06551 8.73242C7.0822 8.71486 7.09517 8.69412 7.10366 8.67142C7.11214 8.64873 7.11596 8.62457 7.11489 8.60036C7.11382 8.57616 7.10788 8.55243 7.09742 8.53057C7.08697 8.50872 7.07221 8.4892 7.05403 8.47318C7.03586 8.45717 7.01464 8.44498 6.99165 8.43735C6.34781 8.1956 4.89909 7.84107 3.75247 7.91781C3.70469 7.92101 3.66014 7.94306 3.62862 7.97911C3.5971 8.01516 3.58119 8.06225 3.58439 8.11003C3.58759 8.1578 3.60964 8.20235 3.64569 8.23387C3.68174 8.26539 3.72883 8.2813 3.77661 8.2781L3.77715 8.27738ZM8.39318 13.9534C8.43436 13.9777 8.48351 13.9846 8.52981 13.9727C8.57611 13.9607 8.61577 13.9309 8.64006 13.8897C8.66436 13.8485 8.6713 13.7994 8.65936 13.7531C8.64741 13.7068 8.61757 13.6671 8.57638 13.6428C7.61674 13.1267 6.58151 12.7655 5.50906 12.5728C5.48547 12.5673 5.46103 12.5666 5.43718 12.5708C5.41332 12.5749 5.39056 12.5839 5.37024 12.5971C5.34993 12.6102 5.33247 12.6274 5.31893 12.6474C5.30538 12.6675 5.29602 12.6901 5.29141 12.7139C5.28679 12.7376 5.28701 12.7621 5.29206 12.7858C5.29711 12.8095 5.30688 12.8319 5.32079 12.8517C5.3347 12.8715 5.35247 12.8883 5.37302 12.9011C5.39358 12.9139 5.4165 12.9225 5.44042 12.9262C6.47193 13.1136 7.46806 13.4601 8.39318 13.9534ZM8.64574 15.2567C7.73114 14.7197 6.42509 14.3447 5.50798 14.173C5.48471 14.1686 5.46082 14.1689 5.43766 14.1738C5.4145 14.1787 5.39254 14.1881 5.37302 14.2015C5.3535 14.2149 5.3368 14.232 5.32389 14.2518C5.31097 14.2716 5.30209 14.2938 5.29775 14.3171C5.29341 14.3404 5.29369 14.3643 5.29859 14.3874C5.30348 14.4106 5.31288 14.4325 5.32627 14.4521C5.33965 14.4716 5.35675 14.4883 5.37658 14.5012C5.39641 14.5141 5.4186 14.523 5.44186 14.5273C6.32908 14.6934 7.58883 15.0539 8.46343 15.5675C8.50464 15.5917 8.55377 15.5985 8.60002 15.5865C8.64627 15.5745 8.68585 15.5446 8.71005 15.5033C8.73425 15.4621 8.74109 15.413 8.72906 15.3668C8.71703 15.3205 8.68713 15.2809 8.64592 15.2567H8.64574ZM3.86037 14.4414C4.12506 14.4931 4.39256 14.5292 4.66148 14.5495C4.67463 14.5506 4.68796 14.5511 4.70111 14.5511C4.80852 14.5528 4.91286 14.5153 4.99457 14.4455C5.03596 14.4087 5.06955 14.364 5.09334 14.3139C5.11714 14.2639 5.13065 14.2096 5.1331 14.1542C5.15003 13.8691 5.14949 13.403 5.14931 12.9921C5.14931 12.8194 5.14931 12.6612 5.15021 12.5398C5.15183 12.4479 5.12324 12.358 5.06883 12.2839C5.01442 12.2098 4.93719 12.1556 4.84901 12.1296C4.55326 12.0519 4.25015 12.0055 3.94468 11.9912C3.89322 11.9878 3.84158 11.9947 3.79282 12.0115C3.74406 12.0284 3.69917 12.0548 3.66077 12.0892C3.57377 12.1681 3.52145 12.2782 3.51522 12.3955C3.48928 12.8278 3.47631 13.6376 3.49846 14.0348C3.50306 14.1338 3.54152 14.2282 3.6074 14.3022C3.67328 14.3762 3.76259 14.4254 3.86037 14.4414ZM3.87461 12.4167C3.87513 12.3951 3.88382 12.3745 3.89893 12.3591C3.90504 12.3534 3.91312 12.3504 3.92144 12.3506C4.20132 12.3636 4.47906 12.4058 4.75011 12.4767C4.76231 12.481 4.77279 12.4891 4.77995 12.4999C4.7871 12.5107 4.79054 12.5235 4.78974 12.5364C4.78848 12.6589 4.78866 12.8185 4.78884 12.9928C4.78884 13.3785 4.78884 13.859 4.77335 14.1335C4.77387 14.1411 4.7727 14.1487 4.76993 14.1558C4.76715 14.1628 4.76285 14.1692 4.75732 14.1744C4.73748 14.1887 4.7128 14.1945 4.68868 14.1906C4.43352 14.1714 4.17973 14.1371 3.92865 14.0878C3.86128 14.0746 3.85875 14.0294 3.85803 14.0145C3.83714 13.6354 3.85011 12.8305 3.87461 12.4167ZM9.97917 5.53522C9.94121 5.53518 9.90409 5.54641 9.87251 5.56748C9.84094 5.58854 9.81632 5.61851 9.80177 5.65357C9.78723 5.68863 9.78342 5.72722 9.79081 5.76446C9.79821 5.80169 9.81649 5.83589 9.84333 5.86273C9.87017 5.88958 9.90437 5.90785 9.9416 5.91525C9.97884 5.92265 10.0174 5.91883 10.0525 5.90429C10.0876 5.88974 10.1175 5.86513 10.1386 5.83355C10.1597 5.80197 10.1709 5.76485 10.1708 5.72689C10.1708 5.67606 10.1507 5.6273 10.1147 5.59136C10.0788 5.55541 10.03 5.53522 9.97917 5.53522ZM8.96189 5.17223C9.48053 5.17223 9.77146 4.91876 9.98728 4.51272C10.2063 4.91966 10.496 5.17187 10.9961 5.17241H10.9973C11.141 5.17447 11.2835 5.14744 11.4164 5.09295C11.5492 5.03846 11.6697 4.95764 11.7705 4.85535C11.9669 4.64923 12.0749 4.37442 12.0712 4.08974C12.0793 3.9532 12.0584 3.81648 12.01 3.68856C11.9616 3.56064 11.8867 3.44439 11.7902 3.34744C11.6937 3.2505 11.5778 3.17503 11.4501 3.126C11.3224 3.07696 11.1858 3.05546 11.0492 3.06291H11.048C10.8335 3.05892 10.6219 3.11295 10.4356 3.21931C10.2493 3.32567 10.0952 3.48039 9.98962 3.66712C9.88315 3.47669 9.72605 3.31945 9.53573 3.21281C9.3454 3.10617 9.12927 3.05429 8.91127 3.06291H8.91001C8.77342 3.05547 8.63681 3.07696 8.50911 3.126C8.38141 3.17503 8.26551 3.25049 8.169 3.34744C8.0725 3.44438 7.99757 3.56063 7.94912 3.68855C7.90067 3.81647 7.8798 3.95319 7.88787 4.08974V4.09352C7.88487 4.37679 7.99262 4.65003 8.18817 4.85499C8.28897 4.95723 8.40942 5.03802 8.54227 5.09248C8.67512 5.14693 8.81761 5.17394 8.96117 5.17187L8.96189 5.17223ZM10.2146 4.00129C10.4061 3.60803 10.674 3.42338 11.0476 3.42302H11.0487C11.1383 3.41528 11.2286 3.42738 11.313 3.45847C11.3975 3.48956 11.474 3.53887 11.5372 3.6029C11.6005 3.66693 11.6488 3.74411 11.6788 3.82893C11.7088 3.91376 11.7198 4.00416 11.7109 4.0937C11.714 4.28332 11.6429 4.46663 11.5127 4.60459C11.4457 4.67253 11.3655 4.72601 11.277 4.7617C11.1885 4.7974 11.0936 4.81456 10.9982 4.81212C10.638 4.81212 10.4279 4.64098 10.2143 4.15099C10.2037 4.12735 10.1982 4.10173 10.1983 4.07583C10.1984 4.04993 10.2039 4.02433 10.2146 4.00075V4.00129ZM8.24762 4.09406V4.09064C8.239 4.00134 8.25015 3.91124 8.28027 3.82673C8.31038 3.74222 8.35874 3.66538 8.42189 3.60166C8.48504 3.53794 8.56145 3.4889 8.64568 3.45803C8.72992 3.42715 8.81992 3.4152 8.90929 3.42302H8.91037C9.09521 3.41654 9.2773 3.46922 9.43013 3.57339C9.58296 3.67756 9.69856 3.82777 9.76011 4.00219C9.77048 4.02513 9.77598 4.04998 9.77626 4.07516C9.77654 4.10033 9.77159 4.12529 9.76174 4.14846C9.54988 4.64747 9.34452 4.81212 8.96153 4.81248H8.96063C8.86528 4.81493 8.77044 4.79779 8.68198 4.76213C8.59352 4.72646 8.51331 4.67303 8.44632 4.60513C8.31587 4.46705 8.24457 4.28345 8.24762 4.09352V4.09406Z"/>
</mask>
<path d="M13.8777 8.6764C13.8928 8.67643 13.9078 8.67449 13.9224 8.67064C14.6355 8.47834 15.3709 8.38047 16.1095 8.37952C16.1334 8.38124 16.1573 8.378 16.1799 8.37002C16.2024 8.36204 16.2231 8.34949 16.2405 8.33315C16.258 8.31681 16.2719 8.29704 16.2814 8.27507C16.2909 8.25311 16.2957 8.22942 16.2956 8.2055C16.2971 8.15778 16.2797 8.11139 16.2471 8.07653C16.2144 8.04167 16.1693 8.02119 16.1216 8.01959C15.3489 8.01781 14.5795 8.11941 13.8337 8.3217C13.7912 8.33254 13.7541 8.35852 13.7294 8.39477C13.7047 8.43103 13.694 8.47505 13.6995 8.51859C13.7049 8.56213 13.7261 8.60219 13.7589 8.63124C13.7918 8.6603 13.8342 8.67636 13.878 8.6764H13.8777ZM13.8777 9.72791C13.8928 9.72793 13.9078 9.72599 13.9224 9.72214C14.6355 9.52963 15.3708 9.43175 16.1095 9.43103C16.1334 9.4328 16.1573 9.4296 16.1799 9.42164C16.2025 9.41368 16.2232 9.40113 16.2407 9.38478C16.2581 9.36843 16.272 9.34864 16.2815 9.32665C16.291 9.30466 16.2957 9.28094 16.2956 9.25701C16.2971 9.20928 16.2797 9.1629 16.2471 9.12804C16.2144 9.09318 16.1693 9.0727 16.1216 9.0711C15.3489 9.06917 14.5794 9.17078 13.8337 9.3732C13.7912 9.38405 13.7541 9.41004 13.7294 9.44632C13.7047 9.48259 13.694 9.52663 13.6995 9.57019C13.705 9.61374 13.7261 9.65379 13.759 9.68283C13.7919 9.71188 13.8343 9.7279 13.8782 9.72791H13.8777ZM16.118 10.812C14.4848 10.7877 12.481 11.2899 11.2566 12.0298C11.2172 12.0552 11.1892 12.0949 11.1786 12.1406C11.1681 12.1863 11.1757 12.2343 11.2 12.2744C11.2242 12.3145 11.2632 12.3436 11.3085 12.3555C11.3538 12.3674 11.402 12.3611 11.4428 12.338C12.6152 11.6299 14.535 11.1491 16.1131 11.1723H16.1156C16.1634 11.1726 16.2093 11.1539 16.2433 11.1204C16.2773 11.0868 16.2966 11.0411 16.2969 10.9933C16.2972 10.9456 16.2786 10.8996 16.245 10.8656C16.2114 10.8316 16.1657 10.8123 16.118 10.812ZM16.1425 12.4445C15.1983 12.3004 12.7754 12.8345 11.3983 13.6426C11.3575 13.667 11.328 13.7065 11.3162 13.7526C11.3044 13.7986 11.3112 13.8475 11.3353 13.8885C11.3594 13.9295 11.3987 13.9593 11.4446 13.9715C11.4906 13.9836 11.5395 13.9771 11.5807 13.9534C12.9559 13.1462 15.2916 12.6776 16.0877 12.8005C16.1115 12.805 16.1359 12.8046 16.1596 12.7995C16.1833 12.7943 16.2056 12.7845 16.2254 12.7705C16.2452 12.7565 16.2619 12.7386 16.2746 12.718C16.2873 12.6974 16.2957 12.6744 16.2994 12.6505C16.303 12.6266 16.3018 12.6021 16.2958 12.5787C16.2897 12.5552 16.2791 12.5332 16.2643 12.514C16.2496 12.4948 16.2312 12.4787 16.2101 12.4668C16.1891 12.4548 16.1658 12.4472 16.1417 12.4445H16.1425ZM16.0727 14.0586C15.1279 13.9145 12.7057 14.4486 11.3288 15.2567C11.288 15.2811 11.2585 15.3206 11.2467 15.3667C11.2348 15.4127 11.2417 15.4616 11.2658 15.5026C11.2898 15.5436 11.3291 15.5734 11.3751 15.5856C11.421 15.5977 11.4699 15.5912 11.5111 15.5675C12.8863 14.7601 15.2221 14.2922 16.0182 14.4146C16.042 14.4191 16.0664 14.4187 16.0901 14.4136C16.1137 14.4084 16.1361 14.3986 16.1559 14.3846C16.1756 14.3706 16.1924 14.3527 16.2051 14.3321C16.2178 14.3115 16.2262 14.2885 16.2298 14.2646C16.2335 14.2407 16.2323 14.2162 16.2262 14.1928C16.2202 14.1693 16.2095 14.1473 16.1948 14.1281C16.1801 14.1089 16.1617 14.0928 16.1406 14.0809C16.1195 14.0689 16.0963 14.0613 16.0722 14.0586H16.0727ZM8.72194 12.0323C7.60216 11.3139 5.34423 10.8061 3.69266 10.6756C3.66907 10.6738 3.64535 10.6766 3.62285 10.6839C3.60035 10.6912 3.57951 10.7029 3.56152 10.7183C3.54353 10.7336 3.52874 10.7524 3.518 10.7735C3.50726 10.7945 3.50077 10.8175 3.49891 10.8411C3.49706 10.8647 3.49986 10.8884 3.50717 10.9109C3.51448 10.9334 3.52616 10.9543 3.54152 10.9723C3.55688 10.9902 3.57564 11.005 3.59672 11.0158C3.6178 11.0265 3.64079 11.033 3.66438 11.0349C5.5078 11.1804 7.59838 11.7396 8.52738 12.3355C8.54729 12.3487 8.56963 12.3579 8.59311 12.3624C8.61659 12.3669 8.64073 12.3668 8.66413 12.3618C8.68753 12.3569 8.70972 12.3474 8.72941 12.3339C8.7491 12.3203 8.76589 12.3029 8.7788 12.2828C8.79171 12.2627 8.80049 12.2402 8.80462 12.2167C8.80875 12.1931 8.80816 12.169 8.80286 12.1457C8.79757 12.1223 8.78769 12.1003 8.7738 12.0809C8.7599 12.0614 8.74228 12.0449 8.72194 12.0323ZM3.67879 9.56019H3.68239C5.38011 9.56436 7.04916 9.99817 8.53405 10.8212C8.57535 10.8452 8.62451 10.8519 8.67071 10.8397C8.71691 10.8275 8.75637 10.7974 8.7804 10.7561C8.80443 10.7148 8.81107 10.6656 8.79886 10.6194C8.78664 10.5732 8.75658 10.5338 8.71527 10.5097C7.17504 9.65523 5.4436 9.20444 3.68221 9.19936C3.63443 9.19891 3.58843 9.21745 3.55433 9.25092C3.52022 9.28438 3.50081 9.33002 3.50036 9.3778C3.4999 9.42557 3.51845 9.47157 3.55191 9.50568C3.58537 9.53978 3.63101 9.5592 3.67879 9.55965V9.56019ZM3.77715 8.27738C4.8092 8.20821 6.20442 8.52652 6.86555 8.77458C6.88791 8.78391 6.91191 8.78863 6.93614 8.78847C6.96036 8.78831 6.98431 8.78326 7.00653 8.77363C7.02876 8.764 7.04882 8.74998 7.06551 8.73242C7.0822 8.71486 7.09517 8.69412 7.10366 8.67142C7.11214 8.64873 7.11596 8.62457 7.11489 8.60036C7.11382 8.57616 7.10788 8.55243 7.09742 8.53057C7.08697 8.50872 7.07221 8.4892 7.05403 8.47318C7.03586 8.45717 7.01464 8.44498 6.99165 8.43735C6.34781 8.1956 4.89909 7.84107 3.75247 7.91781C3.70469 7.92101 3.66014 7.94306 3.62862 7.97911C3.5971 8.01516 3.58119 8.06225 3.58439 8.11003C3.58759 8.1578 3.60964 8.20235 3.64569 8.23387C3.68174 8.26539 3.72883 8.2813 3.77661 8.2781L3.77715 8.27738ZM8.39318 13.9534C8.43436 13.9777 8.48351 13.9846 8.52981 13.9727C8.57611 13.9607 8.61577 13.9309 8.64006 13.8897C8.66436 13.8485 8.6713 13.7994 8.65936 13.7531C8.64741 13.7068 8.61757 13.6671 8.57638 13.6428C7.61674 13.1267 6.58151 12.7655 5.50906 12.5728C5.48547 12.5673 5.46103 12.5666 5.43718 12.5708C5.41332 12.5749 5.39056 12.5839 5.37024 12.5971C5.34993 12.6102 5.33247 12.6274 5.31893 12.6474C5.30538 12.6675 5.29602 12.6901 5.29141 12.7139C5.28679 12.7376 5.28701 12.7621 5.29206 12.7858C5.29711 12.8095 5.30688 12.8319 5.32079 12.8517C5.3347 12.8715 5.35247 12.8883 5.37302 12.9011C5.39358 12.9139 5.4165 12.9225 5.44042 12.9262C6.47193 13.1136 7.46806 13.4601 8.39318 13.9534ZM8.64574 15.2567C7.73114 14.7197 6.42509 14.3447 5.50798 14.173C5.48471 14.1686 5.46082 14.1689 5.43766 14.1738C5.4145 14.1787 5.39254 14.1881 5.37302 14.2015C5.3535 14.2149 5.3368 14.232 5.32389 14.2518C5.31097 14.2716 5.30209 14.2938 5.29775 14.3171C5.29341 14.3404 5.29369 14.3643 5.29859 14.3874C5.30348 14.4106 5.31288 14.4325 5.32627 14.4521C5.33965 14.4716 5.35675 14.4883 5.37658 14.5012C5.39641 14.5141 5.4186 14.523 5.44186 14.5273C6.32908 14.6934 7.58883 15.0539 8.46343 15.5675C8.50464 15.5917 8.55377 15.5985 8.60002 15.5865C8.64627 15.5745 8.68585 15.5446 8.71005 15.5033C8.73425 15.4621 8.74109 15.413 8.72906 15.3668C8.71703 15.3205 8.68713 15.2809 8.64592 15.2567H8.64574ZM3.86037 14.4414C4.12506 14.4931 4.39256 14.5292 4.66148 14.5495C4.67463 14.5506 4.68796 14.5511 4.70111 14.5511C4.80852 14.5528 4.91286 14.5153 4.99457 14.4455C5.03596 14.4087 5.06955 14.364 5.09334 14.3139C5.11714 14.2639 5.13065 14.2096 5.1331 14.1542C5.15003 13.8691 5.14949 13.403 5.14931 12.9921C5.14931 12.8194 5.14931 12.6612 5.15021 12.5398C5.15183 12.4479 5.12324 12.358 5.06883 12.2839C5.01442 12.2098 4.93719 12.1556 4.84901 12.1296C4.55326 12.0519 4.25015 12.0055 3.94468 11.9912C3.89322 11.9878 3.84158 11.9947 3.79282 12.0115C3.74406 12.0284 3.69917 12.0548 3.66077 12.0892C3.57377 12.1681 3.52145 12.2782 3.51522 12.3955C3.48928 12.8278 3.47631 13.6376 3.49846 14.0348C3.50306 14.1338 3.54152 14.2282 3.6074 14.3022C3.67328 14.3762 3.76259 14.4254 3.86037 14.4414ZM3.87461 12.4167C3.87513 12.3951 3.88382 12.3745 3.89893 12.3591C3.90504 12.3534 3.91312 12.3504 3.92144 12.3506C4.20132 12.3636 4.47906 12.4058 4.75011 12.4767C4.76231 12.481 4.77279 12.4891 4.77995 12.4999C4.7871 12.5107 4.79054 12.5235 4.78974 12.5364C4.78848 12.6589 4.78866 12.8185 4.78884 12.9928C4.78884 13.3785 4.78884 13.859 4.77335 14.1335C4.77387 14.1411 4.7727 14.1487 4.76993 14.1558C4.76715 14.1628 4.76285 14.1692 4.75732 14.1744C4.73748 14.1887 4.7128 14.1945 4.68868 14.1906C4.43352 14.1714 4.17973 14.1371 3.92865 14.0878C3.86128 14.0746 3.85875 14.0294 3.85803 14.0145C3.83714 13.6354 3.85011 12.8305 3.87461 12.4167ZM9.97917 5.53522C9.94121 5.53518 9.90409 5.54641 9.87251 5.56748C9.84094 5.58854 9.81632 5.61851 9.80177 5.65357C9.78723 5.68863 9.78342 5.72722 9.79081 5.76446C9.79821 5.80169 9.81649 5.83589 9.84333 5.86273C9.87017 5.88958 9.90437 5.90785 9.9416 5.91525C9.97884 5.92265 10.0174 5.91883 10.0525 5.90429C10.0876 5.88974 10.1175 5.86513 10.1386 5.83355C10.1597 5.80197 10.1709 5.76485 10.1708 5.72689C10.1708 5.67606 10.1507 5.6273 10.1147 5.59136C10.0788 5.55541 10.03 5.53522 9.97917 5.53522ZM8.96189 5.17223C9.48053 5.17223 9.77146 4.91876 9.98728 4.51272C10.2063 4.91966 10.496 5.17187 10.9961 5.17241H10.9973C11.141 5.17447 11.2835 5.14744 11.4164 5.09295C11.5492 5.03846 11.6697 4.95764 11.7705 4.85535C11.9669 4.64923 12.0749 4.37442 12.0712 4.08974C12.0793 3.9532 12.0584 3.81648 12.01 3.68856C11.9616 3.56064 11.8867 3.44439 11.7902 3.34744C11.6937 3.2505 11.5778 3.17503 11.4501 3.126C11.3224 3.07696 11.1858 3.05546 11.0492 3.06291H11.048C10.8335 3.05892 10.6219 3.11295 10.4356 3.21931C10.2493 3.32567 10.0952 3.48039 9.98962 3.66712C9.88315 3.47669 9.72605 3.31945 9.53573 3.21281C9.3454 3.10617 9.12927 3.05429 8.91127 3.06291H8.91001C8.77342 3.05547 8.63681 3.07696 8.50911 3.126C8.38141 3.17503 8.26551 3.25049 8.169 3.34744C8.0725 3.44438 7.99757 3.56063 7.94912 3.68855C7.90067 3.81647 7.8798 3.95319 7.88787 4.08974V4.09352C7.88487 4.37679 7.99262 4.65003 8.18817 4.85499C8.28897 4.95723 8.40942 5.03802 8.54227 5.09248C8.67512 5.14693 8.81761 5.17394 8.96117 5.17187L8.96189 5.17223ZM10.2146 4.00129C10.4061 3.60803 10.674 3.42338 11.0476 3.42302H11.0487C11.1383 3.41528 11.2286 3.42738 11.313 3.45847C11.3975 3.48956 11.474 3.53887 11.5372 3.6029C11.6005 3.66693 11.6488 3.74411 11.6788 3.82893C11.7088 3.91376 11.7198 4.00416 11.7109 4.0937C11.714 4.28332 11.6429 4.46663 11.5127 4.60459C11.4457 4.67253 11.3655 4.72601 11.277 4.7617C11.1885 4.7974 11.0936 4.81456 10.9982 4.81212C10.638 4.81212 10.4279 4.64098 10.2143 4.15099C10.2037 4.12735 10.1982 4.10173 10.1983 4.07583C10.1984 4.04993 10.2039 4.02433 10.2146 4.00075V4.00129ZM8.24762 4.09406V4.09064C8.239 4.00134 8.25015 3.91124 8.28027 3.82673C8.31038 3.74222 8.35874 3.66538 8.42189 3.60166C8.48504 3.53794 8.56145 3.4889 8.64568 3.45803C8.72992 3.42715 8.81992 3.4152 8.90929 3.42302H8.91037C9.09521 3.41654 9.2773 3.46922 9.43013 3.57339C9.58296 3.67756 9.69856 3.82777 9.76011 4.00219C9.77048 4.02513 9.77598 4.04998 9.77626 4.07516C9.77654 4.10033 9.77159 4.12529 9.76174 4.14846C9.54988 4.64747 9.34452 4.81212 8.96153 4.81248H8.96063C8.86528 4.81493 8.77044 4.79779 8.68198 4.76213C8.59352 4.72646 8.51331 4.67303 8.44632 4.60513C8.31587 4.46705 8.24457 4.28345 8.24762 4.09352V4.09406Z" fill="#F0792E"/>
<path d="M13.8777 8.6764C13.8928 8.67643 13.9078 8.67449 13.9224 8.67064C14.6355 8.47834 15.3709 8.38047 16.1095 8.37952C16.1334 8.38124 16.1573 8.378 16.1799 8.37002C16.2024 8.36204 16.2231 8.34949 16.2405 8.33315C16.258 8.31681 16.2719 8.29704 16.2814 8.27507C16.2909 8.25311 16.2957 8.22942 16.2956 8.2055C16.2971 8.15778 16.2797 8.11139 16.2471 8.07653C16.2144 8.04167 16.1693 8.02119 16.1216 8.01959C15.3489 8.01781 14.5795 8.11941 13.8337 8.3217C13.7912 8.33254 13.7541 8.35852 13.7294 8.39477C13.7047 8.43103 13.694 8.47505 13.6995 8.51859C13.7049 8.56213 13.7261 8.60219 13.7589 8.63124C13.7918 8.6603 13.8342 8.67636 13.878 8.6764H13.8777ZM13.8777 9.72791C13.8928 9.72793 13.9078 9.72599 13.9224 9.72214C14.6355 9.52963 15.3708 9.43175 16.1095 9.43103C16.1334 9.4328 16.1573 9.4296 16.1799 9.42164C16.2025 9.41368 16.2232 9.40113 16.2407 9.38478C16.2581 9.36843 16.272 9.34864 16.2815 9.32665C16.291 9.30466 16.2957 9.28094 16.2956 9.25701C16.2971 9.20928 16.2797 9.1629 16.2471 9.12804C16.2144 9.09318 16.1693 9.0727 16.1216 9.0711C15.3489 9.06917 14.5794 9.17078 13.8337 9.3732C13.7912 9.38405 13.7541 9.41004 13.7294 9.44632C13.7047 9.48259 13.694 9.52663 13.6995 9.57019C13.705 9.61374 13.7261 9.65379 13.759 9.68283C13.7919 9.71188 13.8343 9.7279 13.8782 9.72791H13.8777ZM16.118 10.812C14.4848 10.7877 12.481 11.2899 11.2566 12.0298C11.2172 12.0552 11.1892 12.0949 11.1786 12.1406C11.1681 12.1863 11.1757 12.2343 11.2 12.2744C11.2242 12.3145 11.2632 12.3436 11.3085 12.3555C11.3538 12.3674 11.402 12.3611 11.4428 12.338C12.6152 11.6299 14.535 11.1491 16.1131 11.1723H16.1156C16.1634 11.1726 16.2093 11.1539 16.2433 11.1204C16.2773 11.0868 16.2966 11.0411 16.2969 10.9933C16.2972 10.9456 16.2786 10.8996 16.245 10.8656C16.2114 10.8316 16.1657 10.8123 16.118 10.812ZM16.1425 12.4445C15.1983 12.3004 12.7754 12.8345 11.3983 13.6426C11.3575 13.667 11.328 13.7065 11.3162 13.7526C11.3044 13.7986 11.3112 13.8475 11.3353 13.8885C11.3594 13.9295 11.3987 13.9593 11.4446 13.9715C11.4906 13.9836 11.5395 13.9771 11.5807 13.9534C12.9559 13.1462 15.2916 12.6776 16.0877 12.8005C16.1115 12.805 16.1359 12.8046 16.1596 12.7995C16.1833 12.7943 16.2056 12.7845 16.2254 12.7705C16.2452 12.7565 16.2619 12.7386 16.2746 12.718C16.2873 12.6974 16.2957 12.6744 16.2994 12.6505C16.303 12.6266 16.3018 12.6021 16.2958 12.5787C16.2897 12.5552 16.2791 12.5332 16.2643 12.514C16.2496 12.4948 16.2312 12.4787 16.2101 12.4668C16.1891 12.4548 16.1658 12.4472 16.1417 12.4445H16.1425ZM16.0727 14.0586C15.1279 13.9145 12.7057 14.4486 11.3288 15.2567C11.288 15.2811 11.2585 15.3206 11.2467 15.3667C11.2348 15.4127 11.2417 15.4616 11.2658 15.5026C11.2898 15.5436 11.3291 15.5734 11.3751 15.5856C11.421 15.5977 11.4699 15.5912 11.5111 15.5675C12.8863 14.7601 15.2221 14.2922 16.0182 14.4146C16.042 14.4191 16.0664 14.4187 16.0901 14.4136C16.1137 14.4084 16.1361 14.3986 16.1559 14.3846C16.1756 14.3706 16.1924 14.3527 16.2051 14.3321C16.2178 14.3115 16.2262 14.2885 16.2298 14.2646C16.2335 14.2407 16.2323 14.2162 16.2262 14.1928C16.2202 14.1693 16.2095 14.1473 16.1948 14.1281C16.1801 14.1089 16.1617 14.0928 16.1406 14.0809C16.1195 14.0689 16.0963 14.0613 16.0722 14.0586H16.0727ZM8.72194 12.0323C7.60216 11.3139 5.34423 10.8061 3.69266 10.6756C3.66907 10.6738 3.64535 10.6766 3.62285 10.6839C3.60035 10.6912 3.57951 10.7029 3.56152 10.7183C3.54353 10.7336 3.52874 10.7524 3.518 10.7735C3.50726 10.7945 3.50077 10.8175 3.49891 10.8411C3.49706 10.8647 3.49986 10.8884 3.50717 10.9109C3.51448 10.9334 3.52616 10.9543 3.54152 10.9723C3.55688 10.9902 3.57564 11.005 3.59672 11.0158C3.6178 11.0265 3.64079 11.033 3.66438 11.0349C5.5078 11.1804 7.59838 11.7396 8.52738 12.3355C8.54729 12.3487 8.56963 12.3579 8.59311 12.3624C8.61659 12.3669 8.64073 12.3668 8.66413 12.3618C8.68753 12.3569 8.70972 12.3474 8.72941 12.3339C8.7491 12.3203 8.76589 12.3029 8.7788 12.2828C8.79171 12.2627 8.80049 12.2402 8.80462 12.2167C8.80875 12.1931 8.80816 12.169 8.80286 12.1457C8.79757 12.1223 8.78769 12.1003 8.7738 12.0809C8.7599 12.0614 8.74228 12.0449 8.72194 12.0323ZM3.67879 9.56019H3.68239C5.38011 9.56436 7.04916 9.99817 8.53405 10.8212C8.57535 10.8452 8.62451 10.8519 8.67071 10.8397C8.71691 10.8275 8.75637 10.7974 8.7804 10.7561C8.80443 10.7148 8.81107 10.6656 8.79886 10.6194C8.78664 10.5732 8.75658 10.5338 8.71527 10.5097C7.17504 9.65523 5.4436 9.20444 3.68221 9.19936C3.63443 9.19891 3.58843 9.21745 3.55433 9.25092C3.52022 9.28438 3.50081 9.33002 3.50036 9.3778C3.4999 9.42557 3.51845 9.47157 3.55191 9.50568C3.58537 9.53978 3.63101 9.5592 3.67879 9.55965V9.56019ZM3.77715 8.27738C4.8092 8.20821 6.20442 8.52652 6.86555 8.77458C6.88791 8.78391 6.91191 8.78863 6.93614 8.78847C6.96036 8.78831 6.98431 8.78326 7.00653 8.77363C7.02876 8.764 7.04882 8.74998 7.06551 8.73242C7.0822 8.71486 7.09517 8.69412 7.10366 8.67142C7.11214 8.64873 7.11596 8.62457 7.11489 8.60036C7.11382 8.57616 7.10788 8.55243 7.09742 8.53057C7.08697 8.50872 7.07221 8.4892 7.05403 8.47318C7.03586 8.45717 7.01464 8.44498 6.99165 8.43735C6.34781 8.1956 4.89909 7.84107 3.75247 7.91781C3.70469 7.92101 3.66014 7.94306 3.62862 7.97911C3.5971 8.01516 3.58119 8.06225 3.58439 8.11003C3.58759 8.1578 3.60964 8.20235 3.64569 8.23387C3.68174 8.26539 3.72883 8.2813 3.77661 8.2781L3.77715 8.27738ZM8.39318 13.9534C8.43436 13.9777 8.48351 13.9846 8.52981 13.9727C8.57611 13.9607 8.61577 13.9309 8.64006 13.8897C8.66436 13.8485 8.6713 13.7994 8.65936 13.7531C8.64741 13.7068 8.61757 13.6671 8.57638 13.6428C7.61674 13.1267 6.58151 12.7655 5.50906 12.5728C5.48547 12.5673 5.46103 12.5666 5.43718 12.5708C5.41332 12.5749 5.39056 12.5839 5.37024 12.5971C5.34993 12.6102 5.33247 12.6274 5.31893 12.6474C5.30538 12.6675 5.29602 12.6901 5.29141 12.7139C5.28679 12.7376 5.28701 12.7621 5.29206 12.7858C5.29711 12.8095 5.30688 12.8319 5.32079 12.8517C5.3347 12.8715 5.35247 12.8883 5.37302 12.9011C5.39358 12.9139 5.4165 12.9225 5.44042 12.9262C6.47193 13.1136 7.46806 13.4601 8.39318 13.9534ZM8.64574 15.2567C7.73114 14.7197 6.42509 14.3447 5.50798 14.173C5.48471 14.1686 5.46082 14.1689 5.43766 14.1738C5.4145 14.1787 5.39254 14.1881 5.37302 14.2015C5.3535 14.2149 5.3368 14.232 5.32389 14.2518C5.31097 14.2716 5.30209 14.2938 5.29775 14.3171C5.29341 14.3404 5.29369 14.3643 5.29859 14.3874C5.30348 14.4106 5.31288 14.4325 5.32627 14.4521C5.33965 14.4716 5.35675 14.4883 5.37658 14.5012C5.39641 14.5141 5.4186 14.523 5.44186 14.5273C6.32908 14.6934 7.58883 15.0539 8.46343 15.5675C8.50464 15.5917 8.55377 15.5985 8.60002 15.5865C8.64627 15.5745 8.68585 15.5446 8.71005 15.5033C8.73425 15.4621 8.74109 15.413 8.72906 15.3668C8.71703 15.3205 8.68713 15.2809 8.64592 15.2567H8.64574ZM3.86037 14.4414C4.12506 14.4931 4.39256 14.5292 4.66148 14.5495C4.67463 14.5506 4.68796 14.5511 4.70111 14.5511C4.80852 14.5528 4.91286 14.5153 4.99457 14.4455C5.03596 14.4087 5.06955 14.364 5.09334 14.3139C5.11714 14.2639 5.13065 14.2096 5.1331 14.1542C5.15003 13.8691 5.14949 13.403 5.14931 12.9921C5.14931 12.8194 5.14931 12.6612 5.15021 12.5398C5.15183 12.4479 5.12324 12.358 5.06883 12.2839C5.01442 12.2098 4.93719 12.1556 4.84901 12.1296C4.55326 12.0519 4.25015 12.0055 3.94468 11.9912C3.89322 11.9878 3.84158 11.9947 3.79282 12.0115C3.74406 12.0284 3.69917 12.0548 3.66077 12.0892C3.57377 12.1681 3.52145 12.2782 3.51522 12.3955C3.48928 12.8278 3.47631 13.6376 3.49846 14.0348C3.50306 14.1338 3.54152 14.2282 3.6074 14.3022C3.67328 14.3762 3.76259 14.4254 3.86037 14.4414ZM3.87461 12.4167C3.87513 12.3951 3.88382 12.3745 3.89893 12.3591C3.90504 12.3534 3.91312 12.3504 3.92144 12.3506C4.20132 12.3636 4.47906 12.4058 4.75011 12.4767C4.76231 12.481 4.77279 12.4891 4.77995 12.4999C4.7871 12.5107 4.79054 12.5235 4.78974 12.5364C4.78848 12.6589 4.78866 12.8185 4.78884 12.9928C4.78884 13.3785 4.78884 13.859 4.77335 14.1335C4.77387 14.1411 4.7727 14.1487 4.76993 14.1558C4.76715 14.1628 4.76285 14.1692 4.75732 14.1744C4.73748 14.1887 4.7128 14.1945 4.68868 14.1906C4.43352 14.1714 4.17973 14.1371 3.92865 14.0878C3.86128 14.0746 3.85875 14.0294 3.85803 14.0145C3.83714 13.6354 3.85011 12.8305 3.87461 12.4167ZM9.97917 5.53522C9.94121 5.53518 9.90409 5.54641 9.87251 5.56748C9.84094 5.58854 9.81632 5.61851 9.80177 5.65357C9.78723 5.68863 9.78342 5.72722 9.79081 5.76446C9.79821 5.80169 9.81649 5.83589 9.84333 5.86273C9.87017 5.88958 9.90437 5.90785 9.9416 5.91525C9.97884 5.92265 10.0174 5.91883 10.0525 5.90429C10.0876 5.88974 10.1175 5.86513 10.1386 5.83355C10.1597 5.80197 10.1709 5.76485 10.1708 5.72689C10.1708 5.67606 10.1507 5.6273 10.1147 5.59136C10.0788 5.55541 10.03 5.53522 9.97917 5.53522ZM8.96189 5.17223C9.48053 5.17223 9.77146 4.91876 9.98728 4.51272C10.2063 4.91966 10.496 5.17187 10.9961 5.17241H10.9973C11.141 5.17447 11.2835 5.14744 11.4164 5.09295C11.5492 5.03846 11.6697 4.95764 11.7705 4.85535C11.9669 4.64923 12.0749 4.37442 12.0712 4.08974C12.0793 3.9532 12.0584 3.81648 12.01 3.68856C11.9616 3.56064 11.8867 3.44439 11.7902 3.34744C11.6937 3.2505 11.5778 3.17503 11.4501 3.126C11.3224 3.07696 11.1858 3.05546 11.0492 3.06291H11.048C10.8335 3.05892 10.6219 3.11295 10.4356 3.21931C10.2493 3.32567 10.0952 3.48039 9.98962 3.66712C9.88315 3.47669 9.72605 3.31945 9.53573 3.21281C9.3454 3.10617 9.12927 3.05429 8.91127 3.06291H8.91001C8.77342 3.05547 8.63681 3.07696 8.50911 3.126C8.38141 3.17503 8.26551 3.25049 8.169 3.34744C8.0725 3.44438 7.99757 3.56063 7.94912 3.68855C7.90067 3.81647 7.8798 3.95319 7.88787 4.08974V4.09352C7.88487 4.37679 7.99262 4.65003 8.18817 4.85499C8.28897 4.95723 8.40942 5.03802 8.54227 5.09248C8.67512 5.14693 8.81761 5.17394 8.96117 5.17187L8.96189 5.17223ZM10.2146 4.00129C10.4061 3.60803 10.674 3.42338 11.0476 3.42302H11.0487C11.1383 3.41528 11.2286 3.42738 11.313 3.45847C11.3975 3.48956 11.474 3.53887 11.5372 3.6029C11.6005 3.66693 11.6488 3.74411 11.6788 3.82893C11.7088 3.91376 11.7198 4.00416 11.7109 4.0937C11.714 4.28332 11.6429 4.46663 11.5127 4.60459C11.4457 4.67253 11.3655 4.72601 11.277 4.7617C11.1885 4.7974 11.0936 4.81456 10.9982 4.81212C10.638 4.81212 10.4279 4.64098 10.2143 4.15099C10.2037 4.12735 10.1982 4.10173 10.1983 4.07583C10.1984 4.04993 10.2039 4.02433 10.2146 4.00075V4.00129ZM8.24762 4.09406V4.09064C8.239 4.00134 8.25015 3.91124 8.28027 3.82673C8.31038 3.74222 8.35874 3.66538 8.42189 3.60166C8.48504 3.53794 8.56145 3.4889 8.64568 3.45803C8.72992 3.42715 8.81992 3.4152 8.90929 3.42302H8.91037C9.09521 3.41654 9.2773 3.46922 9.43013 3.57339C9.58296 3.67756 9.69856 3.82777 9.76011 4.00219C9.77048 4.02513 9.77598 4.04998 9.77626 4.07516C9.77654 4.10033 9.77159 4.12529 9.76174 4.14846C9.54988 4.64747 9.34452 4.81212 8.96153 4.81248H8.96063C8.86528 4.81493 8.77044 4.79779 8.68198 4.76213C8.59352 4.72646 8.51331 4.67303 8.44632 4.60513C8.31587 4.46705 8.24457 4.28345 8.24762 4.09352V4.09406Z" stroke="#F0792E" stroke-width="0.285" mask="url(#path-2-outside-2_3049_12377)"/>
</svg>
