<svg width="12" height="12" viewBox="0 0 12 12" fill="none" xmlns="http://www.w3.org/2000/svg">
<g clip-path="url(#clip0_66964_11791)">
<path d="M5.64644 9.85355C5.64653 9.85364 5.64662 9.85371 5.64672 9.8538C5.65827 9.86534 5.67044 9.87628 5.68307 9.88666C5.68886 9.89142 5.69498 9.89555 5.70093 9.90002C5.70803 9.90534 5.71499 9.91085 5.72237 9.9158C5.7295 9.92056 5.73688 9.92468 5.74419 9.92904C5.7509 9.93305 5.75744 9.93724 5.76433 9.94092C5.77178 9.94491 5.77944 9.94828 5.78706 9.95187C5.79423 9.95527 5.80131 9.95885 5.80867 9.9619C5.81605 9.96494 5.8236 9.96743 5.8311 9.9701C5.839 9.97294 5.84678 9.97596 5.85484 9.9784C5.86234 9.98067 5.86996 9.98234 5.87755 9.98423C5.88578 9.98632 5.89391 9.98862 5.9023 9.99028C5.91109 9.99202 5.91995 9.99305 5.92879 9.99431C5.93608 9.99534 5.94327 9.99675 5.95066 9.99748C5.98347 10.0007 6.01654 10.0007 6.04935 9.99748C6.05673 9.99675 6.06393 9.99537 6.07122 9.99431C6.08005 9.99305 6.08891 9.99202 6.0977 9.99028C6.10609 9.98862 6.11423 9.98632 6.12245 9.98423C6.13002 9.98234 6.13766 9.98067 6.14516 9.9784C6.15323 9.97596 6.16103 9.97294 6.16891 9.9701C6.1764 9.96741 6.18395 9.96494 6.19133 9.9619C6.19869 9.95885 6.20577 9.95527 6.21294 9.95187C6.22056 9.94828 6.22823 9.94491 6.23568 9.94092C6.24257 9.93724 6.24911 9.93302 6.25581 9.92904C6.26312 9.92468 6.27051 9.92056 6.27763 9.9158C6.28501 9.91085 6.29198 9.90534 6.29908 9.90002C6.30503 9.89557 6.31115 9.89142 6.31694 9.88666C6.32957 9.87628 6.34173 9.86536 6.35329 9.8538C6.35338 9.85371 6.35348 9.85364 6.35357 9.85355L9.85356 6.35355C10.0488 6.1583 10.0488 5.8417 9.85356 5.64645C9.65831 5.45119 9.34171 5.45119 9.14645 5.64645L6.49998 8.29289V0.499992C6.49998 0.223852 6.27613 0 5.99999 0C5.72385 0 5.5 0.223852 5.5 0.499992V8.29289L2.85355 5.64645C2.6583 5.45119 2.3417 5.45119 2.14644 5.64645C1.95119 5.8417 1.95119 6.1583 2.14644 6.35355L5.64644 9.85355Z" fill="#20446C"/>
<path d="M9.49998 11H2.49999C2.22385 11 2 11.2239 2 11.5C2 11.7761 2.22385 12 2.49999 12H9.5C9.77614 12 9.99999 11.7762 9.99999 11.5C9.99999 11.2239 9.77612 11 9.49998 11Z" fill="#20446C"/>
</g>
<defs>
<clipPath id="clip0_66964_11791">
<rect width="12" height="12" fill="white"/>
</clipPath>
</defs>
</svg>
