<svg width="20" height="16" viewBox="0 0 20 16" fill="none" xmlns="http://www.w3.org/2000/svg">
<path fill-rule="evenodd" clip-rule="evenodd" d="M13.6786 5.04523e-05C13.6221 0.000915646 13.5658 0.0129851 13.5139 0.0354152C13.462 0.0578454 13.4145 0.090593 13.3751 0.131192C13.3358 0.171791 13.3044 0.220221 13.2836 0.272824C13.2627 0.325406 13.2522 0.382142 13.253 0.438725V1.47053H12.2223C12.1652 1.46945 12.1078 1.48001 12.0546 1.50123C12.0015 1.52242 11.9526 1.55433 11.9118 1.59445C11.871 1.6346 11.8383 1.68292 11.8161 1.73574C11.794 1.78856 11.7825 1.84579 11.7825 1.90307C11.7825 1.96034 11.794 2.01757 11.8161 2.07039C11.8383 2.12319 11.871 2.17153 11.9118 2.21166C11.9526 2.2518 12.0015 2.28371 12.0546 2.3049C12.1078 2.32612 12.1652 2.33661 12.2223 2.3356H13.253V3.36741C13.2523 3.42446 13.263 3.48168 13.2844 3.5346C13.3057 3.58753 13.3376 3.63616 13.3777 3.67678C13.4178 3.71738 13.4659 3.74993 13.5185 3.77195C13.5711 3.79395 13.6282 3.80539 13.6852 3.80539C13.7422 3.80539 13.7992 3.79393 13.8518 3.77195C13.9044 3.74993 13.9526 3.71738 13.9926 3.67678C14.0327 3.63616 14.0646 3.58753 14.086 3.5346C14.1073 3.48168 14.118 3.42446 14.1173 3.36741V2.3356H15.148C15.2052 2.33668 15.2626 2.32612 15.3158 2.3049C15.3689 2.28371 15.4178 2.2518 15.4586 2.21166C15.4994 2.17153 15.5321 2.12319 15.5542 2.07039C15.5764 2.01757 15.5879 1.96034 15.5879 1.90307C15.5879 1.84579 15.5764 1.78856 15.5542 1.73574C15.5321 1.68292 15.4994 1.6346 15.4586 1.59445C15.4178 1.55433 15.3689 1.52242 15.3158 1.50123C15.2626 1.48001 15.2052 1.46952 15.148 1.47053H14.1173V0.438725C14.1181 0.381038 14.1072 0.323222 14.0856 0.269796C14.0639 0.216349 14.0314 0.167336 13.9906 0.126563C13.9498 0.0857911 13.9008 0.0533031 13.8474 0.0316516C13.794 0.00997855 13.7363 -0.000836371 13.6786 5.04523e-05Z" fill="#E77817"/>
<path fill-rule="evenodd" clip-rule="evenodd" d="M13.6786 6.3001C13.6221 6.30096 13.5658 6.31303 13.5139 6.33546C13.462 6.35789 13.4145 6.39064 13.3751 6.43124C13.3358 6.47184 13.3044 6.52027 13.2836 6.57287C13.2627 6.62546 13.2522 6.68219 13.253 6.73877V7.77058H12.2223C12.1652 7.7695 12.1078 7.78006 12.0546 7.80127C12.0015 7.82247 11.9526 7.85438 11.9118 7.8945C11.871 7.93464 11.8383 7.98297 11.8161 8.03579C11.794 8.08861 11.7825 8.14584 11.7825 8.20311C11.7825 8.26039 11.794 8.31762 11.8161 8.37044C11.8383 8.42324 11.871 8.47158 11.9118 8.51171C11.9526 8.55185 12.0015 8.58376 12.0546 8.60495C12.1078 8.62617 12.1652 8.63666 12.2223 8.63565H13.253V9.66745C13.2523 9.72451 13.263 9.78172 13.2844 9.83465C13.3057 9.88758 13.3376 9.93621 13.3777 9.97683C13.4178 10.0174 13.4659 10.05 13.5185 10.072C13.5711 10.094 13.6282 10.1054 13.6852 10.1054C13.7422 10.1054 13.7992 10.094 13.8518 10.072C13.9044 10.05 13.9526 10.0174 13.9926 9.97683C14.0327 9.93621 14.0646 9.88758 14.086 9.83465C14.1073 9.78172 14.118 9.72451 14.1173 9.66745V8.63565H15.148C15.2052 8.63673 15.2626 8.62617 15.3158 8.60495C15.3689 8.58376 15.4178 8.55185 15.4586 8.51171C15.4994 8.47158 15.5321 8.42324 15.5542 8.37044C15.5764 8.31762 15.5879 8.26039 15.5879 8.20311C15.5879 8.14584 15.5764 8.08861 15.5542 8.03579C15.5321 7.98297 15.4994 7.93464 15.4586 7.8945C15.4178 7.85438 15.3689 7.82247 15.3158 7.80127C15.2626 7.78006 15.2052 7.76957 15.148 7.77058H14.1173V6.73877C14.1181 6.68109 14.1072 6.62327 14.0856 6.56984C14.0639 6.5164 14.0314 6.46738 13.9906 6.42661C13.9498 6.38584 13.9008 6.35335 13.8474 6.3317C13.794 6.31003 13.7363 6.29921 13.6786 6.3001Z" fill="#E77817"/>
<path fill-rule="evenodd" clip-rule="evenodd" d="M8.89642 3.00005C8.8399 3.00092 8.78354 3.01299 8.73164 3.03542C8.67974 3.05785 8.63231 3.09059 8.59292 3.13119C8.55353 3.17179 8.52222 3.22022 8.50132 3.27282C8.48045 3.32541 8.47001 3.38214 8.47081 3.43873V4.47053H7.44012C7.38293 4.46945 7.32554 4.48001 7.2724 4.50123C7.21925 4.52242 7.17039 4.55433 7.12958 4.59445C7.08876 4.6346 7.05604 4.68292 7.03392 4.73574C7.01177 4.78856 7.00027 4.84579 7.00027 4.90307C7.00027 4.96034 7.01177 5.01757 7.03392 5.07039C7.05604 5.12319 7.08876 5.17153 7.12958 5.21166C7.17039 5.2518 7.21925 5.28371 7.2724 5.3049C7.32554 5.32612 7.38293 5.33661 7.44012 5.3356H8.47081V6.36741C8.4701 6.42446 8.48082 6.48168 8.50214 6.5346C8.52347 6.58753 8.55539 6.63616 8.59547 6.67678C8.63553 6.71738 8.68372 6.74993 8.73631 6.77195C8.78892 6.79395 8.84592 6.80539 8.90295 6.80539C8.95995 6.80539 9.01695 6.79393 9.06957 6.77195C9.12216 6.74993 9.17034 6.71738 9.2104 6.67678C9.25049 6.63616 9.2824 6.58753 9.30373 6.5346C9.32506 6.48168 9.33577 6.42446 9.33506 6.36741V5.3356H10.3658C10.423 5.33668 10.4804 5.32612 10.5335 5.3049C10.5867 5.28371 10.6355 5.2518 10.6764 5.21166C10.7172 5.17153 10.7499 5.12319 10.772 5.07039C10.7942 5.01757 10.8057 4.96034 10.8057 4.90307C10.8057 4.84579 10.7942 4.78856 10.772 4.73574C10.7499 4.68292 10.7172 4.6346 10.6764 4.59445C10.6355 4.55433 10.5867 4.52242 10.5335 4.50123C10.4804 4.48001 10.423 4.46952 10.3658 4.47053H9.33506V3.43873C9.33588 3.38104 9.32501 3.32322 9.30334 3.2698C9.28165 3.21635 9.24915 3.16734 9.2084 3.12656C9.16762 3.08579 9.11861 3.0533 9.06522 3.03165C9.01181 3.00998 8.95403 2.99916 8.89642 3.00005Z" fill="#E77817"/>
<path fill-rule="evenodd" clip-rule="evenodd" d="M17.8964 5.00005C17.8399 5.00092 17.7835 5.01299 17.7316 5.03542C17.6797 5.05785 17.6323 5.09059 17.5929 5.13119C17.5535 5.17179 17.5222 5.22022 17.5013 5.27282C17.4805 5.32541 17.47 5.38214 17.4708 5.43873V6.47053H16.4401C16.3829 6.46945 16.3255 6.48001 16.2724 6.50123C16.2192 6.52242 16.1704 6.55433 16.1296 6.59445C16.0888 6.6346 16.056 6.68292 16.0339 6.73574C16.0118 6.78856 16.0003 6.84579 16.0003 6.90307C16.0003 6.96034 16.0118 7.01757 16.0339 7.07039C16.056 7.12319 16.0888 7.17153 16.1296 7.21166C16.1704 7.2518 16.2192 7.28371 16.2724 7.3049C16.3255 7.32612 16.3829 7.33661 16.4401 7.3356H17.4708V8.36741C17.4701 8.42446 17.4808 8.48168 17.5021 8.5346C17.5235 8.58753 17.5554 8.63616 17.5955 8.67678C17.6355 8.71738 17.6837 8.74993 17.7363 8.77195C17.7889 8.79395 17.8459 8.80539 17.9029 8.80539C17.9599 8.80539 18.017 8.79393 18.0696 8.77195C18.1222 8.74993 18.1703 8.71738 18.2104 8.67678C18.2505 8.63616 18.2824 8.58753 18.3037 8.5346C18.3251 8.48168 18.3358 8.42446 18.3351 8.36741V7.3356H19.3658C19.423 7.33668 19.4804 7.32612 19.5335 7.3049C19.5867 7.28371 19.6355 7.2518 19.6764 7.21166C19.7172 7.17153 19.7499 7.12319 19.772 7.07039C19.7942 7.01757 19.8057 6.96034 19.8057 6.90307C19.8057 6.84579 19.7942 6.78856 19.772 6.73574C19.7499 6.68292 19.7172 6.6346 19.6764 6.59445C19.6355 6.55433 19.5867 6.52242 19.5335 6.50123C19.4804 6.48001 19.423 6.46952 19.3658 6.47053H18.3351V5.43873C18.3359 5.38104 18.325 5.32322 18.3033 5.2698C18.2816 5.21635 18.2491 5.16734 18.2084 5.12656C18.1676 5.08579 18.1186 5.0533 18.0652 5.03165C18.0118 5.00998 17.954 4.99916 17.8964 5.00005Z" fill="#E77817"/>
<path d="M2.91669 14.2753H0.625006C0.280003 14.2753 0 13.9934 0 13.6461V6.51519C0 6.16787 0.280003 5.88599 0.625006 5.88599C3.5467 5.88599 4.90671 6.90697 4.96255 6.95059C5.16422 7.1058 5.25338 7.36838 5.18672 7.61503L3.52003 13.8114C3.4467 14.0849 3.1992 14.2753 2.91669 14.2753ZM1.25001 13.0169H2.43836L3.85337 7.75597C3.41753 7.54875 2.56586 7.24003 1.25001 7.16284V13.0169Z" fill="#20446C"/>
<path d="M10.833 15.9532C8.82551 15.9532 4.99048 14.2754 2.88379 13.2762L3.41629 12.1378C6.84133 13.7636 9.54469 14.6957 10.833 14.6957C12.523 14.6957 16.3598 12.8584 18.3706 11.798C18.1389 11.6646 17.7939 11.5497 17.2914 11.5497C16.5598 11.5497 15.6547 11.8525 14.7806 12.147C13.8114 12.4725 12.8097 12.8081 11.8747 12.8081C10.1189 12.8081 7.8005 11.9666 7.703 11.9314L8.12967 10.7485C8.15134 10.7569 10.3397 11.5497 11.8747 11.5497C12.6064 11.5497 13.5114 11.2468 14.3856 10.9523C15.3547 10.6268 16.3564 10.2913 17.2914 10.2913C19.3573 10.2913 19.9315 11.6763 19.9548 11.7359C20.0723 12.0312 19.9523 12.3668 19.6765 12.5203C19.4248 12.6596 13.4639 15.9532 10.833 15.9532Z" fill="#20446C"/>
<path d="M14.3749 11.834H13.1249V11.4565C13.1249 10.9598 12.7749 10.5278 12.2924 10.4288L4.26562 8.77439L4.51646 7.54199L12.5424 9.19553C13.604 9.41281 14.3749 10.3642 14.3749 11.4556V11.834Z" fill="#20446C"/>
</svg>
