<svg width="28" height="28" viewBox="0 0 28 28" fill="none" xmlns="http://www.w3.org/2000/svg">
<g clip-path="url(#clip0_2120_11041)">
<path fill-rule="evenodd" clip-rule="evenodd" d="M2.35059 4.81201C2.35059 5.23673 2.00626 5.58105 1.58154 5.58105C1.15672 5.58105 0.8125 5.23673 0.8125 4.81201V1.58203C0.8125 1.15721 1.15672 0.812988 1.58154 0.812988H4.81132C5.23614 0.812988 5.58036 1.15721 5.58036 1.58203C5.58036 2.00675 5.23614 2.35107 4.81132 2.35107H2.35059V4.81201ZM12.9634 21.3208C12.5386 21.3208 12.1943 20.9765 12.1943 20.5518C12.1943 20.1269 12.5386 19.7827 12.9634 19.7827H13.6299C14.0546 19.7827 14.3989 20.1269 14.3989 20.5518C14.3989 20.9765 14.0546 21.3208 13.6299 21.3208H12.9634ZM13.5273 11.0669C13.5273 11.4916 13.183 11.8359 12.7583 11.8359C12.3335 11.8359 11.9893 11.4916 11.9893 11.0669V10.4004C11.9893 9.97557 12.3335 9.63135 12.7583 9.63135C13.183 9.63135 13.5273 9.97557 13.5273 10.4004V11.0669ZM18.2441 19.6802C17.8193 19.6802 17.4751 19.3358 17.4751 18.9111C17.4751 18.4863 17.8193 18.1421 18.2441 18.1421H18.9106C19.3354 18.1421 19.6797 18.4863 19.6797 18.9111C19.6797 19.3358 19.3354 19.6802 18.9106 19.6802H18.2441ZM2.37622 14.707H5.95483C5.94458 14.7568 5.93945 14.8081 5.93945 14.8608V17.168C5.93945 17.5927 6.28368 17.937 6.7085 17.937C7.13321 17.937 7.47754 17.5927 7.47754 17.168V14.8608C7.47754 14.8081 7.47241 14.7568 7.46216 14.707H14.2451V15.5786H10.1948C9.77 15.5786 9.42578 15.9228 9.42578 16.3477C9.42578 16.7724 9.77 17.1167 10.1948 17.1167H15.0142C15.4389 17.1167 15.7832 16.7724 15.7832 16.3477V14.707H18.6543V16.9629C18.6543 17.3876 18.9985 17.7319 19.4233 17.7319C19.8481 17.7319 20.1924 17.3876 20.1924 16.9629V14.707H25.4988C25.9235 14.707 26.2678 14.3627 26.2678 13.938C26.2678 13.5132 25.9235 13.1689 25.4988 13.1689H21.9868V11.6821H22.7559C23.1806 11.6821 23.5249 11.3378 23.5249 10.9131C23.5249 10.4883 23.1806 10.144 22.7559 10.144H18.9106C18.4858 10.144 18.1416 10.4883 18.1416 10.9131C18.1416 11.3378 18.4858 11.6821 18.9106 11.6821H20.4487V13.1689H15.7832V11.1694C15.7832 10.7446 15.4389 10.4004 15.0142 10.4004C14.5893 10.4004 14.2451 10.7446 14.2451 11.1694V13.1689H2.37622C1.9514 13.1689 1.60718 13.5132 1.60718 13.938C1.60718 14.3627 1.9514 14.707 2.37622 14.707ZM15.6807 5.27344C15.6807 4.84862 16.0249 4.50439 16.4497 4.50439C16.8744 4.50439 17.2187 4.84862 17.2187 5.27344V9.32373C17.2187 9.74845 16.8744 10.0928 16.4497 10.0928C16.0249 10.0928 15.6807 9.74845 15.6807 9.32373V5.27344ZM11.1177 5.58105H12.8608V5.27344C12.8608 4.84862 13.2051 4.50439 13.6299 4.50439C14.0546 4.50439 14.3989 4.84862 14.3989 5.27344V7.83691C14.3989 8.26163 14.0546 8.60596 13.6299 8.60596C13.2051 8.60596 12.8608 8.26163 12.8608 7.83691V7.11914H11.1177V7.47803C11.1177 7.90274 10.7733 8.24707 10.3486 8.24707C9.92381 8.24707 9.57959 7.90274 9.57959 7.47803V5.27344C9.57959 4.84862 9.92381 4.50439 10.3486 4.50439C10.7733 4.50439 11.1177 4.84862 11.1177 5.27344V5.58105ZM4.96513 11.6309C4.54051 11.6309 4.19608 11.2865 4.19608 10.8618C4.19608 10.437 4.54051 10.0928 4.96513 10.0928H10.6562C11.081 10.0928 11.4253 10.437 11.4253 10.8618C11.4253 11.2865 11.081 11.6309 10.6562 11.6309H4.96513ZM21.7305 21.8335V22.6025C21.7305 23.0273 22.0747 23.3716 22.4995 23.3716C22.9242 23.3716 23.2686 23.0273 23.2686 22.6025V17.9883C23.2686 17.5638 22.9242 17.2192 22.4995 17.2192C22.0747 17.2192 21.7305 17.5638 21.7305 17.9883V20.2954H19.167C18.7422 20.2954 18.3979 20.6399 18.3979 21.0645C18.3979 21.4892 18.7422 21.8335 19.167 21.8335H21.7305ZM13.8862 23.3716H16.1934C16.6181 23.3716 16.9624 23.0273 16.9624 22.6025V18.6548C16.9624 18.23 16.6181 17.8857 16.1934 17.8857C15.7685 17.8857 15.4243 18.23 15.4243 18.6548V21.8335H13.8862C13.4614 21.8335 13.1172 22.1777 13.1172 22.6025C13.1172 23.0273 13.4614 23.3716 13.8862 23.3716ZM9.63086 18.7061C9.63086 18.2812 9.97508 17.937 10.3999 17.937C10.8246 17.937 11.1689 18.2812 11.1689 18.7061V20.9619C11.1689 21.3866 10.8246 21.731 10.3999 21.731C9.97508 21.731 9.63086 21.3866 9.63086 20.9619V18.7061ZM4.96533 18.6035H8.19531C8.62003 18.6035 8.96435 18.9477 8.96435 19.3726V22.6025C8.96435 23.0273 8.62003 23.3716 8.19531 23.3716H4.96533C4.54051 23.3716 4.19629 23.0273 4.19629 22.6025V19.3726C4.19629 18.9477 4.54051 18.6035 4.96533 18.6035ZM7.42627 20.1416H5.73437V21.8335H7.42627V20.1416ZM19.6797 4.50439H22.9097C23.3344 4.50439 23.6787 4.84862 23.6787 5.27344V8.50342C23.6787 8.92813 23.3344 9.27246 22.9097 9.27246H19.6797C19.2549 9.27246 18.9106 8.92813 18.9106 8.50342V5.27344C18.9106 4.84862 19.2549 4.50439 19.6797 4.50439ZM22.1406 6.04248H20.4487V7.73437H22.1406V6.04248ZM4.96533 4.50439C4.54051 4.50439 4.19629 4.84862 4.19629 5.27344V8.50342C4.19629 8.92813 4.54051 9.27246 4.96533 9.27246H8.19531C8.62003 9.27246 8.96435 8.92813 8.96435 8.50342V5.27344C8.96435 4.84862 8.62003 4.50439 8.19531 4.50439H4.96533ZM7.42627 6.04248V7.73437H5.73437V6.04248H7.42627ZM25.5244 23.064C25.5244 22.6391 25.8686 22.2949 26.2935 22.2949C26.7182 22.2949 27.0625 22.6391 27.0625 23.064V26.2939C27.0625 26.7187 26.7182 27.063 26.2935 27.063H23.0636C22.639 27.063 22.2945 26.7187 22.2945 26.2939C22.2945 25.8691 22.639 25.5249 23.0636 25.5249H25.5244V23.064ZM0.8125 23.064V26.2939C0.8125 26.7187 1.15672 27.063 1.58154 27.063H4.81132C5.23614 27.063 5.58036 26.7187 5.58036 26.2939C5.58036 25.8691 5.23614 25.5249 4.81132 25.5249H2.35059V23.064C2.35059 22.6391 2.00626 22.2949 1.58154 22.2949C1.15672 22.2949 0.8125 22.6391 0.8125 23.064ZM27.0625 4.81201V1.58203C27.0625 1.15721 26.7182 0.812988 26.2935 0.812988H23.0636C22.639 0.812988 22.2945 1.15721 22.2945 1.58203C22.2945 2.00675 22.639 2.35107 23.0636 2.35107H25.5244V4.81201C25.5244 5.23673 25.8686 5.58105 26.2935 5.58105C26.7182 5.58105 27.0625 5.23673 27.0625 4.81201Z" fill="#F0792E"/>
</g>
<defs>
<clipPath id="clip0_2120_11041">
<rect width="28" height="28" fill="white"/>
</clipPath>
</defs>
</svg>
