<svg width="34" height="26" viewBox="0 0 34 26" fill="none" xmlns="http://www.w3.org/2000/svg">
<path d="M21.0137 23.6471L21.0139 23.6464L21.0137 23.6471ZM24.6505 2.10028L25.5795 2.3467L24.6505 2.10028L19.0721 23.1321C18.6784 24.6163 20.5337 25.6375 21.5771 24.511L31.8042 13.4693C32.2108 13.0303 32.3115 12.389 32.0591 11.8466L27.4104 1.85642C26.829 0.60709 25.0038 0.768375 24.6505 2.10028Z" stroke="#003D71" stroke-width="2"/>
<path d="M17.2846 23.6471L17.2848 23.6464L17.2846 23.6471ZM20.9214 2.10028L21.8504 2.3467L20.9214 2.10028L15.343 23.1321C14.9493 24.6163 16.8046 25.6375 17.848 24.511L28.075 13.4693C28.4816 13.0303 28.5823 12.389 28.3299 11.8466L23.6812 1.85642C23.0999 0.607089 21.2746 0.768377 20.9214 2.10028Z" fill="white" stroke="#003D71" stroke-width="2"/>
<path d="M9.52907 5.62558H14.857M1.00438 9.84396H11.6602M6.8651 20.6912H10.5947" stroke="#F0792E" stroke-width="2" stroke-linecap="round" stroke-linejoin="round"/>
</svg>
