<svg width="32" height="32" viewBox="0 0 32 32" fill="none" xmlns="http://www.w3.org/2000/svg">
<circle cx="16" cy="16" r="16" fill="#FEEEE4"/>
<path d="M7.66618 20.6662H13.3328V25.6662C13.3328 25.7546 13.368 25.8394 13.4305 25.9019C13.493 25.9644 13.5778 25.9995 13.6662 25.9995H25.6662C25.7546 25.9995 25.8394 25.9644 25.9019 25.9019C25.9644 25.8394 25.9995 25.7546 25.9995 25.6662V14.9995C25.9995 14.9111 25.9644 14.8263 25.9019 14.7638C25.8394 14.7013 25.7546 14.6662 25.6662 14.6662H15.9995V12.9995C15.999 12.6756 15.9041 12.3589 15.7265 12.088C15.5489 11.8172 15.2963 11.6039 14.9995 11.4742V9.99951C14.9995 7.79385 13.2052 5.99951 10.9995 5.99951C8.79385 5.99951 6.99951 7.79385 6.99951 9.99951V11.4742C6.70271 11.6039 6.45009 11.8172 6.27251 12.088C6.09492 12.3589 6.00006 12.6756 5.99951 12.9995V18.9995C5.99951 19.9185 6.74718 20.6662 7.66618 20.6662ZM25.3328 25.3328H13.9995V20.6662H14.3328C14.4415 20.6662 14.5468 20.6542 14.6495 20.6342C14.6832 20.6275 14.7148 20.6162 14.7478 20.6075C14.8155 20.5902 14.8822 20.5712 14.9462 20.5458C14.9828 20.5312 15.0172 20.5132 15.0525 20.4962C15.1092 20.4688 15.1645 20.4398 15.2175 20.4065C15.3374 20.3302 15.4475 20.2394 15.5452 20.1362C15.5875 20.0912 15.6258 20.0432 15.6632 19.9935C15.6868 19.9618 15.7112 19.9315 15.7325 19.8982C15.7688 19.8418 15.7992 19.7822 15.8285 19.7215C15.8435 19.6905 15.8612 19.6612 15.8745 19.6292C15.9113 19.5394 15.9402 19.4466 15.9608 19.3518C15.9622 19.3458 15.9648 19.3402 15.9662 19.3342L15.9665 19.3332H25.3328V25.3328ZM15.9995 17.9995H25.3328V18.6662H15.9995V17.9995ZM25.3328 17.3328H15.9995V16.6662H25.3328V17.3328ZM25.3328 15.3328V15.9995H15.9995V15.3328H25.3328ZM7.66618 9.99951C7.66618 8.16151 9.16151 6.66618 10.9995 6.66618C12.8375 6.66618 14.3328 8.16151 14.3328 9.99951V11.3328H13.6662V9.99951C13.6662 8.52918 12.4698 7.33285 10.9995 7.33285C9.52918 7.33285 8.33285 8.52918 8.33285 9.99951V11.3328H7.66618V9.99951ZM12.9995 11.3328H8.99951V9.99951C8.99951 8.89651 9.89651 7.99951 10.9995 7.99951C12.1025 7.99951 12.9995 8.89651 12.9995 9.99951V11.3328ZM6.66618 12.9995C6.66618 12.4482 7.11485 11.9995 7.66618 11.9995H14.3328C14.8842 11.9995 15.3328 12.4482 15.3328 12.9995V18.9995C15.3328 19.5508 14.8842 19.9995 14.3328 19.9995H7.66618C7.11485 19.9995 6.66618 19.5508 6.66618 18.9995V12.9995Z" fill="#F0792E"/>
<path d="M9.99967 16.6595V17.9998C9.99967 18.0882 10.0348 18.173 10.0973 18.2355C10.1598 18.2981 10.2446 18.3332 10.333 18.3332H11.6663C11.7547 18.3332 11.8395 18.2981 11.902 18.2355C11.9646 18.173 11.9997 18.0882 11.9997 17.9998V16.6595C12.2056 16.5049 12.373 16.3047 12.4887 16.0746C12.6043 15.8445 12.6651 15.5907 12.6663 15.3332C12.6663 14.4142 11.9187 13.6665 10.9997 13.6665C10.0807 13.6665 9.33301 14.4142 9.33301 15.3332C9.33301 15.8542 9.58434 16.3468 9.99967 16.6595ZM10.9997 14.3332C11.551 14.3332 11.9997 14.7818 11.9997 15.3332C11.9997 15.6892 11.8123 16.0108 11.4987 16.1935C11.4483 16.2228 11.4064 16.2648 11.3774 16.3154C11.3483 16.3659 11.333 16.4232 11.333 16.4815V17.6665H10.6663V16.4815C10.6664 16.4232 10.6511 16.3659 10.622 16.3154C10.5929 16.2648 10.5511 16.2228 10.5007 16.1935C10.187 16.0108 9.99967 15.6892 9.99967 15.3332C9.99967 14.7818 10.4483 14.3332 10.9997 14.3332ZM14.9997 21.3332C14.9113 21.3332 14.8265 21.3683 14.764 21.4308C14.7015 21.4933 14.6663 21.5781 14.6663 21.6665V22.9998C14.6663 23.0882 14.7015 23.173 14.764 23.2355C14.8265 23.2981 14.9113 23.3332 14.9997 23.3332C15.551 23.3332 15.9997 23.7818 15.9997 24.3332C15.9997 24.4216 16.0348 24.5064 16.0973 24.5689C16.1598 24.6314 16.2446 24.6665 16.333 24.6665H22.9997C23.0881 24.6665 23.1729 24.6314 23.2354 24.5689C23.2979 24.5064 23.333 24.4216 23.333 24.3332C23.333 23.7818 23.7817 23.3332 24.333 23.3332C24.4214 23.3332 24.5062 23.2981 24.5687 23.2355C24.6312 23.173 24.6663 23.0882 24.6663 22.9998V21.6665C24.6663 21.5781 24.6312 21.4933 24.5687 21.4308C24.5062 21.3683 24.4214 21.3332 24.333 21.3332C23.7817 21.3332 23.333 20.8845 23.333 20.3332C23.333 20.2448 23.2979 20.16 23.2354 20.0975C23.1729 20.035 23.0881 19.9998 22.9997 19.9998H16.333C16.2446 19.9998 16.1598 20.035 16.0973 20.0975C16.0348 20.16 15.9997 20.2448 15.9997 20.3332C15.9997 20.8845 15.551 21.3332 14.9997 21.3332ZM16.6327 20.6665H22.7C22.7659 20.9865 22.9241 21.2801 23.1551 21.5111C23.3861 21.7421 23.6797 21.9003 23.9997 21.9662V22.6998C23.6797 22.7657 23.3861 22.9239 23.1551 23.1549C22.9241 23.3859 22.7659 23.6795 22.7 23.9995H16.6327C16.5668 23.6795 16.4086 23.3859 16.1776 23.1549C15.9466 22.9239 15.653 22.7657 15.333 22.6998V21.9662C15.653 21.9003 15.9466 21.7421 16.1776 21.5111C16.4086 21.2801 16.5668 20.9865 16.6327 20.6665Z" fill="#F0792E"/>
<path d="M19.6663 23.333C20.2177 23.333 20.6663 22.8843 20.6663 22.333C20.6663 21.7817 20.2177 21.333 19.6663 21.333C19.115 21.333 18.6663 21.7817 18.6663 22.333C18.6663 22.8843 19.115 23.333 19.6663 23.333ZM19.6663 21.9997C19.7324 21.9996 19.7969 22.0191 19.8518 22.0558C19.9068 22.0924 19.9496 22.1445 19.9749 22.2055C20.0002 22.2665 20.0068 22.3336 19.9939 22.3984C19.9811 22.4631 19.9493 22.5226 19.9026 22.5693C19.8559 22.616 19.7964 22.6477 19.7317 22.6606C19.6669 22.6735 19.5998 22.6668 19.5388 22.6415C19.4778 22.6163 19.4257 22.5734 19.3891 22.5185C19.3525 22.4636 19.3329 22.399 19.333 22.333C19.333 22.1493 19.4823 21.9997 19.6663 21.9997ZM9.33301 21.333H9.99967V21.9997H9.33301V21.333ZM9.33301 22.6663H9.99967V23.333H9.33301V22.6663ZM9.33301 23.9997H9.99967V24.6663H9.33301V23.9997ZM15.6663 9.33301H16.333V9.99967H15.6663V9.33301ZM16.9997 9.33301H17.6663V9.99967H16.9997V9.33301ZM18.333 9.33301H18.9997V9.99967H18.333V9.33301ZM19.6663 9.33301H20.333V9.99967H19.6663V9.33301ZM20.9997 9.33301H21.6663V9.99967H20.9997V9.33301ZM20.9997 10.6663H21.6663V11.333H20.9997V10.6663ZM20.9997 11.9997H21.6663V12.6663H20.9997V11.9997ZM20.9997 13.333H21.6663V13.9997H20.9997V13.333ZM10.6663 23.9997H11.333V24.6663H10.6663V23.9997ZM11.9997 23.9997H12.6663V24.6663H11.9997V23.9997Z" fill="#F0792E"/>
</svg>
