<svg width="15" height="15" viewBox="0 0 15 15" fill="none" xmlns="http://www.w3.org/2000/svg">
<path fill-rule="evenodd" clip-rule="evenodd" d="M5.51836 6.95858C5.81737 7.2576 5.81754 7.74223 5.51836 8.04142L0.297113 13.2627C-0.0996173 13.6594 -0.0980165 14.3042 0.298881 14.7011C0.696588 15.0988 1.34039 15.0998 1.73734 14.7029L6.95858 9.48164C7.2576 9.18263 7.74223 9.18246 8.04142 9.48164L13.2627 14.7029C13.6594 15.0996 14.3042 15.098 14.7011 14.7011C15.0988 14.3034 15.0998 13.6596 14.7029 13.2627L9.48164 8.04142C9.18263 7.7424 9.18246 7.25776 9.48164 6.95858L14.7029 1.73734C15.0996 1.34061 15.098 0.695779 14.7011 0.298881C14.3034 -0.0988257 13.6596 -0.0998366 13.2627 0.297113L8.04142 5.51836C7.7424 5.81737 7.25776 5.81754 6.95858 5.51836L1.73734 0.297113C1.34061 -0.0996173 0.695779 -0.0980165 0.298881 0.298881C-0.0988257 0.696588 -0.0998366 1.34039 0.297113 1.73734L5.51836 6.95858Z" fill="#434B53" fill-opacity="0.5"/>
</svg>
