<svg width="10" height="7" viewBox="0 0 10 7" fill="none" xmlns="http://www.w3.org/2000/svg">
<path d="M8.6845 0.250668L4.01032 4.98572L1.30458 2.22248C1.2344 2.15119 1.15087 2.09443 1.05875 2.05542C0.96664 2.01642 0.867745 1.99594 0.767716 1.99515C0.667686 1.99436 0.568481 2.01329 0.475765 2.05084C0.38305 2.0884 0.298638 2.14385 0.227352 2.21402C0.156065 2.2842 0.0992989 2.36773 0.0602939 2.45984C0.0212888 2.55196 0.000808658 2.65085 2.34967e-05 2.75088C-0.00156221 2.9529 0.0771692 3.14728 0.218897 3.29125L3.47594 6.59902C3.52604 6.64241 3.58179 6.67882 3.64166 6.70725C3.66599 6.7265 3.69203 6.74348 3.71945 6.75798C3.8096 6.79517 3.90605 6.81469 4.00356 6.81548C4.1011 6.81503 4.19762 6.7955 4.28766 6.75798C4.3201 6.74085 4.3507 6.72045 4.37898 6.6971C4.43404 6.67167 4.48527 6.63866 4.53118 6.59902L9.75665 1.30929C9.83178 1.24017 9.8921 1.15651 9.93395 1.06339C9.9758 0.970266 9.9983 0.869616 10.0001 0.767538C10.0019 0.665461 9.98297 0.56408 9.94443 0.469539C9.9059 0.374997 9.84857 0.289263 9.77592 0.217532C9.70327 0.1458 9.61682 0.089565 9.5218 0.0522327C9.42677 0.0149005 9.32516 -0.00275073 9.22311 0.000347383C9.12106 0.00344549 9.02071 0.0272289 8.92813 0.0702568C8.83554 0.113285 8.75266 0.174662 8.6845 0.250668Z" fill="white"/>
</svg>
