<svg width="28" height="4" viewBox="0 0 28 4" fill="none" xmlns="http://www.w3.org/2000/svg">
<path d="M15.2363 0.000209491L16.0285 1.45359L14.3632 2.90681L15.2363 0.000209491Z" fill="#2B8B4B"/>
<path d="M14.6801 0.000209491L15.4716 1.45359L13.8056 2.90681L14.6801 0.000209491Z" fill="#D9782D"/>
<path d="M3.40665 2.10972C3.34581 2.22787 3.22288 2.31346 3.07618 2.33065H2.96762H0.838966L1.01901 1.73627H2.66145H3.16806H3.27769C3.36 1.75509 3.42457 1.81515 3.44337 1.89124C3.44585 1.90843 3.44745 1.92561 3.44745 1.94345C3.44745 1.95245 3.44692 1.96145 3.44603 1.97029C3.44585 1.97405 3.44585 1.97765 3.4455 1.98142L3.40665 2.10972ZM1.3706 0.573531H3.01143H3.52532H3.63353C3.69561 0.587605 3.74759 0.624917 3.77775 0.67483C3.78874 0.709852 3.79495 0.746673 3.79495 0.78464C3.79495 0.80526 3.79282 0.825062 3.78945 0.844863L3.7836 0.863847L3.76178 0.936508C3.7036 1.06301 3.57517 1.15514 3.42155 1.17233H3.31725H1.18948L1.3706 0.573531ZM3.72772 2.81194C3.80542 2.75679 3.85668 2.68855 3.88134 2.60722L4.14476 1.73627C4.16888 1.65706 4.15824 1.59062 4.11336 1.53694C4.06848 1.48326 4.00214 1.45643 3.91451 1.45643C4.00214 1.45643 4.08498 1.42893 4.16303 1.37378C4.24055 1.31863 4.29164 1.25154 4.31558 1.17233L4.57865 0.302525C4.60437 0.217918 4.59568 0.148203 4.55293 0.0927256C4.51018 0.0374116 4.4433 0.00959097 4.3523 0.00959097H0.916307L0.0432052 2.89475H3.47938C3.56701 2.89475 3.64985 2.86709 3.72772 2.81194Z" fill="#6D6E71"/>
<path d="M8.17762 0.0108693L7.83224 1.16968H5.35343L5.69898 0.0108693H5.08274L4.22507 2.88621H4.84149L5.1858 1.73247H7.66426L7.3203 2.88621H7.93673L8.79422 0.0108693H8.17762Z" fill="#6D6E71"/>
<path d="M8.97619 2.89475H8.35569L9.2185 0.0200653H9.83883L8.97619 2.89475Z" fill="#6D6E71"/>
<path d="M14.1527 0.0176137L11.5783 2.03052L10.6804 0.653723L10.2653 0.0176137H10.2541L10.0586 0.670907L9.39663 2.88395H10.0131L10.4771 1.33271L11.4604 2.88772L13.0881 1.51142L12.6799 2.88395H13.2965L13.898 0.872197L14.1538 0.0176137H14.1527Z" fill="#6D6E71"/>
<path d="M0.141555 3.398H0.171889C0.209672 3.398 0.237699 3.39342 0.255793 3.38442C0.273709 3.37542 0.285594 3.36037 0.291093 3.33909C0.297124 3.31569 0.293931 3.29932 0.282046 3.29C0.269984 3.2805 0.243731 3.27592 0.203641 3.27592H0.173308L0.141555 3.398ZM0.0929511 3.58588H0.120269C0.147941 3.58588 0.168873 3.58506 0.183241 3.58309C0.197432 3.58113 0.209317 3.57786 0.218719 3.57278C0.229894 3.56722 0.239473 3.55953 0.247278 3.5502C0.255083 3.54071 0.260405 3.5304 0.26342 3.51878C0.266791 3.5052 0.266613 3.49341 0.262888 3.48327C0.258986 3.47328 0.25189 3.46543 0.241247 3.45986C0.234506 3.45643 0.226524 3.45414 0.2173 3.4525C0.207898 3.45103 0.195481 3.45021 0.179339 3.45021H0.155392H0.128074L0.0929511 3.58588ZM0 3.64381L0.110335 3.21832H0.233619C0.268565 3.21832 0.294109 3.21995 0.310073 3.22339C0.326038 3.2265 0.33881 3.23206 0.348744 3.23959C0.361338 3.24925 0.369853 3.26201 0.37411 3.27772C0.378368 3.29327 0.378013 3.31078 0.373223 3.3296C0.367015 3.35235 0.356372 3.37133 0.340407 3.38655C0.324264 3.40161 0.30422 3.41224 0.27974 3.4183C0.307235 3.42206 0.326748 3.43352 0.338101 3.45217C0.349631 3.47083 0.35176 3.4944 0.344309 3.52287C0.339875 3.54005 0.33207 3.55658 0.321249 3.5718C0.310251 3.58751 0.297124 3.6006 0.281514 3.61157C0.265194 3.62335 0.246569 3.6317 0.22546 3.63661C0.20435 3.64135 0.170469 3.64381 0.123817 3.64381H0Z" fill="#434244"/>
<path d="M0.600854 3.64381L0.711189 3.21832H0.790481L0.74986 3.37526H0.989865L1.03066 3.21832H1.11013L0.999799 3.64381H0.920329L0.974077 3.43712H0.733717L0.680146 3.64381H0.600854Z" fill="#434244"/>
<path d="M1.46363 3.47672H1.59986L1.57503 3.37968C1.57361 3.37346 1.57255 3.36642 1.57148 3.35824C1.57059 3.35038 1.56971 3.34138 1.56918 3.3314C1.56385 3.34073 1.55906 3.34956 1.55392 3.35742C1.54878 3.36544 1.54381 3.37297 1.53902 3.37968L1.46363 3.47672ZM1.63978 3.64381L1.61299 3.53433H1.41946L1.33431 3.64381H1.25094L1.60217 3.20162L1.72368 3.64381H1.63978Z" fill="#434244"/>
<path d="M2.12001 3.39964H2.13438C2.17642 3.39964 2.20534 3.39555 2.22148 3.38704C2.23744 3.37837 2.24826 3.36315 2.25394 3.34171C2.25997 3.31814 2.25678 3.30161 2.24454 3.29212C2.2323 3.28247 2.20605 3.27772 2.16613 3.27772H2.15176L2.12001 3.39964ZM2.10121 3.45348L2.05172 3.64381H1.97739L2.08773 3.21848H2.19842C2.23088 3.21848 2.25571 3.22028 2.27257 3.22388C2.28959 3.22748 2.30325 3.2337 2.31372 3.24221C2.32614 3.25252 2.33447 3.26594 2.33838 3.28198C2.34246 3.29834 2.34192 3.31602 2.33696 3.33549C2.32809 3.36953 2.31159 3.3962 2.28764 3.41568C2.26387 3.43483 2.23301 3.44645 2.19505 3.45037L2.31301 3.64381H2.22325L2.11008 3.45348H2.10121Z" fill="#434244"/>
<path d="M2.70955 3.47672H2.84578L2.82095 3.37968C2.81953 3.37346 2.81829 3.36642 2.8174 3.35824C2.81651 3.35038 2.81563 3.34138 2.81509 3.3314C2.80977 3.34073 2.8048 3.34956 2.79984 3.35742C2.79452 3.36544 2.78955 3.37297 2.78494 3.37968L2.70955 3.47672ZM2.88569 3.64381L2.85891 3.53433H2.66538L2.58023 3.64381H2.49686L2.84809 3.20162L2.96942 3.64381H2.88569Z" fill="#434244"/>
<path d="M3.43765 3.27707L3.34239 3.64381H3.2631L3.35818 3.27707H3.22833L3.24359 3.21848H3.58187L3.56679 3.27707H3.43765Z" fill="#434244"/>
<path d="M4.15473 3.64381L4.26507 3.21832H4.34436L4.23403 3.64381H4.15473Z" fill="#434244"/>
<path d="M4.55664 3.64436L4.67124 3.20218L4.91408 3.46222C4.92064 3.46958 4.92721 3.47727 4.93359 3.48562C4.94016 3.49397 4.94672 3.50346 4.95364 3.51377L5.03009 3.21887H5.10353L4.98894 3.66089L4.74113 3.3961C4.73439 3.3889 4.72836 3.38154 4.7225 3.37352C4.71647 3.3655 4.71115 3.35715 4.70636 3.34848L4.62955 3.64436H4.55664Z" fill="#434244"/>
<path d="M5.56156 3.27707L5.46648 3.64381H5.38719L5.48227 3.27707H5.35242L5.36768 3.21848H5.70578L5.69088 3.27707H5.56156Z" fill="#434244"/>
<path d="M5.86084 3.64381L5.97117 3.21832H6.24364L6.22839 3.27707H6.03521L6.00754 3.38377H6.20071L6.18493 3.44448H5.99175L5.9561 3.58195H6.14927L6.13331 3.64381H5.86084Z" fill="#434244"/>
<path d="M6.57316 3.39964H6.58753C6.62957 3.39964 6.65849 3.39555 6.67463 3.38704C6.69059 3.37837 6.70142 3.36315 6.70709 3.34171C6.71312 3.31814 6.70993 3.30161 6.69769 3.29212C6.68545 3.28247 6.6592 3.27772 6.61929 3.27772H6.60492L6.57316 3.39964ZM6.55436 3.45348L6.50487 3.64381H6.43055L6.54088 3.21848H6.65157C6.68403 3.21848 6.70887 3.22028 6.72572 3.22388C6.74275 3.22748 6.75641 3.2337 6.76687 3.24221C6.77929 3.25252 6.78763 3.26594 6.79153 3.28198C6.79561 3.29834 6.79508 3.31602 6.79011 3.33549C6.78124 3.36953 6.76474 3.3962 6.7408 3.41568C6.71703 3.43483 6.68616 3.44645 6.6482 3.45037L6.76616 3.64381H6.6764L6.56323 3.45348H6.55436Z" fill="#434244"/>
<path d="M7.02035 3.64381L7.13068 3.21832H7.40315L7.38789 3.27707H7.19472L7.1674 3.38311H7.36058L7.34479 3.44383H7.15161L7.09964 3.64381H7.02035Z" fill="#434244"/>
<path d="M7.70847 3.47672H7.84453L7.81969 3.37968C7.81827 3.37346 7.81721 3.36642 7.81614 3.35824C7.81526 3.35038 7.81437 3.34138 7.81384 3.3314C7.80869 3.34073 7.80373 3.34956 7.79858 3.35742C7.79344 3.36544 7.78847 3.37297 7.78368 3.37968L7.70847 3.47672ZM7.88462 3.64381L7.85765 3.53433H7.66412L7.57915 3.64381H7.4956L7.84683 3.20162L7.96834 3.64381H7.88462Z" fill="#434244"/>
<path d="M8.68107 3.321C8.66279 3.30431 8.64239 3.29187 8.61951 3.28353C8.59663 3.27534 8.57162 3.27092 8.54412 3.27092C8.49073 3.27092 8.44319 3.28598 8.40203 3.31593C8.36088 3.34555 8.33409 3.38433 8.32185 3.43179C8.30979 3.47762 8.31636 3.51542 8.34119 3.54537C8.36602 3.57531 8.40328 3.59021 8.45294 3.59021C8.48168 3.59021 8.51042 3.58562 8.5388 3.57662C8.56718 3.56779 8.59592 3.55437 8.62466 3.5362L8.60426 3.61459C8.57942 3.62785 8.55352 3.63799 8.52674 3.64454C8.49995 3.65109 8.47175 3.65436 8.44248 3.65436C8.40505 3.65436 8.37206 3.64896 8.34314 3.63832C8.31423 3.62768 8.29046 3.61197 8.27165 3.59119C8.25321 3.5709 8.24132 3.547 8.23547 3.51935C8.22997 3.49185 8.23121 3.46223 8.23919 3.43114C8.24735 3.39988 8.26137 3.37075 8.28123 3.34326C8.3011 3.31593 8.32593 3.29171 8.35556 3.27092C8.38518 3.25014 8.41711 3.23443 8.45117 3.22347C8.48523 3.21283 8.52071 3.20743 8.55725 3.20743C8.58581 3.20743 8.61224 3.21103 8.63636 3.21839C8.66049 3.22559 8.68284 3.23656 8.70359 3.25129L8.68107 3.321Z" fill="#434244"/>
<path d="M8.9063 3.64381L9.01664 3.21832H9.28911L9.27385 3.27707H9.08068L9.05318 3.38377H9.24636L9.23057 3.44448H9.03739L9.00174 3.58195H9.19491L9.17877 3.64381H8.9063Z" fill="#434244"/>
<path d="M9.88797 3.64381L9.9983 3.21832H10.2708L10.2555 3.27707H10.0623L10.0348 3.38311H10.228L10.2122 3.44383H10.0191L9.96726 3.64381H9.88797Z" fill="#434244"/>
<path d="M10.9238 3.43114C10.9295 3.4097 10.9302 3.38924 10.9263 3.36993C10.9222 3.35062 10.9138 3.33328 10.9009 3.31822C10.8883 3.30333 10.8722 3.29171 10.8526 3.28385C10.833 3.27583 10.8111 3.27158 10.787 3.27158C10.7632 3.27158 10.7393 3.27567 10.7155 3.28369C10.6918 3.29155 10.6694 3.303 10.6487 3.31822C10.6279 3.33295 10.6105 3.3503 10.5965 3.36961C10.5827 3.38892 10.5729 3.40954 10.5672 3.43114C10.5617 3.45274 10.5608 3.47303 10.5649 3.49218C10.5688 3.51133 10.5772 3.52851 10.5901 3.54357C10.6031 3.55862 10.6194 3.57041 10.6389 3.5781C10.6584 3.58612 10.6802 3.59021 10.7045 3.59021C10.7283 3.59021 10.7519 3.58612 10.7755 3.5781C10.7991 3.57041 10.8213 3.55862 10.8424 3.54357C10.8631 3.52851 10.8807 3.51133 10.8945 3.49202C10.9085 3.47287 10.9185 3.45258 10.9238 3.43114ZM11.0066 3.43114C10.9988 3.46141 10.985 3.48989 10.9648 3.51689C10.9449 3.54373 10.9197 3.56779 10.8894 3.5889C10.8587 3.61017 10.826 3.62621 10.7916 3.6375C10.7572 3.64863 10.7224 3.65436 10.6879 3.65436C10.6527 3.65436 10.6206 3.64863 10.5917 3.63734C10.5628 3.62588 10.5387 3.60985 10.5197 3.5889C10.5002 3.56779 10.4876 3.54389 10.4816 3.51722C10.4757 3.49038 10.4766 3.46174 10.4846 3.43114C10.4924 3.4007 10.5062 3.37222 10.5263 3.34522C10.5461 3.31822 10.5713 3.29416 10.6018 3.27273C10.632 3.25161 10.6644 3.23574 10.6989 3.22461C10.7334 3.21348 10.7682 3.20808 10.8035 3.20808C10.8388 3.20808 10.8706 3.21348 10.8993 3.22461C10.9279 3.23574 10.9518 3.25161 10.9713 3.27273C10.9907 3.29433 11.0033 3.31871 11.0093 3.34571C11.0153 3.37272 11.0144 3.40103 11.0066 3.43114Z" fill="#434244"/>
<path d="M11.3932 3.39964H11.4076C11.4495 3.39964 11.4786 3.39555 11.4945 3.38704C11.5105 3.37837 11.5215 3.36315 11.527 3.34171C11.533 3.31814 11.53 3.30161 11.5176 3.29212C11.5053 3.28247 11.4791 3.27772 11.4392 3.27772H11.4248L11.3932 3.39964ZM11.3743 3.45348L11.3248 3.64381H11.2504L11.3608 3.21848H11.4715C11.5039 3.21848 11.5288 3.22028 11.5456 3.22388C11.5626 3.22748 11.5763 3.2337 11.5869 3.24221C11.5992 3.25252 11.6075 3.26594 11.6114 3.28198C11.6155 3.29834 11.615 3.31602 11.61 3.33549C11.6011 3.36953 11.5846 3.3962 11.5609 3.41568C11.5371 3.43483 11.5061 3.44645 11.4681 3.45037L11.5861 3.64381H11.4963L11.3831 3.45348H11.3743Z" fill="#434244"/>
<path d="M12.7027 3.43358C12.7027 3.43031 12.7036 3.4213 12.7055 3.40625C12.7067 3.39398 12.708 3.38367 12.7087 3.37548C12.7043 3.38514 12.6989 3.39496 12.6927 3.40445C12.6865 3.41427 12.6794 3.42409 12.6711 3.43423L12.4847 3.66089L12.4169 3.42965C12.4139 3.42 12.4117 3.41083 12.4103 3.40199C12.4087 3.39299 12.4075 3.38416 12.4068 3.37548C12.4043 3.38432 12.4011 3.39381 12.397 3.40347C12.3931 3.41329 12.3883 3.42343 12.3827 3.43423L12.276 3.64371H12.203L12.4332 3.20021L12.5077 3.46876C12.5088 3.47302 12.5104 3.48006 12.5125 3.49004C12.5143 3.49986 12.5168 3.51197 12.5194 3.52653C12.5274 3.51442 12.5386 3.49888 12.5535 3.48006C12.5576 3.47515 12.5604 3.47122 12.5625 3.46844L12.7729 3.20021L12.7759 3.64371H12.7023L12.7027 3.43358Z" fill="#434244"/>
<path d="M13.5182 3.43114C13.5237 3.4097 13.5246 3.38924 13.5207 3.36993C13.5166 3.35062 13.5081 3.33328 13.4951 3.31822C13.4825 3.30333 13.4664 3.29171 13.4469 3.28385C13.4272 3.27583 13.4054 3.27158 13.3814 3.27158C13.3575 3.27158 13.3335 3.27567 13.3098 3.28369C13.286 3.29155 13.2636 3.303 13.2429 3.31822C13.2221 3.33295 13.2047 3.3503 13.1909 3.36961C13.1769 3.38892 13.1671 3.40954 13.1615 3.43114C13.156 3.45274 13.1551 3.47303 13.1592 3.49218C13.1631 3.51133 13.1714 3.52851 13.1845 3.54357C13.1973 3.55862 13.2136 3.57041 13.2333 3.5781C13.2526 3.58612 13.2746 3.59021 13.2989 3.59021C13.3225 3.59021 13.3461 3.58612 13.3697 3.5781C13.3933 3.57041 13.4155 3.55862 13.4366 3.54357C13.4573 3.52851 13.4749 3.51133 13.4889 3.49202C13.5029 3.47287 13.5127 3.45258 13.5182 3.43114ZM13.6009 3.43114C13.5931 3.46141 13.5792 3.48989 13.559 3.51689C13.5391 3.54373 13.5141 3.56779 13.4836 3.5889C13.4531 3.61017 13.4205 3.62621 13.3859 3.6375C13.3514 3.64863 13.3169 3.65436 13.2821 3.65436C13.247 3.65436 13.2149 3.64863 13.1859 3.63734C13.157 3.62588 13.1329 3.60985 13.1141 3.5889C13.0944 3.56779 13.0818 3.54389 13.076 3.51722C13.0699 3.49038 13.071 3.46174 13.0788 3.43114C13.0866 3.4007 13.1006 3.37222 13.1205 3.34522C13.1404 3.31822 13.1655 3.29416 13.1961 3.27273C13.2262 3.25161 13.2589 3.23574 13.2933 3.22461C13.3277 3.21348 13.3626 3.20808 13.3979 3.20808C13.4332 3.20808 13.465 3.21348 13.4935 3.22461C13.5221 3.23574 13.5462 3.25161 13.5657 3.27273C13.5849 3.29433 13.5975 3.31871 13.6035 3.34571C13.6097 3.37272 13.6087 3.40103 13.6009 3.43114Z" fill="#434244"/>
<path d="M13.8458 3.64436L13.9604 3.20218L14.2034 3.46222C14.2098 3.46958 14.2163 3.47727 14.2229 3.48562C14.2293 3.49397 14.236 3.50346 14.2428 3.51377L14.3194 3.21887H14.3927L14.2782 3.66089L14.0303 3.3961C14.0235 3.3889 14.0175 3.38154 14.0116 3.37352C14.0056 3.3655 14.0004 3.35715 13.9955 3.34848L13.9187 3.64436H13.8458Z" fill="#434244"/>
<path d="M14.6014 3.64381L14.7117 3.21832H14.9842L14.9689 3.27707H14.7757L14.7481 3.38377H14.9412L14.9254 3.44448H14.7323L14.6966 3.58195H14.8898L14.8738 3.64381H14.6014Z" fill="#434244"/>
<path d="M15.2744 3.64381L15.325 3.44906L15.2203 3.21832H15.3037L15.3686 3.36266C15.37 3.36658 15.372 3.37133 15.3741 3.37722C15.376 3.38328 15.3782 3.38982 15.3803 3.3967C15.3849 3.38999 15.3899 3.3836 15.395 3.37755C15.4 3.37166 15.405 3.36626 15.4101 3.36086L15.5522 3.21832H15.6317L15.4037 3.44906L15.353 3.64381H15.2744Z" fill="#434244"/>
<path d="M17.6384 3.17008H17.7166L17.644 3.47348C17.6332 3.51849 17.6352 3.55239 17.6501 3.57499C17.665 3.59763 17.6926 3.60894 17.733 3.60894C17.7732 3.60894 17.8061 3.59763 17.8318 3.57499C17.8576 3.55239 17.8758 3.51849 17.8866 3.47348L17.9593 3.17008H18.0385L17.964 3.48099C17.9479 3.54855 17.919 3.59912 17.8777 3.63265C17.8364 3.66623 17.7823 3.68299 17.7153 3.68299C17.6482 3.68299 17.6022 3.66626 17.5772 3.63282C17.5521 3.5994 17.5477 3.54878 17.564 3.48099L17.6384 3.17008Z" fill="#434244"/>
<path d="M18.0296 3.67014L18.154 3.15073L18.3904 3.45617C18.3968 3.46477 18.4031 3.474 18.4094 3.48379C18.4157 3.49359 18.4222 3.50459 18.4288 3.5169L18.5118 3.17051H18.585L18.4607 3.68953L18.2193 3.37864C18.2128 3.37026 18.2068 3.3614 18.2012 3.35206C18.1955 3.34272 18.1904 3.33292 18.1857 3.32271L18.1025 3.67014H18.0296Z" fill="#434244"/>
<path d="M18.5752 3.67043L18.6949 3.17081H18.7741L18.6544 3.67043H18.5752Z" fill="#434244"/>
<path d="M18.7692 3.67043L18.8888 3.17081H19.1607L19.1442 3.23973H18.9515L18.9217 3.36429H19.1144L19.0973 3.43561H18.9046L18.8484 3.67043H18.7692Z" fill="#434244"/>
<path d="M19.1309 3.67043L19.2505 3.17081H19.3297L19.2101 3.67043H19.1309Z" fill="#434244"/>
<path d="M19.3238 3.67043L19.4434 3.17081H19.7154L19.6988 3.23973H19.5061L19.4761 3.36497H19.6688L19.6518 3.43631H19.4591L19.4204 3.59774H19.6131L19.5957 3.67043H19.3238Z" fill="#434244"/>
<path d="M19.7793 3.59603H19.8458C19.8824 3.59603 19.9105 3.59352 19.93 3.58852C19.9495 3.58353 19.9674 3.57509 19.9838 3.56326C20.0061 3.54715 20.0247 3.52705 20.0397 3.50304C20.0546 3.47905 20.0659 3.45108 20.0736 3.41922C20.0811 3.38736 20.0832 3.35948 20.0798 3.33552C20.0763 3.31147 20.0673 3.29141 20.0528 3.27524C20.0419 3.26344 20.0274 3.25498 20.0094 3.24995C19.9914 3.24499 19.962 3.24247 19.9212 3.24247H19.8926H19.8639L19.7793 3.59603ZM19.6825 3.66943L19.8022 3.16978H19.909C19.9784 3.16978 20.0264 3.17333 20.053 3.1805C20.0796 3.1877 20.1015 3.19972 20.1188 3.21654C20.1417 3.23861 20.1562 3.26694 20.1625 3.30148C20.1687 3.33608 20.1665 3.37556 20.1559 3.41993C20.1453 3.46429 20.1286 3.5036 20.1059 3.53784C20.0832 3.5721 20.055 3.60034 20.0215 3.62264C19.9962 3.63949 19.969 3.65148 19.9402 3.65868C19.9112 3.66582 19.8681 3.66943 19.8106 3.66943H19.7893H19.6825Z" fill="#434244"/>
<path d="M20.5427 3.37967H20.563C20.6069 3.37967 20.6374 3.37474 20.6544 3.36497C20.6714 3.35521 20.6829 3.33791 20.6888 3.3131C20.6952 3.28649 20.6919 3.26769 20.6788 3.2568C20.6658 3.24588 20.6383 3.24038 20.5964 3.24038H20.5761L20.5427 3.37967ZM20.5218 3.44616L20.4681 3.67043H20.3939L20.5136 3.17081H20.6334C20.6689 3.17081 20.6945 3.17279 20.7103 3.17677C20.7261 3.18072 20.7391 3.18729 20.7494 3.19641C20.7619 3.20801 20.7701 3.22364 20.7741 3.24331C20.778 3.26301 20.7771 3.28468 20.7715 3.3083C20.7658 3.33198 20.7562 3.35382 20.7428 3.37386C20.7294 3.39387 20.7136 3.40959 20.6956 3.42093C20.681 3.43005 20.6648 3.43654 20.6472 3.44038C20.6295 3.44427 20.6029 3.44616 20.5674 3.44616H20.5518H20.5218Z" fill="#434244"/>
<path d="M20.8702 3.47421H21.0059L20.9833 3.3602C20.9822 3.35295 20.9812 3.3446 20.9803 3.33514C20.9795 3.32569 20.9789 3.31516 20.9786 3.30356C20.9733 3.31448 20.968 3.32467 20.9627 3.33413C20.9575 3.34355 20.9524 3.35224 20.9474 3.3602L20.8702 3.47421ZM21.0422 3.67043L21.0177 3.54178H20.8246L20.7373 3.67043H20.6541L21.0144 3.15103L21.1257 3.67043H21.0422Z" fill="#434244"/>
<path d="M21.2411 3.67043L21.2958 3.44176L21.1967 3.17081H21.2799L21.3414 3.34042C21.3429 3.34476 21.3446 3.35044 21.3465 3.35749C21.3485 3.36455 21.3504 3.37214 21.3522 3.38035C21.3572 3.37239 21.3623 3.36483 21.3674 3.3578C21.3725 3.35075 21.3777 3.34428 21.3829 3.33836L21.5278 3.17081H21.6071L21.3744 3.44176L21.3196 3.67043H21.2411Z" fill="#434244"/>
<path d="M21.9935 3.42261C21.9935 3.41874 21.9946 3.40808 21.9968 3.39055C21.9985 3.37599 21.9999 3.36391 22.0008 3.35434C21.9961 3.36575 21.9905 3.37715 21.9842 3.38849C21.9778 3.39987 21.9704 3.41146 21.962 3.42332L21.7708 3.68953L21.7084 3.41787C21.7057 3.40669 21.7037 3.39589 21.7024 3.38544C21.701 3.37497 21.7001 3.36462 21.6996 3.35434C21.6969 3.36484 21.6935 3.37579 21.6892 3.38731C21.685 3.39879 21.68 3.41081 21.6741 3.42332L21.5629 3.66938H21.4901L21.7299 3.14856L21.7982 3.46393C21.7992 3.46892 21.8006 3.47725 21.8024 3.48885C21.8041 3.50044 21.8062 3.51478 21.8086 3.53183C21.8167 3.51749 21.8283 3.49932 21.8436 3.47725C21.8477 3.47132 21.8508 3.46678 21.8529 3.46359L22.0688 3.14856L22.0619 3.66938H21.9883L21.9935 3.42261Z" fill="#434244"/>
<path d="M22.1271 3.66943L22.2468 3.16981H22.5187L22.5022 3.23872H22.3094L22.2795 3.36397H22.4722L22.4551 3.43531H22.2624L22.2237 3.59673H22.4164L22.399 3.66943H22.1271Z" fill="#434244"/>
<path d="M22.4908 3.67014L22.6152 3.15073L22.8516 3.45617C22.8579 3.46477 22.8643 3.474 22.8706 3.48379C22.8769 3.49359 22.8834 3.50459 22.89 3.5169L22.9729 3.17051H23.0462L22.9218 3.68953L22.6805 3.37864C22.674 3.37026 22.668 3.3614 22.6624 3.35206C22.6567 3.34272 22.6516 3.33292 22.6469 3.32271L22.5637 3.67014H22.4908Z" fill="#434244"/>
<path d="M23.2974 3.23973L23.1942 3.67043H23.115L23.2181 3.23973H23.0887L23.1052 3.17081H23.4427L23.4262 3.23973H23.2974Z" fill="#434244"/>
<path d="M23.3791 3.56969L23.4495 3.53969C23.4502 3.56195 23.4571 3.57897 23.4702 3.59068C23.4834 3.60242 23.5024 3.60827 23.5273 3.60827C23.5508 3.60827 23.5711 3.60155 23.5882 3.58812C23.6053 3.57471 23.6165 3.55673 23.6219 3.53421C23.629 3.50484 23.6114 3.47867 23.5695 3.45573C23.5636 3.45232 23.5591 3.4498 23.556 3.4482C23.5087 3.42136 23.4787 3.39706 23.4661 3.37533C23.4534 3.3536 23.4508 3.32704 23.4584 3.29566C23.4681 3.25494 23.4895 3.22195 23.5225 3.19669C23.5555 3.17143 23.5939 3.15879 23.6376 3.15879C23.6735 3.15879 23.7019 3.1659 23.7227 3.18012C23.7434 3.19438 23.7553 3.21478 23.7582 3.24139L23.6885 3.27416C23.6825 3.25847 23.6745 3.24698 23.6646 3.23967C23.6547 3.23239 23.6422 3.22875 23.6271 3.22875C23.6059 3.22875 23.5876 3.23448 23.5723 3.24579C23.5571 3.2572 23.5471 3.27244 23.5425 3.29157C23.5354 3.3216 23.5562 3.34956 23.605 3.3755C23.6087 3.37753 23.6117 3.37917 23.6138 3.3803C23.6565 3.40301 23.6843 3.42528 23.697 3.44701C23.7098 3.46877 23.7123 3.49589 23.7045 3.5284C23.6932 3.57575 23.6696 3.61334 23.6339 3.6412C23.5981 3.66905 23.5555 3.68299 23.5061 3.68299C23.4645 3.68299 23.4329 3.67323 23.4111 3.65364C23.3892 3.63409 23.3786 3.60612 23.3791 3.56969Z" fill="#434244"/>
<path d="M23.9628 3.67043L24.0825 3.17081H24.1617L24.042 3.67043H23.9628Z" fill="#434244"/>
<path d="M24.1588 3.67014L24.2832 3.15073L24.5195 3.45617C24.5259 3.46477 24.5322 3.474 24.5385 3.48379C24.5448 3.49359 24.5513 3.50459 24.5579 3.5169L24.6409 3.17051H24.7141L24.5898 3.68953L24.3484 3.37864C24.3419 3.37026 24.3359 3.3614 24.3303 3.35206C24.3246 3.34272 24.3195 3.33292 24.3148 3.32271L24.2316 3.67014H24.1588Z" fill="#434244"/>
<path d="M24.9673 3.23872L24.8641 3.66943H24.7849L24.8881 3.23872H24.7586L24.7751 3.16981H25.1126L25.0961 3.23872H24.9673Z" fill="#434244"/>
<path d="M25.051 3.66943L25.1707 3.16981H25.4426L25.4261 3.23872H25.2334L25.2033 3.36397H25.3961L25.379 3.43531H25.1863L25.1476 3.59673H25.3403L25.3229 3.66943H25.051Z" fill="#434244"/>
<path d="M25.5616 3.38374H25.5759C25.6178 3.38374 25.6469 3.37877 25.663 3.36875C25.6792 3.35873 25.6904 3.34101 25.6964 3.3155C25.703 3.28798 25.7003 3.26857 25.6882 3.25734C25.6762 3.24602 25.6502 3.2404 25.6103 3.2404H25.5959L25.5616 3.38374ZM25.5415 3.44687L25.4879 3.67043H25.4137L25.5334 3.17081H25.6439C25.6763 3.17081 25.7009 3.17296 25.7177 3.1773C25.7345 3.18162 25.7481 3.18876 25.7583 3.19881C25.7705 3.21083 25.7784 3.22646 25.7821 3.24557C25.7857 3.26465 25.7848 3.28559 25.7793 3.3083C25.7698 3.34835 25.7528 3.3797 25.7285 3.40236C25.7043 3.42497 25.6731 3.4386 25.6352 3.44311L25.7486 3.67043H25.659L25.5505 3.44687H25.5415Z" fill="#434244"/>
<path d="M25.7955 3.67043L25.9152 3.17081H26.1871L26.1706 3.23973H25.9779L25.948 3.36429H26.1408L26.1237 3.43561H25.931L25.8747 3.67043H25.7955Z" fill="#434244"/>
<path d="M26.2789 3.47321H26.4147L26.392 3.3592C26.3909 3.35194 26.3899 3.34359 26.389 3.33414C26.3882 3.32468 26.3876 3.31416 26.3873 3.30256C26.382 3.31348 26.3767 3.32367 26.3715 3.33312C26.3662 3.34255 26.3611 3.35124 26.3561 3.3592L26.2789 3.47321ZM26.4509 3.66943L26.4264 3.54077H26.2334L26.146 3.66943H26.0628L26.4231 3.15002L26.5344 3.66943H26.4509Z" fill="#434244"/>
<path d="M27.0541 3.29157C27.0364 3.27201 27.0162 3.25734 26.9936 3.24754C26.971 3.23781 26.9459 3.23287 26.9184 3.23287C26.8651 3.23287 26.8176 3.25039 26.7758 3.28542C26.734 3.32047 26.7065 3.36585 26.6931 3.42161C26.6802 3.47554 26.6858 3.51999 26.7099 3.55501C26.7341 3.59006 26.7709 3.60762 26.8203 3.60762C26.8492 3.60762 26.8779 3.60237 26.9065 3.5919C26.935 3.58143 26.9639 3.56562 26.9929 3.54443L26.9709 3.63626C26.9458 3.65195 26.9198 3.66369 26.8929 3.6714C26.866 3.67913 26.8379 3.68299 26.8086 3.68299C26.7713 3.68299 26.7383 3.67676 26.7097 3.66423C26.6811 3.65173 26.6577 3.63333 26.6396 3.60894C26.6216 3.58507 26.61 3.55693 26.6051 3.52448C26.6001 3.49208 26.602 3.45754 26.6107 3.42088C26.6195 3.38428 26.6342 3.34987 26.6546 3.31767C26.6751 3.28547 26.7003 3.2572 26.7303 3.23287C26.7604 3.20829 26.7926 3.18972 26.8269 3.17705C26.8612 3.16446 26.8966 3.15811 26.933 3.15811C26.9616 3.15811 26.9879 3.1624 27.0118 3.17095C27.0357 3.17945 27.0578 3.19234 27.0781 3.2097L27.0541 3.29157Z" fill="#434244"/>
<path d="M27.0575 3.66943L27.1772 3.16981H27.4491L27.4326 3.23872H27.2399L27.2099 3.36397H27.4026L27.3855 3.43531H27.1928L27.1541 3.59673H27.3469L27.3294 3.66943H27.0575Z" fill="#434244"/>
<path d="M25.6155 2.73499H25.0711L25.8283 0.00164796H26.3728L25.6155 2.73499Z" fill="#6D6E71"/>
<path d="M25.3281 0.0880452C25.2903 0.036034 25.2321 0.00978819 25.153 0.00978819H22.1591L22.0108 0.54514H22.5555V0.54483H24.7344L24.5759 1.11693H22.397L22.3972 1.11574H21.8526L21.4007 2.74655H21.9455L22.2488 1.65197H24.6981C24.7746 1.65197 24.8466 1.62589 24.9143 1.57374C24.9818 1.52153 25.0263 1.45716 25.0476 1.38028L25.3509 0.285479C25.373 0.206037 25.3654 0.140113 25.3281 0.0880452Z" fill="#6D6E71"/>
<path d="M21.0865 2.56496C21.0564 2.67318 20.9578 2.74805 20.8454 2.74805H18.0362C17.9597 2.74805 17.9028 2.72198 17.8654 2.66988C17.828 2.61773 17.82 2.55322 17.8413 2.47637L18.5268 0.0102234H19.0718L18.4595 2.21287H20.6395L21.2517 0.0102234H21.7965L21.0865 2.56496Z" fill="#6D6E71"/>
<path d="M27.3109 0.00648638L28.0002 1.3767L26.5511 2.74655L27.3109 0.00648638Z" fill="#2B8B4B"/>
<path d="M26.8287 0.00648638L27.5175 1.3767L26.0678 2.74655L26.8287 0.00648638Z" fill="#D9782D"/>
</svg>
