<svg width="16" height="17" viewBox="0 0 16 17" fill="none" xmlns="http://www.w3.org/2000/svg">
<path d="M12.1494 8.08937L12.0459 8.03424L11.9654 8.11963C11.7097 8.3911 11.4227 8.64146 11.093 8.86747L10.8746 9.01719L11.113 9.13247C13.0081 10.0489 14.2696 11.7618 14.2696 13.7035C14.2696 13.9031 14.1399 14.1201 13.835 14.3409C13.5331 14.5597 13.0851 14.762 12.5144 14.934C11.375 15.2774 9.78197 15.4894 7.9879 15.4894C6.19382 15.4894 4.60076 15.2774 3.46135 14.934C2.89069 14.762 2.4427 14.5597 2.14076 14.3409C1.83594 14.1201 1.70619 13.9031 1.70619 13.7035C1.70619 11.7618 2.96769 10.0489 4.86284 9.13247L5.10122 9.0172L4.88282 8.86747C4.55316 8.64146 4.26612 8.39113 4.01035 8.11963L3.9299 8.03424L3.82635 8.08937C1.63085 9.25814 0.153418 11.3313 0.153418 13.7035C0.153418 14.0892 0.280053 14.5447 0.690956 14.9887C1.09871 15.4293 1.77934 15.8513 2.87477 16.1913C4.24105 16.6153 6.05705 16.8466 7.98794 16.8466C9.91883 16.8466 11.7348 16.6153 13.1011 16.1913C14.1965 15.8513 14.8771 15.4293 15.2849 14.9887C15.6958 14.5447 15.8225 14.0892 15.8225 13.7035C15.8224 11.3313 14.3449 9.25814 12.1494 8.08937Z" fill="white" stroke="white" stroke-width="0.3"/>
<path d="M7.98813 9.07062C10.4966 9.07062 12.4264 7.02632 12.4264 4.61204C12.4264 2.19663 10.4956 0.153418 7.98813 0.153418C5.47963 0.153418 3.54982 2.19772 3.54982 4.612C3.54982 7.02741 5.48066 9.07062 7.98813 9.07062ZM7.98813 1.51064C9.5693 1.51064 10.8737 2.89194 10.8737 4.612C10.8737 6.33206 9.5693 7.71336 7.98813 7.71336C6.40696 7.71336 5.10259 6.33206 5.10259 4.612C5.10259 2.89194 6.40696 1.51064 7.98813 1.51064Z" fill="white" stroke="white" stroke-width="0.3"/>
</svg>
