<svg width="13" height="14" viewBox="0 0 13 14" fill="none" xmlns="http://www.w3.org/2000/svg">
<path d="M1.62518 13.0014H7.04244C7.47346 13.0014 7.88684 12.8302 8.19162 12.5254C8.4964 12.2206 8.66762 11.8073 8.66762 11.3763V10.8345C8.66762 10.6909 8.61055 10.5531 8.50895 10.4515C8.40736 10.3499 8.26957 10.2928 8.12589 10.2928C7.98222 10.2928 7.84443 10.3499 7.74283 10.4515C7.64124 10.5531 7.58417 10.6909 7.58417 10.8345V11.3763C7.58417 11.5199 7.52709 11.6577 7.4255 11.7593C7.32391 11.8609 7.18612 11.918 7.04244 11.918H1.62518C1.4815 11.918 1.34371 11.8609 1.24212 11.7593C1.14053 11.6577 1.08345 11.5199 1.08345 11.3763V1.62518C1.08345 1.4815 1.14053 1.34371 1.24212 1.24212C1.34371 1.14053 1.4815 1.08345 1.62518 1.08345H7.04244C7.18612 1.08345 7.32391 1.14053 7.4255 1.24212C7.52709 1.34371 7.58417 1.4815 7.58417 1.62518V2.1669C7.58417 2.31058 7.64124 2.44837 7.74283 2.54996C7.84443 2.65156 7.98222 2.70863 8.12589 2.70863C8.26957 2.70863 8.40736 2.65156 8.50895 2.54996C8.61055 2.44837 8.66762 2.31058 8.66762 2.1669V1.62518C8.66762 1.19415 8.4964 0.780784 8.19162 0.476004C7.88684 0.171224 7.47346 0 7.04244 0H1.62518C1.19415 0 0.780784 0.171224 0.476004 0.476004C0.171224 0.780784 0 1.19415 0 1.62518V11.3763C0 11.8073 0.171224 12.2206 0.476004 12.5254C0.780784 12.8302 1.19415 13.0014 1.62518 13.0014Z" fill="white"/>
<path d="M10.9918 3.81923C10.8881 3.73048 10.7548 3.6841 10.6185 3.68937C10.4821 3.69464 10.3528 3.75115 10.2563 3.84763C10.1598 3.94411 10.1033 4.07344 10.0981 4.20978C10.0928 4.34612 10.1392 4.47943 10.2279 4.58306L11.5985 5.95905H3.79221C3.64854 5.95905 3.51075 6.01612 3.40916 6.11771C3.30756 6.21931 3.25049 6.3571 3.25049 6.50077C3.25049 6.64445 3.30756 6.78224 3.40916 6.88383C3.51075 6.98542 3.64854 7.0425 3.79221 7.0425H11.5985L10.2279 8.41848C10.127 8.51998 10.0704 8.65728 10.0704 8.8004C10.0704 8.94352 10.127 9.08082 10.2279 9.18232C10.3294 9.28321 10.4667 9.33985 10.6098 9.33985C10.753 9.33985 10.8903 9.28321 10.9918 9.18232L12.5248 7.64923C12.8292 7.34451 13.0001 6.93145 13.0001 6.50077C13.0001 6.0701 12.8292 5.65703 12.5248 5.35231L10.9918 3.81923Z" fill="white"/>
</svg>
