<svg width="202" height="126" viewBox="0 0 202 126" fill="none" xmlns="http://www.w3.org/2000/svg">
<path d="M11.2771 125.714C11.2771 125.714 -11.3164 99.19 7.45629 70.4736C24.1123 44.9952 43.5319 46.7362 57.7791 57.0759C63.8475 61.48 81.3426 57.6186 96.2339 31.693C116.541 -3.66252 186.933 17.7805 174.098 72.1761C167.887 98.4996 193.001 99.4563 180.205 125.769L11.2771 125.714Z" fill="#EBF3FA"/>
<path d="M166.776 24.8785C166.776 24.8785 165.952 24.2566 165.739 23.3267C165.581 22.637 165.977 21.7711 166.009 21.7318L164.905 21.5117C164.905 21.5117 164.578 22.9765 165.131 23.951C165.301 24.2496 165.793 24.6607 166.11 24.8139C166.459 24.984 166.776 24.8785 166.776 24.8785Z" fill="#6BB7BF"/>
<path d="M168.694 24.2074L169.698 25.3566C169.698 25.3566 166.859 26.1102 165.237 24.1019C165.236 24.1019 167.626 24.9101 168.694 24.2074Z" fill="#86D1CD"/>
<path d="M116.927 9.78205C116.927 9.78205 117.952 8.08168 119.76 9.12238L120.751 8.04473C120.751 8.04473 119.716 7.35966 117.529 8.84912C116.096 9.82362 116.927 9.78205 116.927 9.78205Z" fill="#F99746"/>
<path d="M115.915 11.4501C115.915 11.4501 115.571 9.59651 118.623 8.22867C118.623 8.22867 117.529 8.84985 117.3 10.7342L115.915 11.4501Z" fill="#F99746"/>
<path d="M53.7147 64.9766C53.7147 64.9766 52.0366 64.3154 52.6955 62.5396L51.5809 61.8153C51.5809 61.8153 51.1237 62.8452 52.7887 64.5802C53.8779 65.7148 53.7147 64.9766 53.7147 64.9766Z" fill="#5685D8"/>
<path d="M55.361 65.6315C55.361 65.6315 53.7522 66.2196 52.0665 63.6933C52.0665 63.6933 52.7877 64.58 54.5104 64.5L55.361 65.6315Z" fill="#739AF0"/>
<path d="M58.5502 41.7098C58.5502 41.7098 59.4762 41.1247 59.574 40.4181C59.574 40.4181 60.4753 40.4666 60.6708 40.7591C60.6708 40.7591 60.2567 41.9291 59.7695 42.1485C59.7687 42.1485 58.6726 42.2216 58.5502 41.7098Z" fill="#F1A34F"/>
<path d="M8.882 84.5798C8.882 84.5798 7.89442 83.9555 7.78974 83.202C7.78974 83.202 6.82755 83.2543 6.61972 83.5661C6.61972 83.5661 7.06156 84.8138 7.5819 85.0478C7.5819 85.0478 8.75192 85.1263 8.882 84.5798Z" fill="#F1A34F"/>
<path d="M108.465 28.8988C108.465 28.8988 107.085 28.0275 106.94 26.9744C106.94 26.9744 105.596 27.0468 105.306 27.4825C105.306 27.4825 105.923 29.2252 106.65 29.5523C106.649 29.5523 108.283 29.6608 108.465 28.8988Z" fill="#86D1CD"/>
<path d="M193.19 24.846L201.768 51.704C202.146 52.8886 201.486 54.1687 200.301 54.5474L153.185 69.5959C152 69.9746 150.72 69.3142 150.342 68.1296L141.764 41.2716C141.385 40.087 142.045 38.8069 143.23 38.4282L190.346 23.3797C191.532 23.001 192.811 23.6606 193.19 24.846Z" fill="#CDE0FB"/>
<path d="M166.094 58.9867L153.537 62.997C153.005 63.1664 152.432 62.8708 152.262 62.3397L152.223 62.2188C152.053 61.6877 152.35 61.1143 152.881 60.9441L165.438 56.933C165.969 56.7636 166.543 57.0592 166.713 57.5904L166.752 57.7112C166.921 58.2439 166.625 58.8173 166.094 58.9867Z" fill="#AFCDFB"/>
<path d="M182.642 53.7014L170.084 57.7126C169.553 57.8819 168.979 57.5863 168.809 57.0552L168.771 56.9344C168.601 56.4032 168.897 55.8298 169.428 55.6597L181.986 51.6485C182.517 51.4792 183.09 51.7748 183.26 52.3059L183.299 52.4267C183.468 52.9579 183.173 53.5313 182.642 53.7014Z" fill="#AFCDFB"/>
<path d="M167.696 44.6279C167.842 45.0859 167.882 45.4861 167.816 45.8295C167.733 46.2628 167.482 46.5461 167.063 46.68C166.643 46.814 166.274 46.7285 165.956 46.4237C165.702 46.182 165.503 45.8325 165.357 45.3745C165.211 44.9165 165.17 44.5186 165.234 44.1784C165.317 43.745 165.569 43.4609 165.992 43.3262C166.414 43.1915 166.785 43.2762 167.103 43.581C167.352 43.8212 167.55 44.1699 167.696 44.6279ZM167.119 44.8095C167.027 44.5224 166.918 44.2915 166.79 44.1175C166.596 43.8566 166.385 43.7627 166.158 43.835C165.925 43.9097 165.806 44.1075 165.801 44.4285C165.796 44.6456 165.839 44.8988 165.932 45.189C166.181 45.9703 166.505 46.2975 166.904 46.1697C167.134 46.0958 167.251 45.8957 167.254 45.5685C167.257 45.3561 167.213 45.1028 167.119 44.8095Z" fill="#AFCDFB"/>
<path d="M170.274 43.8041C170.42 44.2621 170.46 44.6624 170.394 45.0057C170.311 45.439 170.06 45.7223 169.641 45.8562C169.221 45.9902 168.852 45.9047 168.534 45.5999C168.28 45.3582 168.081 45.0087 167.935 44.5507C167.789 44.0927 167.748 43.6948 167.812 43.3546C167.895 42.9212 168.147 42.6372 168.57 42.5024C168.992 42.3677 169.363 42.4524 169.681 42.7572C169.931 42.9982 170.128 43.3461 170.274 43.8041ZM169.698 43.9857C169.606 43.6986 169.497 43.4677 169.369 43.2937C169.175 43.0328 168.964 42.9389 168.737 43.0112C168.504 43.0859 168.384 43.2837 168.38 43.6047C168.374 43.8218 168.417 44.075 168.511 44.3652C168.76 45.1465 169.084 45.4737 169.483 45.3459C169.713 45.272 169.83 45.0719 169.833 44.7447C169.836 44.5323 169.791 44.279 169.698 43.9857Z" fill="#AFCDFB"/>
<path d="M174.181 42.5564C174.327 43.0144 174.367 43.4147 174.301 43.758C174.218 44.1913 173.967 44.4746 173.547 44.6085C173.128 44.7425 172.759 44.657 172.44 44.3522C172.187 44.1105 171.988 43.7611 171.842 43.3031C171.695 42.8451 171.654 42.4471 171.718 42.1069C171.802 41.6735 172.054 41.3895 172.477 41.2548C172.899 41.1201 173.269 41.2047 173.588 41.5096C173.837 41.7497 174.035 42.0984 174.181 42.5564ZM173.604 42.7381C173.513 42.451 173.403 42.22 173.276 42.0461C173.082 41.7851 172.871 41.6912 172.644 41.7636C172.41 41.8382 172.291 42.0361 172.286 42.357C172.281 42.5741 172.324 42.8274 172.417 43.1176C172.667 43.8988 172.991 44.226 173.389 44.0982C173.62 44.0243 173.737 43.8242 173.74 43.497C173.743 43.2838 173.698 43.0313 173.604 42.7381Z" fill="#AFCDFB"/>
<path d="M176.76 41.7328C176.906 42.1908 176.946 42.5911 176.88 42.9344C176.797 43.3678 176.546 43.651 176.126 43.785C175.707 43.9189 175.338 43.8335 175.019 43.5287C174.766 43.287 174.567 42.9375 174.421 42.4795C174.274 42.0215 174.233 41.6235 174.297 41.2833C174.381 40.8499 174.633 40.5659 175.056 40.4312C175.478 40.2965 175.848 40.3812 176.167 40.6867C176.416 40.9261 176.614 41.2748 176.76 41.7328ZM176.183 41.9145C176.092 41.6274 175.982 41.3965 175.855 41.2225C175.661 40.9616 175.45 40.8676 175.223 40.94C174.989 41.0147 174.87 41.2125 174.865 41.5335C174.86 41.7505 174.903 42.0038 174.996 42.294C175.246 43.0753 175.57 43.4024 175.968 43.2746C176.199 43.2007 176.316 43.0006 176.319 42.6735C176.322 42.4602 176.277 42.2078 176.183 41.9145Z" fill="#AFCDFB"/>
<path d="M179.339 40.909C179.485 41.367 179.525 41.7673 179.459 42.1106C179.376 42.544 179.125 42.8272 178.705 42.9612C178.286 43.0951 177.917 43.0097 177.598 42.7049C177.345 42.4632 177.146 42.1137 177 41.6557C176.853 41.1977 176.813 40.7997 176.876 40.4595C176.96 40.0261 177.212 39.7421 177.635 39.6074C178.057 39.4727 178.427 39.5574 178.746 39.8629C178.995 40.1031 179.193 40.451 179.339 40.909ZM178.762 41.0907C178.671 40.8036 178.561 40.5727 178.434 40.3987C178.24 40.1378 178.029 40.0438 177.802 40.1162C177.568 40.1909 177.449 40.3887 177.444 40.7097C177.439 40.9267 177.482 41.18 177.575 41.4702C177.825 42.2515 178.149 42.5786 178.548 42.4508C178.778 42.3769 178.895 42.1768 178.898 41.8497C178.901 41.6372 178.855 41.384 178.762 41.0907Z" fill="#AFCDFB"/>
<path d="M181.917 40.0855C182.063 40.5435 182.103 40.9437 182.037 41.2871C181.954 41.7204 181.703 42.0037 181.283 42.1376C180.864 42.2716 180.495 42.1861 180.176 41.8813C179.923 41.6396 179.724 41.2901 179.578 40.8321C179.431 40.3741 179.391 39.9762 179.454 39.636C179.538 39.2026 179.79 38.9186 180.213 38.7838C180.635 38.6491 181.005 38.7338 181.324 39.0394C181.574 39.2796 181.771 39.6275 181.917 40.0855ZM181.34 40.2671C181.249 39.98 181.139 39.7491 181.012 39.5751C180.818 39.3142 180.607 39.2203 180.38 39.2926C180.146 39.3673 180.027 39.5651 180.022 39.8861C180.017 40.1032 180.06 40.3564 180.153 40.6466C180.403 41.4279 180.727 41.7551 181.126 41.6273C181.356 41.5534 181.473 41.3533 181.476 41.0261C181.479 40.8137 181.434 40.5604 181.34 40.2671Z" fill="#AFCDFB"/>
<path d="M185.824 38.8378C185.971 39.2958 186.011 39.6961 185.945 40.0394C185.861 40.4728 185.611 40.756 185.191 40.89C184.771 41.0239 184.403 40.9385 184.084 40.6336C183.831 40.3919 183.631 40.0425 183.485 39.5845C183.339 39.1265 183.298 38.7285 183.362 38.3883C183.445 37.9549 183.698 37.6709 184.12 37.5362C184.543 37.4015 184.913 37.4862 185.232 37.791C185.48 38.0311 185.678 38.3798 185.824 38.8378ZM185.248 39.0195C185.156 38.7324 185.046 38.5015 184.919 38.3275C184.725 38.0665 184.514 37.9726 184.287 38.045C184.054 38.1197 183.935 38.3175 183.93 38.6385C183.925 38.8555 183.968 39.1088 184.061 39.399C184.31 40.1803 184.634 40.5074 185.033 40.3796C185.263 40.3057 185.38 40.1056 185.383 39.7785C185.386 39.5652 185.341 39.3128 185.248 39.0195Z" fill="#AFCDFB"/>
<path d="M188.403 38.014C188.549 38.472 188.589 38.8723 188.523 39.2156C188.439 39.649 188.189 39.9322 187.769 40.0662C187.35 40.2001 186.981 40.1147 186.662 39.8098C186.409 39.5681 186.21 39.2187 186.063 38.7607C185.917 38.3027 185.876 37.9047 185.94 37.5645C186.023 37.1311 186.276 36.8471 186.698 36.7124C187.121 36.5777 187.491 36.6624 187.81 36.9672C188.059 37.2073 188.256 37.556 188.403 38.014ZM187.826 38.1957C187.734 37.9086 187.625 37.6777 187.497 37.5037C187.303 37.2427 187.092 37.1488 186.865 37.2212C186.632 37.2959 186.513 37.4937 186.508 37.8147C186.503 38.0317 186.546 38.285 186.639 38.5752C186.888 39.3565 187.212 39.6836 187.611 39.5558C187.841 39.4819 187.958 39.2818 187.961 38.9547C187.965 38.7422 187.92 38.489 187.826 38.1957Z" fill="#AFCDFB"/>
<path d="M190.981 37.1905C191.127 37.6485 191.167 38.0487 191.101 38.392C191.017 38.8254 190.767 39.1087 190.347 39.2426C189.928 39.3765 189.559 39.2911 189.24 38.9863C188.987 38.7446 188.788 38.3951 188.641 37.9371C188.495 37.4791 188.454 37.0811 188.518 36.7409C188.601 36.3076 188.854 36.0235 189.276 35.8888C189.699 35.7541 190.069 35.8388 190.388 36.1444C190.636 36.3845 190.834 36.7325 190.981 37.1905ZM190.404 37.3721C190.312 37.085 190.203 36.8541 190.075 36.6801C189.881 36.4192 189.67 36.3253 189.443 36.3976C189.21 36.4723 189.091 36.6701 189.086 36.9911C189.081 37.2082 189.124 37.4614 189.217 37.7516C189.466 38.5329 189.791 38.86 190.189 38.7323C190.419 38.6584 190.536 38.4582 190.539 38.1311C190.543 37.9186 190.497 37.6654 190.404 37.3721Z" fill="#AFCDFB"/>
<path d="M193.56 36.3669C193.706 36.8249 193.746 37.2252 193.68 37.5685C193.597 38.0019 193.346 38.2851 192.926 38.4191C192.507 38.553 192.138 38.4676 191.819 38.1627C191.566 37.921 191.367 37.5716 191.22 37.1136C191.074 36.6556 191.033 36.2576 191.097 35.9174C191.18 35.484 191.433 35.2 191.855 35.0653C192.278 34.9306 192.648 35.0153 192.967 35.3201C193.215 35.561 193.413 35.9097 193.56 36.3669ZM192.982 36.5486C192.891 36.2615 192.781 36.0305 192.654 35.8566C192.46 35.5956 192.249 35.5017 192.022 35.5741C191.788 35.6488 191.669 35.8466 191.664 36.1676C191.659 36.3846 191.702 36.6379 191.795 36.9281C192.045 37.7094 192.369 38.0365 192.767 37.9087C192.998 37.8348 193.115 37.6347 193.118 37.3076C193.121 37.0951 193.076 36.8419 192.982 36.5486Z" fill="#AFCDFB"/>
<path d="M159.061 37.8954L146.772 41.8204C146.241 41.9905 145.668 41.6941 145.498 41.163C145.328 40.6319 145.624 40.0584 146.155 39.8883L158.444 35.9634C158.975 35.794 159.549 36.0896 159.719 36.6207C159.889 37.1526 159.593 37.7261 159.061 37.8954Z" fill="#AFCDFB"/>
<path d="M188.91 30.6286C188.798 30.2776 188.573 29.9943 188.287 29.8049C188.204 29.7495 188.092 29.7795 188.047 29.8688L188.009 29.9458C187.972 30.0197 187.994 30.1105 188.062 30.1567C188.269 30.2953 188.431 30.5016 188.513 30.7556C188.594 31.0104 188.581 31.2721 188.494 31.5045C188.464 31.5823 188.498 31.6693 188.572 31.7078L188.648 31.7478C188.736 31.794 188.845 31.7532 188.881 31.66C189.003 31.3406 189.022 30.9796 188.91 30.6286Z" fill="#AFCDFB"/>
<path d="M189.707 30.3744C189.523 29.7978 189.139 29.3391 188.657 29.0512C188.575 29.0027 188.469 29.035 188.426 29.1205L188.404 29.1643C188.365 29.2421 188.393 29.3368 188.468 29.3814C188.87 29.6246 189.19 30.0087 189.344 30.4906C189.498 30.9725 189.461 31.4705 189.274 31.9023C189.239 31.9824 189.27 32.0763 189.348 32.1171L189.391 32.1402C189.475 32.1848 189.581 32.1494 189.619 32.0624C189.844 31.5467 189.891 30.9509 189.707 30.3744Z" fill="#AFCDFB"/>
<path d="M190.404 30.1512C190.157 29.38 189.638 28.7696 188.985 28.3939C188.903 28.347 188.798 28.3793 188.755 28.464C188.716 28.5425 188.744 28.6379 188.82 28.6818C189.404 29.0174 189.868 29.5624 190.088 30.2521C190.308 30.9418 190.246 31.6553 189.965 32.2665C189.928 32.3466 189.96 32.4405 190.038 32.482C190.122 32.5259 190.227 32.492 190.266 32.4058C190.58 31.7208 190.65 30.9233 190.404 30.1512Z" fill="#AFCDFB"/>
<path d="M191.16 29.9103C190.845 28.9273 190.178 28.1545 189.342 27.6857C189.26 27.6395 189.155 27.6711 189.112 27.7558L189.074 27.8312C189.034 27.9105 189.063 28.0067 189.14 28.0498C189.886 28.4693 190.481 29.1598 190.762 30.0373C191.042 30.9148 190.957 31.8223 190.592 32.5959C190.555 32.676 190.587 32.7714 190.665 32.8122L190.739 32.8515C190.823 32.8953 190.927 32.8607 190.967 32.7753C191.377 31.9093 191.474 30.8925 191.16 29.9103Z" fill="#AFCDFB"/>
<path d="M159.452 48.1671H132.627V125.433H159.452V48.1671Z" fill="#F0792E"/>
<path d="M132.627 48.1671H61.7593V125.433H132.627V48.1671Z" fill="#F9AD7D"/>
<path d="M132.627 91.3727V85.9644L61.7592 85.9644V91.3727L132.627 91.3727Z" fill="#FFA412"/>
<path d="M159.453 91.3724V85.9642H132.628V91.3724L159.453 91.3724Z" fill="#FA9712"/>
<path d="M110.62 48.9947C110.62 48.9947 126.631 38.5908 137.514 41.9339L135.269 44.0306L136.28 47.5545C136.28 47.5545 124.178 43.6134 110.289 49.5874L110.62 48.9947Z" fill="#F99746"/>
<path d="M109.725 46.6386C109.725 46.6386 106.9 46.2968 102.69 45.7179C91.5124 44.18 70.5761 40.964 66.8182 37.9874C60.9135 33.3112 74.9052 13.4525 80.9623 10.6961C87.0186 7.94194 109.725 46.6386 109.725 46.6386Z" fill="#F99746"/>
<path d="M154.022 21.9089C155.031 26.8291 109.31 48.0833 109.31 48.0833C109.31 48.0833 110.142 45.8341 111.495 42.3117C111.495 42.3117 111.497 42.3087 111.499 42.3056C116.442 29.4424 128.35 -0.40835 132.263 0.00423369C132.657 0.0450302 133.116 0.185124 133.63 0.410659C139.64 3.0555 153.092 17.3781 154.022 21.9089Z" fill="#F99746"/>
<path d="M133.243 4.78589C130.452 9.63605 111.79 41.8045 111.498 42.3056C116.442 29.4424 128.349 -0.40835 132.263 0.00423369C132.263 0.00423369 133.038 -0.018089 133.629 0.410659C134.342 0.931007 134.785 2.10795 133.243 4.78589Z" fill="#ED7D2B"/>
<path d="M102.697 45.7178H102.689C91.5116 44.1798 70.5753 40.9638 66.8174 37.9872C65.1209 33.2079 69.523 32.8184 72.7275 32.482C75.9289 32.1456 102.697 45.7178 102.697 45.7178Z" fill="#ED7D2B"/>
<path d="M101.198 48.1611C101.198 48.1611 103.761 42.3302 108.805 42.0077C114.074 41.6706 117.066 48.1611 117.066 48.1611H101.198Z" fill="#ED7D2B"/>
<path d="M133.764 48.1671H59.6108V58.7942H133.764V48.1671Z" fill="#FFC261"/>
<path d="M161.714 48.1671H133.764V58.7942H161.714V48.1671Z" fill="#FA9712"/>
<path d="M103.794 47.2766C103.794 47.2766 89.2709 42.6758 79.4705 45.7178C68.1738 49.224 68.8434 63.1626 68.8434 63.1626L71.5006 62.0703L75.0876 63.753C75.0876 63.753 75.6926 48.9931 84.9026 46.9263C92.8656 45.1405 103.794 47.2766 103.794 47.2766Z" fill="#F99746"/>
<path d="M96.3448 48.1671H90.9366V125.425H96.3448V48.1671Z" fill="#FFA412"/>
<path d="M40.8807 42.2702L35.9154 43.9344L40.7086 58.2355L45.6739 56.5714L40.8807 42.2702Z" fill="#ED7D2B"/>
<path d="M35.9155 43.9354L22.7982 48.3318L27.5914 62.6329L40.7087 58.2365L35.9155 43.9354Z" fill="#F99746"/>
<path d="M38.591 51.9339L38.2557 50.9333L25.1384 55.3297L25.4738 56.3303L38.591 51.9339Z" fill="#FFB93E"/>
<path d="M43.5553 50.2699L43.22 49.2693L38.2546 50.9335L38.59 51.9341L43.5553 50.2699Z" fill="#F69B34"/>
<path d="M32.2901 44.9035C32.2901 44.9035 35.6993 41.7306 38.7352 41.4843L38.301 42.0462L38.8045 42.6128C38.8045 42.6128 35.4137 42.8452 32.2455 45.0382L32.2901 44.9035Z" fill="#FFB93E"/>
<path d="M31.5776 45.072C31.5776 45.072 31.0334 45.1844 30.2182 45.3383C28.0537 45.7471 23.9794 46.4506 23.0996 46.1327C21.7164 45.6339 23.0742 41.0901 24.0249 40.2041C24.9747 39.3182 31.5776 45.072 31.5776 45.072Z" fill="#FFB93E"/>
<path d="M38.2431 37.7473C38.7349 38.5956 31.5909 45.3655 31.5909 45.3655C31.5909 45.3655 31.6056 44.8975 31.6371 44.1616C31.6371 44.1616 31.6371 44.1608 31.6371 44.1601C31.7541 41.4729 32.1067 35.2087 32.8564 35.0424C32.9318 35.0255 33.0257 35.0232 33.1343 35.0332C34.4113 35.1502 37.7897 36.966 38.2431 37.7473Z" fill="#FFB93E"/>
<path d="M33.3352 35.8667C33.1196 36.9374 31.661 44.049 31.6379 44.1599C31.7549 41.4727 32.1074 35.2085 32.8572 35.0423C32.8572 35.0423 32.9996 34.9899 33.135 35.033C33.299 35.0854 33.4537 35.2755 33.3352 35.8667Z" fill="#F69B34"/>
<path d="M30.2201 45.3377L30.2186 45.3384C28.054 45.7472 23.9798 46.4507 23.1 46.1328C22.4896 45.3538 23.2801 45.0082 23.852 44.7473C24.4239 44.4863 30.2201 45.3377 30.2201 45.3377Z" fill="#F69B34"/>
<path d="M30.094 45.8824C30.094 45.8824 30.2064 44.6439 31.1201 44.2714C32.0746 43.8819 33.0306 44.8979 33.0306 44.8979L30.094 45.8824Z" fill="#F69B34"/>
<path d="M36.1253 43.8646L22.4 48.4648L23.0593 50.4318L36.7845 45.8316L36.1253 43.8646Z" fill="#FFA15A"/>
<path d="M41.2991 42.1303L36.1257 43.8642L36.785 45.8312L41.9583 44.0973L41.2991 42.1303Z" fill="#F78639"/>
<path d="M30.5203 45.5578C30.5203 45.5578 27.5468 45.6071 25.9218 46.7778C24.0483 48.1272 25.0374 50.6658 25.0374 50.6658L25.4615 50.2987L26.2297 50.3879C26.2297 50.3879 25.4261 47.6184 27.0026 46.6647C28.365 45.8403 30.5203 45.5578 30.5203 45.5578Z" fill="#FFBE55"/>
<path d="M29.1995 46.1869L28.1989 46.5222L33.0334 60.9467L34.0341 60.6113L29.1995 46.1869Z" fill="#FFB93E"/>
<path d="M101.331 86.2364H87.6883V125.531H101.331V86.2364Z" fill="#C5DDF8"/>
<path d="M87.6878 86.2364H51.6468V125.531H87.6878V86.2364Z" fill="#F3F7FC"/>
<path d="M87.6883 108.209V105.458H51.6473V108.209L87.6883 108.209Z" fill="#94B8E0"/>
<path d="M101.33 108.208V105.458H87.6877V108.208H101.33Z" fill="#94B8E0"/>
<path d="M77.9384 85.6315C77.9384 85.6315 88.9881 80.6166 96.6894 82.5217L95.1514 83.5508L95.9265 85.3674C95.9265 85.3674 87.3577 83.1336 77.7167 85.9278L77.9384 85.6315Z" fill="#4A75CB"/>
<path d="M76.0463 85.439C76.0463 85.439 74.6099 85.265 72.4685 84.971C66.7839 84.1889 56.1368 82.5532 54.2255 81.0391C51.2228 78.6614 58.3383 68.5616 61.4188 67.1599C64.4986 65.7597 76.0463 85.439 76.0463 85.439Z" fill="#C5DDF8"/>
<path d="M98.5733 72.8628C99.0867 75.3645 75.8343 86.174 75.8343 86.174C75.8343 86.174 76.2576 85.0302 76.9458 83.239C76.9458 83.239 76.9466 83.2374 76.9481 83.2359C79.4621 76.6938 85.5177 61.5129 87.5082 61.723C87.7084 61.7438 87.9424 61.8154 88.2033 61.9293C91.2592 63.2749 98.1007 70.5582 98.5733 72.8628Z" fill="#C5DDF8"/>
<path d="M88.0066 64.1547C86.5864 66.6217 77.0962 82.9811 76.9477 83.2359C79.4617 76.6938 85.5172 61.5129 87.5078 61.723C87.5078 61.723 87.9019 61.7115 88.2029 61.9293C88.5654 62.1941 88.791 62.7922 88.0066 64.1547Z" fill="#F3F7FC"/>
<path d="M72.4723 84.971H72.4685C66.7839 84.1889 56.1368 82.5532 54.2255 81.0391C53.3626 78.6083 55.6018 78.4104 57.2314 78.2396C58.8586 78.0687 72.4723 84.971 72.4723 84.971Z" fill="#F3F7FC"/>
<path d="M71.7094 86.2132C71.7094 86.2132 73.0126 83.2482 75.5782 83.0834C78.2576 82.9118 79.7794 86.2132 79.7794 86.2132H71.7094Z" fill="#4A75CB"/>
<path d="M88.2662 86.2364H50.5549V91.6408H88.2662V86.2364Z" fill="#94B8E0"/>
<path d="M102.481 86.2364H88.2666V91.6408H102.481V86.2364Z" fill="#507BAA"/>
<path d="M73.025 85.7831C73.025 85.7831 65.6385 83.4431 60.6544 84.9902C54.9098 86.773 55.25 93.8623 55.25 93.8623L56.6009 93.3066L58.4252 94.1625C58.4252 94.1625 58.7331 86.656 63.417 85.6053C67.4674 84.697 73.025 85.7831 73.025 85.7831Z" fill="#4A75CB"/>
<path d="M69.2361 86.2364H66.4858V125.87H69.2361V86.2364Z" fill="#94B8E0"/>
<path d="M182.419 100.974C182.308 101.042 182.196 101.107 182.082 101.169C182.044 101.191 182.004 101.212 181.966 101.232C181.877 101.279 181.789 101.324 181.7 101.369C177.422 103.469 172.205 101.857 169.879 97.6394C167.662 93.616 168.853 88.6326 172.493 86.0155C172.783 85.8069 173.088 85.6129 173.409 85.4366C173.525 85.3735 173.64 85.312 173.757 85.255C173.87 85.1988 173.985 85.1449 174.1 85.0941C174.452 84.9371 174.809 84.8055 175.17 84.6969C175.706 84.5353 176.251 84.4267 176.796 84.369C178.488 84.1897 180.191 84.4991 181.7 85.2373C183.302 86.0201 184.687 87.2871 185.613 88.9667C187.944 93.1972 186.507 98.4877 182.419 100.974Z" fill="#FFB93E"/>
<path d="M177.804 101.582C174.818 101.582 172.069 99.9594 170.63 97.3476C169.574 95.4333 169.328 93.2225 169.935 91.1227C170.543 89.0228 171.931 87.2855 173.846 86.2302C175.054 85.5643 176.418 85.2118 177.79 85.2118C180.775 85.2118 183.524 86.8344 184.964 89.4462C186.019 91.3605 186.265 93.5712 185.658 95.6711C185.051 97.771 183.662 99.5083 181.748 100.564C180.539 101.229 179.175 101.582 177.804 101.582ZM177.79 85.6991C176.5 85.6991 175.218 86.03 174.082 86.6566C172.281 87.6488 170.976 89.283 170.405 91.2574C169.834 93.2318 170.065 95.3109 171.058 97.1113C172.411 99.5675 174.996 101.093 177.804 101.093C179.094 101.093 180.376 100.762 181.512 100.136C183.313 99.1434 184.618 97.5093 185.189 95.5349C185.76 93.5605 185.529 91.4814 184.537 89.6809C183.182 87.2247 180.597 85.6991 177.79 85.6991Z" fill="#FFA412"/>
<path d="M177.797 87.3701L179.602 91.0272L183.638 91.6137L180.717 94.4602L181.406 98.4798L177.797 96.5816L174.187 98.4798L174.877 94.4602L171.956 91.6137L175.992 91.0272L177.797 87.3701Z" fill="#FFA412"/>
<path d="M38.6746 110.787C38.5638 110.855 38.4514 110.92 38.3375 110.983C38.299 111.004 38.2597 111.025 38.2212 111.045C38.1327 111.092 38.0442 111.137 37.9549 111.182C33.6774 113.283 28.4601 111.67 26.1347 107.453C23.917 103.429 25.1086 98.4458 28.748 95.8287C29.0382 95.6201 29.3438 95.4261 29.6647 95.2498C29.7802 95.1867 29.8957 95.1251 30.0127 95.0681C30.1258 95.012 30.2405 94.9581 30.3552 94.9073C30.707 94.7502 31.0641 94.6186 31.4251 94.5101C31.9617 94.3484 32.5059 94.2399 33.0516 94.1822C34.7435 94.0028 36.4462 94.3122 37.9557 95.0504C39.5575 95.8333 40.9423 97.1003 41.8683 98.7799C44.1991 103.01 42.762 108.301 38.6746 110.787Z" fill="#FFB93E"/>
<path d="M34.0589 111.395C31.0738 111.395 28.3243 109.773 26.8849 107.161C25.8296 105.246 25.5832 103.036 26.1906 100.936C26.7979 98.836 28.1865 97.0987 30.1009 96.0433C31.3094 95.3775 32.6734 95.025 34.0451 95.025C37.0301 95.025 39.7796 96.6476 41.2191 99.2593C42.2744 101.174 42.5207 103.384 41.9134 105.484C41.3061 107.584 39.9174 109.321 38.0031 110.377C36.7946 111.043 35.4306 111.395 34.0589 111.395ZM34.0451 95.5122C32.7557 95.5122 31.4733 95.8432 30.3372 96.4698C28.5368 97.462 27.2313 99.0961 26.6601 101.071C26.089 103.045 26.3207 105.124 27.3129 106.924C28.6668 109.381 31.2516 110.906 34.0597 110.906C35.349 110.906 36.6314 110.575 37.7675 109.949C39.568 108.957 40.8735 107.322 41.4446 105.348C42.0158 103.374 41.7841 101.295 40.7919 99.4941C39.4371 97.0379 36.8523 95.5122 34.0451 95.5122Z" fill="#FFA412"/>
<path d="M34.0524 97.1833L35.8575 100.84L39.8933 101.427L36.9728 104.273L37.6618 108.293L34.0524 106.395L30.4423 108.293L31.132 104.273L28.2116 101.427L32.2474 100.84L34.0524 97.1833Z" fill="#FFA412"/>
<path d="M187.802 79.1146C187.74 79.1531 187.676 79.1892 187.612 79.2254C187.59 79.2377 187.568 79.2493 187.547 79.2608C187.496 79.2878 187.446 79.3132 187.396 79.3378C184.983 80.5232 182.037 79.6134 180.725 77.2326C179.473 74.9618 180.146 72.1492 182.2 70.672C182.364 70.5542 182.536 70.4449 182.717 70.3449C182.782 70.3087 182.848 70.2748 182.913 70.2425C182.977 70.2109 183.042 70.1802 183.107 70.1517C183.305 70.0632 183.507 69.9885 183.71 69.9277C184.013 69.8369 184.32 69.7753 184.628 69.7429C185.583 69.6421 186.544 69.8161 187.396 70.2333C188.299 70.6751 189.081 71.3902 189.604 72.3385C190.92 74.7255 190.109 77.7113 187.802 79.1146Z" fill="#FFB93E"/>
<path d="M185.197 79.4572C183.512 79.4572 181.96 78.5412 181.148 77.0671C180.552 75.9864 180.413 74.7386 180.756 73.554C181.099 72.3686 181.883 71.3879 182.963 70.7921C183.645 70.4165 184.415 70.2171 185.189 70.2171C186.874 70.2171 188.426 71.1331 189.238 72.6072C189.834 73.6879 189.973 74.9357 189.63 76.1203C189.287 77.305 188.503 78.2864 187.423 78.8822C186.74 79.2586 185.971 79.4572 185.197 79.4572ZM185.188 70.4935C184.461 70.4935 183.737 70.6805 183.095 71.0338C182.079 71.5942 181.342 72.5164 181.02 73.631C180.698 74.7456 180.829 75.9186 181.389 76.9347C182.153 78.321 183.612 79.1824 185.197 79.1824C185.924 79.1824 186.648 78.9953 187.29 78.642C188.306 78.0816 189.043 77.1595 189.365 76.0449C189.688 74.9303 189.557 73.7572 188.996 72.7411C188.232 71.3548 186.773 70.4935 185.188 70.4935Z" fill="#FFA412"/>
<path d="M185.193 71.4365L186.212 73.5009L188.489 73.8319L186.841 75.4384L187.23 77.7068L185.193 76.6353L183.156 77.7068L183.545 75.4384L181.897 73.8319L184.174 73.5009L185.193 71.4365Z" fill="#FFA412"/>
<path d="M22.5634 89.7537C22.5011 89.7922 22.4372 89.8284 22.3733 89.8646C22.3517 89.8769 22.3294 89.8884 22.3078 89.9C22.2578 89.9269 22.2078 89.9523 22.1577 89.977C19.7438 91.1624 16.7988 90.2525 15.4864 87.8717C14.2348 85.601 14.9075 82.7883 16.9612 81.3112C17.1252 81.1934 17.2976 81.0841 17.4785 80.984C17.5431 80.9479 17.6093 80.914 17.6748 80.8817C17.7386 80.8501 17.8033 80.8193 17.868 80.7908C18.0666 80.7023 18.2682 80.6276 18.4714 80.5668C18.7739 80.476 19.0811 80.4144 19.389 80.3821C20.3442 80.2813 21.3049 80.4552 22.157 80.8724C23.0607 81.3143 23.8427 82.0293 24.3654 82.9777C25.6816 85.3647 24.8703 88.3505 22.5634 89.7537Z" fill="#FFB93E"/>
<path d="M19.9582 90.0961C18.2732 90.0961 16.7214 89.1801 15.9093 87.706C15.3135 86.6253 15.1742 85.3775 15.5175 84.1929C15.8601 83.0075 16.6444 82.0268 17.7244 81.4311C18.4064 81.0554 19.1761 80.8561 19.9505 80.8561C21.6355 80.8561 23.1873 81.772 23.9993 83.2461C24.5951 84.3268 24.7345 85.5746 24.3911 86.7592C24.0478 87.9439 23.2642 88.9253 22.1843 89.5211C21.5015 89.8975 20.7325 90.0961 19.9582 90.0961ZM19.9497 81.1324C19.2223 81.1324 18.4987 81.3194 17.8568 81.6728C16.8407 82.2331 16.1033 83.1553 15.7815 84.2699C15.4598 85.3845 15.5899 86.5575 16.1503 87.5736C16.9146 88.9599 18.3733 89.8213 19.9582 89.8213C20.6856 89.8213 21.4091 89.6342 22.0511 89.2809C23.0672 88.7205 23.8046 87.7984 24.1264 86.6838C24.4489 85.5692 24.318 84.3961 23.7576 83.38C22.9933 81.9937 21.5346 81.1324 19.9497 81.1324Z" fill="#FFA412"/>
<path d="M19.9547 82.0754L20.9731 84.1398L23.2508 84.4708L21.6027 86.0773L21.9915 88.3457L19.9547 87.2742L17.9172 88.3457L18.3067 86.0773L16.6579 84.4708L18.9356 84.1398L19.9547 82.0754Z" fill="#FFA412"/>
<path d="M100.848 13.4247C100.811 13.4701 100.773 13.5148 100.733 13.5587C100.72 13.5733 100.706 13.5887 100.693 13.6025C100.663 13.6356 100.632 13.6687 100.6 13.7011C99.0923 15.2405 96.6252 15.3375 94.9995 13.8889C93.4485 12.5072 93.2068 10.2026 94.3653 8.53992C94.4576 8.40752 94.5585 8.27897 94.6693 8.15505C94.7086 8.1104 94.7493 8.06729 94.7901 8.02496C94.8302 7.98416 94.8702 7.94337 94.9118 7.90488C95.038 7.7848 95.1704 7.67472 95.3082 7.57466C95.5129 7.42533 95.7285 7.29678 95.9525 7.18978C96.6468 6.85879 97.4196 6.7341 98.1739 6.82185C98.9745 6.91499 99.7558 7.24675 100.403 7.82329C102.033 9.27733 102.217 11.7498 100.848 13.4247Z" fill="#CDE0FB"/>
<path d="M97.7327 14.5893C96.8244 14.5893 95.9592 14.2606 95.2757 13.6517C94.5375 12.9944 94.1003 12.0884 94.0433 11.1023C93.9864 10.1155 94.3174 9.16564 94.9747 8.42745C95.6321 7.68927 96.5381 7.25129 97.5241 7.19509C98.5102 7.13736 99.4608 7.46912 100.199 8.12649C100.937 8.78385 101.374 9.68984 101.431 10.6759C101.488 11.6627 101.157 12.6126 100.5 13.3507C99.8426 14.0889 98.9374 14.5261 97.9506 14.5831C97.8774 14.5877 97.8051 14.5893 97.7327 14.5893ZM97.742 7.40908C97.6735 7.40908 97.6057 7.41139 97.5372 7.41524C96.6097 7.46912 95.7576 7.88017 95.1395 8.57448C94.5214 9.26879 94.2104 10.1617 94.2635 11.0892C94.3174 12.0168 94.7284 12.8689 95.4227 13.487C96.117 14.1051 97.0099 14.4161 97.9375 14.363C98.865 14.3091 99.7171 13.898 100.335 13.2037C100.953 12.5094 101.264 11.6165 101.211 10.689C101.157 9.76142 100.746 8.90932 100.052 8.29121C99.4092 7.71852 98.5956 7.40908 97.742 7.40908Z" fill="#AFCDFB"/>
<path d="M96.8302 8.31966L98.1496 9.60744L99.9593 9.25028L99.1418 10.9037L100.041 12.5132L98.2158 12.2477L96.9626 13.5993L96.6517 11.782L94.9782 11.0076L96.6109 10.1501L96.8302 8.31966Z" fill="#AFCDFB"/>
<path d="M88.9731 122.764C88.9069 122.845 88.8392 122.925 88.7683 123.004C88.7445 123.031 88.7206 123.057 88.6968 123.083C88.6421 123.143 88.5867 123.201 88.5305 123.259C85.8372 126.008 81.4304 126.182 78.5261 123.595C75.7558 121.127 75.324 117.012 77.393 114.04C77.5578 113.803 77.7387 113.574 77.9357 113.353C78.0065 113.274 78.0781 113.196 78.152 113.121C78.2228 113.048 78.296 112.976 78.3691 112.907C78.5946 112.693 78.8317 112.496 79.0773 112.317C79.4421 112.05 79.8278 111.82 80.228 111.63C81.4689 111.039 82.8482 110.817 84.1961 110.974C85.6262 111.14 87.021 111.733 88.178 112.763C91.0899 115.357 91.4178 119.772 88.9731 122.764Z" fill="#94B8E0"/>
<path d="M83.4068 124.845C81.785 124.845 80.2393 124.258 79.0185 123.17C77.7007 121.996 76.9186 120.378 76.817 118.616C76.7154 116.853 77.3058 115.156 78.4805 113.839C79.6551 112.521 81.2723 111.739 83.035 111.637C84.7962 111.534 86.4943 112.126 87.8121 113.301C89.1307 114.475 89.9119 116.092 90.0143 117.855C90.1159 119.618 89.5248 121.314 88.3509 122.632C87.177 123.95 85.559 124.732 83.7963 124.834C83.6662 124.841 83.5361 124.845 83.4068 124.845ZM83.4238 112.02C83.3021 112.02 83.1805 112.023 83.0581 112.03C81.4009 112.126 79.8799 112.861 78.7753 114.101C77.6707 115.34 77.1157 116.936 77.2111 118.593C77.3066 120.251 78.0417 121.772 79.2818 122.876C80.5211 123.981 82.1167 124.537 83.774 124.44C85.4313 124.345 86.9523 123.61 88.0569 122.37C89.1614 121.13 89.7164 119.535 89.621 117.877C89.5255 116.22 88.7904 114.699 87.5504 113.595C86.4019 112.572 84.9486 112.02 83.4238 112.02Z" fill="#F3F7FC"/>
<path d="M81.797 113.646L84.1539 115.946L87.3853 115.308L85.9259 118.261L87.5316 121.137L84.2725 120.662L82.0333 123.077L81.4783 119.83L78.4886 118.447L81.4052 116.916L81.797 113.646Z" fill="#C5DDF8"/>
<path d="M192.064 126H0.217493C0.0975929 126 0 125.896 0 125.77V125.692C0 125.565 0.09829 125.461 0.217493 125.461H192.065C192.185 125.461 192.282 125.565 192.282 125.692V125.77C192.282 125.896 192.184 126 192.064 126Z" fill="#2E3552"/>
<path d="M111.702 75.9952C111.702 75.9952 110.698 76.6803 109.581 76.5672C108.752 76.4833 107.935 75.7158 107.903 75.665L107.242 76.8142C107.242 76.8142 108.753 77.7302 110.049 77.4793C110.446 77.4023 111.089 77.0082 111.38 76.7126C111.701 76.3878 111.702 75.9952 111.702 75.9952Z" fill="#6BB7BF"/>
<path d="M111.675 73.602L113.335 72.9138C113.335 72.9138 113.108 76.3646 110.256 77.4191C110.256 77.4199 112.058 75.0576 111.675 73.602Z" fill="#86D1CD"/>
<path d="M123.324 114.854C123.324 114.854 124.049 115.675 124.762 115.659C124.762 115.659 124.858 116.557 124.6 116.796C124.6 116.796 123.379 116.573 123.085 116.126C123.085 116.127 122.839 115.056 123.324 114.854Z" fill="#F99746"/>
<path d="M111.95 103.563C111.95 103.563 111.293 102.766 111.302 101.812C111.309 101.105 111.896 100.354 111.937 100.324L110.914 99.8533C110.914 99.8533 110.255 101.202 110.566 102.278C110.662 102.607 111.045 103.122 111.317 103.345C111.618 103.591 111.95 103.563 111.95 103.563Z" fill="#CDE0FB"/>
<path d="M113.972 103.356L114.682 104.708C114.682 104.708 111.745 104.78 110.634 102.45C110.634 102.449 112.77 103.791 113.972 103.356Z" fill="#CDE0FB"/>
</svg>
