<svg width="30" height="30" viewBox="0 0 30 30" fill="none" xmlns="http://www.w3.org/2000/svg">
<path d="M23.4524 28.75C23.2595 28.75 23.0681 28.6767 22.9212 28.53C22.628 28.2368 22.628 27.7612 22.9212 27.4675L23.6656 26.7232H14.136C13.7214 26.7232 13.3846 26.3869 13.3846 25.9719C13.3846 25.5569 13.721 25.2205 14.136 25.2205H23.6661L22.9218 24.4762C22.6285 24.1829 22.6285 23.7074 22.9218 23.4137C23.2151 23.1204 23.6906 23.1204 23.9843 23.4137L26.0111 25.4405C26.0836 25.5119 26.1373 25.595 26.1733 25.683C26.1733 25.683 26.1741 25.683 26.1741 25.6839V25.6847C26.2102 25.7728 26.231 25.8695 26.231 25.9714C26.231 26.0741 26.2106 26.1718 26.1733 26.2598V26.2606C26.1733 26.2606 26.1733 26.2615 26.1724 26.2615C26.1364 26.3487 26.0823 26.4307 26.0111 26.5023L23.9843 28.5291C23.837 28.6766 23.6452 28.7499 23.4525 28.7499L23.4524 28.75ZM11.9149 24.8402C11.722 24.8402 11.5306 24.7669 11.3837 24.6202L9.35695 22.5934C9.35503 22.5926 9.35397 22.5905 9.35205 22.5885C9.35205 22.5885 9.35397 22.5894 9.35013 22.5866L9.34928 22.5858C9.34843 22.5849 9.34843 22.5849 9.34736 22.5839C9.28065 22.5146 9.22992 22.4351 9.19497 22.3511C9.15767 22.2622 9.1372 22.1653 9.1372 22.0627C9.1372 21.96 9.15767 21.8632 9.19497 21.7743V21.7735C9.19497 21.7735 9.19497 21.7726 9.19582 21.7726C9.23184 21.6855 9.28597 21.6034 9.35716 21.5318L11.3839 19.505C11.6772 19.2117 12.1527 19.2117 12.4465 19.505C12.7397 19.7983 12.7397 20.2738 12.4465 20.5675L11.7022 21.3118H21.2312C21.6457 21.3118 21.9825 21.6482 21.9825 22.0632C21.9825 22.4777 21.6462 22.8145 21.2312 22.8145L11.7016 22.8143L12.4459 23.5586C12.7392 23.8519 12.7392 24.3274 12.4459 24.6211C12.2997 24.7669 12.1079 24.8403 11.915 24.8403L11.9149 24.8402ZM5.75134 21.6079C5.33678 21.6079 5 21.2716 5 20.8566C5 17.1452 7.30363 13.9608 10.5573 12.6611C8.77101 11.5849 7.57356 9.62664 7.57356 7.39334C7.57356 4.00591 10.3292 1.25 13.7169 1.25C17.1045 1.25 19.8613 4.00591 19.8613 7.39334C19.8613 9.59144 18.7012 11.5235 16.9609 12.6093C19.1708 13.4487 20.9931 15.1587 21.9501 17.4231C22.1123 17.8057 21.9337 18.2456 21.5511 18.4074C21.1686 18.5709 20.7286 18.391 20.5669 18.0084C19.4182 15.293 16.7704 13.5377 13.8222 13.5377C9.7862 13.5377 6.50304 16.8207 6.50304 20.8569C6.50283 21.2719 6.16607 21.6083 5.75153 21.6083L5.75134 21.6079ZM13.7171 2.75231C11.1582 2.75231 9.07619 4.83402 9.07619 7.39323C9.07619 9.95216 11.1579 12.035 13.7171 12.035C16.276 12.035 18.3589 9.95238 18.3589 7.39323C18.3589 4.83408 16.2763 2.75231 13.7171 2.75231Z" fill="white"/>
</svg>
