<svg width="20" height="21" viewBox="0 0 20 21" fill="none" xmlns="http://www.w3.org/2000/svg">
<mask id="path-1-outside-1_2910_25582" maskUnits="userSpaceOnUse" x="-0.75755" y="-0.75731" width="21.4912" height="22.5146" fill="black">
<rect fill="white" x="-0.75755" y="-0.75731" width="21.4912" height="22.5146"/>
<path d="M19.0689 5.08536L16.8961 4.1622V1.20966C16.8937 0.957389 16.7913 0.716375 16.6114 0.539488C16.4315 0.362602 16.1888 0.264285 15.9366 0.266107H10.1794C9.92717 0.264283 9.68448 0.362599 9.5046 0.539486C9.32472 0.716373 9.22234 0.957387 9.21993 1.20966V4.0263L6.72727 5.08536C6.57346 5.15108 6.45185 5.27492 6.38893 5.42991C6.32601 5.58489 6.32688 5.75846 6.39135 5.9128L7.62175 8.77939C7.82758 8.7038 8.03037 8.63751 8.23066 8.57727L6.98106 5.66279L9.21993 4.71155V8.33066C9.43862 8.28724 9.65185 8.25161 9.85961 8.22377V1.20966C9.8604 1.12556 9.89453 1.04522 9.95449 0.986255C10.0145 0.92729 10.0954 0.894521 10.1794 0.895137H15.9366C16.0207 0.894521 16.1016 0.92729 16.1615 0.986255C16.2215 1.04522 16.2556 1.12556 16.2564 1.20966V9.22588H14.4392C14.622 9.42509 14.7882 9.63892 14.9362 9.86522H17.4485C17.5361 9.87091 17.6203 9.90096 17.6917 9.952C18.002 10.2578 18.1509 10.5703 18.1342 10.8807C18.1053 11.4169 17.6044 11.8202 17.6003 11.8234C17.5655 11.8506 17.5366 11.8848 17.5156 11.9237C17.4946 11.9627 17.4819 12.0055 17.4783 12.0496C17.4748 12.0938 17.4804 12.1381 17.4949 12.1799C17.5093 12.2217 17.5323 12.2601 17.5624 12.2925C18.0304 12.7981 18.2317 13.2841 18.1608 13.7371C18.0433 14.4876 17.2203 14.9597 17.2127 14.9639C17.1442 15.0021 17.092 15.0641 17.0663 15.1382C17.0405 15.2123 17.0429 15.2933 17.073 15.3658C17.2974 15.9064 17.3147 16.3795 17.1245 16.772C16.7813 17.4802 15.8685 17.745 15.8601 17.7473C15.8098 17.7612 15.7637 17.7872 15.7258 17.823C15.6879 17.8588 15.6593 17.9034 15.6425 17.9528C15.6258 18.0022 15.6214 18.055 15.6297 18.1065C15.638 18.1579 15.6588 18.2066 15.6903 18.2482C15.995 18.651 16.1054 19.0106 16.0184 19.317C15.8925 19.7607 15.3898 20.0219 15.2311 20.0946H13.1204C13.0104 20.1029 12.8998 20.0884 12.7956 20.052C12.6915 20.0156 12.5959 19.9581 12.515 19.8831C12.4341 19.8081 12.3696 19.7172 12.3254 19.616C12.2813 19.5149 12.2585 19.4058 12.2585 19.2954C12.2585 19.1851 12.2813 19.0759 12.3254 18.9748C12.3696 18.8737 12.4341 18.7827 12.515 18.7077C12.5959 18.6327 12.6915 18.5752 12.7956 18.5388C12.8998 18.5024 13.0104 18.4879 13.1204 18.4962H13.8575C13.9423 18.4962 14.0236 18.4626 14.0835 18.4026C14.1435 18.3427 14.1772 18.2614 14.1772 18.1766C14.1772 18.0918 14.1435 18.0105 14.0835 17.9505C14.0236 17.8906 13.9423 17.8569 13.8575 17.8569H13.1204C13.0104 17.8652 12.8998 17.8507 12.7956 17.8144C12.6915 17.778 12.5959 17.7205 12.515 17.6454C12.4341 17.5704 12.3696 17.4795 12.3254 17.3784C12.2813 17.2772 12.2585 17.1681 12.2585 17.0577C12.2585 16.9474 12.2813 16.8382 12.3254 16.7371C12.3696 16.636 12.4341 16.5451 12.515 16.47C12.5959 16.395 12.6915 16.3375 12.7956 16.3011C12.8998 16.2647 13.0104 16.2502 13.1204 16.2586H14.4971C14.5392 16.2587 14.5808 16.2505 14.6197 16.2344C14.6585 16.2184 14.6939 16.1949 14.7236 16.1652C14.7534 16.1355 14.777 16.1002 14.7931 16.0614C14.8092 16.0226 14.8175 15.9809 14.8175 15.9389C14.8175 15.8969 14.8092 15.8552 14.7931 15.8164C14.777 15.7776 14.7534 15.7423 14.7236 15.7126C14.6939 15.6829 14.6585 15.6594 14.6197 15.6434C14.5808 15.6273 14.5392 15.6191 14.4971 15.6192H13.1204C12.7307 15.6115 12.3538 15.7586 12.0724 16.0282C11.7909 16.2979 11.6279 16.6681 11.6189 17.0577C11.6201 17.2747 11.6713 17.4884 11.7684 17.6824C11.8654 17.8764 12.0058 18.0455 12.1787 18.1766C12.0058 18.3076 11.8654 18.4767 11.7684 18.6707C11.6713 18.8647 11.6201 19.0785 11.6189 19.2954C11.6191 19.5816 11.7078 19.8607 11.8728 20.0946H8.44957C8.3606 20.0846 8.27612 20.0502 8.20543 19.9953L6.59602 18.5863C6.09304 18.1746 5.10248 18.1768 5.0629 18.1766H4.42329V11.4635H4.9055C5.42346 11.4473 5.92484 11.2771 6.34563 10.9746C6.38147 10.9517 6.41403 10.9308 6.44362 10.9131C9.72574 8.93884 12.7444 9.66074 13.1245 9.76376C13.8215 10.2413 14.4374 11.3777 14.9556 13.1428C14.9925 13.3102 14.9685 13.4853 14.8878 13.6366C14.8071 13.7879 14.675 13.9054 14.5154 13.968C14.1385 14.1106 13.7238 13.9614 13.2465 13.5124C12.7366 13.033 12.1581 12.4475 12.0154 12.2202C11.9846 12.1717 11.9413 12.1325 11.8899 12.1068C11.9658 11.926 12.0312 11.741 12.0859 11.5527C12.1095 11.4713 12.0997 11.3838 12.0588 11.3096C12.0179 11.2354 11.9492 11.1804 11.8678 11.1568C11.7864 11.1332 11.699 11.1428 11.6247 11.1836C11.5504 11.2244 11.4954 11.2931 11.4716 11.3744C10.7963 13.6996 8.98433 13.7024 8.9068 13.7012C8.82213 13.6995 8.74024 13.7315 8.67911 13.7901C8.61799 13.8487 8.58262 13.9292 8.58078 14.0139C8.57894 14.0986 8.61077 14.1805 8.66929 14.2417C8.72781 14.3029 8.80823 14.3384 8.8929 14.3404H8.89868C9.44569 14.3111 9.97695 14.147 10.4451 13.8625C10.9133 13.5781 11.3038 13.1822 11.5818 12.7103C11.966 13.156 12.3754 13.5794 12.8082 13.9781C13.2917 14.4329 13.768 14.6613 14.2306 14.6613C14.4055 14.6609 14.579 14.6285 14.7423 14.5657C15.0509 14.4441 15.305 14.2145 15.4571 13.9197C15.6092 13.6249 15.6491 13.2848 15.5693 12.9628C15.3561 12.2366 14.7073 10.0268 13.4342 9.20184C13.41 9.1861 13.3837 9.17374 13.3561 9.16508C13.2152 9.12083 9.86456 8.10891 6.11389 10.3652C6.07993 10.3857 6.04237 10.4096 6.00123 10.4359C5.68146 10.6708 5.29937 10.8059 4.90301 10.8242H0.585642C0.500844 10.8242 0.419514 10.8579 0.359541 10.9178C0.299568 10.9778 0.265864 11.0591 0.265842 11.1439V18.8159C0.266174 19.0702 0.367373 19.314 0.547238 19.4938C0.727102 19.6736 0.97094 19.7747 1.22525 19.7749H3.46388C3.71819 19.7747 3.96203 19.6736 4.14189 19.4938C4.32176 19.314 4.42296 19.0702 4.42329 18.8159H5.065L5.07539 18.8158C5.34078 18.8158 5.94455 18.8794 6.18268 19.0741L7.77982 20.4726C7.96711 20.6319 8.20238 20.7239 8.44809 20.7339H15.2966C15.3355 20.7339 15.3741 20.7268 15.4105 20.713C15.4504 20.6978 16.3925 20.3306 16.6324 19.4961C16.6879 19.2793 16.6987 19.0535 16.6638 18.8325C16.629 18.6114 16.5494 18.3998 16.4299 18.2107C16.9707 17.9795 17.4175 17.5724 17.6978 17.0555C17.8191 16.7925 17.8868 16.508 17.8968 16.2186C17.9069 15.9292 17.8592 15.6407 17.7565 15.3699C18.0887 15.1275 18.6702 14.6038 18.7919 13.8409C18.8842 13.2624 18.6972 12.6764 18.2359 12.0956C18.5415 11.7755 18.7305 11.3619 18.7725 10.9214C18.8017 10.4179 18.5891 9.93858 18.1408 9.49669C18.0874 9.44562 18.0274 9.40197 17.9624 9.36693L19.4059 5.91004C19.4697 5.7559 19.47 5.58283 19.4069 5.42842C19.3438 5.27402 19.2223 5.15074 19.0689 5.08536ZM3.78369 18.8159C3.78358 18.9007 3.74985 18.982 3.68989 19.0419C3.62994 19.1018 3.54865 19.1355 3.46388 19.1356H1.22525C1.14048 19.1355 1.0592 19.1018 0.99924 19.0419C0.939284 18.982 0.905554 18.9007 0.905452 18.8159V11.4635H3.78369V18.8159ZM17.3298 9.22588H16.8961V4.85247L18.8143 5.671L17.3298 9.22588Z"/>
</mask>
<path d="M19.0689 5.08536L16.8961 4.1622V1.20966C16.8937 0.957389 16.7913 0.716375 16.6114 0.539488C16.4315 0.362602 16.1888 0.264285 15.9366 0.266107H10.1794C9.92717 0.264283 9.68448 0.362599 9.5046 0.539486C9.32472 0.716373 9.22234 0.957387 9.21993 1.20966V4.0263L6.72727 5.08536C6.57346 5.15108 6.45185 5.27492 6.38893 5.42991C6.32601 5.58489 6.32688 5.75846 6.39135 5.9128L7.62175 8.77939C7.82758 8.7038 8.03037 8.63751 8.23066 8.57727L6.98106 5.66279L9.21993 4.71155V8.33066C9.43862 8.28724 9.65185 8.25161 9.85961 8.22377V1.20966C9.8604 1.12556 9.89453 1.04522 9.95449 0.986255C10.0145 0.92729 10.0954 0.894521 10.1794 0.895137H15.9366C16.0207 0.894521 16.1016 0.92729 16.1615 0.986255C16.2215 1.04522 16.2556 1.12556 16.2564 1.20966V9.22588H14.4392C14.622 9.42509 14.7882 9.63892 14.9362 9.86522H17.4485C17.5361 9.87091 17.6203 9.90096 17.6917 9.952C18.002 10.2578 18.1509 10.5703 18.1342 10.8807C18.1053 11.4169 17.6044 11.8202 17.6003 11.8234C17.5655 11.8506 17.5366 11.8848 17.5156 11.9237C17.4946 11.9627 17.4819 12.0055 17.4783 12.0496C17.4748 12.0938 17.4804 12.1381 17.4949 12.1799C17.5093 12.2217 17.5323 12.2601 17.5624 12.2925C18.0304 12.7981 18.2317 13.2841 18.1608 13.7371C18.0433 14.4876 17.2203 14.9597 17.2127 14.9639C17.1442 15.0021 17.092 15.0641 17.0663 15.1382C17.0405 15.2123 17.0429 15.2933 17.073 15.3658C17.2974 15.9064 17.3147 16.3795 17.1245 16.772C16.7813 17.4802 15.8685 17.745 15.8601 17.7473C15.8098 17.7612 15.7637 17.7872 15.7258 17.823C15.6879 17.8588 15.6593 17.9034 15.6425 17.9528C15.6258 18.0022 15.6214 18.055 15.6297 18.1065C15.638 18.1579 15.6588 18.2066 15.6903 18.2482C15.995 18.651 16.1054 19.0106 16.0184 19.317C15.8925 19.7607 15.3898 20.0219 15.2311 20.0946H13.1204C13.0104 20.1029 12.8998 20.0884 12.7956 20.052C12.6915 20.0156 12.5959 19.9581 12.515 19.8831C12.4341 19.8081 12.3696 19.7172 12.3254 19.616C12.2813 19.5149 12.2585 19.4058 12.2585 19.2954C12.2585 19.1851 12.2813 19.0759 12.3254 18.9748C12.3696 18.8737 12.4341 18.7827 12.515 18.7077C12.5959 18.6327 12.6915 18.5752 12.7956 18.5388C12.8998 18.5024 13.0104 18.4879 13.1204 18.4962H13.8575C13.9423 18.4962 14.0236 18.4626 14.0835 18.4026C14.1435 18.3427 14.1772 18.2614 14.1772 18.1766C14.1772 18.0918 14.1435 18.0105 14.0835 17.9505C14.0236 17.8906 13.9423 17.8569 13.8575 17.8569H13.1204C13.0104 17.8652 12.8998 17.8507 12.7956 17.8144C12.6915 17.778 12.5959 17.7205 12.515 17.6454C12.4341 17.5704 12.3696 17.4795 12.3254 17.3784C12.2813 17.2772 12.2585 17.1681 12.2585 17.0577C12.2585 16.9474 12.2813 16.8382 12.3254 16.7371C12.3696 16.636 12.4341 16.5451 12.515 16.47C12.5959 16.395 12.6915 16.3375 12.7956 16.3011C12.8998 16.2647 13.0104 16.2502 13.1204 16.2586H14.4971C14.5392 16.2587 14.5808 16.2505 14.6197 16.2344C14.6585 16.2184 14.6939 16.1949 14.7236 16.1652C14.7534 16.1355 14.777 16.1002 14.7931 16.0614C14.8092 16.0226 14.8175 15.9809 14.8175 15.9389C14.8175 15.8969 14.8092 15.8552 14.7931 15.8164C14.777 15.7776 14.7534 15.7423 14.7236 15.7126C14.6939 15.6829 14.6585 15.6594 14.6197 15.6434C14.5808 15.6273 14.5392 15.6191 14.4971 15.6192H13.1204C12.7307 15.6115 12.3538 15.7586 12.0724 16.0282C11.7909 16.2979 11.6279 16.6681 11.6189 17.0577C11.6201 17.2747 11.6713 17.4884 11.7684 17.6824C11.8654 17.8764 12.0058 18.0455 12.1787 18.1766C12.0058 18.3076 11.8654 18.4767 11.7684 18.6707C11.6713 18.8647 11.6201 19.0785 11.6189 19.2954C11.6191 19.5816 11.7078 19.8607 11.8728 20.0946H8.44957C8.3606 20.0846 8.27612 20.0502 8.20543 19.9953L6.59602 18.5863C6.09304 18.1746 5.10248 18.1768 5.0629 18.1766H4.42329V11.4635H4.9055C5.42346 11.4473 5.92484 11.2771 6.34563 10.9746C6.38147 10.9517 6.41403 10.9308 6.44362 10.9131C9.72574 8.93884 12.7444 9.66074 13.1245 9.76376C13.8215 10.2413 14.4374 11.3777 14.9556 13.1428C14.9925 13.3102 14.9685 13.4853 14.8878 13.6366C14.8071 13.7879 14.675 13.9054 14.5154 13.968C14.1385 14.1106 13.7238 13.9614 13.2465 13.5124C12.7366 13.033 12.1581 12.4475 12.0154 12.2202C11.9846 12.1717 11.9413 12.1325 11.8899 12.1068C11.9658 11.926 12.0312 11.741 12.0859 11.5527C12.1095 11.4713 12.0997 11.3838 12.0588 11.3096C12.0179 11.2354 11.9492 11.1804 11.8678 11.1568C11.7864 11.1332 11.699 11.1428 11.6247 11.1836C11.5504 11.2244 11.4954 11.2931 11.4716 11.3744C10.7963 13.6996 8.98433 13.7024 8.9068 13.7012C8.82213 13.6995 8.74024 13.7315 8.67911 13.7901C8.61799 13.8487 8.58262 13.9292 8.58078 14.0139C8.57894 14.0986 8.61077 14.1805 8.66929 14.2417C8.72781 14.3029 8.80823 14.3384 8.8929 14.3404H8.89868C9.44569 14.3111 9.97695 14.147 10.4451 13.8625C10.9133 13.5781 11.3038 13.1822 11.5818 12.7103C11.966 13.156 12.3754 13.5794 12.8082 13.9781C13.2917 14.4329 13.768 14.6613 14.2306 14.6613C14.4055 14.6609 14.579 14.6285 14.7423 14.5657C15.0509 14.4441 15.305 14.2145 15.4571 13.9197C15.6092 13.6249 15.6491 13.2848 15.5693 12.9628C15.3561 12.2366 14.7073 10.0268 13.4342 9.20184C13.41 9.1861 13.3837 9.17374 13.3561 9.16508C13.2152 9.12083 9.86456 8.10891 6.11389 10.3652C6.07993 10.3857 6.04237 10.4096 6.00123 10.4359C5.68146 10.6708 5.29937 10.8059 4.90301 10.8242H0.585642C0.500844 10.8242 0.419514 10.8579 0.359541 10.9178C0.299568 10.9778 0.265864 11.0591 0.265842 11.1439V18.8159C0.266174 19.0702 0.367373 19.314 0.547238 19.4938C0.727102 19.6736 0.97094 19.7747 1.22525 19.7749H3.46388C3.71819 19.7747 3.96203 19.6736 4.14189 19.4938C4.32176 19.314 4.42296 19.0702 4.42329 18.8159H5.065L5.07539 18.8158C5.34078 18.8158 5.94455 18.8794 6.18268 19.0741L7.77982 20.4726C7.96711 20.6319 8.20238 20.7239 8.44809 20.7339H15.2966C15.3355 20.7339 15.3741 20.7268 15.4105 20.713C15.4504 20.6978 16.3925 20.3306 16.6324 19.4961C16.6879 19.2793 16.6987 19.0535 16.6638 18.8325C16.629 18.6114 16.5494 18.3998 16.4299 18.2107C16.9707 17.9795 17.4175 17.5724 17.6978 17.0555C17.8191 16.7925 17.8868 16.508 17.8968 16.2186C17.9069 15.9292 17.8592 15.6407 17.7565 15.3699C18.0887 15.1275 18.6702 14.6038 18.7919 13.8409C18.8842 13.2624 18.6972 12.6764 18.2359 12.0956C18.5415 11.7755 18.7305 11.3619 18.7725 10.9214C18.8017 10.4179 18.5891 9.93858 18.1408 9.49669C18.0874 9.44562 18.0274 9.40197 17.9624 9.36693L19.4059 5.91004C19.4697 5.7559 19.47 5.58283 19.4069 5.42842C19.3438 5.27402 19.2223 5.15074 19.0689 5.08536ZM3.78369 18.8159C3.78358 18.9007 3.74985 18.982 3.68989 19.0419C3.62994 19.1018 3.54865 19.1355 3.46388 19.1356H1.22525C1.14048 19.1355 1.0592 19.1018 0.99924 19.0419C0.939284 18.982 0.905554 18.9007 0.905452 18.8159V11.4635H3.78369V18.8159ZM17.3298 9.22588H16.8961V4.85247L18.8143 5.671L17.3298 9.22588Z" fill="#889818"/>
<path d="M19.0689 5.08536L16.8961 4.1622V1.20966C16.8937 0.957389 16.7913 0.716375 16.6114 0.539488C16.4315 0.362602 16.1888 0.264285 15.9366 0.266107H10.1794C9.92717 0.264283 9.68448 0.362599 9.5046 0.539486C9.32472 0.716373 9.22234 0.957387 9.21993 1.20966V4.0263L6.72727 5.08536C6.57346 5.15108 6.45185 5.27492 6.38893 5.42991C6.32601 5.58489 6.32688 5.75846 6.39135 5.9128L7.62175 8.77939C7.82758 8.7038 8.03037 8.63751 8.23066 8.57727L6.98106 5.66279L9.21993 4.71155V8.33066C9.43862 8.28724 9.65185 8.25161 9.85961 8.22377V1.20966C9.8604 1.12556 9.89453 1.04522 9.95449 0.986255C10.0145 0.92729 10.0954 0.894521 10.1794 0.895137H15.9366C16.0207 0.894521 16.1016 0.92729 16.1615 0.986255C16.2215 1.04522 16.2556 1.12556 16.2564 1.20966V9.22588H14.4392C14.622 9.42509 14.7882 9.63892 14.9362 9.86522H17.4485C17.5361 9.87091 17.6203 9.90096 17.6917 9.952C18.002 10.2578 18.1509 10.5703 18.1342 10.8807C18.1053 11.4169 17.6044 11.8202 17.6003 11.8234C17.5655 11.8506 17.5366 11.8848 17.5156 11.9237C17.4946 11.9627 17.4819 12.0055 17.4783 12.0496C17.4748 12.0938 17.4804 12.1381 17.4949 12.1799C17.5093 12.2217 17.5323 12.2601 17.5624 12.2925C18.0304 12.7981 18.2317 13.2841 18.1608 13.7371C18.0433 14.4876 17.2203 14.9597 17.2127 14.9639C17.1442 15.0021 17.092 15.0641 17.0663 15.1382C17.0405 15.2123 17.0429 15.2933 17.073 15.3658C17.2974 15.9064 17.3147 16.3795 17.1245 16.772C16.7813 17.4802 15.8685 17.745 15.8601 17.7473C15.8098 17.7612 15.7637 17.7872 15.7258 17.823C15.6879 17.8588 15.6593 17.9034 15.6425 17.9528C15.6258 18.0022 15.6214 18.055 15.6297 18.1065C15.638 18.1579 15.6588 18.2066 15.6903 18.2482C15.995 18.651 16.1054 19.0106 16.0184 19.317C15.8925 19.7607 15.3898 20.0219 15.2311 20.0946H13.1204C13.0104 20.1029 12.8998 20.0884 12.7956 20.052C12.6915 20.0156 12.5959 19.9581 12.515 19.8831C12.4341 19.8081 12.3696 19.7172 12.3254 19.616C12.2813 19.5149 12.2585 19.4058 12.2585 19.2954C12.2585 19.1851 12.2813 19.0759 12.3254 18.9748C12.3696 18.8737 12.4341 18.7827 12.515 18.7077C12.5959 18.6327 12.6915 18.5752 12.7956 18.5388C12.8998 18.5024 13.0104 18.4879 13.1204 18.4962H13.8575C13.9423 18.4962 14.0236 18.4626 14.0835 18.4026C14.1435 18.3427 14.1772 18.2614 14.1772 18.1766C14.1772 18.0918 14.1435 18.0105 14.0835 17.9505C14.0236 17.8906 13.9423 17.8569 13.8575 17.8569H13.1204C13.0104 17.8652 12.8998 17.8507 12.7956 17.8144C12.6915 17.778 12.5959 17.7205 12.515 17.6454C12.4341 17.5704 12.3696 17.4795 12.3254 17.3784C12.2813 17.2772 12.2585 17.1681 12.2585 17.0577C12.2585 16.9474 12.2813 16.8382 12.3254 16.7371C12.3696 16.636 12.4341 16.5451 12.515 16.47C12.5959 16.395 12.6915 16.3375 12.7956 16.3011C12.8998 16.2647 13.0104 16.2502 13.1204 16.2586H14.4971C14.5392 16.2587 14.5808 16.2505 14.6197 16.2344C14.6585 16.2184 14.6939 16.1949 14.7236 16.1652C14.7534 16.1355 14.777 16.1002 14.7931 16.0614C14.8092 16.0226 14.8175 15.9809 14.8175 15.9389C14.8175 15.8969 14.8092 15.8552 14.7931 15.8164C14.777 15.7776 14.7534 15.7423 14.7236 15.7126C14.6939 15.6829 14.6585 15.6594 14.6197 15.6434C14.5808 15.6273 14.5392 15.6191 14.4971 15.6192H13.1204C12.7307 15.6115 12.3538 15.7586 12.0724 16.0282C11.7909 16.2979 11.6279 16.6681 11.6189 17.0577C11.6201 17.2747 11.6713 17.4884 11.7684 17.6824C11.8654 17.8764 12.0058 18.0455 12.1787 18.1766C12.0058 18.3076 11.8654 18.4767 11.7684 18.6707C11.6713 18.8647 11.6201 19.0785 11.6189 19.2954C11.6191 19.5816 11.7078 19.8607 11.8728 20.0946H8.44957C8.3606 20.0846 8.27612 20.0502 8.20543 19.9953L6.59602 18.5863C6.09304 18.1746 5.10248 18.1768 5.0629 18.1766H4.42329V11.4635H4.9055C5.42346 11.4473 5.92484 11.2771 6.34563 10.9746C6.38147 10.9517 6.41403 10.9308 6.44362 10.9131C9.72574 8.93884 12.7444 9.66074 13.1245 9.76376C13.8215 10.2413 14.4374 11.3777 14.9556 13.1428C14.9925 13.3102 14.9685 13.4853 14.8878 13.6366C14.8071 13.7879 14.675 13.9054 14.5154 13.968C14.1385 14.1106 13.7238 13.9614 13.2465 13.5124C12.7366 13.033 12.1581 12.4475 12.0154 12.2202C11.9846 12.1717 11.9413 12.1325 11.8899 12.1068C11.9658 11.926 12.0312 11.741 12.0859 11.5527C12.1095 11.4713 12.0997 11.3838 12.0588 11.3096C12.0179 11.2354 11.9492 11.1804 11.8678 11.1568C11.7864 11.1332 11.699 11.1428 11.6247 11.1836C11.5504 11.2244 11.4954 11.2931 11.4716 11.3744C10.7963 13.6996 8.98433 13.7024 8.9068 13.7012C8.82213 13.6995 8.74024 13.7315 8.67911 13.7901C8.61799 13.8487 8.58262 13.9292 8.58078 14.0139C8.57894 14.0986 8.61077 14.1805 8.66929 14.2417C8.72781 14.3029 8.80823 14.3384 8.8929 14.3404H8.89868C9.44569 14.3111 9.97695 14.147 10.4451 13.8625C10.9133 13.5781 11.3038 13.1822 11.5818 12.7103C11.966 13.156 12.3754 13.5794 12.8082 13.9781C13.2917 14.4329 13.768 14.6613 14.2306 14.6613C14.4055 14.6609 14.579 14.6285 14.7423 14.5657C15.0509 14.4441 15.305 14.2145 15.4571 13.9197C15.6092 13.6249 15.6491 13.2848 15.5693 12.9628C15.3561 12.2366 14.7073 10.0268 13.4342 9.20184C13.41 9.1861 13.3837 9.17374 13.3561 9.16508C13.2152 9.12083 9.86456 8.10891 6.11389 10.3652C6.07993 10.3857 6.04237 10.4096 6.00123 10.4359C5.68146 10.6708 5.29937 10.8059 4.90301 10.8242H0.585642C0.500844 10.8242 0.419514 10.8579 0.359541 10.9178C0.299568 10.9778 0.265864 11.0591 0.265842 11.1439V18.8159C0.266174 19.0702 0.367373 19.314 0.547238 19.4938C0.727102 19.6736 0.97094 19.7747 1.22525 19.7749H3.46388C3.71819 19.7747 3.96203 19.6736 4.14189 19.4938C4.32176 19.314 4.42296 19.0702 4.42329 18.8159H5.065L5.07539 18.8158C5.34078 18.8158 5.94455 18.8794 6.18268 19.0741L7.77982 20.4726C7.96711 20.6319 8.20238 20.7239 8.44809 20.7339H15.2966C15.3355 20.7339 15.3741 20.7268 15.4105 20.713C15.4504 20.6978 16.3925 20.3306 16.6324 19.4961C16.6879 19.2793 16.6987 19.0535 16.6638 18.8325C16.629 18.6114 16.5494 18.3998 16.4299 18.2107C16.9707 17.9795 17.4175 17.5724 17.6978 17.0555C17.8191 16.7925 17.8868 16.508 17.8968 16.2186C17.9069 15.9292 17.8592 15.6407 17.7565 15.3699C18.0887 15.1275 18.6702 14.6038 18.7919 13.8409C18.8842 13.2624 18.6972 12.6764 18.2359 12.0956C18.5415 11.7755 18.7305 11.3619 18.7725 10.9214C18.8017 10.4179 18.5891 9.93858 18.1408 9.49669C18.0874 9.44562 18.0274 9.40197 17.9624 9.36693L19.4059 5.91004C19.4697 5.7559 19.47 5.58283 19.4069 5.42842C19.3438 5.27402 19.2223 5.15074 19.0689 5.08536ZM3.78369 18.8159C3.78358 18.9007 3.74985 18.982 3.68989 19.0419C3.62994 19.1018 3.54865 19.1355 3.46388 19.1356H1.22525C1.14048 19.1355 1.0592 19.1018 0.99924 19.0419C0.939284 18.982 0.905554 18.9007 0.905452 18.8159V11.4635H3.78369V18.8159ZM17.3298 9.22588H16.8961V4.85247L18.8143 5.671L17.3298 9.22588Z" stroke="#889818" stroke-width="0.52" mask="url(#path-1-outside-1_2910_25582)"/>
<path d="M13.0581 7.59484H13.0582C13.4641 7.59484 13.8608 7.4745 14.1982 7.24903C14.5356 7.02357 14.7986 6.7031 14.9539 6.32817C15.1092 5.95323 15.1499 5.54066 15.0707 5.14264C14.9915 4.74461 14.7961 4.37899 14.5091 4.09203C14.2222 3.80507 13.8566 3.60964 13.4585 3.53047C13.0605 3.4513 12.6479 3.49193 12.273 3.64723C11.8981 3.80254 11.5776 4.06553 11.3521 4.40297C11.1267 4.7404 11.0063 5.13711 11.0063 5.54294L11.0063 5.54309C11.007 6.08706 11.2233 6.60857 11.608 6.99321C11.9926 7.37785 12.5141 7.59422 13.0581 7.59484ZM13.0582 4.39674C13.2849 4.39674 13.5065 4.46397 13.695 4.58991C13.8835 4.71586 14.0304 4.89487 14.1172 5.10431C14.2039 5.31375 14.2266 5.54421 14.1824 5.76655C14.1382 5.98889 14.029 6.19313 13.8687 6.35342C13.7084 6.51372 13.5042 6.62289 13.2818 6.66711C13.0595 6.71134 12.829 6.68864 12.6196 6.60189C12.4102 6.51514 12.2312 6.36822 12.1052 6.17973C11.9793 5.99124 11.912 5.76964 11.912 5.54294H11.779L11.912 5.54309C11.9124 5.23917 12.0333 4.94779 12.2482 4.73289C12.4631 4.51798 12.7545 4.39709 13.0584 4.39674L13.0582 4.2637V4.39674Z" fill="#889818" stroke="#889818" stroke-width="0.26"/>
<path d="M2.34461 13.4084C2.59471 13.4084 2.79746 13.2056 2.79746 12.9555C2.79746 12.7054 2.59471 12.5027 2.34461 12.5027C2.0945 12.5027 1.89176 12.7054 1.89176 12.9555C1.89176 13.2056 2.0945 13.4084 2.34461 13.4084Z" fill="#889818" stroke="#889818" stroke-width="0.26"/>
</svg>
