<svg width="24" height="24" viewBox="0 0 24 24" fill="none" xmlns="http://www.w3.org/2000/svg">
<g clip-path="url(#clip0_2645_16092)">
<path d="M24 12C24 18.337 19.087 23.5275 12.8625 23.9691C12.5775 23.9897 12.2902 24 12 24C11.2706 24 10.5567 23.9348 9.86344 23.8102C9.86297 23.8102 9.86203 23.8102 9.86156 23.8097C9.79172 23.7975 9.72234 23.7844 9.65344 23.7703C9.36328 23.7131 9.07687 23.6452 8.79469 23.5669C8.57344 23.5059 8.35453 23.4384 8.13844 23.3648C7.32984 23.0906 6.56016 22.732 5.83969 22.3003C5.65922 22.192 5.48156 22.0795 5.30766 21.9623C4.80984 21.6267 4.33781 21.255 3.89672 20.8505C3.36328 20.3616 2.87391 19.8253 2.43609 19.2478C2.31469 19.0889 2.19797 18.9263 2.085 18.7612C2.085 18.7612 2.085 18.7608 2.08453 18.7608C1.71938 18.2259 1.39594 17.6597 1.11937 17.0672C0.783281 16.3463 0.516094 15.5864 0.327656 14.7961C0.327656 14.7956 0.327656 14.7956 0.327656 14.7956C0.113437 13.8989 0 12.9628 0 12C0 5.37281 5.37281 0 12 0C18.6272 0 24 5.37281 24 12Z" fill="#FDF4E2"/>
<path d="M22.0411 4.33783V18.5728C19.8971 21.8414 16.2005 24 11.9996 24C7.79863 24 4.10207 21.8414 1.95801 18.5728V4.33783C1.95801 2.69955 3.28598 1.37158 4.92426 1.37158H19.0749C20.7132 1.37158 22.0411 2.69955 22.0411 4.33783Z" fill="#F4AA39"/>
<path d="M6.05676 1.37158C4.55723 1.37158 3.31691 2.48486 3.11863 3.93049C3.09988 4.06361 3.09051 4.19955 3.09051 4.33783V20.0391C2.6766 19.5811 2.29785 19.0908 1.95801 18.5728V4.33783C1.95801 2.69955 3.28598 1.37158 4.92426 1.37158H6.05676Z" fill="#C98001"/>
<path d="M16.391 6.26934H7.60734C6.97852 6.26934 6.46875 5.75957 6.46875 5.13075V3.62639C6.46875 2.99756 6.97852 2.48779 7.60734 2.48779H16.391C17.0198 2.48779 17.5296 2.99756 17.5296 3.62639V5.1307C17.5296 5.75957 17.0198 6.26934 16.391 6.26934Z" fill="#C98001"/>
<path d="M19.0654 6.87547V21.7002C18.5755 22.0578 18.0576 22.3789 17.5152 22.6597C16.9874 22.9334 16.4371 23.1692 15.8671 23.3628H8.13273C7.56227 23.1692 7.01148 22.9334 6.48367 22.6597C5.76273 22.2856 5.08445 21.8408 4.45867 21.3341C4.29602 21.2033 4.13758 21.0678 3.98242 20.9281V6.87547C3.98242 6.50844 4.17883 6.18734 4.4718 6.01156C4.62367 5.91969 4.80133 5.86719 4.99117 5.86719H18.0566C18.6135 5.86719 19.0654 6.31859 19.0654 6.87547Z" fill="#C98001"/>
<path d="M19.5415 6.17234V21.3341C19.3863 21.4602 19.2274 21.582 19.0657 21.7002C18.5759 22.0578 18.0579 22.3789 17.5155 22.6597H6.48398C5.76305 22.2856 5.08477 21.8408 4.45898 21.3341V6.17234C4.45898 6.1175 4.4632 6.06406 4.47211 6.01156C4.54852 5.53109 4.96523 5.16406 5.46727 5.16406H18.5332C19.0901 5.16406 19.5415 5.61547 19.5415 6.17234Z" fill="#F1F4F6"/>
<path d="M15.0508 8.01893H8.94921C7.95199 8.01893 7.14062 7.20762 7.14062 6.21035V3.74121C7.14062 3.45645 7.37148 3.22559 7.65625 3.22559H16.3438C16.6286 3.22559 16.8594 3.45645 16.8594 3.74121V6.2103C16.8594 7.20757 16.0481 8.01893 15.0508 8.01893ZM8.17188 4.25684V6.2103C8.17188 6.63893 8.52058 6.98763 8.94921 6.98763H15.0508C15.4795 6.98763 15.8282 6.63893 15.8282 6.2103V4.25684H8.17188Z" fill="#D0E2E7"/>
<path d="M15.7933 17.5464C15.5848 17.5464 15.3889 17.4414 15.2738 17.2649L13.8781 15.1249C13.691 14.8379 13.7719 14.4536 14.0589 14.2665C14.3458 14.0794 14.7301 14.1602 14.9173 14.4472L15.6921 15.6352L17.7706 10.9967C17.9106 10.684 18.2777 10.5442 18.5903 10.6843C18.9029 10.8244 19.0428 11.1914 18.9027 11.504L16.3595 17.1798C16.2666 17.3869 16.0682 17.5268 15.8419 17.5445C15.8257 17.5458 15.8095 17.5464 15.7933 17.5464Z" fill="#E94A47"/>
<path d="M12.8864 23.791C12.8822 23.8514 12.8742 23.911 12.863 23.9691C12.578 23.9897 12.2906 24 12.0005 24C6.33609 24 1.58766 20.0747 0.328125 14.7956C0.36375 13.3153 0.433594 11.835 0.538125 10.3547C0.590156 9.61455 1.16203 9.01689 1.89891 8.93299C5.10796 8.56596 8.31656 8.56596 11.5256 8.93299C12.2625 9.01689 12.8344 9.61455 12.8864 10.3547C13.2028 14.8336 13.2028 19.312 12.8864 23.791Z" fill="#20446C"/>
<path d="M2.11125 8.90967C1.68937 9.1717 1.40062 9.62545 1.36359 10.1481C1.20094 12.4548 1.11984 14.7611 1.11984 17.0673C0.78375 16.3464 0.516562 15.5865 0.328125 14.7962C0.328125 14.7958 0.328125 14.7958 0.328125 14.7958C0.36375 13.3154 0.433594 11.8351 0.538125 10.3548C0.590156 9.61514 1.16156 9.01748 1.89891 8.93311C1.96922 8.92514 2.04047 8.91764 2.11125 8.90967Z" fill="#0A2E43"/>
<path d="M10.5132 15.1104H2.91199C2.32798 15.1104 1.85449 14.637 1.85449 14.0529V11.4735C1.85449 10.8895 2.32793 10.416 2.91199 10.416H10.5132C11.0973 10.416 11.5707 10.8895 11.5707 11.4735V14.0529C11.5707 14.637 11.0973 15.1104 10.5132 15.1104Z" fill="#F0F0F0"/>
<path d="M4.13186 17.9634H2.48529C2.13691 17.9634 1.85449 17.6809 1.85449 17.3326V16.3622C1.85449 16.0139 2.13691 15.7314 2.48529 15.7314H4.13186C4.48024 15.7314 4.76266 16.0139 4.76266 16.3622V17.3326C4.76266 17.6809 4.48024 17.9634 4.13186 17.9634Z" fill="#F1F4F6"/>
<path d="M3.06757 17.9634H2.48538C2.13687 17.9634 1.85449 17.6805 1.85449 17.3325V16.3618C1.85449 16.0138 2.13682 15.731 2.48538 15.731H3.06757C2.71906 15.731 2.43668 16.0138 2.43668 16.3618V17.3325C2.43668 17.6805 2.71901 17.9634 3.06757 17.9634Z" fill="#D0E2E7"/>
<path d="M7.53617 18.0361H5.88959C5.54121 18.0361 5.25879 17.7537 5.25879 17.4053V16.435C5.25879 16.0866 5.54121 15.8042 5.88959 15.8042H7.53617C7.88454 15.8042 8.16697 16.0866 8.16697 16.435V17.4053C8.16697 17.7537 7.88454 18.0361 7.53617 18.0361Z" fill="#F1F4F6"/>
<path d="M10.9405 18.0361H9.29388C8.94551 18.0361 8.66309 17.7537 8.66309 17.4053V16.435C8.66309 16.0866 8.94551 15.8042 9.29388 15.8042H10.9405C11.2888 15.8042 11.5713 16.0866 11.5713 16.435V17.4053C11.5713 17.7537 11.2888 18.0361 10.9405 18.0361Z" fill="#F1F4F6"/>
<path d="M6.47187 18.0361H5.88968C5.54116 18.0361 5.25879 17.7532 5.25879 17.4052V16.4346C5.25879 16.0866 5.54112 15.8037 5.88968 15.8037H6.47187C6.12335 15.8037 5.84098 16.0866 5.84098 16.4346V17.4052C5.84098 17.7533 6.1233 18.0361 6.47187 18.0361Z" fill="#D0E2E7"/>
<path d="M9.87616 18.0361H9.29398C8.94546 18.0361 8.66309 17.7532 8.66309 17.4052V16.4346C8.66309 16.0866 8.94541 15.8037 9.29398 15.8037H9.87616C9.52765 15.8037 9.24527 16.0866 9.24527 16.4346V17.4052C9.24527 17.7533 9.5276 18.0361 9.87616 18.0361Z" fill="#D0E2E7"/>
<path d="M4.76297 19.2491V20.2194C4.76297 20.5682 4.48031 20.8504 4.13203 20.8504H3.89765C3.21703 20.2269 2.60859 19.5262 2.08594 18.7612C2.19469 18.6721 2.33344 18.6187 2.48531 18.6187H4.13203C4.48031 18.6187 4.76297 18.9008 4.76297 19.2491Z" fill="#F1F4F6"/>
<path d="M3.06699 18.6182C2.71918 18.6182 2.43746 18.8999 2.43652 19.2477C2.31512 19.0888 2.1984 18.9261 2.08543 18.7611C2.08543 18.7611 2.08543 18.7607 2.08496 18.7607C2.19371 18.6721 2.33293 18.6182 2.4848 18.6182H3.06699Z" fill="#D0E2E7"/>
<path d="M7.53519 20.9233H5.88861C5.54024 20.9233 5.25781 20.6409 5.25781 20.2925V19.3222C5.25781 18.9738 5.54024 18.6914 5.88861 18.6914H7.53519C7.88357 18.6914 8.16599 18.9738 8.16599 19.3222V20.2925C8.16599 20.6409 7.88357 20.9233 7.53519 20.9233Z" fill="#F1F4F6"/>
<path d="M10.9395 20.9233H9.29291C8.94453 20.9233 8.66211 20.6409 8.66211 20.2925V19.3222C8.66211 18.9738 8.94453 18.6914 9.29291 18.6914H10.9395C11.2879 18.6914 11.5703 18.9738 11.5703 19.3222V20.2925C11.5703 20.6409 11.2879 20.9233 10.9395 20.9233Z" fill="#F1F4F6"/>
<path d="M6.47089 20.9233H5.8887C5.54019 20.9233 5.25781 20.6405 5.25781 20.2924V19.3218C5.25781 18.9738 5.54014 18.6909 5.8887 18.6909H6.47089C6.12238 18.6909 5.84 18.9738 5.84 19.3218V20.2924C5.84 20.6405 6.12233 20.9233 6.47089 20.9233Z" fill="#D0E2E7"/>
<path d="M9.87519 20.9233H9.293C8.94448 20.9233 8.66211 20.6405 8.66211 20.2924V19.3218C8.66211 18.9738 8.94444 18.6909 9.293 18.6909H9.87519C9.52667 18.6909 9.2443 18.9738 9.2443 19.3218V20.2924C9.2443 20.6405 9.52662 20.9233 9.87519 20.9233Z" fill="#D0E2E7"/>
<path d="M8.16703 22.2086V23.1789C8.16703 23.2436 8.15718 23.3059 8.13937 23.3645C7.12828 23.0214 6.17812 22.547 5.30859 21.962C5.40469 21.7361 5.62875 21.5781 5.88937 21.5781H7.53609C7.88437 21.5781 8.16703 21.8603 8.16703 22.2086Z" fill="#F1F4F6"/>
<path d="M11.5702 22.2086V23.1789C11.5702 23.5277 11.288 23.8098 10.9398 23.8098H9.86398C9.50164 23.7447 9.14539 23.6636 8.79523 23.5666C8.7118 23.4597 8.66211 23.3252 8.66211 23.1789V22.2086C8.66211 21.8603 8.94477 21.5781 9.29305 21.5781H10.9398C11.288 21.5781 11.5702 21.8603 11.5702 22.2086Z" fill="#F1F4F6"/>
<path d="M6.47156 21.5776C6.12328 21.5776 5.84062 21.8603 5.84062 22.2086V22.3C5.66015 22.1917 5.4825 22.0792 5.30859 21.962C5.40469 21.7361 5.62875 21.5776 5.88937 21.5776H6.47156Z" fill="#D0E2E7"/>
<path d="M9.8623 23.8096C9.86638 23.81 9.8709 23.81 9.87498 23.81H9.86411C9.86366 23.81 9.86276 23.81 9.8623 23.8096Z" fill="#D0E2E7"/>
<path d="M9.65398 23.77C9.36383 23.7128 9.07742 23.6448 8.79523 23.5665C8.7118 23.4592 8.66211 23.3247 8.66211 23.1789V22.2086C8.66211 21.8603 8.94477 21.5776 9.29305 21.5776H9.87523C9.52695 21.5776 9.2443 21.8603 9.2443 22.2086V23.1789C9.2443 23.4494 9.41492 23.6805 9.65398 23.77Z" fill="#D0E2E7"/>
<path d="M3.42352 14.2988C3.39662 14.2988 3.36924 14.2936 3.34285 14.2825C3.23654 14.2379 3.18657 14.1155 3.23115 14.0093L4.35286 11.3365C4.39749 11.2302 4.51974 11.1802 4.6261 11.2248C4.73241 11.2694 4.78238 11.3918 4.7378 11.498L3.61608 14.1708C3.58257 14.2507 3.50508 14.2988 3.42352 14.2988Z" fill="#434B53"/>
<path d="M3.20923 12.6533C2.82087 12.6533 2.50488 12.3013 2.50488 11.8686C2.50488 11.436 2.82087 11.084 3.20923 11.084C3.59763 11.084 3.91357 11.436 3.91357 11.8686C3.91362 12.3013 3.59763 12.6533 3.20923 12.6533ZM3.20923 11.5015C3.05102 11.5015 2.92235 11.6662 2.92235 11.8687C2.92235 12.0712 3.05107 12.2359 3.20923 12.2359C3.36743 12.2359 3.49615 12.0712 3.49615 11.8687C3.49615 11.6662 3.36743 11.5015 3.20923 11.5015Z" fill="#434B53"/>
<path d="M4.72388 14.481C4.33547 14.481 4.01953 14.129 4.01953 13.6963C4.01953 13.2636 4.33552 12.9116 4.72388 12.9116C5.11223 12.9116 5.42822 13.2636 5.42822 13.6963C5.42822 14.129 5.11223 14.481 4.72388 14.481ZM4.72388 13.3291C4.56567 13.3291 4.43695 13.4939 4.43695 13.6964C4.43695 13.8989 4.56567 14.0636 4.72388 14.0636C4.88208 14.0636 5.01075 13.8989 5.01075 13.6964C5.01075 13.4939 4.88203 13.3291 4.72388 13.3291Z" fill="#434B53"/>
<path d="M6.20184 14.2988C6.17494 14.2988 6.14756 14.2936 6.12117 14.2825C6.01486 14.2379 5.96489 14.1155 6.00947 14.0093L7.13119 11.3365C7.17581 11.2302 7.29806 11.1802 7.40442 11.2248C7.51073 11.2694 7.5607 11.3918 7.51612 11.498L6.3944 14.1708C6.36089 14.2507 6.28341 14.2988 6.20184 14.2988Z" fill="#434B53"/>
<path d="M5.98754 12.6533C5.59919 12.6533 5.2832 12.3013 5.2832 11.8686C5.2832 11.436 5.59919 11.084 5.98754 11.084C6.37595 11.084 6.69189 11.436 6.69189 11.8686C6.69193 12.3013 6.37595 12.6533 5.98754 12.6533ZM5.98754 11.5015C5.82934 11.5015 5.70067 11.6662 5.70067 11.8687C5.70067 12.0712 5.82939 12.2359 5.98754 12.2359C6.14575 12.2359 6.27447 12.0712 6.27447 11.8687C6.27447 11.6662 6.14575 11.5015 5.98754 11.5015Z" fill="#434B53"/>
<path d="M7.5022 14.481C7.11379 14.481 6.79785 14.129 6.79785 13.6963C6.79785 13.2636 7.11384 12.9116 7.5022 12.9116C7.89056 12.9116 8.20654 13.2636 8.20654 13.6963C8.20654 14.129 7.8906 14.481 7.5022 14.481ZM7.5022 13.3291C7.34399 13.3291 7.21527 13.4939 7.21527 13.6964C7.21527 13.8989 7.34399 14.0636 7.5022 14.0636C7.6604 14.0636 7.78907 13.8989 7.78907 13.6964C7.78907 13.4939 7.6604 13.3291 7.5022 13.3291Z" fill="#434B53"/>
<path d="M8.97919 14.2988C8.95228 14.2988 8.92491 14.2936 8.89851 14.2825C8.7922 14.2379 8.74223 14.1155 8.78681 14.0093L9.90853 11.3365C9.95315 11.2302 10.0754 11.1802 10.1818 11.2248C10.2881 11.2694 10.338 11.3918 10.2935 11.498L9.17175 14.1708C9.13823 14.2507 9.06075 14.2988 8.97919 14.2988Z" fill="#434B53"/>
<path d="M8.76489 12.6533C8.37653 12.6533 8.06055 12.3013 8.06055 11.8686C8.06055 11.436 8.37653 11.084 8.76489 11.084C9.1533 11.084 9.46923 11.436 9.46923 11.8686C9.46928 12.3013 9.1533 12.6533 8.76489 12.6533ZM8.76489 11.5015C8.60669 11.5015 8.47802 11.6662 8.47802 11.8687C8.47802 12.0712 8.60673 12.2359 8.76489 12.2359C8.92309 12.2359 9.05181 12.0712 9.05181 11.8687C9.05181 11.6662 8.92309 11.5015 8.76489 11.5015Z" fill="#434B53"/>
<path d="M10.2795 14.481C9.89113 14.481 9.5752 14.129 9.5752 13.6963C9.5752 13.2636 9.89118 12.9116 10.2795 12.9116C10.6679 12.9116 10.9839 13.2636 10.9839 13.6963C10.9839 14.129 10.6679 14.481 10.2795 14.481ZM10.2795 13.3291C10.1213 13.3291 9.99262 13.4939 9.99262 13.6964C9.99262 13.8989 10.1213 14.0636 10.2795 14.0636C10.4377 14.0636 10.5664 13.8989 10.5664 13.6964C10.5664 13.4939 10.4377 13.3291 10.2795 13.3291Z" fill="#434B53"/>
</g>
<defs>
<clipPath id="clip0_2645_16092">
<rect width="24" height="24" fill="white"/>
</clipPath>
</defs>
</svg>
