<svg width="26" height="27" viewBox="0 0 26 27" fill="none" xmlns="http://www.w3.org/2000/svg">
<path d="M11.5196 0.574576C12.3115 -0.191535 13.5683 -0.191536 14.3603 0.574576L15.7573 1.92603C16.2101 2.36412 16.8398 2.56872 17.4637 2.48048L19.3882 2.20826C20.4792 2.05395 21.496 2.79268 21.6864 3.87796L22.0222 5.79244C22.1311 6.41305 22.5202 6.9487 23.0768 7.24401L24.7938 8.15501C25.7672 8.67143 26.1555 9.86673 25.6716 10.8566L24.818 12.6029C24.5413 13.169 24.5413 13.831 24.818 14.3971L25.6716 16.1434C26.1555 17.1333 25.7672 18.3286 24.7938 18.845L23.0768 19.756C22.5202 20.0513 22.1311 20.5869 22.0222 21.2076L21.6864 23.122C21.496 24.2073 20.4792 24.9461 19.3882 24.7917L17.4637 24.5195C16.8398 24.4313 16.2101 24.6359 15.7573 25.074L14.3603 26.4254C13.5683 27.1915 12.3115 27.1915 11.5196 26.4254L10.1226 25.074C9.66975 24.6359 9.04006 24.4313 8.41618 24.5195L6.49163 24.7917C5.40064 24.9461 4.38386 24.2073 4.19348 23.122L3.85766 21.2076C3.74879 20.5869 3.35962 20.0513 2.80303 19.756L1.08603 18.845C0.112696 18.3286 -0.275681 17.1333 0.208215 16.1434L1.06183 14.3971C1.33854 13.831 1.33854 13.169 1.06183 12.6029L0.208216 10.8566C-0.275681 9.86673 0.112695 8.67143 1.08603 8.15501L2.80303 7.24401C3.35962 6.9487 3.74879 6.41305 3.85766 5.79244L4.19348 3.87797C4.38386 2.79268 5.40064 2.05395 6.49163 2.20826L8.41618 2.48048C9.04006 2.56872 9.66975 2.36412 10.1226 1.92603L11.5196 0.574576Z" fill="url(#paint0_linear_834_32453)"/>
<defs>
<linearGradient id="paint0_linear_834_32453" x1="1.94035" y1="1.40046" x2="24.4895" y2="25.5995" gradientUnits="userSpaceOnUse">
<stop stop-color="#E0412B"/>
<stop offset="1" stop-color="#F0792E"/>
</linearGradient>
</defs>
</svg>
