<svg width="44" height="28" viewBox="0 0 44 28" fill="none" xmlns="http://www.w3.org/2000/svg">
<path d="M41.8604 0.0922359H2.18035C1.91065 0.0888434 1.64296 0.139367 1.39281 0.240877C1.14266 0.342387 0.915038 0.492859 0.723134 0.683573C0.53123 0.874286 0.378871 1.10144 0.274889 1.35187C0.170907 1.60229 0.117372 1.87099 0.117393 2.14239V20.3324C0.113973 20.6059 0.164996 20.8774 0.267458 21.1308C0.369921 21.3842 0.521749 21.6144 0.713998 21.8079C0.906246 22.0013 1.13503 22.1541 1.38686 22.2572C1.6387 22.3603 1.90849 22.4116 2.18035 22.4082H18.8266L22.3616 26.9698L25.3058 22.4082H41.8604C42.4031 22.4014 42.9213 22.1798 43.3027 21.7912C43.6841 21.4027 43.8979 20.8785 43.8979 20.3324V2.18852C43.9033 1.63886 43.6918 1.10947 43.3099 0.716478C42.9279 0.32349 42.4066 0.098995 41.8604 0.0922359Z" fill="white"/>
<path d="M41.8606 0.0922573H42.0542C42.2478 0.107073 42.4383 0.150239 42.6196 0.220392C42.917 0.327722 43.1856 0.503191 43.404 0.732932C43.7072 1.05859 43.8982 1.47365 43.9491 1.9169C43.9898 3.90042 43.9796 6.7809 43.9949 10.4302C43.9949 12.2548 43.9949 14.2691 43.9949 16.4525C43.9949 17.5442 43.9949 18.6821 43.9949 19.8558C44.0088 20.1588 43.9952 20.4625 43.9541 20.763C43.8905 21.0736 43.762 21.3671 43.5772 21.624C43.3871 21.887 43.1404 22.1034 42.8555 22.2569C42.5706 22.4105 42.2549 22.4972 41.9319 22.5107L25.2806 22.5364L25.3876 22.48L22.4434 27.0467L22.3466 27.1953L22.2346 27.0518L18.6995 22.4954L18.8014 22.5466H2.80203C2.51169 22.5466 2.24172 22.5466 1.931 22.5466C1.63027 22.5134 1.34016 22.4156 1.08035 22.2596C0.822953 22.1058 0.599705 21.9004 0.424461 21.6562C0.249216 21.4119 0.125713 21.1341 0.0616106 20.8399C0.00827933 20.551 -0.0105315 20.2568 0.00557943 19.9634V12.4701C0.00557943 10.2935 0.00557943 8.1545 0.00557943 6.05309V2.18854C0.0107697 1.91733 0.0606885 1.64886 0.153298 1.3941C0.341603 0.894915 0.703607 0.481487 1.17204 0.230641C1.40536 0.107951 1.65922 0.0297555 1.92082 0C2.18569 0 2.43019 0 2.67468 0H12.4954H22.3517L36.6141 0.0410002H40.4904H41.5092H41.8555H41.5092H40.4904L36.6141 0.0666287L22.3517 0.107633H12.4954H2.68487C2.44224 0.0946651 2.1991 0.0946651 1.95647 0.107633C1.72411 0.129546 1.4987 0.199329 1.29429 0.312645C0.873019 0.529777 0.545134 0.894336 0.372327 1.33772C0.284941 1.56139 0.240018 1.79957 0.23989 2.0399V2.80359C0.23989 3.82867 0.23989 4.85375 0.23989 5.91983V12.3368C0.23989 14.5202 0.23989 16.7412 0.23989 18.9998V19.8455C0.22363 20.118 0.239017 20.3915 0.285735 20.6605C0.344783 20.9212 0.456696 21.1668 0.614465 21.382C0.772233 21.5972 0.972457 21.7773 1.2026 21.9111C1.43048 22.0499 1.68631 22.1357 1.95138 22.1622C2.21116 22.1622 2.51169 22.1622 2.79184 22.1622H18.8778L18.9185 22.2083C20.1359 23.787 21.3381 25.3348 22.4536 26.7751H22.2447L25.194 22.2135L25.2297 22.1571H25.2959H41.937C42.2297 22.1461 42.5161 22.0684 42.7746 21.9299C43.0331 21.7914 43.2571 21.5957 43.4295 21.3575C43.6001 21.1264 43.7183 20.8605 43.7759 20.5785C43.8153 20.2898 43.829 19.9982 43.8166 19.7071C43.8166 18.5334 43.8166 17.3956 43.8166 16.3039C43.8166 14.1205 43.8166 12.1062 43.8166 10.2815C43.8166 6.64251 43.8166 3.76204 43.8421 1.77851C43.8038 1.40709 43.6654 1.05325 43.4419 0.75517C43.2184 0.457092 42.9182 0.226101 42.5737 0.0871308C42.3372 0.0523778 42.0967 0.0541072 41.8606 0.0922573Z" fill="#263238"/>
<path d="M14.5885 5.22281V5.89936H14.1556V5.21769L13.4221 3.99785H13.8856L14.395 4.84353L14.9043 3.99785H15.3322L14.5885 5.22281Z" fill="#263238"/>
<path d="M15.3074 4.94597C15.2992 4.74168 15.352 4.53961 15.4589 4.36573C15.5658 4.19185 15.7219 4.0541 15.9072 3.97019C16.0925 3.88628 16.2985 3.86004 16.4987 3.89484C16.6989 3.92964 16.8842 4.02389 17.0308 4.16548C17.1774 4.30707 17.2786 4.48953 17.3213 4.68942C17.364 4.8893 17.3463 5.09747 17.2706 5.28718C17.1948 5.47689 17.0644 5.63947 16.8961 5.75403C16.7278 5.86859 16.5293 5.92988 16.3261 5.93005C16.1943 5.93558 16.0627 5.91422 15.9393 5.86724C15.8159 5.82027 15.7032 5.74866 15.6081 5.65672C15.5129 5.56479 15.4372 5.45442 15.3855 5.33228C15.3338 5.21013 15.3073 5.07872 15.3074 4.94597ZM16.9323 4.94597C16.9293 4.82908 16.8921 4.71568 16.8253 4.61995C16.7586 4.52422 16.6653 4.45041 16.5571 4.40776C16.4489 4.36511 16.3306 4.35551 16.217 4.38015C16.1034 4.4048 15.9996 4.46261 15.9185 4.54634C15.8374 4.63007 15.7826 4.736 15.761 4.85089C15.7394 4.96578 15.752 5.08453 15.7971 5.19228C15.8423 5.30002 15.918 5.39199 16.0148 5.45666C16.1116 5.52134 16.2252 5.55585 16.3414 5.55589C16.4209 5.55813 16.5 5.54377 16.5737 5.5137C16.6474 5.48364 16.7142 5.43853 16.7697 5.38122C16.8252 5.32391 16.8683 5.25565 16.8963 5.18073C16.9243 5.10582 16.9365 5.02588 16.9323 4.94597Z" fill="#263238"/>
<path d="M17.6912 5.06392V3.99785H18.1293V5.02292C18.1293 5.38169 18.2821 5.53545 18.547 5.53545C18.8119 5.53545 18.9698 5.38682 18.9698 5.02292V3.99785H19.4027V5.06392C19.4027 5.29229 19.3126 5.5113 19.1521 5.67278C18.9916 5.83426 18.7739 5.92498 18.547 5.92498C18.32 5.92498 18.1024 5.83426 17.9419 5.67278C17.7814 5.5113 17.6912 5.29229 17.6912 5.06392Z" fill="#263238"/>
<path d="M21.0377 5.89936L20.671 5.38682H20.2737V5.89936H19.8356V3.99785H20.6506C21.16 3.99785 21.4707 4.26436 21.4707 4.68977C21.4756 4.81771 21.441 4.94403 21.3717 5.0514C21.3024 5.15877 21.2017 5.24192 21.0836 5.28944L21.5063 5.89936H21.0377ZM20.6251 4.36175H20.2737V5.02292H20.6251C20.8951 5.02292 21.0275 4.89991 21.0275 4.6949C21.0275 4.48988 20.8951 4.35662 20.6251 4.35662V4.36175Z" fill="#263238"/>
<path d="M22.4636 4.94591C22.4663 4.73614 22.5328 4.53226 22.6544 4.36178C22.7759 4.1913 22.9464 4.06244 23.143 3.99259C23.3396 3.92274 23.5528 3.91527 23.7537 3.97117C23.9547 4.02708 24.1337 4.14368 24.2667 4.30524L23.9866 4.56151C23.9274 4.49201 23.854 4.4363 23.7713 4.39824C23.6886 4.36019 23.5987 4.34069 23.5078 4.34111C23.3573 4.35504 23.2173 4.42505 23.1155 4.53741C23.0136 4.64978 22.9571 4.79638 22.9571 4.94847C22.9571 5.10057 23.0136 5.24717 23.1155 5.35953C23.2173 5.47189 23.3573 5.5419 23.5078 5.55583C23.5993 5.5567 23.6898 5.53688 23.7727 5.49785C23.8555 5.45882 23.9286 5.40157 23.9866 5.33031L24.2667 5.59171C24.1334 5.75358 23.9539 5.8703 23.7525 5.92606C23.5511 5.98182 23.3375 5.97392 23.1407 5.90343C22.9438 5.83294 22.7733 5.70327 22.6522 5.532C22.5311 5.36072 22.4652 5.15611 22.4636 4.94591Z" fill="#263238"/>
<path d="M24.4046 4.94596C24.3964 4.74167 24.4492 4.5396 24.5561 4.36573C24.663 4.19185 24.8191 4.0541 25.0044 3.97019C25.1897 3.88628 25.3957 3.86004 25.5959 3.89484C25.7961 3.92964 25.9814 4.02389 26.128 4.16548C26.2746 4.30707 26.3757 4.48953 26.4185 4.68941C26.4612 4.88929 26.4435 5.09746 26.3678 5.28717C26.292 5.47688 26.1616 5.63946 25.9933 5.75402C25.825 5.86857 25.6265 5.92987 25.4233 5.93004C25.2913 5.9363 25.1594 5.91545 25.0357 5.86874C24.912 5.82204 24.799 5.75046 24.7037 5.65838C24.6083 5.56629 24.5327 5.45564 24.4812 5.33315C24.4298 5.21067 24.4037 5.07892 24.4046 4.94596ZM26.0244 4.94596C26.0213 4.82907 25.9842 4.71567 25.9174 4.61995C25.8507 4.52422 25.7574 4.45041 25.6492 4.40776C25.541 4.36511 25.4227 4.3555 25.3091 4.38015C25.1955 4.4048 25.0917 4.4626 25.0106 4.54633C24.9295 4.63006 24.8747 4.736 24.8531 4.85089C24.8315 4.96578 24.8441 5.08452 24.8892 5.19227C24.9343 5.30001 25.0101 5.39198 25.1069 5.45665C25.2037 5.52133 25.3173 5.55584 25.4335 5.55588C25.5132 5.55891 25.5927 5.54508 25.6667 5.51529C25.7408 5.4855 25.8078 5.44042 25.8635 5.38294C25.9192 5.32547 25.9623 5.25688 25.99 5.18161C26.0177 5.10634 26.0294 5.02606 26.0244 4.94596Z" fill="#263238"/>
<path d="M26.7982 3.99772H27.659C27.789 3.98812 27.9195 4.00558 28.0424 4.049C28.1653 4.09243 28.278 4.16089 28.3734 4.25012C28.4688 4.33934 28.5449 4.44741 28.597 4.56757C28.649 4.68773 28.6759 4.8174 28.6759 4.94847C28.6759 5.07955 28.649 5.20921 28.597 5.32937C28.5449 5.44953 28.4688 5.5576 28.3734 5.64682C28.278 5.73605 28.1653 5.80451 28.0424 5.84794C27.9195 5.89136 27.789 5.90882 27.659 5.89922H26.7982V3.99772ZM27.6336 5.53532C27.7147 5.54296 27.7966 5.53347 27.8739 5.50745C27.9512 5.48143 28.0223 5.43947 28.0826 5.38423C28.1429 5.32899 28.191 5.2617 28.224 5.18666C28.2569 5.11163 28.2739 5.0305 28.2739 4.94847C28.2739 4.86644 28.2569 4.78531 28.224 4.71027C28.191 4.63524 28.1429 4.56795 28.0826 4.51271C28.0223 4.45748 27.9512 4.41551 27.8739 4.38949C27.7966 4.36347 27.7147 4.35398 27.6336 4.36162H27.2363V5.53532H27.6336Z" fill="#263238"/>
<path d="M30.4914 5.54571V5.89936H29.0295V3.99785H30.4557V4.3515H29.4625V4.75128H30.3386V5.08955H29.4625V5.53033L30.4914 5.54571Z" fill="#263238"/>
<path d="M37.9845 7.89311H6.05206C5.05338 7.89311 4.24379 8.70774 4.24379 9.71263V16.4986C4.24379 17.5035 5.05338 18.3182 6.05206 18.3182H37.9845C38.9832 18.3182 39.7928 17.5035 39.7928 16.4986V9.71263C39.7928 8.70774 38.9832 7.89311 37.9845 7.89311Z" fill="#F5F5F5"/>
<path d="M11.4719 13.7411C11.4728 13.9557 11.4291 14.1681 11.3435 14.3647C11.258 14.5613 11.1325 14.7376 10.9751 14.8825C10.8178 15.0273 10.632 15.1374 10.4298 15.2056C10.2276 15.2739 10.0135 15.2988 9.80115 15.2788C8.48188 15.2788 7.76367 14.3306 7.76367 12.7468C7.76367 11.0401 8.66526 10.1841 9.99471 10.1841C10.3899 10.1659 10.7826 10.2563 11.1306 10.4455L10.9829 10.7428C10.6816 10.5739 10.3391 10.494 9.99471 10.5121C8.869 10.5121 8.13042 11.2553 8.13042 12.7161C8.12867 12.9184 8.14229 13.1206 8.17117 13.3209C8.29079 12.9983 8.51163 12.7237 8.80024 12.5387C9.08884 12.3538 9.42949 12.2685 9.77059 12.2958C10.7995 12.2445 11.4719 12.8339 11.4719 13.7411ZM11.1051 13.7411C11.1051 13.0185 10.5958 12.552 9.74512 12.552C9.57415 12.5337 9.40125 12.5508 9.2371 12.6022C9.07295 12.6537 8.92104 12.7385 8.79072 12.8514C8.66041 12.9643 8.55448 13.1028 8.47946 13.2585C8.40444 13.4142 8.36192 13.5837 8.35454 13.7565C8.35454 14.3459 8.86391 14.9354 9.79096 14.9354C9.95632 14.9533 10.1236 14.9361 10.2819 14.8848C10.4402 14.8336 10.5861 14.7494 10.71 14.6377C10.8339 14.5261 10.9331 14.3895 11.0012 14.2368C11.0693 14.0841 11.1047 13.9187 11.1051 13.7514V13.7411Z" fill="#F0792E"/>
<path d="M18.1292 13.8284H17.0799V15.2276H16.7183V13.8284H13.8607V13.5619L16.5807 10.1791H17.0188L14.3446 13.5055H16.7539V12.2703H17.1054V13.5055H18.1547L18.1292 13.8284Z" fill="#F0792E"/>
<path d="M23.7014 13.8077C23.7014 14.6431 23.0953 15.2633 21.9441 15.2633C21.6192 15.2772 21.295 15.2244 20.9911 15.1081C20.6872 14.9917 20.4101 14.8144 20.1766 14.5867L20.3599 14.3048C20.568 14.5114 20.8159 14.673 21.0883 14.7796C21.3607 14.8863 21.652 14.9357 21.9441 14.925C22.8457 14.925 23.3296 14.4945 23.3296 13.8077C23.3296 13.1209 22.866 12.6903 21.8626 12.6903H21.5519V12.4392L23.0341 10.5274H20.3599V10.1943H23.5079V10.4557L21.9797 12.3982C23.1309 12.4084 23.7014 12.9876 23.7014 13.8077Z" fill="#F0792E"/>
<path d="M29.7532 10.1791V10.4405L27.5986 15.2276H27.2064L29.3406 10.5123H26.5238V11.481H26.1876V10.1791H29.7532Z" fill="#F0792E"/>
<path d="M32.3257 12.7059C32.3257 11.1273 33.1356 10.1432 34.2867 10.1432C35.4379 10.1432 36.2478 11.1273 36.2478 12.7059C36.2478 14.2845 35.4379 15.2686 34.2867 15.2686C33.1356 15.2686 32.3257 14.2845 32.3257 12.7059ZM35.8913 12.7059C35.8913 11.3016 35.2393 10.4866 34.2918 10.4866C33.3444 10.4866 32.6924 11.3016 32.6924 12.7059C32.6924 14.1103 33.3444 14.9252 34.2918 14.9252C35.2393 14.9252 35.8658 14.1103 35.8658 12.7059H35.8913Z" fill="#F0792E"/>
</svg>
