<svg width="20" height="20" viewBox="0 0 20 20" fill="none" xmlns="http://www.w3.org/2000/svg">
<g clip-path="url(#clip0_66810_19657)">
<path d="M18.7879 9.33746L15.2524 5.80195C15.1653 5.71489 15.062 5.64583 14.9482 5.59871C14.8345 5.55159 14.7126 5.52734 14.5895 5.52734C14.4663 5.52734 14.3444 5.55159 14.2307 5.59871C14.1169 5.64583 14.0136 5.71489 13.9265 5.80195C13.7507 5.97776 13.6519 6.21622 13.6519 6.46486C13.6519 6.7135 13.7507 6.95195 13.9265 7.12777L15.8617 9.06289H5.625C5.37636 9.06289 5.1379 9.16166 4.96209 9.33747C4.78627 9.51329 4.6875 9.75175 4.6875 10.0004C4.6875 10.249 4.78627 10.4875 4.96209 10.6633C5.1379 10.8391 5.37636 10.9379 5.625 10.9379H15.8617L13.9265 12.873C13.7507 13.0488 13.6519 13.2873 13.6519 13.5359C13.6519 13.7846 13.7507 14.023 13.9265 14.1988C14.1024 14.3747 14.3408 14.4734 14.5895 14.4734C14.8381 14.4734 15.0766 14.3746 15.2524 14.1988L18.7879 10.6633C18.9637 10.4875 19.0625 10.249 19.0625 10.0004C19.0625 9.75173 18.9637 9.51327 18.7879 9.33746Z" fill="white"/>
<path d="M11.875 15.3125C11.6264 15.3125 11.3879 15.4113 11.2121 15.5871C11.0363 15.7629 10.9375 16.0014 10.9375 16.25V17.1875H2.8125V2.8125H10.9375V3.75C10.9375 3.99864 11.0363 4.2371 11.2121 4.41291C11.3879 4.58873 11.6264 4.6875 11.875 4.6875C12.1236 4.6875 12.3621 4.58873 12.5379 4.41291C12.7137 4.2371 12.8125 3.99864 12.8125 3.75V2.5C12.8125 2.29481 12.7721 2.09163 12.6936 1.90206C12.615 1.71249 12.4999 1.54024 12.3549 1.39515C12.2098 1.25005 12.0375 1.13496 11.8479 1.05644C11.6584 0.977915 11.4552 0.9375 11.25 0.9375H2.5C2.0856 0.9375 1.68817 1.10212 1.39515 1.39515C1.10212 1.68817 0.9375 2.0856 0.9375 2.5V17.5C0.9375 17.9144 1.10212 18.3118 1.39515 18.6049C1.68817 18.8979 2.0856 19.0625 2.5 19.0625H11.25C11.4552 19.0625 11.6584 19.0221 11.8479 18.9436C12.0375 18.865 12.2098 18.7499 12.3549 18.6049C12.4999 18.4598 12.615 18.2875 12.6936 18.0979C12.7721 17.9084 12.8125 17.7052 12.8125 17.5V16.25C12.8125 16.0014 12.7137 15.7629 12.5379 15.5871C12.3621 15.4113 12.1236 15.3125 11.875 15.3125Z" fill="white"/>
</g>
<defs>
<clipPath id="clip0_66810_19657">
<rect width="20" height="20" fill="white"/>
</clipPath>
</defs>
</svg>
