<svg width="28" height="28" viewBox="0 0 28 28" fill="none" xmlns="http://www.w3.org/2000/svg">
<path d="M27.8398 5.13603L22.8632 0.16018C22.7607 0.0576406 22.6216 0 22.4766 0H6.23438C5.32973 0 4.59375 0.735984 4.59375 1.64062V2.68319C1.90723 3.73702 0 6.35551 0 9.41123C0 9.71321 0.244891 9.9581 0.546875 9.9581H7.22373C7.52571 9.9581 7.7706 9.71321 7.7706 9.41123V2.73438C7.7706 2.43239 7.52571 2.1875 7.22373 2.1875C6.69665 2.1875 6.1828 2.24476 5.6875 2.35249V1.64062C5.6875 1.33908 5.93283 1.09375 6.23438 1.09375H21.9297V4.42969C21.9297 5.33433 22.6657 6.07031 23.5703 6.07031H26.9062V26.3594C26.9062 26.6609 26.6609 26.9062 26.3594 26.9062H6.23438C5.93283 26.9062 5.6875 26.6609 5.6875 26.3594V21.6745C5.6875 21.3725 5.44261 21.1276 5.14062 21.1276C4.83864 21.1276 4.59375 21.3725 4.59375 21.6745V26.3594C4.59375 27.264 5.32973 28 6.23438 28H26.3594C27.264 28 28 27.264 28 26.3594V5.52273C28 5.3777 27.9424 5.23857 27.8398 5.13603ZM6.6768 3.30548V8.86435H1.11792C1.37938 5.91954 3.73204 3.56694 6.6768 3.30548ZM23.5703 4.97656C23.2688 4.97656 23.0234 4.73123 23.0234 4.42969V1.86703L26.1334 4.97656H23.5703Z" fill="#F0792E"/>
<path d="M5.52721 19.3009C5.42555 19.1991 5.28445 19.1406 5.14062 19.1406C4.9968 19.1406 4.8557 19.1991 4.75398 19.3009C4.65227 19.4026 4.59375 19.5437 4.59375 19.6875C4.59375 19.8313 4.65221 19.9724 4.75398 20.0741C4.8557 20.1759 4.9968 20.2344 5.14062 20.2344C5.28445 20.2344 5.42555 20.1759 5.52721 20.0741C5.62898 19.9724 5.6875 19.8313 5.6875 19.6875C5.6875 19.5437 5.62898 19.4026 5.52721 19.3009Z" fill="#F0792E"/>
<path d="M9.18266 4.14648C8.88067 4.14648 8.63578 4.39138 8.63578 4.69336V10.8233H2.50586C2.20388 10.8233 1.95898 11.0682 1.95898 11.3702C1.95898 15.3533 5.19949 18.5939 9.18266 18.5939C13.1658 18.5939 16.4064 15.3533 16.4064 11.3702C16.4064 7.38699 13.1658 4.14648 9.18266 4.14648ZM9.72953 5.26446C11.0098 5.3781 12.1779 5.88724 13.1112 6.66829L9.72953 10.0499V5.26446ZM9.18266 17.5001C5.98688 17.5001 3.35439 15.042 3.07696 11.917H9.18266C9.33359 11.917 9.4702 11.8559 9.56919 11.757C9.56924 11.757 9.5693 11.757 9.56941 11.7569L13.8847 7.44157C14.7757 8.50617 15.3126 9.87664 15.3126 11.3702C15.3126 14.7502 12.5627 17.5001 9.18266 17.5001Z" fill="#F0792E"/>
<path d="M23.9574 17.2598C23.0528 17.2598 22.3168 17.9957 22.3168 18.9004C22.3168 19.1271 22.3631 19.3432 22.4466 19.5398L19.2959 22.6905C19.0794 22.585 18.8363 22.5257 18.5797 22.5257C18.3292 22.5257 18.0918 22.5823 17.8792 22.6831L15.787 20.5909C15.8595 20.4058 15.8997 20.2046 15.8997 19.9941C15.8997 19.0894 15.1637 18.3535 14.2591 18.3535C13.3545 18.3535 12.6185 19.0894 12.6185 19.9941C12.6185 20.2392 12.6729 20.4717 12.7697 20.6808L10.7629 22.6876C10.5491 22.5853 10.3099 22.5279 10.0576 22.5279C9.15298 22.5279 8.41699 23.2639 8.41699 24.1685C8.41699 25.0732 9.15298 25.8092 10.0576 25.8092C10.9623 25.8092 11.6982 25.0732 11.6982 24.1685C11.6982 23.915 11.6404 23.6747 11.5372 23.4601L13.5328 21.4646C13.7519 21.5733 13.9985 21.6347 14.2592 21.6347C14.5537 21.6347 14.83 21.5563 15.0692 21.42L17.1024 23.4532C16.9978 23.6689 16.9391 23.9109 16.9391 24.1663C16.9391 25.0709 17.6751 25.8069 18.5797 25.8069C19.4844 25.8069 20.2204 25.0709 20.2204 24.1663C20.2204 23.917 20.1643 23.6807 20.0643 23.4689L23.1856 20.3476C23.4158 20.4709 23.6786 20.541 23.9574 20.541C24.8621 20.541 25.5981 19.805 25.5981 18.9004C25.5981 17.9957 24.8621 17.2598 23.9574 17.2598ZM10.0576 24.7155C9.75602 24.7155 9.51069 24.4701 9.51069 24.1686C9.51069 23.8671 9.75602 23.6217 10.0576 23.6217C10.2044 23.6217 10.3376 23.6802 10.4359 23.7747C10.4381 23.777 10.44 23.7794 10.4422 23.7817C10.4449 23.7843 10.4477 23.7865 10.4504 23.789C10.5455 23.8874 10.6044 24.0212 10.6044 24.1686C10.6044 24.4701 10.3591 24.7155 10.0576 24.7155ZM14.2591 20.541C13.9575 20.541 13.7122 20.2956 13.7122 19.9941C13.7122 19.6925 13.9575 19.4472 14.2591 19.4472C14.5606 19.4472 14.806 19.6925 14.806 19.9941C14.806 20.2956 14.5606 20.541 14.2591 20.541ZM18.5796 24.7132C18.2781 24.7132 18.0328 24.4678 18.0328 24.1663C18.0328 23.8648 18.2781 23.6194 18.5796 23.6194C18.8812 23.6194 19.1265 23.8648 19.1265 24.1663C19.1265 24.4678 18.8812 24.7132 18.5796 24.7132ZM23.9573 19.4472C23.6558 19.4472 23.4104 19.2019 23.4104 18.9003C23.4104 18.5988 23.6558 18.3535 23.9573 18.3535C24.2589 18.3535 24.5042 18.5988 24.5042 18.9003C24.5042 19.2019 24.2589 19.4472 23.9573 19.4472Z" fill="#F0792E"/>
<path d="M21.2238 12.8516H18.3374C18.0354 12.8516 17.7905 13.0965 17.7905 13.3984C17.7905 13.7004 18.0354 13.9453 18.3374 13.9453H21.2238C21.5257 13.9453 21.7706 13.7004 21.7706 13.3984C21.7706 13.0965 21.5257 12.8516 21.2238 12.8516Z" fill="#F0792E"/>
<path d="M24.1005 13.0118C23.9988 12.9101 23.8577 12.8516 23.7139 12.8516C23.57 12.8516 23.4289 12.91 23.3272 13.0118C23.2255 13.1135 23.167 13.2546 23.167 13.3984C23.167 13.5423 23.2255 13.6834 23.3272 13.785C23.4289 13.8867 23.5695 13.9453 23.7139 13.9453C23.8577 13.9453 23.9988 13.8868 24.1005 13.785C24.2022 13.6834 24.2607 13.5423 24.2607 13.3984C24.2607 13.2546 24.2022 13.1135 24.1005 13.0118Z" fill="#F0792E"/>
<path d="M25.0177 7.60156H18.3374C18.0354 7.60156 17.7905 7.84645 17.7905 8.14844C17.7905 8.45042 18.0354 8.69531 18.3374 8.69531H25.0177C25.3197 8.69531 25.5646 8.45042 25.5646 8.14844C25.5646 7.84645 25.3197 7.60156 25.0177 7.60156Z" fill="#F0792E"/>
<path d="M25.0177 10.2266H18.3374C18.0354 10.2266 17.7905 10.4715 17.7905 10.7734C17.7905 11.0754 18.0354 11.3203 18.3374 11.3203H25.0177C25.3197 11.3203 25.5646 11.0754 25.5646 10.7734C25.5646 10.4715 25.3197 10.2266 25.0177 10.2266Z" fill="#F0792E"/>
</svg>
