<svg width="18" height="18" viewBox="0 0 18 18" fill="none" xmlns="http://www.w3.org/2000/svg">
<path d="M17.8545 6.3429L16.3545 5.4429C16.3545 5.39046 16.3408 5.33893 16.3147 5.29345C16.2885 5.24797 16.251 5.21014 16.2057 5.18371C16.1604 5.15729 16.1089 5.1432 16.0565 5.14285C16.0041 5.1425 15.9524 5.15591 15.9068 5.18173C15.8611 5.20755 15.8231 5.24488 15.7963 5.29001C15.7696 5.33513 15.7552 5.38647 15.7545 5.43891C15.7538 5.49135 15.7669 5.54305 15.7924 5.58886C15.818 5.63467 15.855 5.67299 15.9 5.7V11.7708L13.8 12.5784V4.5C13.8 4.42044 13.7684 4.34413 13.7121 4.28787C13.6559 4.23161 13.5796 4.2 13.5 4.2H6.9C6.82043 4.2 6.74413 4.23161 6.68787 4.28787C6.63161 4.34413 6.6 4.42044 6.6 4.5V12.6H5.1V10.5C5.1 10.4204 5.06839 10.3441 5.01213 10.2879C4.95587 10.2316 4.87956 10.2 4.8 10.2H4.5V5.4H5.7C5.77956 5.4 5.85587 5.36839 5.91213 5.31213C5.96839 5.25587 6 5.17956 6 5.1V2.7C6 2.62044 5.96839 2.54413 5.91213 2.48787C5.85587 2.43161 5.77956 2.4 5.7 2.4H3.3V0.9H3.9V0.3H3.3V0H2.7V0.3H2.1V0.9H2.7V2.4H0.3C0.220435 2.4 0.144129 2.43161 0.087868 2.48787C0.0316071 2.54413 7.4334e-08 2.62044 7.4334e-08 2.7V5.1C7.4334e-08 5.17956 0.0316071 5.25587 0.087868 5.31213C0.144129 5.36839 0.220435 5.4 0.3 5.4H1.5V10.2H1.2C1.12044 10.2 1.04413 10.2316 0.987868 10.2879C0.931607 10.3441 0.9 10.4204 0.9 10.5V12.6H0.3C0.251502 12.6 0.203727 12.6118 0.160768 12.6343C0.117809 12.6568 0.080948 12.6894 0.0533424 12.7292C0.0257368 12.7691 0.00820991 12.8151 0.00226357 12.8632C-0.00368276 12.9114 0.00212869 12.9602 0.0192 13.0056L1.8192 17.8056C1.84068 17.8627 1.87907 17.9119 1.92924 17.9467C1.97941 17.9814 2.03898 18 2.1 18H14.4C14.4548 18 14.5085 17.985 14.5553 17.9567C14.6022 17.9283 14.6404 17.8877 14.6658 17.8392L17.9658 11.5392C17.9942 11.4852 18.0054 11.4238 17.998 11.3632C17.9905 11.3026 17.9648 11.2458 17.9242 11.2002C17.8836 11.1546 17.8301 11.1225 17.7708 11.1082C17.7115 11.0938 17.6492 11.0979 17.5923 11.1198L16.5 11.5401V7.6701L17.8545 6.8574C17.8988 6.83063 17.9354 6.79289 17.9608 6.74782C17.9862 6.70276 17.9996 6.65189 17.9996 6.60015C17.9996 6.54841 17.9862 6.49754 17.9608 6.45248C17.9354 6.40741 17.8988 6.36967 17.8545 6.3429ZM7.2 4.8H13.2V8.4H7.2V4.8ZM7.2 9H13.2V12.6H7.2V9ZM0.6 3H5.4V4.8H0.6V3ZM2.1 5.4H3.9V10.2H2.1V5.4ZM1.5 10.8H4.5V12.6H1.5V10.8ZM14.2185 17.4H2.3079L1.9704 16.5H14.6898L14.2185 17.4ZM15.0042 15.9H1.7454L0.7329 13.2H13.7997C13.8366 13.2 13.8729 13.1934 13.9074 13.1802L17.0649 11.9658L15.0042 15.9ZM16.5 6.9699V6.2298L17.1171 6.6L16.5 6.9699Z" fill="#F0792E"/>
<path d="M1.7998 13.5H2.3998V14.1H1.7998V13.5ZM2.9998 13.5H3.5998V14.1H2.9998V13.5ZM5.3998 13.5C4.9036 13.5 4.4998 13.9038 4.4998 14.4C4.4998 14.8962 4.9036 15.3 5.3998 15.3C5.896 15.3 6.2998 14.8962 6.2998 14.4C6.2998 13.9038 5.896 13.5 5.3998 13.5ZM5.3998 14.7C5.32024 14.7 5.24393 14.6684 5.18767 14.6121C5.13141 14.5559 5.0998 14.4796 5.0998 14.4C5.0998 14.3204 5.13141 14.2441 5.18767 14.1879C5.24393 14.1316 5.32024 14.1 5.3998 14.1C5.47937 14.1 5.55568 14.1316 5.61194 14.1879C5.6682 14.2441 5.6998 14.3204 5.6998 14.4C5.6998 14.4796 5.6682 14.5559 5.61194 14.6121C5.55568 14.6684 5.47937 14.7 5.3998 14.7ZM7.7998 13.5C7.3036 13.5 6.8998 13.9038 6.8998 14.4C6.8998 14.8962 7.3036 15.3 7.7998 15.3C8.296 15.3 8.6998 14.8962 8.6998 14.4C8.6998 13.9038 8.296 13.5 7.7998 13.5ZM7.7998 14.7C7.72024 14.7 7.64393 14.6684 7.58767 14.6121C7.53141 14.5559 7.4998 14.4796 7.4998 14.4C7.4998 14.3204 7.53141 14.2441 7.58767 14.1879C7.64393 14.1316 7.72024 14.1 7.7998 14.1C7.87937 14.1 7.95568 14.1316 8.01194 14.1879C8.0682 14.2441 8.0998 14.3204 8.0998 14.4C8.0998 14.4796 8.0682 14.5559 8.01194 14.6121C7.95568 14.6684 7.87937 14.7 7.7998 14.7Z" fill="#F0792E"/>
<path d="M0.899902 3.6001H1.4999V4.2001H0.899902V3.6001ZM1.7999 3.6001H2.3999V4.2001H1.7999V3.6001ZM2.6999 3.6001H3.2999V4.2001H2.6999V3.6001ZM3.5999 3.6001H4.1999V4.2001H3.5999V3.6001ZM4.4999 3.6001H5.0999V4.2001H4.4999V3.6001ZM7.4999 5.4001H8.0999V7.8001H7.4999V5.4001ZM8.6999 5.4001H9.2999V7.8001H8.6999V5.4001ZM9.8999 5.4001H10.4999V7.8001H9.8999V5.4001ZM11.0999 5.4001H11.6999V7.8001H11.0999V5.4001ZM12.2999 5.4001H12.8999V7.8001H12.2999V5.4001ZM7.4999 9.6001H8.0999V12.0001H7.4999V9.6001ZM8.6999 9.6001H9.2999V12.0001H8.6999V9.6001ZM9.8999 9.6001H10.4999V12.0001H9.8999V9.6001ZM11.0999 9.6001H11.6999V12.0001H11.0999V9.6001ZM12.2999 9.6001H12.8999V12.0001H12.2999V9.6001Z" fill="#F0792E"/>
</svg>
