<svg width="21" height="23" viewBox="0 0 21 23" fill="none" xmlns="http://www.w3.org/2000/svg">
<path d="M6.039 19.2359C6.039 21.2561 7.68304 22.899 9.70215 22.899C11.7214 22.899 13.3653 21.2561 13.3653 19.2359C13.3653 18.7869 13.0009 18.4225 12.5519 18.4225C12.1029 18.4225 11.7385 18.7869 11.7385 19.2359C11.7385 20.359 10.8243 21.2722 9.70215 21.2722C8.58 21.2722 7.66581 20.359 7.66581 19.2359C7.66581 18.7869 7.30144 18.4225 6.85241 18.4225C6.40338 18.4225 6.039 18.7869 6.039 19.2359Z" fill="#434B53" stroke="#434B53" stroke-width="0.2"/>
<path d="M1.7825 18.1848L1.78253 18.1848L1.78462 18.183C3.55861 16.6736 4.57772 14.474 4.57772 12.1492V9.49896C4.57772 6.67368 6.87697 4.37545 9.70123 4.37545C9.71773 4.37545 9.73377 4.37531 9.7494 4.37518C9.81151 4.37465 9.86712 4.37417 9.91936 4.38262C10.3549 4.45637 10.7814 4.15731 10.8552 3.71452C10.9291 3.27202 10.6297 2.8523 10.1863 2.77856C10.0251 2.75128 9.85324 2.74864 9.70123 2.74864C5.9798 2.74864 2.95091 5.77664 2.95091 9.49896V12.1492C2.95091 13.9662 2.16759 15.6871 0.798293 16.8846C0.770437 16.903 0.74319 16.9234 0.71732 16.946C0.325735 17.2816 0.101166 17.77 0.101166 18.2858C0.101166 19.2582 0.892029 20.049 1.86443 20.049H17.538C18.5106 20.049 19.3015 19.2582 19.3015 18.2858C19.3015 17.7701 19.0769 17.2816 18.685 16.947C18.6599 16.9249 18.6335 16.9055 18.6076 16.888C17.2361 15.6893 16.4517 13.9674 16.4517 12.1492V11.1139C16.4517 10.6649 16.0873 10.3005 15.6383 10.3005C15.1893 10.3005 14.8249 10.6649 14.8249 11.1139V12.1492C14.8249 14.474 15.843 16.6726 17.618 18.183L17.618 18.183L17.6201 18.1848C17.6228 18.1869 17.6256 18.1892 17.6286 18.1917C17.6358 18.1975 17.6439 18.2041 17.6525 18.2108C17.6644 18.2279 17.6746 18.252 17.6746 18.2858C17.6746 18.359 17.6115 18.4222 17.538 18.4222H1.86443C1.79113 18.4222 1.72798 18.3591 1.72798 18.2858C1.72798 18.2535 1.73787 18.2288 1.74938 18.211C1.75957 18.2034 1.76868 18.196 1.77637 18.1897C1.77853 18.188 1.78057 18.1863 1.7825 18.1848Z" fill="#434B53" stroke="#434B53" stroke-width="0.2"/>
<circle cx="16.2076" cy="4.75098" r="4.75098" fill="#CF1402"/>
</svg>
