<svg width="22" height="22" viewBox="0 0 22 22" fill="none" xmlns="http://www.w3.org/2000/svg">
<g opacity="0.6">
<path opacity="0.6" d="M9.53353 2.2002C5.49213 2.2002 2.2002 5.49213 2.2002 9.53353C2.2002 13.5749 5.49213 16.8669 9.53353 16.8669C11.291 16.8669 12.9049 16.2428 14.1699 15.2068L18.5484 19.5854C18.6159 19.6557 18.6969 19.7119 18.7864 19.7506C18.876 19.7893 18.9724 19.8098 19.07 19.8108C19.1675 19.8118 19.2643 19.7933 19.3546 19.7564C19.445 19.7195 19.527 19.665 19.596 19.596C19.665 19.527 19.7195 19.445 19.7564 19.3546C19.7933 19.2643 19.8118 19.1675 19.8108 19.07C19.8098 18.9724 19.7893 18.876 19.7506 18.7864C19.7119 18.6969 19.6557 18.6159 19.5854 18.5484L15.2068 14.1699C16.2428 12.9049 16.8669 11.291 16.8669 9.53353C16.8669 5.49213 13.5749 2.2002 9.53353 2.2002ZM9.53353 3.66686C12.7823 3.66686 15.4002 6.28477 15.4002 9.53353C15.4002 12.7823 12.7823 15.4002 9.53353 15.4002C6.28477 15.4002 3.66686 12.7823 3.66686 9.53353C3.66686 6.28477 6.28477 3.66686 9.53353 3.66686Z" fill="#182942" stroke="#182942"/>
</g>
</svg>
