<svg width="24" height="24" viewBox="0 0 24 24" fill="none" xmlns="http://www.w3.org/2000/svg">
<g clip-path="url(#clip0_834_28961)">
<path d="M-0.15 0.9375V4.5C-0.15 5.10067 0.336835 5.5875 0.9375 5.5875C1.53816 5.5875 2.025 5.10067 2.025 4.5V2.025H4.5C5.10067 2.025 5.5875 1.53816 5.5875 0.9375C5.5875 0.336835 5.10067 -0.15 4.5 -0.15H0.9375C0.336835 -0.15 -0.15 0.336835 -0.15 0.9375ZM23.0625 -0.15H19.5C18.8993 -0.15 18.4125 0.336835 18.4125 0.9375C18.4125 1.53816 18.8993 2.025 19.5 2.025H21.975V4.5C21.975 5.10067 22.4618 5.5875 23.0625 5.5875C23.6632 5.5875 24.15 5.10067 24.15 4.5V0.9375C24.15 0.336835 23.6632 -0.15 23.0625 -0.15ZM4.5 21.975H2.025V19.5C2.025 18.8993 1.53816 18.4125 0.9375 18.4125C0.336835 18.4125 -0.15 18.8993 -0.15 19.5V23.0625C-0.15 23.6632 0.336835 24.15 0.9375 24.15H4.5C5.10067 24.15 5.5875 23.6632 5.5875 23.0625C5.5875 22.4618 5.10067 21.975 4.5 21.975ZM23.0625 18.4125C22.4618 18.4125 21.975 18.8993 21.975 19.5V21.975H19.5C18.8993 21.975 18.4125 22.4618 18.4125 23.0625C18.4125 23.6632 18.8993 24.15 19.5 24.15H23.0625C23.6632 24.15 24.15 23.6632 24.15 23.0625V19.5C24.15 18.8993 23.6632 18.4125 23.0625 18.4125ZM11.3297 10.2422V4.61719C11.3297 4.01652 10.8429 3.52969 10.2422 3.52969H4.61719C4.01652 3.52969 3.52969 4.01652 3.52969 4.61719V10.2422C3.52969 10.8429 4.01652 11.3297 4.61719 11.3297H10.2422C10.8429 11.3297 11.3297 10.8429 11.3297 10.2422ZM5.70469 9.15469V5.70469H9.15469V9.15469H5.70469ZM14.2266 11.3297H19.8516C20.4522 11.3297 20.9391 10.8429 20.9391 10.2422V4.61719C20.9391 4.01652 20.4522 3.52969 19.8516 3.52969H14.2266C13.6259 3.52969 13.1391 4.01652 13.1391 4.61719V10.2422C13.1391 10.8429 13.6259 11.3297 14.2266 11.3297ZM15.3141 9.15469V5.70469H18.7641V9.15469H15.3141ZM11.3297 19.8516V14.2266C11.3297 13.6259 10.8429 13.1391 10.2422 13.1391H4.61719C4.01652 13.1391 3.52969 13.6259 3.52969 14.2266V19.8516C3.52969 20.4522 4.01652 20.9391 4.61719 20.9391H10.2422C10.8429 20.9391 11.3297 20.4522 11.3297 19.8516ZM5.70469 18.7641V15.3141H9.15469V18.7641H5.70469ZM15.4336 19.732H18.6445C19.2452 19.732 19.732 19.2452 19.732 18.6445V15.4336C19.732 14.8329 19.2452 14.3461 18.6445 14.3461H15.4336C14.8329 14.3461 14.3461 14.8329 14.3461 15.4336V18.6445C14.3461 19.2452 14.8329 19.732 15.4336 19.732ZM16.5211 17.557V16.5211H17.557V17.557H16.5211Z" fill="#003D71" stroke="white" stroke-width="0.3"/>
<path d="M0 4.5V0.9375C0 0.419678 0.419678 0 0.9375 0H4.5C5.01782 0 5.4375 0.419678 5.4375 0.9375C5.4375 1.45532 5.01782 1.875 4.5 1.875H1.875V4.5C1.875 5.01782 1.45532 5.4375 0.9375 5.4375C0.419678 5.4375 0 5.01782 0 4.5ZM23.0625 0H19.5C18.9822 0 18.5625 0.419678 18.5625 0.9375C18.5625 1.45532 18.9822 1.875 19.5 1.875H22.125V4.5C22.125 5.01782 22.5447 5.4375 23.0625 5.4375C23.5803 5.4375 24 5.01782 24 4.5V0.9375C24 0.419678 23.5803 0 23.0625 0ZM4.5 22.125H1.875V19.5C1.875 18.9822 1.45532 18.5625 0.9375 18.5625C0.419678 18.5625 0 18.9822 0 19.5V23.0625C0 23.5803 0.419678 24 0.9375 24H4.5C5.01782 24 5.4375 23.5803 5.4375 23.0625C5.4375 22.5447 5.01782 22.125 4.5 22.125ZM23.0625 18.5625C22.5447 18.5625 22.125 18.9822 22.125 19.5V22.125H19.5C18.9822 22.125 18.5625 22.5447 18.5625 23.0625C18.5625 23.5803 18.9822 24 19.5 24H23.0625C23.5803 24 24 23.5803 24 23.0625V19.5C24 18.9822 23.5803 18.5625 23.0625 18.5625Z" fill="#F0792E"/>
</g>
<defs>
<clipPath id="clip0_834_28961">
<rect width="24" height="24" fill="white"/>
</clipPath>
</defs>
</svg>
