<svg width="284" height="41" viewBox="0 0 284 41" fill="none" xmlns="http://www.w3.org/2000/svg">
<rect x="146.007" width="40.6559" height="40.6559" rx="10" fill="white"/>
<rect x="146.507" y="0.5" width="39.6559" height="39.6559" rx="9.5" stroke="#9FA2A6" stroke-opacity="0.5"/>
<ellipse cx="165.155" cy="20.2555" rx="5.72439" ry="6.16473" fill="#9FA2A6"/>
<rect x="194.674" width="40.6559" height="40.6559" rx="10" fill="white"/>
<rect x="195.174" y="0.5" width="39.6559" height="39.6559" rx="9.5" stroke="#9FA2A6" stroke-opacity="0.5"/>
<ellipse cx="213.822" cy="20.2555" rx="5.72439" ry="6.16473" fill="#9FA2A6"/>
<rect x="243.344" width="40.6559" height="40.6559" rx="10" fill="white"/>
<rect x="243.844" y="0.5" width="39.6559" height="39.6559" rx="9.5" stroke="#9FA2A6" stroke-opacity="0.5"/>
<ellipse cx="262.492" cy="20.2555" rx="5.72439" ry="6.16473" fill="#9FA2A6"/>
<rect x="48.6704" width="40.6559" height="40.6559" rx="10" fill="white"/>
<rect x="49.1704" y="0.5" width="39.6559" height="39.6559" rx="9.5" stroke="#9FA2A6" stroke-opacity="0.5"/>
<ellipse cx="68.9528" cy="20.2555" rx="5.72439" ry="6.16473" fill="#9FA2A6"/>
<rect width="40.6559" height="40.6559" rx="10" fill="white"/>
<rect x="0.5" y="0.5" width="39.6559" height="39.6559" rx="9.5" stroke="#9FA2A6" stroke-opacity="0.5"/>
<ellipse cx="19.7161" cy="20.2555" rx="5.72439" ry="6.16473" fill="#9FA2A6"/>
<rect x="97.337" width="40.6559" height="40.6559" rx="10" fill="white"/>
<rect x="97.837" y="0.5" width="39.6559" height="39.6559" rx="9.5" stroke="#9FA2A6" stroke-opacity="0.5"/>
<ellipse cx="118.191" cy="20.2555" rx="5.72439" ry="6.16473" fill="#9FA2A6"/>
</svg>
