<svg width="48" height="48" viewBox="0 0 48 48" fill="none" xmlns="http://www.w3.org/2000/svg">
<circle cx="24" cy="24" r="24" fill="#FFEEDC"/>
<path d="M24.57 20.1152H16.7356C16.2722 20.1152 15.8965 20.491 15.8965 20.9544V26.2135C15.8965 26.6769 16.2722 27.0526 16.7356 27.0526H24.57C25.0334 27.0526 25.4091 26.6769 25.4091 26.2135V20.9544C25.4091 20.491 25.0334 20.1152 24.57 20.1152ZM23.7308 25.3743H17.5748V21.7935H23.7308V25.3743Z" fill="#F0792E"/>
<path d="M21.242 30.3427C21.5698 30.0148 21.5698 29.4832 21.242 29.1553C20.9141 28.8275 20.3825 28.8275 20.0546 29.1553C19.7267 29.4832 19.7267 30.0148 20.0546 30.3427C20.3825 30.6706 20.9141 30.6706 21.242 30.3427Z" fill="#F0792E"/>
<path d="M20.6514 32.4995C20.1876 32.5 19.8121 32.8763 19.8125 33.3401C19.8129 33.8038 20.1893 34.1794 20.6531 34.1789C21.1168 34.1785 21.4924 33.8022 21.4919 33.3384C21.4915 32.8746 21.1151 32.499 20.6514 32.4995Z" fill="#F0792E"/>
<path d="M17.0613 30.5935C17.525 30.593 17.9006 30.2167 17.9001 29.7529C17.8997 29.2892 17.5233 28.9136 17.0596 28.9141C16.5958 28.9145 16.2203 29.2908 16.2207 29.7546C16.2212 30.2184 16.5975 30.5939 17.0613 30.5935Z" fill="#F0792E"/>
<path d="M24.8299 30.3398C25.1577 30.0119 25.1577 29.4803 24.8299 29.1524C24.502 28.8245 23.9704 28.8245 23.6425 29.1524C23.3146 29.4803 23.3146 30.0119 23.6425 30.3398C23.9704 30.6676 24.502 30.6676 24.8299 30.3398Z" fill="#F0792E"/>
<path d="M17.656 33.9345C17.9839 33.6066 17.9839 33.075 17.656 32.7471C17.3282 32.4193 16.7966 32.4193 16.4687 32.7471C16.1408 33.075 16.1408 33.6066 16.4687 33.9345C16.7966 34.2624 17.3282 34.2624 17.656 33.9345Z" fill="#F0792E"/>
<path d="M24.9803 33.7437C25.1987 33.3347 25.0442 32.826 24.6352 32.6076C24.2261 32.3892 23.7175 32.5437 23.499 32.9527C23.2806 33.3618 23.4351 33.8704 23.8441 34.0889C24.2532 34.3073 24.7618 34.1528 24.9803 33.7437Z" fill="#F0792E"/>
<path d="M33.8232 18.9446H29.2687L29.298 18.0131C29.3631 16.7322 28.913 15.5149 28.0301 14.5841C27.1861 13.6943 26.0594 13.187 24.8416 13.1417V11.0019C24.8415 10.4495 24.392 10 23.8396 10H17.4646C16.9121 10 16.4627 10.4495 16.4627 11.0019V13.1417C15.2447 13.187 14.1181 13.6943 13.274 14.5841C12.3911 15.5149 11.9411 16.7321 12.0062 18.013C12.0198 18.4482 12.4909 33.4937 12.4942 33.6025C12.5312 34.9637 13.0985 36.2357 14.0917 37.1842C15.0767 38.125 16.37 38.6431 17.7331 38.6431L23.5792 38.6431C24.9156 38.6431 26.2593 38.0545 27.2659 37.0285C27.6777 36.6087 28.0156 36.1358 28.2695 35.6347H33.8232C35.0235 35.6347 36 34.6582 36 33.458V21.1214C36 19.9211 35.0235 18.9446 33.8232 18.9446ZM23.1632 11.6783V16.7263H18.141V11.6783H23.1632ZM23.5792 36.9647L17.7331 36.9648C16.8037 36.9648 15.9222 36.6117 15.2509 35.9705C14.58 35.3298 14.1968 34.4726 14.1719 33.5568C14.1707 33.5143 13.7333 19.5447 13.6835 17.952C13.6833 17.9461 13.683 17.94 13.6827 17.934C13.6394 17.1143 13.9267 16.3348 14.4917 15.7392C15.0156 15.1869 15.71 14.8653 16.4627 14.8213V16.7343C16.051 16.788 15.7328 17.1392 15.7328 17.5655C15.7328 18.029 16.1085 18.4047 16.5719 18.4047H24.7322C25.1957 18.4047 25.5714 18.029 25.5714 17.5655C25.5714 17.1392 25.2532 16.788 24.8415 16.7343V14.8212C25.5942 14.8652 26.2885 15.1869 26.8124 15.7391C27.3774 16.3347 27.6647 17.1142 27.6214 17.934C27.6212 17.9399 27.6209 17.9459 27.6207 17.9518L27.1341 33.4266C27.1338 33.4354 27.1336 33.4442 27.1336 33.453C27.1336 34.2878 26.7452 35.1627 26.0678 35.8531C25.3748 36.5596 24.4678 36.9647 23.5792 36.9647ZM28.812 33.4671L29.2159 20.623H30.9629V33.9564H28.7828C28.8015 33.7932 28.8114 33.6299 28.812 33.4671ZM34.3217 33.4579C34.3217 33.7328 34.0981 33.9564 33.8232 33.9564H32.6412V20.623H33.8232C34.0981 20.623 34.3217 20.8466 34.3217 21.1214V33.4579Z" fill="#F0792E"/>
<path d="M31.802 15.658C32.2655 15.658 32.6412 15.2822 32.6412 14.8188V10.9183C32.6412 10.4548 32.2655 10.0791 31.802 10.0791C31.3386 10.0791 30.9629 10.4548 30.9629 10.9183V14.8188C30.9629 15.2822 31.3386 15.658 31.802 15.658Z" fill="#F0792E"/>
<path d="M35.1614 11.7583C34.698 11.7583 34.3223 12.134 34.3223 12.5975V14.8186C34.3223 15.282 34.698 15.6577 35.1614 15.6577C35.6249 15.6577 36.0006 15.282 36.0006 14.8186V12.5975C36.0006 12.134 35.6249 11.7583 35.1614 11.7583Z" fill="#F0792E"/>
</svg>
