<svg width="24" height="18" viewBox="0 0 24 18" fill="none" xmlns="http://www.w3.org/2000/svg">
<path d="M21.4286 0H2.57143C1.15127 0 0 1.14938 0 2.56722V14.5475C0 15.9654 1.15127 17.1148 2.57143 17.1148H21.4286C22.8487 17.1148 24 15.9654 24 14.5475V2.56722C24 1.14938 22.8487 0 21.4286 0ZM22.2857 14.5475C22.2857 15.0202 21.9019 15.4033 21.4285 15.4033H2.57143C2.09802 15.4033 1.71427 15.0202 1.71427 14.5475V9.41311H22.2857V14.5475ZM22.2857 7.70165H1.71427V5.99019H22.2857V7.70165ZM22.2857 4.27868H1.71427V2.56722C1.71427 2.09459 2.09802 1.71146 2.57143 1.71146H21.4286C21.902 1.71146 22.2857 2.09459 22.2857 2.56722V4.27868H22.2857Z" fill="#20446C"/>
<mask id="mask0_834_29014" style="mask-type:alpha" maskUnits="userSpaceOnUse" x="0" y="0" width="24" height="18">
<path d="M21.4286 0H2.57143C1.15127 0 0 1.14938 0 2.56722V14.5475C0 15.9654 1.15127 17.1148 2.57143 17.1148H21.4286C22.8487 17.1148 24 15.9654 24 14.5475V2.56722C24 1.14938 22.8487 0 21.4286 0ZM22.2857 14.5475C22.2857 15.0202 21.9019 15.4033 21.4285 15.4033H2.57143C2.09802 15.4033 1.71427 15.0202 1.71427 14.5475V9.41311H22.2857V14.5475ZM22.2857 7.70165H1.71427V5.99019H22.2857V7.70165ZM22.2857 4.27868H1.71427V2.56722C1.71427 2.09459 2.09802 1.71146 2.57143 1.71146H21.4286C21.902 1.71146 22.2857 2.09459 22.2857 2.56722V4.27868H22.2857Z" fill="#20446C"/>
</mask>
<g mask="url(#mask0_834_29014)">
<rect x="1.70508" y="7.67188" width="20.5902" height="1.77049" fill="white"/>
</g>
<path d="M17.6498 9.89422C17.6498 9.15695 17.0499 8.55713 16.3127 8.55713C15.5754 8.55713 14.9756 9.15695 14.9756 9.89422C14.9756 10.6315 15.5754 11.2313 16.3127 11.2313C17.0499 11.2313 17.6498 10.6315 17.6498 9.89422ZM15.867 9.89422C15.867 9.64846 16.0669 9.44852 16.3127 9.44852C16.5584 9.44852 16.7584 9.64846 16.7584 9.89422C16.7584 10.14 16.5584 10.3399 16.3127 10.3399C16.0669 10.3399 15.867 10.14 15.867 9.89422Z" fill="#F0792E"/>
<path d="M19.5217 11.7666C18.7844 11.7666 18.1846 12.3664 18.1846 13.1037C18.1846 13.841 18.7844 14.4408 19.5217 14.4408C20.2589 14.4408 20.8588 13.841 20.8588 13.1037C20.8588 12.3664 20.2589 11.7666 19.5217 11.7666ZM19.5217 13.5494C19.2759 13.5494 19.076 13.3494 19.076 13.1037C19.076 12.8579 19.2759 12.658 19.5217 12.658C19.7674 12.658 19.9674 12.8579 19.9674 13.1037C19.9674 13.3494 19.7674 13.5494 19.5217 13.5494Z" fill="#F0792E"/>
<path d="M19.579 8.61351C19.3786 8.49745 19.1221 8.56632 19.0063 8.76731L16.1012 13.8099C15.9854 14.0109 16.0541 14.2679 16.2547 14.3839C16.3207 14.4222 16.3928 14.4403 16.4639 14.4403C16.6088 14.4403 16.7498 14.3649 16.8274 14.2301L19.7325 9.18753C19.8483 8.98654 19.7796 8.72953 19.579 8.61351Z" fill="#F0792E"/>
</svg>
