<svg width="32" height="32" viewBox="0 0 32 32" fill="none" xmlns="http://www.w3.org/2000/svg">
<circle cx="16" cy="16" r="16" fill="#FEEEE4"/>
<path d="M11.1262 13.7274V13.7274L11.1245 13.7274C11.1002 13.7278 11.0761 13.7235 11.0535 13.7146C11.0309 13.7057 11.0103 13.6924 10.9929 13.6756C10.9576 13.6415 10.9373 13.5948 10.9365 13.5458C10.9356 13.4968 10.9542 13.4495 10.9883 13.4142C11.0223 13.379 11.0688 13.3587 11.1177 13.3578C12.5198 13.3421 13.9189 13.2237 15.3037 13.0035L15.3037 13.0036L15.3084 13.0026C15.324 12.9993 15.3399 12.9982 15.3558 12.9993L15.3573 12.9994C15.6851 13.0168 16.0031 13.1167 16.2818 13.2899C16.312 13.3127 16.3345 13.3441 16.3462 13.3801L16.4413 13.3491L16.3462 13.3801C16.3583 13.4171 16.3584 13.457 16.3465 13.494C16.3346 13.5311 16.3113 13.5634 16.28 13.5865C16.2487 13.6094 16.211 13.622 16.1722 13.6223C16.1281 13.6222 16.0854 13.607 16.0512 13.5793L16.0449 13.5743L16.038 13.5703C15.8325 13.4525 15.6023 13.3844 15.3659 13.3713L15.3553 13.3707L15.3448 13.3723C13.9512 13.5913 12.5436 13.7099 11.133 13.7274H11.1262Z" fill="#F0792E" stroke="#F0792E" stroke-width="0.2"/>
<path d="M21.5433 20.5022L21.5436 20.5022C21.7042 20.5025 21.8627 20.466 22.0069 20.3953C22.1511 20.3247 22.2771 20.2219 22.3753 20.0948L22.3755 20.0945C22.4787 19.962 22.549 19.807 22.5807 19.642C22.6123 19.4771 22.6045 19.3071 22.5577 19.1458L22.5577 19.1456C22.4988 18.9411 22.3784 18.7598 22.2128 18.6262L22.2124 18.6259L17.5819 14.8526L17.5819 14.8526C17.5529 14.8289 17.5174 14.8147 17.4801 14.8116C17.4428 14.8086 17.4055 14.8169 17.3731 14.8356C16.625 15.2653 15.9831 15.4126 15.4468 15.3998C14.9106 15.387 14.4869 15.2144 14.175 15.0151L14.2289 14.9308M21.5433 20.5022L21.1621 12.994C21.1967 12.9799 21.2338 12.9726 21.2712 12.9728C21.3086 12.9729 21.3456 12.9804 21.3801 12.9948C21.4146 13.0093 21.446 13.0304 21.4723 13.0569C21.4987 13.0834 21.5195 13.1149 21.5337 13.1495C21.5479 13.1841 21.5552 13.2212 21.555 13.2586C21.5549 13.296 21.5474 13.3331 21.533 13.3676C21.5185 13.4021 21.4974 13.4334 21.4709 13.4598C21.4443 13.4861 21.4129 13.507 21.3782 13.5212L20.7176 13.7917C20.1571 14.0224 19.5327 14.045 18.9571 13.8555L17.4403 13.3631C17.3364 13.3305 17.2271 13.3187 17.1187 13.3285C17.0102 13.3383 16.9048 13.3694 16.8084 13.4201L14.2414 14.7833C14.2271 14.79 14.215 14.8006 14.2063 14.8138C14.1977 14.8271 14.1929 14.8424 14.1924 14.8582M21.5433 20.5022C21.3215 20.5025 21.1053 20.4324 20.9258 20.302L20.9259 20.302L20.924 20.3007L20.8628 20.2583L20.8628 20.2583L20.862 20.2577C20.862 20.2577 20.8618 20.2576 20.8614 20.2573L20.8597 20.256L20.8545 20.2519C20.8505 20.2485 20.846 20.2446 20.8418 20.2405L20.8365 20.2352L20.8304 20.2309L17.4783 17.8168L17.4783 17.8168L17.4762 17.8153C17.4559 17.8015 17.4385 17.7837 17.4252 17.7631C17.4118 17.7424 17.4027 17.7193 17.3984 17.6951C17.3941 17.6709 17.3947 17.6461 17.4001 17.6221C17.4055 17.5981 17.4156 17.5755 17.4299 17.5554C17.4442 17.5354 17.4623 17.5185 17.4832 17.5055C17.5041 17.4926 17.5274 17.484 17.5517 17.4802C17.576 17.4764 17.6008 17.4774 17.6247 17.4833C17.6485 17.4892 17.671 17.4998 17.6907 17.5145L17.6907 17.5145L17.6924 17.5158L17.9198 17.6778M21.5433 20.5022L17.9198 17.6778M14.2289 14.9308L14.1759 15.0157C14.1482 14.9983 14.1257 14.9737 14.1111 14.9445C14.0968 14.9161 14.0904 14.8844 14.0926 14.8527C14.0926 14.8518 14.0927 14.8509 14.0928 14.85L14.1924 14.8582M14.2289 14.9308C14.2167 14.9232 14.2069 14.9124 14.2004 14.8996C14.194 14.8868 14.1912 14.8725 14.1924 14.8582M14.2289 14.9308C14.8269 15.313 15.8535 15.5932 17.3233 14.7489C17.3733 14.7201 17.4308 14.7073 17.4882 14.7119C17.5457 14.7166 17.6004 14.7386 17.6451 14.7751L14.1924 14.8582M20.5387 13.3574C20.0816 13.5452 19.5724 13.5636 19.1028 13.4092C19.1028 13.4092 19.1027 13.4092 19.1027 13.4091L17.5855 12.9168C17.5854 12.9168 17.5853 12.9167 17.5852 12.9167C17.4216 12.8648 17.2495 12.8459 17.0785 12.8608C16.9076 12.8758 16.7414 12.9244 16.5893 13.0039C16.5892 13.004 16.5891 13.004 16.5891 13.0041L14.0232 14.3667L14.0223 14.3672L14.0223 14.3672C13.9362 14.4119 13.8633 14.4783 13.811 14.56C13.7586 14.6416 13.7285 14.7356 13.7237 14.8325C13.719 14.9294 13.7397 15.0259 13.7838 15.1122C13.8279 15.1985 13.8938 15.2718 13.975 15.3247C14.5312 15.68 15.7087 16.14 17.3877 15.2489L17.4463 15.2178L17.4978 15.2597L21.9813 18.9125L20.5387 13.3574ZM20.5387 13.3574L20.5388 13.3574M20.5387 13.3574L20.5388 13.3574M20.5388 13.3574L21.2 13.0866L21.2 13.0866C21.2225 13.0774 21.2465 13.0727 21.2708 13.0728C21.2951 13.0728 21.3191 13.0777 21.3415 13.0871C21.3639 13.0964 21.3842 13.1101 21.4013 13.1274C21.4185 13.1446 21.432 13.165 21.4412 13.1875C21.4504 13.2099 21.4551 13.234 21.455 13.2583C21.4549 13.2825 21.4501 13.3066 21.4407 13.329C21.4313 13.3514 21.4176 13.3717 21.4004 13.3888C21.3832 13.4059 21.3628 13.4194 21.3403 13.4287L20.6797 13.6992L20.6795 13.6992C20.1411 13.9208 19.5413 13.9426 18.9883 13.7605L18.9879 13.7604L17.4712 13.268L17.4712 13.268L17.4703 13.2677C17.3538 13.2311 17.2313 13.2179 17.1097 13.2289C16.9881 13.2399 16.8699 13.2747 16.7618 13.3316L16.7615 13.3318L14.1962 14.6941L20.5388 13.3574ZM17.9198 17.6778L17.9202 17.6781L21.0566 19.9398L21.0569 19.9399C21.0627 19.9441 21.0684 19.9487 21.0737 19.9537L21.0789 19.9586L21.0847 19.9626L21.1386 20.0001C21.2828 20.1033 21.4611 20.1473 21.6368 20.123C21.8127 20.0986 21.9726 20.0077 22.0835 19.8689L22.0837 19.8686C22.1519 19.7826 22.1983 19.6815 22.2191 19.5737C22.2399 19.4662 22.2346 19.3553 22.2036 19.2503C22.166 19.1175 22.0884 18.9996 21.9813 18.9125L17.9198 17.6778Z" fill="#F0792E" stroke="#F0792E" stroke-width="0.2"/>
<path d="M20.9927 21.6181C20.8198 21.744 20.6133 21.8149 20.4001 21.8221L20.365 21.8221C20.1444 21.8224 19.9293 21.7539 19.7495 21.6262L19.7494 21.6262L16.6717 19.4424C16.633 19.4137 16.6071 19.371 16.5994 19.3235C16.5917 19.2756 16.6031 19.2267 16.6311 19.1872C16.6592 19.1476 16.7016 19.1207 16.7493 19.1122C16.7968 19.1037 16.8456 19.1141 16.8855 19.1411L19.9632 21.3245L19.9631 21.3246L19.9664 21.3267C20.1171 21.4251 20.3001 21.4615 20.4771 21.4283C20.654 21.395 20.8113 21.2946 20.916 21.1481C21.0207 21.0016 21.0647 20.8204 21.0389 20.6422C21.0131 20.4639 20.9194 20.3026 20.7774 20.1919L20.7775 20.1918L20.7744 20.1896L17.7087 17.9801C17.6731 17.9505 17.6498 17.9086 17.6437 17.8626C17.6374 17.8158 17.6492 17.7684 17.6768 17.7301C17.7044 17.6918 17.7455 17.6655 17.7919 17.6566C17.8374 17.6478 17.8845 17.6565 17.9239 17.6808L20.9902 19.8904C20.9902 19.8904 20.9902 19.8904 20.9903 19.8905C21.1729 20.0227 21.3089 20.2094 21.3789 20.4237C21.449 20.638 21.4493 20.8691 21.3799 21.0836C21.3105 21.2982 21.1749 21.4853 20.9927 21.6181Z" fill="#F0792E" stroke="#F0792E" stroke-width="0.2"/>
<path d="M19.0362 22.9637H19.0361C18.8273 22.9636 18.6235 22.8996 18.4522 22.7803L18.452 22.7801L15.6933 20.8693L15.6933 20.8693C15.653 20.8414 15.6254 20.7986 15.6167 20.7503C15.6079 20.7021 15.6186 20.6523 15.6466 20.612C15.6745 20.5717 15.7173 20.5441 15.7655 20.5353C15.8138 20.5266 15.8635 20.5373 15.9038 20.5652L18.6625 22.4761L18.6625 22.4761C18.7339 22.5255 18.8143 22.5603 18.8992 22.5786C18.984 22.5969 19.0716 22.5983 19.157 22.5827C19.2424 22.5671 19.3239 22.5349 19.3968 22.4878C19.4697 22.4407 19.5326 22.3798 19.582 22.3083L19.5822 22.3081C19.6803 22.165 19.7184 21.9891 19.6883 21.8182C19.6582 21.6473 19.5623 21.4951 19.4212 21.3941L19.4209 21.3939L16.6756 19.4466L16.6756 19.4466L16.6742 19.4456C16.6539 19.4318 16.6366 19.414 16.6233 19.3934C16.61 19.3728 16.6009 19.3498 16.5966 19.3256C16.5923 19.3015 16.5928 19.2767 16.5982 19.2528C16.6035 19.2288 16.6136 19.2062 16.6278 19.1862C16.642 19.1662 16.66 19.1492 16.6808 19.1362C16.7017 19.1232 16.7249 19.1146 16.7491 19.1107C16.7733 19.1068 16.7981 19.1077 16.8219 19.1135C16.8457 19.1192 16.8682 19.1297 16.888 19.1442L16.888 19.1442L16.8894 19.1452L19.6343 21.0924C19.6344 21.0924 19.6345 21.0924 19.6345 21.0925C19.8548 21.2499 20.0045 21.4875 20.0515 21.7542C20.0986 22.0209 20.0391 22.2954 19.886 22.5187L19.886 22.5187C19.8095 22.6303 19.7117 22.7255 19.5982 22.799C19.4847 22.8725 19.3578 22.9227 19.2247 22.9468L19.2246 22.9468C19.1625 22.9581 19.0994 22.9638 19.0362 22.9637Z" fill="#F0792E" stroke="#F0792E" stroke-width="0.2"/>
<path d="M18.0203 23.6982C17.8432 23.8287 17.629 23.8994 17.409 23.8999C17.2274 23.8989 17.0492 23.8503 16.8922 23.7591L16.8919 23.7589L15.3613 22.8764C15.3612 22.8764 15.3611 22.8763 15.361 22.8763C15.319 22.8516 15.2885 22.8113 15.2761 22.7642C15.2636 22.7171 15.2703 22.6669 15.2947 22.6246C15.3191 22.5824 15.3592 22.5515 15.4063 22.5387C15.4533 22.5259 15.5034 22.5322 15.5458 22.5563C15.5459 22.5563 15.546 22.5563 15.546 22.5564L17.0765 23.4389L17.0765 23.4389L17.0773 23.4394C17.2294 23.5252 17.4091 23.5482 17.578 23.5035C17.7469 23.4587 17.8916 23.3496 17.9812 23.1997L17.9814 23.1993C18.0668 23.0551 18.0939 22.8837 18.0573 22.7202C18.0207 22.5568 17.9232 22.4135 17.7847 22.3195L15.8287 20.9645C15.8287 20.9645 15.8287 20.9645 15.8287 20.9645C15.8087 20.9507 15.7917 20.9331 15.7786 20.9127C15.7654 20.8923 15.7564 20.8695 15.7521 20.8456C15.7478 20.8217 15.7482 20.7972 15.7533 20.7735C15.7585 20.7498 15.7682 20.7273 15.782 20.7074C15.7958 20.6874 15.8135 20.6704 15.8339 20.6573C15.8543 20.6441 15.877 20.6351 15.9009 20.6308C15.9248 20.6265 15.9493 20.6269 15.973 20.632C15.9967 20.6371 16.0192 20.6469 16.0391 20.6607L16.0392 20.6607L17.9953 22.0157L17.9953 22.0157C18.1764 22.1411 18.3127 22.321 18.3844 22.5292C18.4561 22.7374 18.4595 22.9631 18.394 23.1734C18.3285 23.3836 18.1976 23.5675 18.0203 23.6982Z" fill="#F0792E" stroke="#F0792E" stroke-width="0.2"/>
<path d="M14.9437 21.4425L14.9439 21.3425C14.7799 21.342 14.6214 21.4015 14.4981 21.5097C14.4981 21.5097 14.4981 21.5097 14.4981 21.5097L13.7372 22.1769L13.7372 22.1769C13.6705 22.2355 13.6159 22.3065 13.5767 22.3862C13.5374 22.4658 13.5143 22.5523 13.5085 22.6409C13.5027 22.7294 13.5144 22.8183 13.5429 22.9023C13.5715 22.9863 13.6163 23.0639 13.6748 23.1307C13.793 23.2654 13.9599 23.3477 14.1388 23.3593C14.2274 23.3651 14.3162 23.3534 14.4002 23.3249C14.4843 23.2963 14.5619 23.2515 14.6286 23.193L14.6286 23.193L15.3892 22.5252L15.3893 22.5251C15.4923 22.4344 15.5653 22.3146 15.5985 22.1814C15.6317 22.0483 15.6235 21.9082 15.5751 21.7798C15.5268 21.6514 15.4404 21.5408 15.3277 21.4627C15.2149 21.3846 15.081 21.3426 14.9438 21.3425L14.9437 21.4425ZM14.9437 21.4425C14.804 21.4421 14.669 21.4927 14.564 21.5849L15.3233 22.45C15.411 22.3728 15.4732 22.2707 15.5014 22.1572C15.5297 22.0438 15.5228 21.9245 15.4816 21.8151C15.4404 21.7057 15.3668 21.6115 15.2707 21.5449C15.1746 21.4783 15.0605 21.4426 14.9437 21.4425ZM14.1844 23.7298L14.184 23.7298C13.9714 23.7301 13.7637 23.6655 13.5887 23.5447C13.4138 23.4239 13.2798 23.2526 13.2048 23.0536C13.1298 22.8547 13.1172 22.6376 13.1689 22.4313C13.2205 22.225 13.3338 22.0394 13.4937 21.8993L14.2543 21.2329L14.2544 21.2328C14.3576 21.1423 14.4776 21.0729 14.6075 21.0287C14.7375 20.9845 14.8749 20.9663 15.0119 20.9752C15.1489 20.9842 15.2828 21.02 15.4059 21.0806C15.5291 21.1413 15.6391 21.2256 15.7297 21.3287C15.8202 21.4319 15.8896 21.5519 15.9337 21.6819C15.9779 21.8119 15.9961 21.9493 15.9871 22.0863C15.9782 22.2233 15.9424 22.3572 15.8817 22.4803C15.821 22.6035 15.7367 22.7135 15.6335 22.804L15.6335 22.804L14.8729 23.4718C14.8729 23.4718 14.8729 23.4718 14.8728 23.4718C14.6824 23.6387 14.4376 23.7304 14.1844 23.7298Z" fill="#F0792E" stroke="#F0792E" stroke-width="0.2"/>
<path d="M12.9047 22.4152C12.8383 22.4742 12.7607 22.5194 12.6766 22.5481C12.5924 22.5768 12.5033 22.5885 12.4145 22.5824L12.4143 22.5824C12.2804 22.5729 12.1523 22.5243 12.0458 22.4426C11.9393 22.3609 11.8592 22.2497 11.8154 22.1228C11.7717 21.9959 11.7662 21.8589 11.7997 21.7289C11.8332 21.599 11.9042 21.4817 12.0038 21.3917L12.0048 21.3908L12.0048 21.3908L13.2754 20.2754L13.2755 20.2753L13.3415 20.3505L12.9047 22.4152ZM12.9047 22.4152C12.9048 22.4151 12.9049 22.4151 12.905 22.415L14.1752 21.2999C14.1752 21.2999 14.1752 21.2999 14.1752 21.2999C14.2419 21.2414 14.2965 21.1703 14.3357 21.0906C14.375 21.011 14.3981 20.9244 14.4039 20.8358C14.4097 20.7473 14.3979 20.6584 14.3694 20.5744C14.3408 20.4903 14.2959 20.4127 14.2374 20.346L14.2373 20.346L14.2291 20.3366L12.9047 22.4152ZM12.4605 22.9542H12.4604C12.4343 22.9542 12.4134 22.9541 12.3933 22.9523L12.3933 22.9523L12.3906 22.9521C12.2536 22.9435 12.1196 22.9079 11.9965 22.8472C11.8733 22.7866 11.7634 22.7022 11.6731 22.5988L11.6731 22.5988L11.6725 22.5981C11.5807 22.4949 11.5101 22.3746 11.4649 22.244C11.4197 22.1134 11.4007 21.9752 11.409 21.8373C11.4174 21.6994 11.4529 21.5645 11.5135 21.4403C11.574 21.3162 11.6585 21.2053 11.7621 21.1139C11.7621 21.1138 11.7622 21.1138 11.7622 21.1138L13.0327 19.9985L13.0327 19.9985C13.1359 19.9079 13.2559 19.8385 13.3858 19.7943C13.5158 19.7501 13.6532 19.732 13.7902 19.7409C13.9272 19.7498 14.0611 19.7856 14.1842 19.8462C14.2787 19.8928 14.3655 19.9532 14.4417 20.0255L14.308 20.1536L14.4432 20.3009L14.5784 20.1821C14.6389 20.266 14.6867 20.3586 14.7202 20.4569C14.7644 20.5869 14.7826 20.7243 14.7737 20.8613C14.7647 20.9983 14.7289 21.1322 14.6683 21.2553C14.6076 21.3785 14.5232 21.4885 14.4201 21.579L13.1483 22.6945L13.148 22.6947C12.9582 22.8623 12.7137 22.9546 12.4605 22.9542ZM12.4604 23.0542C12.435 23.0542 12.4097 23.0542 12.3843 23.0519L12.4604 23.0542H12.4604ZM14.0203 20.1768C13.991 20.1624 13.9607 20.1502 13.9298 20.1403L14.2291 20.3366C14.1707 20.2701 14.0997 20.2157 14.0203 20.1768Z" fill="#F0792E" stroke="#F0792E" stroke-width="0.2"/>
<path d="M10.5141 21.3097L10.5139 21.3095L10.4818 21.2728C10.4818 21.2728 10.4818 21.2728 10.4818 21.2728C10.3635 21.1379 10.3037 20.9616 10.3154 20.7827C10.3271 20.6037 10.4094 20.4367 10.5443 20.3184C10.5443 20.3184 10.5443 20.3184 10.5443 20.3184L12.0174 19.0253L12.0174 19.0252L12.0834 19.1004C12.1882 19.0083 12.323 18.9577 12.4624 18.958L10.5141 21.3097ZM10.5141 21.3097C10.6325 21.4442 10.7993 21.5262 10.9781 21.5377C11.1569 21.5493 11.3329 21.4894 11.4676 21.3712L11.4676 21.3712L12.9407 20.078M10.5141 21.3097L12.4626 18.858C12.478 18.858 12.493 18.8587 12.5085 18.86M12.5085 18.86C12.5089 18.86 12.5093 18.86 12.5096 18.8601L12.5012 18.9597L12.5073 18.8599C12.5077 18.8599 12.5081 18.86 12.5085 18.86ZM12.5085 18.86C12.5967 18.8656 12.6829 18.8885 12.7622 18.9275C12.8419 18.9667 12.913 19.0213 12.9714 19.0881L12.9715 19.0881L13.0029 19.1241M13.0029 19.1241L12.9278 19.1901L13.0031 19.1243L13.0029 19.1241ZM13.0029 19.1241C13.0615 19.1908 13.1063 19.2684 13.1349 19.3525C13.1635 19.4365 13.1752 19.5254 13.1694 19.614C13.1637 19.7025 13.1405 19.7891 13.1013 19.8687C13.062 19.9484 13.0075 20.0195 12.9407 20.078M12.9407 20.078L12.8748 20.0029L12.9408 20.078L12.9407 20.078ZM11.0237 21.9086H11.0235C10.9977 21.9086 10.9768 21.9085 10.9563 21.9067L10.9563 21.9066L10.9537 21.9065C10.8167 21.8979 10.6827 21.8623 10.5596 21.8016C10.4367 21.7411 10.327 21.6569 10.2368 21.5539L10.2064 21.5177L10.2065 21.5177L10.205 21.516C10.0223 21.3076 9.92985 21.0352 9.94793 20.7587C9.96601 20.4821 10.0932 20.2241 10.3014 20.0413L11.7746 18.7481L11.7746 18.7481C11.8778 18.6575 11.9978 18.5881 12.1277 18.5439C12.2577 18.4997 12.3951 18.4815 12.5321 18.4904C12.6691 18.4993 12.803 18.5351 12.9262 18.5958C13.0493 18.6564 13.1593 18.7408 13.2499 18.844L13.282 18.8807L13.282 18.8807C13.4648 19.0891 13.5573 19.3615 13.5392 19.638C13.5211 19.9146 13.3939 20.1726 13.1856 20.3554L13.1856 20.3554L11.7124 21.6486L11.7122 21.6488C11.5222 21.8167 11.2772 21.9091 11.0237 21.9086ZM11.0235 22.0086C10.9984 22.0086 10.973 22.0086 10.9474 22.0063L11.0235 22.0086Z" fill="#F0792E" stroke="#F0792E" stroke-width="0.2"/>
<path d="M10.6968 18.0984V18.0984C10.5329 18.098 10.3746 18.1575 10.2515 18.2657L10.6968 18.0984ZM10.6968 18.0984C10.7059 18.0985 10.7163 18.0988 10.7252 18.099C10.7295 18.0991 10.7334 18.0993 10.7367 18.0993L10.7408 18.0994L10.7408 18.0995C10.8295 18.105 10.9162 18.128 10.996 18.1672C11.0756 18.2064 11.1468 18.2611 11.2052 18.328L10.6968 18.0984ZM11.2151 18.3392C11.2736 18.4059 11.3185 18.4835 11.347 18.5676C11.3756 18.6516 11.3874 18.7405 11.3816 18.829C11.3758 18.9176 11.3526 19.0042 11.3134 19.0838C11.2742 19.1635 11.2196 19.2346 11.1529 19.2931C11.1529 19.2931 11.1529 19.2931 11.1529 19.2931L10.2305 20.1027L10.23 20.1032L10.23 20.1032C10.162 20.1621 10.0829 20.2069 9.99744 20.235C9.91197 20.2631 9.82177 20.2739 9.73208 20.2669C9.64238 20.2599 9.55497 20.2351 9.47491 20.1941C9.39514 20.1532 9.32425 20.0969 9.26632 20.0285C9.20806 19.9619 9.16343 19.8846 9.13496 19.8008C9.10639 19.7168 9.09465 19.6279 9.10043 19.5394C9.1062 19.4508 9.12937 19.3642 9.16861 19.2846C9.20784 19.205 9.26238 19.1338 9.3291 19.0753C9.32911 19.0753 9.32912 19.0753 9.32912 19.0753L10.2514 18.2657L11.2053 18.328L11.2151 18.3392ZM11.2151 18.3392L11.2152 18.3393L11.1399 18.4052L11.2151 18.3392ZM9.78546 20.6407H9.78522C9.75932 20.6407 9.73874 20.6406 9.71924 20.6386L9.71925 20.6385L9.71547 20.6383C9.50772 20.6252 9.30851 20.5508 9.14303 20.4245C8.97754 20.2983 8.85321 20.1258 8.78574 19.9288C8.71827 19.7319 8.71069 19.5194 8.76397 19.3182C8.81723 19.117 8.92892 18.9361 9.08494 18.7984C9.08498 18.7983 9.08501 18.7983 9.08505 18.7983L10.0072 17.9888L10.0073 17.9888C10.1104 17.8982 10.2304 17.8288 10.3604 17.7846C10.4904 17.7404 10.6278 17.7222 10.7648 17.7311C10.9018 17.74 11.0357 17.7758 11.1588 17.8365C11.282 17.8972 11.392 17.9815 11.4825 18.0847L11.4924 18.096L11.4925 18.0961C11.5831 18.1993 11.6525 18.3193 11.6967 18.4492C11.7409 18.5792 11.7591 18.7166 11.7502 18.8536C11.7413 18.9906 11.7055 19.1245 11.6448 19.2477C11.5841 19.3708 11.4998 19.4808 11.3966 19.5714L11.3966 19.5714L10.4742 20.381L10.474 20.3812C10.2839 20.549 10.039 20.6413 9.78546 20.6407Z" fill="#F0792E" stroke="#F0792E" stroke-width="0.2"/>
<path d="M9.37905 19.0357C9.35576 19.0523 9.32904 19.0632 9.30105 19.0677L9.26834 19.0678C9.22855 19.0678 9.18982 19.055 9.15801 19.0311C9.15796 19.031 9.1579 19.031 9.15784 19.0309L8.18514 18.2908L8.18513 18.2908C8.16581 18.2761 8.14958 18.2577 8.13736 18.2368C8.12513 18.2158 8.11716 18.1926 8.11389 18.1686C8.11062 18.1445 8.11212 18.1201 8.11831 18.0966C8.12449 18.0731 8.13523 18.0511 8.14993 18.0318C8.1796 17.9928 8.22356 17.9672 8.27213 17.9606C8.29618 17.9573 8.32064 17.9588 8.3441 17.965C8.36757 17.9712 8.38959 17.9819 8.4089 17.9966C8.4089 17.9966 8.40891 17.9966 8.40891 17.9966L9.38199 18.737L9.38199 18.737L9.38255 18.7374C9.41365 18.7608 9.4366 18.7933 9.44814 18.8304C9.45968 18.8676 9.45921 18.9074 9.4468 18.9442C9.4344 18.9811 9.41069 19.0131 9.37905 19.0357Z" fill="#F0792E" stroke="#F0792E" stroke-width="0.2"/>
<path d="M22.2498 19.068L22.2498 19.0679L23.847 17.4702C23.8818 17.4369 23.9282 17.4184 23.9764 17.4189C24.0249 17.4193 24.0712 17.4387 24.1055 17.473C24.1397 17.5072 24.1592 17.5536 24.1596 17.602C24.16 17.6502 24.1416 17.6966 24.1083 17.7314L22.511 19.3286L22.5108 19.3289C22.4937 19.3461 22.4734 19.3598 22.4509 19.3691C22.4285 19.3785 22.4045 19.3833 22.3802 19.3834L22.3804 19.4834L22.3804 19.3834C22.3439 19.3834 22.3082 19.3725 22.2778 19.3522C22.2474 19.3319 22.2237 19.3031 22.2098 19.2693C22.1958 19.2355 22.1921 19.1984 22.1993 19.1626C22.2064 19.1267 22.224 19.0938 22.2498 19.068Z" fill="#F0792E" stroke="#F0792E" stroke-width="0.2"/>
<path d="M24.5601 18.7923H24.5594C24.5278 18.7924 24.4967 18.7843 24.4691 18.7689C24.4415 18.7535 24.4184 18.7313 24.4018 18.7044C24.4018 18.7044 24.4018 18.7044 24.4018 18.7044L20.9247 13.0487C20.9247 13.0487 20.9247 13.0487 20.9247 13.0487C20.9008 13.0099 20.8922 12.9637 20.9004 12.9189C20.9086 12.874 20.933 12.8338 20.969 12.8059L20.969 12.8059L24.4129 10.1387C24.4374 10.1197 24.4663 10.1072 24.497 10.1023C24.5276 10.0974 24.559 10.1003 24.5882 10.1108C24.6174 10.1212 24.6435 10.1388 24.6641 10.162C24.6847 10.1852 24.6992 10.2132 24.7061 10.2434C24.7061 10.2434 24.7061 10.2435 24.7061 10.2435L26.3997 17.6326L26.3998 17.633C26.4089 17.672 26.4051 17.713 26.3889 17.7496C26.3728 17.7863 26.3451 17.8167 26.3102 17.8363L26.3101 17.8363L24.65 18.7693C24.6499 18.7693 24.6498 18.7694 24.6497 18.7694C24.6223 18.7846 24.5914 18.7925 24.5601 18.7923ZM21.3973 12.9411L21.3264 12.9961L21.3734 13.0726L24.5732 18.2769L24.6235 18.3588L24.7073 18.3117L25.9436 17.6168L26.0087 17.5802L25.992 17.5073L24.4457 10.7603L24.4107 10.6078L24.287 10.7036L21.3973 12.9411Z" fill="#F0792E" stroke="#F0792E" stroke-width="0.2"/>
<path d="M7.94544 18.8934L7.94577 18.8934C7.9773 18.8936 8.00833 18.8856 8.03592 18.8703C8.06346 18.8551 8.08665 18.8331 8.10329 18.8064C8.10332 18.8063 8.10335 18.8063 8.10338 18.8062L11.5805 13.151L7.94544 18.8934ZM7.94544 18.8934C7.9138 18.8934 7.88268 18.8853 7.85509 18.8698L7.85507 18.8698M7.94544 18.8934L7.85507 18.8698M7.85507 18.8698L6.19453 17.938L6.19447 17.938M7.85507 18.8698L6.19447 17.938M6.19447 17.938C6.15951 17.9184 6.13187 17.888 6.1157 17.8513C6.09954 17.8146 6.09573 17.7737 6.10485 17.7347L6.10494 17.7343M6.19447 17.938L6.10494 17.7343M6.10494 17.7343L7.79881 10.346C7.79881 10.346 7.79881 10.346 7.79881 10.346C7.80575 10.3158 7.82019 10.2878 7.84079 10.2646C7.8614 10.2414 7.88752 10.2237 7.91674 10.2133C7.94595 10.2029 7.97733 10.2 8.00796 10.2048C8.0386 10.2097 8.06752 10.2222 8.09205 10.2412L8.09206 10.2412M6.10494 17.7343L8.09206 10.2412M8.09206 10.2412L11.5362 12.9082L11.5362 12.9082M8.09206 10.2412L11.5362 12.9082M11.5362 12.9082C11.5722 12.9361 11.5967 12.9763 11.6048 13.0211M11.5362 12.9082L11.6048 13.0211M6.14559 18.0252L7.80614 18.957L6.14559 18.0252ZM6.14559 18.0252C6.09172 17.995 6.04912 17.9481 6.0242 17.8916C5.99929 17.8351 5.99342 17.7721 6.00747 17.7119L6.14559 18.0252ZM11.6048 13.0211C11.613 13.0659 11.6044 13.1121 11.5806 13.1509L11.6048 13.0211ZM6.51288 17.6104L6.49617 17.6833L6.56137 17.72L7.79759 18.4145L7.88141 18.4616L7.93176 18.3797L11.1315 13.1751L11.1786 13.0986L11.1076 13.0437L8.21792 10.8062L8.09418 10.7103L8.05923 10.8629L6.51288 17.6104Z" fill="#F0792E" stroke="#F0792E" stroke-width="0.2"/>
</svg>
