<svg width="20" height="20" viewBox="0 0 20 20" fill="none" xmlns="http://www.w3.org/2000/svg">
<path d="M10 19.8C4.59661 19.8 0.2 15.4034 0.2 10C0.2 4.59661 4.59661 0.2 10 0.2C15.4034 0.2 19.8 4.59661 19.8 10C19.8 15.4034 15.4034 19.8 10 19.8ZM10 2.10769C5.648 2.10769 2.10769 5.648 2.10769 10C2.10769 14.352 5.648 17.8923 10 17.8923C14.352 17.8923 17.8923 14.352 17.8923 10C17.8923 5.648 14.352 2.10769 10 2.10769Z" fill="#848484" stroke="white" stroke-width="0.4"/>
<path d="M8.84766 9.6457C8.84766 9.20388 9.20583 8.8457 9.64766 8.8457H10.3553C10.7972 8.8457 11.1553 9.20388 11.1553 9.6457V13.4303C11.1553 13.8721 10.7972 14.2303 10.3553 14.2303H9.64766C9.20583 14.2303 8.84766 13.8721 8.84766 13.4303V9.6457Z" fill="#848484"/>
<path d="M10.0015 6.92293C10.6388 6.92293 11.1553 6.40633 11.1553 5.76908C11.1553 5.13183 10.6388 4.61523 10.0015 4.61523C9.36425 4.61523 8.84766 5.13183 8.84766 5.76908C8.84766 6.40633 9.36425 6.92293 10.0015 6.92293Z" fill="#848484"/>
</svg>
