<svg width="32" height="32" viewBox="0 0 32 32" fill="none" xmlns="http://www.w3.org/2000/svg">
<path d="M7.0164 10.3202C7.2449 10.0342 7.4899 9.75615 7.7449 9.49365L8.4624 10.1897C8.2299 10.4297 8.0059 10.6837 7.7974 10.9447L7.0164 10.3202Z" fill="#F0792E"/>
<path d="M6.69704 12.6264L5.81154 12.1619C5.98254 11.8364 6.17054 11.5164 6.37004 11.2119L7.20654 11.7619C7.02454 12.0379 6.85304 12.3294 6.69704 12.6264Z" fill="#F0792E"/>
<path d="M8.55014 8.73988C8.82914 8.50288 9.12214 8.27638 9.42164 8.06738L9.99414 8.88638C9.72114 9.07788 9.45314 9.28638 9.19814 9.50188L8.55014 8.73988Z" fill="#F0792E"/>
<path d="M5.5498 16.4601L4.5543 16.3601C4.5903 15.9936 4.6443 15.6266 4.7148 15.2686L5.6958 15.4621C5.6328 15.7906 5.5833 16.1256 5.5498 16.4601Z" fill="#F0792E"/>
<path d="M5.93845 14.4881L4.98045 14.2011C5.08495 13.8511 5.20845 13.5011 5.34645 13.1621L6.27295 13.5391C6.14645 13.8501 6.03395 14.1681 5.93845 14.4881Z" fill="#F0792E"/>
<path d="M5.54395 18.4704L4.54844 18.5619C4.51644 18.2119 4.49844 17.8544 4.49844 17.4619L5.49994 17.4999C5.49994 17.8239 5.51495 18.1499 5.54395 18.4704Z" fill="#F0792E"/>
<path d="M18.4502 28.7382C18.1297 28.8077 17.8027 28.8642 17.4777 28.9057L17.3512 27.9142C17.6472 27.8757 17.9457 27.8242 18.2377 27.7607L18.4502 28.7382Z" fill="#F0792E"/>
<path d="M16.455 27.9898L16.4985 28.9898C16.3329 28.9964 16.1667 28.9998 16 28.9998C15.8365 28.9998 15.674 28.9963 15.5115 28.9893L15.554 27.9893C15.8535 28.0033 16.1565 28.0028 16.455 27.9898Z" fill="#F0792E"/>
<path d="M20.335 28.155C20.03 28.279 19.7175 28.391 19.406 28.487L19.111 27.5315C19.3945 27.444 19.6795 27.342 19.958 27.2285L20.335 28.155Z" fill="#F0792E"/>
<path d="M12.8999 27.5344L12.6054 28.4899C12.2924 28.3934 11.9799 28.2814 11.6759 28.1579L12.0499 27.2319C12.3274 27.3444 12.6129 27.4464 12.8999 27.5344Z" fill="#F0792E"/>
<path d="M14.6558 27.9147L14.5293 28.9067C14.2048 28.8652 13.8793 28.8067 13.5568 28.7397L13.7683 27.7622C14.0613 27.8257 14.3598 27.8772 14.6558 27.9147Z" fill="#F0792E"/>
<path d="M26.4565 18.4592C26.4855 18.1427 26.5 17.8197 26.5 17.5002V17.4502L27.5 17.5002C27.5 17.8502 27.484 18.2027 27.45 18.5502L26.4565 18.4592Z" fill="#F0792E"/>
<path d="M25.7241 13.5308L26.6501 13.1523C26.7881 13.4903 26.9116 13.8398 27.0171 14.1908L26.0591 14.4783C25.9631 14.1578 25.8501 13.8393 25.7241 13.5308Z" fill="#F0792E"/>
<path d="M21.9998 8.88299L22.5718 8.06299C22.8718 8.27299 23.1663 8.49949 23.4443 8.73599L22.7998 9.49999C22.5438 9.28149 22.2763 9.07449 21.9998 8.88299Z" fill="#F0792E"/>
<path d="M26.2999 15.4538L27.2819 15.2598C27.3529 15.6188 27.4069 15.9858 27.4434 16.3498L26.4479 16.4498C26.4154 16.1163 26.3654 15.7813 26.2999 15.4538Z" fill="#F0792E"/>
<path d="M24.7896 11.7531L25.6256 11.2031C25.8256 11.5096 26.0146 11.8291 26.1846 12.1531L25.2996 12.6186C25.1441 12.3246 24.9726 12.0331 24.7896 11.7531Z" fill="#F0792E"/>
<path d="M23.533 10.1853L24.25 9.48828C24.5045 9.74978 24.75 10.0278 24.979 10.3133L24.199 10.9393C23.989 10.6778 23.765 10.4243 23.533 10.1853Z" fill="#F0792E"/>
<path d="M6.00006 19.4998C6.76882 19.5002 7.52888 19.6624 8.23086 19.9758C8.93283 20.2892 9.56101 20.7467 10.0746 21.3188L13.3361 18.8728C13.1187 18.4539 13.0036 17.9895 13 17.5176C12.9965 17.0457 13.1047 16.5797 13.3157 16.1576C13.5268 15.7355 13.8347 15.3694 14.2143 15.0891C14.594 14.8087 15.0346 14.6222 15.5001 14.5448V12.4743C14.0906 12.3456 12.7849 11.6785 11.8547 10.6118C10.9245 9.54501 10.4414 8.16071 10.5058 6.74681C10.5702 5.33291 11.1772 3.99827 12.2005 3.02049C13.2238 2.04271 14.5847 1.49707 16.0001 1.49707C17.4154 1.49707 18.7763 2.04271 19.7996 3.02049C20.823 3.99827 21.43 5.33291 21.4944 6.74681C21.5588 8.16071 21.0756 9.54501 20.1454 10.6118C19.2152 11.6785 17.9096 12.3456 16.5001 12.4743V14.5448C16.9656 14.6223 17.4062 14.8089 17.7858 15.0892C18.1654 15.3696 18.4734 15.7358 18.6844 16.1579C18.8954 16.5801 19.0036 17.0461 19.0001 17.5181C18.9965 17.99 18.8814 18.4544 18.6641 18.8733L21.9251 21.3188C22.8764 20.2649 24.1973 19.6183 25.6132 19.5136C27.0291 19.4089 28.4308 19.8541 29.5268 20.7566C30.6228 21.6591 31.3286 22.9494 31.4975 24.359C31.6663 25.7687 31.2851 27.1892 30.4333 28.325C29.5815 29.4608 28.3245 30.2244 26.924 30.457C25.5234 30.6896 24.0871 30.3733 22.9138 29.5739C21.7405 28.7744 20.9207 27.5534 20.6248 26.1649C20.3288 24.7763 20.5797 23.3271 21.3251 22.1188L18.0636 19.6733C17.508 20.2044 16.7691 20.5007 16.0006 20.5007C15.232 20.5007 14.4931 20.2044 13.9376 19.6733L10.6761 22.1188C11.3125 23.1551 11.5872 24.3733 11.457 25.5825C11.3268 26.7917 10.7991 27.9235 9.95659 28.8006C9.11408 29.6777 8.00439 30.2505 6.80142 30.4291C5.59845 30.6079 4.37018 30.3824 3.3091 29.7881C2.24802 29.1938 1.4141 28.2642 0.938034 27.1451C0.461964 26.026 0.370647 24.7805 0.678392 23.6039C0.986137 22.4273 1.67555 21.3861 2.6386 20.6434C3.60164 19.9007 4.78389 19.4985 6.00006 19.4998ZM28.0001 29.0248V27.9998C28.0001 27.4694 27.7894 26.9607 27.4143 26.5856C27.0392 26.2105 26.5305 25.9998 26.0001 25.9998C25.4696 25.9998 24.9609 26.2105 24.5859 26.5856C24.2108 26.9607 24.0001 27.4694 24.0001 27.9998V29.0248C24.6205 29.337 25.3055 29.4996 26.0001 29.4996C26.6947 29.4996 27.3796 29.337 28.0001 29.0248ZM27.0001 23.9998V23.4998C27.0001 23.2346 26.8947 22.9802 26.7072 22.7927C26.5196 22.6051 26.2653 22.4998 26.0001 22.4998C25.7349 22.4998 25.4805 22.6051 25.293 22.7927C25.1054 22.9802 25.0001 23.2346 25.0001 23.4998V23.9998C25.0001 24.265 25.1054 24.5194 25.293 24.7069C25.4805 24.8944 25.7349 24.9998 26.0001 24.9998C26.2653 24.9998 26.5196 24.8944 26.7072 24.7069C26.8947 24.5194 27.0001 24.265 27.0001 23.9998ZM23.0001 28.3443V27.9998C23.0004 27.4631 23.1447 26.9362 23.4179 26.4743C23.6912 26.0123 24.0833 25.6321 24.5536 25.3733C24.1992 25.0038 24.0009 24.5118 24.0001 23.9998V23.4998C24.0001 22.9694 24.2108 22.4607 24.5859 22.0856C24.9609 21.7105 25.4696 21.4998 26.0001 21.4998C26.5305 21.4998 27.0392 21.7105 27.4143 22.0856C27.7894 22.4607 28.0001 22.9694 28.0001 23.4998V23.9998C27.9992 24.5118 27.801 25.0038 27.4466 25.3733C27.9168 25.6321 28.309 26.0123 28.5822 26.4743C28.8555 26.9362 28.9998 27.4631 29.0001 27.9998V28.3443C29.6794 27.7367 30.1582 26.9372 30.3731 26.0516C30.5881 25.1659 30.529 24.2359 30.2038 23.3845C29.8786 22.5331 29.3026 21.8006 28.552 21.2837C27.8013 20.7669 26.9114 20.4902 26.0001 20.4902C25.0887 20.4902 24.1988 20.7669 23.4482 21.2837C22.6975 21.8006 22.1215 22.5331 21.7963 23.3845C21.4711 24.2359 21.4121 25.1659 21.627 26.0516C21.842 26.9372 22.3208 27.7367 23.0001 28.3443ZM17.0001 5.99979V5.49979C17.0001 5.23458 16.8947 4.98023 16.7072 4.79269C16.5196 4.60515 16.2653 4.4998 16.0001 4.4998C15.7348 4.4998 15.4805 4.60515 15.293 4.79269C15.1054 4.98023 15.0001 5.23458 15.0001 5.49979V5.99979C15.0001 6.26501 15.1054 6.51937 15.293 6.7069C15.4805 6.89444 15.7348 6.99979 16.0001 6.99979C16.2653 6.99979 16.5196 6.89444 16.7072 6.7069C16.8947 6.51937 17.0001 6.26501 17.0001 5.99979ZM16.0001 7.99979C15.4696 7.99979 14.9609 8.21051 14.5859 8.58558C14.2108 8.96065 14.0001 9.46936 14.0001 9.99979V11.0248C14.6205 11.337 15.3055 11.4996 16.0001 11.4996C16.6946 11.4996 17.3796 11.337 18.0001 11.0248V9.99979C18.0001 9.46936 17.7894 8.96065 17.4143 8.58558C17.0392 8.21051 16.5305 7.99979 16.0001 7.99979ZM20.5001 6.99979C20.5017 6.24876 20.3153 5.50927 19.9579 4.84873C19.6005 4.18819 19.0834 3.62761 18.4539 3.21808C17.8243 2.80855 17.1023 2.5631 16.3536 2.50411C15.6048 2.44511 14.8533 2.57445 14.1673 2.88033C13.4814 3.1862 12.883 3.65889 12.4265 4.2553C11.9701 4.85172 11.6702 5.55289 11.5541 6.29491C11.4381 7.03692 11.5096 7.79618 11.7622 8.50347C12.0147 9.21077 12.4403 9.8436 13.0001 10.3443V9.99979C13.0004 9.46306 13.1447 8.93624 13.4179 8.47427C13.6912 8.0123 14.0833 7.63209 14.5536 7.37329C14.1992 7.00377 14.0009 6.5118 14.0001 5.99979V5.49979C14.0001 4.96936 14.2108 4.46065 14.5859 4.08558C14.9609 3.71051 15.4696 3.4998 16.0001 3.4998C16.5305 3.4998 17.0392 3.71051 17.4143 4.08558C17.7894 4.46065 18.0001 4.96936 18.0001 5.49979V5.99979C17.9992 6.5118 17.801 7.00377 17.4466 7.37329C17.9168 7.63209 18.309 8.0123 18.5822 8.47427C18.8555 8.93624 18.9998 9.46306 19.0001 9.99979V10.3443C19.4715 9.92387 19.8488 9.40861 20.1073 8.83226C20.3658 8.25591 20.4996 7.63146 20.5001 6.99979ZM16.0001 19.4998C16.3956 19.4998 16.7823 19.3825 17.1112 19.1627C17.4401 18.943 17.6965 18.6306 17.8478 18.2652C17.9992 17.8997 18.0388 17.4976 17.9616 17.1096C17.8845 16.7217 17.694 16.3653 17.4143 16.0856C17.1346 15.8059 16.7782 15.6154 16.3902 15.5382C16.0023 15.4611 15.6002 15.5007 15.2347 15.652C14.8692 15.8034 14.5569 16.0598 14.3371 16.3887C14.1174 16.7176 14.0001 17.1042 14.0001 17.4998C14.0001 18.0302 14.2108 18.5389 14.5859 18.914C14.9609 19.2891 15.4696 19.4998 16.0001 19.4998ZM8.00007 29.0248V27.9998C8.00007 27.4694 7.78935 26.9607 7.41428 26.5856C7.03921 26.2105 6.5305 25.9998 6.00006 25.9998C5.46963 25.9998 4.96092 26.2105 4.58585 26.5856C4.21078 26.9607 4.00006 27.4694 4.00006 27.9998V29.0248C4.62054 29.337 5.30548 29.4996 6.00006 29.4996C6.69465 29.4996 7.37959 29.337 8.00007 29.0248ZM7.00006 23.9998V23.4998C7.00006 23.2346 6.89471 22.9802 6.70717 22.7927C6.51964 22.6051 6.26528 22.4998 6.00006 22.4998C5.73485 22.4998 5.48049 22.6051 5.29296 22.7927C5.10542 22.9802 5.00006 23.2346 5.00006 23.4998V23.9998C5.00006 24.265 5.10542 24.5194 5.29296 24.7069C5.48049 24.8944 5.73485 24.9998 6.00006 24.9998C6.26528 24.9998 6.51964 24.8944 6.70717 24.7069C6.89471 24.5194 7.00006 24.265 7.00006 23.9998ZM3.00006 28.3443V27.9998C3.00038 27.4631 3.14468 26.9362 3.41792 26.4743C3.69117 26.0123 4.08334 25.6321 4.55356 25.3733C4.19916 25.0038 4.0009 24.5118 4.00006 23.9998V23.4998C4.00006 22.9694 4.21078 22.4607 4.58585 22.0856C4.96092 21.7105 5.46963 21.4998 6.00006 21.4998C6.5305 21.4998 7.03921 21.7105 7.41428 22.0856C7.78935 22.4607 8.00007 22.9694 8.00007 23.4998V23.9998C7.99923 24.5118 7.80097 25.0038 7.44657 25.3733C7.91679 25.6321 8.30897 26.0123 8.58221 26.4743C8.85545 26.9362 8.99975 27.4631 9.00007 27.9998V28.3443C9.67936 27.7367 10.1582 26.9372 10.3731 26.0516C10.5881 25.1659 10.529 24.2359 10.2038 23.3845C9.87865 22.5331 9.30261 21.8006 8.55196 21.2837C7.80131 20.7669 6.91143 20.4902 6.00006 20.4902C5.0887 20.4902 4.19882 20.7669 3.44817 21.2837C2.69752 21.8006 2.12148 22.5331 1.79629 23.3845C1.4711 24.2359 1.41207 25.1659 1.62702 26.0516C1.84197 26.9372 2.32078 27.7367 3.00006 28.3443Z" fill="#F0792E"/>
</svg>
