<svg width="16" height="16" viewBox="0 0 16 16" fill="none" xmlns="http://www.w3.org/2000/svg">
<ellipse cx="8" cy="8" rx="8" ry="8" fill="#F7E2CC" fill-opacity="0.5"/>
<g clip-path="url(#clip0_2102_11821)">
<path d="M9.1374 10.854L9.04079 11.3037C8.75096 11.434 8.51944 11.5331 8.34704 11.6013C8.17445 11.6696 7.97392 11.7037 7.74544 11.7037C7.39457 11.7037 7.12165 11.6058 6.92701 11.4114C6.73236 11.2162 6.63501 10.9689 6.63501 10.6688C6.63501 10.5527 6.64207 10.4332 6.65676 10.3115C6.67157 10.1896 6.69512 10.0523 6.72734 9.89893L7.08955 8.43905C7.12178 8.29926 7.14917 8.1668 7.1711 8.04155C7.19335 7.91707 7.20407 7.80254 7.20407 7.69944C7.20407 7.51301 7.17017 7.3826 7.10269 7.30928C7.03521 7.23618 6.90643 7.19906 6.71526 7.19906C6.62162 7.19906 6.52538 7.21613 6.42728 7.24916C6.32875 7.28233 6.24454 7.31436 6.17383 7.34414L6.27069 6.89407C6.50797 6.78406 6.73478 6.68985 6.95173 6.61166C7.16869 6.53326 7.37368 6.49403 7.56759 6.49403C7.91604 6.49403 8.18493 6.58993 8.37375 6.78173C8.56257 6.97367 8.65695 7.22249 8.65695 7.5291C8.65695 7.59254 8.65075 7.70431 8.63743 7.86407C8.62442 8.02419 8.60019 8.1709 8.56486 8.30434L8.2042 9.75836C8.17464 9.87514 8.14806 10.0087 8.12494 10.1589C8.10108 10.3081 8.08968 10.4222 8.08968 10.4987C8.08968 10.6917 8.12748 10.8236 8.20327 10.8936C8.27962 10.9637 8.41112 10.9986 8.59789 10.9986C8.68558 10.9986 8.78535 10.9808 8.89621 10.9461C9.00677 10.9113 9.08739 10.8807 9.1374 10.854ZM9.22887 4.74956C9.22887 5.00289 9.14502 5.21925 8.97653 5.39715C8.80846 5.57568 8.60595 5.66502 8.36904 5.66502C8.13139 5.66502 7.92837 5.57568 7.75839 5.39715C7.58872 5.21918 7.5037 5.00289 7.5037 4.74956C7.5037 4.49672 7.58872 4.28001 7.75839 4.09985C7.92806 3.91998 8.13145 3.83008 8.36904 3.83008C8.60589 3.83008 8.80846 3.92019 8.97653 4.09985C9.14515 4.28001 9.22887 4.49679 9.22887 4.74956Z" fill="#F0792E"/>
</g>
<defs>
<clipPath id="clip0_2102_11821">
<rect width="6.91438" height="7.87358" fill="white" transform="translate(4.24414 3.83008)"/>
</clipPath>
</defs>
</svg>
