<svg width="24" height="22" viewBox="0 0 24 22" fill="none" xmlns="http://www.w3.org/2000/svg">
<path d="M19.6255 4.27801C14.7451 0.972654 9.48537 0.888555 4.46174 4.21942C4.14753 4.42776 4.07783 4.82922 4.30597 5.1161C4.53411 5.40293 4.97375 5.46666 5.28805 5.25832C9.82774 2.2484 14.4156 2.34808 18.7877 5.3092C19.0996 5.52042 19.5399 5.46084 19.7713 5.17606C20.0026 4.89132 19.9373 4.48922 19.6255 4.27801Z" fill="#F0792E"/>
<path d="M12.0002 4.49421C9.01314 4.49421 5.17301 6.31013 3.54022 8.54641C3.32478 8.84142 3.41211 9.24001 3.73522 9.43667C4.05837 9.63324 4.49492 9.55364 4.71026 9.25858C6.06396 7.40454 9.4705 5.77818 12.0002 5.77818C14.4773 5.77818 17.8652 6.98481 19.2647 9.221C19.3945 9.42841 19.6318 9.54461 19.8758 9.54461C20.4064 9.54461 20.7563 9.01643 20.4857 8.58403C18.8737 6.00827 15.0886 4.49421 12.0002 4.49421Z" fill="#F0792E"/>
<path d="M8.20352 15.0657C8.20352 12.9653 9.90681 11.2566 12.0004 11.2566C14.094 11.2566 15.7973 12.9653 15.7973 15.0657V15.7505C15.7973 16.105 16.1121 16.3924 16.5004 16.3924C16.8887 16.3924 17.2035 16.105 17.2035 15.7505V15.0657C17.2035 12.2574 14.8694 9.97262 12.0004 9.97262C9.13136 9.97262 6.79727 12.2574 6.79727 15.0657C6.79727 17.7955 9.0452 19.258 10.0377 20.567C10.1742 20.747 10.3935 20.8436 10.6165 20.8436C11.1763 20.8436 11.5189 20.2646 11.1939 19.8361C10.1198 18.4195 8.20352 17.2448 8.20352 15.0657Z" fill="#F0792E"/>
<path d="M19.7534 17.4068C21.9264 13.4387 18.0622 7.23316 11.9995 7.23316C7.73111 7.23316 3.79638 10.5362 3.79638 14.723C3.79638 16.243 4.00994 17.5286 5.05216 18.8622C5.27772 19.1508 5.7168 19.2178 6.03292 19.0118C6.349 18.8059 6.42245 18.405 6.19685 18.1164C5.46283 17.1771 5.20263 16.2891 5.20263 14.723C5.20263 11.417 8.37873 8.51713 11.9995 8.51713C13.8223 8.51713 15.6224 9.25117 16.9384 10.5311C18.8013 12.3429 19.4707 15.0519 18.4956 16.8326C17.4805 18.686 14.2026 18.1607 14.2026 15.7501C14.2026 10.989 8.86098 12.413 9.81737 15.9058C9.9115 16.2498 10.2933 16.4589 10.67 16.3729C11.0467 16.287 11.2758 15.9384 11.1816 15.5944C10.936 14.6973 11.3865 13.9954 11.9995 13.9954C12.5499 13.9954 12.7964 14.8767 12.7964 15.7501C12.7964 19.5092 18.0704 20.4801 19.7534 17.4068Z" fill="#F0792E"/>
</svg>
