<svg width="16" height="16" viewBox="0 0 16 16" fill="none" xmlns="http://www.w3.org/2000/svg">
<g clip-path="url(#clip0_66810_19570)">
<path d="M15.5312 0H0.46875C0.209839 0 0 0.209839 0 0.46875V4.25C0 4.50891 0.209839 4.71875 0.46875 4.71875H2.84375V14.125C2.84375 15.1589 3.68481 16 4.71875 16H13.9375C13.9551 16 13.9724 15.9989 13.9895 15.9969C14.024 15.9989 14.0587 16 14.0938 16C15.1277 16 15.9688 15.1589 15.9688 14.125V11.9688C15.9688 11.7886 15.8655 11.6243 15.703 11.5463C15.5406 11.4681 15.3479 11.4902 15.2072 11.6027L14.5625 12.1184L13.6835 11.4153C13.5309 11.2932 13.3213 11.2803 13.1562 11.3756V4.71875H15.5312C15.7902 4.71875 16 4.50891 16 4.25V0.46875C16 0.209839 15.7902 0 15.5312 0V0ZM15.0625 0.9375V1.90625H0.9375V0.9375H15.0625ZM0.9375 3.78125V2.84375H2.84375V3.78125H0.9375ZM3.78125 14.125V2.84375H12.2188V14.125C12.2188 14.4664 12.3109 14.7865 12.4709 15.0625H4.71875C4.20178 15.0625 3.78125 14.642 3.78125 14.125ZM13.3906 12.3816L14.2697 13.0847C14.4409 13.2217 14.6841 13.2217 14.8553 13.0847L15.0312 12.9441V14.125C15.0312 14.642 14.6106 15.0625 14.0938 15.0625C13.5768 15.0625 13.1562 14.642 13.1562 14.125V12.5691L13.3906 12.3816ZM13.1562 3.78125V2.84375H15.0625V3.78125H13.1562Z" fill="white"/>
<path d="M5.65625 3.78125H4.71875C4.45984 3.78125 4.25 3.99109 4.25 4.25C4.25 4.50891 4.45984 4.71875 4.71875 4.71875H5.65625C5.91516 4.71875 6.125 4.50891 6.125 4.25C6.125 3.99109 5.91516 3.78125 5.65625 3.78125Z" fill="white"/>
<path d="M7.53125 4.71875H8.46875C8.72766 4.71875 8.9375 4.50891 8.9375 4.25C8.9375 3.99109 8.72766 3.78125 8.46875 3.78125H7.53125C7.27234 3.78125 7.0625 3.99109 7.0625 4.25C7.0625 4.50891 7.27234 4.71875 7.53125 4.71875Z" fill="white"/>
<path d="M11.2812 3.78125H10.3438C10.0848 3.78125 9.875 3.99109 9.875 4.25C9.875 4.50891 10.0848 4.71875 10.3438 4.71875H11.2812C11.5402 4.71875 11.75 4.50891 11.75 4.25C11.75 3.99109 11.5402 3.78125 11.2812 3.78125Z" fill="white"/>
<path d="M9.59686 8.08781C9.81953 8.08781 10 7.91908 10 7.7109C10 7.50286 9.81953 7.33398 9.59686 7.33398H6.40405C6.18138 7.33398 6.00091 7.50286 6.00091 7.7109C6.00091 7.91908 6.18138 8.08781 6.40405 8.08781H7.31914C7.69755 8.08722 8.04132 8.29364 8.19801 8.61549H6.40799C6.18548 8.61549 6.00485 8.78437 6.00485 8.9924C6.00485 9.20059 6.18548 9.36932 6.40799 9.36932H8.19801C8.0399 9.69028 7.69692 9.89611 7.31914 9.897H6.40405C6.2387 9.89714 6.09005 9.99152 6.02879 10.1351C5.96753 10.2786 6.00595 10.4426 6.12579 10.5491L8.40761 12.5656C8.48304 12.6315 8.58256 12.6679 8.68571 12.6673C8.79657 12.6667 8.90255 12.6246 8.98003 12.5506C9.05342 12.4781 9.09294 12.3814 9.08995 12.2817C9.08696 12.182 9.04161 12.0875 8.96397 12.019L7.41583 10.6508C8.20116 10.6084 8.8635 10.0888 9.0446 9.37315H9.59686C9.81953 9.37315 10 9.20442 10 8.99623C10 8.78805 9.81953 8.61932 9.59686 8.61932H9.0446C8.99767 8.4316 8.91578 8.25286 8.80272 8.09164H9.59686V8.08781Z" fill="white"/>
</g>
<defs>
<clipPath id="clip0_66810_19570">
<rect width="16" height="16" fill="white"/>
</clipPath>
</defs>
</svg>
