<svg width="70" height="61" viewBox="0 0 70 61" fill="none" xmlns="http://www.w3.org/2000/svg">
<path d="M53.8352 6.96419L34.8432 0L16.0342 6.88722C13.6337 8.02969 11.5262 8.72246 11.5262 11.0074V22.3794C11.4863 30.3463 13.6286 38.1732 17.7226 45.0181C21.2297 50.8317 26.6735 56.8195 35.0262 60.6278C42.7158 58.0755 48.4525 51.2774 51.9596 45.4597C56.0513 38.6156 58.1908 30.7899 58.1479 22.825V12.5955C58.1479 9.33826 56.4676 7.7461 53.8352 6.96419Z" fill="#FFD0AE"/>
<path d="M44.4756 34.151H41.6108V18.5298C41.6108 16.7609 40.9089 15.0645 39.6594 13.8137C38.41 12.563 36.7154 11.8603 34.9485 11.8603C33.1815 11.8603 31.4869 12.563 30.2375 13.8137C28.9881 15.0645 28.2861 16.7609 28.2861 18.5298V34.151H25.418V18.5298C25.3842 17.2561 25.6057 15.9885 26.0694 14.8018C26.533 13.6152 27.2294 12.5335 28.1174 11.6207C29.0054 10.7079 30.0671 9.98237 31.2397 9.48698C32.4124 8.99159 33.6723 8.73637 34.9451 8.73637C36.2179 8.73637 37.4778 8.99159 38.6505 9.48698C39.8232 9.98237 40.8848 10.7079 41.7728 11.6207C42.6609 12.5335 43.3572 13.6152 43.8209 14.8018C44.2845 15.9885 44.506 17.2561 44.4723 18.5298L44.4756 34.151Z" fill="#20446C"/>
<path d="M45.7304 27.0031H24.1596C23.0981 27.0031 22.2377 27.8833 22.2377 28.969V41.7155C22.2377 42.8013 23.0981 43.6815 24.1596 43.6815H45.7304C46.7919 43.6815 47.6523 42.8013 47.6523 41.7155V28.969C47.6523 27.8833 46.7919 27.0031 45.7304 27.0031Z" fill="#20446C"/>
<path d="M37.3277 33.2887C37.331 32.8599 37.2099 32.4388 36.9779 32.0729C36.7459 31.7071 36.4123 31.4112 36.0149 31.2186C35.6176 31.0261 35.1722 30.9446 34.7293 30.9835C34.2865 31.0223 33.8637 31.1799 33.5088 31.4384C33.154 31.6969 32.8813 32.046 32.7215 32.4462C32.5618 32.8464 32.5214 33.2817 32.6049 33.7029C32.6884 34.124 32.8925 34.5143 33.1941 34.8294C33.4957 35.1446 33.8827 35.372 34.3114 35.4861V38.9161H35.612V35.4861C36.1065 35.3489 36.5413 35.0603 36.8508 34.6639C37.1603 34.2676 37.3277 33.7849 37.3277 33.2887Z" fill="white"/>
<path d="M23.1111 42.0932C23.0664 42.0932 23.0317 39.4256 23.0317 36.1382C23.0317 32.8508 23.0664 30.18 23.1111 30.18C23.1558 30.18 23.1905 32.8443 23.1905 36.1382C23.1905 39.4321 23.1533 42.0932 23.1111 42.0932Z" fill="#FAFAFA"/>
<path d="M33.0096 35.7395C33.0096 35.7395 32.9216 35.7057 32.7868 35.5941C32.6008 35.4324 32.4376 35.2385 32.303 35.0193C32.0681 34.6617 31.9046 34.2487 31.8243 33.8098C31.7441 33.3708 31.7489 32.9169 31.8386 32.4803C31.9282 32.0438 32.1005 31.6356 32.343 31.2848C32.5855 30.934 32.8922 30.6494 33.2412 30.4514C33.4462 30.327 33.6669 30.2403 33.8951 30.1944C33.9793 30.1753 34.0659 30.1753 34.1502 30.1944C33.8588 30.3048 33.5755 30.4416 33.3028 30.6035C32.9844 30.8078 32.7065 31.0866 32.4871 31.422C32.2677 31.7575 32.1116 32.1421 32.0287 32.5513C31.9459 32.9605 31.9382 33.3851 32.0061 33.7979C32.0741 34.2107 32.2161 34.6026 32.4232 34.9483C32.6 35.2297 32.7961 35.4943 33.0096 35.7395Z" fill="#FAFAFA"/>
<path d="M58.3194 56.2157L58.5473 55.9119L58.6734 55.7458C58.7181 55.6809 58.7547 55.608 58.8036 55.527C58.9154 55.3454 59.0107 55.1543 59.0884 54.9558C59.1331 54.8423 59.186 54.7248 59.2348 54.5992C59.2837 54.4737 59.3081 54.3278 59.3488 54.1941C59.3913 54.044 59.4225 53.891 59.4423 53.7363C59.4745 53.5689 59.4975 53.3998 59.5115 53.2299C59.5799 52.4183 59.543 51.6013 59.4017 50.7991C58.9793 48.5945 58.2206 46.4672 57.1517 44.4912C55.7705 41.8578 54.1542 39.3535 52.3223 37.0085C50.1185 34.1531 47.7147 31.4563 45.1291 28.9383C42.1685 26.039 39.0047 23.353 35.6616 20.9005C33.8958 19.6081 32.0324 18.3522 30.0713 17.1733C28.0745 15.9601 26.0006 14.8775 23.8627 13.9322C21.6568 12.9286 19.3331 12.2045 16.9461 11.777C15.7322 11.5597 14.4923 11.5256 13.2682 11.6757C12.6547 11.7657 12.0565 11.9388 11.4902 12.1902C10.9268 12.4636 10.4192 12.8386 9.99297 13.2962C9.58851 13.7744 9.27797 14.3242 9.07754 14.9167C8.89215 15.5064 8.78679 16.1182 8.76426 16.7357C8.74783 17.9697 8.9193 19.1991 9.27283 20.3819C9.97332 22.692 10.9601 24.9062 12.2103 26.9734C13.3982 28.9816 14.7151 30.9114 16.1528 32.7506C17.5524 34.5574 19.0008 36.259 20.5061 37.8552C23.3355 40.8789 26.3755 43.7002 29.6035 46.2981C32.4051 48.5737 35.3649 50.6491 38.4607 52.5088C41.0088 54.054 43.6913 55.3679 46.4758 56.4345C48.5676 57.2674 50.7754 57.7756 53.0221 57.9416C53.8396 57.9892 54.6599 57.9334 55.4633 57.7755C55.6423 57.7512 55.801 57.6863 55.9637 57.6499C56.1156 57.6128 56.264 57.5626 56.4072 57.5L56.814 57.342C56.9361 57.2812 57.05 57.2164 57.1558 57.1597C57.3439 57.0581 57.5235 56.9416 57.6929 56.8113C57.7661 56.7545 57.8393 56.71 57.8963 56.6573C57.9532 56.6046 58.0021 56.556 58.0509 56.5155L58.3235 56.2562C58.3235 56.2562 58.238 56.3494 58.059 56.5236L57.9085 56.6735C57.8515 56.7221 57.7783 56.7707 57.7051 56.8275C57.5392 56.963 57.3608 57.0824 57.1721 57.184C57.0622 57.2447 56.9524 57.3096 56.8303 57.3703L56.4235 57.5364C56.2766 57.5967 56.1257 57.6468 55.9718 57.6863C55.8091 57.7391 55.6433 57.7824 55.4755 57.816C54.673 57.9807 53.8525 58.0419 53.0343 57.9983C50.7791 57.8413 48.5616 57.3398 46.4595 56.5115C43.6664 55.4501 40.9755 54.1389 38.42 52.5938C35.3159 50.738 32.3479 48.6653 29.5384 46.3913C26.3027 43.7949 23.2559 40.9736 20.4207 37.9484C18.9275 36.3279 17.4588 34.6466 16.0551 32.8356C14.6134 30.9925 13.2924 29.0587 12.1005 27.0463C10.8417 24.97 9.84937 22.7447 9.1467 20.4224C8.78824 19.2281 8.61536 17.9862 8.63407 16.7398C8.65462 16.1085 8.76138 15.4829 8.95141 14.8803C9.16037 14.2761 9.482 13.7167 9.89939 13.2314C10.3303 12.7552 10.848 12.3648 11.4251 12.0808C12.006 11.824 12.6191 11.6468 13.2478 11.5541C14.4876 11.3964 15.7443 11.4278 16.9746 11.6473C19.3715 12.0778 21.7048 12.806 23.9197 13.8148C26.0618 14.7593 28.1399 15.8419 30.1405 17.0558C32.1097 18.2388 33.9731 19.4866 35.7389 20.7911C39.0797 23.2522 42.242 25.9449 45.2024 28.8491C47.7918 31.3775 50.1982 34.0851 52.4037 36.9518C54.2353 39.3039 55.8489 41.8166 57.225 44.4588C58.2913 46.443 59.0446 48.5787 59.4586 50.791C59.595 51.602 59.6278 52.4269 59.5563 53.2461C59.5563 53.4244 59.5034 53.5905 59.483 53.7525C59.457 53.9092 59.4189 54.0636 59.3691 54.2144L59.2511 54.6195C59.2064 54.7491 59.1494 54.8666 59.1047 54.9801C59.0224 55.1787 58.923 55.3698 58.8076 55.5513C58.7629 55.6283 58.7222 55.7053 58.6774 55.7701L58.5473 55.9321C58.4049 56.1185 58.3194 56.2157 58.3194 56.2157Z" fill="#8E9398"/>
<path d="M67.2578 34.7317C67.2578 34.7317 67.2578 34.6021 67.2252 34.3549C67.2252 34.2942 67.2252 34.2253 67.2252 34.1483C67.2252 34.0713 67.1927 33.9863 67.1764 33.8971C67.138 33.6872 67.0808 33.4811 67.0055 33.2813C66.9649 33.1679 66.9282 33.0463 66.8753 32.9208L66.6841 32.5156C66.6163 32.3746 66.5374 32.2392 66.4481 32.1105C66.3546 31.9768 66.2773 31.8229 66.1633 31.7054C65.669 31.0534 65.0934 30.4667 64.4505 29.9593C62.6619 28.5935 60.6737 27.5086 58.5551 26.7425C55.7644 25.694 52.8844 24.898 49.9501 24.3644C46.3968 23.6993 42.8007 23.2851 39.1888 23.1247C35.043 22.9223 30.8881 23.013 26.7552 23.3961C24.5745 23.6028 22.349 23.9026 20.095 24.3198C17.7873 24.7371 15.5095 25.3042 13.276 26.0173C10.9619 26.7295 8.74634 27.7271 6.6809 28.9869C5.62947 29.6334 4.68173 30.4337 3.86952 31.361C3.47234 31.8359 3.14117 32.3619 2.88493 32.9248C2.64524 33.4968 2.51419 34.1081 2.49841 34.7276C2.51474 35.3467 2.64434 35.9577 2.88086 36.5305C3.1378 37.093 3.46891 37.6189 3.86545 38.0943C4.67741 39.023 5.62515 39.8247 6.67683 40.4724C8.7433 41.733 10.9603 42.7306 13.276 43.442C15.504 44.1549 17.7764 44.722 20.0787 45.1395C22.3327 45.5446 24.5541 45.8606 26.7389 46.0672C30.872 46.447 35.0268 46.5364 39.1725 46.3346C42.7837 46.1804 46.3796 45.7743 49.9338 45.1192C52.8745 44.5792 55.7601 43.7751 58.5551 42.7168C60.6737 41.9507 62.6619 40.8659 64.4505 39.5001C65.0943 38.9937 65.67 38.4068 66.1633 37.754C66.2773 37.6203 66.3546 37.4663 66.4481 37.3488C66.5372 37.2201 66.6161 37.0846 66.6841 36.9437C66.7492 36.81 66.8143 36.6844 66.8753 36.5629C66.9364 36.4413 66.9649 36.3117 67.0055 36.1983C67.0818 35.9988 67.139 35.7926 67.1764 35.5825C67.1764 35.4933 67.213 35.4123 67.2252 35.3353C67.2375 35.2584 67.2252 35.1895 67.2252 35.1247C67.2456 34.8775 67.2578 34.7519 67.2578 34.7519C67.2578 34.7519 67.2578 34.8775 67.2578 35.1287C67.2578 35.1881 67.2578 35.257 67.2578 35.3353C67.2578 35.4123 67.2253 35.4974 67.209 35.5865C67.1762 35.7995 67.1217 36.0085 67.0462 36.2104C67.0055 36.3239 66.9689 36.4494 66.916 36.575C66.8631 36.7006 66.794 36.8262 66.7289 36.9802C66.6614 37.1206 66.5839 37.256 66.497 37.3853C66.4034 37.519 66.3261 37.677 66.2122 37.8107C65.7197 38.4702 65.144 39.0639 64.4993 39.5771C62.7106 40.9534 60.7194 42.0466 58.5958 42.8181C55.804 43.8776 52.921 44.6818 49.9827 45.2205C46.4244 45.893 42.8229 46.3141 39.205 46.4805C35.0541 46.6871 30.8938 46.6004 26.7552 46.2212C24.5704 46.0186 22.3408 45.7188 20.0787 45.3015C17.7708 44.8836 15.4929 44.3152 13.2598 43.6C10.932 42.886 8.70389 41.8829 6.62801 40.6142C5.56131 39.9625 4.60089 39.1524 3.78001 38.2118C3.37279 37.7195 3.03471 37.1743 2.77507 36.5912C2.52423 36.0021 2.38624 35.3714 2.36822 34.7317C2.38784 34.0922 2.52577 33.4618 2.77507 32.8721C3.03685 32.2968 3.37632 31.7598 3.78408 31.2759C4.60488 30.3341 5.56528 29.5226 6.63208 28.8695C8.69838 27.6045 10.9153 26.6014 13.2313 25.8836C15.4662 25.1711 17.7454 24.6041 20.0543 24.1861C22.3123 23.781 24.5297 23.4691 26.7267 23.2625C30.8656 22.8865 35.0261 22.8053 39.1765 23.0194C42.793 23.1843 46.3932 23.604 49.9501 24.2753C52.8854 24.8102 55.7656 25.6103 58.5551 26.6655C60.6773 27.4374 62.6671 28.5306 64.4546 29.9066C65.1005 30.4197 65.6775 31.0133 66.1715 31.673C66.2736 31.8104 66.3673 31.9538 66.4522 32.1024C66.5413 32.2312 66.6202 32.3666 66.6882 32.5075C66.7533 32.6412 66.8184 32.7709 66.8753 32.9127C66.9323 33.0545 66.9649 33.1638 67.0055 33.2813C67.079 33.4824 67.1335 33.69 67.1683 33.9012C67.1683 33.9944 67.2049 34.0754 67.2171 34.1524C67.2293 34.2293 67.2171 34.2982 67.2171 34.363C67.2537 34.602 67.2578 34.7317 67.2578 34.7317Z" fill="#8E9398"/>
<path d="M55.4186 7.98533C55.4186 7.98533 55.3088 7.92051 55.0972 7.78277L54.9223 7.66933C54.8572 7.62882 54.7758 7.59641 54.6944 7.55589C54.5042 7.45618 54.3054 7.37348 54.1004 7.30876C53.9865 7.2723 53.8644 7.22774 53.7342 7.19128L53.3274 7.1062C53.1748 7.07298 53.0196 7.05265 52.8636 7.04543C52.6936 7.02277 52.5224 7.01059 52.3509 7.00897C51.5286 6.99783 50.7082 7.09178 49.9098 7.28851C47.7296 7.8578 45.6506 8.75831 43.7459 9.95832C41.2023 11.5105 38.8056 13.2896 36.5852 15.2736C33.8805 17.658 31.349 20.2303 29.0096 22.9711C26.3044 26.1111 23.8271 29.4389 21.5966 32.9292C20.4208 34.7726 19.2938 36.7091 18.2482 38.7388C17.1696 40.8064 16.2277 42.9419 15.4287 45.1318C14.5747 47.3899 14.0088 49.746 13.7443 52.1446C13.6093 53.3678 13.6642 54.6044 13.9071 55.811C14.0384 56.4137 14.252 56.9958 14.5417 57.5409C14.8361 58.0864 15.2413 58.5648 15.7317 58.9457C16.2221 59.3266 16.7867 59.6015 17.3897 59.7529C17.9944 59.8964 18.6157 59.9578 19.2369 59.9352C20.47 59.8682 21.6856 59.6141 22.8416 59.1817C25.1143 58.3288 27.2711 57.1964 29.2618 55.811C31.191 54.4926 33.0324 53.0514 34.7747 51.4963C36.4917 49.9812 38.0906 48.4093 39.5919 46.8211C42.4257 43.8016 45.0415 40.5863 47.4198 37.1993C49.506 34.2599 51.3809 31.1773 53.0304 27.9745C54.4028 25.3368 55.5343 22.5816 56.4114 19.7422C57.1032 17.6069 57.46 15.3782 57.4692 13.1345C57.464 12.3133 57.3518 11.4963 57.1356 10.7038C57.0911 10.5386 57.0368 10.3763 56.9728 10.2176C56.9251 10.0691 56.8666 9.92423 56.7979 9.78411C56.7287 9.65042 56.6677 9.52078 56.6067 9.37898C56.5456 9.23719 56.4683 9.15616 56.4032 9.05488C56.2836 8.87267 56.1474 8.7018 55.9964 8.54441C55.9353 8.47554 55.8824 8.40667 55.8296 8.34995L55.6749 8.2122C55.4878 8.04205 55.3983 7.95292 55.3983 7.95292L55.6831 8.20005L55.8418 8.33779C55.8987 8.39451 55.9516 8.45933 56.0126 8.52821C56.1637 8.68561 56.2999 8.85648 56.4195 9.03867C56.4846 9.13995 56.5578 9.24529 56.627 9.36278L56.8223 9.76791C56.8941 9.90854 56.954 10.0549 57.0013 10.2054C57.0672 10.3638 57.123 10.5262 57.1681 10.6916C57.3919 11.4829 57.5096 12.3003 57.518 13.1224C57.5242 15.3809 57.1769 17.6266 56.4887 19.7787C55.6209 22.6261 54.4933 25.3884 53.1199 28.0312C51.4753 31.2428 49.6031 34.3336 47.5175 37.2803C45.1393 40.6749 42.522 43.897 39.6855 46.9224C38.1842 48.5186 36.5812 50.0905 34.8642 51.6098C33.1174 53.1712 31.2704 54.6179 29.3351 55.9406C27.3421 57.3348 25.181 58.4741 22.9027 59.3316C21.7276 59.7677 20.4931 60.0245 19.2409 60.0932C18.6061 60.1162 17.9711 60.0535 17.3531 59.9069C16.7291 59.7522 16.1443 59.4694 15.6364 59.0766C15.1284 58.6838 14.7085 58.1897 14.4034 57.626C14.1071 57.0664 13.8881 56.4695 13.7524 55.8515C13.5105 54.6312 13.4542 53.3815 13.5856 52.1446C13.8528 49.7334 14.4227 47.3651 15.2822 45.0953C16.0899 42.9005 17.0413 40.7609 18.1302 38.6902C19.1799 36.6645 20.311 34.7158 21.4868 32.8725C23.7181 29.3791 26.1967 26.0486 28.9038 22.9063C31.2513 20.1648 33.791 17.5925 36.5039 15.2088C38.733 13.2254 41.1393 11.449 43.693 9.9016C45.6047 8.69276 47.6939 7.78792 49.8854 7.21963C50.6842 7.02616 51.5045 6.93495 52.3265 6.9482C52.5055 6.9482 52.6764 6.97656 52.8432 6.98871C53.0009 6.99856 53.1574 7.0216 53.3111 7.05758L53.718 7.14671C53.8482 7.18317 53.9702 7.22774 54.0882 7.26825C54.2927 7.33243 54.4903 7.41656 54.6781 7.51943C54.7636 7.564 54.8409 7.59641 54.906 7.63692L55.0809 7.75441L55.4186 7.98533Z" fill="#8E9398"/>
<path d="M2.0709 48.0527C2.24518 48.2213 2.36499 48.4377 2.415 48.6745C2.46501 48.9112 2.44294 49.1574 2.35162 49.3815C2.2603 49.6057 2.10389 49.7976 1.9024 49.9327C1.7009 50.0679 1.4635 50.1401 1.22057 50.1401C0.97764 50.1401 0.740236 50.0679 0.538744 49.9327C0.337251 49.7976 0.180836 49.6057 0.0895179 49.3815C-0.00179994 49.1574 -0.0238662 48.9112 0.0261434 48.6745C0.076153 48.4377 0.195963 48.2213 0.37024 48.0527C0.598027 47.8325 0.90305 47.7093 1.22057 47.7093C1.53809 47.7093 1.84311 47.8325 2.0709 48.0527Z" fill="#F0792E"/>
<path d="M70.0002 10.9059C70.0002 11.1463 69.9286 11.3813 69.7945 11.5812C69.6604 11.781 69.4698 11.9368 69.2467 12.0288C69.0237 12.1208 68.7783 12.1449 68.5415 12.098C68.3048 12.0511 68.0873 11.9353 67.9166 11.7653C67.7459 11.5954 67.6296 11.3788 67.5825 11.143C67.5354 10.9073 67.5596 10.6629 67.652 10.4408C67.7444 10.2187 67.9008 10.0289 68.1015 9.89536C68.3022 9.76181 68.5382 9.69053 68.7796 9.69053C69.1034 9.69053 69.4138 9.81858 69.6427 10.0465C69.8716 10.2744 70.0002 10.5836 70.0002 10.9059Z" fill="#F0792E"/>
<path d="M9.67535 51.9949C9.67535 52.055 9.65745 52.1137 9.62393 52.1637C9.5904 52.2136 9.54274 52.2526 9.48698 52.2756C9.43122 52.2986 9.36987 52.3046 9.31068 52.2929C9.25149 52.2812 9.19712 52.2522 9.15444 52.2097C9.11177 52.1672 9.0827 52.1131 9.07093 52.0541C9.05916 51.9952 9.0652 51.9341 9.08829 51.8786C9.11139 51.8231 9.1505 51.7756 9.20068 51.7422C9.25086 51.7088 9.30986 51.691 9.37021 51.691C9.45114 51.691 9.52875 51.723 9.58598 51.78C9.6432 51.837 9.67535 51.9143 9.67535 51.9949Z" fill="#F0792E"/>
<path d="M16.2051 18.4011C16.2051 18.4612 16.1872 18.5199 16.1537 18.5699C16.1202 18.6198 16.0725 18.6588 16.0168 18.6818C15.961 18.7048 15.8997 18.7108 15.8405 18.6991C15.7813 18.6873 15.7269 18.6584 15.6842 18.6159C15.6416 18.5734 15.6125 18.5193 15.6007 18.4603C15.589 18.4014 15.595 18.3403 15.6181 18.2848C15.6412 18.2293 15.6803 18.1818 15.7305 18.1484C15.7807 18.115 15.8397 18.0972 15.9 18.0972C15.9809 18.0972 16.0585 18.1292 16.1158 18.1862C16.173 18.2432 16.2051 18.3205 16.2051 18.4011Z" fill="#F0792E"/>
<path d="M63.9498 34.7314C63.9498 34.7915 63.9319 34.8503 63.8984 34.9002C63.8648 34.9502 63.8172 34.9892 63.7614 35.0122C63.7057 35.0352 63.6443 35.0412 63.5851 35.0295C63.5259 35.0177 63.4716 34.9888 63.4289 34.9463C63.3862 34.9038 63.3571 34.8497 63.3454 34.7907C63.3336 34.7318 63.3396 34.6707 63.3627 34.6152C63.3858 34.5596 63.4249 34.5122 63.4751 34.4788C63.5253 34.4454 63.5843 34.4276 63.6446 34.4276C63.7256 34.4276 63.8032 34.4596 63.8604 34.5166C63.9176 34.5736 63.9498 34.6509 63.9498 34.7314Z" fill="#F0792E"/>
<path d="M68.2018 20.528C68.2018 20.5881 68.1839 20.6469 68.1503 20.6968C68.1168 20.7468 68.0692 20.7858 68.0134 20.8088C67.9576 20.8317 67.8963 20.8378 67.8371 20.826C67.7779 20.8143 67.7235 20.7854 67.6809 20.7429C67.6382 20.7004 67.6091 20.6463 67.5974 20.5873C67.5856 20.5284 67.5916 20.4673 67.6147 20.4118C67.6378 20.3562 67.6769 20.3088 67.7271 20.2754C67.7773 20.242 67.8363 20.2242 67.8966 20.2242C67.9776 20.2242 68.0552 20.2562 68.1124 20.3132C68.1696 20.3702 68.2018 20.4474 68.2018 20.528Z" fill="#F0792E"/>
</svg>
