<svg width="20" height="20" viewBox="0 0 20 20" fill="none" xmlns="http://www.w3.org/2000/svg">
<path d="M18.167 15.333L16.8612 13.5922C16.1964 12.7017 15.8362 11.6209 15.8337 10.5097V7.49967C15.832 6.09814 15.3258 4.74404 14.4077 3.68511C13.4895 2.62619 12.2208 1.93323 10.8337 1.73301V1.66634C10.8337 1.44533 10.7459 1.23337 10.5896 1.07709C10.4333 0.920805 10.2213 0.833008 10.0003 0.833008C9.77931 0.833008 9.56735 0.920805 9.41107 1.07709C9.25479 1.23337 9.16699 1.44533 9.16699 1.66634V1.73301C7.77983 1.93323 6.51112 2.62619 5.59298 3.68511C4.67483 4.74404 4.16864 6.09814 4.16699 7.49967V10.5097C4.16461 11.621 3.80464 12.7021 3.14033 13.593L1.83366 15.333C1.7408 15.4568 1.68426 15.604 1.67036 15.7582C1.65646 15.9123 1.68576 16.0673 1.75497 16.2057C1.82418 16.3441 1.93057 16.4605 2.06222 16.5419C2.19386 16.6232 2.34557 16.6663 2.50033 16.6663H6.78533C6.96722 17.381 7.38204 18.0147 7.96426 18.4673C8.54647 18.9199 9.26289 19.1656 10.0003 19.1656C10.7378 19.1656 11.4542 18.9199 12.0364 18.4673C12.6186 18.0147 13.0334 17.381 13.2153 16.6663H17.5003C17.6551 16.6663 17.8068 16.6232 17.9384 16.5419C18.0701 16.4605 18.1765 16.3441 18.2457 16.2057C18.3149 16.0673 18.3442 15.9123 18.3303 15.7582C18.3164 15.604 18.2598 15.4568 18.167 15.333ZM10.0003 17.4997C9.70907 17.4988 9.42316 17.4213 9.17129 17.2751C8.91942 17.1288 8.71044 16.9189 8.56533 16.6663H11.4353C11.2902 16.9189 11.0812 17.1288 10.8294 17.2751C10.5775 17.4213 10.2916 17.4988 10.0003 17.4997ZM4.16699 14.9997L4.47366 14.5913C5.35337 13.412 5.8302 11.9809 5.83366 10.5097V7.49967C5.83366 6.39461 6.27265 5.3348 7.05405 4.5534C7.83545 3.77199 8.89526 3.33301 10.0003 3.33301C11.1054 3.33301 12.1652 3.77199 12.9466 4.5534C13.728 5.3348 14.167 6.39461 14.167 7.49967V10.5097C14.17 11.9817 14.6472 13.4135 15.5278 14.593L15.8337 14.9997H4.16699Z" fill="white"/>
</svg>
