<svg width="66" height="135" viewBox="0 0 66 135" fill="none" xmlns="http://www.w3.org/2000/svg">
<path d="M55.6225 135L9.94427 134.974C8.63788 134.973 7.34437 134.714 6.13761 134.212C4.93085 133.709 3.83446 132.973 2.91105 132.045C1.98763 131.117 1.25529 130.016 0.755808 128.804C0.256329 127.591 -0.000493294 126.292 7.1132e-07 124.981L0.0225662 9.993C0.0225662 8.68039 0.280103 7.38063 0.780463 6.16797C1.28082 4.95532 2.0142 3.85353 2.93871 2.92555C3.86322 1.99756 4.96074 1.26156 6.16859 0.759588C7.37643 0.257615 8.67093 -0.000495362 9.97813 7.13718e-07L55.6564 0.0264371C58.2945 0.0284394 60.8238 1.08215 62.6885 2.95599C64.5532 4.82982 65.6007 7.37044 65.6007 10.0194L65.5781 125.007C65.5786 126.32 65.3214 127.62 64.8212 128.833C64.321 130.045 63.5877 131.147 62.6631 132.076C61.7385 133.004 60.6407 133.74 59.4327 134.241C58.2246 134.743 56.9299 135.001 55.6225 135Z" fill="#20446C"/>
<path d="M55.6817 4.32756H46.8319C46.5425 4.33392 46.2571 4.39767 45.9923 4.51515C45.7275 4.63263 45.4885 4.80152 45.2889 5.01211C45.0893 5.2227 44.9331 5.47083 44.8294 5.74223C44.7256 6.01363 44.6764 6.30295 44.6844 6.59354V8.20617C44.6919 8.49664 44.6422 8.78574 44.5383 9.05692C44.4344 9.3281 44.2782 9.57603 44.0787 9.78652C43.8792 9.997 43.6403 10.1659 43.3758 10.2836C43.1112 10.4012 42.8261 10.4653 42.5368 10.4722H25.2734C24.984 10.4653 24.6987 10.4012 24.4339 10.2836C24.1691 10.166 23.93 9.99718 23.7302 9.78675C23.5304 9.57631 23.3739 9.32841 23.2695 9.05721C23.1652 8.78601 23.1151 8.49682 23.1221 8.20617V6.56711C23.1296 6.27664 23.08 5.98754 22.976 5.71636C22.8721 5.44518 22.7159 5.19725 22.5164 4.98676C22.3169 4.77628 22.0781 4.60737 21.8135 4.48972C21.5489 4.37207 21.2638 4.30798 20.9745 4.30112H10.105C9.18963 4.30013 8.28306 4.48031 7.43709 4.83136C6.59113 5.18242 5.82237 5.69746 5.17476 6.34704C4.52716 6.99663 4.0134 7.76802 3.66288 8.6171C3.31236 9.46619 3.13195 10.3763 3.13195 11.2955L3.10938 123.534C3.11138 125.388 3.846 127.165 5.15197 128.476C6.45793 129.786 8.22848 130.523 10.0749 130.524L55.6592 130.551C56.5745 130.552 57.4811 130.371 58.3271 130.02C59.173 129.669 59.9418 129.154 60.5894 128.505C61.237 127.855 61.7508 127.084 62.1013 126.235C62.4518 125.386 62.6322 124.475 62.6322 123.556L62.6548 11.3181C62.6528 9.46276 61.9171 7.68413 60.6096 6.37325C59.302 5.06238 57.5295 4.32655 55.6817 4.32756Z" fill="#FAFAFA"/>
</svg>
