<svg width="33" height="33" viewBox="0 0 33 33" fill="none" xmlns="http://www.w3.org/2000/svg">
<path d="M16.4999 10.607C16.9688 10.607 17.4184 10.4207 17.75 10.0892C18.0815 9.75766 18.2677 9.308 18.2677 8.83914C18.2677 8.37027 18.0815 7.92061 17.75 7.58907C17.4184 7.25753 16.9688 7.07128 16.4999 7.07128C16.031 7.07128 15.5814 7.25753 15.2498 7.58907C14.9183 7.92061 14.732 8.37027 14.732 8.83914C14.732 9.308 14.9183 9.75766 15.2498 10.0892C15.5814 10.4207 16.031 10.607 16.4999 10.607ZM17.5488 2.70467C17.245 2.4807 16.8774 2.35986 16.4999 2.35986C16.1224 2.35986 15.7548 2.4807 15.451 2.70467L4.25454 10.9606C2.88268 11.973 3.59807 14.151 5.30346 14.151H5.89275V22.6862C5.19453 22.9771 4.59807 23.4682 4.17859 24.0977C3.7591 24.7271 3.53537 25.4667 3.53561 26.2231V27.9909C3.53561 28.4789 3.93161 28.8749 4.41954 28.8749H28.5802C28.8147 28.8749 29.0395 28.7817 29.2053 28.616C29.371 28.4502 29.4642 28.2254 29.4642 27.9909V26.2231C29.4642 25.4669 29.2403 24.7276 28.8209 24.0984C28.4014 23.4692 27.8051 22.9782 27.107 22.6874V14.151H27.6951C29.4017 14.151 30.1171 11.973 28.7441 10.9606L17.5488 2.70467ZM7.66061 22.3927V14.151H10.607V22.3927H7.66061ZM25.3392 14.151V22.3927H22.3927V14.151H25.3392ZM20.6249 14.151V22.3927H17.3838V14.151H20.6249ZM15.616 14.151V22.3927H12.3749V14.151H15.616ZM5.30346 12.3831L16.4999 4.12721L27.6951 12.3831H5.30346ZM5.30346 26.2231C5.30346 25.0846 6.22746 24.1606 7.36596 24.1606H25.6338C26.7723 24.1606 27.6963 25.0846 27.6963 26.2231V27.107H5.30346V26.2231Z" fill="#F0792E"/>
</svg>
