<svg width="16" height="10" viewBox="0 0 16 10" fill="none" xmlns="http://www.w3.org/2000/svg">
<path d="M13.5888 0H1.45885C0.653479 0 0 0.653479 0 1.45885V8.54115C0 9.34652 0.653479 10 1.45885 10H13.5924C14.3977 10 15.0512 9.34652 15.0512 8.54115V1.45885C15.0477 0.653479 14.3942 0 13.5888 0ZM14.3412 8.53762C14.3412 8.9509 14.0057 9.29 13.5888 9.29H1.45885C1.04557 9.29 0.706464 8.95443 0.706464 8.53762V1.45885C0.706464 1.04557 1.04203 0.706464 1.45885 0.706464H13.5924C14.0057 0.706464 14.3448 1.04203 14.3448 1.45885V8.53762H14.3412Z" fill="white"/>
<path d="M13.2321 5.58102H9.08865C8.89437 5.58102 8.73542 5.73997 8.73542 5.93425C8.73542 6.12853 8.89437 6.28748 9.08865 6.28748H13.2321C13.4263 6.28748 13.5853 6.12853 13.5853 5.93425C13.5853 5.73997 13.4263 5.58102 13.2321 5.58102ZM9.08865 4.45068H11.3917C11.586 4.45068 11.745 4.29172 11.745 4.09745C11.745 3.90317 11.586 3.74421 11.3917 3.74421H9.08865C8.89437 3.74421 8.73542 3.90317 8.73542 4.09745C8.73542 4.29172 8.89437 4.45068 9.08865 4.45068ZM7.06816 1.76611H2.53973C1.93923 1.76611 1.45177 2.25357 1.44824 2.85407V7.20942C1.44824 7.80991 1.9357 8.29737 2.5362 8.30091H7.06816C7.66866 8.30091 8.15612 7.81345 8.15965 7.21295V2.8576C8.15965 2.25357 7.67219 1.76611 7.06816 1.76611C7.0717 1.76611 7.0717 1.76611 7.06816 1.76611ZM3.31684 7.55912C3.39102 6.95862 3.9244 6.4641 4.57081 6.4641H5.11832C5.76474 6.4641 6.29812 6.95862 6.3723 7.55912H3.31684ZM7.45319 7.18823C7.45672 7.38957 7.29776 7.55559 7.09642 7.55912C7.08936 7.55912 7.08583 7.55912 7.07876 7.55912C7.00105 6.57007 6.15329 5.75764 5.11832 5.75764H4.57081C3.53584 5.75764 2.68455 6.57007 2.61038 7.55912H2.55386C2.34192 7.55912 2.15471 7.40016 2.15471 7.18823V2.84347C2.15471 2.63153 2.34192 2.47258 2.55386 2.47258H7.08229C7.28364 2.46905 7.44966 2.628 7.45319 2.82581C7.45319 2.83287 7.45319 2.83641 7.45319 2.84347V7.18823Z" fill="white"/>
<path d="M4.85001 2.85059C4.11882 2.85059 3.52539 3.44402 3.52539 4.17521C3.52539 4.9064 4.11882 5.49983 4.85001 5.49983C5.5812 5.49983 6.17463 4.9064 6.17463 4.17521C6.17463 3.82551 6.03334 3.4864 5.78608 3.23914C5.53881 2.98835 5.19971 2.85059 4.85001 2.85059ZM5.28449 4.61321C5.04429 4.85341 4.6522 4.85341 4.412 4.60968C4.17181 4.36948 4.17181 3.9774 4.41554 3.7372C4.65573 3.497 5.04782 3.497 5.28802 3.74073C5.40459 3.8573 5.46817 4.01272 5.46817 4.17874C5.46817 4.34123 5.40105 4.49665 5.28449 4.61321Z" fill="white"/>
</svg>
