<svg width="28" height="28" viewBox="0 0 28 28" fill="none" xmlns="http://www.w3.org/2000/svg">
<path d="M14.8789 15.6991C19.2072 15.6991 22.7284 12.1778 22.7284 7.84956C22.7284 3.52132 19.2072 0 14.8789 0C10.5506 0 7.0293 3.52132 7.0293 7.84956C7.0293 12.1778 10.5506 15.6991 14.8789 15.6991ZM14.8789 1.64065C18.3025 1.64065 21.0878 4.42597 21.0878 7.84956C21.0878 11.2732 18.3025 14.0585 14.8789 14.0585C11.4553 14.0585 8.67 11.2732 8.67 7.84956C8.67 4.42597 11.4553 1.64065 14.8789 1.64065Z" fill="#F0792E"/>
<path d="M19.8722 18.0079L18.7651 19.115C18.3656 18.2078 17.4579 17.573 16.4047 17.573H10.6622C8.42565 17.573 7.50065 19.3937 7.30323 20.2089H6.03392V19.2719C6.03392 18.8189 5.66663 18.4516 5.21359 18.4516H0.820323C0.367286 18.4516 0 18.8189 0 19.2719V27.1798C0 27.6328 0.367286 28.0001 0.820323 28.0001H5.21359C5.66663 28.0001 6.03392 27.6328 6.03392 27.1798V26.2428H17.3458C18.3659 26.2428 19.3252 25.8455 20.0471 25.1239L26.0028 19.1679C26.3231 18.8476 26.3229 18.3279 26.0028 18.0078C24.3126 16.3177 21.5625 16.3177 19.8722 18.0079ZM4.39332 26.3595H1.64065V20.0922H4.39327V26.3595H4.39332ZM18.8871 23.9636C18.4752 24.3754 17.9278 24.6021 17.3458 24.6021H6.03397V21.8495H8.02626C8.4793 21.8495 8.84659 21.4822 8.84659 21.0292C8.84659 20.0258 9.658 19.2135 10.6622 19.2135H16.4047C16.9214 19.2135 17.3417 19.6339 17.3417 20.1505C17.3417 20.9169 16.6347 21.0837 16.421 21.0874C16.4205 21.0874 16.42 21.0874 16.4198 21.0874C16.4148 21.0874 16.4097 21.0875 16.4047 21.0875H13.4048C12.9518 21.0875 12.5845 21.4548 12.5845 21.9078C12.5845 22.3608 12.9518 22.7281 13.4048 22.7281H16.405C17.0928 22.7281 17.7398 22.4602 18.2273 21.9733L21.0324 19.1679C21.8807 18.3196 23.1587 18.1563 24.1724 18.6781L18.8871 23.9636Z" fill="#F0792E"/>
<path d="M25.7889 5.06862L27.5463 4.18995C27.9515 3.98738 28.1157 3.49464 27.9131 3.0894C27.7105 2.68416 27.2179 2.51993 26.8126 2.7225L25.0552 3.60117C24.65 3.80374 24.4857 4.29648 24.6884 4.70172C24.8917 5.10849 25.3853 5.27031 25.7889 5.06862Z" fill="#F0792E"/>
<path d="M27.5463 11.5093L25.7889 10.6306C25.3839 10.4282 24.891 10.5923 24.6884 10.9975C24.4857 11.4028 24.65 11.8955 25.0552 12.0981L26.8126 12.9768C27.2173 13.179 27.7102 13.0156 27.9131 12.6098C28.1157 12.2046 27.9515 11.7119 27.5463 11.5093Z" fill="#F0792E"/>
<path d="M2.21145 4.18995L3.96881 5.06862C4.37246 5.27037 4.86597 5.10855 5.06935 4.70172C5.27197 4.29648 5.10774 3.80374 4.7025 3.60118L2.94515 2.7225C2.53986 2.51993 2.04723 2.68416 1.84461 3.0894C1.64199 3.49464 1.80621 3.98738 2.21145 4.18995Z" fill="#F0792E"/>
<path d="M2.94515 12.9768L4.7025 12.0981C5.10774 11.8955 5.27197 11.4028 5.06935 10.9975C4.86673 10.5923 4.37383 10.4282 3.96881 10.6306L2.21145 11.5093C1.80621 11.7119 1.64199 12.2046 1.84461 12.6099C2.0475 13.0156 2.54046 13.1791 2.94515 12.9768Z" fill="#F0792E"/>
<path d="M17.2266 5.75946C17.5263 5.75946 17.7693 5.55504 17.7693 5.30283C17.7693 5.05078 17.5263 4.84619 17.2266 4.84619H12.9287C12.6289 4.84619 12.386 5.05078 12.386 5.30283C12.386 5.55504 12.6289 5.75946 12.9287 5.75946H14.1605C14.6699 5.75875 15.1326 6.00883 15.3436 6.39875H12.934C12.6344 6.39875 12.3913 6.60334 12.3913 6.85538C12.3913 7.1076 12.6344 7.31202 12.934 7.31202H15.3436C15.1307 7.70087 14.669 7.95023 14.1605 7.9513H12.9287C12.7061 7.95148 12.506 8.06582 12.4235 8.23973C12.3411 8.41365 12.3928 8.61235 12.5541 8.74132L15.6257 11.1843C15.7272 11.2642 15.8612 11.3083 16.0001 11.3076C16.1493 11.3069 16.292 11.2558 16.3963 11.1661C16.495 11.0784 16.5482 10.9612 16.5442 10.8404C16.5402 10.7197 16.4791 10.6051 16.3746 10.5222L14.2906 8.86457C15.3478 8.8132 16.2394 8.18372 16.4832 7.31665H17.2266C17.5263 7.31665 17.7693 7.11224 17.7693 6.86002C17.7693 6.6078 17.5263 6.40339 17.2266 6.40339H16.4832C16.42 6.17596 16.3098 5.95942 16.1576 5.7641H17.2266V5.75946Z" fill="#F0792E"/>
</svg>
