<svg width="17" height="17" viewBox="0 0 17 17" fill="none" xmlns="http://www.w3.org/2000/svg">
<path d="M8.5 17C7.38376 17 6.27846 16.7801 5.24719 16.353C4.21592 15.9258 3.27889 15.2997 2.48959 14.5104C1.70029 13.7211 1.07419 12.7841 0.647024 11.7528C0.219859 10.7215 0 9.61624 0 8.5C0 7.38376 0.219859 6.27846 0.647024 5.24719C1.07419 4.21592 1.70029 3.27889 2.48959 2.48959C3.27889 1.70029 4.21592 1.07419 5.24719 0.647024C6.27846 0.219859 7.38376 -1.66332e-08 8.5 0C10.7543 3.35923e-08 12.9163 0.895533 14.5104 2.48959C16.1045 4.08365 17 6.24566 17 8.5C17 10.7543 16.1045 12.9163 14.5104 14.5104C12.9163 16.1045 10.7543 17 8.5 17Z" fill="#ECECEC"/>
</svg>
