<svg width="32" height="32" viewBox="0 0 32 32" fill="none" xmlns="http://www.w3.org/2000/svg">
<path d="M31.5 16C31.5 24.5604 24.5604 31.5 16 31.5C7.43958 31.5 0.5 24.5604 0.5 16C0.5 7.43959 7.43958 0.5 16 0.5C24.5604 0.5 31.5 7.43959 31.5 16Z" fill="white" fill-opacity="0.8" stroke="#F0792E"/>
<g clip-path="url(#clip0_834_55167)">
<path d="M18.2758 21.7094L18.0826 22.6088C17.5029 22.8694 17.0399 23.0677 16.6951 23.204C16.3499 23.3408 15.9488 23.4088 15.4919 23.4088C14.7901 23.4088 14.2443 23.213 13.855 22.8242C13.4657 22.4338 13.271 21.9392 13.271 21.3391C13.271 21.1068 13.2851 20.8678 13.3145 20.6244C13.3441 20.3806 13.3912 20.1061 13.4557 19.7993L14.1801 16.8796C14.2445 16.6 14.2993 16.3351 14.3432 16.0846C14.3877 15.8356 14.4091 15.6065 14.4091 15.4004C14.4091 15.0275 14.3413 14.7667 14.2064 14.62C14.0714 14.4738 13.8138 14.3996 13.4315 14.3996C13.2442 14.3996 13.0517 14.4337 12.8555 14.4998C12.6585 14.5661 12.49 14.6302 12.3486 14.6897L12.5423 13.7896C13.0169 13.5696 13.4705 13.3812 13.9044 13.2248C14.3384 13.068 14.7483 12.9895 15.1361 12.9895C15.8331 12.9895 16.3708 13.1813 16.7485 13.5649C17.1261 13.9488 17.3149 14.4464 17.3149 15.0597C17.3149 15.1865 17.3025 15.4101 17.2758 15.7296C17.2498 16.0498 17.2013 16.3433 17.1307 16.6101L16.4094 19.5182C16.3503 19.7518 16.2971 20.0188 16.2509 20.3192C16.2031 20.6177 16.1803 20.8458 16.1803 20.9988C16.1803 21.3849 16.2559 21.6486 16.4075 21.7887C16.5602 21.9289 16.8232 21.9986 17.1968 21.9986C17.3721 21.9986 17.5717 21.9632 17.7934 21.8936C18.0145 21.824 18.1758 21.7629 18.2758 21.7094ZM18.4587 9.50058C18.4587 10.0072 18.291 10.44 17.954 10.7958C17.6179 11.1528 17.2129 11.3315 16.7391 11.3315C16.2637 11.3315 15.8577 11.1528 15.5178 10.7958C15.1784 10.4398 15.0084 10.0072 15.0084 9.50058C15.0084 8.9949 15.1784 8.56148 15.5178 8.20117C15.8571 7.84142 16.2639 7.66162 16.7391 7.66162C17.2127 7.66162 17.6179 7.84185 17.954 8.20117C18.2913 8.56148 18.4587 8.99504 18.4587 9.50058Z" fill="#F0792E"/>
</g>
<defs>
<clipPath id="clip0_834_55167">
<rect width="13.8288" height="15.7472" fill="white" transform="translate(8.48926 7.66162)"/>
</clipPath>
</defs>
</svg>
