<svg width="88" height="80" viewBox="0 0 88 80" fill="none" xmlns="http://www.w3.org/2000/svg">
<path d="M29.4245 13.0847C29.7296 13.7998 29.8141 14.5908 29.6673 15.3578C29.5205 16.1248 29.149 16.8332 28.5999 17.3934C28.0508 17.9536 27.3487 18.3404 26.5825 18.5049C25.8164 18.6694 25.0205 18.6041 24.2956 18.3174C23.5708 18.0307 22.9496 17.5353 22.5106 16.8941C22.0716 16.2529 21.8346 15.4946 21.8296 14.7152C21.8245 13.9358 22.0517 13.1703 22.4822 12.5156C22.9128 11.8608 23.5275 11.3464 24.2485 11.0372C24.7264 10.8316 25.2394 10.7215 25.7582 10.7131C26.277 10.7048 26.7914 10.7983 27.2721 10.9885C27.7528 11.1786 28.1903 11.4616 28.5596 11.8213C28.9289 12.181 29.2228 12.6103 29.4245 13.0847Z" fill="#F9C0A8"/>
<path d="M28.5591 13.4573C28.7916 14.0023 28.8559 14.6051 28.744 15.1896C28.6321 15.7741 28.349 16.3139 27.9305 16.7408C27.512 17.1677 26.9769 17.4624 26.393 17.5877C25.8091 17.713 25.2026 17.6632 24.6502 17.4446C24.0979 17.226 23.6245 16.8485 23.2901 16.3598C22.9556 15.8711 22.7751 15.2932 22.7713 14.6992C22.7676 14.1052 22.9408 13.5219 23.269 13.023C23.5973 12.5241 24.0658 12.1321 24.6153 11.8967C24.9794 11.7401 25.3703 11.6562 25.7656 11.6499C26.161 11.6436 26.5529 11.7149 26.9192 11.8598C27.2854 12.0048 27.6188 12.2205 27.9002 12.4946C28.1815 12.7687 28.4055 13.0958 28.5591 13.4573Z" fill="#FCD3C3"/>
<path d="M25.7378 13.0081C25.8265 12.9202 25.829 12.7794 25.7435 12.6935C25.6581 12.6077 25.5169 12.6094 25.4283 12.6973L24.1578 13.9577C24.0692 14.0456 24.0668 14.1865 24.1522 14.2723C24.2377 14.3581 24.3788 14.3564 24.4674 14.2685L24.8315 13.9073C24.9818 13.7577 25.2034 13.7071 25.3979 13.7779L24.6856 14.4846C24.5971 14.5724 24.5945 14.7134 24.68 14.7992C24.7654 14.885 24.9066 14.8833 24.9951 14.7954L25.7074 14.0888C25.7763 14.2836 25.7243 14.5038 25.5744 14.6533L25.2102 15.0146C25.1445 15.0799 25.1241 15.1775 25.1587 15.2609C25.1932 15.3443 25.2759 15.3968 25.3673 15.3933L27.1032 15.3241C27.1603 15.3215 27.2149 15.2972 27.2557 15.2563C27.2995 15.2123 27.3244 15.1531 27.3248 15.0919C27.3243 15.0331 27.3003 14.9776 27.2582 14.9377C27.2161 14.8978 27.1592 14.8767 27.1002 14.8791L25.9224 14.926C26.2175 14.5985 26.2677 14.1228 26.0459 13.7562L26.2656 13.5382C26.3542 13.4502 26.3567 13.3094 26.2713 13.2236C26.1858 13.1377 26.0447 13.1394 25.9561 13.2273L25.7363 13.4453C25.6406 13.3864 25.5346 13.345 25.4234 13.3232L25.7394 13.0097L25.7378 13.0081Z" fill="#F38D5D"/>
<path d="M28.5221 13.3728C28.5048 13.3763 28.4429 13.2649 28.3082 13.0731C28.1205 12.8029 27.8915 12.5637 27.6293 12.3644C27.4489 12.2292 27.2542 12.1139 27.0485 12.0207C26.8119 11.9158 26.5625 11.8417 26.3064 11.8003C26.1688 11.7771 26.0295 11.7644 25.8898 11.7625C25.5942 11.7568 25.2991 11.7954 25.0142 11.8772C24.8648 11.9206 24.7188 11.975 24.5774 12.04C24.4365 12.1067 24.3006 12.1833 24.1705 12.2692C24.045 12.3538 23.9261 12.4478 23.8149 12.5504C23.7067 12.6484 23.6066 12.7549 23.5155 12.8688C23.4271 12.9785 23.3469 13.0944 23.2756 13.2157C23.1423 13.4386 23.0382 13.6774 22.9658 13.9263C22.9032 14.1438 22.865 14.3674 22.8519 14.5928C22.8344 14.9225 22.8682 15.2525 22.9522 15.5709C23.012 15.7979 23.0593 15.9212 23.0428 15.9286C23.0263 15.9359 22.9542 15.8236 22.8668 15.5983C22.745 15.2765 22.6846 14.9345 22.6886 14.5895C22.6948 14.0711 22.8348 13.5618 23.0952 13.1107C23.2487 12.8436 23.4407 12.6002 23.6652 12.3885C23.784 12.2767 23.9117 12.1745 24.0469 12.0831C24.1864 11.9893 24.3329 11.9062 24.4849 11.8346C24.6377 11.7642 24.7956 11.7056 24.9573 11.6595C25.1144 11.6139 25.2747 11.5811 25.4369 11.5613C25.5927 11.5428 25.7497 11.5365 25.9063 11.5427C26.0563 11.5474 26.2056 11.5637 26.353 11.5913C26.6239 11.643 26.8863 11.7308 27.1331 11.8525C27.3462 11.957 27.5459 12.0864 27.7281 12.2379C27.9937 12.4572 28.2156 12.7242 28.3826 13.0252C28.4993 13.2375 28.5349 13.3672 28.5221 13.3728Z" fill="#F38D5D"/>
<path d="M51.8244 60.6661C51.7504 61.2774 51.4951 61.8534 51.0907 62.3214C50.6862 62.7894 50.1509 63.1282 49.5524 63.295C48.9539 63.4618 48.3191 63.4491 47.7284 63.2585C47.1377 63.0679 46.6176 62.7079 46.2339 62.2242C45.8503 61.7405 45.6203 61.1547 45.5732 60.541C45.526 59.9273 45.6637 59.3133 45.9689 58.7766C46.2742 58.24 46.7331 57.8049 47.2878 57.5263C47.8424 57.2477 48.4678 57.1383 49.0848 57.2117C49.494 57.26 49.8895 57.3876 50.2487 57.5873C50.6079 57.787 50.9237 58.0549 51.1781 58.3757C51.4325 58.6965 51.6205 59.0639 51.7314 59.4569C51.8423 59.8499 51.8739 60.2608 51.8244 60.6661Z" fill="#F9C0A8"/>
<path d="M51.0812 60.5779C51.0248 61.0438 50.8302 61.4828 50.522 61.8394C50.2137 62.196 49.8058 62.4542 49.3496 62.5812C48.8935 62.7083 48.4098 62.6986 47.9596 62.5533C47.5095 62.408 47.1131 62.1336 46.8208 61.7649C46.5285 61.3963 46.3533 60.9498 46.3175 60.4821C46.2816 60.0145 46.3866 59.5465 46.6193 59.1376C46.8519 58.7287 47.2018 58.3972 47.6245 58.185C48.0472 57.9728 48.5238 57.8894 48.994 57.9455C49.3058 57.9823 49.6072 58.0796 49.8808 58.2318C50.1545 58.384 50.3951 58.5882 50.5889 58.8327C50.7828 59.0771 50.926 59.3571 51.0105 59.6566C51.0949 59.956 51.119 60.2691 51.0812 60.5779Z" fill="#FCD3C3"/>
<path d="M49.3257 59.1528C49.4213 59.1276 49.4788 59.032 49.4541 58.9392C49.4295 58.8465 49.3321 58.7917 49.2365 58.8169L47.8658 59.1784C47.7702 59.2036 47.7128 59.2992 47.7374 59.3919C47.762 59.4847 47.8595 59.5394 47.955 59.5142L48.3479 59.4106C48.5103 59.3675 48.6823 59.4205 48.7876 59.5462L48.0192 59.7488C47.9237 59.774 47.8661 59.8697 47.8907 59.9624C47.9154 60.0551 48.0129 60.1098 48.1084 60.0846L48.8768 59.882C48.8469 60.0429 48.7241 60.1734 48.562 60.2166L48.1691 60.3201C48.0982 60.3389 48.0455 60.3978 48.0362 60.4687C48.0269 60.5396 48.0628 60.6083 48.1269 60.6421L49.3451 61.2821C49.3852 61.303 49.4323 61.3079 49.4765 61.296C49.524 61.2832 49.5645 61.2524 49.589 61.2106C49.6119 61.1701 49.6175 61.1225 49.6044 61.0784C49.5913 61.0344 49.5607 60.9974 49.5192 60.9757L48.6927 60.5414C49.0248 60.4336 49.2477 60.1272 49.2407 59.7879L49.4778 59.7253C49.5734 59.7001 49.6309 59.6045 49.6063 59.5118C49.5816 59.4191 49.4842 59.3643 49.3886 59.3895L49.1515 59.4521C49.1091 59.3737 49.0528 59.3034 48.9852 59.2444L49.3261 59.1545L49.3257 59.1528Z" fill="#F38D5D"/>
<path d="M51.089 60.5055C51.0757 60.5011 51.0774 60.4001 51.061 60.2152C51.0393 59.9555 50.9769 59.7008 50.876 59.4602C50.8058 59.296 50.7178 59.1399 50.6137 58.9944C50.4929 58.8288 50.3512 58.6792 50.192 58.5494C50.1068 58.479 50.0162 58.4151 49.9211 58.3585C49.7207 58.2375 49.5029 58.1471 49.2752 58.0904C49.1555 58.061 49.0338 58.0405 48.911 58.0291C48.788 58.019 48.6644 58.0177 48.5411 58.0252C48.4215 58.0335 48.3028 58.0509 48.1858 58.0772C48.0728 58.1016 47.962 58.135 47.8544 58.177C47.7503 58.2172 47.6494 58.265 47.5524 58.32C47.3727 58.4201 47.2067 58.5427 47.0585 58.6847C46.9294 58.8091 46.8147 58.9473 46.7164 59.0968C46.5738 59.316 46.4664 59.5557 46.3979 59.8074C46.349 59.9868 46.3326 60.0902 46.3184 60.0887C46.3042 60.0872 46.2992 59.9816 46.3285 59.7924C46.3723 59.5235 46.4664 59.2649 46.6057 59.0299C46.8153 58.6767 47.113 58.3828 47.4703 58.1765C47.6813 58.0541 47.9095 57.9632 48.1472 57.9069C48.2731 57.8772 48.4011 57.8577 48.5301 57.8485C48.6629 57.8394 48.7963 57.8405 48.9289 57.8515C49.0616 57.8637 49.1931 57.8861 49.3223 57.9185C49.4481 57.9494 49.5711 57.9904 49.6901 58.0411C49.8044 58.0901 49.9145 58.148 50.0195 58.2142C50.1205 58.2769 50.2165 58.3472 50.3067 58.4244C50.472 58.5672 50.6172 58.7314 50.7383 58.9126C50.8431 59.0686 50.9289 59.2365 50.9938 59.4126C51.0892 59.6682 51.1357 59.9392 51.131 60.2118C51.127 60.4037 51.1 60.5067 51.089 60.5055Z" fill="#F38D5D"/>
<path d="M19.5684 16.2868C19.81 16.8531 19.8769 17.4797 19.7606 18.0872C19.6444 18.6946 19.3502 19.2557 18.9152 19.6995C18.4803 20.1432 17.9242 20.4496 17.3174 20.5799C16.7105 20.7101 16.0801 20.6584 15.506 20.4313C14.9319 20.2042 14.4398 19.8119 14.0921 19.304C13.7444 18.7961 13.5567 18.1955 13.5527 17.5782C13.5487 16.9608 13.7286 16.3545 14.0697 15.8359C14.4107 15.3174 14.8976 14.9099 15.4687 14.665C15.8472 14.5022 16.2535 14.4149 16.6644 14.4083C17.0753 14.4017 17.4828 14.4758 17.8635 14.6264C18.2443 14.777 18.5908 15.0012 18.8833 15.2861C19.1758 15.5709 19.4086 15.911 19.5684 16.2868Z" fill="#F9C0A8"/>
<path d="M18.8833 16.582C19.0674 17.0136 19.1184 17.4911 19.0297 17.954C18.9411 18.417 18.7169 18.8446 18.3854 19.1827C18.0539 19.5208 17.6301 19.7543 17.1676 19.8535C16.7051 19.9527 16.2247 19.9133 15.7872 19.7402C15.3497 19.567 14.9748 19.268 14.7099 18.8809C14.445 18.4938 14.302 18.0361 14.299 17.5656C14.2961 17.0952 14.4333 16.6331 14.6932 16.238C14.9532 15.8428 15.3243 15.5324 15.7595 15.3459C16.048 15.2218 16.3576 15.1554 16.6707 15.1504C16.9838 15.1454 17.2943 15.2019 17.5844 15.3167C17.8745 15.4315 18.1385 15.6023 18.3614 15.8194C18.5842 16.0365 18.7616 16.2957 18.8833 16.582Z" fill="#FCD3C3"/>
<path d="M16.6493 16.2256C16.7195 16.1559 16.7215 16.0444 16.6538 15.9764C16.5861 15.9084 16.4743 15.9097 16.4041 15.9793L15.3979 16.9777C15.3277 17.0473 15.3257 17.1589 15.3934 17.2268C15.4611 17.2948 15.5728 17.2935 15.643 17.2239L15.9314 16.9378C16.0505 16.8192 16.226 16.7792 16.38 16.8353L15.8159 17.395C15.7457 17.4646 15.7437 17.5762 15.8114 17.6442C15.8791 17.7122 15.9909 17.7108 16.061 17.6412L16.6252 17.0815C16.6798 17.2358 16.6386 17.4103 16.5198 17.5287L16.2314 17.8148C16.1793 17.8666 16.1632 17.9439 16.1906 18.0099C16.2179 18.0759 16.2834 18.1175 16.3558 18.1148L17.7308 18.06C17.776 18.0579 17.8192 18.0387 17.8515 18.0062C17.8863 17.9714 17.906 17.9245 17.9063 17.8761C17.9059 17.8295 17.8869 17.7855 17.8535 17.7539C17.8201 17.7223 17.7751 17.7056 17.7284 17.7075L16.7955 17.7447C17.0292 17.4853 17.069 17.1084 16.8933 16.8181L17.0673 16.6454C17.1375 16.5757 17.1395 16.4642 17.0718 16.3962C17.0041 16.3282 16.8923 16.3295 16.8222 16.3992L16.6481 16.5718C16.5723 16.5252 16.4883 16.4924 16.4003 16.4751L16.6506 16.2268L16.6493 16.2256Z" fill="#F38D5D"/>
<path d="M18.8517 16.5158C18.838 16.5186 18.789 16.4303 18.6823 16.2784C18.5337 16.0643 18.3523 15.8749 18.1446 15.717C18.0017 15.6099 17.8475 15.5187 17.6846 15.4448C17.4972 15.3617 17.2996 15.3031 17.0968 15.2702C16.9878 15.2518 16.8775 15.2418 16.7668 15.2403C16.5327 15.2358 16.2989 15.2664 16.0733 15.3311C15.955 15.3655 15.8393 15.4086 15.7273 15.4601C15.6157 15.5129 15.508 15.5736 15.405 15.6416C15.3056 15.7086 15.2114 15.7831 15.1233 15.8644C15.0377 15.942 14.9583 16.0263 14.8862 16.1166C14.8162 16.2034 14.7527 16.2952 14.6962 16.3913C14.5906 16.5679 14.5081 16.757 14.4508 16.9542C14.4012 17.1264 14.371 17.3035 14.3606 17.4821C14.3467 17.7432 14.3735 18.0046 14.4401 18.2568C14.4874 18.4366 14.5249 18.5343 14.5118 18.5401C14.4987 18.5459 14.4417 18.4569 14.3724 18.2785C14.276 18.0236 14.2281 17.7527 14.2313 17.4795C14.2362 17.0689 14.3471 16.6655 14.5533 16.3081C14.6749 16.0966 14.827 15.9039 15.0047 15.7361C15.0989 15.6476 15.2 15.5667 15.3072 15.4942C15.4176 15.4199 15.5336 15.3541 15.654 15.2974C15.775 15.2416 15.9001 15.1952 16.0282 15.1587C16.1526 15.1226 16.2796 15.0966 16.4081 15.081C16.5315 15.0663 16.6558 15.0613 16.7798 15.0662C16.8987 15.07 17.017 15.0828 17.1337 15.1047C17.3482 15.1456 17.5561 15.2152 17.7515 15.3116C17.9204 15.3943 18.0786 15.4968 18.2229 15.6169C18.4332 15.7906 18.609 16.002 18.7412 16.2404C18.8337 16.4086 18.8619 16.5113 18.8517 16.5158Z" fill="#F38D5D"/>
<path d="M45.3333 65.5169C45.2399 66.2887 44.9175 67.016 44.4069 67.6068C43.8963 68.1976 43.2204 68.6254 42.4648 68.836C41.7092 69.0466 40.9077 69.0306 40.1619 68.7899C39.4162 68.5493 38.7595 68.0948 38.2752 67.4841C37.7908 66.8734 37.5005 66.1338 37.4409 65.359C37.3814 64.5842 37.5553 63.809 37.9406 63.1315C38.3259 62.4539 38.9054 61.9046 39.6056 61.5529C40.3059 61.2012 41.0955 61.063 41.8744 61.1557C42.3911 61.2166 42.8904 61.3777 43.3439 61.6299C43.7974 61.882 44.1961 62.2203 44.5173 62.6253C44.8385 63.0303 45.0759 63.4942 45.2159 63.9903C45.3559 64.4865 45.3958 65.0052 45.3333 65.5169Z" fill="#F9C0A8"/>
<path d="M44.3962 65.4064C44.325 65.9945 44.0793 66.5487 43.6902 66.999C43.301 67.4492 42.7859 67.7752 42.21 67.9356C41.6342 68.0961 41.0234 68.0838 40.4551 67.9003C39.8868 67.7169 39.3864 67.3705 39.0173 66.905C38.6483 66.4395 38.4271 65.8759 38.3818 65.2854C38.3365 64.695 38.4691 64.1042 38.7629 63.5879C39.0566 63.0717 39.4983 62.6531 40.032 62.3852C40.5657 62.1173 41.1674 62.012 41.761 62.0829C42.1547 62.1293 42.5352 62.2521 42.8807 62.4443C43.2262 62.6365 43.53 62.8943 43.7747 63.2029C44.0194 63.5116 44.2003 63.865 44.3069 64.2431C44.4135 64.6212 44.4439 65.0165 44.3962 65.4064Z" fill="#FCD3C3"/>
<path d="M42.1803 63.6067C42.3009 63.5749 42.3735 63.4542 42.3424 63.3371C42.3114 63.2201 42.1883 63.1509 42.0676 63.1827L40.3372 63.639C40.2165 63.6709 40.1439 63.7916 40.175 63.9086C40.2061 64.0257 40.3291 64.0948 40.4498 64.063L40.9458 63.9322C41.1508 63.8778 41.3679 63.9448 41.5009 64.1034L40.5308 64.3592C40.4102 64.391 40.3375 64.5118 40.3686 64.6288C40.3997 64.7459 40.5228 64.815 40.6434 64.7832L41.6136 64.5274C41.5758 64.7305 41.4207 64.8953 41.2161 64.9498L40.7201 65.0805C40.6305 65.1043 40.564 65.1786 40.5523 65.2681C40.5405 65.3576 40.5859 65.4443 40.6667 65.4871L42.2047 66.2951C42.2555 66.3214 42.3148 66.3276 42.3707 66.3126C42.4307 66.2964 42.4818 66.2575 42.5127 66.2048C42.5417 66.1536 42.5486 66.0935 42.5321 66.0379C42.5156 65.9823 42.4769 65.9356 42.4246 65.9082L41.3811 65.3599C41.8004 65.2238 42.0818 64.8369 42.073 64.4085L42.3723 64.3296C42.493 64.2978 42.5656 64.1771 42.5345 64.06C42.5034 63.9429 42.3804 63.8738 42.2597 63.9056L41.9604 63.9845C41.9069 63.8857 41.8358 63.7968 41.7504 63.7223L42.1808 63.6088L42.1803 63.6067Z" fill="#F38D5D"/>
<path d="M44.4068 65.3151C44.3901 65.3095 44.3921 65.182 44.3714 64.9486C44.344 64.6207 44.2652 64.2991 44.1379 63.9954C44.0492 63.7881 43.9382 63.5909 43.8067 63.4073C43.6543 63.1982 43.4753 63.0094 43.2742 62.8454C43.1667 62.7565 43.0524 62.6759 42.9323 62.6043C42.6792 62.4516 42.4043 62.3375 42.1168 62.2659C41.9657 62.2288 41.812 62.2029 41.657 62.1885C41.5017 62.1758 41.3456 62.1742 41.1901 62.1835C41.039 62.194 40.8891 62.216 40.7414 62.2493C40.5988 62.28 40.4588 62.3222 40.323 62.3753C40.1916 62.4261 40.0642 62.4864 39.9418 62.5558C39.7149 62.6822 39.5053 62.8369 39.3182 63.0163C39.1552 63.1733 39.0104 63.3478 38.8863 63.5366C38.7063 63.8133 38.5706 64.116 38.4841 64.4337C38.4224 64.6602 38.4017 64.7907 38.3838 64.7888C38.3658 64.7869 38.3595 64.6536 38.3965 64.4148C38.4519 64.0752 38.5706 63.7488 38.7465 63.452C39.0111 63.0062 39.387 62.6351 39.838 62.3746C40.1045 62.2201 40.3925 62.1053 40.6927 62.0342C40.8516 61.9968 41.0133 61.9722 41.1761 61.9606C41.3438 61.9491 41.5121 61.9504 41.6796 61.9644C41.8471 61.9797 42.0132 62.008 42.1763 62.0489C42.3351 62.088 42.4904 62.1397 42.6407 62.2037C42.7849 62.2655 42.924 62.3386 43.0565 62.4223C43.1841 62.5014 43.3053 62.5901 43.4191 62.6876C43.6278 62.8679 43.8112 63.0752 43.9641 63.3039C44.0964 63.501 44.2047 63.7129 44.2867 63.9353C44.407 64.258 44.4657 64.6001 44.4598 64.9442C44.4548 65.1865 44.4207 65.3166 44.4068 65.3151Z" fill="#F38D5D"/>
<g clip-path="url(#clip0_66867_14487)">
<path d="M65.8022 27.9953L52.7637 27.3657L51.8096 46.8005L64.8481 47.43L65.8022 27.9953Z" fill="white" stroke="#263238" stroke-width="0.114759" stroke-linecap="round" stroke-linejoin="round"/>
<path d="M53.6746 28.7368L57.0686 28.8939" stroke="#263238" stroke-width="0.229517" stroke-linecap="round" stroke-linejoin="round"/>
<path d="M53.6453 29.3832L55.9535 29.4892" stroke="#263238" stroke-width="0.229517" stroke-linecap="round" stroke-linejoin="round"/>
<path d="M54.4005 30.947L64.1628 31.3976" stroke="#263238" stroke-width="0.229517" stroke-linecap="round" stroke-linejoin="round"/>
<path d="M54.3695 31.5915L64.1315 32.0436" stroke="#263238" stroke-width="0.229517" stroke-linecap="round" stroke-linejoin="round"/>
<path d="M54.3382 32.3453L62.6634 32.7308" stroke="#263238" stroke-width="0.229517" stroke-linecap="round" stroke-linejoin="round"/>
<path d="M55.1396 33.0709L54.3457 33.0342L54.3087 33.8215L55.1027 33.8582L55.1396 33.0709Z" stroke="#263238" stroke-width="0.114759" stroke-linecap="round" stroke-linejoin="round"/>
<path d="M56.5781 33.1363L55.7842 33.0996L55.7472 33.887L56.5411 33.9236L56.5781 33.1363Z" stroke="#263238" stroke-width="0.114759" stroke-linecap="round" stroke-linejoin="round"/>
<path d="M58.0185 33.2037L57.2246 33.167L57.1876 33.9544L57.9816 33.991L58.0185 33.2037Z" stroke="#263238" stroke-width="0.114759" stroke-linecap="round" stroke-linejoin="round"/>
<path d="M59.456 33.2691L58.6621 33.2324L58.6251 34.0198L59.4191 34.0565L59.456 33.2691Z" stroke="#263238" stroke-width="0.114759" stroke-linecap="round" stroke-linejoin="round"/>
<path d="M53.8819 30.9216C53.8805 30.9609 53.8672 30.9989 53.8439 31.0307C53.8207 31.0625 53.7884 31.0868 53.7511 31.1003C53.7139 31.1139 53.6735 31.1162 53.635 31.1069C53.5964 31.0976 53.5616 31.0772 53.5348 31.0482C53.508 31.0192 53.4905 30.9829 53.4846 30.944C53.4786 30.9052 53.4845 30.8654 53.5014 30.8298C53.5182 30.7943 53.5454 30.7645 53.5794 30.7443C53.6134 30.7241 53.6527 30.7143 53.6923 30.7163C53.7448 30.719 53.7941 30.742 53.8296 30.7804C53.8651 30.8188 53.8839 30.8695 53.8819 30.9216Z" fill="#263238"/>
<path d="M54.2237 34.7151L63.986 35.1657" stroke="#263238" stroke-width="0.229517" stroke-linecap="round" stroke-linejoin="round"/>
<path d="M54.1937 35.36L63.9558 35.8122" stroke="#263238" stroke-width="0.229517" stroke-linecap="round" stroke-linejoin="round"/>
<path d="M54.1583 36.1153L62.4837 36.4993" stroke="#263238" stroke-width="0.229517" stroke-linecap="round" stroke-linejoin="round"/>
<path d="M54.9639 36.8389L54.1699 36.8022L54.1329 37.5896L54.9269 37.6263L54.9639 36.8389Z" stroke="#263238" stroke-width="0.114759" stroke-linecap="round" stroke-linejoin="round"/>
<path d="M56.4014 36.9058L55.6074 36.8691L55.5704 37.6565L56.3644 37.6932L56.4014 36.9058Z" stroke="#263238" stroke-width="0.114759" stroke-linecap="round" stroke-linejoin="round"/>
<path d="M57.8428 36.9727L57.0488 36.936L57.0119 37.7234L57.8058 37.7601L57.8428 36.9727Z" stroke="#263238" stroke-width="0.114759" stroke-linecap="round" stroke-linejoin="round"/>
<path d="M59.2793 37.0386L58.4854 37.002L58.4484 37.7893L59.2423 37.826L59.2793 37.0386Z" stroke="#263238" stroke-width="0.114759" stroke-linecap="round" stroke-linejoin="round"/>
<path d="M53.707 34.6917C53.7053 34.7309 53.6918 34.7687 53.6683 34.8004C53.6449 34.832 53.6124 34.856 53.5752 34.8693C53.538 34.8826 53.4976 34.8847 53.4592 34.8752C53.4207 34.8657 53.386 34.8451 53.3594 34.8161C53.3328 34.787 53.3155 34.7508 53.3097 34.7119C53.3039 34.6731 53.3098 34.6334 53.3268 34.5979C53.3437 34.5625 53.3709 34.5328 53.4049 34.5127C53.4389 34.4925 53.4781 34.4829 53.5177 34.4849C53.5704 34.4876 53.6199 34.5108 53.6553 34.5496C53.6908 34.5883 53.7094 34.6394 53.707 34.6917Z" fill="#263238"/>
<path d="M54.0453 38.4831L63.8073 38.9352" stroke="#263238" stroke-width="0.229517" stroke-linecap="round" stroke-linejoin="round"/>
<path d="M54.0177 39.1306L63.7784 39.581" stroke="#263238" stroke-width="0.229517" stroke-linecap="round" stroke-linejoin="round"/>
<path d="M53.9825 39.8844L62.3079 40.2684" stroke="#263238" stroke-width="0.229517" stroke-linecap="round" stroke-linejoin="round"/>
<path d="M54.7842 40.6075L53.9902 40.5708L53.9533 41.3582L54.7472 41.3948L54.7842 40.6075Z" stroke="#263238" stroke-width="0.114759" stroke-linecap="round" stroke-linejoin="round"/>
<path d="M56.2246 40.6744L55.4307 40.6377L55.3937 41.4251L56.1876 41.4617L56.2246 40.6744Z" stroke="#263238" stroke-width="0.114759" stroke-linecap="round" stroke-linejoin="round"/>
<path d="M57.6631 40.7422L56.8691 40.7056L56.8322 41.4929L57.6261 41.5296L57.6631 40.7422Z" stroke="#263238" stroke-width="0.114759" stroke-linecap="round" stroke-linejoin="round"/>
<path d="M59.1006 40.8082L58.3066 40.7715L58.2697 41.5589L59.0636 41.5955L59.1006 40.8082Z" stroke="#263238" stroke-width="0.114759" stroke-linecap="round" stroke-linejoin="round"/>
<path d="M53.5283 38.4603C53.5266 38.4995 53.5131 38.5373 53.4896 38.5689C53.4661 38.6005 53.4337 38.6245 53.3965 38.6378C53.3593 38.6512 53.3189 38.6532 53.2805 38.6437C53.242 38.6343 53.2073 38.6137 53.1807 38.5846C53.1541 38.5556 53.1368 38.5193 53.131 38.4805C53.1252 38.4417 53.1311 38.402 53.1481 38.3665C53.165 38.331 53.1922 38.3013 53.2262 38.2812C53.2602 38.2611 53.2994 38.2514 53.339 38.2534C53.3917 38.2561 53.4412 38.2794 53.4766 38.3181C53.5121 38.3569 53.5307 38.408 53.5283 38.4603Z" fill="#263238"/>
<path d="M53.8656 42.3591L63.6261 42.811" stroke="#263238" stroke-width="0.229517" stroke-linecap="round" stroke-linejoin="round"/>
<path d="M53.8353 43.006L63.5958 43.4579" stroke="#263238" stroke-width="0.229517" stroke-linecap="round" stroke-linejoin="round"/>
<path d="M53.7991 43.7593L62.1243 44.1449" stroke="#263238" stroke-width="0.229517" stroke-linecap="round" stroke-linejoin="round"/>
<path d="M54.6045 44.4844L53.8105 44.4478L53.7736 45.2351L54.5675 45.2718L54.6045 44.4844Z" stroke="#263238" stroke-width="0.114759" stroke-linecap="round" stroke-linejoin="round"/>
<path d="M56.042 44.5508L55.248 44.5142L55.2111 45.3015L56.005 45.3382L56.042 44.5508Z" stroke="#263238" stroke-width="0.114759" stroke-linecap="round" stroke-linejoin="round"/>
<path d="M57.4795 44.6172L56.6855 44.5806L56.6486 45.3679L57.4425 45.4046L57.4795 44.6172Z" stroke="#263238" stroke-width="0.114759" stroke-linecap="round" stroke-linejoin="round"/>
<path d="M58.9209 44.6832L58.127 44.6465L58.09 45.4339L58.8839 45.4705L58.9209 44.6832Z" stroke="#263238" stroke-width="0.114759" stroke-linecap="round" stroke-linejoin="round"/>
<path d="M53.3516 42.3369C53.3499 42.3757 53.3365 42.4132 53.3133 42.4445C53.2901 42.4758 53.2581 42.4996 53.2212 42.5129C53.1844 42.5262 53.1444 42.5283 53.1063 42.5191C53.0682 42.5098 53.0338 42.4896 53.0073 42.4609C52.9808 42.4322 52.9635 42.3964 52.9575 42.358C52.9516 42.3195 52.9572 42.2802 52.9738 42.245C52.9903 42.2097 53.0171 42.1801 53.0506 42.16C53.0841 42.1398 53.1229 42.1299 53.162 42.1316C53.1881 42.1327 53.2137 42.1389 53.2373 42.1498C53.2609 42.1607 53.2821 42.1761 53.2998 42.1952C53.3174 42.2143 53.331 42.2366 53.3399 42.2609C53.3488 42.2852 53.3528 42.311 53.3516 42.3369Z" fill="#263238"/>
<path d="M54.6154 33.3616L54.7195 33.5359L55.14 33.0716" stroke="#263238" stroke-width="0.229517" stroke-linecap="round" stroke-linejoin="round"/>
<path d="M57.3175 37.2156L57.4214 37.3915L57.8421 36.9256" stroke="#263238" stroke-width="0.229517" stroke-linecap="round" stroke-linejoin="round"/>
<path d="M55.6964 40.9958L55.8019 41.172L56.221 40.7059" stroke="#263238" stroke-width="0.229517" stroke-linecap="round" stroke-linejoin="round"/>
<path d="M58.3761 44.9729L58.48 45.1488L58.9007 44.683" stroke="#263238" stroke-width="0.229517" stroke-linecap="round" stroke-linejoin="round"/>
</g>
<path opacity="0.2" d="M53.3382 48.5396C53.3382 48.5396 53.3224 55.9614 53.3382 56.3942C53.3539 56.827 53.9275 59.4336 53.9275 59.4336L52.1025 62.7563L53.6741 64.0062L56.7287 61.0386C56.7287 61.0386 59.3296 62.6263 59.805 64.8971C60.2804 67.1679 63.1111 68.8215 66.0479 75.1098C68.9847 81.3982 72.3341 61.0386 72.3341 61.0386L63.2722 49.7681L53.3382 48.5396Z" fill="black" fill-opacity="0.7"/>
<path d="M80.6464 77.558L66.699 79.9026C66.699 79.9026 64.271 67.1609 62.8232 65.1521C61.3755 63.1433 61.6446 62.3185 60.9374 60.9657C60.5131 60.1486 58.3837 58.625 56.7159 57.1209C56.5705 56.9908 56.4291 56.8608 56.2935 56.7327C56.2346 56.6803 56.1796 56.624 56.1246 56.5716C55.9026 56.3542 55.6963 56.1427 55.5136 55.935C55.4469 55.8613 55.3814 55.7875 55.3172 55.7138C55.0075 55.3731 54.7769 54.9697 54.6414 54.5318C54.6355 54.5122 54.6315 54.492 54.6297 54.4716C54.624 54.448 54.62 54.424 54.6179 54.3998C54.5805 54.099 54.5413 53.7554 54.502 53.3828C54.502 53.309 54.4863 53.2314 54.4764 53.1538L54.4646 53.0606C54.4313 52.7501 54.3939 52.4201 54.3507 52.0805C54.3075 51.7408 54.2603 51.3565 54.2053 50.9858C54.1877 50.8577 54.17 50.7296 54.1484 50.5977C54.1268 50.454 54.1032 50.3104 54.0796 50.1649L54.0148 49.7922C54.0148 49.7709 54.005 49.7515 54.003 49.734L53.9244 49.2973C53.9191 49.2816 53.9158 49.2653 53.9146 49.2488C53.8871 49.1226 53.8616 48.9984 53.8321 48.8722C53.7712 48.5908 53.7025 48.3152 53.6357 48.0474C53.5004 47.5433 53.3264 47.0502 53.1151 46.5723C52.1093 44.3539 53.4176 45.1555 52.6299 39.4475C52.6299 39.4475 53.2094 38.1238 54.8615 39.1816C54.9891 39.2639 55.1124 39.3526 55.2308 39.4475C55.5656 39.715 55.8611 40.0272 56.1089 40.3752C56.4447 40.849 56.7008 41.3733 56.8671 41.9279C57.1371 42.8274 57.2134 43.7729 57.0911 44.7033C57.0911 44.7033 58.3326 48.9072 58.9867 49.864C59.6409 50.8209 62.3459 45.3244 62.1711 44.6839C62.1097 44.3966 62.0631 44.1064 62.0316 43.8144C62.0198 43.7193 62.008 43.6203 61.9943 43.5116C61.9805 43.4029 61.9687 43.2942 61.9569 43.1797C61.9569 43.1254 61.9432 43.0672 61.9353 43.0109C61.9353 42.9876 61.9353 42.9643 61.9353 42.9429C61.9118 42.7236 61.8843 42.4907 61.8587 42.2501C61.8587 42.1821 61.845 42.1181 61.8371 42.056L61.8017 41.7066C61.8006 41.6872 61.8006 41.6678 61.8017 41.6484C61.8017 41.5824 61.786 41.5145 61.7801 41.4446C61.7644 41.3087 61.7507 41.1709 61.7369 41.0331C61.7232 40.8953 61.7133 40.7964 61.7016 40.678C61.678 40.4548 61.6564 40.2316 61.6348 40.0161C61.6191 39.855 61.6033 39.6959 61.5896 39.5406C61.5896 39.5057 61.5896 39.4708 61.5798 39.4378C61.4973 38.5838 61.4324 37.8851 61.4089 37.5823C61.4089 37.5823 59.4444 34.706 59.248 33.3513C59.0516 31.9965 59.0633 30.57 59.8864 29.9897C61.8351 28.6195 61.2615 30.8281 62.1377 31.7365C63.0138 32.6448 64.3476 34.1489 65.1059 34.6167C65.8052 35.0553 66.4299 36.7516 66.5183 37.0078C66.4181 36.6352 65.4182 32.9708 65.3966 32.2333C65.3711 31.457 64.77 27.3501 65.7895 25.877C66.809 24.4039 68.1684 25.5471 68.2941 25.8382C68.4199 26.1293 68.4572 30.1081 68.8167 31.2144C69.1762 32.3207 70.6809 36.9341 70.6809 36.9341C70.6809 36.9341 70.7438 32.4468 71.0836 30.438C71.4235 28.4293 72.3055 26.8591 73.1698 26.7698C74.0342 26.6805 74.8337 27.6219 74.8337 27.6219C74.8337 27.6219 74.4919 30.8243 74.5901 31.5637C74.6883 32.3032 74.4487 34.9738 74.8592 36.4159C74.8592 36.4159 74.8121 32.5904 75.4132 32.1013C76.0143 31.6122 76.5309 31.3774 76.8688 31.7132C77.2067 32.0489 77.2794 34.3081 77.6232 35.6706C77.9669 37.033 77.9237 38.8846 78.1496 41.0099C78.3755 43.1351 79.2654 46.0852 79.0886 47.7718C78.9118 49.4584 78.3677 53.6409 77.9296 56.0961C77.4915 58.5513 76.3738 61.9187 76.3738 61.9187C76.3738 61.9187 76.8826 63.7139 76.7844 65.3151C76.6861 66.9164 80.6464 77.558 80.6464 77.558Z" fill="white"/>
<path opacity="0.8" d="M68.7936 31.2113C69.0608 32.0323 69.9526 34.7728 70.3966 36.1411C70.3966 36.1411 68.4479 37.556 68.497 38.8719C68.5461 40.1878 68.1394 42.8428 67.2633 42.7672C66.3872 42.6915 66.4775 37.1659 66.1809 36.2381C66.3597 36.6263 66.4736 36.9621 66.4972 37.0261C66.4324 36.7874 65.3912 32.9853 65.3696 32.2322C65.3696 32.0536 65.3284 31.7024 65.2871 31.2462V31.2365C65.2871 31.2365 67.224 29.4044 68.6463 30.5262C68.6781 30.7579 68.7273 30.9869 68.7936 31.2113Z" fill="#FFE4C8"/>
<path opacity="0.8" d="M74.5851 32.8013C73.6775 33.6534 72.3083 35.1556 72.1354 36.6054C72.1354 36.6054 72.6423 40.654 72.4262 42.4183L70.6582 36.9431C70.6582 36.9431 70.7211 32.4559 71.0609 30.4471L71.0904 30.2821C72.1937 29.7265 73.4116 29.429 74.6499 29.4126C74.574 30.1268 74.5484 30.8454 74.5733 31.5631C74.5993 31.9753 74.6033 32.3887 74.5851 32.8013Z" fill="#FFE4C8"/>
<path opacity="0.4" d="M75.3866 32.0939C75.365 32.1094 75.312 32.1502 75.2354 32.2162C75.2816 32.1287 75.3328 32.0438 75.3886 31.9619L75.3866 32.0939Z" fill="#92E3A9"/>
<path opacity="0.8" d="M75.8519 43.2813C75.8519 43.2813 74.6851 38.9571 74.6733 35.4752C74.6635 34.1865 74.8147 33.0123 75.2371 32.2185C75.2834 32.131 75.3345 32.0461 75.3903 31.9642V32.0904C75.6006 31.909 75.8344 31.7563 76.0857 31.6362C75.7577 32.1409 75.3805 33.1287 75.8166 34.7416C76.5022 37.2531 75.905 40.3235 75.8519 43.2813Z" fill="#FFE4C8"/>
<path opacity="0.8" d="M59.7569 51.5285C59.7569 51.5285 60.0692 55.6489 56.7179 57.124C56.5726 56.9939 56.4311 56.8639 56.2956 56.7358C56.2366 56.6834 56.1816 56.6271 56.1266 56.5747C55.9047 56.3573 55.6984 56.1438 55.5157 55.9381C55.4469 55.8624 55.386 55.7887 55.3193 55.7168C55.0096 55.3762 54.7789 54.9728 54.6435 54.5349C54.6377 54.5152 54.6337 54.4951 54.6317 54.4747C54.626 54.4511 54.6221 54.4271 54.6199 54.4029C54.5826 54.102 54.5433 53.7585 54.504 53.3859C54.504 53.3121 54.4883 53.2345 54.4785 53.1569L54.4667 53.0637C54.4333 52.7512 54.396 52.4232 54.3528 52.0836C54.3095 51.7439 54.2624 51.3596 54.2074 50.9889C54.1878 50.8608 54.1701 50.7308 54.1504 50.6007C54.1288 50.4571 54.1052 50.3116 54.0817 50.1679L54.0168 49.7953L54.0051 49.7371C53.9776 49.5915 53.952 49.4498 53.9226 49.3062C53.9183 49.2902 53.9151 49.274 53.9127 49.2577C53.8852 49.1315 53.8597 49.0054 53.8302 48.8812C53.7674 48.5997 53.6986 48.3241 53.6338 48.0563C54.9598 46.7947 58.0203 47.5866 56.5392 44.6656C56.5392 44.6656 57.2856 42.1658 55.2289 39.4564C56.6354 40.5762 57.3564 42.5462 57.0892 44.6967C57.0892 44.6967 58.3307 48.8986 58.9849 49.8574C59.639 50.8162 62.344 45.3177 62.1692 44.6753C62.1077 44.3888 62.0618 44.0992 62.0317 43.8078C62.0179 43.7127 62.0061 43.6137 61.9944 43.505C61.9826 43.3963 61.9668 43.2876 61.9551 43.1712C61.9551 43.1188 61.9413 43.0605 61.9335 43.0043C61.9335 42.981 61.9335 42.9577 61.9335 42.9363C61.9099 42.7151 61.8843 42.4841 61.8568 42.2415C61.8568 42.1755 61.8431 42.1115 61.8352 42.0474C61.8352 41.931 61.8117 41.8145 61.7999 41.6981C61.7988 41.6787 61.7988 41.6592 61.7999 41.6398C61.7999 41.5738 61.7842 41.5059 61.7783 41.436C61.7625 41.2982 61.7508 41.1624 61.735 41.0246L61.6997 40.6675C61.6761 40.4462 61.6545 40.223 61.6329 40.0076C61.6191 39.8445 61.6034 39.6854 61.5877 39.5321C61.5877 39.4971 61.5877 39.4622 61.5779 39.4292C61.6329 39.6835 62.6289 44.3667 63.1966 45.4594C63.7643 46.5812 61.2931 52.4989 59.7569 51.5285Z" fill="#FFE4C8"/>
<path opacity="0.8" d="M77.9037 56.091C77.4657 58.5481 76.3479 61.9135 76.3479 61.9135C76.3479 61.9135 76.8567 63.7088 76.7585 65.31C76.731 65.7409 77.0021 66.8278 77.4067 68.1883C77.2908 67.8894 76.0317 64.6831 76.0592 63.5633C76.0827 62.3988 75.7448 62.0669 75.0769 60.6248C74.409 59.1828 73.4052 59.34 73.4052 59.34C73.4052 59.34 73.0123 62.9383 72.1009 60.5744C71.1894 58.2104 71.0106 55.4602 73.3149 45.9112C73.3149 45.9112 73.6626 47.1087 73.3718 50.6663C73.0811 54.2239 73.9415 55.3011 73.9415 55.3011C75.2372 53.071 76.2656 50.6995 77.006 48.2344C77.006 48.2344 76.7074 52.3859 76.4422 54.2763C76.177 56.1667 77.3871 52.0851 78.2318 49.5639C79.0176 47.1961 79.0549 46.2975 78.7524 44.6128C78.9763 45.7987 79.1453 46.9302 79.0588 47.757C78.886 49.4416 78.3418 53.628 77.9037 56.091Z" fill="#FFE4C8"/>
<path opacity="0.8" d="M62.1455 64.0854C62.8252 65.1549 64.4891 66.5659 65.485 70.4689C66.481 74.372 65.8524 78.6438 65.8524 78.6438L62.1455 64.0854Z" fill="#FFE4C8"/>
<path opacity="0.8" d="M56.7959 41.9307C56.7959 41.9307 53.3169 43.6774 53.0419 46.5887C52.0361 44.3703 53.3444 45.1719 52.5566 39.4638C52.5566 39.4638 53.1361 38.1402 54.7882 39.198C54.9159 39.2802 55.0391 39.369 55.1575 39.4638C55.4923 39.7314 55.7879 40.0436 56.0356 40.3916L56.7959 41.9307Z" fill="#FFE4C8" fill-opacity="0.7"/>
<path d="M66.7011 79.9035C66.7011 79.9035 64.275 67.1618 62.8253 65.153C61.3755 63.1442 61.6466 62.3194 60.9394 60.9666C60.2322 59.6138 54.8635 56.3202 54.6258 54.3988C54.3881 52.4773 54.117 48.7936 53.1092 46.5752C52.1015 44.3568 53.4118 45.1584 52.6221 39.4484C52.6221 39.4484 53.2114 38.1267 54.8556 39.1844C56.4998 40.2422 57.376 42.3558 57.0872 44.6984C57.0872 44.6984 58.3287 48.9003 58.9848 49.8591C59.6409 50.8179 62.34 45.3195 62.1672 44.677C61.9943 44.0346 61.4737 38.5692 61.3912 37.5735C61.3912 37.5735 59.4268 34.6952 59.2304 33.3405C59.0339 31.9858 59.0457 30.5593 59.8688 29.9809C61.8175 28.6107 61.2439 30.8193 62.12 31.7277C62.9962 32.636 64.33 34.1363 65.0863 34.6059C65.8426 35.0756 66.5105 37.0262 66.5105 37.0262C66.5105 37.0262 65.4006 33.0009 65.379 32.2226C65.3574 31.4443 64.7523 27.3394 65.7719 25.8663C66.7914 24.3932 68.1508 25.5363 68.2765 25.8275C68.4022 26.1186 68.4396 30.0973 68.801 31.2017C69.1625 32.306 70.6613 36.9233 70.6613 36.9233C70.6613 36.9233 70.7261 32.4361 71.066 30.4273C71.4058 28.4185 72.2898 26.8484 73.1522 26.7591C74.0146 26.6698 74.8161 27.6111 74.8161 27.6111C74.8161 27.6111 74.4743 30.8135 74.5705 31.553C74.6668 32.2925 74.431 34.9611 74.8416 36.4051C74.8416 36.4051 74.7945 32.5797 75.3956 32.0906C75.9967 31.6015 76.5133 31.3667 76.8512 31.7024C77.1891 32.0382 77.2618 34.2973 77.6055 35.6598C77.9493 37.0223 77.9081 38.8739 78.132 40.9991C78.3559 43.1243 79.2478 46.0744 79.071 47.7591C78.8942 49.4438 78.35 53.6302 77.91 56.0854C77.47 58.5405 76.3581 61.9079 76.3581 61.9079C76.3581 61.9079 76.8669 63.7032 76.7667 65.3044C76.6665 66.9056 80.6543 77.5648 80.6543 77.5648" stroke="#263238" stroke-width="0.114759" stroke-linecap="round" stroke-linejoin="round"/>
<path d="M70.6543 36.9326C71.0609 37.8759 72.0647 41.8566 72.4223 42.4097C72.604 42.7152 72.8697 42.9635 73.1884 43.1259" stroke="#263238" stroke-width="0.114759" stroke-linecap="round" stroke-linejoin="round"/>
<path d="M74.8358 36.4092C74.8358 36.4092 74.7494 37.2243 75.1953 39.827C75.6412 42.4297 75.8593 43.536 76.1107 44.1163" stroke="#263238" stroke-width="0.114759" stroke-linecap="round" stroke-linejoin="round"/>
<path d="M66.501 37.0361C67.0451 38.6218 67.3535 41.1488 67.6639 41.9096C67.9743 42.6704 68.2532 42.8276 68.2532 42.8276" stroke="#263238" stroke-width="0.114759" stroke-linecap="round" stroke-linejoin="round"/>
<path d="M67.3799 40.8398C67.7076 41.0858 67.9671 41.4096 68.1342 41.7812" stroke="#263238" stroke-width="0.114759" stroke-linecap="round" stroke-linejoin="round"/>
<path d="M58.9814 49.8608C58.9814 49.8608 59.28 51.9628 60.6119 51.8017" stroke="#263238" stroke-width="0.114759" stroke-linecap="round" stroke-linejoin="round"/>
<path d="M62.1644 44.6787C62.1644 44.6787 62.5081 47.1785 61.9424 48.2382" stroke="#263238" stroke-width="0.114759" stroke-linecap="round" stroke-linejoin="round"/>
<path d="M72.8183 44.7021C72.8183 44.7021 73.7141 45.2436 73.1149 46.8371C72.5158 48.4305 71.4727 54.8392 71.4727 54.8392" stroke="#263238" stroke-width="0.114759" stroke-linecap="round" stroke-linejoin="round"/>
<path d="M76.7164 46.3867C77.0916 47.8229 77.125 47.8598 76.5199 49.6241C75.9149 51.3883 74.9229 55.7028 74.9229 55.7028" stroke="#263238" stroke-width="0.114759" stroke-linecap="round" stroke-linejoin="round"/>
<path d="M76.3497 61.9025C76.3497 61.9025 75.7604 60.738 76.2476 59.7676" stroke="#263238" stroke-width="0.114759" stroke-linecap="round" stroke-linejoin="round"/>
<path d="M62.8252 65.1553C62.8252 65.1553 64.3064 67.2106 64.9507 69.5105" stroke="#263238" stroke-width="0.114759" stroke-linecap="round" stroke-linejoin="round"/>
<path d="M73.7236 29.1271L74.1244 28.735L74.3051 28.6846L74.2933 28.8787L73.926 29.3425L73.7236 29.1271Z" fill="#757575" stroke="#263238" stroke-width="0.114759" stroke-linecap="round" stroke-linejoin="round"/>
<path d="M74.0483 29.3425L73.3961 30.804L55.8735 53.8866L53.9229 52.658L56.5787 49.3741L72.3157 29.8685L73.7045 28.9971C73.7872 29.0204 73.8623 29.0645 73.9225 29.125C73.9828 29.1856 74.0261 29.2605 74.0483 29.3425Z" fill="#20446C"/>
<path opacity="0.3" d="M74.0483 29.3425L73.3961 30.804L55.8735 53.8866L53.9229 52.658L56.5787 49.3741C57.7947 49.2499 57.999 49.9563 57.999 49.9563L73.0897 30.4915C72.9404 29.9694 72.3039 29.8685 72.3039 29.8685L73.6927 28.9971C73.7776 29.0186 73.8551 29.0619 73.9176 29.1226C73.98 29.1832 74.0251 29.2591 74.0483 29.3425Z" fill="black" fill-opacity="0.7"/>
<path d="M74.0483 29.3425L73.3961 30.804L55.8735 53.8866L53.9229 52.658L56.5787 49.3741L72.3157 29.8685L73.7045 28.9971C73.7872 29.0204 73.8623 29.0645 73.9225 29.125C73.9828 29.1856 74.0261 29.2605 74.0483 29.3425Z" stroke="#263238" stroke-width="0.114759" stroke-linecap="round" stroke-linejoin="round"/>
<path d="M61.588 47.0527C61.588 47.0527 59.6236 50.8878 57.7496 53.6011L56.4059 53.9447C56.4059 53.9447 53.3218 56.9724 51.4399 58.4824C51.0982 58.2727 50.7886 58.0159 50.5205 57.7196C50.5205 57.7196 53.1921 52.6521 56.1486 49.4419C56.4948 49.5645 56.8211 49.7365 57.117 49.9523C57.5014 50.2202 57.8431 50.5434 58.1307 50.9111L61.425 46.8159L61.588 47.0527Z" fill="#F0792E"/>
<path opacity="0.3" d="M61.5867 47.0522C61.5867 47.0522 59.6222 50.8873 57.7482 53.6006L56.4045 53.9441C56.4045 53.9441 53.3204 56.9719 51.4385 58.4818L51.4895 57.6609C53.5306 54.5807 56.1236 51.2211 57.1156 49.9518C57.5 50.2196 57.8417 50.5428 58.1293 50.9106L56.2984 53.325L57.3474 53.1309L61.4236 46.8076L61.5867 47.0522Z" fill="black" fill-opacity="0.7"/>
<path d="M61.588 47.0527C61.588 47.0527 59.6236 50.8878 57.7496 53.6011L56.4059 53.9447C56.4059 53.9447 53.3218 56.9724 51.4399 58.4824C51.0982 58.2727 50.7886 58.0159 50.5205 57.7196C50.5205 57.7196 53.1921 52.6521 56.1486 49.4419C56.4948 49.5645 56.8211 49.7365 57.117 49.9523C57.5014 50.2202 57.8431 50.5434 58.1307 50.9111L61.425 46.8159L61.588 47.0527Z" stroke="#263238" stroke-width="0.114759" stroke-linecap="round" stroke-linejoin="round"/>
<path d="M68.2513 42.827L62.7765 48.0673L61.9023 48.9096C62.5015 47.388 62.2107 45.0279 62.1734 44.7504C62.1739 44.742 62.1739 44.7335 62.1734 44.7251C62.1746 44.7109 62.1746 44.6966 62.1734 44.6824C62.1119 44.3959 62.066 44.1063 62.0359 43.8149C62.0222 43.7198 62.0104 43.6208 61.9986 43.5121C61.9868 43.4034 61.9711 43.2947 61.9593 43.1783C61.9593 43.1259 61.9456 43.0676 61.9377 43.0114C61.9377 42.9881 61.9377 42.9648 61.9377 42.9434C61.9141 42.7241 61.8866 42.4912 61.8611 42.2486C61.8611 42.1826 61.8473 42.1186 61.8395 42.0545C61.8395 41.9381 61.8159 41.8216 61.8041 41.7052C61.803 41.6858 61.803 41.6663 61.8041 41.6469C61.8041 41.5809 61.7884 41.513 61.7825 41.4431C61.7668 41.3053 61.755 41.1695 61.7393 41.0317L61.7039 40.6746C61.6804 40.4533 61.6587 40.2301 61.6371 40.0147C61.6214 39.8516 61.6057 39.6944 61.592 39.5392C61.592 39.5042 61.592 39.4693 61.5821 39.4363C61.4996 38.5823 61.4348 37.8836 61.4112 37.5808C61.4112 37.5808 59.4468 34.7045 59.2504 33.3478C59.0539 31.9912 59.0657 30.5666 59.8888 29.9882C61.8375 28.618 61.2639 30.8267 62.14 31.735C63.0162 32.6433 64.35 34.1475 65.1083 34.6152C65.8665 35.083 66.5305 37.0355 66.5305 37.0355C67.0746 38.6211 67.3831 41.1462 67.6934 41.9089C68.0038 42.6717 68.2513 42.827 68.2513 42.827Z" fill="white"/>
<path d="M67.3799 40.8398C67.7076 41.0858 67.9671 41.4096 68.1342 41.7812" stroke="#263238" stroke-width="0.114759" stroke-linecap="round" stroke-linejoin="round"/>
<path opacity="0.8" d="M62.1087 31.7359C62.977 32.6519 64.3108 34.1386 65.0691 34.6122C64.963 34.5598 63.5663 33.8883 62.7865 34.6355C61.9751 35.4118 61.3878 37.5759 61.3878 37.5759C61.3878 37.5759 59.4234 34.6995 59.2269 33.3429C59.0305 31.9862 59.0423 30.5616 59.8654 29.9833C61.8062 28.613 61.2365 30.8217 62.1087 31.7359Z" fill="#FFE4C8"/>
<path opacity="0.8" d="M62.7774 48.0714L61.9032 48.9098C62.5024 47.3882 62.2116 45.0281 62.1743 44.7506C62.1767 44.728 62.1767 44.7052 62.1743 44.6826C62.1128 44.3961 62.0669 44.1065 62.0368 43.8151C62.023 43.72 62.0113 43.621 61.9995 43.5123C61.9877 43.4036 61.972 43.2949 61.9602 43.1785C61.9602 43.1261 61.9464 43.0679 61.9386 43.0116C61.9386 42.9883 61.9386 42.965 61.9386 42.9436C61.915 42.7224 61.8895 42.4914 61.862 42.2488C61.862 42.1828 61.8482 42.1188 61.8403 42.0547C61.8403 41.9383 61.8168 41.8218 61.805 41.7054C61.8039 41.686 61.8039 41.6665 61.805 41.6472C61.805 41.5812 61.7893 41.5132 61.7834 41.4434C61.7677 41.3056 61.7559 41.1697 61.7402 41.0319L61.7048 40.6748C61.6812 40.4535 61.6596 40.2303 61.638 40.0149C61.6243 39.8519 61.6085 39.6927 61.5928 39.5394C61.5928 39.5045 61.5928 39.4695 61.583 39.4365C61.638 39.6908 62.634 44.374 63.2017 45.4667C63.3942 45.8743 63.1958 46.9379 62.7774 48.0714Z" fill="#FFE4C8"/>
<path d="M68.2532 42.8276C68.2532 42.8276 67.9763 42.6704 67.6639 41.9096C67.3516 41.1488 67.0451 38.6218 66.501 37.0361C66.501 37.0361 65.835 35.0953 65.0768 34.6159C64.3185 34.1365 62.9827 32.6537 62.1105 31.7376C61.2383 30.8215 61.808 28.6128 59.8593 29.9908C59.0362 30.5731 59.0205 31.9957 59.2209 33.3505C59.4212 34.7052 61.3817 37.5835 61.3817 37.5835C61.4642 38.5791 61.9828 44.0465 62.1577 44.687" stroke="#263238" stroke-width="0.114759" stroke-linecap="round" stroke-linejoin="round"/>
<path d="M62.1644 44.6787C62.1644 44.6787 62.5081 47.1785 61.9424 48.2382" stroke="#263238" stroke-width="0.114759" stroke-linecap="round" stroke-linejoin="round"/>
<path opacity="0.2" d="M28.5636 47.7451C28.5636 47.7451 29.8071 53.4493 27.1139 57.6008C24.4207 61.7522 22.3482 62.8566 21.4171 64.0949C20.4859 65.3331 16.8341 72.2484 16.8341 72.2484L12.5713 59.7784L16.8341 44.3467L28.5636 47.7451Z" fill="black" fill-opacity="0.7"/>
<g clip-path="url(#clip1_66867_14487)">
<path d="M25.62 24.4065L13.5205 29.2656L20.8847 47.3008L32.9842 42.4416L25.62 24.4065Z" fill="white" stroke="#263238" stroke-width="0.114759" stroke-linecap="round" stroke-linejoin="round"/>
<path d="M14.9301 30.1289L18.0768 28.8578" stroke="#263238" stroke-width="0.229517" stroke-linecap="round" stroke-linejoin="round"/>
<path d="M15.175 30.7277L17.3146 29.8625" stroke="#263238" stroke-width="0.229517" stroke-linecap="round" stroke-linejoin="round"/>
<path d="M16.5223 31.8324L25.5728 28.1754" stroke="#263238" stroke-width="0.229517" stroke-linecap="round" stroke-linejoin="round"/>
<path d="M16.768 32.4301L25.8189 28.7745" stroke="#263238" stroke-width="0.229517" stroke-linecap="round" stroke-linejoin="round"/>
<path d="M17.0576 33.1291L24.7763 30.0116" stroke="#263238" stroke-width="0.229517" stroke-linecap="round" stroke-linejoin="round"/>
<path d="M18.0925 33.4521L17.3564 33.7495L17.6563 34.4795L18.3924 34.1821L18.0925 33.4521Z" stroke="#263238" stroke-width="0.114759" stroke-linecap="round" stroke-linejoin="round"/>
<path d="M19.4255 32.9135L18.6895 33.2109L18.9893 33.9409L19.7254 33.6435L19.4255 32.9135Z" stroke="#263238" stroke-width="0.114759" stroke-linecap="round" stroke-linejoin="round"/>
<path d="M20.7614 32.3735L20.0254 32.6709L20.3253 33.4009L21.0613 33.1035L20.7614 32.3735Z" stroke="#263238" stroke-width="0.114759" stroke-linecap="round" stroke-linejoin="round"/>
<path d="M22.0964 31.834L21.3604 32.1313L21.6602 32.8613L22.3963 32.5639L22.0964 31.834Z" stroke="#263238" stroke-width="0.114759" stroke-linecap="round" stroke-linejoin="round"/>
<path d="M16.0396 32.0257C16.0549 32.062 16.059 32.1019 16.0514 32.1405C16.0437 32.1791 16.0247 32.2145 15.9966 32.2424C15.9686 32.2702 15.9329 32.2891 15.894 32.2967C15.8551 32.3043 15.8148 32.3003 15.7782 32.2851C15.7416 32.27 15.7104 32.2444 15.6885 32.2116C15.6667 32.1788 15.6551 32.1403 15.6554 32.1009C15.6557 32.0616 15.6677 32.0233 15.69 31.9907C15.7123 31.9582 15.7439 31.933 15.7806 31.9184C15.8294 31.8989 15.8839 31.8993 15.9323 31.9194C15.9808 31.9394 16.0193 31.9776 16.0396 32.0257Z" fill="#263238"/>
<path d="M17.9569 35.3271L27.0073 31.67" stroke="#263238" stroke-width="0.229517" stroke-linecap="round" stroke-linejoin="round"/>
<path d="M18.2035 35.9242L27.2544 32.2686" stroke="#263238" stroke-width="0.229517" stroke-linecap="round" stroke-linejoin="round"/>
<path d="M18.4917 36.6238L26.2099 33.5047" stroke="#263238" stroke-width="0.229517" stroke-linecap="round" stroke-linejoin="round"/>
<path d="M19.5261 36.9453L18.79 37.2427L19.0899 37.9726L19.826 37.6753L19.5261 36.9453Z" stroke="#263238" stroke-width="0.114759" stroke-linecap="round" stroke-linejoin="round"/>
<path d="M20.8611 36.4077L20.125 36.7051L20.4249 37.435L21.1609 37.1377L20.8611 36.4077Z" stroke="#263238" stroke-width="0.114759" stroke-linecap="round" stroke-linejoin="round"/>
<path d="M22.1941 35.8676L21.458 36.165L21.7579 36.895L22.4939 36.5976L22.1941 35.8676Z" stroke="#263238" stroke-width="0.114759" stroke-linecap="round" stroke-linejoin="round"/>
<path d="M23.53 35.3296L22.7939 35.627L23.0938 36.3569L23.8299 36.0595L23.53 35.3296Z" stroke="#263238" stroke-width="0.114759" stroke-linecap="round" stroke-linejoin="round"/>
<path d="M17.4777 35.5213C17.4927 35.5576 17.4965 35.5975 17.4886 35.636C17.4807 35.6745 17.4614 35.7097 17.4333 35.7373C17.4051 35.7649 17.3693 35.7836 17.3305 35.791C17.2916 35.7984 17.2514 35.7942 17.2149 35.7789C17.1784 35.7636 17.1474 35.738 17.1257 35.7051C17.1039 35.6723 17.0925 35.6338 17.0929 35.5946C17.0933 35.5553 17.1054 35.517 17.1277 35.4846C17.15 35.4522 17.1815 35.4271 17.2183 35.4124C17.2673 35.3929 17.322 35.3934 17.3706 35.4138C17.4192 35.4342 17.4577 35.4728 17.4777 35.5213Z" fill="#263238"/>
<path d="M19.393 38.8202L28.4439 35.1646" stroke="#263238" stroke-width="0.229517" stroke-linecap="round" stroke-linejoin="round"/>
<path d="M19.6405 39.4198L28.6894 35.7632" stroke="#263238" stroke-width="0.229517" stroke-linecap="round" stroke-linejoin="round"/>
<path d="M19.9253 40.1189L27.6435 36.9999" stroke="#263238" stroke-width="0.229517" stroke-linecap="round" stroke-linejoin="round"/>
<path d="M20.9626 40.4404L20.2266 40.7378L20.5264 41.4678L21.2625 41.1704L20.9626 40.4404Z" stroke="#263238" stroke-width="0.114759" stroke-linecap="round" stroke-linejoin="round"/>
<path d="M22.2956 39.9009L21.5596 40.1982L21.8594 40.9282L22.5955 40.6308L22.2956 39.9009Z" stroke="#263238" stroke-width="0.114759" stroke-linecap="round" stroke-linejoin="round"/>
<path d="M23.6316 39.3628L22.8955 39.6602L23.1954 40.3901L23.9314 40.0927L23.6316 39.3628Z" stroke="#263238" stroke-width="0.114759" stroke-linecap="round" stroke-linejoin="round"/>
<path d="M24.9636 38.8242L24.2275 39.1216L24.5274 39.8515L25.2635 39.5542L24.9636 38.8242Z" stroke="#263238" stroke-width="0.114759" stroke-linecap="round" stroke-linejoin="round"/>
<path d="M18.9113 39.0149C18.9263 39.0513 18.9301 39.0912 18.9222 39.1297C18.9143 39.1681 18.895 39.2034 18.8669 39.231C18.8387 39.2586 18.8029 39.2773 18.7641 39.2847C18.7252 39.2921 18.685 39.2879 18.6485 39.2726C18.612 39.2573 18.581 39.2316 18.5593 39.1988C18.5375 39.166 18.5261 39.1275 18.5265 39.0882C18.5269 39.049 18.539 39.0107 18.5613 38.9783C18.5836 38.9458 18.6151 38.9207 18.6519 38.9061C18.7008 38.8866 18.7556 38.8871 18.8042 38.9075C18.8528 38.9279 18.8913 38.9665 18.9113 39.0149Z" fill="#263238"/>
<path d="M20.8705 42.4135L29.9199 38.7583" stroke="#263238" stroke-width="0.229517" stroke-linecap="round" stroke-linejoin="round"/>
<path d="M21.1166 43.0121L30.166 39.357" stroke="#263238" stroke-width="0.229517" stroke-linecap="round" stroke-linejoin="round"/>
<path d="M21.4014 43.7116L29.1201 40.5941" stroke="#263238" stroke-width="0.229517" stroke-linecap="round" stroke-linejoin="round"/>
<path d="M22.4402 44.0342L21.7041 44.3315L22.004 45.0615L22.74 44.7641L22.4402 44.0342Z" stroke="#263238" stroke-width="0.114759" stroke-linecap="round" stroke-linejoin="round"/>
<path d="M23.7732 43.4951L23.0371 43.7925L23.337 44.5225L24.073 44.2251L23.7732 43.4951Z" stroke="#263238" stroke-width="0.114759" stroke-linecap="round" stroke-linejoin="round"/>
<path d="M25.1071 42.9565L24.3711 43.2539L24.671 43.9839L25.407 43.6865L25.1071 42.9565Z" stroke="#263238" stroke-width="0.114759" stroke-linecap="round" stroke-linejoin="round"/>
<path d="M26.4441 42.4165L25.708 42.7139L26.0079 43.4438L26.7439 43.1464L26.4441 42.4165Z" stroke="#263238" stroke-width="0.114759" stroke-linecap="round" stroke-linejoin="round"/>
<path d="M20.3923 42.6058C20.4072 42.6418 20.4109 42.6813 20.4031 42.7194C20.3953 42.7575 20.3763 42.7925 20.3485 42.8199C20.3207 42.8473 20.2853 42.8659 20.2468 42.8733C20.2083 42.8808 20.1685 42.8768 20.1323 42.8618C20.0961 42.8468 20.0653 42.8215 20.0436 42.7891C20.0219 42.7567 20.0104 42.7187 20.0105 42.6798C20.0106 42.6409 20.0223 42.6029 20.0442 42.5706C20.066 42.5384 20.0971 42.5132 20.1333 42.4984C20.1574 42.4886 20.1832 42.4836 20.2093 42.4836C20.2354 42.4837 20.2612 42.4889 20.2853 42.4988C20.3093 42.5088 20.3311 42.5234 20.3495 42.5417C20.3679 42.5601 20.3824 42.5818 20.3923 42.6058Z" fill="#263238"/>
<path d="M17.7382 33.9345L17.9066 34.0494L18.0915 33.4529" stroke="#263238" stroke-width="0.229517" stroke-linecap="round" stroke-linejoin="round"/>
<path d="M21.8241 36.3071L21.9929 36.4234L22.1774 35.8254" stroke="#263238" stroke-width="0.229517" stroke-linecap="round" stroke-linejoin="round"/>
<path d="M21.9569 40.4125L22.1272 40.5284L22.3103 39.9309" stroke="#263238" stroke-width="0.229517" stroke-linecap="round" stroke-linejoin="round"/>
<path d="M26.0712 42.9062L26.24 43.0225L26.4245 42.4246" stroke="#263238" stroke-width="0.229517" stroke-linecap="round" stroke-linejoin="round"/>
</g>
<path d="M25.6107 45.3835C26.0703 43.8308 27.8619 38.8603 27.6262 36.6613C27.6074 36.4782 27.5652 36.2982 27.5004 36.1256C26.8718 34.4837 24.3024 34.6428 23.3162 36.0033C22.2319 37.4997 21.3518 40.1917 21.2713 41.8259C21.2024 42.6448 20.9327 43.4349 20.4855 44.1277C20.332 44.3839 20.1586 44.6279 19.9669 44.8575L14.107 31.126C13.5152 31.6128 12.9984 32.1823 12.5728 32.8165C12.3333 33.17 12.1787 33.5729 12.121 33.9946C12.0012 35.3532 10.4493 40.9118 9.80497 43.2582C9.79319 43.3087 9.77747 43.3553 9.76568 43.4038C9.14493 45.6591 10.7833 54.0358 10.3138 56.4677C9.84426 58.8996 9.55549 58.8472 9.48674 60.5745C9.43763 61.8361 7.61072 65.6731 5.5579 69.6111C4.37925 71.8664 3.13774 74.1547 2.11035 76.016L17.1028 75.4007C17.3621 73.5996 17.6292 71.7014 17.8728 69.8615C17.9787 69.0962 18.1282 68.3374 18.3207 67.5888C18.6507 66.269 19.0534 65.0754 19.3029 64.3767C19.621 63.3496 19.8833 62.3066 20.0887 61.2519C21.8311 59.4294 24.1177 56.5628 24.7797 54.6219V54.6083C24.9421 54.2091 24.9937 53.7743 24.929 53.3487C24.8559 52.9993 24.8157 52.6439 24.8092 52.2871C24.7404 50.1754 25.2256 46.6761 25.6107 45.3835Z" fill="white"/>
<path opacity="0.8" d="M20.4879 44.1394C20.0243 45.0613 19.4644 45.958 19.1128 46.9905C18.7612 48.023 18.3702 48.1705 17.3212 48.9779C16.2723 49.7853 15.5061 48.4559 15.5061 48.4559C15.5061 48.4559 16.895 47.0293 16.4333 46.2375C15.9717 45.4456 14.2371 43.4756 14.3393 42.381C14.4414 41.2863 13.2922 38.8486 13.2922 38.8486C13.2922 38.8486 15.9108 37.3309 15.402 35.5492C15.125 34.5846 13.7499 33.552 12.5713 32.8165C12.9969 32.1823 13.5137 31.6128 14.1055 31.126L19.9693 44.8692C20.161 44.6395 20.3344 44.3955 20.4879 44.1394Z" fill="#FFE4C8"/>
<path opacity="0.8" d="M10.9813 52.5695C11.0167 52.686 11.8693 55.4692 11.1503 56.6279C10.4313 57.7866 9.69268 59.3218 10.0443 60.8978C10.3233 62.1554 7.96792 66.697 5.56348 69.6122C7.6104 65.6742 9.43731 61.8371 9.49231 60.5756C9.56107 58.8482 9.84984 58.9006 10.3193 56.4687C10.7888 54.0368 9.14068 45.6601 9.77126 43.4048C9.78305 43.3563 9.79876 43.3097 9.81055 43.2593C10.2683 45.8154 11.3349 50.9062 11.6276 52.5424C11.993 54.6249 11.0206 52.653 10.9813 52.5695Z" fill="#FFE4C8"/>
<path opacity="0.8" d="M16.3799 69.3521C18.1223 61.9419 23.9861 56.2572 24.7797 54.6133C24.1177 56.5541 21.8331 59.4208 20.0887 61.2432C19.8833 62.2979 19.621 63.341 19.3029 64.368C19.0574 65.0667 18.6547 66.2603 18.3207 67.5801C16.6235 69.5637 16.3799 69.3521 16.3799 69.3521Z" fill="#FFE4C8"/>
<path opacity="0.8" d="M25.6099 45.3836C25.217 46.6762 24.7397 50.1755 24.8143 52.2775C24.5059 50.9557 23.9127 49.2808 23.8145 46.9459C23.6475 42.9866 25.9183 44.4073 25.1267 42.4568C24.335 40.5062 22.0779 43.006 23.1898 38.8778C24.003 35.8617 26.3132 35.8909 27.4997 36.1257C27.5644 36.2983 27.6067 36.4783 27.6254 36.6614C27.8612 38.8604 26.0696 43.8348 25.6099 45.3836Z" fill="#FFE4C8"/>
<path d="M19.9733 44.8687C19.6178 45.5471 19.3284 46.2574 19.1089 46.99C18.8634 47.941 17.6199 47.8052 16.9775 48.3952" stroke="#263238" stroke-width="0.114759" stroke-linecap="round" stroke-linejoin="round"/>
<path d="M15.2783 43.1958C15.2783 43.1958 16.9716 43.7781 17.9558 44.5447C18.94 45.3113 19.6688 45.4879 19.6688 45.4879" stroke="#263238" stroke-width="0.114759" stroke-linecap="round" stroke-linejoin="round"/>
<path d="M14.2002 39.0518C14.2002 39.0518 15.5655 39.4303 16.5771 38.9548C16.6229 38.4705 16.7089 37.9908 16.8345 37.5205" stroke="#263238" stroke-width="0.114759" stroke-linecap="round" stroke-linejoin="round"/>
<path d="M16.9043 39.1494C16.9043 39.1494 16.918 39.3435 17.6135 39.3435" stroke="#263238" stroke-width="0.114759" stroke-linecap="round" stroke-linejoin="round"/>
<path d="M20.0865 61.2461C19.1341 62.1936 18.402 63.3347 17.9414 64.5902" stroke="#263238" stroke-width="0.114759" stroke-linecap="round" stroke-linejoin="round"/>
<path d="M9.68652 43.8169C9.62563 44.9814 11.0066 49.1115 11.427 51.165C11.8474 53.2184 12.0026 54.6701 12.0026 54.6701" stroke="#263238" stroke-width="0.114759" stroke-linecap="round" stroke-linejoin="round"/>
<path d="M4.39648 71.9203C6.28625 68.5277 8.10334 65.0361 9.42932 61.2689C9.58844 60.7274 9.37628 60.0229 9.5354 59.4814C11.3152 54.5904 9.29574 49.4996 9.62773 44.4922C9.90471 42.5183 10.5431 40.529 11.1835 38.5396C11.4841 37.0995 11.5961 35.4905 12.0774 34.0426C12.5724 32.9519 13.0596 31.6825 14.1145 31.1313C16.1182 35.6671 18.116 40.2242 19.9782 44.8745C20.819 44.3951 20.9604 43.3218 21.096 42.4213C21.5478 40.2611 22.0055 38.2795 22.8325 36.4629C23.6733 34.9995 25.8145 34.3765 27.1287 35.572C27.5059 35.9449 27.7215 36.4481 27.7298 36.9753C27.4745 39.4828 26.6769 42.0215 25.8735 44.366C25.5572 45.449 25.235 46.3554 25.0995 47.4306C25.1152 47.7858 25.1211 47.9644 25.1368 48.3215C24.6712 50.1245 25.0995 51.7122 24.9934 53.5016C24.5868 56.7293 21.9741 58.9768 20.0824 61.3737C19.6168 63.1768 19.1493 64.9798 18.5108 66.7906C17.7251 69.4981 17.4736 72.1862 17.2045 74.7967" stroke="#263238" stroke-width="0.114759" stroke-linecap="round" stroke-linejoin="round"/>
<path d="M49.0193 20.2104H32.7383V44.5713H49.0193V20.2104Z" fill="white" stroke="#263238" stroke-width="0.114759" stroke-linecap="round" stroke-linejoin="round"/>
<path d="M33.9582 21.8688L38.1959 21.8602" stroke="#263238" stroke-width="0.229517" stroke-linecap="round" stroke-linejoin="round"/>
<path d="M33.9624 22.6789L36.8444 22.672" stroke="#263238" stroke-width="0.229517" stroke-linecap="round" stroke-linejoin="round"/>
<path d="M34.9973 24.5893L47.1861 24.5634" stroke="#263238" stroke-width="0.229517" stroke-linecap="round" stroke-linejoin="round"/>
<path d="M35.0004 25.3975L47.189 25.3734" stroke="#263238" stroke-width="0.229517" stroke-linecap="round" stroke-linejoin="round"/>
<path d="M35.0018 26.3419L45.3964 26.3213" stroke="#263238" stroke-width="0.229517" stroke-linecap="round" stroke-linejoin="round"/>
<path d="M36.046 27.2006L35.0547 27.2026L35.0568 28.1895L36.048 28.1874L36.046 27.2006Z" stroke="#263238" stroke-width="0.114759" stroke-linecap="round" stroke-linejoin="round"/>
<path d="M37.8419 27.1957L36.8506 27.1978L36.8527 28.1846L37.8439 28.1825L37.8419 27.1957Z" stroke="#263238" stroke-width="0.114759" stroke-linecap="round" stroke-linejoin="round"/>
<path d="M39.6397 27.1918L38.6484 27.1938L38.6505 28.1807L39.6418 28.1786L39.6397 27.1918Z" stroke="#263238" stroke-width="0.114759" stroke-linecap="round" stroke-linejoin="round"/>
<path d="M41.4376 27.1884L40.4463 27.1904L40.4484 28.1773L41.4397 28.1752L41.4376 27.1884Z" stroke="#263238" stroke-width="0.114759" stroke-linecap="round" stroke-linejoin="round"/>
<path d="M34.3491 24.5877C34.3497 24.6369 34.3356 24.6852 34.3085 24.7264C34.2814 24.7676 34.2427 24.7999 34.1971 24.8191C34.1516 24.8383 34.1014 24.8436 34.0528 24.8343C34.0043 24.825 33.9596 24.8016 33.9244 24.7669C33.8893 24.7323 33.8653 24.688 33.8555 24.6398C33.8457 24.5915 33.8506 24.5415 33.8694 24.4959C33.8883 24.4504 33.9203 24.4116 33.9614 24.3842C34.0026 24.3569 34.0509 24.3423 34.1004 24.3424C34.1659 24.3426 34.2287 24.3684 34.2753 24.4143C34.3218 24.4602 34.3484 24.5225 34.3491 24.5877Z" fill="#263238"/>
<path d="M35.008 29.3115L47.1968 29.2855" stroke="#263238" stroke-width="0.229517" stroke-linecap="round" stroke-linejoin="round"/>
<path d="M35.0092 30.1196L47.1978 30.0956" stroke="#263238" stroke-width="0.229517" stroke-linecap="round" stroke-linejoin="round"/>
<path d="M35.0114 31.0669L45.4061 31.0445" stroke="#263238" stroke-width="0.229517" stroke-linecap="round" stroke-linejoin="round"/>
<path d="M36.0567 31.9227L35.0654 31.9248L35.0675 32.9116L36.0588 32.9096L36.0567 31.9227Z" stroke="#263238" stroke-width="0.114759" stroke-linecap="round" stroke-linejoin="round"/>
<path d="M37.8546 31.9208L36.8633 31.9229L36.8654 32.9097L37.8566 32.9076L37.8546 31.9208Z" stroke="#263238" stroke-width="0.114759" stroke-linecap="round" stroke-linejoin="round"/>
<path d="M39.6514 31.9159L38.6602 31.918L38.6622 32.9048L39.6535 32.9027L39.6514 31.9159Z" stroke="#263238" stroke-width="0.114759" stroke-linecap="round" stroke-linejoin="round"/>
<path d="M41.4483 31.912L40.457 31.9141L40.4591 32.9009L41.4504 32.8988L41.4483 31.912Z" stroke="#263238" stroke-width="0.114759" stroke-linecap="round" stroke-linejoin="round"/>
<path d="M34.3609 29.3133C34.361 29.3624 34.3466 29.4105 34.3193 29.4515C34.292 29.4924 34.2531 29.5244 34.2075 29.5433C34.1619 29.5622 34.1117 29.5672 34.0633 29.5577C34.0148 29.5482 33.9703 29.5245 33.9354 29.4898C33.9005 29.4551 33.8767 29.4108 33.8671 29.3626C33.8575 29.3144 33.8624 29.2644 33.8814 29.219C33.9003 29.1736 33.9324 29.1348 33.9735 29.1076C34.0146 29.0804 34.0629 29.0659 34.1123 29.0661C34.1781 29.0663 34.2412 29.0924 34.2878 29.1387C34.3343 29.185 34.3606 29.2478 34.3609 29.3133Z" fill="#263238"/>
<path d="M35.017 34.0347L47.2056 34.0106" stroke="#263238" stroke-width="0.229517" stroke-linecap="round" stroke-linejoin="round"/>
<path d="M35.0197 34.8452L47.2066 34.819" stroke="#263238" stroke-width="0.229517" stroke-linecap="round" stroke-linejoin="round"/>
<path d="M35.0211 35.7901L45.4159 35.7676" stroke="#263238" stroke-width="0.229517" stroke-linecap="round" stroke-linejoin="round"/>
<path d="M36.0655 36.6473L35.0742 36.6494L35.0763 37.6363L36.0676 37.6342L36.0655 36.6473Z" stroke="#263238" stroke-width="0.114759" stroke-linecap="round" stroke-linejoin="round"/>
<path d="M37.8633 36.6434L36.8721 36.6455L36.8742 37.6323L37.8654 37.6303L37.8633 36.6434Z" stroke="#263238" stroke-width="0.114759" stroke-linecap="round" stroke-linejoin="round"/>
<path d="M39.6631 36.6405L38.6719 36.6426L38.674 37.6294L39.6652 37.6273L39.6631 36.6405Z" stroke="#263238" stroke-width="0.114759" stroke-linecap="round" stroke-linejoin="round"/>
<path d="M41.4571 36.6361L40.4658 36.6382L40.4679 37.625L41.4592 37.6229L41.4571 36.6361Z" stroke="#263238" stroke-width="0.114759" stroke-linecap="round" stroke-linejoin="round"/>
<path d="M34.3687 34.0374C34.3689 34.0866 34.3544 34.1347 34.3271 34.1756C34.2998 34.2166 34.2609 34.2485 34.2153 34.2674C34.1697 34.2863 34.1195 34.2913 34.0711 34.2818C34.0226 34.2723 33.9781 34.2487 33.9432 34.2139C33.9083 34.1792 33.8845 34.1349 33.8749 34.0867C33.8653 34.0385 33.8703 33.9885 33.8892 33.9431C33.9082 33.8977 33.9402 33.859 33.9813 33.8317C34.0224 33.8045 34.0707 33.7901 34.1201 33.7902C34.1859 33.7904 34.249 33.8165 34.2956 33.8628C34.3421 33.9091 34.3684 33.9719 34.3687 34.0374Z" fill="#263238"/>
<path d="M35.0268 38.8926L47.2135 38.8684" stroke="#263238" stroke-width="0.229517" stroke-linecap="round" stroke-linejoin="round"/>
<path d="M35.0277 39.7031L47.2144 39.6789" stroke="#263238" stroke-width="0.229517" stroke-linecap="round" stroke-linejoin="round"/>
<path d="M35.0282 40.6475L45.4227 40.627" stroke="#263238" stroke-width="0.229517" stroke-linecap="round" stroke-linejoin="round"/>
<path d="M36.0772 41.5057L35.0859 41.5078L35.088 42.4947L36.0793 42.4926L36.0772 41.5057Z" stroke="#263238" stroke-width="0.114759" stroke-linecap="round" stroke-linejoin="round"/>
<path d="M37.8731 41.5013L36.8818 41.5034L36.8839 42.4903L37.8752 42.4882L37.8731 41.5013Z" stroke="#263238" stroke-width="0.114759" stroke-linecap="round" stroke-linejoin="round"/>
<path d="M39.671 41.4974L38.6797 41.4995L38.6818 42.4863L39.673 42.4843L39.671 41.4974Z" stroke="#263238" stroke-width="0.114759" stroke-linecap="round" stroke-linejoin="round"/>
<path d="M41.4678 41.493L40.4766 41.4951L40.4787 42.482L41.4699 42.4799L41.4678 41.493Z" stroke="#263238" stroke-width="0.114759" stroke-linecap="round" stroke-linejoin="round"/>
<path d="M34.3874 38.8942C34.3876 38.9429 34.3733 38.9905 34.3463 39.0311C34.3193 39.0717 34.2808 39.1034 34.2357 39.1222C34.1906 39.141 34.1409 39.1461 34.0929 39.1368C34.0449 39.1276 34.0008 39.1043 33.966 39.0701C33.9313 39.0358 33.9075 38.9921 33.8978 38.9444C33.888 38.8967 33.8926 38.8472 33.9111 38.8021C33.9296 38.757 33.9611 38.7184 34.0016 38.6912C34.0421 38.6639 34.0898 38.6492 34.1387 38.6489C34.1712 38.6487 34.2034 38.6549 34.2335 38.6672C34.2637 38.6794 34.291 38.6974 34.3141 38.7202C34.3372 38.743 34.3556 38.7701 34.3682 38.7999C34.3808 38.8298 34.3873 38.8618 34.3874 38.8942Z" fill="#263238"/>
<path d="M35.4116 27.5953L35.552 27.807L36.0474 27.201" stroke="#263238" stroke-width="0.229517" stroke-linecap="round" stroke-linejoin="round"/>
<path d="M39.0161 32.252L39.1564 32.4657L39.6519 31.8578" stroke="#263238" stroke-width="0.229517" stroke-linecap="round" stroke-linejoin="round"/>
<path d="M37.228 37.0772L37.3702 37.2911L37.8638 36.683" stroke="#263238" stroke-width="0.229517" stroke-linecap="round" stroke-linejoin="round"/>
<path d="M40.8091 41.8887L40.9493 42.1024L41.4449 41.4945" stroke="#263238" stroke-width="0.229517" stroke-linecap="round" stroke-linejoin="round"/>
<defs>
<clipPath id="clip0_66867_14487">
<rect width="15.0258" height="20.7621" fill="white" transform="matrix(0.998836 0.0482276 -0.0490328 0.998797 51.8096 26.667)"/>
</clipPath>
<clipPath id="clip1_66867_14487">
<rect width="15.0086" height="20.7861" fill="white" transform="matrix(0.927964 -0.372671 0.378023 0.925796 12.3604 29.0293)"/>
</clipPath>
</defs>
</svg>
