<svg width="32" height="32" viewBox="0 0 32 32" fill="none" xmlns="http://www.w3.org/2000/svg">
<circle cx="16" cy="16" r="16" fill="#FEEEE4"/>
<g clip-path="url(#clip0_2120_11523)">
<path d="M16.441 22.2533V22.4305C16.441 22.7822 16.7038 23.0454 17.0555 23.0454H18.0597C18.4114 23.0454 18.6367 22.7822 18.6367 22.4305V21.1694M7.60254 21.1138V22.4305C7.60254 22.7822 7.89298 23.0454 8.24465 23.0454H9.24889C9.60057 23.0454 9.82605 22.7822 9.82605 22.4305V22.2533L7.60254 21.1138Z" stroke="#F0792E" stroke-width="0.732422" stroke-miterlimit="10" stroke-linecap="round" stroke-linejoin="round"/>
<path d="M19.346 16.1258H18.4729C18.3213 16.1258 18.1892 16.2105 18.1528 16.3577L18.1329 16.4498C18.1061 16.5581 18.0089 16.6455 17.8972 16.6455H17.694L17.5787 16.4193C17.0273 15.388 15.9508 14.729 14.7814 14.729H11.5407C10.3713 14.729 9.29681 15.388 8.74543 16.4193L8.63025 16.6455H8.44324C8.33159 16.6455 8.23435 16.5488 8.2076 16.4404L8.18766 16.368C8.15131 16.2208 8.01921 16.1258 7.86753 16.1258H6.99443C6.7531 16.1258 6.55566 16.3232 6.55566 16.5646V16.8222C6.55566 17.1002 6.78312 17.3277 7.06113 17.3277H8.2528L8.15607 17.5188L7.54614 18.2381C7.324 18.5124 7.18457 18.8432 7.18457 19.1962V19.8651C7.18457 20.6117 7.60972 21.2989 8.26433 21.6579L8.50689 21.8035C8.77676 21.9515 9.08569 22.0703 9.39305 22.0703H16.9289C17.2363 22.0703 17.5361 21.9515 17.806 21.8035L18.0256 21.6667C18.6803 21.3077 19.0734 20.6117 19.0734 19.8651V19.1962C19.0734 18.8431 18.966 18.5008 18.7438 18.2264L18.159 17.5212L18.0643 17.3277H19.2932C19.5191 17.3277 19.7023 17.1445 19.7023 16.9185V16.4821C19.7024 16.2853 19.5429 16.1258 19.346 16.1258Z" stroke="#F0792E" stroke-width="0.732422" stroke-miterlimit="10" stroke-linecap="round" stroke-linejoin="round"/>
<path d="M18.9488 19.0205C18.847 19.2305 18.6597 19.3991 18.4149 19.469L17.6681 19.6824C17.5447 19.7176 17.4124 19.6728 17.3359 19.5698L17.2172 19.4099C17.114 19.271 17.1453 19.0744 17.2865 18.9744L18.4824 18.1283M15.9411 15.8945C16.3144 16.1636 16.5979 16.547 16.7273 17.0046C16.7143 17.0064 15.6893 17.4482 13.1586 17.4482C10.6252 17.4482 9.60067 17.0075 9.58996 17.006C9.72768 16.5726 9.99018 16.2055 10.3321 15.939L15.9411 15.8945ZM7.77887 18.1548L8.97474 19.0009C9.116 19.1009 9.14732 19.2975 9.04416 19.4364L8.92537 19.5963C8.84888 19.6993 8.71659 19.7441 8.59323 19.7089L7.84639 19.4955C7.60156 19.4255 7.41436 19.2569 7.3125 19.0469L7.77887 18.1548ZM11.031 20.9508C10.814 20.9508 10.1368 20.7678 10.1368 20.7678C9.8276 20.6936 9.79542 20.3253 10.088 20.2126C10.088 20.2126 11.0771 19.974 11.5592 19.974H14.7815C15.2406 19.974 16.2527 20.2183 16.2527 20.2183C16.5452 20.3311 16.5131 20.6779 16.2038 20.7522C16.2038 20.7522 15.5266 20.9508 15.3097 20.9508L11.031 20.9508Z" stroke="#F0792E" stroke-width="0.732422" stroke-miterlimit="10" stroke-linecap="round" stroke-linejoin="round"/>
<path d="M18.3236 11.4362H14.2046L16.1891 9.2124H22.7284L24.713 11.4362H20.6536" stroke="#F0792E" stroke-width="0.683594" stroke-miterlimit="10" stroke-linecap="round" stroke-linejoin="round"/>
<path d="M20.6538 19.2349H24.7613" stroke="#F0792E" stroke-width="0.683594" stroke-miterlimit="10" stroke-linecap="round" stroke-linejoin="round"/>
<path d="M20.6538 18.1191H24.7613" stroke="#F0792E" stroke-width="0.683594" stroke-miterlimit="10" stroke-linecap="round" stroke-linejoin="round"/>
<path d="M20.6538 17.0029H24.7613" stroke="#F0792E" stroke-width="0.683594" stroke-miterlimit="10" stroke-linecap="round" stroke-linejoin="round"/>
<path d="M20.6538 15.8867H24.7613" stroke="#F0792E" stroke-width="0.683594" stroke-miterlimit="10" stroke-linecap="round" stroke-linejoin="round"/>
<path d="M20.6538 14.7705H24.7613" stroke="#F0792E" stroke-width="0.683594" stroke-miterlimit="10" stroke-linecap="round" stroke-linejoin="round"/>
<path d="M20.6538 13.6548H24.7613" stroke="#F0792E" stroke-width="0.683594" stroke-miterlimit="10" stroke-linecap="round" stroke-linejoin="round"/>
<path d="M20.6538 12.5415H24.7613" stroke="#F0792E" stroke-width="0.683594" stroke-miterlimit="10" stroke-linecap="round" stroke-linejoin="round"/>
<path d="M20.6538 20.3481H24.7613" stroke="#F0792E" stroke-width="0.683594" stroke-miterlimit="10" stroke-linecap="round" stroke-linejoin="round"/>
<path d="M20.6538 21.4644H24.7613" stroke="#F0792E" stroke-width="0.683594" stroke-miterlimit="10" stroke-linecap="round" stroke-linejoin="round"/>
<path d="M14.2256 13.6548H18.2925" stroke="#F0792E" stroke-width="0.683594" stroke-miterlimit="10" stroke-linecap="round" stroke-linejoin="round"/>
<path d="M14.2256 12.5415H18.2925" stroke="#F0792E" stroke-width="0.683594" stroke-miterlimit="10" stroke-linecap="round" stroke-linejoin="round"/>
<path d="M19.9321 22.5806H24.7613" stroke="#F0792E" stroke-width="0.683594" stroke-miterlimit="10" stroke-linecap="round" stroke-linejoin="round"/>
<path d="M18.3237 14.6931V11.4362L18.7519 9.2124" stroke="#F0792E" stroke-width="0.683594" stroke-miterlimit="10" stroke-linecap="round" stroke-linejoin="round"/>
<path d="M20.2256 9.2124L20.6537 11.4362V22.5803" stroke="#F0792E" stroke-width="0.683594" stroke-miterlimit="10" stroke-linecap="round" stroke-linejoin="round"/>
</g>
<defs>
<clipPath id="clip0_2120_11523">
<rect width="19.0476" height="19.0476" fill="white" transform="translate(6.09521 6.09521)"/>
</clipPath>
</defs>
</svg>
