<svg width="88" height="80" viewBox="0 0 88 80" fill="none" xmlns="http://www.w3.org/2000/svg">
<path d="M29.4265 13.085C29.7315 13.8 29.816 14.5911 29.6692 15.358C29.5224 16.125 29.151 16.8334 28.6019 17.3936C28.0528 17.9538 27.3507 18.3407 26.5845 18.5051C25.8183 18.6696 25.0224 18.6044 24.2976 18.3176C23.5727 18.0309 22.9515 17.5356 22.5125 16.8944C22.0736 16.2532 21.8366 15.4948 21.8315 14.7154C21.8265 13.936 22.0536 13.1705 22.4842 12.5158C22.9148 11.8611 23.5295 11.3466 24.2504 11.0375C24.7283 10.8319 25.2413 10.7217 25.7601 10.7134C26.2789 10.705 26.7934 10.7986 27.274 10.9887C27.7547 11.1789 28.1922 11.4619 28.5616 11.8215C28.9309 12.1812 29.2248 12.6106 29.4265 13.085Z" fill="#F9C0A8"/>
<path d="M28.5591 13.4573C28.7916 14.0023 28.8559 14.6051 28.744 15.1896C28.6321 15.7741 28.349 16.3139 27.9305 16.7408C27.512 17.1677 26.9769 17.4624 26.393 17.5877C25.8091 17.713 25.2026 17.6632 24.6502 17.4446C24.0979 17.226 23.6245 16.8485 23.2901 16.3598C22.9556 15.8711 22.7751 15.2932 22.7713 14.6992C22.7676 14.1052 22.9408 13.5219 23.269 13.023C23.5973 12.5241 24.0658 12.1321 24.6153 11.8967C24.9794 11.7401 25.3703 11.6562 25.7656 11.6499C26.161 11.6436 26.5529 11.7149 26.9192 11.8598C27.2854 12.0048 27.6188 12.2205 27.9002 12.4946C28.1815 12.7687 28.4055 13.0958 28.5591 13.4573Z" fill="#FCD3C3"/>
<path d="M25.7398 13.0084C25.8284 12.9205 25.8309 12.7796 25.7455 12.6938C25.66 12.608 25.5189 12.6096 25.4303 12.6975L24.1598 13.9579C24.0712 14.0458 24.0687 14.1867 24.1542 14.2725C24.2396 14.3583 24.3807 14.3567 24.4693 14.2688L24.8335 13.9075C24.9838 13.7579 25.2053 13.7073 25.3998 13.7782L24.6876 14.4848C24.599 14.5727 24.5965 14.7136 24.6819 14.7994C24.7674 14.8853 24.9086 14.8835 24.9971 14.7957L25.7094 14.089C25.7782 14.2838 25.7263 14.5041 25.5763 14.6536L25.2122 15.0148C25.1465 15.0802 25.1261 15.1778 25.1606 15.2612C25.1952 15.3445 25.2778 15.397 25.3692 15.3936L27.1052 15.3243C27.1623 15.3218 27.2168 15.2975 27.2576 15.2565C27.3015 15.2125 27.3264 15.1533 27.3268 15.0922C27.3262 15.0333 27.3023 14.9778 27.2601 14.9379C27.218 14.898 27.1612 14.8769 27.1022 14.8793L25.9243 14.9263C26.2194 14.5988 26.2696 14.123 26.0478 13.7564L26.2676 13.5384C26.3562 13.4505 26.3587 13.3097 26.2732 13.2238C26.1877 13.138 26.0466 13.1396 25.958 13.2275L25.7383 13.4456C25.6425 13.3867 25.5366 13.3453 25.4254 13.3234L25.7414 13.0099L25.7398 13.0084Z" fill="#F38D5D"/>
<path d="M28.5221 13.3728C28.5048 13.3763 28.4429 13.2649 28.3082 13.0731C28.1205 12.8029 27.8915 12.5637 27.6293 12.3644C27.4489 12.2292 27.2542 12.1139 27.0485 12.0207C26.8119 11.9158 26.5625 11.8417 26.3064 11.8003C26.1688 11.7771 26.0295 11.7644 25.8898 11.7625C25.5942 11.7568 25.2991 11.7954 25.0142 11.8772C24.8648 11.9206 24.7188 11.975 24.5774 12.04C24.4365 12.1067 24.3006 12.1833 24.1705 12.2692C24.045 12.3538 23.9261 12.4478 23.8149 12.5504C23.7067 12.6484 23.6066 12.7549 23.5155 12.8688C23.4271 12.9785 23.3469 13.0944 23.2756 13.2157C23.1423 13.4386 23.0382 13.6774 22.9658 13.9263C22.9032 14.1438 22.865 14.3674 22.8519 14.5928C22.8344 14.9225 22.8682 15.2525 22.9522 15.5709C23.012 15.7979 23.0593 15.9212 23.0428 15.9286C23.0263 15.9359 22.9542 15.8236 22.8668 15.5983C22.745 15.2765 22.6846 14.9345 22.6886 14.5895C22.6948 14.0711 22.8348 13.5618 23.0952 13.1107C23.2487 12.8436 23.4407 12.6002 23.6652 12.3885C23.784 12.2767 23.9117 12.1745 24.0469 12.0831C24.1864 11.9893 24.3329 11.9062 24.4849 11.8346C24.6377 11.7642 24.7956 11.7056 24.9573 11.6595C25.1144 11.6139 25.2747 11.5811 25.4369 11.5613C25.5927 11.5428 25.7497 11.5365 25.9063 11.5427C26.0563 11.5474 26.2056 11.5637 26.353 11.5913C26.6239 11.643 26.8863 11.7308 27.1331 11.8525C27.3462 11.957 27.5459 12.0864 27.7281 12.2379C27.9937 12.4572 28.2156 12.7242 28.3826 13.0252C28.4993 13.2375 28.5349 13.3672 28.5221 13.3728Z" fill="#F38D5D"/>
<path d="M51.8254 60.6663C51.7514 61.2776 51.4961 61.8537 51.0917 62.3216C50.6872 62.7896 50.1519 63.1284 49.5534 63.2952C48.9548 63.462 48.3201 63.4493 47.7294 63.2587C47.1387 63.0681 46.6186 62.7082 46.2349 62.2244C45.8513 61.7407 45.6213 61.1549 45.5741 60.5412C45.527 59.9275 45.6647 59.3135 45.9699 58.7769C46.2751 58.2402 46.7341 57.8051 47.2887 57.5265C47.8434 57.248 48.4688 57.1385 49.0858 57.212C49.495 57.2602 49.8905 57.3878 50.2497 57.5875C50.6088 57.7873 50.9247 58.0552 51.1791 58.376C51.4335 58.6968 51.6215 59.0642 51.7324 59.4571C51.8433 59.8501 51.8749 60.261 51.8254 60.6663Z" fill="#F9C0A8"/>
<path d="M51.0822 60.5784C51.0258 61.0443 50.8312 61.4833 50.523 61.8399C50.2147 62.1965 49.8067 62.4546 49.3506 62.5817C48.8945 62.7088 48.4107 62.6991 47.9606 62.5538C47.5104 62.4085 47.1141 62.1341 46.8218 61.7654C46.5295 61.3967 46.3543 60.9503 46.3184 60.4826C46.2826 60.0149 46.3876 59.547 46.6203 59.1381C46.8529 58.7292 47.2028 58.3977 47.6255 58.1855C48.0482 57.9732 48.5248 57.8899 48.995 57.946C49.3068 57.9828 49.6081 58.0801 49.8818 58.2323C50.1555 58.3845 50.3961 58.5887 50.5899 58.8332C50.7837 59.0776 50.927 59.3576 51.0114 59.6571C51.0959 59.9565 51.1199 60.2696 51.0822 60.5784Z" fill="#FCD3C3"/>
<path d="M49.3267 59.153C49.4223 59.1278 49.4798 59.0322 49.4551 58.9395C49.4305 58.8468 49.333 58.792 49.2375 58.8172L47.8668 59.1786C47.7712 59.2038 47.7137 59.2995 47.7384 59.3922C47.763 59.4849 47.8604 59.5396 47.956 59.5144L48.3489 59.4108C48.5112 59.3677 48.6832 59.4208 48.7886 59.5464L48.0202 59.7491C47.9246 59.7743 47.8671 59.8699 47.8917 59.9626C47.9163 60.0553 48.0138 60.1101 48.1094 60.0849L48.8778 59.8822C48.8479 60.0431 48.725 60.1736 48.563 60.2168L48.1701 60.3204C48.0992 60.3392 48.0465 60.398 48.0372 60.4689C48.0279 60.5398 48.0638 60.6085 48.1278 60.6424L49.346 61.2824C49.3862 61.3032 49.4333 61.3081 49.4775 61.2962C49.525 61.2834 49.5655 61.2526 49.59 61.2109C49.6129 61.1703 49.6184 61.1227 49.6054 61.0787C49.5923 61.0346 49.5616 60.9976 49.5202 60.9759L48.6937 60.5417C49.0258 60.4339 49.2486 60.1274 49.2417 59.7881L49.4788 59.7256C49.5744 59.7004 49.6319 59.6048 49.6072 59.512C49.5826 59.4193 49.4852 59.3646 49.3896 59.3898L49.1525 59.4523C49.1101 59.374 49.0538 59.3036 48.9862 59.2446L49.3271 59.1547L49.3267 59.153Z" fill="#F38D5D"/>
<path d="M51.09 60.5057C51.0767 60.5013 51.0784 60.4004 51.062 60.2155C51.0402 59.9558 50.9778 59.701 50.877 59.4605C50.8068 59.2963 50.7188 59.1401 50.6147 58.9947C50.4939 58.8291 50.3522 58.6795 50.1929 58.5496C50.1077 58.4792 50.0172 58.4154 49.9221 58.3587C49.7216 58.2377 49.5039 58.1474 49.2761 58.0906C49.1565 58.0612 49.0347 58.0407 48.912 58.0293C48.7889 58.0193 48.6653 58.018 48.5421 58.0254C48.4225 58.0337 48.3037 58.0511 48.1868 58.0775C48.0738 58.1018 47.9629 58.1352 47.8553 58.1773C47.7513 58.2175 47.6504 58.2653 47.5534 58.3202C47.3737 58.4203 47.2077 58.5429 47.0595 58.685C46.9304 58.8094 46.8157 58.9476 46.7174 59.0971C46.5748 59.3163 46.4674 59.556 46.3989 59.8077C46.35 59.9871 46.3336 60.0904 46.3194 60.0889C46.3051 60.0874 46.3002 59.9818 46.3294 59.7927C46.3733 59.5237 46.4673 59.2651 46.6067 59.0301C46.8162 58.677 47.114 58.3831 47.4713 58.1767C47.6823 58.0543 47.9104 57.9635 48.1482 57.9071C48.2741 57.8775 48.4021 57.858 48.5311 57.8488C48.6639 57.8397 48.7972 57.8407 48.9299 57.8518C49.0626 57.864 49.1941 57.8864 49.3233 57.9188C49.4491 57.9497 49.5721 57.9907 49.6911 58.0414C49.8054 58.0903 49.9155 58.1482 50.0205 58.2145C50.1215 58.2771 50.2175 58.3474 50.3076 58.4247C50.473 58.5674 50.6182 58.7316 50.7393 58.9128C50.8441 59.0689 50.9299 59.2367 50.9948 59.4129C51.0901 59.6685 51.1366 59.9395 51.132 60.212C51.128 60.4039 51.101 60.507 51.09 60.5057Z" fill="#F38D5D"/>
<path d="M19.5684 16.286C19.81 16.8524 19.8769 17.4789 19.7606 18.0864C19.6444 18.6939 19.3502 19.255 18.9152 19.6987C18.4803 20.1425 17.9242 20.4488 17.3174 20.5791C16.7105 20.7094 16.0801 20.6577 15.506 20.4306C14.9319 20.2035 14.4398 19.8112 14.0921 19.3033C13.7444 18.7954 13.5567 18.1948 13.5527 17.5774C13.5487 16.9601 13.7286 16.3538 14.0697 15.8352C14.4107 15.3166 14.8976 14.9091 15.4687 14.6643C15.8472 14.5014 16.2535 14.4142 16.6644 14.4076C17.0753 14.4009 17.4828 14.4751 17.8635 14.6257C18.2443 14.7763 18.5908 15.0004 18.8833 15.2853C19.1758 15.5702 19.4086 15.9103 19.5684 16.286Z" fill="#F9C0A8"/>
<path d="M18.8814 16.5815C19.0655 17.0131 19.1164 17.4906 19.0278 17.9536C18.9391 18.4165 18.7149 18.8441 18.3834 19.1822C18.052 19.5203 17.6282 19.7538 17.1657 19.853C16.7032 19.9522 16.2228 19.9128 15.7853 19.7397C15.3478 19.5665 14.9729 19.2675 14.7079 18.8804C14.443 18.4933 14.3 18.0356 14.2971 17.5651C14.2941 17.0947 14.4313 16.6326 14.6913 16.2375C14.9513 15.8424 15.3224 15.5319 15.7576 15.3454C16.046 15.2213 16.3556 15.1549 16.6688 15.1499C16.9819 15.1449 17.2923 15.2014 17.5824 15.3162C17.8725 15.431 18.1365 15.6018 18.3594 15.8189C18.5823 16.0361 18.7596 16.2952 18.8814 16.5815Z" fill="#FCD3C3"/>
<path d="M16.6493 16.2251C16.7195 16.1554 16.7215 16.0439 16.6538 15.9759C16.5861 15.908 16.4743 15.9092 16.4041 15.9788L15.3979 16.9772C15.3277 17.0468 15.3257 17.1584 15.3934 17.2263C15.4611 17.2943 15.5728 17.293 15.643 17.2234L15.9314 16.9373C16.0505 16.8187 16.226 16.7787 16.38 16.8348L15.8159 17.3945C15.7457 17.4641 15.7437 17.5757 15.8114 17.6437C15.8791 17.7117 15.9909 17.7103 16.061 17.6407L16.6252 17.081C16.6798 17.2353 16.6386 17.4098 16.5198 17.5282L16.2314 17.8143C16.1793 17.8661 16.1632 17.9434 16.1906 18.0094C16.2179 18.0755 16.2834 18.117 16.3558 18.1143L17.7308 18.0595C17.776 18.0574 17.8192 18.0382 17.8515 18.0057C17.8863 17.9709 17.906 17.924 17.9063 17.8756C17.9059 17.829 17.8869 17.785 17.8535 17.7534C17.8201 17.7218 17.7751 17.7051 17.7284 17.707L16.7955 17.7442C17.0292 17.4848 17.069 17.108 16.8933 16.8176L17.0673 16.6449C17.1375 16.5753 17.1395 16.4637 17.0718 16.3957C17.0041 16.3277 16.8923 16.329 16.8222 16.3987L16.6481 16.5713C16.5723 16.5247 16.4883 16.4919 16.4003 16.4746L16.6506 16.2263L16.6493 16.2251Z" fill="#F38D5D"/>
<path d="M18.8527 16.5148C18.839 16.5176 18.79 16.4294 18.6833 16.2774C18.5346 16.0634 18.3532 15.874 18.1456 15.716C18.0027 15.609 17.8484 15.5177 17.6855 15.4438C17.4981 15.3608 17.3006 15.3021 17.0978 15.2693C16.9888 15.2509 16.8785 15.2409 16.7678 15.2393C16.5337 15.2348 16.2999 15.2654 16.0743 15.3301C15.956 15.3645 15.8403 15.4076 15.7282 15.4591C15.6167 15.512 15.509 15.5726 15.406 15.6407C15.3066 15.7077 15.2124 15.7821 15.1243 15.8634C15.0386 15.941 14.9593 16.0254 14.8872 16.1156C14.8172 16.2024 14.7537 16.2943 14.6972 16.3903C14.5916 16.5669 14.5091 16.7561 14.4518 16.9532C14.4022 17.1255 14.3719 17.3025 14.3616 17.4811C14.3477 17.7422 14.3745 18.0036 14.4411 18.2558C14.4884 18.4356 14.5259 18.5333 14.5128 18.5391C14.4997 18.5449 14.4426 18.456 14.3734 18.2775C14.2769 18.0227 14.2291 17.7517 14.2322 17.4785C14.2371 17.0679 14.348 16.6645 14.5543 16.3072C14.6758 16.0956 14.828 15.9029 15.0057 15.7352C15.0999 15.6466 15.201 15.5657 15.3081 15.4932C15.4186 15.4189 15.5346 15.3532 15.655 15.2964C15.776 15.2406 15.9011 15.1943 16.0292 15.1578C16.1536 15.1216 16.2806 15.0956 16.4091 15.08C16.5325 15.0653 16.6568 15.0603 16.7808 15.0652C16.8997 15.069 17.0179 15.0818 17.1346 15.1037C17.3492 15.1447 17.557 15.2142 17.7525 15.3106C17.9213 15.3934 18.0795 15.4958 18.2238 15.6159C18.4342 15.7896 18.6099 16.001 18.7422 16.2394C18.8347 16.4076 18.8629 16.5103 18.8527 16.5148Z" fill="#F38D5D"/>
<path d="M45.3313 65.5169C45.238 66.2887 44.9156 67.016 44.405 67.6068C43.8944 68.1976 43.2185 68.6254 42.4628 68.836C41.7072 69.0466 40.9058 69.0306 40.16 68.7899C39.4142 68.5493 38.7576 68.0948 38.2732 67.4841C37.7888 66.8734 37.4985 66.1338 37.439 65.359C37.3794 64.5842 37.5533 63.809 37.9386 63.1315C38.324 62.4539 38.9034 61.9046 39.6037 61.5529C40.3039 61.2012 41.0935 61.063 41.8725 61.1557C42.3891 61.2166 42.8885 61.3777 43.3419 61.6299C43.7954 61.882 44.1942 62.2203 44.5154 62.6253C44.8366 63.0303 45.074 63.4942 45.214 63.9903C45.354 64.4865 45.3938 65.0052 45.3313 65.5169Z" fill="#F9C0A8"/>
<path d="M44.3942 65.4066C44.3231 65.9947 44.0774 66.549 43.6882 66.9992C43.299 67.4494 42.7839 67.7754 42.2081 67.9358C41.6322 68.0963 41.0215 68.084 40.4531 67.9006C39.8848 67.7171 39.3844 67.3707 39.0154 66.9052C38.6463 66.4398 38.4252 65.8761 38.3799 65.2857C38.3346 64.6952 38.4672 64.1045 38.7609 63.5882C39.0547 63.0719 39.4963 62.6533 40.03 62.3854C40.5637 62.1175 41.1655 62.0123 41.7591 62.0831C42.1528 62.1296 42.5332 62.2524 42.8787 62.4446C43.2242 62.6368 43.528 62.8945 43.7728 63.2032C44.0175 63.5118 44.1983 63.8653 44.3049 64.2434C44.4116 64.6214 44.4419 65.0167 44.3942 65.4066Z" fill="#FCD3C3"/>
<path d="M42.1773 63.6069C42.298 63.5751 42.3706 63.4544 42.3395 63.3373C42.3084 63.2203 42.1854 63.1511 42.0647 63.1829L40.3342 63.6393C40.2135 63.6711 40.141 63.7919 40.172 63.9089C40.2032 64.026 40.3262 64.0951 40.4469 64.0632L40.9428 63.9325C41.1478 63.878 41.365 63.945 41.498 64.1036L40.5278 64.3595C40.4072 64.3913 40.3346 64.5121 40.3656 64.6291C40.3968 64.7462 40.5199 64.8152 40.6405 64.7834L41.6106 64.5276C41.5729 64.7307 41.4178 64.8955 41.2131 64.95L40.7172 65.0808C40.6276 65.1045 40.5611 65.1788 40.5493 65.2683C40.5376 65.3578 40.5829 65.4446 40.6638 65.4873L42.2018 66.2953C42.2525 66.3216 42.3119 66.3279 42.3677 66.3128C42.4277 66.2966 42.4789 66.2578 42.5098 66.2051C42.5387 66.1538 42.5457 66.0938 42.5292 66.0382C42.5127 65.9825 42.474 65.9358 42.4217 65.9084L41.3782 65.3602C41.7975 65.2241 42.0788 64.8372 42.0701 64.4088L42.3694 64.3298C42.4901 64.298 42.5627 64.1773 42.5316 64.0602C42.5004 63.9431 42.3774 63.874 42.2567 63.9059L41.9574 63.9848C41.9039 63.8859 41.8329 63.7971 41.7475 63.7226L42.1779 63.6091L42.1773 63.6069Z" fill="#F38D5D"/>
<path d="M44.4048 65.3148C44.3881 65.3092 44.3902 65.1818 44.3695 64.9484C44.342 64.6205 44.2633 64.2989 44.1359 63.9951C44.0473 63.7878 43.9362 63.5907 43.8048 63.4071C43.6523 63.1979 43.4733 63.0091 43.2723 62.8452C43.1647 62.7562 43.0504 62.6757 42.9304 62.6041C42.6773 62.4514 42.4023 62.3373 42.1148 62.2656C41.9637 62.2285 41.81 62.2027 41.655 62.1882C41.4997 62.1756 41.3437 62.1739 41.1881 62.1833C41.0371 62.1938 40.8871 62.2158 40.7395 62.249C40.5968 62.2798 40.4569 62.3219 40.321 62.3751C40.1896 62.4258 40.0622 62.4861 39.9398 62.5555C39.7129 62.6819 39.5033 62.8367 39.3163 63.016C39.1533 63.1731 39.0084 63.3476 38.8843 63.5363C38.7043 63.8131 38.5687 64.1157 38.4822 64.4335C38.4205 64.66 38.3998 64.7904 38.3818 64.7885C38.3638 64.7867 38.3576 64.6534 38.3945 64.4145C38.4499 64.075 38.5686 63.7485 38.7446 63.4518C39.0091 63.0059 39.385 62.6349 39.8361 62.3744C40.1026 62.2198 40.3906 62.1051 40.6908 62.0339C40.8497 61.9965 41.0113 61.9719 41.1741 61.9603C41.3419 61.9488 41.5102 61.9501 41.6777 61.9641C41.8452 61.9795 42.0112 62.0078 42.1743 62.0487C42.3331 62.0877 42.4885 62.1395 42.6387 62.2035C42.783 62.2653 42.922 62.3384 43.0545 62.422C43.1821 62.5011 43.3033 62.5898 43.4171 62.6874C43.6259 62.8677 43.8092 63.0749 43.9621 63.3037C44.0944 63.5007 44.2027 63.7127 44.2847 63.935C44.405 64.2577 44.4637 64.5999 44.4578 64.944C44.4528 65.1863 44.4188 65.3164 44.4048 65.3148Z" fill="#F38D5D"/>
<g clip-path="url(#clip0_834_31686)">
<path d="M65.8022 27.9955L52.7637 27.366L51.8096 46.8007L64.8481 47.4303L65.8022 27.9955Z" fill="white" stroke="#263238" stroke-width="0.114759" stroke-linecap="round" stroke-linejoin="round"/>
<path d="M53.6766 28.7368L57.0706 28.8939" stroke="#263238" stroke-width="0.229517" stroke-linecap="round" stroke-linejoin="round"/>
<path d="M53.6453 29.3834L55.9535 29.4894" stroke="#263238" stroke-width="0.229517" stroke-linecap="round" stroke-linejoin="round"/>
<path d="M54.4005 30.947L64.1628 31.3976" stroke="#263238" stroke-width="0.229517" stroke-linecap="round" stroke-linejoin="round"/>
<path d="M54.3704 31.5915L64.1325 32.0436" stroke="#263238" stroke-width="0.229517" stroke-linecap="round" stroke-linejoin="round"/>
<path d="M54.3362 32.3453L62.6614 32.7308" stroke="#263238" stroke-width="0.229517" stroke-linecap="round" stroke-linejoin="round"/>
<path d="M55.1396 33.0711L54.3457 33.0344L54.3087 33.8218L55.1027 33.8585L55.1396 33.0711Z" stroke="#263238" stroke-width="0.114759" stroke-linecap="round" stroke-linejoin="round"/>
<path d="M56.5781 33.1368L55.7842 33.1001L55.7472 33.8875L56.5411 33.9241L56.5781 33.1368Z" stroke="#263238" stroke-width="0.114759" stroke-linecap="round" stroke-linejoin="round"/>
<path d="M58.0185 33.2037L57.2246 33.167L57.1876 33.9544L57.9816 33.991L58.0185 33.2037Z" stroke="#263238" stroke-width="0.114759" stroke-linecap="round" stroke-linejoin="round"/>
<path d="M59.457 33.2696L58.6631 33.2329L58.6261 34.0203L59.42 34.0569L59.457 33.2696Z" stroke="#263238" stroke-width="0.114759" stroke-linecap="round" stroke-linejoin="round"/>
<path d="M53.8819 30.9216C53.8805 30.9609 53.8672 30.9989 53.8439 31.0307C53.8207 31.0625 53.7884 31.0868 53.7511 31.1003C53.7139 31.1139 53.6735 31.1162 53.635 31.1069C53.5964 31.0976 53.5616 31.0772 53.5348 31.0482C53.508 31.0192 53.4905 30.9829 53.4846 30.944C53.4786 30.9052 53.4845 30.8654 53.5014 30.8298C53.5182 30.7943 53.5454 30.7645 53.5794 30.7443C53.6134 30.7241 53.6527 30.7143 53.6923 30.7163C53.7448 30.719 53.7941 30.742 53.8296 30.7804C53.8651 30.8188 53.8839 30.8695 53.8819 30.9216Z" fill="#263238"/>
<path d="M54.2237 34.7153L63.986 35.1659" stroke="#263238" stroke-width="0.229517" stroke-linecap="round" stroke-linejoin="round"/>
<path d="M54.1937 35.3603L63.9558 35.8124" stroke="#263238" stroke-width="0.229517" stroke-linecap="round" stroke-linejoin="round"/>
<path d="M54.1583 36.1158L62.4837 36.4998" stroke="#263238" stroke-width="0.229517" stroke-linecap="round" stroke-linejoin="round"/>
<path d="M54.9629 36.8394L54.1689 36.8027L54.132 37.5901L54.9259 37.6268L54.9629 36.8394Z" stroke="#263238" stroke-width="0.114759" stroke-linecap="round" stroke-linejoin="round"/>
<path d="M56.4014 36.9063L55.6074 36.8696L55.5704 37.657L56.3644 37.6937L56.4014 36.9063Z" stroke="#263238" stroke-width="0.114759" stroke-linecap="round" stroke-linejoin="round"/>
<path d="M57.8408 36.9732L57.0469 36.9365L57.0099 37.7239L57.8038 37.7606L57.8408 36.9732Z" stroke="#263238" stroke-width="0.114759" stroke-linecap="round" stroke-linejoin="round"/>
<path d="M59.2793 37.0389L58.4854 37.0022L58.4484 37.7896L59.2423 37.8262L59.2793 37.0389Z" stroke="#263238" stroke-width="0.114759" stroke-linecap="round" stroke-linejoin="round"/>
<path d="M53.7051 34.6922C53.7033 34.7314 53.6898 34.7692 53.6664 34.8008C53.6429 34.8325 53.6105 34.8564 53.5733 34.8698C53.536 34.8831 53.4956 34.8852 53.4572 34.8757C53.4188 34.8662 53.3841 34.8456 53.3575 34.8166C53.3308 34.7875 53.3135 34.7513 53.3077 34.7124C53.3019 34.6736 53.3079 34.6339 53.3248 34.5984C53.3418 34.563 53.369 34.5333 53.4029 34.5131C53.4369 34.493 53.4762 34.4833 53.5157 34.4854C53.5684 34.4881 53.6179 34.5113 53.6534 34.5501C53.6889 34.5888 53.7075 34.6399 53.7051 34.6922Z" fill="#263238"/>
<path d="M54.0462 38.4833L63.8083 38.9354" stroke="#263238" stroke-width="0.229517" stroke-linecap="round" stroke-linejoin="round"/>
<path d="M54.0167 39.1306L63.7774 39.581" stroke="#263238" stroke-width="0.229517" stroke-linecap="round" stroke-linejoin="round"/>
<path d="M53.9815 39.8846L62.3069 40.2686" stroke="#263238" stroke-width="0.229517" stroke-linecap="round" stroke-linejoin="round"/>
<path d="M54.7861 40.6075L53.9922 40.5708L53.9552 41.3582L54.7491 41.3948L54.7861 40.6075Z" stroke="#263238" stroke-width="0.114759" stroke-linecap="round" stroke-linejoin="round"/>
<path d="M56.2246 40.6744L55.4307 40.6377L55.3937 41.4251L56.1876 41.4617L56.2246 40.6744Z" stroke="#263238" stroke-width="0.114759" stroke-linecap="round" stroke-linejoin="round"/>
<path d="M57.665 40.7427L56.8711 40.7061L56.8341 41.4934L57.628 41.5301L57.665 40.7427Z" stroke="#263238" stroke-width="0.114759" stroke-linecap="round" stroke-linejoin="round"/>
<path d="M59.1025 40.8084L58.3086 40.7717L58.2716 41.5591L59.0655 41.5958L59.1025 40.8084Z" stroke="#263238" stroke-width="0.114759" stroke-linecap="round" stroke-linejoin="round"/>
<path d="M53.5283 38.4603C53.5266 38.4995 53.5131 38.5373 53.4896 38.5689C53.4661 38.6005 53.4337 38.6245 53.3965 38.6378C53.3593 38.6512 53.3189 38.6532 53.2805 38.6437C53.242 38.6343 53.2073 38.6137 53.1807 38.5846C53.1541 38.5556 53.1368 38.5193 53.131 38.4805C53.1252 38.4417 53.1311 38.402 53.1481 38.3665C53.165 38.331 53.1922 38.3013 53.2262 38.2812C53.2602 38.2611 53.2994 38.2514 53.339 38.2534C53.3917 38.2561 53.4412 38.2794 53.4766 38.3181C53.5121 38.3569 53.5307 38.408 53.5283 38.4603Z" fill="#263238"/>
<path d="M53.8656 42.3593L63.6261 42.8112" stroke="#263238" stroke-width="0.229517" stroke-linecap="round" stroke-linejoin="round"/>
<path d="M53.8353 43.0065L63.5958 43.4584" stroke="#263238" stroke-width="0.229517" stroke-linecap="round" stroke-linejoin="round"/>
<path d="M53.7981 43.7598L62.1233 44.1453" stroke="#263238" stroke-width="0.229517" stroke-linecap="round" stroke-linejoin="round"/>
<path d="M54.6045 44.4847L53.8105 44.448L53.7736 45.2354L54.5675 45.272L54.6045 44.4847Z" stroke="#263238" stroke-width="0.114759" stroke-linecap="round" stroke-linejoin="round"/>
<path d="M56.042 44.5511L55.248 44.5144L55.2111 45.3018L56.005 45.3384L56.042 44.5511Z" stroke="#263238" stroke-width="0.114759" stroke-linecap="round" stroke-linejoin="round"/>
<path d="M57.4814 44.6175L56.6875 44.5808L56.6505 45.3682L57.4445 45.4048L57.4814 44.6175Z" stroke="#263238" stroke-width="0.114759" stroke-linecap="round" stroke-linejoin="round"/>
<path d="M58.9219 44.6832L58.1279 44.6465L58.091 45.4339L58.8849 45.4705L58.9219 44.6832Z" stroke="#263238" stroke-width="0.114759" stroke-linecap="round" stroke-linejoin="round"/>
<path d="M53.3516 42.3371C53.3499 42.3759 53.3365 42.4134 53.3133 42.4447C53.2901 42.4761 53.2581 42.4999 53.2212 42.5131C53.1844 42.5264 53.1444 42.5286 53.1063 42.5193C53.0682 42.51 53.0338 42.4898 53.0073 42.4611C52.9808 42.4325 52.9635 42.3966 52.9575 42.3582C52.9516 42.3198 52.9572 42.2805 52.9738 42.2452C52.9903 42.21 53.0171 42.1804 53.0506 42.1602C53.0841 42.14 53.1229 42.1301 53.162 42.1318C53.1881 42.1329 53.2137 42.1391 53.2373 42.15C53.2609 42.161 53.2821 42.1764 53.2998 42.1955C53.3174 42.2145 53.331 42.2369 53.3399 42.2612C53.3488 42.2855 53.3528 42.3113 53.3516 42.3371Z" fill="#263238"/>
<path d="M54.6154 33.3618L54.7195 33.5362L55.14 33.0719" stroke="#263238" stroke-width="0.229517" stroke-linecap="round" stroke-linejoin="round"/>
<path d="M57.3185 37.2158L57.4224 37.3917L57.8431 36.9259" stroke="#263238" stroke-width="0.229517" stroke-linecap="round" stroke-linejoin="round"/>
<path d="M55.6974 40.9961L55.8029 41.1722L56.222 40.7061" stroke="#263238" stroke-width="0.229517" stroke-linecap="round" stroke-linejoin="round"/>
<path d="M58.3781 44.9734L58.482 45.1493L58.9027 44.6834" stroke="#263238" stroke-width="0.229517" stroke-linecap="round" stroke-linejoin="round"/>
</g>
<path opacity="0.2" d="M53.3382 48.5396C53.3382 48.5396 53.3224 55.9614 53.3382 56.3942C53.3539 56.827 53.9275 59.4336 53.9275 59.4336L52.1025 62.7563L53.6741 64.0062L56.7287 61.0386C56.7287 61.0386 59.3296 62.6263 59.805 64.8971C60.2804 67.1679 63.1111 68.8215 66.0479 75.1098C68.9847 81.3982 72.3341 61.0386 72.3341 61.0386L63.2722 49.7681L53.3382 48.5396Z" fill="black" fill-opacity="0.7"/>
<path d="M80.6464 77.5585L66.699 79.9031C66.699 79.9031 64.271 67.1614 62.8232 65.1526C61.3755 63.1438 61.6446 62.319 60.9374 60.9662C60.5131 60.1491 58.3837 58.6255 56.7159 57.1214C56.5705 56.9913 56.4291 56.8613 56.2935 56.7332C56.2346 56.6808 56.1796 56.6245 56.1246 56.5721C55.9026 56.3547 55.6963 56.1432 55.5136 55.9355C55.4469 55.8617 55.3814 55.788 55.3172 55.7142C55.0075 55.3736 54.7769 54.9702 54.6414 54.5323C54.6355 54.5127 54.6315 54.4925 54.6297 54.4721C54.624 54.4485 54.62 54.4245 54.6179 54.4003C54.5805 54.0995 54.5413 53.7559 54.502 53.3833C54.502 53.3095 54.4863 53.2319 54.4764 53.1543L54.4646 53.0611C54.4313 52.7506 54.3939 52.4206 54.3507 52.081C54.3075 51.7413 54.2603 51.357 54.2053 50.9863C54.1877 50.8582 54.17 50.7301 54.1484 50.5982C54.1268 50.4545 54.1032 50.3109 54.0796 50.1653L54.0148 49.7927C54.0148 49.7713 54.005 49.7519 54.003 49.7345L53.9244 49.2978C53.9191 49.2821 53.9158 49.2658 53.9146 49.2493C53.8871 49.1231 53.8616 48.9989 53.8321 48.8727C53.7712 48.5913 53.7025 48.3157 53.6357 48.0479C53.5004 47.5438 53.3264 47.0507 53.1151 46.5728C52.1093 44.3544 53.4176 45.156 52.6299 39.448C52.6299 39.448 53.2094 38.1243 54.8615 39.1821C54.9891 39.2644 55.1124 39.3531 55.2308 39.448C55.5656 39.7155 55.8611 40.0277 56.1089 40.3757C56.4447 40.8494 56.7008 41.3738 56.8671 41.9284C57.1371 42.8279 57.2134 43.7733 57.0911 44.7038C57.0911 44.7038 58.3326 48.9077 58.9867 49.8645C59.6409 50.8214 62.3459 45.3249 62.1711 44.6844C62.1097 44.3971 62.0631 44.1069 62.0316 43.8149C62.0198 43.7198 62.008 43.6208 61.9943 43.5121C61.9805 43.4034 61.9687 43.2947 61.9569 43.1802C61.9569 43.1259 61.9432 43.0676 61.9353 43.0114C61.9353 42.9881 61.9353 42.9648 61.9353 42.9434C61.9118 42.7241 61.8843 42.4912 61.8587 42.2505C61.8587 42.1826 61.845 42.1186 61.8371 42.0565L61.8017 41.7071C61.8006 41.6877 61.8006 41.6683 61.8017 41.6489C61.8017 41.5829 61.786 41.515 61.7801 41.4451C61.7644 41.3092 61.7507 41.1714 61.7369 41.0336C61.7232 40.8958 61.7133 40.7969 61.7016 40.6785C61.678 40.4553 61.6564 40.2321 61.6348 40.0166C61.6191 39.8555 61.6033 39.6964 61.5896 39.5411C61.5896 39.5062 61.5896 39.4712 61.5798 39.4383C61.4973 38.5843 61.4324 37.8856 61.4089 37.5828C61.4089 37.5828 59.4444 34.7065 59.248 33.3517C59.0516 31.997 59.0633 30.5705 59.8864 29.9902C61.8351 28.6199 61.2615 30.8286 62.1377 31.737C63.0138 32.6453 64.3476 34.1494 65.1059 34.6172C65.8052 35.0558 66.4299 36.7521 66.5183 37.0083C66.4181 36.6357 65.4182 32.9713 65.3966 32.2338C65.3711 31.4575 64.77 27.3506 65.7895 25.8775C66.809 24.4044 68.1684 25.5476 68.2941 25.8387C68.4199 26.1298 68.4572 30.1086 68.8167 31.2149C69.1762 32.3211 70.6809 36.9346 70.6809 36.9346C70.6809 36.9346 70.7438 32.4473 71.0836 30.4385C71.4235 28.4297 72.3055 26.8596 73.1698 26.7703C74.0342 26.681 74.8337 27.6223 74.8337 27.6223C74.8337 27.6223 74.4919 30.8248 74.5901 31.5642C74.6883 32.3037 74.4487 34.9743 74.8592 36.4163C74.8592 36.4163 74.8121 32.5909 75.4132 32.1018C76.0143 31.6127 76.5309 31.3779 76.8688 31.7137C77.2067 32.0494 77.2794 34.3086 77.6232 35.6711C77.9669 37.0335 77.9237 38.8851 78.1496 41.0103C78.3755 43.1356 79.2654 46.0857 79.0886 47.7723C78.9118 49.4589 78.3677 53.6414 77.9296 56.0966C77.4915 58.5518 76.3738 61.9191 76.3738 61.9191C76.3738 61.9191 76.8826 63.7144 76.7844 65.3156C76.6861 66.9168 80.6464 77.5585 80.6464 77.5585Z" fill="white"/>
<path opacity="0.8" d="M68.7936 31.2116C69.0608 32.0325 69.9526 34.773 70.3966 36.1413C70.3966 36.1413 68.4479 37.5562 68.497 38.8721C68.5461 40.188 68.1394 42.8431 67.2633 42.7674C66.3872 42.6917 66.4775 37.1661 66.1809 36.2384C66.3597 36.6265 66.4736 36.9623 66.4972 37.0264C66.4324 36.7876 65.3912 32.9855 65.3696 32.2324C65.3696 32.0539 65.3284 31.7026 65.2871 31.2465V31.2368C65.2871 31.2368 67.224 29.4046 68.6463 30.5264C68.6781 30.7581 68.7273 30.9871 68.7936 31.2116Z" fill="#FFE4C8"/>
<path opacity="0.8" d="M74.5851 32.8016C73.6775 33.6536 72.3083 35.1558 72.1354 36.6056C72.1354 36.6056 72.6423 40.6543 72.4262 42.4185L70.6582 36.9433C70.6582 36.9433 70.7211 32.4561 71.0609 30.4473L71.0904 30.2823C72.1937 29.7268 73.4116 29.4293 74.6499 29.4128C74.574 30.127 74.5484 30.8456 74.5733 31.5633C74.5993 31.9756 74.6033 32.3889 74.5851 32.8016Z" fill="#FFE4C8"/>
<path opacity="0.4" d="M75.3876 32.0944C75.366 32.1099 75.3129 32.1507 75.2363 32.2167C75.2826 32.1292 75.3338 32.0443 75.3896 31.9624L75.3876 32.0944Z" fill="#92E3A9"/>
<path opacity="0.8" d="M75.851 43.2818C75.851 43.2818 74.6841 38.9576 74.6723 35.4757C74.6625 34.187 74.8138 33.0128 75.2361 32.219C75.2824 32.1315 75.3335 32.0466 75.3893 31.9647V32.0909C75.5996 31.9095 75.8335 31.7568 76.0847 31.6367C75.7567 32.1413 75.3795 33.1292 75.8156 34.7421C76.5012 37.2535 75.904 40.324 75.851 43.2818Z" fill="#FFE4C8"/>
<path opacity="0.8" d="M59.7549 51.5287C59.7549 51.5287 60.0673 55.6492 56.716 57.1242C56.5706 56.9942 56.4292 56.8641 56.2936 56.736C56.2347 56.6836 56.1797 56.6273 56.1247 56.5749C55.9027 56.3576 55.6964 56.1441 55.5137 55.9383C55.445 55.8626 55.3841 55.7889 55.3173 55.7171C55.0076 55.3764 54.777 54.973 54.6415 54.5351C54.6357 54.5155 54.6318 54.4953 54.6298 54.4749C54.6241 54.4513 54.6201 54.4273 54.618 54.4031C54.5806 54.1023 54.5414 53.7588 54.5021 53.3861C54.5021 53.3124 54.4864 53.2347 54.4765 53.1571L54.4647 53.0639C54.4314 52.7515 54.394 52.4235 54.3508 52.0838C54.3076 51.7442 54.2604 51.3599 54.2054 50.9892C54.1858 50.8611 54.1681 50.731 54.1485 50.601C54.1269 50.4574 54.1033 50.3118 54.0797 50.1682L54.0149 49.7955L54.0031 49.7373C53.9756 49.5918 53.9501 49.4501 53.9206 49.3064C53.9164 49.2905 53.9131 49.2743 53.9108 49.2579C53.8833 49.1318 53.8577 49.0056 53.8283 48.8814C53.7654 48.6 53.6967 48.3244 53.6318 48.0565C54.9578 46.795 58.0184 47.5869 56.5372 44.6659C56.5372 44.6659 57.2837 42.166 55.2269 39.4566C56.6335 40.5765 57.3544 42.5465 57.0872 44.6969C57.0872 44.6969 58.3288 48.8989 58.9829 49.8576C59.6371 50.8164 62.3421 45.318 62.1672 44.6756C62.1058 44.389 62.0599 44.0994 62.0297 43.808C62.016 43.7129 62.0042 43.6139 61.9924 43.5052C61.9806 43.3965 61.9649 43.2879 61.9531 43.1714C61.9531 43.119 61.9394 43.0608 61.9315 43.0045C61.9315 42.9812 61.9315 42.9579 61.9315 42.9366C61.9079 42.7153 61.8824 42.4843 61.8549 42.2417C61.8549 42.1758 61.8411 42.1117 61.8333 42.0477C61.8333 41.9312 61.8097 41.8148 61.7979 41.6983C61.7969 41.6789 61.7969 41.6595 61.7979 41.6401C61.7979 41.5741 61.7822 41.5062 61.7763 41.4363C61.7606 41.2985 61.7488 41.1626 61.7331 41.0248L61.6977 40.6677C61.6742 40.4465 61.6526 40.2233 61.6309 40.0078C61.6172 39.8448 61.6015 39.6856 61.5858 39.5323C61.5858 39.4974 61.5858 39.4624 61.5759 39.4294C61.6309 39.6837 62.6269 44.367 63.1946 45.4597C63.7623 46.5815 61.2911 52.4991 59.7549 51.5287Z" fill="#FFE4C8"/>
<path opacity="0.8" d="M77.9047 56.0912C77.4667 58.5484 76.3489 61.9138 76.3489 61.9138C76.3489 61.9138 76.8577 63.7091 76.7595 65.3103C76.732 65.7411 77.0031 66.828 77.4077 68.1886C77.2918 67.8897 76.0326 64.6834 76.0601 63.5635C76.0837 62.399 75.7458 62.0671 75.0779 60.6251C74.41 59.183 73.4062 59.3402 73.4062 59.3402C73.4062 59.3402 73.0133 62.9386 72.1018 60.5746C71.1903 58.2106 71.0116 55.4605 73.3158 45.9115C73.3158 45.9115 73.6635 47.109 73.3728 50.6666C73.0821 54.2241 73.9425 55.3013 73.9425 55.3013C75.2382 53.0713 76.2666 50.6998 77.007 48.2347C77.007 48.2347 76.7084 52.3861 76.4432 54.2765C76.178 56.1669 77.3881 52.0853 78.2328 49.5641C79.0185 47.1963 79.0559 46.2977 78.7534 44.613C78.9773 45.7989 79.1462 46.9304 79.0598 47.7572C78.8869 49.4419 78.3428 53.6283 77.9047 56.0912Z" fill="#FFE4C8"/>
<path opacity="0.8" d="M62.1445 64.0857C62.8242 65.1551 64.4881 66.5661 65.484 70.4692C66.48 74.3722 65.8514 78.644 65.8514 78.644L62.1445 64.0857Z" fill="#FFE4C8"/>
<path opacity="0.8" d="M56.7959 41.9309C56.7959 41.9309 53.3169 43.6777 53.0419 46.589C52.0361 44.3706 53.3444 45.1721 52.5566 39.4641C52.5566 39.4641 53.1361 38.1404 54.7882 39.1982C54.9159 39.2805 55.0391 39.3692 55.1575 39.4641C55.4923 39.7316 55.7879 40.0439 56.0356 40.3918L56.7959 41.9309Z" fill="#FFE4C8" fill-opacity="0.7"/>
<path d="M66.6991 79.9037C66.6991 79.9037 64.273 67.162 62.8233 65.1533C61.3736 63.1445 61.6447 62.3196 60.9375 60.9668C60.2303 59.6141 54.8615 56.3204 54.6238 54.399C54.3861 52.4776 54.115 48.7938 53.1073 46.5754C52.0995 44.357 53.4098 45.1586 52.6201 39.4486C52.6201 39.4486 53.2094 38.1269 54.8537 39.1847C56.4979 40.2424 57.374 42.356 57.0852 44.6986C57.0852 44.6986 58.3268 48.9006 58.9829 49.8594C59.639 50.8181 62.3381 45.3197 62.1652 44.6773C61.9924 44.0349 61.4718 38.5694 61.3893 37.5738C61.3893 37.5738 59.4249 34.6955 59.2284 33.3408C59.032 31.986 59.0438 30.5595 59.8669 29.9811C61.8156 28.6109 61.2419 30.8196 62.1181 31.7279C62.9942 32.6362 64.328 34.1365 65.0843 34.6062C65.8406 35.0759 66.5086 37.0264 66.5086 37.0264C66.5086 37.0264 65.3987 33.0011 65.377 32.2228C65.3554 31.4445 64.7504 27.3396 65.7699 25.8665C66.7895 24.3934 68.1488 25.5366 68.2746 25.8277C68.4003 26.1188 68.4376 30.0976 68.7991 31.2019C69.1605 32.3063 70.6594 36.9236 70.6594 36.9236C70.6594 36.9236 70.7242 32.4363 71.064 30.4275C71.4039 28.4188 72.2879 26.8486 73.1502 26.7593C74.0126 26.67 74.8141 27.6114 74.8141 27.6114C74.8141 27.6114 74.4723 30.8138 74.5686 31.5532C74.6648 32.2927 74.4291 34.9614 74.8396 36.4054C74.8396 36.4054 74.7925 32.5799 75.3936 32.0908C75.9947 31.6018 76.5114 31.3669 76.8492 31.7027C77.1871 32.0384 77.2598 34.2976 77.6036 35.6601C77.9474 37.0226 77.9061 38.8741 78.13 40.9994C78.354 43.1246 79.2458 46.0747 79.069 47.7593C78.8922 49.444 78.3481 53.6304 77.9081 56.0856C77.468 58.5408 76.3562 61.9082 76.3562 61.9082C76.3562 61.9082 76.865 63.7034 76.7648 65.3046C76.6646 66.9059 80.6524 77.565 80.6524 77.565" stroke="#263238" stroke-width="0.114759" stroke-linecap="round" stroke-linejoin="round"/>
<path d="M70.6543 36.9329C71.0609 37.8761 72.0647 41.8568 72.4223 42.4099C72.604 42.7154 72.8697 42.9637 73.1884 43.1261" stroke="#263238" stroke-width="0.114759" stroke-linecap="round" stroke-linejoin="round"/>
<path d="M74.8339 36.4094C74.8339 36.4094 74.7475 37.2246 75.1934 39.8273C75.6393 42.4299 75.8573 43.5362 76.1088 44.1165" stroke="#263238" stroke-width="0.114759" stroke-linecap="round" stroke-linejoin="round"/>
<path d="M66.501 37.0364C67.0451 38.6221 67.3535 41.149 67.6639 41.9099C67.9743 42.6707 68.2532 42.8279 68.2532 42.8279" stroke="#263238" stroke-width="0.114759" stroke-linecap="round" stroke-linejoin="round"/>
<path d="M67.3818 40.8401C67.7096 41.086 67.969 41.4098 68.1362 41.7814" stroke="#263238" stroke-width="0.114759" stroke-linecap="round" stroke-linejoin="round"/>
<path d="M58.9824 49.8613C58.9824 49.8613 59.281 51.9633 60.6129 51.8022" stroke="#263238" stroke-width="0.114759" stroke-linecap="round" stroke-linejoin="round"/>
<path d="M62.1653 44.679C62.1653 44.679 62.5091 47.1788 61.9434 48.2385" stroke="#263238" stroke-width="0.114759" stroke-linecap="round" stroke-linejoin="round"/>
<path d="M72.8183 44.7026C72.8183 44.7026 73.7141 45.2441 73.1149 46.8376C72.5158 48.431 71.4727 54.8397 71.4727 54.8397" stroke="#263238" stroke-width="0.114759" stroke-linecap="round" stroke-linejoin="round"/>
<path d="M76.7173 46.387C77.0925 47.8232 77.1259 47.8601 76.5209 49.6243C75.9159 51.3885 74.9238 55.7031 74.9238 55.7031" stroke="#263238" stroke-width="0.114759" stroke-linecap="round" stroke-linejoin="round"/>
<path d="M76.3497 61.9028C76.3497 61.9028 75.7604 60.7382 76.2476 59.7678" stroke="#263238" stroke-width="0.114759" stroke-linecap="round" stroke-linejoin="round"/>
<path d="M62.8232 65.1553C62.8232 65.1553 64.3044 67.2106 64.9487 69.5105" stroke="#263238" stroke-width="0.114759" stroke-linecap="round" stroke-linejoin="round"/>
<path d="M73.7227 29.1273L74.1234 28.7353L74.3041 28.6848L74.2923 28.8789L73.925 29.3428L73.7227 29.1273Z" fill="#757575" stroke="#263238" stroke-width="0.114759" stroke-linecap="round" stroke-linejoin="round"/>
<path d="M74.0464 29.3425L73.3942 30.804L55.8716 53.8866L53.9209 52.658L56.5768 49.3741L72.3137 29.8685L73.7026 28.9971C73.7852 29.0204 73.8603 29.0645 73.9206 29.125C73.9808 29.1856 74.0242 29.2605 74.0464 29.3425Z" fill="#20446C"/>
<path opacity="0.3" d="M74.0464 29.3425L73.3942 30.804L55.8716 53.8866L53.9209 52.658L56.5768 49.3741C57.7928 49.2499 57.9971 49.9563 57.9971 49.9563L73.0877 30.4915C72.9384 29.9694 72.302 29.8685 72.302 29.8685L73.6908 28.9971C73.7756 29.0186 73.8532 29.0619 73.9156 29.1226C73.978 29.1832 74.0231 29.2591 74.0464 29.3425Z" fill="black" fill-opacity="0.7"/>
<path d="M74.0464 29.3425L73.3942 30.804L55.8716 53.8866L53.9209 52.658L56.5768 49.3741L72.3137 29.8685L73.7026 28.9971C73.7852 29.0204 73.8603 29.0645 73.9206 29.125C73.9808 29.1856 74.0242 29.2605 74.0464 29.3425Z" stroke="#263238" stroke-width="0.114759" stroke-linecap="round" stroke-linejoin="round"/>
<path d="M61.588 47.0529C61.588 47.0529 59.6236 50.8881 57.7496 53.6014L56.4059 53.9449C56.4059 53.9449 53.3218 56.9726 51.4399 58.4826C51.0982 58.273 50.7886 58.0161 50.5205 57.7199C50.5205 57.7199 53.1921 52.6523 56.1486 49.4421C56.4948 49.5648 56.8211 49.7367 57.117 49.9526C57.5014 50.2204 57.8431 50.5436 58.1307 50.9114L61.425 46.8162L61.588 47.0529Z" fill="#F0792E"/>
<path opacity="0.3" d="M61.5886 47.0522C61.5886 47.0522 59.6242 50.8873 57.7501 53.6006L56.4065 53.9441C56.4065 53.9441 53.3223 56.9719 51.4404 58.4818L51.4915 57.6609C53.5325 54.5807 56.1256 51.2211 57.1176 49.9518C57.502 50.2196 57.8437 50.5428 58.1312 50.9106L56.3004 53.325L57.3494 53.1309L61.4256 46.8076L61.5886 47.0522Z" fill="black" fill-opacity="0.7"/>
<path d="M61.588 47.0529C61.588 47.0529 59.6236 50.8881 57.7496 53.6014L56.4059 53.9449C56.4059 53.9449 53.3218 56.9726 51.4399 58.4826C51.0982 58.273 50.7886 58.0161 50.5205 57.7199C50.5205 57.7199 53.1921 52.6523 56.1486 49.4421C56.4948 49.5648 56.8211 49.7367 57.117 49.9526C57.5014 50.2204 57.8431 50.5436 58.1307 50.9114L61.425 46.8162L61.588 47.0529Z" stroke="#263238" stroke-width="0.114759" stroke-linecap="round" stroke-linejoin="round"/>
<path d="M68.2513 42.8272L62.7765 48.0675L61.9023 48.9098C62.5015 47.3882 62.2107 45.0281 62.1734 44.7506C62.1739 44.7422 62.1739 44.7338 62.1734 44.7254C62.1746 44.7112 62.1746 44.6969 62.1734 44.6827C62.1119 44.3961 62.066 44.1065 62.0359 43.8151C62.0222 43.72 62.0104 43.621 61.9986 43.5123C61.9868 43.4036 61.9711 43.295 61.9593 43.1785C61.9593 43.1261 61.9456 43.0679 61.9377 43.0116C61.9377 42.9883 61.9377 42.965 61.9377 42.9437C61.9141 42.7243 61.8866 42.4914 61.8611 42.2488C61.8611 42.1828 61.8473 42.1188 61.8395 42.0548C61.8395 41.9383 61.8159 41.8219 61.8041 41.7054C61.803 41.686 61.803 41.6666 61.8041 41.6472C61.8041 41.5812 61.7884 41.5133 61.7825 41.4434C61.7668 41.3056 61.755 41.1697 61.7393 41.0319L61.7039 40.6748C61.6804 40.4536 61.6587 40.2304 61.6371 40.0149C61.6214 39.8519 61.6057 39.6947 61.592 39.5394C61.592 39.5045 61.592 39.4695 61.5821 39.4365C61.4996 38.5826 61.4348 37.8839 61.4112 37.5811C61.4112 37.5811 59.4468 34.7047 59.2504 33.3481C59.0539 31.9914 59.0657 30.5668 59.8888 29.9885C61.8375 28.6182 61.2639 30.8269 62.14 31.7352C63.0162 32.6436 64.35 34.1477 65.1083 34.6155C65.8665 35.0832 66.5305 37.0357 66.5305 37.0357C67.0746 38.6214 67.3831 41.1464 67.6934 41.9092C68.0038 42.6719 68.2513 42.8272 68.2513 42.8272Z" fill="white"/>
<path d="M67.3818 40.8401C67.7096 41.086 67.969 41.4098 68.1362 41.7814" stroke="#263238" stroke-width="0.114759" stroke-linecap="round" stroke-linejoin="round"/>
<path opacity="0.8" d="M62.1097 31.7361C62.978 32.6522 64.3118 34.1389 65.0701 34.6125C64.964 34.5601 63.5673 33.8885 62.7874 34.6357C61.9761 35.4121 61.3888 37.5761 61.3888 37.5761C61.3888 37.5761 59.4243 34.6998 59.2279 33.3431C59.0315 31.9865 59.0433 30.5619 59.8663 29.9835C61.8072 28.6133 61.2375 30.822 62.1097 31.7361Z" fill="#FFE4C8"/>
<path opacity="0.8" d="M62.7764 48.0716L61.9022 48.9101C62.5014 47.3884 62.2106 45.0284 62.1733 44.7508C62.1757 44.7282 62.1757 44.7055 62.1733 44.6829C62.1118 44.3963 62.0659 44.1067 62.0358 43.8153C62.0221 43.7202 62.0103 43.6212 61.9985 43.5126C61.9867 43.4039 61.971 43.2952 61.9592 43.1787C61.9592 43.1263 61.9454 43.0681 61.9376 43.0118C61.9376 42.9885 61.9376 42.9652 61.9376 42.9439C61.914 42.7226 61.8885 42.4917 61.861 42.2491C61.861 42.1831 61.8472 42.119 61.8394 42.055C61.8394 41.9385 61.8158 41.8221 61.804 41.7056C61.8029 41.6862 61.8029 41.6668 61.804 41.6474C61.804 41.5814 61.7883 41.5135 61.7824 41.4436C61.7667 41.3058 61.7549 41.1699 61.7392 41.0321L61.7038 40.675C61.6803 40.4538 61.6586 40.2306 61.637 40.0151C61.6233 39.8521 61.6076 39.693 61.5919 39.5396C61.5919 39.5047 61.5919 39.4698 61.582 39.4368C61.637 39.691 62.633 44.3743 63.2007 45.467C63.3932 45.8746 63.1948 46.9382 62.7764 48.0716Z" fill="#FFE4C8"/>
<path d="M68.2513 42.8276C68.2513 42.8276 67.9743 42.6704 67.662 41.9096C67.3496 41.1488 67.0432 38.6218 66.499 37.0361C66.499 37.0361 65.8331 35.0953 65.0748 34.6159C64.3166 34.1365 62.9808 32.6537 62.1086 31.7376C61.2364 30.8215 61.806 28.6128 59.8573 29.9908C59.0343 30.5731 59.0185 31.9957 59.2189 33.3505C59.4193 34.7052 61.3798 37.5835 61.3798 37.5835C61.4623 38.5791 61.9809 44.0465 62.1557 44.687" stroke="#263238" stroke-width="0.114759" stroke-linecap="round" stroke-linejoin="round"/>
<path d="M62.1653 44.679C62.1653 44.679 62.5091 47.1788 61.9434 48.2385" stroke="#263238" stroke-width="0.114759" stroke-linecap="round" stroke-linejoin="round"/>
<path opacity="0.2" d="M28.5646 47.7454C28.5646 47.7454 29.8081 53.4495 27.1148 57.601C24.4216 61.7525 22.3492 62.8568 21.418 64.0951C20.4869 65.3334 16.835 72.2486 16.835 72.2486L12.5723 59.7786L16.835 44.3469L28.5646 47.7454Z" fill="black" fill-opacity="0.7"/>
<g clip-path="url(#clip1_834_31686)">
<path d="M25.62 24.4072L13.5205 29.2664L20.8847 47.3015L32.9842 42.4424L25.62 24.4072Z" fill="white" stroke="#263238" stroke-width="0.114759" stroke-linecap="round" stroke-linejoin="round"/>
<path d="M14.9291 30.1294L18.0758 28.8583" stroke="#263238" stroke-width="0.229517" stroke-linecap="round" stroke-linejoin="round"/>
<path d="M15.175 30.7285L17.3146 29.8633" stroke="#263238" stroke-width="0.229517" stroke-linecap="round" stroke-linejoin="round"/>
<path d="M16.5223 31.8332L25.5728 28.1761" stroke="#263238" stroke-width="0.229517" stroke-linecap="round" stroke-linejoin="round"/>
<path d="M16.768 32.4308L25.8189 28.7752" stroke="#263238" stroke-width="0.229517" stroke-linecap="round" stroke-linejoin="round"/>
<path d="M17.0566 33.1301L24.7753 30.0126" stroke="#263238" stroke-width="0.229517" stroke-linecap="round" stroke-linejoin="round"/>
<path d="M18.0925 33.4531L17.3564 33.7505L17.6563 34.4805L18.3924 34.1831L18.0925 33.4531Z" stroke="#263238" stroke-width="0.114759" stroke-linecap="round" stroke-linejoin="round"/>
<path d="M19.4255 32.9143L18.6895 33.2117L18.9893 33.9416L19.7254 33.6442L19.4255 32.9143Z" stroke="#263238" stroke-width="0.114759" stroke-linecap="round" stroke-linejoin="round"/>
<path d="M20.7614 32.3745L20.0254 32.6719L20.3253 33.4018L21.0613 33.1045L20.7614 32.3745Z" stroke="#263238" stroke-width="0.114759" stroke-linecap="round" stroke-linejoin="round"/>
<path d="M22.0944 31.8349L21.3584 32.1323L21.6583 32.8623L22.3943 32.5649L22.0944 31.8349Z" stroke="#263238" stroke-width="0.114759" stroke-linecap="round" stroke-linejoin="round"/>
<path d="M16.0416 32.0262C16.0569 32.0625 16.061 32.1024 16.0533 32.141C16.0457 32.1796 16.0266 32.215 15.9986 32.2428C15.9706 32.2707 15.9348 32.2896 15.8959 32.2972C15.857 32.3048 15.8167 32.3008 15.7801 32.2856C15.7436 32.2705 15.7124 32.2448 15.6905 32.212C15.6686 32.1792 15.6571 32.1407 15.6574 32.1014C15.6576 32.0621 15.6697 32.0237 15.692 31.9912C15.7143 31.9587 15.7458 31.9335 15.7826 31.9188C15.8313 31.8994 15.8858 31.8998 15.9343 31.9198C15.9828 31.9399 16.0213 31.9781 16.0416 32.0262Z" fill="#263238"/>
<path d="M17.9569 35.3275L27.0073 31.6705" stroke="#263238" stroke-width="0.229517" stroke-linecap="round" stroke-linejoin="round"/>
<path d="M18.2035 35.9252L27.2544 32.2696" stroke="#263238" stroke-width="0.229517" stroke-linecap="round" stroke-linejoin="round"/>
<path d="M18.4917 36.6245L26.2099 33.5055" stroke="#263238" stroke-width="0.229517" stroke-linecap="round" stroke-linejoin="round"/>
<path d="M19.5271 36.9463L18.791 37.2437L19.0909 37.9736L19.8269 37.6762L19.5271 36.9463Z" stroke="#263238" stroke-width="0.114759" stroke-linecap="round" stroke-linejoin="round"/>
<path d="M20.8611 36.4087L20.125 36.7061L20.4249 37.436L21.1609 37.1386L20.8611 36.4087Z" stroke="#263238" stroke-width="0.114759" stroke-linecap="round" stroke-linejoin="round"/>
<path d="M22.196 35.8686L21.46 36.166L21.7598 36.896L22.4959 36.5986L22.196 35.8686Z" stroke="#263238" stroke-width="0.114759" stroke-linecap="round" stroke-linejoin="round"/>
<path d="M23.53 35.3305L22.7939 35.6279L23.0938 36.3579L23.8299 36.0605L23.53 35.3305Z" stroke="#263238" stroke-width="0.114759" stroke-linecap="round" stroke-linejoin="round"/>
<path d="M17.4767 35.522C17.4918 35.5583 17.4955 35.5983 17.4876 35.6367C17.4797 35.6752 17.4605 35.7105 17.4323 35.7381C17.4041 35.7657 17.3684 35.7844 17.3295 35.7918C17.2906 35.7992 17.2504 35.795 17.2139 35.7797C17.1775 35.7644 17.1464 35.7387 17.1247 35.7059C17.103 35.673 17.0916 35.6346 17.0919 35.5953C17.0923 35.556 17.1044 35.5178 17.1267 35.4853C17.149 35.4529 17.1806 35.4278 17.2173 35.4132C17.2663 35.3937 17.321 35.3942 17.3696 35.4146C17.4182 35.4349 17.4568 35.4736 17.4767 35.522Z" fill="#263238"/>
<path d="M19.393 38.8209L28.4439 35.1654" stroke="#263238" stroke-width="0.229517" stroke-linecap="round" stroke-linejoin="round"/>
<path d="M19.6385 39.4203L28.6875 35.7637" stroke="#263238" stroke-width="0.229517" stroke-linecap="round" stroke-linejoin="round"/>
<path d="M19.9262 40.1196L27.6445 37.0006" stroke="#263238" stroke-width="0.229517" stroke-linecap="round" stroke-linejoin="round"/>
<path d="M20.9626 40.4411L20.2266 40.7385L20.5264 41.4685L21.2625 41.1711L20.9626 40.4411Z" stroke="#263238" stroke-width="0.114759" stroke-linecap="round" stroke-linejoin="round"/>
<path d="M22.2966 39.9016L21.5605 40.199L21.8604 40.9289L22.5965 40.6316L22.2966 39.9016Z" stroke="#263238" stroke-width="0.114759" stroke-linecap="round" stroke-linejoin="round"/>
<path d="M23.6325 39.3635L22.8965 39.6609L23.1964 40.3909L23.9324 40.0935L23.6325 39.3635Z" stroke="#263238" stroke-width="0.114759" stroke-linecap="round" stroke-linejoin="round"/>
<path d="M24.9655 38.8249L24.2295 39.1223L24.5294 39.8523L25.2654 39.5549L24.9655 38.8249Z" stroke="#263238" stroke-width="0.114759" stroke-linecap="round" stroke-linejoin="round"/>
<path d="M18.9113 39.0157C18.9263 39.052 18.9301 39.0919 18.9222 39.1304C18.9143 39.1689 18.895 39.2041 18.8669 39.2317C18.8387 39.2593 18.8029 39.278 18.7641 39.2854C18.7252 39.2928 18.685 39.2886 18.6485 39.2733C18.612 39.258 18.581 39.2323 18.5593 39.1995C18.5375 39.1667 18.5261 39.1282 18.5265 39.089C18.5269 39.0497 18.539 39.0114 18.5613 38.979C18.5836 38.9466 18.6151 38.9215 18.6519 38.9068C18.7008 38.8873 18.7556 38.8878 18.8042 38.9082C18.8528 38.9286 18.8913 38.9672 18.9113 39.0157Z" fill="#263238"/>
<path d="M20.8685 42.414L29.9179 38.7588" stroke="#263238" stroke-width="0.229517" stroke-linecap="round" stroke-linejoin="round"/>
<path d="M21.1146 43.0131L30.164 39.3579" stroke="#263238" stroke-width="0.229517" stroke-linecap="round" stroke-linejoin="round"/>
<path d="M21.4014 43.7121L29.1201 40.5946" stroke="#263238" stroke-width="0.229517" stroke-linecap="round" stroke-linejoin="round"/>
<path d="M22.4402 44.0346L21.7041 44.332L22.004 45.062L22.74 44.7646L22.4402 44.0346Z" stroke="#263238" stroke-width="0.114759" stroke-linecap="round" stroke-linejoin="round"/>
<path d="M23.7732 43.4958L23.0371 43.7932L23.337 44.5232L24.073 44.2258L23.7732 43.4958Z" stroke="#263238" stroke-width="0.114759" stroke-linecap="round" stroke-linejoin="round"/>
<path d="M25.1071 42.957L24.3711 43.2544L24.671 43.9844L25.407 43.687L25.1071 42.957Z" stroke="#263238" stroke-width="0.114759" stroke-linecap="round" stroke-linejoin="round"/>
<path d="M26.4421 42.4172L25.7061 42.7146L26.0059 43.4446L26.742 43.1472L26.4421 42.4172Z" stroke="#263238" stroke-width="0.114759" stroke-linecap="round" stroke-linejoin="round"/>
<path d="M20.3943 42.6065C20.4091 42.6425 20.4129 42.682 20.4051 42.7201C20.3973 42.7582 20.3783 42.7932 20.3505 42.8206C20.3226 42.848 20.2872 42.8666 20.2488 42.8741C20.2103 42.8815 20.1704 42.8775 20.1343 42.8625C20.0981 42.8475 20.0672 42.8222 20.0455 42.7898C20.0238 42.7574 20.0123 42.7194 20.0124 42.6805C20.0125 42.6416 20.0243 42.6036 20.0461 42.5714C20.068 42.5391 20.099 42.514 20.1353 42.4992C20.1594 42.4893 20.1852 42.4843 20.2113 42.4844C20.2373 42.4844 20.2632 42.4896 20.2872 42.4996C20.3113 42.5095 20.3331 42.5241 20.3515 42.5425C20.3698 42.5608 20.3844 42.5826 20.3943 42.6065Z" fill="#263238"/>
<path d="M17.7401 33.9355L17.9085 34.0504L18.0935 33.4539" stroke="#263238" stroke-width="0.229517" stroke-linecap="round" stroke-linejoin="round"/>
<path d="M21.8241 36.3078L21.9929 36.4242L22.1774 35.8262" stroke="#263238" stroke-width="0.229517" stroke-linecap="round" stroke-linejoin="round"/>
<path d="M21.955 40.4133L22.1253 40.5292L22.3083 39.9316" stroke="#263238" stroke-width="0.229517" stroke-linecap="round" stroke-linejoin="round"/>
<path d="M26.0712 42.9067L26.24 43.023L26.4245 42.4251" stroke="#263238" stroke-width="0.229517" stroke-linecap="round" stroke-linejoin="round"/>
</g>
<path d="M25.6107 45.384C26.0703 43.8313 27.8619 38.8608 27.6262 36.6618C27.6074 36.4787 27.5652 36.2987 27.5004 36.1261C26.8718 34.4841 24.3024 34.6433 23.3162 36.0038C22.2319 37.5002 21.3518 40.1922 21.2713 41.8264C21.2024 42.6453 20.9327 43.4353 20.4855 44.1282C20.332 44.3844 20.1586 44.6284 19.9669 44.858L14.107 31.1265C13.5152 31.6133 12.9984 32.1828 12.5728 32.8169C12.3333 33.1705 12.1787 33.5734 12.121 33.995C12.0012 35.3536 10.4493 40.9122 9.80497 43.2587C9.79319 43.3092 9.77747 43.3558 9.76568 43.4043C9.14493 45.6596 10.7833 54.0363 10.3138 56.4682C9.84426 58.9001 9.55549 58.8477 9.48674 60.575C9.43763 61.8366 7.61072 65.6736 5.5579 69.6116C4.37925 71.8669 3.13774 74.1552 2.11035 76.0164L17.1028 75.4012C17.3621 73.6001 17.6292 71.7019 17.8728 69.862C17.9787 69.0967 18.1282 68.3379 18.3207 67.5893C18.6507 66.2695 19.0534 65.0759 19.3029 64.3772C19.621 63.3501 19.8833 62.307 20.0887 61.2524C21.8311 59.4299 24.1177 56.5633 24.7797 54.6224V54.6088C24.9421 54.2096 24.9937 53.7747 24.929 53.3492C24.8559 52.9998 24.8157 52.6444 24.8092 52.2876C24.7404 50.1759 25.2256 46.6766 25.6107 45.384Z" fill="white"/>
<path opacity="0.8" d="M20.4889 44.1399C20.0253 45.0618 19.4654 45.9585 19.1138 46.991C18.7621 48.0235 18.3712 48.171 17.3222 48.9784C16.2732 49.7858 15.5071 48.4563 15.5071 48.4563C15.5071 48.4563 16.8959 47.0298 16.4343 46.2379C15.9727 45.4461 14.2381 43.4761 14.3402 42.3815C14.4424 41.2868 13.2932 38.8491 13.2932 38.8491C13.2932 38.8491 15.9118 37.3314 15.403 35.5497C15.126 34.5851 13.7509 33.5525 12.5723 32.8169C12.9978 32.1828 13.5147 31.6133 14.1065 31.1265L19.9703 44.8696C20.162 44.64 20.3354 44.396 20.4889 44.1399Z" fill="#FFE4C8"/>
<path opacity="0.8" d="M10.9813 52.57C11.0167 52.6865 11.8693 55.4697 11.1503 56.6284C10.4313 57.7871 9.69268 59.3223 10.0443 60.8982C10.3233 62.1559 7.96792 66.6975 5.56348 69.6127C7.6104 65.6747 9.43731 61.8376 9.49231 60.5761C9.56107 58.8487 9.84984 58.9011 10.3193 56.4692C10.7888 54.0373 9.14068 45.6606 9.77126 43.4053C9.78305 43.3568 9.79876 43.3102 9.81055 43.2598C10.2683 45.8159 11.3349 50.9067 11.6276 52.5429C11.993 54.6254 11.0206 52.6535 10.9813 52.57Z" fill="#FFE4C8"/>
<path opacity="0.8" d="M16.3799 69.3526C18.1223 61.9424 23.9861 56.2577 24.7797 54.6138C24.1177 56.5546 21.8331 59.4213 20.0887 61.2437C19.8833 62.2984 19.621 63.3415 19.3029 64.3685C19.0574 65.0672 18.6547 66.2608 18.3207 67.5806C16.6235 69.5642 16.3799 69.3526 16.3799 69.3526Z" fill="#FFE4C8"/>
<path opacity="0.8" d="M25.6099 45.384C25.217 46.6767 24.7397 50.176 24.8143 52.278C24.5059 50.9562 23.9127 49.2813 23.8145 46.9464C23.6475 42.9871 25.9183 44.4078 25.1267 42.4572C24.335 40.5067 22.0779 43.0065 23.1898 38.8783C24.003 35.8622 26.3132 35.8913 27.4997 36.1262C27.5644 36.2988 27.6067 36.4788 27.6254 36.6619C27.8612 38.8608 26.0696 43.8352 25.6099 45.384Z" fill="#FFE4C8"/>
<path d="M19.9713 44.8694C19.6159 45.5479 19.3265 46.2582 19.107 46.9907C18.8614 47.9418 17.618 47.8059 16.9756 48.3959" stroke="#263238" stroke-width="0.114759" stroke-linecap="round" stroke-linejoin="round"/>
<path d="M15.2793 43.1963C15.2793 43.1963 16.9726 43.7785 17.9568 44.5452C18.941 45.3118 19.6698 45.4884 19.6698 45.4884" stroke="#263238" stroke-width="0.114759" stroke-linecap="round" stroke-linejoin="round"/>
<path d="M14.2021 39.0521C14.2021 39.0521 15.5674 39.4305 16.5791 38.955C16.6248 38.4708 16.7109 37.991 16.8364 37.5208" stroke="#263238" stroke-width="0.114759" stroke-linecap="round" stroke-linejoin="round"/>
<path d="M16.9043 39.1499C16.9043 39.1499 16.918 39.344 17.6135 39.344" stroke="#263238" stroke-width="0.114759" stroke-linecap="round" stroke-linejoin="round"/>
<path d="M20.0865 61.2463C19.1341 62.1938 18.402 63.335 17.9414 64.5904" stroke="#263238" stroke-width="0.114759" stroke-linecap="round" stroke-linejoin="round"/>
<path d="M9.68457 43.8174C9.62367 44.9819 11.0047 49.112 11.425 51.1655C11.8454 53.2189 12.0006 54.6706 12.0006 54.6706" stroke="#263238" stroke-width="0.114759" stroke-linecap="round" stroke-linejoin="round"/>
<path d="M4.39648 71.9208C6.28625 68.5282 8.10334 65.0366 9.42932 61.2694C9.58844 60.7279 9.37628 60.0234 9.5354 59.4819C11.3152 54.5909 9.29574 49.5001 9.62773 44.4927C9.90471 42.5188 10.5431 40.5294 11.1835 38.5401C11.4841 37.1 11.5961 35.491 12.0774 34.0431C12.5724 32.9524 13.0596 31.683 14.1145 31.1318C16.1182 35.6676 18.116 40.2247 19.9782 44.875C20.819 44.3956 20.9604 43.3223 21.096 42.4218C21.5478 40.2616 22.0055 38.28 22.8325 36.4634C23.6733 35 25.8145 34.3769 27.1287 35.5725C27.5059 35.9454 27.7215 36.4486 27.7298 36.9757C27.4745 39.4833 26.6769 42.022 25.8735 44.3665C25.5572 45.4495 25.235 46.3559 25.0995 47.4311C25.1152 47.7863 25.1211 47.9649 25.1368 48.322C24.6712 50.125 25.0995 51.7126 24.9934 53.5021C24.5868 56.7297 21.9741 58.9773 20.0824 61.3742C19.6168 63.1773 19.1493 64.9803 18.5108 66.7911C17.7251 69.4986 17.4736 72.1867 17.2045 74.7971" stroke="#263238" stroke-width="0.114759" stroke-linecap="round" stroke-linejoin="round"/>
<path d="M49.0184 20.2104H32.7373V44.5713H49.0184V20.2104Z" fill="white" stroke="#263238" stroke-width="0.114759" stroke-linecap="round" stroke-linejoin="round"/>
<path d="M33.9572 21.8688L38.1949 21.8602" stroke="#263238" stroke-width="0.229517" stroke-linecap="round" stroke-linejoin="round"/>
<path d="M33.9595 22.6789L36.8414 22.672" stroke="#263238" stroke-width="0.229517" stroke-linecap="round" stroke-linejoin="round"/>
<path d="M34.9963 24.5893L47.1851 24.5634" stroke="#263238" stroke-width="0.229517" stroke-linecap="round" stroke-linejoin="round"/>
<path d="M34.9975 25.3977L47.1861 25.3737" stroke="#263238" stroke-width="0.229517" stroke-linecap="round" stroke-linejoin="round"/>
<path d="M35.0008 26.3419L45.3954 26.3213" stroke="#263238" stroke-width="0.229517" stroke-linecap="round" stroke-linejoin="round"/>
<path d="M36.0469 27.2006L35.0557 27.2026L35.0578 28.1895L36.049 28.1874L36.0469 27.2006Z" stroke="#263238" stroke-width="0.114759" stroke-linecap="round" stroke-linejoin="round"/>
<path d="M37.8409 27.1954L36.8496 27.1975L36.8517 28.1843L37.843 28.1823L37.8409 27.1954Z" stroke="#263238" stroke-width="0.114759" stroke-linecap="round" stroke-linejoin="round"/>
<path d="M39.6397 27.192L38.6484 27.1941L38.6505 28.1809L39.6418 28.1788L39.6397 27.192Z" stroke="#263238" stroke-width="0.114759" stroke-linecap="round" stroke-linejoin="round"/>
<path d="M41.4366 27.1881L40.4453 27.1902L40.4474 28.177L41.4387 28.1749L41.4366 27.1881Z" stroke="#263238" stroke-width="0.114759" stroke-linecap="round" stroke-linejoin="round"/>
<path d="M34.3481 24.588C34.3487 24.6372 34.3346 24.6855 34.3075 24.7267C34.2805 24.7679 34.2417 24.8001 34.1962 24.8193C34.1506 24.8386 34.1004 24.8439 34.0518 24.8346C34.0033 24.8253 33.9586 24.8018 33.9235 24.7672C33.8883 24.7325 33.8643 24.6883 33.8545 24.64C33.8447 24.5918 33.8496 24.5417 33.8685 24.4962C33.8873 24.4507 33.9193 24.4118 33.9605 24.3845C34.0016 24.3571 34.05 24.3426 34.0994 24.3427C34.1649 24.3428 34.2278 24.3686 34.2743 24.4145C34.3209 24.4604 34.3474 24.5227 34.3481 24.588Z" fill="#263238"/>
<path d="M35.0061 29.3115L47.1949 29.2855" stroke="#263238" stroke-width="0.229517" stroke-linecap="round" stroke-linejoin="round"/>
<path d="M35.0082 30.1199L47.1968 30.0958" stroke="#263238" stroke-width="0.229517" stroke-linecap="round" stroke-linejoin="round"/>
<path d="M35.0104 31.0672L45.4052 31.0447" stroke="#263238" stroke-width="0.229517" stroke-linecap="round" stroke-linejoin="round"/>
<path d="M36.0557 31.9225L35.0645 31.9246L35.0665 32.9114L36.0578 32.9093L36.0557 31.9225Z" stroke="#263238" stroke-width="0.114759" stroke-linecap="round" stroke-linejoin="round"/>
<path d="M37.8526 31.9208L36.8613 31.9229L36.8634 32.9097L37.8547 32.9076L37.8526 31.9208Z" stroke="#263238" stroke-width="0.114759" stroke-linecap="round" stroke-linejoin="round"/>
<path d="M39.6495 31.9159L38.6582 31.918L38.6603 32.9048L39.6516 32.9027L39.6495 31.9159Z" stroke="#263238" stroke-width="0.114759" stroke-linecap="round" stroke-linejoin="round"/>
<path d="M41.4464 31.9122L40.4551 31.9143L40.4572 32.9011L41.4484 32.8991L41.4464 31.9122Z" stroke="#263238" stroke-width="0.114759" stroke-linecap="round" stroke-linejoin="round"/>
<path d="M34.3579 29.3133C34.3581 29.3624 34.3436 29.4105 34.3163 29.4515C34.289 29.4924 34.2501 29.5244 34.2045 29.5433C34.159 29.5622 34.1088 29.5672 34.0603 29.5577C34.0119 29.5482 33.9674 29.5245 33.9325 29.4898C33.8975 29.4551 33.8738 29.4108 33.8641 29.3626C33.8545 29.3144 33.8595 29.2644 33.8785 29.219C33.8974 29.1736 33.9295 29.1348 33.9706 29.1076C34.0117 29.0804 34.06 29.0659 34.1094 29.0661C34.1752 29.0663 34.2383 29.0924 34.2848 29.1387C34.3314 29.185 34.3577 29.2478 34.3579 29.3133Z" fill="#263238"/>
<path d="M35.016 34.0347L47.2047 34.0106" stroke="#263238" stroke-width="0.229517" stroke-linecap="round" stroke-linejoin="round"/>
<path d="M35.0178 34.8452L47.2047 34.819" stroke="#263238" stroke-width="0.229517" stroke-linecap="round" stroke-linejoin="round"/>
<path d="M35.0202 35.7898L45.4149 35.7674" stroke="#263238" stroke-width="0.229517" stroke-linecap="round" stroke-linejoin="round"/>
<path d="M36.0655 36.6473L35.0742 36.6494L35.0763 37.6363L36.0676 37.6342L36.0655 36.6473Z" stroke="#263238" stroke-width="0.114759" stroke-linecap="round" stroke-linejoin="round"/>
<path d="M37.8624 36.6437L36.8711 36.6458L36.8732 37.6326L37.8645 37.6305L37.8624 36.6437Z" stroke="#263238" stroke-width="0.114759" stroke-linecap="round" stroke-linejoin="round"/>
<path d="M39.6612 36.6405L38.6699 36.6426L38.672 37.6294L39.6633 37.6273L39.6612 36.6405Z" stroke="#263238" stroke-width="0.114759" stroke-linecap="round" stroke-linejoin="round"/>
<path d="M41.4561 36.6363L40.4648 36.6384L40.4669 37.6253L41.4582 37.6232L41.4561 36.6363Z" stroke="#263238" stroke-width="0.114759" stroke-linecap="round" stroke-linejoin="round"/>
<path d="M34.3677 34.0374C34.3679 34.0866 34.3534 34.1347 34.3261 34.1756C34.2988 34.2166 34.2599 34.2485 34.2143 34.2674C34.1687 34.2863 34.1185 34.2913 34.0701 34.2818C34.0217 34.2723 33.9772 34.2487 33.9422 34.2139C33.9073 34.1792 33.8835 34.1349 33.8739 34.0867C33.8643 34.0385 33.8693 33.9885 33.8882 33.9431C33.9072 33.8977 33.9392 33.859 33.9803 33.8317C34.0215 33.8045 34.0698 33.7901 34.1191 33.7902C34.185 33.7904 34.248 33.8165 34.2946 33.8628C34.3412 33.9091 34.3674 33.9719 34.3677 34.0374Z" fill="#263238"/>
<path d="M35.0258 38.8926L47.2125 38.8684" stroke="#263238" stroke-width="0.229517" stroke-linecap="round" stroke-linejoin="round"/>
<path d="M35.0287 39.7029L47.2154 39.6787" stroke="#263238" stroke-width="0.229517" stroke-linecap="round" stroke-linejoin="round"/>
<path d="M35.0291 40.6478L45.4237 40.6272" stroke="#263238" stroke-width="0.229517" stroke-linecap="round" stroke-linejoin="round"/>
<path d="M36.0772 41.5057L35.0859 41.5078L35.088 42.4947L36.0793 42.4926L36.0772 41.5057Z" stroke="#263238" stroke-width="0.114759" stroke-linecap="round" stroke-linejoin="round"/>
<path d="M37.8721 41.5016L36.8809 41.5037L36.8829 42.4905L37.8742 42.4884L37.8721 41.5016Z" stroke="#263238" stroke-width="0.114759" stroke-linecap="round" stroke-linejoin="round"/>
<path d="M39.67 41.4974L38.6787 41.4995L38.6808 42.4863L39.6721 42.4843L39.67 41.4974Z" stroke="#263238" stroke-width="0.114759" stroke-linecap="round" stroke-linejoin="round"/>
<path d="M41.4678 41.493L40.4766 41.4951L40.4787 42.482L41.4699 42.4799L41.4678 41.493Z" stroke="#263238" stroke-width="0.114759" stroke-linecap="round" stroke-linejoin="round"/>
<path d="M34.3864 38.8944C34.3866 38.9431 34.3723 38.9908 34.3453 39.0313C34.3183 39.0719 34.2799 39.1036 34.2348 39.1225C34.1897 39.1413 34.14 39.1464 34.092 39.1371C34.044 39.1278 33.9998 39.1046 33.9651 39.0703C33.9303 39.0361 33.9066 38.9923 33.8968 38.9446C33.887 38.8969 33.8916 38.8474 33.9101 38.8024C33.9286 38.7573 33.9601 38.7187 34.0006 38.6914C34.0411 38.6641 34.0888 38.6494 34.1377 38.6492C34.1702 38.649 34.2025 38.6552 34.2326 38.6674C34.2627 38.6796 34.2901 38.6977 34.3132 38.7204C34.3363 38.7432 34.3546 38.7703 34.3672 38.8002C34.3798 38.83 34.3863 38.8621 34.3864 38.8944Z" fill="#263238"/>
<path d="M35.4107 27.595L35.5511 27.8068L36.0464 27.2008" stroke="#263238" stroke-width="0.229517" stroke-linecap="round" stroke-linejoin="round"/>
<path d="M39.0142 32.252L39.1544 32.4657L39.65 31.8578" stroke="#263238" stroke-width="0.229517" stroke-linecap="round" stroke-linejoin="round"/>
<path d="M37.2271 37.0772L37.3692 37.2911L37.8629 36.683" stroke="#263238" stroke-width="0.229517" stroke-linecap="round" stroke-linejoin="round"/>
<path d="M40.8081 41.8887L40.9483 42.1024L41.4439 41.4945" stroke="#263238" stroke-width="0.229517" stroke-linecap="round" stroke-linejoin="round"/>
<defs>
<clipPath id="clip0_834_31686">
<rect width="15.0258" height="20.7621" fill="white" transform="matrix(0.998836 0.0482276 -0.0490328 0.998797 51.8096 26.6672)"/>
</clipPath>
<clipPath id="clip1_834_31686">
<rect width="15.0086" height="20.7861" fill="white" transform="matrix(0.927964 -0.372671 0.378023 0.925796 12.3584 29.0298)"/>
</clipPath>
</defs>
</svg>
