<svg width="21" height="20" viewBox="0 0 21 20" fill="none" xmlns="http://www.w3.org/2000/svg">
<mask id="path-1-outside-1_834_28922" maskUnits="userSpaceOnUse" x="-0.823313" y="-0.823564" width="22.6466" height="21.6172" fill="black">
<rect fill="white" x="-0.823313" y="-0.823564" width="22.6466" height="21.6172"/>
<path d="M19.3902 5.73364H17.6028C17.9951 5.50645 18.33 5.19208 18.5815 4.81485C18.833 4.43761 18.9943 4.0076 19.0531 3.55805C19.1119 3.10851 19.0666 2.65146 18.9206 2.22224C18.7745 1.79301 18.5318 1.40311 18.2111 1.08266C17.9353 0.80481 17.6073 0.584285 17.2459 0.433795C16.8846 0.283306 16.497 0.205828 16.1055 0.205828C15.714 0.205828 15.3265 0.283306 14.9651 0.433795C14.6037 0.584285 14.2757 0.80481 13.9999 1.08266L11.1925 3.89009C11.1185 3.87484 11.0434 3.86545 10.9679 3.86202H10.0321C9.94891 3.86262 9.86593 3.87045 9.7841 3.88541L6.97667 1.07798C6.53333 0.635255 5.96101 0.344525 5.34201 0.247595C4.72301 0.150664 4.08921 0.252526 3.53176 0.538535C2.9743 0.824543 2.5219 1.27996 2.23961 1.83931C1.95732 2.39866 1.85968 3.03312 1.96073 3.65146C2.0287 4.08403 2.1931 4.49577 2.44176 4.85619C2.69041 5.21662 3.01695 5.5165 3.39719 5.73364H1.6098C1.23751 5.73364 0.880466 5.88153 0.617219 6.14478C0.353971 6.40803 0.206079 6.76507 0.206079 7.13736V9.00898C0.206893 9.29859 0.297264 9.58085 0.464802 9.81708C0.632341 10.0533 0.868844 10.2319 1.14189 10.3285V18.3671C1.14189 18.7394 1.28978 19.0964 1.55303 19.3597C1.81628 19.6229 2.17332 19.7708 2.54561 19.7708H18.4544C18.8267 19.7708 19.1837 19.6229 19.447 19.3597C19.7102 19.0964 19.8581 18.7394 19.8581 18.3671V10.3285C20.1312 10.2319 20.3677 10.0533 20.5352 9.81708C20.7027 9.58085 20.7931 9.29859 20.7939 9.00898V7.13736C20.7939 6.76507 20.646 6.40803 20.3828 6.14478C20.1195 5.88153 19.7625 5.73364 19.3902 5.73364ZM14.6831 1.74709C15.063 1.36764 15.5779 1.1545 16.1149 1.1545C16.6518 1.1545 17.1668 1.36764 17.5467 1.74709C17.7743 1.97345 17.9447 2.25077 18.0439 2.55609C18.143 2.86142 18.168 3.18596 18.1168 3.50287C18.0656 3.81977 17.9396 4.11992 17.7493 4.37847C17.5591 4.63702 17.3099 4.84654 17.0226 4.98967L15.5347 5.73364H12.2874C12.371 5.50731 12.393 5.26284 12.351 5.02523C12.3091 4.78763 12.2048 4.56544 12.0488 4.38139L14.6831 1.74709ZM11.9037 9.47688H9.09628V6.66945H11.9037V9.47688ZM10.9679 4.79783C11.092 4.79783 11.211 4.84713 11.2988 4.93488C11.3865 5.02262 11.4358 5.14164 11.4358 5.26573C11.4358 5.38983 11.3865 5.50884 11.2988 5.59659C11.211 5.68434 11.092 5.73364 10.9679 5.73364H10.0321C9.908 5.73364 9.78898 5.68434 9.70123 5.59659C9.61349 5.50884 9.56419 5.38983 9.56419 5.26573C9.56419 5.14164 9.61349 5.02262 9.70123 4.93488C9.78898 4.84713 9.908 4.79783 10.0321 4.79783H10.9679ZM3.9774 4.98967C3.71438 4.85864 3.48301 4.67197 3.29934 4.4426C3.11567 4.21322 2.98409 3.94664 2.91373 3.66134C2.84337 3.37605 2.83591 3.07885 2.89187 2.79038C2.94783 2.50191 3.06587 2.22907 3.2378 1.99077C3.40973 1.75247 3.63144 1.55443 3.88755 1.41037C4.14366 1.26631 4.42805 1.17968 4.72098 1.1565C5.01391 1.13332 5.30838 1.17413 5.58396 1.27611C5.85955 1.37809 6.10965 1.5388 6.31693 1.74709L8.95123 4.38139C8.79522 4.56544 8.6909 4.78763 8.64897 5.02523C8.60704 5.26284 8.629 5.50731 8.7126 5.73364H5.46534L3.9774 4.98967ZM1.14189 7.13736C1.14189 7.01326 1.19119 6.89425 1.27894 6.8065C1.36669 6.71875 1.4857 6.66945 1.6098 6.66945H8.16047V9.47688H1.6098C1.4857 9.47688 1.36669 9.42759 1.27894 9.33984C1.19119 9.25209 1.14189 9.13307 1.14189 9.00898V7.13736ZM2.0777 18.3671V10.4127H8.62838V18.835H2.54561C2.42151 18.835 2.3025 18.7857 2.21475 18.6979C2.127 18.6102 2.0777 18.4912 2.0777 18.3671ZM9.56419 18.835V10.4127H11.4358V18.835H9.56419ZM18.9223 18.3671C18.9223 18.4912 18.873 18.6102 18.7853 18.6979C18.6975 18.7857 18.5785 18.835 18.4544 18.835H12.3716V10.4127H18.9223V18.3671ZM19.8581 9.00898C19.8581 9.13307 19.8088 9.25209 19.7211 9.33984C19.6333 9.42759 19.5143 9.47688 19.3902 9.47688H12.8395V6.66945H19.3902C19.5143 6.66945 19.6333 6.71875 19.7211 6.8065C19.8088 6.89425 19.8581 7.01326 19.8581 7.13736V9.00898Z"/>
</mask>
<path d="M19.3902 5.73364H17.6028C17.9951 5.50645 18.33 5.19208 18.5815 4.81485C18.833 4.43761 18.9943 4.0076 19.0531 3.55805C19.1119 3.10851 19.0666 2.65146 18.9206 2.22224C18.7745 1.79301 18.5318 1.40311 18.2111 1.08266C17.9353 0.80481 17.6073 0.584285 17.2459 0.433795C16.8846 0.283306 16.497 0.205828 16.1055 0.205828C15.714 0.205828 15.3265 0.283306 14.9651 0.433795C14.6037 0.584285 14.2757 0.80481 13.9999 1.08266L11.1925 3.89009C11.1185 3.87484 11.0434 3.86545 10.9679 3.86202H10.0321C9.94891 3.86262 9.86593 3.87045 9.7841 3.88541L6.97667 1.07798C6.53333 0.635255 5.96101 0.344525 5.34201 0.247595C4.72301 0.150664 4.08921 0.252526 3.53176 0.538535C2.9743 0.824543 2.5219 1.27996 2.23961 1.83931C1.95732 2.39866 1.85968 3.03312 1.96073 3.65146C2.0287 4.08403 2.1931 4.49577 2.44176 4.85619C2.69041 5.21662 3.01695 5.5165 3.39719 5.73364H1.6098C1.23751 5.73364 0.880466 5.88153 0.617219 6.14478C0.353971 6.40803 0.206079 6.76507 0.206079 7.13736V9.00898C0.206893 9.29859 0.297264 9.58085 0.464802 9.81708C0.632341 10.0533 0.868844 10.2319 1.14189 10.3285V18.3671C1.14189 18.7394 1.28978 19.0964 1.55303 19.3597C1.81628 19.6229 2.17332 19.7708 2.54561 19.7708H18.4544C18.8267 19.7708 19.1837 19.6229 19.447 19.3597C19.7102 19.0964 19.8581 18.7394 19.8581 18.3671V10.3285C20.1312 10.2319 20.3677 10.0533 20.5352 9.81708C20.7027 9.58085 20.7931 9.29859 20.7939 9.00898V7.13736C20.7939 6.76507 20.646 6.40803 20.3828 6.14478C20.1195 5.88153 19.7625 5.73364 19.3902 5.73364ZM14.6831 1.74709C15.063 1.36764 15.5779 1.1545 16.1149 1.1545C16.6518 1.1545 17.1668 1.36764 17.5467 1.74709C17.7743 1.97345 17.9447 2.25077 18.0439 2.55609C18.143 2.86142 18.168 3.18596 18.1168 3.50287C18.0656 3.81977 17.9396 4.11992 17.7493 4.37847C17.5591 4.63702 17.3099 4.84654 17.0226 4.98967L15.5347 5.73364H12.2874C12.371 5.50731 12.393 5.26284 12.351 5.02523C12.3091 4.78763 12.2048 4.56544 12.0488 4.38139L14.6831 1.74709ZM11.9037 9.47688H9.09628V6.66945H11.9037V9.47688ZM10.9679 4.79783C11.092 4.79783 11.211 4.84713 11.2988 4.93488C11.3865 5.02262 11.4358 5.14164 11.4358 5.26573C11.4358 5.38983 11.3865 5.50884 11.2988 5.59659C11.211 5.68434 11.092 5.73364 10.9679 5.73364H10.0321C9.908 5.73364 9.78898 5.68434 9.70123 5.59659C9.61349 5.50884 9.56419 5.38983 9.56419 5.26573C9.56419 5.14164 9.61349 5.02262 9.70123 4.93488C9.78898 4.84713 9.908 4.79783 10.0321 4.79783H10.9679ZM3.9774 4.98967C3.71438 4.85864 3.48301 4.67197 3.29934 4.4426C3.11567 4.21322 2.98409 3.94664 2.91373 3.66134C2.84337 3.37605 2.83591 3.07885 2.89187 2.79038C2.94783 2.50191 3.06587 2.22907 3.2378 1.99077C3.40973 1.75247 3.63144 1.55443 3.88755 1.41037C4.14366 1.26631 4.42805 1.17968 4.72098 1.1565C5.01391 1.13332 5.30838 1.17413 5.58396 1.27611C5.85955 1.37809 6.10965 1.5388 6.31693 1.74709L8.95123 4.38139C8.79522 4.56544 8.6909 4.78763 8.64897 5.02523C8.60704 5.26284 8.629 5.50731 8.7126 5.73364H5.46534L3.9774 4.98967ZM1.14189 7.13736C1.14189 7.01326 1.19119 6.89425 1.27894 6.8065C1.36669 6.71875 1.4857 6.66945 1.6098 6.66945H8.16047V9.47688H1.6098C1.4857 9.47688 1.36669 9.42759 1.27894 9.33984C1.19119 9.25209 1.14189 9.13307 1.14189 9.00898V7.13736ZM2.0777 18.3671V10.4127H8.62838V18.835H2.54561C2.42151 18.835 2.3025 18.7857 2.21475 18.6979C2.127 18.6102 2.0777 18.4912 2.0777 18.3671ZM9.56419 18.835V10.4127H11.4358V18.835H9.56419ZM18.9223 18.3671C18.9223 18.4912 18.873 18.6102 18.7853 18.6979C18.6975 18.7857 18.5785 18.835 18.4544 18.835H12.3716V10.4127H18.9223V18.3671ZM19.8581 9.00898C19.8581 9.13307 19.8088 9.25209 19.7211 9.33984C19.6333 9.42759 19.5143 9.47688 19.3902 9.47688H12.8395V6.66945H19.3902C19.5143 6.66945 19.6333 6.71875 19.7211 6.8065C19.8088 6.89425 19.8581 7.01326 19.8581 7.13736V9.00898Z" fill="#20446C"/>
<path d="M19.3902 5.73364H17.6028C17.9951 5.50645 18.33 5.19208 18.5815 4.81485C18.833 4.43761 18.9943 4.0076 19.0531 3.55805C19.1119 3.10851 19.0666 2.65146 18.9206 2.22224C18.7745 1.79301 18.5318 1.40311 18.2111 1.08266C17.9353 0.80481 17.6073 0.584285 17.2459 0.433795C16.8846 0.283306 16.497 0.205828 16.1055 0.205828C15.714 0.205828 15.3265 0.283306 14.9651 0.433795C14.6037 0.584285 14.2757 0.80481 13.9999 1.08266L11.1925 3.89009C11.1185 3.87484 11.0434 3.86545 10.9679 3.86202H10.0321C9.94891 3.86262 9.86593 3.87045 9.7841 3.88541L6.97667 1.07798C6.53333 0.635255 5.96101 0.344525 5.34201 0.247595C4.72301 0.150664 4.08921 0.252526 3.53176 0.538535C2.9743 0.824543 2.5219 1.27996 2.23961 1.83931C1.95732 2.39866 1.85968 3.03312 1.96073 3.65146C2.0287 4.08403 2.1931 4.49577 2.44176 4.85619C2.69041 5.21662 3.01695 5.5165 3.39719 5.73364H1.6098C1.23751 5.73364 0.880466 5.88153 0.617219 6.14478C0.353971 6.40803 0.206079 6.76507 0.206079 7.13736V9.00898C0.206893 9.29859 0.297264 9.58085 0.464802 9.81708C0.632341 10.0533 0.868844 10.2319 1.14189 10.3285V18.3671C1.14189 18.7394 1.28978 19.0964 1.55303 19.3597C1.81628 19.6229 2.17332 19.7708 2.54561 19.7708H18.4544C18.8267 19.7708 19.1837 19.6229 19.447 19.3597C19.7102 19.0964 19.8581 18.7394 19.8581 18.3671V10.3285C20.1312 10.2319 20.3677 10.0533 20.5352 9.81708C20.7027 9.58085 20.7931 9.29859 20.7939 9.00898V7.13736C20.7939 6.76507 20.646 6.40803 20.3828 6.14478C20.1195 5.88153 19.7625 5.73364 19.3902 5.73364ZM14.6831 1.74709C15.063 1.36764 15.5779 1.1545 16.1149 1.1545C16.6518 1.1545 17.1668 1.36764 17.5467 1.74709C17.7743 1.97345 17.9447 2.25077 18.0439 2.55609C18.143 2.86142 18.168 3.18596 18.1168 3.50287C18.0656 3.81977 17.9396 4.11992 17.7493 4.37847C17.5591 4.63702 17.3099 4.84654 17.0226 4.98967L15.5347 5.73364H12.2874C12.371 5.50731 12.393 5.26284 12.351 5.02523C12.3091 4.78763 12.2048 4.56544 12.0488 4.38139L14.6831 1.74709ZM11.9037 9.47688H9.09628V6.66945H11.9037V9.47688ZM10.9679 4.79783C11.092 4.79783 11.211 4.84713 11.2988 4.93488C11.3865 5.02262 11.4358 5.14164 11.4358 5.26573C11.4358 5.38983 11.3865 5.50884 11.2988 5.59659C11.211 5.68434 11.092 5.73364 10.9679 5.73364H10.0321C9.908 5.73364 9.78898 5.68434 9.70123 5.59659C9.61349 5.50884 9.56419 5.38983 9.56419 5.26573C9.56419 5.14164 9.61349 5.02262 9.70123 4.93488C9.78898 4.84713 9.908 4.79783 10.0321 4.79783H10.9679ZM3.9774 4.98967C3.71438 4.85864 3.48301 4.67197 3.29934 4.4426C3.11567 4.21322 2.98409 3.94664 2.91373 3.66134C2.84337 3.37605 2.83591 3.07885 2.89187 2.79038C2.94783 2.50191 3.06587 2.22907 3.2378 1.99077C3.40973 1.75247 3.63144 1.55443 3.88755 1.41037C4.14366 1.26631 4.42805 1.17968 4.72098 1.1565C5.01391 1.13332 5.30838 1.17413 5.58396 1.27611C5.85955 1.37809 6.10965 1.5388 6.31693 1.74709L8.95123 4.38139C8.79522 4.56544 8.6909 4.78763 8.64897 5.02523C8.60704 5.26284 8.629 5.50731 8.7126 5.73364H5.46534L3.9774 4.98967ZM1.14189 7.13736C1.14189 7.01326 1.19119 6.89425 1.27894 6.8065C1.36669 6.71875 1.4857 6.66945 1.6098 6.66945H8.16047V9.47688H1.6098C1.4857 9.47688 1.36669 9.42759 1.27894 9.33984C1.19119 9.25209 1.14189 9.13307 1.14189 9.00898V7.13736ZM2.0777 18.3671V10.4127H8.62838V18.835H2.54561C2.42151 18.835 2.3025 18.7857 2.21475 18.6979C2.127 18.6102 2.0777 18.4912 2.0777 18.3671ZM9.56419 18.835V10.4127H11.4358V18.835H9.56419ZM18.9223 18.3671C18.9223 18.4912 18.873 18.6102 18.7853 18.6979C18.6975 18.7857 18.5785 18.835 18.4544 18.835H12.3716V10.4127H18.9223V18.3671ZM19.8581 9.00898C19.8581 9.13307 19.8088 9.25209 19.7211 9.33984C19.6333 9.42759 19.5143 9.47688 19.3902 9.47688H12.8395V6.66945H19.3902C19.5143 6.66945 19.6333 6.71875 19.7211 6.8065C19.8088 6.89425 19.8581 7.01326 19.8581 7.13736V9.00898Z" stroke="#20446C" stroke-width="0.4" mask="url(#path-1-outside-1_834_28922)"/>
</svg>
