<svg width="26" height="35" viewBox="0 0 26 35" fill="none" xmlns="http://www.w3.org/2000/svg">
<path d="M10.1701 1.39648L1.26952 9.24244V10.3246C0.99981 16.3669 0.622212 28.9385 1.26952 30.8865C1.91683 32.8344 3.15751 33.6822 3.69694 33.8625C9.63063 33.9527 21.7677 34.079 22.8466 33.8625C23.9254 33.6461 25.0942 31.7883 25.5437 30.8865V4.10199C25.5437 2.58691 23.7456 1.66703 22.8466 1.39648H10.1701Z" fill="white"/>
<path d="M18.4354 28.3594H16.2665L15.4803 27.5293L14.6398 28.3594H11.1154L10.1936 27.5293L9.4887 28.3594H7.59091C6.8318 28.3594 6.23535 27.7507 6.23535 26.976V24.7625L7.04869 23.8772L6.23535 23.1025V19.7823L6.77758 18.7309L6.23535 18.1222V15.9088C6.23535 15.1341 6.8318 14.5254 7.59091 14.5254H14.6398L15.4803 15.3554L16.2665 14.5254H18.4354C19.1945 14.5254 19.791 15.1341 19.791 15.9088V18.1222L18.9776 18.8969L19.791 19.7823V23.1025L18.9776 23.7112L19.791 24.7625V26.976C19.791 27.7507 19.1945 28.3594 18.4354 28.3594Z" fill="#FCCA3D"/>
<path d="M16.2665 23.1025V19.7823H19.791V18.1222H16.2665V14.5254H14.6398V28.3594H16.2665V24.7625H19.791V23.1025H16.2665ZM10.302 18.1222H6.23535V19.7823H9.4887V23.1025H6.23535V24.7625H9.4887V28.3594H11.1154V18.9523C11.1154 18.4819 10.7629 18.1222 10.302 18.1222Z" fill="#E5A505"/>
<path d="M22.5023 35H3.52446C1.57245 35 0 33.3953 0 31.4032V10.4032C0 9.35178 0.460891 8.32806 1.24712 7.66403L9.02803 0.968379C9.65159 0.442688 10.4378 0.13834 11.2783 0.110672L22.4752 0H22.5023C23.4241 0 24.3188 0.359684 24.9694 1.05138C25.6472 1.74308 25.9997 2.62846 25.9997 3.59684V31.4032C26.0268 33.3953 24.4543 35 22.5023 35ZM22.5023 1.68775L11.2783 1.79842C10.8445 1.79842 10.4107 1.96443 10.0854 2.24111L2.30445 8.93676C1.87067 9.29644 1.62667 9.8498 1.62667 10.4308V31.4032C1.62667 32.4822 2.46712 33.3399 3.52446 33.3399H22.5023C23.5596 33.3399 24.4001 32.4822 24.4001 31.4032V3.62451C24.4001 3.09881 24.2103 2.62846 23.8308 2.24111C23.4783 1.88142 23.0174 1.68775 22.5023 1.68775Z" fill="#444B54"/>
</svg>
