<svg width="27" height="26" viewBox="0 0 27 26" fill="none" xmlns="http://www.w3.org/2000/svg">
<path d="M9.19 21H2.75C1.233 21 0 19.767 0 18.25V2.75C0 1.233 1.233 0 2.75 0H14.25C15.767 0 17 1.233 17 2.75V8.84H15.5V2.75C15.5 2.061 14.939 1.5 14.25 1.5H2.75C2.061 1.5 1.5 2.061 1.5 2.75V18.25C1.5 18.939 2.061 19.5 2.75 19.5H9.19V21Z" fill="#20446C"/>
<path d="M3.75 8H13.25V9.5H3.75V8Z" fill="#F0792E"/>
<path d="M3.75 12H9.25V13.5H3.75V12Z" fill="#F0792E"/>
<circle cx="16.5" cy="15.5" r="10.5" fill="white"/>
<path fill-rule="evenodd" clip-rule="evenodd" d="M12.8998 10.7002C13.0589 10.7002 13.2115 10.7634 13.3241 10.8759C13.4366 10.9885 13.4998 11.1411 13.4998 11.3002V12.5608C13.999 12.0516 14.6197 11.6778 15.3033 11.4747C15.9868 11.2716 16.7109 11.2458 17.4072 11.3998C18.1035 11.5538 18.7491 11.8825 19.2833 12.355C19.8174 12.8275 20.2225 13.4281 20.4604 14.1004C20.4893 14.1752 20.5028 14.2551 20.5003 14.3353C20.4977 14.4155 20.4791 14.4944 20.4456 14.5672C20.412 14.6401 20.3642 14.7055 20.3049 14.7596C20.2456 14.8136 20.1761 14.8552 20.1005 14.882C20.0248 14.9087 19.9446 14.92 19.8645 14.9152C19.7844 14.9103 19.7061 14.8895 19.6342 14.8539C19.5623 14.8183 19.4983 14.7686 19.446 14.7078C19.3936 14.647 19.354 14.5764 19.3294 14.5C19.1483 13.9881 18.8317 13.5349 18.4133 13.1887C17.995 12.8426 17.4905 12.6164 16.9537 12.5343C16.417 12.4522 15.868 12.5173 15.3653 12.7226C14.8626 12.928 14.425 13.2658 14.0992 13.7002H15.8998C16.0589 13.7002 16.2115 13.7634 16.3241 13.8759C16.4366 13.9885 16.4998 14.1411 16.4998 14.3002C16.4998 14.4593 16.4366 14.6119 16.3241 14.7245C16.2115 14.837 16.0589 14.9002 15.8998 14.9002H12.8998C12.7407 14.9002 12.5881 14.837 12.4755 14.7245C12.363 14.6119 12.2998 14.4593 12.2998 14.3002V11.3002C12.2998 11.1411 12.363 10.9885 12.4755 10.8759C12.5881 10.7634 12.7407 10.7002 12.8998 10.7002ZM12.9046 16.1344C12.9789 16.1082 13.0576 16.0968 13.1363 16.101C13.215 16.1052 13.2921 16.1248 13.3632 16.1588C13.4343 16.1928 13.498 16.2405 13.5507 16.2991C13.6034 16.3577 13.644 16.4261 13.6702 16.5004C13.8513 17.0123 14.1679 17.4655 14.5863 17.8116C15.0047 18.1578 15.5091 18.384 16.0459 18.4661C16.5826 18.5481 17.1316 18.4831 17.6343 18.2778C18.137 18.0724 18.5746 17.7346 18.9004 17.3002H17.0998C16.9407 17.3002 16.7881 17.237 16.6755 17.1245C16.563 17.0119 16.4998 16.8593 16.4998 16.7002C16.4998 16.5411 16.563 16.3885 16.6755 16.2759C16.7881 16.1634 16.9407 16.1002 17.0998 16.1002H20.0998C20.2589 16.1002 20.4115 16.1634 20.5241 16.2759C20.6366 16.3885 20.6998 16.5411 20.6998 16.7002V19.7002C20.6998 19.8593 20.6366 20.0119 20.5241 20.1245C20.4115 20.237 20.2589 20.3002 20.0998 20.3002C19.9407 20.3002 19.7881 20.237 19.6755 20.1245C19.563 20.0119 19.4998 19.8593 19.4998 19.7002V18.4396C19.0006 18.9488 18.3799 19.3226 17.6964 19.5257C17.0128 19.7288 16.2887 19.7546 15.5924 19.6006C14.8961 19.4466 14.2505 19.1179 13.7164 18.6454C13.1822 18.1729 12.7771 17.5723 12.5392 16.9C12.513 16.8257 12.5016 16.747 12.5058 16.6683C12.51 16.5896 12.5296 16.5125 12.5636 16.4414C12.5976 16.3703 12.6453 16.3066 12.7039 16.2539C12.7625 16.2012 12.8309 16.1606 12.9052 16.1344H12.9046Z" fill="#F0792E"/>
<path d="M16.5 23.9C11.8685 23.9 8.1 20.1315 8.1 15.5C8.1 10.8685 11.8685 7.1 16.5 7.1C21.1315 7.1 24.9 10.8685 24.9 15.5C24.9 20.1315 21.1315 23.9 16.5 23.9ZM16.5 8.86154C12.8395 8.86154 9.86154 11.8395 9.86154 15.5C9.86154 19.1605 12.8395 22.1385 16.5 22.1385C20.1605 22.1385 23.1385 19.1605 23.1385 15.5C23.1385 11.8395 20.1605 8.86154 16.5 8.86154Z" fill="#20446C" stroke="white" stroke-width="0.2"/>
<path d="M3.75 4H8.25V5.5H3.75V4Z" fill="#F0792E"/>
</svg>
