<svg width="15" height="20" viewBox="0 0 15 20" fill="none" xmlns="http://www.w3.org/2000/svg">
<path d="M11.8161 2.05957H3.00293V3.13588H11.8161V2.05957Z" fill="#F0792E"/>
<path d="M14.1161 10.235C13.7157 9.73203 13.1258 9.36291 12.3541 9.13064V1.61445C12.3541 0.724243 11.6298 0 10.7396 0H4.07897C3.18876 0 2.46452 0.724243 2.46452 1.61445V8.07996H2.01807C1.12786 8.07996 0.403613 8.8042 0.403613 9.69441V9.76615C0.403613 10.0812 0.494614 10.3752 0.651324 10.6239C0.256321 10.9185 0 11.3892 0 11.9187V11.9905C0 12.52 0.256321 12.9907 0.651324 13.2854C0.494668 13.5341 0.403613 13.8281 0.403613 14.1431V14.2148C0.403613 15.105 1.12786 15.8293 2.01807 15.8293H2.46602C2.489 16.4552 2.8698 16.991 3.40962 17.238C3.45972 17.8032 3.6294 18.8625 4.20436 19.6886C4.30892 19.8388 4.47634 19.9193 4.6465 19.9193C4.75263 19.9193 4.85977 19.888 4.95346 19.8228C5.19741 19.6531 5.25752 19.3176 5.08773 19.0737C4.7219 18.5481 4.571 17.857 4.50868 17.3839H8.95838C8.97302 17.4062 8.98771 17.4279 9.00224 17.449C9.17133 17.6934 9.5066 17.7546 9.75097 17.5854C9.9954 17.4163 10.0565 17.0811 9.88739 16.8366C9.24597 15.9095 9.41452 14.9055 10.403 13.7685C10.568 13.6258 11.0653 13.1372 11.0066 12.4752C10.9621 11.9724 10.6241 11.5499 10.002 11.2193C9.98345 11.2095 9.9644 11.2007 9.94487 11.1932C9.91979 11.1834 9.33121 10.9467 9.42065 10.3479C9.47484 9.98539 10.2154 9.90273 10.6996 9.9354C11.9458 10.0198 12.836 10.3553 13.2739 10.9055C13.5835 11.2943 13.6833 11.8 13.5792 12.4517C13.557 12.5908 13.5349 12.7338 13.5122 12.88C13.2025 14.8816 12.817 17.3727 10.8285 19.0505C10.6013 19.2422 10.5725 19.5817 10.7642 19.8089C10.8707 19.935 11.0227 20 11.1758 20C11.2983 20 11.4216 19.9584 11.5226 19.8731C13.819 17.9355 14.2565 15.1087 14.5759 13.0446C14.5982 12.9002 14.6201 12.7589 14.642 12.6215C14.7945 11.6678 14.6175 10.8649 14.1161 10.235ZM1.61445 12.5286C1.31772 12.5286 1.0763 12.2872 1.0763 11.9905V11.9187C1.0763 11.622 1.31772 11.3806 1.61445 11.3806H2.01807H2.42168V12.5286H2.01807H1.61445ZM1.47992 9.69441C1.47992 9.39767 1.72133 9.15626 2.01807 9.15626H2.42168V10.3043H2.01807C1.72133 10.3043 1.47992 10.0629 1.47992 9.76615V9.69441ZM2.42168 14.753H2.01807C1.72133 14.753 1.47992 14.5116 1.47992 14.2148V14.1431C1.47992 13.8464 1.72133 13.6049 2.01807 13.6049H2.42168V14.753ZM4.07897 16.3075C3.78223 16.3075 3.54082 16.0661 3.54082 15.7694V15.3243H8.46258C8.41679 15.6831 8.43907 16.0124 8.50192 16.3075H4.07897ZM8.3563 10.1889C8.18818 11.3139 9.02506 11.9747 9.52005 12.1822C9.81286 12.3419 9.92641 12.4861 9.93448 12.569C9.94578 12.6847 9.79709 12.8749 9.69355 12.9592C9.66761 12.9796 9.64356 13.0023 9.62171 13.0271C9.2457 13.4541 8.97689 13.8623 8.79123 14.248H3.54082V1.61445C3.54082 1.31772 3.78223 1.0763 4.07897 1.0763H10.7396C11.0363 1.0763 11.2778 1.31772 11.2778 1.61445V8.91065C11.1146 8.89014 10.9468 8.8733 10.7725 8.86146C9.41856 8.7703 8.49234 9.27842 8.3563 10.1889Z" fill="#F0792E"/>
<path d="M6.98672 4.47559H5.69193C5.54334 4.47559 5.42285 4.59602 5.42285 4.74466V6.03951C5.42285 6.18814 5.54334 6.30858 5.69193 6.30858H6.98672C7.1353 6.30858 7.25579 6.18814 7.25579 6.03951V4.74466C7.25579 4.59602 7.1353 4.47559 6.98672 4.47559Z" fill="#F0792E"/>
<path d="M6.63692 7.6881H5.961V7.03909C5.961 6.89046 5.84051 6.77002 5.69193 6.77002C5.54334 6.77002 5.42285 6.89046 5.42285 7.03909V7.95723C5.42285 8.10587 5.54334 8.22631 5.69193 8.22631H6.63692C6.7855 8.22631 6.90599 8.10587 6.90599 7.95723C6.90599 7.8086 6.7855 7.6881 6.63692 7.6881Z" fill="#F0792E"/>
<path d="M9.00234 4.47559H7.70755C7.55897 4.47559 7.43848 4.59602 7.43848 4.74466V6.03951C7.43848 6.18814 7.55897 6.30858 7.70755 6.30858H9.00234C9.15093 6.30858 9.27142 6.18814 9.27142 6.03951V4.74466C9.27142 4.59602 9.15098 4.47559 9.00234 4.47559ZM8.73327 5.77043H7.97663V5.01374H8.73327V5.77043Z" fill="#F0792E"/>
<path d="M8.73857 6.77734H7.97122C7.82264 6.77734 7.70215 6.89778 7.70215 7.04642V7.81365C7.70215 7.96229 7.82264 8.08273 7.97122 8.08273H8.73857C8.88716 8.08273 9.00765 7.96229 9.00765 7.81365V7.04642C9.00765 6.89778 8.88716 6.77734 8.73857 6.77734Z" fill="#F0792E"/>
</svg>
