<svg width="29" height="29" viewBox="0 0 29 29" fill="none" xmlns="http://www.w3.org/2000/svg">
<g clip-path="url(#clip0_2673_14291)">
<path d="M14.5 28.9994C22.2195 28.9994 28.4774 22.7415 28.4774 15.0219C28.4774 7.30237 22.2195 1.04443 14.5 1.04443C6.7804 1.04443 0.522461 7.30237 0.522461 15.0219C0.522461 22.7415 6.7804 28.9994 14.5 28.9994Z" fill="#FDF4E2"/>
<path d="M15.4268 4.32398V5.35652L11.5744 5.61739L7.48438 5.35652V4.32398C7.48438 4.14504 7.62942 4 7.80835 4H15.1028C15.2818 4 15.4268 4.14504 15.4268 4.32398Z" fill="#7CA1B1"/>
<path d="M15.4264 4.32382V5.35652L13.7657 5.46031V4.32382C13.7657 4.14479 13.6204 4 13.4414 4H15.102C15.2811 4 15.4264 4.14479 15.4264 4.32382Z" fill="#678D98"/>
<path d="M19.9103 6.92729V27.8106C19.9103 28.6783 19.2071 29.3815 18.3395 29.3815H4.57136C3.70369 29.3815 3 28.6783 3 27.8106V6.92729C3 6.05961 3.70369 5.35645 4.57136 5.35645H5.40037L11.4556 5.75572L17.3708 5.35645H18.3395C19.2071 5.35645 19.9103 6.05961 19.9103 6.92729Z" fill="#20446C"/>
<path d="M19.9108 6.92751V27.8108C19.9108 28.6785 19.2076 29.3817 18.34 29.3817H17.3711C18.2388 29.3817 18.9419 28.6785 18.9419 27.8108V6.92751C18.9419 5.30181 17.5512 5.35666 17.5512 5.35666H18.34C19.2076 5.35666 19.9108 6.05983 19.9108 6.92751Z" fill="#08182B"/>
<path d="M18.3394 6.14524V25.957C18.3394 26.3929 17.986 26.7457 17.5506 26.7457H5.36008C4.92417 26.7457 4.57129 26.3929 4.57129 25.957V6.14524C4.57129 5.70985 4.92417 5.35645 5.36008 5.35645H17.5506C17.986 5.35645 18.3394 5.70985 18.3394 6.14524Z" fill="#E3EDF8"/>
<path d="M18.3398 6.14524V25.957C18.3398 26.3929 17.9864 26.7457 17.551 26.7457H16.1592C16.5951 26.7457 16.948 26.3929 16.948 25.957V6.14524C16.948 5.70985 16.5951 5.35645 16.1592 5.35645H17.551C17.9864 5.35645 18.3398 5.70985 18.3398 6.14524Z" fill="#9DB6D1"/>
<path d="M16.2384 10.8063H6.91029C6.73925 10.8063 6.60059 10.6677 6.60059 10.4966V9.55922C6.60059 9.38817 6.73925 9.24951 6.91029 9.24951H16.2384C16.4095 9.24951 16.5481 9.38817 16.5481 9.55922V10.4966C16.5481 10.6677 16.4095 10.8063 16.2384 10.8063Z" fill="#7CA1B1"/>
<path d="M13.9889 5.35645V6.08556C13.9889 6.57908 13.5877 6.98074 13.0942 6.98074H9.81761C9.32409 6.98074 8.92295 6.57908 8.92295 6.08556V5.35645H8.14453V6.08556C8.14453 7.00824 8.89492 7.75915 9.81761 7.75915H13.0942C14.0169 7.75915 14.7673 7.00824 14.7673 6.08556V5.35645H13.9889Z" fill="white"/>
<path d="M9.16017 13.7638H6.98979C6.77485 13.7638 6.60059 13.5895 6.60059 13.3746C6.60059 13.1596 6.77485 12.9854 6.98979 12.9854H9.16017C9.37512 12.9854 9.54938 13.1596 9.54938 13.3746C9.54938 13.5895 9.37512 13.7638 9.16017 13.7638Z" fill="#7CA1B1"/>
<path d="M13.9162 16.3321H6.98979C6.77485 16.3321 6.60059 16.1579 6.60059 15.9429C6.60059 15.728 6.77485 15.5537 6.98979 15.5537H13.9161C14.1311 15.5537 14.3053 15.728 14.3053 15.9429C14.3053 16.1579 14.1311 16.3321 13.9162 16.3321Z" fill="#7CA1B1"/>
<path d="M13.228 18.9005H6.98979C6.77485 18.9005 6.60059 18.7262 6.60059 18.5113C6.60059 18.2963 6.77485 18.1221 6.98979 18.1221H13.228C13.4429 18.1221 13.6172 18.2963 13.6172 18.5113C13.6172 18.7262 13.443 18.9005 13.228 18.9005Z" fill="#7CA1B1"/>
<path d="M12.5398 21.4688H6.98979C6.77485 21.4688 6.60059 21.2946 6.60059 21.0796C6.60059 20.8647 6.77485 20.6904 6.98979 20.6904H12.5398C12.7548 20.6904 12.9291 20.8647 12.9291 21.0796C12.9291 21.2946 12.7548 21.4688 12.5398 21.4688Z" fill="#7CA1B1"/>
<path d="M9.16017 24.0372H6.98979C6.77485 24.0372 6.60059 23.8629 6.60059 23.648C6.60059 23.4331 6.77485 23.2588 6.98979 23.2588H9.16017C9.37512 23.2588 9.54938 23.4331 9.54938 23.648C9.54938 23.8629 9.37512 24.0372 9.16017 24.0372Z" fill="#7CA1B1"/>
<path d="M27.4523 13.9446L17.2323 11.2061C16.9428 11.1285 16.6453 11.3004 16.5677 11.5898L12.6075 26.3696C12.5299 26.6591 12.7017 26.9566 12.9912 27.0342L23.2112 29.7726C23.5007 29.8502 23.7982 29.6784 23.8758 29.389L27.836 14.6092C27.9136 14.3197 27.7418 14.0222 27.4523 13.9446Z" fill="#9DB6D1"/>
<path d="M26.5557 12.392L22.5955 27.1717C22.518 27.4609 22.2204 27.6331 21.9312 27.5557L11.711 24.8171C11.4218 24.7397 11.2497 24.4416 11.3272 24.1523L15.2874 9.37265C15.365 9.08292 15.663 8.91131 15.9522 8.98884L26.1724 11.7274C26.4616 11.8048 26.6334 12.1023 26.5557 12.392Z" fill="#EAF6FF"/>
<path d="M26.5551 12.3918L22.595 27.1718C22.5177 27.4608 22.2198 27.6331 21.9308 27.5558L20.293 27.1168C20.582 27.1941 20.8804 27.0223 20.9577 26.7328L24.9178 11.9532C24.9951 11.6652 24.8254 11.3689 24.539 11.29L26.1716 11.7275C26.4611 11.8048 26.6329 12.1022 26.5551 12.3918Z" fill="#C8EFFE"/>
<path d="M18.2726 24.593C20.3852 24.593 22.0978 22.8803 22.0978 20.7677C22.0978 18.655 20.3852 16.9424 18.2726 16.9424C16.1599 16.9424 14.4473 18.655 14.4473 20.7677C14.4473 22.8803 16.1599 24.593 18.2726 24.593Z" fill="#46CC8D"/>
<path d="M23.1767 16.1089L16.3547 14.2809C16.1978 14.2388 16.1048 14.0777 16.1468 13.9209L16.789 11.5241C16.831 11.3673 16.9922 11.2742 17.1491 11.3162L23.9711 13.1442C24.1279 13.1863 24.221 13.3474 24.1789 13.5042L23.5367 15.901C23.4947 16.0578 23.3335 16.1508 23.1767 16.1089Z" fill="#366192"/>
<path d="M18.0627 21.9439C17.9282 21.9439 17.7974 21.8741 17.7253 21.7493L16.4672 19.5702C16.3598 19.3841 16.4236 19.146 16.6097 19.0386C16.7958 18.931 17.0339 18.9949 17.1414 19.181L18.2048 21.023L21.642 19.0386C21.8281 18.931 22.0662 18.9949 22.1737 19.181C22.2811 19.3672 22.2174 19.6052 22.0312 19.7127L18.257 21.8917C18.1957 21.9271 18.1287 21.9439 18.0627 21.9439Z" fill="white"/>
</g>
<defs>
<clipPath id="clip0_2673_14291">
<path d="M0 0H29V14.5C29 22.5081 22.5081 29 14.5 29C6.49187 29 0 22.5081 0 14.5V0Z" fill="white"/>
</clipPath>
</defs>
</svg>
