<svg width="15" height="22" viewBox="0 0 15 22" fill="none" xmlns="http://www.w3.org/2000/svg">
<path d="M12.4528 0.0526149V0.0519877H12.4009H2.15848C0.99681 0.0519877 0.051481 0.993501 0.051481 2.15128V19.8449C0.051481 21.0046 0.994881 21.948 2.15461 21.948H12.4048C13.5646 21.948 14.508 21.0046 14.508 19.8449V2.15128C14.5079 1.01079 13.5906 0.0801508 12.4528 0.0526149ZM1.00651 2.15128C1.00651 1.52069 1.52301 1.00702 2.15848 1.00702H12.401C13.0364 1.00702 13.5529 1.52065 13.5529 2.15128V17.5951H1.00651V2.15128ZM13.5529 19.8449C13.5529 20.4779 13.0378 20.993 12.4048 20.993H2.15456C1.52158 20.993 1.00647 20.4779 1.00647 19.8449V18.5501H13.5529V19.8449Z" fill="#848484" stroke="#848484" stroke-width="0.1"/>
<path d="M6.99654 20.2495H7.56403C7.82776 20.2495 8.04154 20.0357 8.04154 19.772C8.04154 19.5083 7.82776 19.2945 7.56403 19.2945H6.99654C6.73281 19.2945 6.51903 19.5083 6.51903 19.772C6.51903 20.0357 6.73285 20.2495 6.99654 20.2495Z" fill="#848484" stroke="#848484" stroke-width="0.1"/>
<path d="M5.25855 2.69029H9.30113C9.56487 2.69029 9.77865 2.47645 9.77865 2.21277C9.77865 1.94908 9.56487 1.73525 9.30113 1.73525H5.25855C4.99482 1.73525 4.78104 1.94908 4.78104 2.21277C4.78104 2.47645 4.99482 2.69029 5.25855 2.69029Z" fill="#848484" stroke="#848484" stroke-width="0.1"/>
<path d="M4.49877 12.7292L4.39719 11.9314H10.5584C10.7902 11.9314 10.9939 11.7772 11.0599 11.553L12.3331 7.23309L12.3331 7.23308C12.3802 7.07291 12.3501 6.89947 12.2515 6.76526C12.1528 6.63101 11.9972 6.55164 11.8316 6.55164H3.71229L3.58318 5.53761L3.58318 5.53761C3.54959 5.27391 3.32787 5.07543 3.0642 5.07543H1.29229C1.00258 5.07543 0.768971 5.31341 0.768971 5.60535C0.768971 5.89729 1.00258 6.13527 1.29229 6.13527H2.60402L3.51956 13.3269C3.53758 13.4684 3.60973 13.5911 3.71346 13.6743C3.62292 13.8765 3.57251 14.1009 3.57251 14.3369C3.57251 15.2222 4.28221 15.9437 5.1563 15.9437C6.03039 15.9437 6.74009 15.2222 6.74009 14.3369C6.74009 14.1447 6.70664 13.9601 6.64529 13.789H7.92335C7.86217 13.9599 7.8288 14.1442 7.8288 14.3361C7.8288 15.2215 8.5385 15.943 9.41259 15.943C10.2867 15.943 10.9964 15.2214 10.9964 14.3361C10.9964 14.0148 10.9029 13.7152 10.7422 13.4638C10.7682 13.4007 10.7827 13.3316 10.7827 13.2591C10.7827 12.9672 10.5491 12.7292 10.2594 12.7292H4.49877ZM5.1563 14.8839C4.86095 14.8839 4.61914 14.6393 4.61914 14.3369C4.61914 14.0344 4.86096 13.7898 5.1563 13.7898C5.45164 13.7898 5.69346 14.0344 5.69346 14.3369C5.69351 14.6392 5.45165 14.8839 5.1563 14.8839ZM9.41263 14.8832C9.11729 14.8832 8.87547 14.6385 8.87547 14.3362C8.87547 14.0337 9.11729 13.7891 9.41263 13.7891C9.70798 13.7891 9.9498 14.0337 9.9498 14.3362C9.9498 14.6385 9.70794 14.8832 9.41263 14.8832ZM11.1293 7.61147L10.1685 10.8716H4.26225L3.84722 7.61147H11.1293Z" fill="#848484" stroke="#848484" stroke-width="0.1"/>
</svg>
