<svg width="14" height="10" viewBox="0 0 14 10" fill="none" xmlns="http://www.w3.org/2000/svg">
<path d="M12.158 0.350927L5.61432 6.97985L1.82637 3.1114C1.72812 3.0116 1.61118 2.93213 1.48222 2.87752C1.35327 2.82292 1.21482 2.79425 1.07478 2.79315C0.934739 2.79205 0.795856 2.81854 0.666056 2.87112C0.536257 2.92369 0.418084 3.00132 0.318285 3.09956C0.218486 3.19781 0.139015 3.31475 0.0844095 3.4437C0.0298037 3.57266 0.0011321 3.71111 3.28946e-05 3.85115C-0.00218704 4.13397 0.108035 4.40609 0.306449 4.60764L4.8662 9.23842C4.93634 9.29917 5.01439 9.35014 5.09821 9.38994C5.13227 9.41689 5.16872 9.44066 5.20712 9.46096C5.33331 9.51303 5.46834 9.54035 5.60485 9.54145C5.74141 9.54083 5.87653 9.51349 6.00259 9.46096C6.048 9.43698 6.09084 9.40843 6.13043 9.37573C6.20752 9.34013 6.27924 9.29391 6.34351 9.23842L13.659 1.83297C13.7642 1.7362 13.8486 1.61908 13.9072 1.48871C13.9658 1.35834 13.9973 1.21744 13.9998 1.07453C14.0024 0.931624 13.9758 0.789694 13.9219 0.657339C13.8679 0.524984 13.7877 0.404959 13.686 0.304538C13.5843 0.204116 13.4632 0.125388 13.3302 0.0731242C13.1972 0.0208602 13.0549 -0.00385093 12.9121 0.000486325C12.7692 0.00482358 12.6287 0.0381196 12.4991 0.0983573C12.3695 0.158595 12.2534 0.244521 12.158 0.350927Z" fill="white"/>
</svg>
