<svg width="6" height="6" viewBox="0 0 6 6" fill="none" xmlns="http://www.w3.org/2000/svg">
<path d="M5.73371 1.75466C5.97799 2.29304 6.05632 2.89178 5.95879 3.47513C5.86126 4.05847 5.59225 4.6002 5.18581 5.03175C4.77938 5.46329 4.25378 5.76527 3.67553 5.89945C3.09729 6.03363 2.49238 5.99399 1.93738 5.78554C1.38238 5.57709 0.902223 5.20921 0.557676 4.72845C0.213129 4.24768 0.0196814 3.67565 0.00181062 3.08474C-0.0160602 2.49383 0.142451 1.91061 0.457285 1.40888C0.772119 0.907147 1.22912 0.509461 1.77046 0.266149C2.12926 0.104353 2.51641 0.0145115 2.90981 0.00175875C3.3032 -0.0109939 3.69512 0.0535916 4.06318 0.191825C4.43123 0.330059 4.76821 0.539231 5.05485 0.807389C5.34148 1.07555 5.57217 1.39744 5.73371 1.75466Z" fill="#FFE8DE"/>
<path d="M5.08396 2.04861C5.2701 2.4589 5.32976 2.91519 5.25541 3.35974C5.18105 3.80429 4.97602 4.21711 4.66625 4.54595C4.35649 4.8748 3.95592 5.10488 3.51524 5.20709C3.07456 5.3093 2.61359 5.27903 2.19066 5.12012C1.76772 4.96122 1.40185 4.68081 1.13933 4.31439C0.876819 3.94798 0.729466 3.51202 0.715926 3.0617C0.702386 2.61138 0.823266 2.16695 1.06327 1.78464C1.30327 1.40233 1.6516 1.09933 2.06419 0.913998C2.3376 0.790756 2.63261 0.722343 2.93237 0.712668C3.23213 0.702994 3.53076 0.752247 3.81119 0.857614C4.09163 0.962981 4.34837 1.1224 4.56676 1.32675C4.78514 1.53111 4.96089 1.7764 5.08396 2.04861Z" fill="#FFD2C0"/>
<path d="M2.93541 1.73948C3.00081 1.67182 2.99998 1.56496 2.93357 1.50075C2.86719 1.4366 2.76031 1.43935 2.69491 1.50701L1.75717 2.47712C1.69177 2.54478 1.69265 2.65169 1.75902 2.71585C1.82544 2.78005 1.93227 2.77725 1.99767 2.70959L2.26643 2.43155C2.37739 2.31639 2.54421 2.2756 2.69291 2.32724L2.16717 2.87113C2.10182 2.93874 2.10265 3.0457 2.16902 3.10985C2.23544 3.17406 2.34232 3.17121 2.40767 3.1036L2.93341 2.55972C2.98937 2.70674 2.9543 2.87442 2.84363 2.98948L2.57486 3.26753C2.52634 3.31781 2.51279 3.39208 2.5406 3.45497C2.5684 3.51785 2.63202 3.55676 2.70117 3.55317L4.01468 3.48172C4.05788 3.47914 4.09871 3.46012 4.12882 3.4286C4.16119 3.39473 4.17889 3.34954 4.17802 3.30316C4.17646 3.25853 4.15721 3.21669 4.12453 3.18686C4.09185 3.15703 4.04837 3.14166 4.00373 3.14413L3.11252 3.19258C3.32965 2.94088 3.35842 2.5794 3.18327 2.30367L3.34548 2.13586C3.41088 2.06821 3.41005 1.96134 3.34363 1.89714C3.27721 1.83294 3.17038 1.83574 3.10498 1.90339L2.94278 2.07119C2.86911 2.02756 2.78803 1.99732 2.70339 1.98196L2.93663 1.74066L2.93541 1.73948Z" fill="#F38D5D"/>
<path d="M5.05146 1.98151C5.03843 1.9844 4.98949 1.90075 4.88393 1.75707C4.73678 1.5546 4.55885 1.37623 4.35652 1.22839C4.21729 1.12819 4.06758 1.04328 3.90999 0.97514C3.72872 0.898615 3.5383 0.845586 3.3434 0.817353C3.23866 0.801451 3.13283 0.793596 3.02684 0.793858C2.80265 0.793195 2.57957 0.826145 2.3651 0.891599C2.25261 0.92634 2.14287 0.969404 2.0368 1.02043C1.93122 1.0727 1.82951 1.13242 1.73247 1.19914C1.63881 1.26478 1.55036 1.33751 1.46789 1.41666C1.38763 1.49224 1.31363 1.57417 1.24661 1.66162C1.18156 1.7458 1.12286 1.83466 1.07098 1.92745C0.973901 2.09802 0.899254 2.28029 0.848879 2.46976C0.805303 2.63536 0.780356 2.80524 0.774502 2.97626C0.76713 3.2263 0.798712 3.4759 0.868123 3.71617C0.91753 3.88743 0.955612 3.9803 0.943225 3.98608C0.930838 3.99185 0.874178 3.90764 0.803866 3.73799C0.705741 3.49568 0.653772 3.23721 0.650618 2.97578C0.645997 2.58286 0.743006 2.1952 0.932305 1.85011C1.04387 1.64582 1.18512 1.45904 1.35146 1.29581C1.43958 1.20959 1.53455 1.13061 1.63543 1.05962C1.73951 0.986821 1.84902 0.922065 1.96301 0.86592C2.07757 0.81064 2.19627 0.76432 2.31802 0.72738C2.43627 0.690875 2.55729 0.664012 2.67988 0.647056C2.79768 0.631034 2.91656 0.624368 3.03539 0.62712C3.14923 0.62883 3.26274 0.639277 3.37493 0.658367C3.58127 0.694199 3.78178 0.757527 3.97107 0.846647C4.13454 0.923191 4.2883 1.01876 4.42914 1.13136C4.63442 1.29426 4.80746 1.49379 4.93945 1.71979C5.0318 1.87925 5.06111 1.9771 5.05146 1.98151Z" fill="#F38D5D"/>
</svg>
