<svg width="4" height="3" viewBox="0 0 4 3" fill="none" xmlns="http://www.w3.org/2000/svg">
<g clip-path="url(#clip0_834_32666)">
<path d="M3.2986 0.512268C2.99275 0.335714 2.60165 0.440626 2.4249 0.746478L1.97936 1.51828C1.85044 1.74115 2.01641 1.81903 2.20147 1.92999L2.63019 2.17743C2.77537 2.26117 2.9608 2.21146 3.04455 2.06647L3.50256 1.2733C3.65643 1.00677 3.56513 0.666142 3.2986 0.512268Z" fill="#EA4335"/>
<path d="M2.79307 0.832436L2.36435 0.584999C2.12769 0.453624 1.99367 0.444928 1.8965 0.599366L1.2642 1.69442C1.08765 2.00008 1.19275 2.39099 1.49841 2.56717C1.76494 2.72104 2.10557 2.62973 2.25944 2.3632L2.90385 1.24698C2.98796 1.10181 2.93825 0.916178 2.79307 0.832436Z" fill="#FBBC04"/>
<path d="M2.87574 0.268895L2.57461 0.0949881C2.24154 -0.0972554 1.81566 0.0167294 1.62342 0.3498L1.05009 1.34277C0.965404 1.48927 1.01569 1.67679 1.16219 1.76128L1.49942 1.95598C1.66595 2.0522 1.87879 1.99511 1.97501 1.82858L2.63 0.694214C2.76572 0.459248 3.06609 0.378721 3.30105 0.514445L2.87574 0.268895Z" fill="#34A853"/>
<path d="M1.70511 0.633592L1.3796 0.446075C1.23442 0.362524 1.04899 0.412049 0.965249 0.556846L0.574714 1.23168C0.382471 1.56381 0.496456 1.98875 0.829526 2.18043L1.07734 2.32314L1.3779 2.49629L1.50833 2.57133C1.27677 2.41633 1.20324 2.10576 1.34482 1.86115L1.44595 1.68649L1.81626 1.04662C1.89981 0.902206 1.8501 0.717143 1.70511 0.633592Z" fill="#4285F4"/>
</g>
<defs>
<clipPath id="clip0_834_32666">
<rect width="3.70859" height="2.44767" fill="white" transform="scale(1.07846)"/>
</clipPath>
</defs>
</svg>
