<svg width="111" height="111" viewBox="0 0 111 111" fill="none" xmlns="http://www.w3.org/2000/svg">
<rect width="111" height="111" fill="white"/>
<path d="M95.7973 73.0635C85.9609 96.0543 59.9969 105.931 39.6568 104.245C34.1025 103.786 22.9279 102.859 14.1987 94.6061C-2.55949 78.7572 0.0215166 45.6331 16.0648 26.1289C18.1325 23.6175 32.4307 6.78969 54.7139 7.01699C71.0285 7.18197 82.4817 16.3988 83.8711 17.5463C85.6309 18.9981 89.5098 22.4444 93.0073 27.9107C101.223 40.7607 101.946 58.6957 95.7973 73.0635Z" fill="url(#paint0_linear_10784_11743)"/>
<path d="M12.9043 6.08939C10.2866 14.6756 -2.9117 65.2692 42.3365 86.1812C42.3365 86.1812 59.6007 55.1101 14.1875 5.79243C13.7915 5.36349 13.0766 5.52847 12.9043 6.08939Z" fill="url(#paint1_linear_10784_11743)"/>
<path opacity="0.52" d="M16.1818 14.5655C16.3578 17.5755 16.6585 20.5781 17.0177 23.5734C17.3807 26.5686 17.817 29.5529 18.3266 32.5262C19.3458 38.4728 20.6509 44.3717 22.3337 50.1606C24.0238 55.9459 26.0879 61.6322 28.7496 67.0361C29.4095 68.389 30.1207 69.7161 30.865 71.0213C31.6092 72.3301 32.4011 73.606 33.2407 74.8525C34.9124 77.3491 36.7969 79.7028 38.8976 81.8439C39.0076 81.9539 39.0039 82.1335 38.8939 82.2435C38.784 82.3535 38.6043 82.3498 38.4943 82.2399C36.3753 80.0585 34.4798 77.6718 32.8044 75.1421C31.9612 73.8809 31.1693 72.5868 30.425 71.2669C29.6808 69.9471 28.9695 68.6089 28.3133 67.2451C25.6626 61.7971 23.6132 56.0779 21.9451 50.2669C20.2807 44.4524 19.0048 38.5351 18.0076 32.5739C17.5163 29.6006 17.0947 26.609 16.7428 23.6064C16.3945 20.6037 16.1085 17.5975 15.9435 14.5765C15.9399 14.5105 15.9912 14.4555 16.0572 14.4519C16.1232 14.4482 16.1782 14.4959 16.1818 14.5655Z" fill="white"/>
<path d="M4.98907 51.0517C4.39881 56.9689 2.3714 91.5522 34.48 99.2878C34.48 99.2878 41.6767 76.8654 5.78463 50.6961C5.46934 50.4651 5.02573 50.6667 4.98907 51.0517Z" fill="url(#paint2_linear_10784_11743)"/>
<path opacity="0.52" d="M8.27034 56.1186C8.78728 57.9993 9.37754 59.8691 9.99712 61.7242C10.6204 63.5793 11.2876 65.4161 11.9879 67.2418C12.6881 69.0676 13.436 70.875 14.2206 72.6641C15.0088 74.4532 15.83 76.2277 16.7136 77.9691C18.4697 81.4594 20.4238 84.8543 22.6492 88.0548C22.9168 88.4618 23.2174 88.8467 23.4997 89.2427L23.9323 89.833C24.0753 90.0309 24.2293 90.2179 24.3796 90.4122C24.6802 90.7935 24.9772 91.1821 25.2852 91.5597L26.2274 92.6779C27.5069 94.1444 28.867 95.5376 30.3262 96.8171L30.3299 96.8207C30.4655 96.938 30.4765 97.1434 30.3592 97.2753C30.2419 97.411 30.0366 97.422 29.9046 97.3047H29.9009C28.4234 95.9885 27.0559 94.566 25.7691 93.0702L24.8269 91.9337C24.5189 91.5487 24.2256 91.1564 23.9213 90.7678C23.771 90.5735 23.617 90.3792 23.4741 90.1812L23.0451 89.5837C22.7628 89.1804 22.4622 88.7918 22.1946 88.3775C19.9728 85.1292 18.0371 81.7013 16.2993 78.1818C15.4231 76.4257 14.6165 74.6366 13.8393 72.8365C13.0657 71.0327 12.3288 69.2142 11.6396 67.3775C10.9503 65.5407 10.2978 63.6929 9.6855 61.8305C9.07691 59.9644 8.50131 58.0947 7.99538 56.1956C7.97705 56.1222 8.02104 56.0489 8.0907 56.0269C8.17502 56.0013 8.24835 56.0453 8.27034 56.1186Z" fill="white"/>
<path d="M88.5897 104.644L27.6868 102.818C24.8638 102.734 22.6201 100.42 22.6201 97.5975V12.1128C22.6201 9.27145 24.8932 6.95075 27.7381 6.89209L88.641 5.66758C91.5667 5.60892 93.968 7.96262 93.968 10.8882V99.4269C93.968 102.371 91.5337 104.732 88.5897 104.644Z" fill="#20446C"/>
<path d="M83.4421 97.8286L32.7386 96.2521C30.3886 96.1788 28.5225 94.1807 28.5225 91.739V17.8028C28.5225 15.3428 30.4142 13.3374 32.7826 13.2861L83.4861 12.2265C85.9205 12.1752 87.9222 14.2136 87.9222 16.7433V93.3155C87.9185 95.8598 85.8948 97.9056 83.4421 97.8286Z" fill="url(#paint3_linear_10784_11743)"/>
<path d="M80.5384 94.5507L35.5725 93.1026C33.4901 93.0366 31.833 91.1998 31.833 88.9561V21.0581C31.833 18.7997 33.5121 16.9556 35.6092 16.9116L80.5751 15.9364C82.7345 15.8888 84.5089 17.7585 84.5089 20.0829V90.4006C84.5126 92.747 82.7125 94.6204 80.5384 94.5507Z" fill="url(#paint4_linear_10784_11743)"/>
<path d="M61.6505 100.604C61.6322 101.058 61.3169 101.425 60.9246 101.436C58.9962 101.48 53.5666 101.612 51.1395 101.685C50.6593 101.7 50.3036 101.183 50.4173 100.637L50.4356 100.545C50.5126 100.171 50.7876 99.8997 51.1139 99.8777C52.7563 99.7641 57.713 99.4634 60.9833 99.7237C61.3719 99.7494 61.6689 100.142 61.6505 100.604Z" fill="url(#paint5_linear_10784_11743)"/>
<path d="M57.8814 11.4054C58.9889 11.4054 59.8868 10.5075 59.8868 9.39994C59.8868 8.29238 58.9889 7.39453 57.8814 7.39453C56.7738 7.39453 55.876 8.29238 55.876 9.39994C55.876 10.5075 56.7738 11.4054 57.8814 11.4054Z" fill="url(#paint6_linear_10784_11743)"/>
<path d="M53.2259 25.4066C58.1276 25.3993 76.9462 25.337 81.6976 25.3223C82.2952 25.3186 82.7718 25.9052 82.7498 26.6128C82.7278 27.2874 82.2585 27.8263 81.6866 27.83L53.2296 28.0793C52.6796 28.083 52.225 27.5954 52.1774 26.9501L52.1664 26.7851C52.1077 26.0482 52.599 25.4103 53.2259 25.4066Z" fill="#BDD0FB"/>
<path d="M53.3617 19.6175C58.2634 19.6102 77.082 19.5479 81.8334 19.5332C82.431 19.5296 82.9076 20.1161 82.8856 20.8237C82.8636 21.4983 82.3943 22.0372 81.8224 22.0409L53.3654 22.2902C52.8154 22.2939 52.3608 21.8063 52.3132 21.161L52.3022 20.996C52.2399 20.2591 52.7348 19.6212 53.3617 19.6175Z" fill="#BDD0FB"/>
<path d="M53.0023 30.9754C57.904 30.968 76.7226 30.9057 81.474 30.891C82.0716 30.8874 82.5482 31.474 82.5262 32.1815C82.5042 32.8561 82.0349 33.395 81.463 33.3987L53.0059 33.648C52.456 33.6517 52.0014 33.1641 51.9537 32.5188L51.9427 32.3538C51.8841 31.6169 52.3754 30.9754 53.0023 30.9754Z" fill="#BDD0FB"/>
<path d="M36.0055 38.9126C43.5762 38.9163 72.6345 38.9089 79.9742 38.9053C80.8981 38.9053 81.6497 39.4919 81.635 40.1994C81.6203 40.874 80.9091 41.4093 80.0292 41.413L36.0862 41.5853C35.2393 41.5889 34.5207 41.0977 34.4254 40.4524L34.4034 40.2874C34.2934 39.5505 35.0376 38.9126 36.0055 38.9126Z" fill="#BDD0FB"/>
<path d="M35.6536 44.7566C41.5452 44.7309 64.1657 44.5989 69.8776 44.5659C70.5998 44.5623 71.1791 45.1452 71.1608 45.8528C71.1424 46.5274 70.5888 47.0663 69.9033 47.0736L35.694 47.4292C35.034 47.4366 34.4768 46.949 34.4108 46.3037L34.3925 46.1387C34.3191 45.4018 34.9021 44.7602 35.6536 44.7566Z" fill="#BDD0FB"/>
<path d="M35.9325 52.4081C43.5032 52.4118 72.5614 52.4045 79.9012 52.4008C80.8251 52.4008 81.5766 52.9874 81.562 53.695C81.5473 54.3696 80.8361 54.9048 79.9562 54.9085L36.0095 55.0808C35.1626 55.0845 34.444 54.5932 34.3487 53.9479L34.3267 53.783C34.2167 53.0461 34.9646 52.4081 35.9325 52.4081Z" fill="#BDD0FB"/>
<path d="M35.2726 58.3472C41.1935 58.3582 63.9203 58.3692 69.6615 58.3728C70.3838 58.3728 70.9667 58.9594 70.9447 59.6707C70.9227 60.3452 70.3618 60.8805 69.6725 60.8842L35.3019 61.0235C34.6383 61.0272 34.0847 60.5359 34.0187 59.8906L34.0004 59.7257C33.9234 58.9851 34.5137 58.3472 35.2726 58.3472Z" fill="#BDD0FB"/>
<path d="M35.5582 66.1782C43.1289 66.1819 72.1872 66.1746 79.5269 66.1709C80.4508 66.1709 81.2024 66.7575 81.1877 67.4651C81.1731 68.1396 80.4618 68.6749 79.5819 68.6786L35.6389 68.8509C34.792 68.8546 34.0734 68.3633 33.9781 67.718L33.9561 67.5531C33.8461 66.8161 34.5904 66.1782 35.5582 66.1782Z" fill="#BDD0FB"/>
<path d="M35.1001 72.0479C41.021 72.0589 63.7478 72.0699 69.4891 72.0735C70.2113 72.0735 70.7942 72.6601 70.7722 73.3714C70.7502 74.046 70.1893 74.5812 69.5001 74.5849L35.1294 74.7242C34.4659 74.7279 33.9123 74.2366 33.8463 73.5913L33.8279 73.4264C33.7546 72.6858 34.3449 72.0479 35.1001 72.0479Z" fill="#BDD0FB"/>
<path d="M36.0055 79.791C43.5762 79.7947 72.6345 79.7874 79.9742 79.7837C80.8981 79.7837 81.6497 80.3703 81.635 81.0779C81.6203 81.7524 80.9091 82.2877 80.0292 82.2914L36.0862 82.4637C35.2393 82.4673 34.5207 81.9761 34.4254 81.3308L34.4034 81.1658C34.2934 80.4289 35.0376 79.7874 36.0055 79.791Z" fill="#BDD0FB"/>
<path d="M35.577 86.2984C41.4209 86.2984 63.8617 86.2691 69.5296 86.2617C70.2446 86.2617 70.8165 86.8483 70.7981 87.5559C70.7798 88.2305 70.2226 88.7694 69.5443 88.7731L35.61 88.9747C34.9574 88.9784 34.4075 88.4871 34.3415 87.8419L34.3268 87.6769C34.2461 86.9363 34.8291 86.2984 35.577 86.2984Z" fill="#BDD0FB"/>
<path d="M39.5761 28.8746L37.974 33.725H35.9136L41.1526 18.3013H43.5539L48.8223 33.7286H46.6959L45.0461 28.8746H39.5761ZM44.6355 27.3201L43.125 22.8804C42.7804 21.8721 42.5531 20.9593 42.3258 20.0647H42.2818C42.0545 20.9813 41.8015 21.9198 41.5045 22.8584L39.9941 27.3201H44.6355Z" fill="url(#paint7_linear_10784_11743)"/>
<path d="M86.2947 37.417C86.2947 37.417 87.8382 38.1686 88.1242 39.0301C88.3515 39.723 90.0599 39.811 90.2286 41.1712C90.3165 41.8751 90.8372 42.436 91.5374 42.5423C93.2825 42.81 95.9662 43.7155 96.3988 46.7401C96.7287 49.0498 95.5482 49.9261 94.3127 50.2303C93.4035 50.454 92.8022 51.3375 92.9855 52.2541C93.1615 53.134 92.8976 54.1495 91.3761 54.9524C87.9628 56.7525 84.5533 50.685 84.5533 50.685L83.853 40.0896L86.2947 37.417Z" fill="url(#paint8_linear_10784_11743)"/>
<path d="M67.7251 34.9057C67.7251 34.9057 74.5405 45.6843 82.6428 47.7667C82.6428 47.7667 81.0627 52.2651 79.8455 52.7784C79.8455 52.7784 69.8771 44.4598 67.3145 36.4382L67.7251 34.9057Z" fill="url(#paint9_linear_10784_11743)"/>
<path d="M100.325 103.848L100.545 105.663C100.585 106.008 100.856 106.279 101.201 106.319C101.784 106.385 102.719 106.455 103.632 106.356C104.031 106.312 104.292 105.909 104.171 105.524C103.947 104.824 103.54 103.771 102.953 103.152H100.941C100.567 103.152 100.281 103.478 100.325 103.848Z" fill="url(#paint10_linear_10784_11743)"/>
<path d="M84.5493 82.5771L84.2083 84.5752C84.2083 84.5752 85.3485 96.1054 85.5502 100.721C85.5832 101.443 85.3962 102.158 85.0149 102.774L83.0352 105.989L88.0652 103.02L88.1642 102.408L87.3393 101.275L88.4171 88.3551C88.4795 87.5962 88.3255 86.8336 87.9662 86.1627L86.925 84.2086L84.5493 82.5771Z" fill="url(#paint11_linear_10784_11743)"/>
<path d="M82.7052 106.459H84.311C84.6116 106.459 84.8939 106.319 85.0772 106.081C85.5795 105.432 86.6134 104.164 87.112 104.127C87.7792 104.083 87.6949 106.455 87.6949 106.455H88.0688L88.5418 103.507C88.6628 102.767 88.2925 102.03 87.6252 101.682C87.6252 101.682 87.4712 102.811 86.6464 103.309C85.8178 103.808 83.2808 105.597 83.2808 105.597C83.2808 105.597 82.9692 105.553 82.6282 105.616C82.1186 105.707 82.1883 106.459 82.7052 106.459Z" fill="url(#paint12_linear_10784_11743)"/>
<path d="M91.438 83.5303C91.438 83.5303 98.1068 96.1823 99.1663 99.0713C100.226 101.96 100.596 104.369 100.611 104.596C100.633 104.952 101.076 105.296 102.297 105.296C102.928 105.296 103.236 105.044 103.39 104.798C103.518 104.589 103.525 104.329 103.415 104.109C103.031 103.328 101.806 100.831 101.351 99.7019C100.809 98.349 99.6466 92.2265 99.0087 90.1001C98.3708 87.97 97.6485 85.6603 94.8659 83.5339C94.8696 83.5303 92.9631 81.6568 91.438 83.5303Z" fill="url(#paint13_linear_10784_11743)"/>
<path d="M87.2258 62.798C85.5063 55.5096 89.8654 51.3851 89.8654 51.3851C87.1158 48.7455 82.1041 47.543 82.1041 47.543C82.1041 47.543 77.3234 51.0369 77.8917 53.7755C78.2253 55.3776 81.2536 63.3809 81.2536 63.3809C81.2536 63.3809 84.0509 64.7081 87.2258 62.798Z" fill="url(#paint14_linear_10784_11743)"/>
<path d="M91.042 66.4093C90.3418 64.3012 87.2292 62.8018 87.2292 62.8018C84.0543 64.7082 81.2533 63.3847 81.2533 63.3847C81.2533 63.3847 80.6264 65.786 81.059 68.0151C81.4916 70.2441 84.2119 84.5826 84.2119 84.5826C88.4977 85.4515 95.0858 83.7101 95.0858 83.7101C92.3545 78.8597 91.7423 68.5174 91.042 66.4093Z" fill="url(#paint15_linear_10784_11743)"/>
<path d="M85.2311 42.7293L86.6316 49.0132C86.7672 49.5668 86.2613 49.4751 85.7003 49.3688C84.7838 49.1965 83.6033 48.8409 83.2073 48.1259C83.167 48.0526 83.1487 47.972 83.134 47.8876L82.5328 43.5322C82.4851 43.1876 82.6721 42.8503 82.991 42.711L84.1496 42.1977C84.5968 41.9997 85.1138 42.2527 85.2311 42.7293Z" fill="url(#paint16_linear_10784_11743)"/>
<path d="M89.8652 51.3853C89.8652 51.3853 103.364 64.7486 83.7867 59.4142C83.7867 59.4142 83.563 57.7241 83.8563 57.7534C90.2062 58.3877 92.8605 59.8395 87.6985 54.8352C87.5152 54.6592 87.5738 53.9919 87.6912 53.7646C88.0468 53.0827 88.8643 51.7189 89.8652 51.3853Z" fill="url(#paint17_linear_10784_11743)"/>
<path d="M82.5511 36.9988C82.5511 36.9988 81.0627 38.007 80.4211 40.5733C79.7795 43.1397 80.8207 44.0599 81.8875 44.0049C82.9544 43.9499 84.4979 43.6199 85.8397 41.7759C87.1779 39.9354 84.5015 35.767 82.5511 36.9988Z" fill="url(#paint18_linear_10784_11743)"/>
<path d="M84.4867 40.7421C84.4867 40.7421 85.033 37.0649 81.979 37.6258L81.3631 38.2674C81.3631 38.2674 79.8673 36.5846 81.5208 35.3125C83.1742 34.0403 85.4693 34.3666 86.7415 36.6836C88.01 39.0007 88.4719 40.6285 87.4087 42.0693C86.3455 43.5101 85.5426 42.2746 85.5426 42.2746C85.5426 42.2746 86.0302 41.0281 85.6269 40.4928C85.2236 39.9575 84.6994 40.8044 84.6994 40.8044L84.4867 40.7421Z" fill="url(#paint19_linear_10784_11743)"/>
<path d="M84.9048 41.0573C84.9048 41.0573 85.1724 39.1656 86.1403 39.7045C87.1082 40.2471 85.792 41.4716 85.2641 41.8896L84.9048 41.0573Z" fill="url(#paint20_linear_10784_11743)"/>
<path d="M67.7692 37.1236C67.7472 37.3473 68.5757 37.5013 68.8397 36.5517C68.7664 36.1411 68.6381 34.3373 68.3228 34.0587C66.6436 32.5666 63.6447 30.8911 63.6447 30.8911C63.3111 31.4044 63.7474 31.738 63.7474 31.738L65.2432 32.7462C65.0855 33.2631 64.8582 33.7214 64.8325 34.3117C64.8142 34.759 64.9792 35.1952 65.2762 35.5362C65.5731 35.8771 65.9764 36.3171 66.3357 36.6507C67.0213 37.2813 67.7692 37.1236 67.7692 37.1236Z" fill="url(#paint21_linear_10784_11743)"/>
<path d="M66.9589 36.3902L67.1862 36.2948C67.1569 36.2215 66.4383 34.4764 66.0901 34.1134C65.9581 33.9741 65.8958 33.8568 65.8994 33.7615C65.9031 33.7102 65.9287 33.6588 65.9764 33.6075L67.1862 34.2564L67.7215 35.0923L67.9305 34.9603L67.3622 34.0695L65.9434 33.3105L65.8811 33.3619C65.7381 33.4792 65.6648 33.6038 65.6538 33.7468C65.6428 33.9155 65.7271 34.0914 65.9104 34.2821C66.1744 34.5607 66.7573 35.8989 66.9589 36.3902Z" fill="url(#paint22_linear_10784_11743)"/>
<path d="M84.4503 61.7346L81.3707 50.9853C81.2937 50.7213 81.0664 50.527 80.7951 50.4977C80.0582 50.4134 78.5037 50.2447 76.7403 50.0944C74.5955 49.9148 72.1428 49.7608 70.4637 49.8341C69.9725 49.8561 69.6682 50.3767 69.8881 50.8167C71.0943 53.2363 74.4635 59.9015 76.2966 62.3908C76.425 62.5668 76.6339 62.6695 76.8502 62.6695L83.8014 62.6035C84.2523 62.5961 84.5749 62.1672 84.4503 61.7346Z" fill="#20446C"/>
<path d="M83.7862 59.4138C83.7862 59.4138 84.2409 57.544 84.0576 56.8767C83.8742 56.2132 83.5186 55.3589 82.3308 55.5496C81.1466 55.7402 79.7461 56.2388 79.7461 56.2388C79.7461 56.2388 79.8158 57.104 80.7176 56.8254L80.1604 57.258C80.1604 57.258 80.241 57.9509 80.9999 57.5806L80.4793 58.1526C80.4793 58.1526 80.8056 58.7208 81.3666 58.3579C81.9275 57.9949 82.1988 59.6411 83.7862 59.4138Z" fill="url(#paint23_linear_10784_11743)"/>
<defs>
<linearGradient id="paint0_linear_10784_11743" x1="88.1234" y1="-91.8938" x2="73.2057" y2="-4.17454" gradientUnits="userSpaceOnUse">
<stop stop-color="#E3EDF8"/>
<stop offset="1" stop-color="#F2F2F2"/>
</linearGradient>
<linearGradient id="paint1_linear_10784_11743" x1="25.64" y1="47.738" x2="35.3054" y2="-17.7034" gradientUnits="userSpaceOnUse">
<stop stop-color="#EF8B24"/>
<stop offset="1" stop-color="#F06837"/>
</linearGradient>
<linearGradient id="paint2_linear_10784_11743" x1="32.8307" y1="-56.9291" x2="5.34214" y2="-56.9291" gradientUnits="userSpaceOnUse">
<stop stop-color="#E15A52"/>
<stop offset="1" stop-color="#FBEBDF"/>
</linearGradient>
<linearGradient id="paint3_linear_10784_11743" x1="83.5377" y1="-176.826" x2="29.706" y2="-176.826" gradientUnits="userSpaceOnUse">
<stop stop-color="#E15A52"/>
<stop offset="1" stop-color="#FBEBDF"/>
</linearGradient>
<linearGradient id="paint4_linear_10784_11743" x1="26.3645" y1="-11.4417" x2="144.403" y2="9.23119" gradientUnits="userSpaceOnUse">
<stop offset="0.411458" stop-color="#20446C"/>
<stop offset="1" stop-color="#E3EDF8"/>
</linearGradient>
<linearGradient id="paint5_linear_10784_11743" x1="60.2897" y1="97.524" x2="60.2303" y2="99.4353" gradientUnits="userSpaceOnUse">
<stop stop-color="#E3EDF8"/>
<stop offset="1" stop-color="#F2F2F2"/>
</linearGradient>
<linearGradient id="paint6_linear_10784_11743" x1="59.4016" y1="3.32217" x2="58.7893" y2="6.9345" gradientUnits="userSpaceOnUse">
<stop stop-color="#E3EDF8"/>
<stop offset="1" stop-color="#F2F2F2"/>
</linearGradient>
<linearGradient id="paint7_linear_10784_11743" x1="35.9151" y1="26.0152" x2="48.8226" y2="26.0152" gradientUnits="userSpaceOnUse">
<stop stop-color="#DAE3FE"/>
<stop offset="1" stop-color="#E9EFFD"/>
</linearGradient>
<linearGradient id="paint8_linear_10784_11743" x1="89.5699" y1="46.7666" x2="90.9606" y2="32.079" gradientUnits="userSpaceOnUse">
<stop stop-color="#EF8B24"/>
<stop offset="1" stop-color="#F06837"/>
</linearGradient>
<linearGradient id="paint9_linear_10784_11743" x1="81.5114" y1="-4.56476" x2="67.6199" y2="-4.56476" gradientUnits="userSpaceOnUse">
<stop stop-color="#E15A52"/>
<stop offset="1" stop-color="#FBEBDF"/>
</linearGradient>
<linearGradient id="paint10_linear_10784_11743" x1="102.081" y1="104.854" x2="102.231" y2="102.164" gradientUnits="userSpaceOnUse">
<stop stop-color="#EF8B24"/>
<stop offset="1" stop-color="#F06837"/>
</linearGradient>
<linearGradient id="paint11_linear_10784_11743" x1="83.9118" y1="120.092" x2="89.4998" y2="54.7827" gradientUnits="userSpaceOnUse">
<stop stop-color="#FEBBBA"/>
<stop offset="1" stop-color="#FF928E"/>
</linearGradient>
<linearGradient id="paint12_linear_10784_11743" x1="85.1309" y1="104.181" x2="85.3314" y2="100.23" gradientUnits="userSpaceOnUse">
<stop stop-color="#EF8B24"/>
<stop offset="1" stop-color="#F06837"/>
</linearGradient>
<linearGradient id="paint13_linear_10784_11743" x1="95.1523" y1="121.064" x2="100.742" y2="55.7372" gradientUnits="userSpaceOnUse">
<stop stop-color="#FEBBBA"/>
<stop offset="1" stop-color="#FF928E"/>
</linearGradient>
<linearGradient id="paint14_linear_10784_11743" x1="88.4112" y1="31.0063" x2="85.1193" y2="45.3403" gradientUnits="userSpaceOnUse">
<stop stop-color="#E3EDF8"/>
<stop offset="1" stop-color="#F2F2F2"/>
</linearGradient>
<linearGradient id="paint15_linear_10784_11743" x1="87.3391" y1="74.3251" x2="89.2134" y2="56.2548" gradientUnits="userSpaceOnUse">
<stop stop-color="#EF8B24"/>
<stop offset="1" stop-color="#F06837"/>
</linearGradient>
<linearGradient id="paint16_linear_10784_11743" x1="86.3491" y1="25.966" x2="82.6076" y2="25.966" gradientUnits="userSpaceOnUse">
<stop stop-color="#E15A52"/>
<stop offset="1" stop-color="#FBEBDF"/>
</linearGradient>
<linearGradient id="paint17_linear_10784_11743" x1="93.6114" y1="30.8769" x2="83.9182" y2="30.8769" gradientUnits="userSpaceOnUse">
<stop stop-color="#E15A52"/>
<stop offset="1" stop-color="#FBEBDF"/>
</linearGradient>
<linearGradient id="paint18_linear_10784_11743" x1="85.7591" y1="20.8029" x2="80.3432" y2="20.8029" gradientUnits="userSpaceOnUse">
<stop stop-color="#E15A52"/>
<stop offset="1" stop-color="#FBEBDF"/>
</linearGradient>
<linearGradient id="paint19_linear_10784_11743" x1="84.0348" y1="38.8621" x2="84.5439" y2="32.1072" gradientUnits="userSpaceOnUse">
<stop stop-color="#EF8B24"/>
<stop offset="1" stop-color="#F06837"/>
</linearGradient>
<linearGradient id="paint20_linear_10784_11743" x1="83.555" y1="47.1644" x2="89.3719" y2="29.3964" gradientUnits="userSpaceOnUse">
<stop stop-color="#FEBBBA"/>
<stop offset="1" stop-color="#FF928E"/>
</linearGradient>
<linearGradient id="paint21_linear_10784_11743" x1="68.447" y1="16.7543" x2="63.6251" y2="16.7543" gradientUnits="userSpaceOnUse">
<stop stop-color="#E15A52"/>
<stop offset="1" stop-color="#FBEBDF"/>
</linearGradient>
<linearGradient id="paint22_linear_10784_11743" x1="67.7624" y1="26.5095" x2="65.6982" y2="26.5095" gradientUnits="userSpaceOnUse">
<stop stop-color="#E15A52"/>
<stop offset="1" stop-color="#FBEBDF"/>
</linearGradient>
<linearGradient id="paint23_linear_10784_11743" x1="83.7796" y1="46.8811" x2="79.8329" y2="46.8811" gradientUnits="userSpaceOnUse">
<stop stop-color="#E15A52"/>
<stop offset="1" stop-color="#FBEBDF"/>
</linearGradient>
</defs>
</svg>
