<svg width="17" height="17" viewBox="0 0 17 17" fill="none" xmlns="http://www.w3.org/2000/svg">
<path d="M11.3333 17H9.44444V15.1111H11.3333V17ZM9.44444 10.3889H7.55556V15.1111H9.44444V10.3889ZM17 8.5H15.1111V12.2778H17V8.5ZM15.1111 6.61111H13.2222V8.5H15.1111V6.61111ZM3.77778 8.5H1.88889V10.3889H3.77778V8.5ZM1.88889 6.61111H0V8.5H1.88889V6.61111ZM8.5 1.88889H10.3889V0H8.5V1.88889ZM1.41667 1.41667V4.25H4.25V1.41667H1.41667ZM5.66667 5.66667H0V0H5.66667V5.66667ZM1.41667 12.75V15.5833H4.25V12.75H1.41667ZM5.66667 17H0V11.3333H5.66667V17ZM12.75 1.41667V4.25H15.5833V1.41667H12.75ZM17 5.66667H11.3333V0H17V5.66667ZM15.1111 15.1111V12.2778H11.3333V14.1667H13.2222V17H17V15.1111H15.1111ZM13.2222 8.5H9.44444V10.3889H13.2222V8.5ZM9.44444 6.61111H3.77778V8.5H5.66667V10.3889H7.55556V8.5H9.44444V6.61111ZM10.3889 5.66667V3.77778H8.5V1.88889H6.61111V5.66667H10.3889ZM3.54167 2.125H2.125V3.54167H3.54167V2.125ZM3.54167 13.4583H2.125V14.875H3.54167V13.4583ZM14.875 2.125H13.4583V3.54167H14.875V2.125Z" fill="#F0792E"/>
</svg>
