<svg width="44" height="19" viewBox="0 0 44 19" fill="none" xmlns="http://www.w3.org/2000/svg">
<path d="M44.0003 0H21.9752H0V13.2872L22.0002 18.7096L44.0003 13.2872V0Z" fill="white"/>
<path d="M21.4522 17.8951C21.4605 17.8699 21.4439 17.8364 21.4107 17.828L20.9702 17.7188C20.9452 17.7104 20.912 17.7272 20.9037 17.7608C20.8954 17.786 20.912 17.8196 20.9452 17.828L21.3857 17.9371C21.3857 17.9371 21.394 17.9371 21.4024 17.9371C21.4273 17.9371 21.4522 17.9203 21.4522 17.8951Z" fill="#717070"/>
<path d="M20.6621 17.7027C20.6704 17.6776 20.6537 17.644 20.6205 17.6356L20.18 17.5265C20.1551 17.5181 20.1218 17.5349 20.1135 17.5684C20.1052 17.602 20.1218 17.6272 20.1551 17.6356L20.5956 17.7447C20.6039 17.7447 20.6039 17.7447 20.6122 17.7447C20.6371 17.7447 20.6621 17.7279 20.6621 17.7027Z" fill="#717070"/>
<path d="M19.8719 17.5015C19.8802 17.4763 19.8636 17.4427 19.8303 17.4344L19.3898 17.3252C19.3566 17.3168 19.3316 17.3336 19.3233 17.3672C19.315 17.3924 19.3316 17.426 19.3649 17.4344L19.8054 17.5435C19.8054 17.5435 19.8137 17.5435 19.822 17.5435C19.8469 17.5435 19.8719 17.5267 19.8719 17.5015Z" fill="#717070"/>
<path d="M19.0827 17.2988C19.091 17.2736 19.0744 17.24 19.0411 17.2316L18.6006 17.1225C18.5757 17.1141 18.5425 17.1309 18.5341 17.1645C18.5258 17.1897 18.5425 17.2232 18.5757 17.2316L19.0162 17.3407C19.0245 17.3407 19.0245 17.3407 19.0328 17.3407C19.0578 17.3407 19.0744 17.324 19.0827 17.2988Z" fill="#717070"/>
<path d="M18.2935 17.098C18.3018 17.0728 18.2852 17.0393 18.252 17.0309L17.8115 16.9218C17.7865 16.9134 17.7533 16.9302 17.745 16.9637C17.7366 16.9889 17.7533 17.0225 17.7865 17.0309L18.227 17.14C18.2353 17.14 18.2353 17.14 18.2436 17.14C18.2686 17.14 18.2935 17.1232 18.2935 17.098Z" fill="#717070"/>
<path d="M17.5043 16.9052C17.5126 16.88 17.496 16.8464 17.4628 16.838L17.0223 16.7289C16.9973 16.7205 16.9641 16.7373 16.9558 16.7709C16.9475 16.7961 16.9641 16.8296 16.9973 16.838L17.4378 16.9471C17.4461 16.9471 17.4461 16.9471 17.4545 16.9471C17.4794 16.9471 17.496 16.9304 17.5043 16.9052Z" fill="#717070"/>
<path d="M16.7142 16.7034C16.7225 16.6783 16.7058 16.6447 16.6726 16.6363L16.2321 16.5272C16.2072 16.5188 16.1739 16.5356 16.1656 16.5691C16.1573 16.5943 16.1739 16.6279 16.2072 16.6363L16.6477 16.7454C16.656 16.7454 16.656 16.7454 16.6643 16.7454C16.6892 16.7454 16.7058 16.7286 16.7142 16.7034Z" fill="#717070"/>
<path d="M15.9246 16.5022C15.9329 16.477 15.9163 16.4434 15.883 16.435L15.4425 16.3259C15.4176 16.3175 15.3844 16.3343 15.3844 16.3679C15.376 16.3931 15.3927 16.4267 15.4176 16.435L15.8581 16.5442H15.8664C15.8997 16.5442 15.9163 16.5274 15.9246 16.5022Z" fill="#717070"/>
<path d="M15.1348 16.3088C15.1431 16.2837 15.1265 16.2501 15.0932 16.2417L14.6527 16.1326C14.6278 16.1242 14.5946 16.141 14.5862 16.1745C14.5779 16.1997 14.5946 16.2333 14.6278 16.2417L15.0683 16.3508H15.0766C15.1099 16.3424 15.1265 16.334 15.1348 16.3088Z" fill="#717070"/>
<path d="M14.3456 16.1071C14.3539 16.0819 14.3373 16.0484 14.3041 16.04L13.8636 15.9308C13.8386 15.9224 13.8054 15.9392 13.7971 15.9728C13.7888 15.998 13.8054 16.0316 13.8386 16.04L14.2791 16.1491C14.2874 16.1491 14.2874 16.1491 14.2957 16.1491C14.3207 16.1491 14.3373 16.1323 14.3456 16.1071Z" fill="#717070"/>
<path d="M13.5554 15.9059C13.5638 15.8807 13.5471 15.8471 13.5139 15.8387L13.0734 15.7296C13.0485 15.7212 13.0152 15.738 13.0069 15.7716C12.9986 15.7968 13.0152 15.8303 13.0485 15.8387L13.489 15.9478H13.4973C13.5305 15.9478 13.5471 15.9311 13.5554 15.9059Z" fill="#717070"/>
<path d="M12.7653 15.7046C12.7736 15.6794 12.757 15.6459 12.7237 15.6375L12.2832 15.5284C12.25 15.52 12.225 15.5368 12.2167 15.5703C12.2084 15.5955 12.225 15.6291 12.2583 15.6375L12.6988 15.7466C12.7071 15.7466 12.7071 15.7466 12.7071 15.7466C12.7403 15.7466 12.757 15.7298 12.7653 15.7046Z" fill="#717070"/>
<path d="M11.9761 15.5113C11.9844 15.4861 11.9678 15.4525 11.9345 15.4441L11.494 15.335C11.4691 15.3266 11.4358 15.3434 11.4275 15.377C11.4192 15.4106 11.4358 15.4357 11.4691 15.4441L11.9096 15.5532C11.9179 15.5532 11.9179 15.5532 11.9262 15.5532C11.9512 15.5449 11.9678 15.5365 11.9761 15.5113Z" fill="#717070"/>
<path d="M11.1879 15.3105C11.1962 15.2853 11.1796 15.2518 11.1463 15.2434L10.7058 15.1343C10.6809 15.1259 10.6477 15.1427 10.6393 15.1762C10.631 15.2014 10.6477 15.235 10.6809 15.2434L11.1214 15.3525C11.1297 15.3525 11.1297 15.3525 11.138 15.3525C11.163 15.3525 11.1796 15.3357 11.1879 15.3105Z" fill="#717070"/>
<path d="M10.3967 15.1083C10.405 15.0831 10.3884 15.0495 10.3552 15.0411L9.91467 14.932C9.88974 14.9236 9.85649 14.9404 9.84818 14.974C9.83987 14.9992 9.85649 15.0328 9.88974 15.0411L10.3302 15.1503C10.3386 15.1503 10.3386 15.1503 10.3469 15.1503C10.3718 15.1503 10.3884 15.1335 10.3967 15.1083Z" fill="#717070"/>
<path d="M9.60853 14.908C9.61684 14.8829 9.60022 14.8493 9.56698 14.8409L9.12647 14.7318C9.09323 14.7234 9.0683 14.7402 9.05998 14.7737C9.05167 14.8073 9.0683 14.8325 9.10154 14.8409L9.54204 14.95C9.55035 14.95 9.55035 14.95 9.55867 14.95C9.5836 14.95 9.60022 14.9332 9.60853 14.908Z" fill="#717070"/>
<path d="M8.81738 14.7147C8.82569 14.6895 8.80906 14.6559 8.77582 14.6475L8.33532 14.5384C8.31038 14.53 8.27714 14.5468 8.26883 14.5804C8.26052 14.6056 8.27714 14.6392 8.31038 14.6475L8.75089 14.7567C8.7592 14.7567 8.7592 14.7567 8.76751 14.7567C8.79244 14.7483 8.80906 14.7399 8.81738 14.7147Z" fill="#717070"/>
<path d="M8.02918 14.513C8.03749 14.4878 8.02087 14.4542 7.98762 14.4458L7.54712 14.3367C7.52219 14.3283 7.48894 14.3451 7.48063 14.3787C7.47232 14.4038 7.48894 14.4374 7.52219 14.4458L7.96269 14.5549C7.971 14.5549 7.971 14.5549 7.97931 14.5549C8.00424 14.5549 8.02087 14.5381 8.02918 14.513Z" fill="#717070"/>
<path d="M7.23901 14.3107C7.24732 14.2855 7.2307 14.252 7.19745 14.2436L6.75695 14.1345C6.73201 14.1261 6.69877 14.1429 6.69046 14.1764C6.68215 14.2016 6.69877 14.2352 6.73201 14.2436L7.17252 14.3527C7.18083 14.3527 7.18083 14.3527 7.18914 14.3527C7.20576 14.3527 7.2307 14.3359 7.23901 14.3107Z" fill="#717070"/>
<path d="M6.44884 14.11C6.45715 14.0848 6.44052 14.0512 6.40728 14.0428L5.96678 13.9337C5.94184 13.9253 5.9086 13.9421 5.90029 13.9757C5.89197 14.0009 5.9086 14.0344 5.94184 14.0428L6.38234 14.1519C6.38234 14.1519 6.39066 14.1519 6.39897 14.1519C6.41559 14.1519 6.44052 14.1352 6.44884 14.11Z" fill="#717070"/>
<path d="M5.66064 13.9167C5.66895 13.8915 5.65233 13.8579 5.61908 13.8495L5.17858 13.7404C5.14533 13.732 5.1204 13.7488 5.11209 13.774C5.10378 13.8076 5.1204 13.8327 5.15364 13.8411L5.59415 13.9503H5.60246C5.62739 13.9586 5.65233 13.9419 5.66064 13.9167Z" fill="#717070"/>
<path d="M4.87145 13.7154C4.87976 13.6902 4.86314 13.6566 4.8299 13.6482L4.38939 13.5391C4.35615 13.5307 4.33121 13.5475 4.3229 13.5811C4.31459 13.6063 4.33121 13.6398 4.36446 13.6482L4.80496 13.7574C4.81327 13.7574 4.81327 13.7574 4.82158 13.7574C4.83821 13.7574 4.86314 13.7406 4.87145 13.7154Z" fill="#717070"/>
<path d="M4.0803 13.5146C4.08861 13.4895 4.07198 13.4559 4.03874 13.4475L3.59824 13.3384C3.5733 13.33 3.54006 13.3468 3.53175 13.3803C3.52343 13.4055 3.54006 13.4391 3.5733 13.4475L4.0138 13.5566C4.02212 13.5566 4.02212 13.5566 4.03043 13.5566C4.04705 13.5566 4.07198 13.5398 4.0803 13.5146Z" fill="#717070"/>
<path d="M3.2921 13.3208C3.30041 13.2956 3.28379 13.262 3.25054 13.2536L2.81004 13.1445C2.77679 13.1361 2.75186 13.1529 2.74355 13.1865C2.73524 13.2117 2.75186 13.2453 2.7851 13.2536L3.22561 13.3628C3.23392 13.3628 3.23392 13.3628 3.24223 13.3628C3.25885 13.3544 3.28379 13.3376 3.2921 13.3208Z" fill="#717070"/>
<path d="M2.50094 13.12C2.50925 13.0949 2.49263 13.0613 2.45938 13.0529L2.01888 12.9438C1.98564 12.9354 1.9607 12.9522 1.95239 12.9857C1.94408 13.0109 1.9607 13.0445 1.99395 13.0529L2.43445 13.162H2.44276C2.46769 13.162 2.49263 13.1452 2.50094 13.12Z" fill="#717070"/>
<path d="M1.71274 12.9178C1.72105 12.8926 1.70443 12.8591 1.67118 12.8507L1.23068 12.7416C1.20575 12.7332 1.1725 12.7499 1.16419 12.7835C1.15588 12.8087 1.1725 12.8423 1.20575 12.8507L1.64625 12.9598C1.65456 12.9598 1.65456 12.9598 1.65456 12.9598C1.6795 12.9598 1.70443 12.943 1.71274 12.9178Z" fill="#717070"/>
<path d="M0.913591 12.7161C0.921903 12.6909 0.90528 12.6573 0.872034 12.6489L0.689185 12.5986V12.4139C0.689185 12.3804 0.664251 12.3636 0.639317 12.3636C0.614383 12.3636 0.589448 12.3887 0.589448 12.4139V12.6406C0.589448 12.6406 0.581137 12.6825 0.631005 12.6909C0.672562 12.6993 0.8471 12.7497 0.8471 12.7497C0.855412 12.7497 0.855412 12.7497 0.863723 12.7497C0.888657 12.7581 0.913591 12.7413 0.913591 12.7161Z" fill="#717070"/>
<path d="M0.697544 12.0455V11.567C0.697544 11.5419 0.67261 11.5167 0.647675 11.5167C0.622741 11.5167 0.597807 11.5419 0.597807 11.567V12.0455C0.597807 12.0707 0.622741 12.0958 0.647675 12.0958C0.67261 12.0958 0.697544 12.0707 0.697544 12.0455Z" fill="#717070"/>
<path d="M0.697544 11.1887V10.7103C0.697544 10.6767 0.67261 10.6599 0.647675 10.6599C0.622741 10.6599 0.597807 10.6851 0.597807 10.7103V11.1887C0.597807 11.2139 0.622741 11.2391 0.647675 11.2391C0.67261 11.2391 0.697544 11.2139 0.697544 11.1887Z" fill="#717070"/>
<path d="M0.697544 10.3329V9.86289C0.697544 9.82931 0.67261 9.81252 0.647675 9.81252C0.622741 9.81252 0.597807 9.8377 0.597807 9.86289V10.3329C0.597807 10.3665 0.622741 10.3833 0.647675 10.3833C0.67261 10.3833 0.697544 10.3581 0.697544 10.3329Z" fill="#717070"/>
<path d="M0.697544 9.47618V8.99774C0.697544 8.97256 0.67261 8.94738 0.647675 8.94738C0.622741 8.94738 0.597807 8.97256 0.597807 8.99774V9.47618C0.597807 9.50976 0.622741 9.52655 0.647675 9.52655C0.67261 9.52655 0.697544 9.50136 0.697544 9.47618Z" fill="#717070"/>
<path d="M0.697544 8.62041V8.14197C0.697544 8.1084 0.67261 8.09161 0.647675 8.09161C0.622741 8.09161 0.597807 8.11679 0.597807 8.14197V8.62041C0.597807 8.64559 0.622741 8.67077 0.647675 8.67077C0.67261 8.67077 0.697544 8.64559 0.697544 8.62041Z" fill="#717070"/>
<path d="M0.697544 7.76365V7.28521C0.697544 7.25164 0.67261 7.23485 0.647675 7.23485C0.622741 7.23485 0.597807 7.26003 0.597807 7.28521V7.76365C0.597807 7.78883 0.622741 7.81402 0.647675 7.81402C0.67261 7.82241 0.697544 7.79723 0.697544 7.76365Z" fill="#717070"/>
<path d="M0.697544 6.90788V6.42944C0.697544 6.40426 0.67261 6.37908 0.647675 6.37908C0.622741 6.37908 0.597807 6.40426 0.597807 6.42944V6.90788C0.597807 6.93306 0.622741 6.95824 0.647675 6.95824C0.67261 6.96664 0.697544 6.94146 0.697544 6.90788Z" fill="#717070"/>
<path d="M0.697544 6.05211V5.57367C0.697544 5.54849 0.67261 5.52331 0.647675 5.52331C0.622741 5.52331 0.597807 5.54849 0.597807 5.57367V6.05211C0.597807 6.07729 0.622741 6.10247 0.647675 6.10247C0.67261 6.11087 0.697544 6.08568 0.697544 6.05211Z" fill="#717070"/>
<path d="M0.697544 5.19584V4.72579C0.697544 4.69221 0.67261 4.67543 0.647675 4.67543C0.622741 4.67543 0.597807 4.70061 0.597807 4.72579V5.19584C0.597807 5.22941 0.622741 5.25459 0.647675 5.25459C0.67261 5.25459 0.697544 5.22941 0.697544 5.19584Z" fill="#717070"/>
<path d="M0.697544 4.33957V3.86952C0.697544 3.84434 0.67261 3.81916 0.647675 3.81916C0.622741 3.81916 0.597807 3.84434 0.597807 3.86952V4.34796C0.597807 4.38154 0.622741 4.39833 0.647675 4.39833C0.67261 4.39833 0.697544 4.37314 0.697544 4.33957Z" fill="#717070"/>
<path d="M0.697544 3.4917V3.01326C0.697544 2.97968 0.67261 2.96289 0.647675 2.96289C0.622741 2.96289 0.597807 2.98808 0.597807 3.01326V3.4917C0.597807 3.51688 0.622741 3.54206 0.647675 3.54206C0.67261 3.54206 0.697544 3.51688 0.697544 3.4917Z" fill="#717070"/>
<path d="M0.697544 2.63593V2.15749C0.697544 2.12391 0.67261 2.10712 0.647675 2.10712C0.622741 2.10712 0.597807 2.1323 0.597807 2.15749V2.63593C0.597807 2.6695 0.622741 2.69468 0.647675 2.69468C0.67261 2.68629 0.697544 2.66111 0.697544 2.63593Z" fill="#717070"/>
<path d="M0.697544 1.77917V1.30073C0.697544 1.26715 0.67261 1.25036 0.647675 1.25036C0.622741 1.25036 0.597807 1.27555 0.597807 1.30073V1.77917C0.597807 1.80435 0.622741 1.82953 0.647675 1.82953C0.67261 1.82953 0.697544 1.80435 0.697544 1.77917Z" fill="#717070"/>
<path d="M1.38012 12.3556H1.37181C1.37181 12.3556 1.19727 12.3136 1.1474 12.2968C1.10584 12.2884 1.10584 12.2465 1.10584 12.2465V12.0198C1.10584 11.9946 1.13078 11.9695 1.15571 11.9695C1.18065 11.9695 1.20558 11.9946 1.20558 12.0198V12.2045L1.38843 12.2465C1.41336 12.2548 1.42999 12.28 1.42999 12.3136C1.42999 12.3388 1.40505 12.3556 1.38012 12.3556Z" fill="#717070"/>
<path d="M1.21347 1.44351V1.26724H1.38801C1.42126 1.26724 1.43788 1.24206 1.43788 1.21688C1.43788 1.1833 1.41295 1.16651 1.38801 1.16651H1.1636C1.13036 1.16651 1.11374 1.1833 1.11374 1.21688V1.44351C1.11374 1.46869 1.13867 1.49387 1.1636 1.49387C1.18854 1.49387 1.21347 1.46869 1.21347 1.44351Z" fill="#717070"/>
<path d="M1.21347 11.642V11.1719C1.21347 11.1468 1.18854 11.1216 1.1636 11.1216C1.13036 11.1216 1.11374 11.1468 1.11374 11.1719V11.642C1.11374 11.6756 1.13867 11.6924 1.1636 11.6924C1.18854 11.6924 1.21347 11.6672 1.21347 11.642Z" fill="#717070"/>
<path d="M1.21347 10.7857V10.3157C1.21347 10.2821 1.18854 10.2653 1.1636 10.2653C1.13036 10.2653 1.11374 10.2905 1.11374 10.3157V10.7857C1.11374 10.8109 1.13867 10.8361 1.1636 10.8361C1.18854 10.8445 1.21347 10.8193 1.21347 10.7857Z" fill="#717070"/>
<path d="M1.21347 9.93785V9.4678C1.21347 9.43423 1.18854 9.41744 1.1636 9.41744C1.13036 9.41744 1.11374 9.44262 1.11374 9.4678V9.93785C1.11374 9.97142 1.13867 9.98821 1.1636 9.98821C1.18854 9.9966 1.21347 9.97142 1.21347 9.93785Z" fill="#717070"/>
<path d="M1.21347 9.08997V8.61992C1.21347 8.59474 1.18854 8.56956 1.1636 8.56956C1.13036 8.56956 1.11374 8.59474 1.11374 8.61992V9.08997C1.11374 9.11515 1.13867 9.14033 1.1636 9.14033C1.18854 9.14033 1.21347 9.11515 1.21347 9.08997Z" fill="#717070"/>
<path d="M1.21347 8.24357V7.77352C1.21347 7.73995 1.18854 7.72316 1.1636 7.72316C1.13036 7.72316 1.11374 7.74834 1.11374 7.77352V8.24357C1.11374 8.27714 1.13867 8.29393 1.1636 8.29393C1.18854 8.29393 1.21347 8.26875 1.21347 8.24357Z" fill="#717070"/>
<path d="M1.21347 7.38632V6.91627C1.21347 6.89109 1.18854 6.86591 1.1636 6.86591C1.13036 6.86591 1.11374 6.89109 1.11374 6.91627V7.38632C1.11374 7.41989 1.13867 7.43668 1.1636 7.43668C1.18854 7.44507 1.21347 7.41989 1.21347 7.38632Z" fill="#717070"/>
<path d="M1.21347 6.53893V6.06888C1.21347 6.0437 1.18854 6.01852 1.1636 6.01852C1.13036 6.01852 1.11374 6.0437 1.11374 6.06888V6.53893C1.11374 6.5725 1.13867 6.59768 1.1636 6.59768C1.18854 6.59768 1.21347 6.5725 1.21347 6.53893Z" fill="#717070"/>
<path d="M1.21347 5.69105V5.221C1.21347 5.19582 1.18854 5.17064 1.1636 5.17064C1.13036 5.17064 1.11374 5.19582 1.11374 5.221V5.69105C1.11374 5.72462 1.13867 5.74141 1.1636 5.74141C1.18854 5.74141 1.21347 5.71623 1.21347 5.69105Z" fill="#717070"/>
<path d="M1.21347 4.84366V4.37361C1.21347 4.34843 1.18854 4.32325 1.1636 4.32325C1.13036 4.32325 1.11374 4.34843 1.11374 4.37361V4.84366C1.11374 4.87724 1.13867 4.90242 1.1636 4.90242C1.18854 4.89402 1.21347 4.86884 1.21347 4.84366Z" fill="#717070"/>
<path d="M1.21347 3.9874V3.51735C1.21347 3.48377 1.18854 3.46699 1.1636 3.46699C1.13036 3.46699 1.11374 3.49217 1.11374 3.51735V3.9874C1.11374 4.02097 1.13867 4.03776 1.1636 4.03776C1.18854 4.04615 1.21347 4.02097 1.21347 3.9874Z" fill="#717070"/>
<path d="M1.21347 3.13902V2.66898C1.21347 2.6354 1.18854 2.61861 1.1636 2.61861C1.13036 2.61861 1.11374 2.64379 1.11374 2.66898V3.13902C1.11374 3.1726 1.13867 3.18939 1.1636 3.18939C1.18854 3.19778 1.21347 3.1726 1.21347 3.13902Z" fill="#717070"/>
<path d="M1.21347 2.29213V1.82208C1.21347 1.7969 1.18854 1.77172 1.1636 1.77172C1.13036 1.77172 1.11374 1.7969 1.11374 1.82208V2.29213C1.11374 2.3257 1.13867 2.35089 1.1636 2.35089C1.18854 2.34249 1.21347 2.31731 1.21347 2.29213Z" fill="#717070"/>
<path d="M21.8431 1.20849C21.8431 1.18331 21.8182 1.15813 21.7933 1.15813H21.3361C21.3029 1.15813 21.2863 1.18331 21.2863 1.20849C21.2863 1.24207 21.3112 1.25885 21.3361 1.25885H21.7933C21.8182 1.26725 21.8431 1.24207 21.8431 1.20849Z" fill="#717070"/>
<path d="M21.0273 1.20849C21.0273 1.18331 21.0024 1.15813 20.9775 1.15813H20.5203C20.4871 1.15813 20.4705 1.18331 20.4705 1.20849C20.4705 1.24207 20.4954 1.25885 20.5203 1.25885H20.9775C21.0024 1.26725 21.0273 1.24207 21.0273 1.20849Z" fill="#717070"/>
<path d="M20.2135 1.20849C20.2135 1.18331 20.1885 1.15813 20.1636 1.15813H19.7065C19.6732 1.15813 19.6566 1.18331 19.6566 1.20849C19.6566 1.24207 19.6815 1.25885 19.7065 1.25885H20.1636C20.1885 1.26725 20.2135 1.24207 20.2135 1.20849Z" fill="#717070"/>
<path d="M19.3986 1.20849C19.3986 1.18331 19.3737 1.15813 19.3488 1.15813H18.8917C18.8584 1.15813 18.8418 1.18331 18.8418 1.20849C18.8418 1.24207 18.8667 1.25885 18.8917 1.25885H19.3488C19.3737 1.26725 19.3986 1.24207 19.3986 1.20849Z" fill="#717070"/>
<path d="M18.5848 1.20849C18.5848 1.18331 18.5599 1.15813 18.5349 1.15813H18.0778C18.0446 1.15813 18.0279 1.18331 18.0279 1.20849C18.0279 1.24207 18.0529 1.25885 18.0778 1.25885H18.5349C18.5599 1.26725 18.5848 1.24207 18.5848 1.20849Z" fill="#717070"/>
<path d="M17.7611 1.20849C17.7611 1.18331 17.7362 1.15813 17.7112 1.15813H17.2541C17.2208 1.15813 17.2042 1.18331 17.2042 1.20849C17.2042 1.24207 17.2292 1.25885 17.2541 1.25885H17.7112C17.7445 1.26725 17.7611 1.24207 17.7611 1.20849Z" fill="#717070"/>
<path d="M16.9467 1.20849C16.9467 1.18331 16.9217 1.15813 16.8885 1.15813H16.4314C16.3981 1.15813 16.3815 1.18331 16.3815 1.20849C16.3815 1.24207 16.4064 1.25885 16.4314 1.25885H16.8885C16.9217 1.26725 16.9467 1.24207 16.9467 1.20849Z" fill="#717070"/>
<path d="M16.133 1.20849C16.133 1.18331 16.108 1.15813 16.0831 1.15813H15.6343C15.601 1.15813 15.5844 1.18331 15.5844 1.20849C15.5844 1.24207 15.6094 1.25885 15.6343 1.25885H16.0831C16.108 1.26725 16.133 1.24207 16.133 1.20849Z" fill="#717070"/>
<path d="M15.3166 1.20849C15.3166 1.18331 15.2917 1.15813 15.2667 1.15813H14.8096C14.7847 1.15813 14.7597 1.18331 14.7597 1.20849C14.7597 1.24207 14.7847 1.25885 14.8096 1.25885H15.2667C15.2917 1.26725 15.3166 1.24207 15.3166 1.20849Z" fill="#717070"/>
<path d="M14.5027 1.20849C14.5027 1.18331 14.4778 1.15813 14.4529 1.15813H13.9957C13.9708 1.15813 13.9459 1.18331 13.9459 1.20849C13.9459 1.24207 13.9708 1.25885 13.9957 1.25885H14.4529C14.4778 1.26725 14.5027 1.24207 14.5027 1.20849Z" fill="#717070"/>
<path d="M13.68 1.20849C13.68 1.18331 13.6551 1.15813 13.6301 1.15813H13.173C13.1398 1.15813 13.1232 1.18331 13.1232 1.20849C13.1232 1.24207 13.1481 1.25885 13.173 1.25885H13.6301C13.6551 1.26725 13.68 1.24207 13.68 1.20849Z" fill="#717070"/>
<path d="M12.8662 1.20849C12.8662 1.18331 12.8412 1.15813 12.808 1.15813H12.3592C12.3259 1.15813 12.3093 1.18331 12.3093 1.20849C12.3093 1.24207 12.3342 1.25885 12.3592 1.25885H12.8163C12.8412 1.26725 12.8662 1.24207 12.8662 1.20849Z" fill="#717070"/>
<path d="M12.0523 1.20849C12.0523 1.18331 12.0274 1.15813 12.0025 1.15813H11.5453C11.5204 1.15813 11.4955 1.18331 11.4955 1.20849C11.4955 1.24207 11.5204 1.25885 11.5453 1.25885H12.0025C12.0274 1.26725 12.0523 1.24207 12.0523 1.20849Z" fill="#717070"/>
<path d="M11.2365 1.20849C11.2365 1.18331 11.2116 1.15813 11.1866 1.15813H10.7295C10.6963 1.15813 10.6796 1.18331 10.6796 1.20849C10.6796 1.24207 10.7046 1.25885 10.7295 1.25885H11.1866C11.2116 1.26725 11.2365 1.24207 11.2365 1.20849Z" fill="#717070"/>
<path d="M10.4143 1.20849C10.4143 1.18331 10.3894 1.15813 10.3645 1.15813H9.91566C9.88242 1.15813 9.86579 1.18331 9.86579 1.20849C9.86579 1.24207 9.89073 1.25885 9.91566 1.25885H10.3645C10.3977 1.26725 10.4143 1.24207 10.4143 1.20849Z" fill="#717070"/>
<path d="M9.59894 1.20849C9.59894 1.18331 9.57401 1.15813 9.54907 1.15813H9.09195C9.05871 1.15813 9.04208 1.18331 9.04208 1.20849C9.04208 1.24207 9.06702 1.25885 9.09195 1.25885H9.54907C9.57401 1.26725 9.59894 1.24207 9.59894 1.20849Z" fill="#717070"/>
<path d="M8.78411 1.20849C8.78411 1.18331 8.75918 1.15813 8.73424 1.15813H8.27712C8.24387 1.15813 8.22725 1.18331 8.22725 1.20849C8.22725 1.24207 8.25218 1.25885 8.27712 1.25885H8.73424C8.75918 1.26725 8.78411 1.24207 8.78411 1.20849Z" fill="#717070"/>
<path d="M7.97026 1.20849C7.97026 1.18331 7.94533 1.15813 7.9204 1.15813H7.46327C7.43003 1.15813 7.4134 1.18331 7.4134 1.20849C7.4134 1.24207 7.43834 1.25885 7.46327 1.25885H7.9204C7.94533 1.26725 7.97026 1.24207 7.97026 1.20849Z" fill="#717070"/>
<path d="M7.15642 1.20849C7.15642 1.18331 7.13148 1.15813 7.10655 1.15813H6.64942C6.62449 1.15813 6.59956 1.18331 6.59956 1.20849C6.59956 1.24207 6.62449 1.25885 6.64942 1.25885H7.10655C7.13148 1.26725 7.15642 1.24207 7.15642 1.20849Z" fill="#717070"/>
<path d="M6.3406 1.20849C6.3406 1.18331 6.31566 1.15813 6.29073 1.15813H5.8336C5.80036 1.15813 5.78374 1.18331 5.78374 1.20849C5.78374 1.24207 5.80867 1.25885 5.8336 1.25885H6.29073C6.31566 1.26725 6.3406 1.24207 6.3406 1.20849Z" fill="#717070"/>
<path d="M5.51787 1.20849C5.51787 1.18331 5.49294 1.15813 5.468 1.15813H5.01088C4.98595 1.15813 4.96101 1.18331 4.96101 1.20849C4.96101 1.24207 4.98595 1.25885 5.01088 1.25885H5.468C5.49294 1.26725 5.51787 1.24207 5.51787 1.20849Z" fill="#717070"/>
<path d="M4.70403 1.20849C4.70403 1.18331 4.67909 1.15813 4.65416 1.15813H4.19703C4.16379 1.15813 4.14716 1.18331 4.14716 1.20849C4.14716 1.24207 4.1721 1.25885 4.19703 1.25885H4.65416C4.67909 1.26725 4.70403 1.24207 4.70403 1.20849Z" fill="#717070"/>
<path d="M3.89018 1.20849C3.89018 1.18331 3.86525 1.15813 3.84031 1.15813H3.38319C3.34994 1.15813 3.33332 1.18331 3.33332 1.20849C3.33332 1.24207 3.35825 1.25885 3.38319 1.25885H3.84031C3.86525 1.26725 3.89018 1.24207 3.89018 1.20849Z" fill="#717070"/>
<path d="M3.07436 1.20849C3.07436 1.18331 3.04943 1.15813 3.02449 1.15813H2.56737C2.54243 1.15813 2.5175 1.18331 2.5175 1.20849C2.5175 1.24207 2.54243 1.25885 2.56737 1.25885H3.02449C3.04943 1.26725 3.07436 1.24207 3.07436 1.20849Z" fill="#717070"/>
<path d="M2.26108 1.20849C2.26108 1.18331 2.23615 1.15813 2.21121 1.15813H1.7624C1.73746 1.15813 1.71253 1.18331 1.71253 1.20849C1.71253 1.24207 1.73746 1.25885 1.7624 1.25885H2.21121C2.23615 1.26725 2.26108 1.24207 2.26108 1.20849Z" fill="#717070"/>
<path d="M21.4438 17.3668C21.4521 17.3417 21.4355 17.3081 21.4022 17.2997L20.9534 17.1906C20.9285 17.1822 20.8952 17.199 20.8869 17.2325C20.8786 17.2577 20.8952 17.2913 20.9285 17.2997L21.369 17.4088C21.3773 17.4088 21.3773 17.4088 21.3856 17.4088C21.4188 17.4004 21.4438 17.3836 21.4438 17.3668Z" fill="#717070"/>
<path d="M20.6463 17.1562C20.6546 17.1311 20.638 17.0975 20.6047 17.0891L20.1642 16.98C20.1393 16.9716 20.106 16.9884 20.0977 17.0219C20.0894 17.0471 20.106 17.0807 20.1393 17.0891L20.5798 17.1982C20.5881 17.1982 20.5881 17.1982 20.5964 17.1982C20.6213 17.1982 20.638 17.1814 20.6463 17.1562Z" fill="#717070"/>
<path d="M19.8472 16.955C19.8555 16.9298 19.8389 16.8962 19.8057 16.8878L19.3652 16.7787C19.3402 16.7703 19.307 16.7871 19.2987 16.8207C19.2904 16.8543 19.307 16.8794 19.3402 16.8878L19.7807 16.997C19.789 16.997 19.789 16.997 19.789 16.997C19.814 16.997 19.8389 16.9802 19.8472 16.955Z" fill="#717070"/>
<path d="M19.0496 16.7542C19.0579 16.7291 19.0413 16.6955 19.008 16.6871L18.5592 16.578C18.5343 16.5696 18.501 16.5864 18.4927 16.6199C18.4844 16.6451 18.501 16.6787 18.5343 16.6871L18.9831 16.7962C18.9831 16.7962 18.9914 16.7962 18.9997 16.7962C19.0163 16.7962 19.0413 16.7794 19.0496 16.7542Z" fill="#717070"/>
<path d="M18.2432 16.5525C18.2515 16.5273 18.2349 16.4938 18.2016 16.4854L17.7611 16.3762C17.7362 16.3678 17.703 16.3846 17.6946 16.4182C17.6863 16.4434 17.703 16.477 17.7362 16.4854L18.185 16.5945H18.1933C18.2183 16.5945 18.2349 16.5777 18.2432 16.5525Z" fill="#717070"/>
<path d="M17.4461 16.3508C17.4544 16.3172 17.4378 16.292 17.4046 16.2836L16.9641 16.1745C16.9308 16.1661 16.9059 16.1829 16.8976 16.2165C16.8893 16.2417 16.9059 16.2752 16.9391 16.2836L17.3879 16.3927C17.3963 16.3927 17.3963 16.3927 17.4046 16.3927C17.4129 16.3927 17.4378 16.376 17.4461 16.3508Z" fill="#717070"/>
<path d="M16.6475 16.1505C16.6558 16.1253 16.6392 16.0918 16.6059 16.0834L16.1571 15.9742C16.1322 15.9659 16.0989 15.9826 16.0906 16.0162C16.0823 16.0414 16.0989 16.075 16.1322 16.0834L16.581 16.1925C16.5893 16.1925 16.5893 16.1925 16.5976 16.1925C16.6142 16.1925 16.6392 16.1757 16.6475 16.1505Z" fill="#717070"/>
<path d="M15.8421 15.9473C15.8504 15.9222 15.8338 15.8886 15.8005 15.8802L15.36 15.7711C15.3351 15.7627 15.3019 15.7795 15.2936 15.8047C15.2852 15.8382 15.3019 15.8634 15.3351 15.8718L15.7839 15.9809C15.7839 15.9809 15.7922 15.9809 15.8005 15.9809C15.8172 15.9893 15.8338 15.9725 15.8421 15.9473Z" fill="#717070"/>
<path d="M15.0445 15.7466C15.0528 15.7214 15.0362 15.6878 15.0029 15.6794L14.5541 15.5703C14.5292 15.5619 14.4959 15.5787 14.4876 15.6123C14.4793 15.6374 14.4959 15.671 14.5292 15.6794L14.9697 15.7885C14.978 15.7885 14.978 15.7885 14.9863 15.7885C15.0195 15.7885 15.0362 15.7717 15.0445 15.7466Z" fill="#717070"/>
<path d="M14.2375 15.5453C14.2458 15.5201 14.2292 15.4866 14.196 15.4782L13.7472 15.369C13.7222 15.3606 13.689 15.3774 13.6807 15.411C13.6723 15.4362 13.689 15.4698 13.7222 15.4782L14.1627 15.5873C14.171 15.5873 14.171 15.5873 14.1793 15.5873C14.2126 15.5873 14.2375 15.5705 14.2375 15.5453Z" fill="#717070"/>
<path d="M13.441 15.3436C13.4493 15.3184 13.4327 15.2848 13.3995 15.2764L12.959 15.1673C12.9257 15.1589 12.9008 15.1757 12.8925 15.2093C12.8842 15.2429 12.9008 15.268 12.934 15.2764L13.3828 15.3855H13.3911C13.4161 15.3855 13.4327 15.3688 13.441 15.3436Z" fill="#717070"/>
<path d="M12.6414 15.1419C12.6497 15.1167 12.6331 15.0831 12.5998 15.0747L12.151 14.9656C12.1261 14.9572 12.0928 14.974 12.0845 14.9992C12.0762 15.0328 12.0928 15.0579 12.1261 15.0663L12.5666 15.1755C12.5666 15.1755 12.5749 15.1755 12.5832 15.1755C12.6165 15.1839 12.6331 15.1671 12.6414 15.1419Z" fill="#717070"/>
<path d="M11.835 14.9411C11.8433 14.9159 11.8267 14.8823 11.7935 14.8739L11.353 14.7648C11.328 14.7564 11.2948 14.7732 11.2865 14.8068C11.2782 14.8404 11.2948 14.8655 11.328 14.8739L11.7768 14.9831C11.7852 14.9831 11.7852 14.9831 11.7935 14.9831C11.8101 14.9831 11.835 14.9663 11.835 14.9411Z" fill="#717070"/>
<path d="M11.0374 14.7384C11.0457 14.7132 11.0291 14.6796 10.9958 14.6712L10.547 14.5621C10.5221 14.5537 10.4888 14.5705 10.4805 14.6041C10.4722 14.6293 10.4888 14.6628 10.5221 14.6712L10.9626 14.7803C10.9709 14.7803 10.9709 14.7803 10.9792 14.7803C11.0124 14.7803 11.0291 14.7636 11.0374 14.7384Z" fill="#717070"/>
<path d="M10.2393 14.5381C10.2476 14.5129 10.231 14.4794 10.1978 14.471L9.74894 14.3618C9.72401 14.3535 9.69076 14.3702 9.68245 14.4038C9.67414 14.4374 9.69076 14.4626 9.72401 14.471L10.1728 14.5885C10.1728 14.5885 10.1811 14.5885 10.1894 14.5885C10.2144 14.5801 10.231 14.5633 10.2393 14.5381Z" fill="#717070"/>
<path d="M9.44224 14.3364C9.45055 14.3112 9.43393 14.2776 9.40068 14.2692L8.95187 14.1601C8.91862 14.1517 8.89369 14.1685 8.88538 14.2021C8.87707 14.2357 8.89369 14.2608 8.92693 14.2692L9.36744 14.3783C9.37575 14.3783 9.37575 14.3783 9.38406 14.3783C9.40899 14.37 9.43393 14.3616 9.44224 14.3364Z" fill="#717070"/>
<path d="M8.6353 14.1346C8.64361 14.1095 8.62699 14.0759 8.59374 14.0675L8.14493 13.9584C8.11999 13.95 8.08675 13.9668 8.07844 14.0003C8.07012 14.0255 8.08675 14.0591 8.11999 14.0675L8.56881 14.1766C8.57712 14.1766 8.57712 14.1766 8.58543 14.1766C8.61036 14.1766 8.62699 14.1598 8.6353 14.1346Z" fill="#717070"/>
<path d="M7.8378 13.9329C7.84611 13.9077 7.82949 13.8742 7.79624 13.8658L7.35574 13.7566C7.33081 13.7482 7.29756 13.765 7.28925 13.7986C7.28094 13.8322 7.29756 13.8574 7.33081 13.8658L7.77962 13.9749C7.78793 13.9749 7.78793 13.9749 7.79624 13.9749C7.81287 13.9665 7.82949 13.9581 7.8378 13.9329Z" fill="#717070"/>
<path d="M7.04016 13.7327C7.04847 13.7075 7.03185 13.6739 6.9986 13.6655L6.54979 13.5564C6.52485 13.548 6.49161 13.5648 6.4833 13.5984C6.47499 13.6235 6.49161 13.6571 6.52485 13.6655L6.97367 13.7746C6.98198 13.7746 6.98198 13.7746 6.99029 13.7746C7.00691 13.7662 7.03185 13.7578 7.04016 13.7327Z" fill="#717070"/>
<path d="M6.23378 13.5299C6.24209 13.5047 6.22547 13.4712 6.19223 13.4628L5.75172 13.3537C5.72679 13.3453 5.69354 13.3621 5.68523 13.3956C5.67692 13.4208 5.69354 13.4544 5.72679 13.4628L6.16729 13.5803C6.1756 13.5803 6.1756 13.5803 6.18391 13.5803C6.20885 13.5635 6.23378 13.5467 6.23378 13.5299Z" fill="#717070"/>
<path d="M5.43713 13.3208C5.44544 13.2956 5.42881 13.262 5.39557 13.2536L4.94676 13.1445C4.92182 13.1361 4.88858 13.1529 4.88027 13.1865C4.87195 13.2117 4.88858 13.2453 4.92182 13.2536L5.36232 13.3628H5.37064C5.41219 13.3628 5.42881 13.346 5.43713 13.3208Z" fill="#717070"/>
<path d="M4.63766 13.12C4.64597 13.0949 4.62935 13.0613 4.5961 13.0529L4.1556 12.9438C4.12235 12.9354 4.09742 12.9522 4.08911 12.9857C4.0808 13.0109 4.09742 13.0445 4.13066 13.0529L4.57117 13.162H4.57948C4.60441 13.162 4.62935 13.1452 4.63766 13.12Z" fill="#717070"/>
<path d="M3.83114 12.9178C3.83945 12.8926 3.82282 12.8591 3.78958 12.8507L3.34077 12.7416C3.31583 12.7332 3.28259 12.7499 3.27427 12.7835C3.26596 12.8087 3.28259 12.8423 3.31583 12.8507L3.75633 12.9598C3.76464 12.9598 3.76464 12.9598 3.77296 12.9598C3.8062 12.9598 3.82282 12.943 3.83114 12.9178Z" fill="#717070"/>
<path d="M3.03364 12.7166C3.04195 12.6914 3.02533 12.6578 2.99208 12.6494L2.55158 12.5403C2.51834 12.5319 2.4934 12.5487 2.48509 12.5823C2.47678 12.6075 2.4934 12.641 2.52665 12.6494L2.96715 12.7585H2.97546C3.00871 12.7585 3.02533 12.7418 3.03364 12.7166Z" fill="#717070"/>
<path d="M2.23698 12.5153C2.24529 12.4902 2.22867 12.4566 2.19543 12.4482L1.74661 12.3391C1.72168 12.3307 1.68843 12.3475 1.68012 12.381C1.67181 12.4146 1.68843 12.4398 1.72168 12.4482L2.17049 12.5573C2.1788 12.5573 2.1788 12.5573 2.18711 12.5573C2.20374 12.5573 2.22867 12.5405 2.23698 12.5153Z" fill="#717070"/>
<path d="M22.5406 17.9376C22.549 17.9376 22.549 17.9376 22.5573 17.9376L22.9978 17.8285C23.0227 17.8201 23.0393 17.7949 23.0393 17.7613C23.031 17.7361 23.0061 17.7109 22.9728 17.7193L22.5323 17.8285C22.5074 17.8368 22.4908 17.862 22.4908 17.8956C22.4991 17.9208 22.5157 17.9376 22.5406 17.9376Z" fill="#717070"/>
<path d="M23.33 17.7442C23.3383 17.7442 23.3383 17.7442 23.3466 17.7442L23.7871 17.6351C23.812 17.6267 23.8287 17.6015 23.8287 17.568C23.8203 17.5428 23.7954 17.5176 23.7622 17.526L23.3217 17.6351C23.2884 17.6435 23.2718 17.6687 23.2801 17.7023C23.2884 17.7274 23.305 17.7442 23.33 17.7442Z" fill="#717070"/>
<path d="M24.1184 17.543C24.1268 17.543 24.1268 17.543 24.1268 17.543L24.5673 17.4339C24.5922 17.4255 24.6088 17.4003 24.6088 17.3667C24.6005 17.3415 24.5756 17.3163 24.5423 17.3247L24.1018 17.4339C24.0769 17.4423 24.0603 17.4674 24.0603 17.501C24.0769 17.5262 24.0935 17.543 24.1184 17.543Z" fill="#717070"/>
<path d="M24.9082 17.3407C24.9165 17.3407 24.9165 17.3407 24.9248 17.3407L25.3653 17.2316C25.3903 17.2232 25.4069 17.1981 25.4069 17.1645C25.3986 17.1309 25.3736 17.1141 25.3404 17.1225L24.8999 17.2316C24.875 17.24 24.8583 17.2652 24.8583 17.2988C24.8666 17.324 24.8833 17.3407 24.9082 17.3407Z" fill="#717070"/>
<path d="M25.6984 17.1398C25.6984 17.1398 25.7067 17.1398 25.715 17.1398L26.1555 17.0307C26.1804 17.0223 26.197 16.9971 26.197 16.9636C26.1887 16.9384 26.1638 16.9216 26.1306 16.9216L25.6901 17.0307C25.6651 17.0391 25.6485 17.0643 25.6485 17.0979C25.6568 17.123 25.6734 17.1398 25.6984 17.1398Z" fill="#717070"/>
<path d="M26.488 16.9467H26.4963L26.9368 16.8375C26.9617 16.8291 26.9867 16.804 26.9783 16.7704C26.97 16.7452 26.9451 16.72 26.9119 16.7284L26.4713 16.8375C26.4464 16.8459 26.4298 16.8711 26.4298 16.9047C26.4464 16.9299 26.463 16.9467 26.488 16.9467Z" fill="#717070"/>
<path d="M27.2775 16.7459C27.2858 16.7459 27.2858 16.7459 27.2941 16.7459L27.7346 16.6368C27.7596 16.6284 27.7762 16.6032 27.7762 16.5696C27.7679 16.5445 27.7429 16.5193 27.7097 16.5277L27.2692 16.6368C27.2442 16.6452 27.2276 16.6704 27.2359 16.7039C27.2359 16.7291 27.2526 16.7459 27.2775 16.7459Z" fill="#717070"/>
<path d="M28.0673 16.5437C28.0673 16.5437 28.0756 16.5437 28.0839 16.5437L28.5245 16.4346C28.5494 16.4262 28.566 16.401 28.5577 16.3674C28.5494 16.3422 28.5245 16.317 28.4912 16.3254L28.0507 16.4346C28.0258 16.4429 28.0091 16.4681 28.0091 16.5017C28.0258 16.5269 28.0424 16.5437 28.0673 16.5437Z" fill="#717070"/>
<path d="M28.8581 16.3429H28.8665L29.307 16.2338C29.3319 16.2254 29.3568 16.2002 29.3485 16.1667C29.3402 16.1331 29.3153 16.1163 29.282 16.1247L28.8415 16.2338C28.8166 16.2422 28.7917 16.2674 28.8 16.301C28.8166 16.3345 28.8415 16.3429 28.8581 16.3429Z" fill="#717070"/>
<path d="M29.6469 16.1491C29.6552 16.1491 29.6552 16.1491 29.6635 16.1491L30.104 16.04C30.129 16.0316 30.1539 16.0064 30.1456 15.9728C30.1373 15.9392 30.1123 15.9224 30.0791 15.9308L29.6386 16.04C29.6137 16.0484 29.5887 16.0735 29.597 16.1071C29.6054 16.1323 29.622 16.1491 29.6469 16.1491Z" fill="#717070"/>
<path d="M30.4373 15.9487H30.4456L30.8861 15.8395C30.911 15.8311 30.9276 15.806 30.9193 15.7724C30.911 15.7472 30.8861 15.7304 30.8528 15.7304L30.4123 15.8395C30.3874 15.8479 30.3708 15.8731 30.3708 15.9067C30.3957 15.9319 30.4207 15.9487 30.4373 15.9487Z" fill="#717070"/>
<path d="M31.2336 15.7466H31.2419L31.6824 15.6375C31.7073 15.6291 31.724 15.6039 31.724 15.5703C31.7156 15.5368 31.6907 15.52 31.6575 15.5284L31.217 15.6375C31.192 15.6459 31.1671 15.6711 31.1754 15.7046C31.1837 15.7298 31.2087 15.7466 31.2336 15.7466Z" fill="#717070"/>
<path d="M32.0164 15.5447H32.0247L32.4652 15.4356C32.4984 15.4272 32.515 15.402 32.5067 15.3684C32.4984 15.3432 32.4735 15.3265 32.4402 15.3265L31.9997 15.4356C31.9665 15.444 31.9499 15.4692 31.9582 15.5027C31.9748 15.5363 31.9997 15.5447 32.0164 15.5447Z" fill="#717070"/>
<path d="M32.8129 15.3523C32.8213 15.3523 32.8213 15.3523 32.8213 15.3523L33.2618 15.2432C33.2867 15.2348 33.3116 15.2096 33.3033 15.1761C33.295 15.1509 33.2701 15.1341 33.2368 15.1341L32.7963 15.2432C32.7714 15.2516 32.7465 15.2768 32.7548 15.3104C32.7631 15.3355 32.788 15.3523 32.8129 15.3523Z" fill="#717070"/>
<path d="M33.5943 15.1511C33.6026 15.1511 33.6026 15.1511 33.6109 15.1511L34.0514 15.042C34.0764 15.0336 34.1013 15.0084 34.093 14.9748C34.0847 14.9496 34.0597 14.9329 34.0265 14.9329L33.586 15.042C33.5527 15.0504 33.5361 15.0755 33.5444 15.1091C33.5527 15.1343 33.5777 15.1511 33.5943 15.1511Z" fill="#717070"/>
<path d="M34.3932 14.9484C34.3932 14.9484 34.4015 14.9484 34.4098 14.9484L34.8503 14.8392C34.8753 14.8309 34.9002 14.8057 34.8919 14.7721C34.8836 14.7469 34.8586 14.7301 34.8254 14.7301L34.3849 14.8392C34.36 14.8476 34.3433 14.8728 34.3433 14.9064C34.3433 14.9316 34.3683 14.9484 34.3932 14.9484Z" fill="#717070"/>
<path d="M35.1824 14.7473C35.1824 14.7473 35.1907 14.7473 35.199 14.7473L35.6395 14.6382C35.6645 14.6298 35.6811 14.6046 35.6811 14.571C35.6728 14.5374 35.6478 14.5207 35.6146 14.5291L35.1741 14.6382C35.1491 14.6466 35.1325 14.6717 35.1325 14.7053C35.1325 14.7389 35.1575 14.7473 35.1824 14.7473Z" fill="#717070"/>
<path d="M35.9717 14.5548C35.98 14.5548 35.98 14.5548 35.9883 14.5548L36.4288 14.4456C36.4538 14.4372 36.4704 14.4121 36.4704 14.3785C36.4621 14.3533 36.4372 14.3365 36.4039 14.3365L35.9634 14.4456C35.9302 14.454 35.9135 14.4792 35.9219 14.5128C35.9219 14.538 35.9468 14.5548 35.9717 14.5548Z" fill="#717070"/>
<path d="M36.7614 14.3527C36.7614 14.3527 36.7697 14.3527 36.778 14.3527L37.2185 14.2436C37.2435 14.2352 37.2684 14.21 37.2601 14.1764C37.2518 14.1513 37.2268 14.1261 37.1936 14.1345L36.7531 14.2436C36.7282 14.252 36.7032 14.2772 36.7115 14.3107C36.7115 14.3359 36.7365 14.3527 36.7614 14.3527Z" fill="#717070"/>
<path d="M37.5509 14.1518C37.5592 14.1518 37.5592 14.1518 37.5676 14.1518L38.0081 14.0427C38.033 14.0343 38.0579 14.0091 38.0496 13.9755C38.0413 13.9503 38.0164 13.9335 37.9831 13.9335L37.5426 14.0427C37.5177 14.0511 37.5011 14.0762 37.5011 14.1098C37.5011 14.135 37.526 14.1518 37.5509 14.1518Z" fill="#717070"/>
<path d="M38.3411 13.9594C38.3494 13.9594 38.3494 13.9594 38.3577 13.9594L38.7982 13.8503C38.8232 13.8419 38.8398 13.8167 38.8398 13.7832C38.8315 13.758 38.8065 13.7412 38.7733 13.7412L38.3328 13.8503C38.3079 13.8587 38.2912 13.8839 38.2912 13.9175C38.2912 13.9426 38.3162 13.9594 38.3411 13.9594Z" fill="#717070"/>
<path d="M39.1283 13.7572C39.1366 13.7572 39.1366 13.7572 39.1449 13.7572L39.5854 13.6481C39.6104 13.6397 39.6353 13.6145 39.627 13.5809C39.6187 13.5473 39.5938 13.539 39.5605 13.539L39.12 13.6481C39.0951 13.6565 39.0784 13.6816 39.0784 13.7152C39.0784 13.7404 39.1034 13.7572 39.1283 13.7572Z" fill="#717070"/>
<path d="M39.9186 13.5566C39.9269 13.5566 39.9269 13.5566 39.9353 13.5566L40.3758 13.4475C40.4007 13.4391 40.4256 13.4139 40.4173 13.3803C40.409 13.3468 40.3841 13.33 40.3508 13.3384L39.9103 13.4475C39.8771 13.4559 39.8605 13.4811 39.8688 13.5146C39.8688 13.5398 39.8937 13.5566 39.9186 13.5566Z" fill="#717070"/>
<path d="M40.7093 13.3544C40.7176 13.3544 40.7176 13.3544 40.7259 13.3544L41.1664 13.2453C41.1914 13.2369 41.208 13.2117 41.208 13.1781C41.1997 13.1445 41.1747 13.1277 41.1415 13.1361L40.701 13.2453C40.6761 13.2537 40.6511 13.2788 40.6594 13.3124C40.6594 13.3376 40.6844 13.3544 40.7093 13.3544Z" fill="#717070"/>
<path d="M41.5002 13.1619H41.5085L41.949 13.0527C41.9823 13.0443 41.9989 13.0192 41.9906 12.9856C41.9823 12.9604 41.9574 12.9436 41.9241 12.9436L41.4836 13.0527C41.4587 13.0611 41.4421 13.0863 41.4421 13.1199C41.4504 13.1451 41.4753 13.1619 41.5002 13.1619Z" fill="#717070"/>
<path d="M42.2882 12.9593C42.2882 12.9593 42.2965 12.9593 42.3048 12.9593L42.7453 12.8502C42.7703 12.8418 42.7952 12.8166 42.7786 12.783C42.7703 12.7578 42.7453 12.7327 42.7121 12.7411L42.2716 12.8502C42.2466 12.8586 42.23 12.8838 42.2383 12.9173C42.2383 12.9425 42.2633 12.9593 42.2882 12.9593Z" fill="#717070"/>
<path d="M43.0768 12.7586C43.0768 12.7586 43.0851 12.7586 43.0934 12.7586C43.0934 12.7586 43.2679 12.7166 43.3095 12.6998C43.3511 12.6914 43.3511 12.6494 43.3511 12.6494V12.4228C43.3511 12.3892 43.3261 12.3724 43.3012 12.3724C43.2679 12.3724 43.243 12.3976 43.243 12.4228V12.6075L43.0602 12.6494C43.0269 12.6578 43.0103 12.683 43.0186 12.7166C43.0352 12.7418 43.0518 12.7586 43.0768 12.7586Z" fill="#717070"/>
<path d="M43.3015 12.0958C43.3348 12.0958 43.3514 12.0707 43.3514 12.0455V11.567C43.3514 11.5335 43.3265 11.5167 43.3015 11.5167C43.2683 11.5167 43.2434 11.5419 43.2434 11.567V12.0455C43.2434 12.0707 43.2683 12.0958 43.3015 12.0958Z" fill="#717070"/>
<path d="M43.3015 11.2391C43.3348 11.2391 43.3514 11.2139 43.3514 11.1887V10.7103C43.3514 10.6767 43.3265 10.6599 43.3015 10.6599C43.2683 10.6599 43.2434 10.6851 43.2434 10.7103V11.1887C43.2434 11.2139 43.2683 11.2391 43.3015 11.2391Z" fill="#717070"/>
<path d="M43.3015 10.3833C43.3348 10.3833 43.3514 10.3581 43.3514 10.3329V9.86289C43.3514 9.82931 43.3265 9.81252 43.3015 9.81252C43.2683 9.81252 43.2434 9.8377 43.2434 9.86289V10.3329C43.2434 10.3581 43.2683 10.3833 43.3015 10.3833Z" fill="#717070"/>
<path d="M43.3015 9.52655C43.3348 9.52655 43.3514 9.50136 43.3514 9.47618V8.99774C43.3514 8.97256 43.3265 8.94738 43.3015 8.94738C43.2683 8.94738 43.2434 8.97256 43.2434 8.99774V9.47618C43.2434 9.50136 43.2683 9.52655 43.3015 9.52655Z" fill="#717070"/>
<path d="M43.3015 8.67077C43.3348 8.67077 43.3514 8.64559 43.3514 8.62041V8.14197C43.3514 8.1084 43.3265 8.09161 43.3015 8.09161C43.2683 8.09161 43.2434 8.11679 43.2434 8.14197V8.62041C43.2434 8.64559 43.2683 8.67077 43.3015 8.67077Z" fill="#717070"/>
<path d="M43.3015 7.82338C43.3348 7.82338 43.3514 7.7982 43.3514 7.77302V7.30297C43.3514 7.26939 43.3265 7.25261 43.3015 7.25261C43.2683 7.25261 43.2434 7.27779 43.2434 7.30297V7.77302C43.2434 7.7982 43.2683 7.82338 43.3015 7.82338Z" fill="#717070"/>
<path d="M43.3015 6.96663C43.3348 6.96663 43.3514 6.94145 43.3514 6.91627V6.43782C43.3514 6.40425 43.3265 6.38746 43.3015 6.38746C43.2683 6.38746 43.2434 6.41264 43.2434 6.43782V6.91627C43.2434 6.94145 43.2683 6.96663 43.3015 6.96663Z" fill="#717070"/>
<path d="M43.3015 6.11036C43.3348 6.11036 43.3514 6.08518 43.3514 6.06V5.58156C43.3514 5.54798 43.3265 5.5312 43.3015 5.5312C43.2683 5.5312 43.2434 5.55638 43.2434 5.58156V6.05161C43.2434 6.08518 43.2683 6.11036 43.3015 6.11036Z" fill="#717070"/>
<path d="M43.3015 5.25459C43.3348 5.25459 43.3514 5.22941 43.3514 5.19584V4.72579C43.3514 4.69221 43.3265 4.67543 43.3015 4.67543C43.2683 4.67543 43.2434 4.70061 43.2434 4.72579V5.19584C43.2434 5.22941 43.2683 5.25459 43.3015 5.25459Z" fill="#717070"/>
<path d="M43.3015 4.39833C43.3348 4.39833 43.3514 4.37314 43.3514 4.34796V3.86952C43.3514 3.83595 43.3265 3.81916 43.3015 3.81916C43.2683 3.81916 43.2434 3.84434 43.2434 3.86952V4.34796C43.2434 4.37314 43.2683 4.39833 43.3015 4.39833Z" fill="#717070"/>
<path d="M43.3015 3.54206C43.3348 3.54206 43.3514 3.51688 43.3514 3.4917V3.01326C43.3514 2.97968 43.3265 2.96289 43.3015 2.96289C43.2683 2.96289 43.2434 2.98808 43.2434 3.01326V3.4917C43.2434 3.51688 43.2683 3.54206 43.3015 3.54206Z" fill="#717070"/>
<path d="M43.3015 2.68579C43.3348 2.68579 43.3514 2.66061 43.3514 2.63542V2.16538C43.3514 2.1318 43.3265 2.11501 43.3015 2.11501C43.2683 2.11501 43.2434 2.1402 43.2434 2.16538V2.63542C43.2434 2.66061 43.2683 2.68579 43.3015 2.68579Z" fill="#717070"/>
<path d="M43.3015 1.82953C43.3348 1.82953 43.3514 1.80435 43.3514 1.77917V1.30073C43.3514 1.26715 43.3265 1.25036 43.3015 1.25036C43.2683 1.25036 43.2434 1.27555 43.2434 1.30073V1.77917C43.2434 1.80435 43.2683 1.82953 43.3015 1.82953Z" fill="#717070"/>
<path d="M43.3026 0.973015C43.3358 0.973015 43.3525 0.947834 43.3525 0.922653V0.696022C43.3525 0.654054 43.3358 0.637267 43.3026 0.637267H43.0782C43.0533 0.637267 43.0283 0.662448 43.0283 0.696022C43.0283 0.721204 43.0533 0.746385 43.0782 0.746385H43.2527V0.922653C43.2444 0.947834 43.2693 0.973015 43.3026 0.973015Z" fill="#717070"/>
<path d="M42.5125 12.3121C42.5042 12.287 42.5208 12.2534 42.5541 12.245L42.7369 12.1946V12.01C42.7369 11.9764 42.7619 11.9596 42.7868 11.9596C42.8117 11.9596 42.8367 11.9848 42.8367 12.01V12.2366C42.8367 12.2366 42.845 12.2786 42.7951 12.287C42.7536 12.2953 42.5707 12.3457 42.5707 12.3457C42.5624 12.3457 42.5624 12.3457 42.5624 12.3457C42.5375 12.3541 42.5208 12.3373 42.5125 12.3121Z" fill="#717070"/>
<path d="M42.7876 1.49387C42.8126 1.49387 42.8375 1.46869 42.8375 1.44351V1.21688C42.8375 1.17491 42.8209 1.16651 42.7876 1.16651H42.5632C42.53 1.16651 42.5134 1.19169 42.5134 1.21688C42.5134 1.24206 42.5383 1.26724 42.5632 1.26724H42.7378V1.44351C42.7295 1.46869 42.7544 1.49387 42.7876 1.49387Z" fill="#717070"/>
<path d="M42.7868 11.6924C42.8117 11.6924 42.8367 11.6672 42.8367 11.642V11.1719C42.8367 11.1468 42.8117 11.1216 42.7868 11.1216C42.7536 11.1216 42.7369 11.1468 42.7369 11.1719V11.642C42.7286 11.6672 42.7536 11.6924 42.7868 11.6924Z" fill="#717070"/>
<path d="M42.7868 10.845C42.8117 10.845 42.8367 10.8198 42.8367 10.7946V10.3246C42.8367 10.291 42.8117 10.2742 42.7868 10.2742C42.7536 10.2742 42.7369 10.2994 42.7369 10.3246V10.7946C42.7286 10.8198 42.7536 10.845 42.7868 10.845Z" fill="#717070"/>
<path d="M42.7868 9.9966C42.8117 9.9966 42.8367 9.97141 42.8367 9.94623V9.47619C42.8367 9.44261 42.8117 9.42582 42.7868 9.42582C42.7536 9.42582 42.7369 9.451 42.7369 9.47619V9.94623C42.7286 9.97141 42.7536 9.9966 42.7868 9.9966Z" fill="#717070"/>
<path d="M42.7868 9.14033C42.8117 9.14033 42.8367 9.11515 42.8367 9.08997V8.61992C42.8367 8.59474 42.8117 8.56956 42.7868 8.56956C42.7536 8.56956 42.7369 8.59474 42.7369 8.61992V9.08997C42.7286 9.11515 42.7536 9.14033 42.7868 9.14033Z" fill="#717070"/>
<path d="M42.7868 8.29393C42.8117 8.29393 42.8367 8.26875 42.8367 8.24357V7.77352C42.8367 7.73995 42.8117 7.72316 42.7868 7.72316C42.7536 7.72316 42.7369 7.74834 42.7369 7.77352V8.24357C42.7286 8.26875 42.7536 8.29393 42.7868 8.29393Z" fill="#717070"/>
<path d="M42.7868 7.44506C42.8117 7.44506 42.8367 7.41988 42.8367 7.3947V6.92465C42.8367 6.89947 42.8117 6.87429 42.7868 6.87429C42.7536 6.87429 42.7369 6.89947 42.7369 6.92465V7.3947C42.7286 7.41988 42.7536 7.44506 42.7868 7.44506Z" fill="#717070"/>
<path d="M42.7868 6.59768C42.8117 6.59768 42.8367 6.5725 42.8367 6.53893V6.06888C42.8367 6.0437 42.8117 6.01852 42.7868 6.01852C42.7536 6.01852 42.7369 6.0437 42.7369 6.06888V6.53893C42.7286 6.5725 42.7536 6.59768 42.7868 6.59768Z" fill="#717070"/>
<path d="M42.7868 5.74141C42.8117 5.74141 42.8367 5.71623 42.8367 5.69105V5.221C42.8367 5.19582 42.8117 5.17064 42.7868 5.17064C42.7536 5.17064 42.7369 5.19582 42.7369 5.221V5.69105C42.7286 5.71623 42.7536 5.74141 42.7868 5.74141Z" fill="#717070"/>
<path d="M42.7868 4.89403C42.8117 4.89403 42.8367 4.86885 42.8367 4.83528V4.36523C42.8367 4.33165 42.8117 4.31487 42.7868 4.31487C42.7536 4.31487 42.7369 4.34005 42.7369 4.36523V4.83528C42.7286 4.86885 42.7536 4.89403 42.7868 4.89403Z" fill="#717070"/>
<path d="M42.7868 4.04614C42.8117 4.04614 42.8367 4.02096 42.8367 3.99578V3.52573C42.8367 3.49216 42.8117 3.47537 42.7868 3.47537C42.7536 3.47537 42.7369 3.50055 42.7369 3.52573V3.99578C42.7286 4.02096 42.7536 4.04614 42.7868 4.04614Z" fill="#717070"/>
<path d="M42.7868 3.19777C42.8117 3.19777 42.8367 3.17259 42.8367 3.14741V2.67736C42.8367 2.64379 42.8117 2.627 42.7868 2.627C42.7536 2.627 42.7369 2.65218 42.7369 2.67736V3.14741C42.7286 3.17259 42.7536 3.19777 42.7868 3.19777Z" fill="#717070"/>
<path d="M42.7868 2.34249C42.8117 2.34249 42.8367 2.31731 42.8367 2.29213V1.82208C42.8367 1.7969 42.8117 1.77172 42.7868 1.77172C42.7536 1.77172 42.7369 1.7969 42.7369 1.82208V2.29213C42.7286 2.31731 42.7536 2.34249 42.7868 2.34249Z" fill="#717070"/>
<path d="M22.149 1.26724H22.6061C22.6311 1.26724 22.656 1.24206 22.656 1.21688C22.656 1.19169 22.6311 1.16651 22.6061 1.16651H22.149C22.1241 1.16651 22.0991 1.19169 22.0991 1.21688C22.0991 1.24206 22.1241 1.26724 22.149 1.26724Z" fill="#717070"/>
<path d="M22.9638 1.26724H23.421C23.4459 1.26724 23.4708 1.24206 23.4708 1.21688C23.4708 1.19169 23.4459 1.16651 23.421 1.16651H22.9638C22.9389 1.16651 22.914 1.19169 22.914 1.21688C22.914 1.24206 22.9389 1.26724 22.9638 1.26724Z" fill="#717070"/>
<path d="M23.7862 1.26724H24.2433C24.2766 1.26724 24.3015 1.24206 24.3015 1.21688C24.3015 1.19169 24.2766 1.16651 24.2433 1.16651H23.7862C23.7613 1.16651 23.7363 1.19169 23.7363 1.21688C23.728 1.24206 23.753 1.26724 23.7862 1.26724Z" fill="#717070"/>
<path d="M24.6024 1.26724H25.0595C25.0928 1.26724 25.1094 1.24206 25.1094 1.21688C25.1094 1.19169 25.0844 1.16651 25.0595 1.16651H24.6024C24.5691 1.16651 24.5525 1.19169 24.5525 1.21688C24.5525 1.24206 24.5691 1.26724 24.6024 1.26724Z" fill="#717070"/>
<path d="M25.4162 1.26724H25.8734C25.9066 1.26724 25.9232 1.24206 25.9232 1.21688C25.9232 1.19169 25.8983 1.16651 25.8734 1.16651H25.4162C25.3913 1.16651 25.3664 1.19169 25.3664 1.21688C25.3664 1.24206 25.3913 1.26724 25.4162 1.26724Z" fill="#717070"/>
<path d="M26.2301 1.26724H26.6872C26.7121 1.26724 26.7371 1.24206 26.7371 1.21688C26.7371 1.19169 26.7121 1.16651 26.6872 1.16651H26.2301C26.2051 1.16651 26.1802 1.19169 26.1802 1.21688C26.1802 1.24206 26.2051 1.26724 26.2301 1.26724Z" fill="#717070"/>
<path d="M27.0534 1.26724H27.5106C27.5438 1.26724 27.5604 1.24206 27.5604 1.21688C27.5604 1.19169 27.5355 1.16651 27.5106 1.16651H27.0534C27.0202 1.16651 27.0036 1.19169 27.0036 1.21688C26.9953 1.24206 27.0202 1.26724 27.0534 1.26724Z" fill="#717070"/>
<path d="M27.8683 1.26724H28.3254C28.3586 1.26724 28.3753 1.24206 28.3753 1.21688C28.3753 1.19169 28.3503 1.16651 28.3254 1.16651H27.8683C27.835 1.16651 27.8184 1.19169 27.8184 1.21688C27.8101 1.24206 27.835 1.26724 27.8683 1.26724Z" fill="#717070"/>
<path d="M28.6821 1.26724H29.1392C29.1725 1.26724 29.1891 1.24206 29.1891 1.21688C29.1891 1.19169 29.1642 1.16651 29.1392 1.16651H28.6821C28.6489 1.16651 28.6322 1.19169 28.6322 1.21688C28.6239 1.24206 28.6489 1.26724 28.6821 1.26724Z" fill="#717070"/>
<path d="M29.4973 1.26724H29.9544C29.9794 1.26724 30.0043 1.24206 30.0043 1.21688C30.0043 1.19169 29.9794 1.16651 29.9544 1.16651H29.4973C29.4641 1.16651 29.4474 1.19169 29.4474 1.21688C29.4474 1.24206 29.4724 1.26724 29.4973 1.26724Z" fill="#717070"/>
<path d="M30.3121 1.26724H30.7693C30.7942 1.26724 30.8191 1.24206 30.8191 1.21688C30.8191 1.19169 30.7942 1.16651 30.7693 1.16651H30.3121C30.2789 1.16651 30.2623 1.19169 30.2623 1.21688C30.2623 1.24206 30.2872 1.26724 30.3121 1.26724Z" fill="#717070"/>
<path d="M31.1345 1.26724H31.5833C31.6166 1.26724 31.6332 1.24206 31.6332 1.21688C31.6332 1.19169 31.6082 1.16651 31.5833 1.16651H31.1345C31.1013 1.16651 31.0846 1.19169 31.0846 1.21688C31.0763 1.24206 31.1013 1.26724 31.1345 1.26724Z" fill="#717070"/>
<path d="M31.9493 1.26724H32.3981C32.4314 1.26724 32.448 1.24206 32.448 1.21688C32.448 1.19169 32.4231 1.16651 32.3981 1.16651H31.9493C31.9161 1.16651 31.8995 1.19169 31.8995 1.21688C31.8912 1.24206 31.9161 1.26724 31.9493 1.26724Z" fill="#717070"/>
<path d="M32.7622 1.26724H33.2193C33.2443 1.26724 33.2692 1.24206 33.2692 1.21688C33.2692 1.19169 33.2443 1.16651 33.2193 1.16651H32.7622C32.7373 1.16651 32.7123 1.19169 32.7123 1.21688C32.704 1.24206 32.7289 1.26724 32.7622 1.26724Z" fill="#717070"/>
<path d="M33.5784 1.26724H34.0272C34.0604 1.26724 34.0771 1.24206 34.0771 1.21688C34.0771 1.19169 34.0521 1.16651 34.0272 1.16651H33.5784C33.5451 1.16651 33.5285 1.19169 33.5285 1.21688C33.5285 1.24206 33.5534 1.26724 33.5784 1.26724Z" fill="#717070"/>
<path d="M34.3932 1.26724H34.8503C34.8836 1.26724 34.9002 1.24206 34.9002 1.21688C34.9002 1.19169 34.8753 1.16651 34.8503 1.16651H34.3932C34.36 1.16651 34.3433 1.19169 34.3433 1.21688C34.3433 1.24206 34.3683 1.26724 34.3932 1.26724Z" fill="#717070"/>
<path d="M35.2146 1.26724H35.6717C35.705 1.26724 35.7216 1.24206 35.7216 1.21688C35.7216 1.19169 35.6966 1.16651 35.6717 1.16651H35.2146C35.1813 1.16651 35.1647 1.19169 35.1647 1.21688C35.1564 1.24206 35.1813 1.26724 35.2146 1.26724Z" fill="#717070"/>
<path d="M36.0294 1.26724H36.4865C36.5198 1.26724 36.5364 1.24206 36.5364 1.21688C36.5364 1.19169 36.5115 1.16651 36.4865 1.16651H36.0294C36.0045 1.16651 35.9795 1.19169 35.9795 1.21688C35.9712 1.24206 35.9962 1.26724 36.0294 1.26724Z" fill="#717070"/>
<path d="M36.8436 1.26724H37.3008C37.3257 1.26724 37.3506 1.24206 37.3506 1.21688C37.3506 1.19169 37.3257 1.16651 37.3008 1.16651H36.8436C36.8187 1.16651 36.7938 1.19169 36.7938 1.21688C36.7938 1.24206 36.8104 1.26724 36.8436 1.26724Z" fill="#717070"/>
<path d="M37.6575 1.26724H38.1146C38.1478 1.26724 38.1645 1.24206 38.1645 1.21688C38.1645 1.19169 38.1395 1.16651 38.1146 1.16651H37.6575C37.6325 1.16651 37.6076 1.19169 37.6076 1.21688C37.6076 1.24206 37.6325 1.26724 37.6575 1.26724Z" fill="#717070"/>
<path d="M38.4733 1.26724H38.9304C38.9637 1.26724 38.9803 1.24206 38.9803 1.21688C38.9803 1.19169 38.9554 1.16651 38.9304 1.16651H38.4733C38.4484 1.16651 38.4234 1.19169 38.4234 1.21688C38.4234 1.24206 38.4484 1.26724 38.4733 1.26724Z" fill="#717070"/>
<path d="M39.2881 1.26724H39.7453C39.7702 1.26724 39.7951 1.24206 39.7951 1.21688C39.7951 1.19169 39.7702 1.16651 39.7453 1.16651H39.2881C39.2632 1.16651 39.2383 1.19169 39.2383 1.21688C39.2383 1.24206 39.2632 1.26724 39.2881 1.26724Z" fill="#717070"/>
<path d="M40.1115 1.26724H40.5686C40.6018 1.26724 40.6185 1.24206 40.6185 1.21688C40.6185 1.19169 40.5935 1.16651 40.5686 1.16651H40.1115C40.0782 1.16651 40.0616 1.19169 40.0616 1.21688C40.0533 1.24206 40.0782 1.26724 40.1115 1.26724Z" fill="#717070"/>
<path d="M40.9253 1.26724H41.3824C41.4157 1.26724 41.4323 1.24206 41.4323 1.21688C41.4323 1.19169 41.4074 1.16651 41.3824 1.16651H40.9253C40.8921 1.16651 40.8755 1.19169 40.8755 1.21688C40.8671 1.24206 40.8921 1.26724 40.9253 1.26724Z" fill="#717070"/>
<path d="M41.7385 1.26724H42.1957C42.2289 1.26724 42.2455 1.24206 42.2455 1.21688C42.2455 1.19169 42.2206 1.16651 42.1957 1.16651H41.7385C41.7136 1.16651 41.6887 1.19169 41.6887 1.21688C41.6887 1.24206 41.7136 1.26724 41.7385 1.26724Z" fill="#717070"/>
<path d="M22.549 17.3999C22.549 17.3999 22.5573 17.3999 22.5656 17.3999L23.0061 17.2908C23.0393 17.2824 23.0559 17.2489 23.0476 17.2237C23.0393 17.1901 23.0144 17.1733 22.9811 17.1817L22.5323 17.2908C22.5074 17.2992 22.4908 17.3244 22.4908 17.358C22.5074 17.3831 22.524 17.3999 22.549 17.3999Z" fill="#717070"/>
<path d="M23.3466 17.199C23.3549 17.199 23.3549 17.199 23.3632 17.199L23.8037 17.0899C23.837 17.0815 23.8536 17.0563 23.8453 17.0228C23.837 16.9976 23.812 16.9808 23.7788 16.9808L23.3383 17.0899C23.3134 17.0983 23.2967 17.1235 23.2967 17.1571C23.305 17.1822 23.3217 17.199 23.3466 17.199Z" fill="#717070"/>
<path d="M24.152 16.9968C24.1603 16.9968 24.1603 16.9968 24.1686 16.9968L24.6091 16.8877C24.634 16.8793 24.659 16.8541 24.6507 16.8205C24.6424 16.7953 24.6174 16.7786 24.5842 16.7786L24.1354 16.8877C24.1104 16.8961 24.0938 16.9213 24.0938 16.9548C24.1021 16.98 24.1271 16.9968 24.152 16.9968Z" fill="#717070"/>
<path d="M24.9512 16.7962C24.9595 16.7962 24.9595 16.7962 24.9678 16.7962L25.4166 16.6871C25.4416 16.6787 25.4582 16.6535 25.4582 16.6199C25.4499 16.5864 25.4249 16.5696 25.3917 16.578L24.9512 16.6871C24.9262 16.6955 24.9096 16.7207 24.9096 16.7542C24.9096 16.7794 24.9262 16.7962 24.9512 16.7962Z" fill="#717070"/>
<path d="M25.7483 16.5945C25.7483 16.5945 25.7566 16.5945 25.765 16.5945L26.2138 16.4854C26.2387 16.477 26.2553 16.4518 26.2553 16.4182C26.247 16.3846 26.2221 16.3678 26.1888 16.3762L25.74 16.4854C25.7151 16.4938 25.6902 16.5189 25.6985 16.5525C25.7068 16.5777 25.7234 16.5945 25.7483 16.5945Z" fill="#717070"/>
<path d="M26.5556 16.3936C26.5639 16.3936 26.5639 16.3936 26.5722 16.3936L27.0127 16.2844C27.0377 16.276 27.0626 16.2509 27.0543 16.2173C27.046 16.1921 27.0211 16.1753 26.9878 16.1753L26.5473 16.2844C26.5224 16.2928 26.5058 16.318 26.5058 16.3516C26.5058 16.3768 26.5307 16.3936 26.5556 16.3936Z" fill="#717070"/>
<path d="M27.3517 16.1908C27.3517 16.1908 27.36 16.1908 27.3683 16.1908L27.8088 16.0817C27.8338 16.0733 27.8587 16.0481 27.8504 16.0146C27.8421 15.9894 27.8171 15.9726 27.7839 15.9726L27.3434 16.0817C27.3185 16.0901 27.3018 16.1153 27.3018 16.1489C27.3102 16.1741 27.3268 16.1908 27.3517 16.1908Z" fill="#717070"/>
<path d="M28.1498 15.9903C28.1581 15.9903 28.1581 15.9903 28.1664 15.9903L28.6069 15.8811C28.6318 15.8727 28.6485 15.8476 28.6485 15.814C28.6401 15.7888 28.6152 15.7636 28.582 15.772L28.1415 15.8811C28.1165 15.8895 28.0999 15.9147 28.0999 15.9483C28.1082 15.9735 28.1248 15.9903 28.1498 15.9903Z" fill="#717070"/>
<path d="M28.9561 15.7884C28.9645 15.7884 28.9645 15.7884 28.9728 15.7884L29.4133 15.6792C29.4382 15.6708 29.4548 15.6457 29.4548 15.6121C29.4465 15.5869 29.4216 15.5701 29.3883 15.5701L28.9395 15.6792C28.9146 15.6876 28.898 15.7128 28.898 15.7464C28.9063 15.7716 28.9312 15.7884 28.9561 15.7884Z" fill="#717070"/>
<path d="M29.7538 15.5878C29.7538 15.5878 29.7621 15.5878 29.7704 15.5878L30.2192 15.4787C30.2442 15.4703 30.2608 15.4451 30.2608 15.4115C30.2525 15.3863 30.2275 15.3611 30.1943 15.3695L29.7455 15.4787C29.7205 15.487 29.7039 15.5122 29.7039 15.5458C29.7039 15.571 29.7289 15.5878 29.7538 15.5878Z" fill="#717070"/>
<path d="M30.5531 15.3854C30.5614 15.3854 30.5614 15.3854 30.5697 15.3854L31.0185 15.2763C31.0434 15.2679 31.0601 15.2427 31.0601 15.2091C31.0517 15.1839 31.0268 15.1671 30.9936 15.1671L30.5531 15.2763C30.5281 15.2847 30.5032 15.3098 30.5115 15.3434C30.5115 15.3686 30.5281 15.3854 30.5531 15.3854Z" fill="#717070"/>
<path d="M31.359 15.1841C31.3673 15.1841 31.3673 15.1841 31.3756 15.1841L31.8245 15.075C31.8494 15.0666 31.866 15.0414 31.866 15.0079C31.8577 14.9827 31.8328 14.9659 31.7995 14.9659L31.359 15.075C31.3341 15.0834 31.3175 15.1086 31.3175 15.1422C31.3091 15.1673 31.3341 15.1841 31.359 15.1841Z" fill="#717070"/>
<path d="M32.157 14.9824C32.1653 14.9824 32.1653 14.9824 32.1653 14.9824L32.6141 14.8733C32.6391 14.8649 32.6557 14.8397 32.6557 14.8061C32.6474 14.781 32.6224 14.7642 32.5892 14.7642L32.1487 14.8733C32.1154 14.8817 32.0988 14.9069 32.1071 14.9404C32.1154 14.9656 32.1321 14.9824 32.157 14.9824Z" fill="#717070"/>
<path d="M32.9541 14.7803C32.9624 14.7803 32.9624 14.7803 32.9707 14.7803L33.4112 14.6712C33.4444 14.6628 33.4611 14.6376 33.4528 14.6041C33.4444 14.5705 33.4195 14.5537 33.3863 14.5621L32.9458 14.6712C32.9125 14.6796 32.8959 14.7048 32.9042 14.7384C32.9125 14.7636 32.9291 14.7803 32.9541 14.7803Z" fill="#717070"/>
<path d="M33.761 14.5799C33.7693 14.5799 33.7693 14.5799 33.7776 14.5799L34.2181 14.4708C34.243 14.4624 34.2679 14.4372 34.2596 14.4036C34.2513 14.3785 34.2264 14.3617 34.1931 14.3617L33.7443 14.4708C33.7194 14.4792 33.6945 14.5044 33.7028 14.5379C33.7111 14.5631 33.736 14.5799 33.761 14.5799Z" fill="#717070"/>
<path d="M34.5589 14.3705C34.5672 14.3705 34.5672 14.3705 34.5756 14.3705L35.0244 14.2613C35.0493 14.2529 35.0659 14.2278 35.0659 14.1942C35.0576 14.1606 35.0327 14.1438 34.9994 14.1522L34.5506 14.2613C34.5257 14.2697 34.5091 14.2949 34.5091 14.3285C34.5091 14.3621 34.534 14.3705 34.5589 14.3705Z" fill="#717070"/>
<path d="M35.3564 14.1769C35.3647 14.1769 35.3647 14.1769 35.3731 14.1769L35.8136 14.0678C35.8385 14.0594 35.8634 14.0342 35.8551 14.0007C35.8468 13.9755 35.8219 13.9587 35.7886 13.9587L35.3398 14.0678C35.3149 14.0762 35.2983 14.1014 35.2983 14.135C35.3149 14.1602 35.3315 14.1769 35.3564 14.1769Z" fill="#717070"/>
<path d="M36.1621 13.9675H36.1704L36.6192 13.8584C36.6442 13.85 36.6608 13.8248 36.6608 13.7912C36.6525 13.766 36.6275 13.7408 36.5943 13.7492L36.1538 13.8584C36.1206 13.8668 36.1039 13.8919 36.1122 13.9255C36.1122 13.9591 36.1372 13.9675 36.1621 13.9675Z" fill="#717070"/>
<path d="M36.9607 13.7648C36.9607 13.7648 36.9691 13.7648 36.9774 13.7648L37.4262 13.6556C37.4511 13.6472 37.476 13.6221 37.4677 13.5885C37.4594 13.5633 37.4345 13.5381 37.4012 13.5465L36.9607 13.6556C36.9275 13.664 36.9109 13.6892 36.9192 13.7228C36.9109 13.7564 36.9358 13.7648 36.9607 13.7648Z" fill="#717070"/>
<path d="M37.7581 13.565C37.7581 13.565 37.7664 13.565 37.7747 13.565L38.2152 13.4559C38.2485 13.4475 38.2651 13.4223 38.2568 13.3887C38.2485 13.3552 38.2235 13.3384 38.1903 13.3468L37.7498 13.4559C37.7248 13.4643 37.7082 13.4895 37.7082 13.523C37.7165 13.5482 37.7332 13.565 37.7581 13.565Z" fill="#717070"/>
<path d="M38.565 13.3626C38.565 13.3626 38.5733 13.3626 38.5817 13.3626L39.0222 13.2535C39.0554 13.2451 39.072 13.2199 39.0637 13.1863C39.0554 13.1611 39.0305 13.1444 38.9972 13.1444L38.5567 13.2535C38.5318 13.2619 38.5152 13.2871 38.5152 13.3206C38.5152 13.3458 38.5401 13.3626 38.565 13.3626Z" fill="#717070"/>
<path d="M39.3631 13.162H39.3714L39.8202 13.0529C39.8452 13.0445 39.8618 13.0193 39.8618 12.9857C39.8535 12.9522 39.8285 12.9354 39.7953 12.9438L39.3548 13.0529C39.3299 13.0613 39.3132 13.0865 39.3132 13.12C39.3132 13.1452 39.3382 13.162 39.3631 13.162Z" fill="#717070"/>
<path d="M40.1602 12.9593C40.1685 12.9593 40.1685 12.9593 40.1768 12.9593L40.6256 12.8502C40.6505 12.8418 40.6755 12.8166 40.6672 12.783C40.6589 12.7578 40.6339 12.7327 40.6007 12.7411L40.1519 12.8502C40.1269 12.8586 40.1103 12.8838 40.1103 12.9173C40.1186 12.9425 40.1352 12.9593 40.1602 12.9593Z" fill="#717070"/>
<path d="M40.9665 12.7585H40.9749L41.4237 12.6494C41.4486 12.641 41.4735 12.6159 41.4652 12.5823C41.4569 12.5487 41.432 12.5319 41.3987 12.5403L40.9499 12.6494C40.925 12.6578 40.9084 12.683 40.9084 12.7166C40.9167 12.7418 40.9416 12.7585 40.9665 12.7585Z" fill="#717070"/>
<path d="M41.7642 12.5568C41.7725 12.5568 41.7725 12.5568 41.7808 12.5568L42.2213 12.4477C42.2546 12.4393 42.2712 12.4141 42.2629 12.3805C42.2546 12.3554 42.2296 12.3302 42.1964 12.3386L41.7559 12.4477C41.7309 12.4561 41.7143 12.4813 41.7143 12.5148C41.7143 12.54 41.7393 12.5568 41.7642 12.5568Z" fill="#717070"/>
<path d="M21.3859 0.637267H20.9287C20.8955 0.637267 20.8789 0.662448 20.8789 0.696022C20.8789 0.721204 20.9038 0.746385 20.9287 0.746385H21.3859C21.4108 0.746385 21.4357 0.721204 21.4357 0.696022C21.4357 0.662448 21.4108 0.637267 21.3859 0.637267Z" fill="#717070"/>
<path d="M20.5621 0.637267H20.105C20.0801 0.637267 20.0552 0.662448 20.0552 0.696022C20.0552 0.721204 20.0801 0.746385 20.105 0.746385H20.5621C20.5954 0.746385 20.6203 0.721204 20.6203 0.696022C20.612 0.662448 20.5871 0.637267 20.5621 0.637267Z" fill="#717070"/>
<path d="M19.7404 0.637267H19.2833C19.25 0.637267 19.2334 0.662448 19.2334 0.696022C19.2334 0.721204 19.2583 0.746385 19.2833 0.746385H19.7404C19.7737 0.746385 19.7903 0.721204 19.7903 0.696022C19.7986 0.662448 19.7737 0.637267 19.7404 0.637267Z" fill="#717070"/>
<path d="M18.9167 0.637267H18.4596C18.4263 0.637267 18.4097 0.662448 18.4097 0.696022C18.4097 0.721204 18.4346 0.746385 18.4596 0.746385H18.9167C18.9416 0.746385 18.9666 0.721204 18.9666 0.696022C18.9749 0.662448 18.9499 0.637267 18.9167 0.637267Z" fill="#717070"/>
<path d="M18.1019 0.637267H17.6447C17.6198 0.637267 17.5949 0.662448 17.5949 0.696022C17.5949 0.721204 17.6198 0.746385 17.6447 0.746385H18.1019C18.1268 0.746385 18.1517 0.721204 18.1517 0.696022C18.1517 0.662448 18.1268 0.637267 18.1019 0.637267Z" fill="#717070"/>
<path d="M17.2791 0.637267H16.822C16.7888 0.637267 16.7721 0.662448 16.7721 0.696022C16.7721 0.721204 16.7971 0.746385 16.822 0.746385H17.2791C17.3041 0.746385 17.329 0.721204 17.329 0.696022C17.329 0.662448 17.3041 0.637267 17.2791 0.637267Z" fill="#717070"/>
<path d="M16.4574 0.637267H16.0003C15.967 0.637267 15.9504 0.662448 15.9504 0.696022C15.9504 0.721204 15.9753 0.746385 16.0003 0.746385H16.4574C16.4906 0.746385 16.5073 0.721204 16.5073 0.696022C16.5156 0.662448 16.4906 0.637267 16.4574 0.637267Z" fill="#717070"/>
<path d="M15.6416 0.637267H15.1845C15.1512 0.637267 15.1346 0.662448 15.1346 0.696022C15.1346 0.721204 15.1595 0.746385 15.1845 0.746385H15.6416C15.6665 0.746385 15.6914 0.721204 15.6914 0.696022C15.6914 0.662448 15.6665 0.637267 15.6416 0.637267Z" fill="#717070"/>
<path d="M14.8189 0.637267H14.3617C14.3285 0.637267 14.3119 0.662448 14.3119 0.696022C14.3119 0.721204 14.3368 0.746385 14.3617 0.746385H14.8189C14.8521 0.746385 14.8687 0.721204 14.8687 0.696022C14.8687 0.662448 14.8438 0.637267 14.8189 0.637267Z" fill="#717070"/>
<path d="M13.9971 0.637267H13.54C13.5067 0.637267 13.4901 0.662448 13.4901 0.696022C13.4901 0.721204 13.5151 0.746385 13.54 0.746385H13.9971C14.0304 0.746385 14.047 0.721204 14.047 0.696022C14.0553 0.662448 14.0304 0.637267 13.9971 0.637267Z" fill="#717070"/>
<path d="M13.1734 0.637267H12.7163C12.6913 0.637267 12.6664 0.662448 12.6664 0.696022C12.6664 0.721204 12.6913 0.746385 12.7163 0.746385H13.1734C13.2067 0.746385 13.2233 0.721204 13.2233 0.696022C13.2316 0.662448 13.2067 0.637267 13.1734 0.637267Z" fill="#717070"/>
<path d="M12.3586 0.637267H11.9014C11.8682 0.637267 11.8516 0.662448 11.8516 0.696022C11.8516 0.721204 11.8765 0.746385 11.9014 0.746385H12.3586C12.3918 0.746385 12.4084 0.721204 12.4084 0.696022C12.4084 0.662448 12.3835 0.637267 12.3586 0.637267Z" fill="#717070"/>
<path d="M11.5368 0.637267H11.0797C11.0548 0.637267 11.0298 0.662448 11.0298 0.696022C11.0298 0.721204 11.0548 0.746385 11.0797 0.746385H11.5368C11.5618 0.746385 11.5867 0.721204 11.5867 0.696022C11.595 0.662448 11.5701 0.637267 11.5368 0.637267Z" fill="#717070"/>
<path d="M10.721 0.637267H10.2639C10.2306 0.637267 10.214 0.662448 10.214 0.696022C10.214 0.721204 10.239 0.746385 10.2639 0.746385H10.721C10.7543 0.746385 10.7709 0.721204 10.7709 0.696022C10.7709 0.662448 10.7459 0.637267 10.721 0.637267Z" fill="#717070"/>
<path d="M9.89829 0.637267H9.44116C9.41623 0.637267 9.3913 0.662448 9.3913 0.696022C9.3913 0.721204 9.41623 0.746385 9.44116 0.746385H9.89829C9.93153 0.746385 9.94816 0.721204 9.94816 0.696022C9.94816 0.662448 9.92322 0.637267 9.89829 0.637267Z" fill="#717070"/>
<path d="M9.07556 0.637267H8.61844C8.58519 0.637267 8.56857 0.662448 8.56857 0.696022C8.56857 0.721204 8.59351 0.746385 8.61844 0.746385H9.07556C9.1005 0.746385 9.12543 0.721204 9.12543 0.696022C9.12543 0.662448 9.10881 0.637267 9.07556 0.637267Z" fill="#717070"/>
<path d="M8.25284 0.637267H7.79571C7.77078 0.637267 7.74585 0.662448 7.74585 0.696022C7.74585 0.721204 7.77078 0.746385 7.79571 0.746385H8.25284C8.28608 0.746385 8.30271 0.721204 8.30271 0.696022C8.31102 0.662448 8.28608 0.637267 8.25284 0.637267Z" fill="#717070"/>
<path d="M7.43899 0.637267H6.98187C6.95693 0.637267 6.932 0.662448 6.932 0.696022C6.932 0.721204 6.95693 0.746385 6.98187 0.746385H7.43899C7.47224 0.746385 7.48886 0.721204 7.48886 0.696022C7.48886 0.662448 7.46393 0.637267 7.43899 0.637267Z" fill="#717070"/>
<path d="M6.61528 0.637267H6.15816C6.12491 0.637267 6.10829 0.662448 6.10829 0.696022C6.10829 0.721204 6.13322 0.746385 6.15816 0.746385H6.61528C6.64022 0.746385 6.66515 0.721204 6.66515 0.696022C6.66515 0.662448 6.64022 0.637267 6.61528 0.637267Z" fill="#717070"/>
<path d="M5.79256 0.637267H5.33543C5.3105 0.637267 5.28556 0.662448 5.28556 0.696022C5.28556 0.721204 5.3105 0.746385 5.33543 0.746385H5.79256C5.8258 0.746385 5.84242 0.721204 5.84242 0.696022C5.85074 0.662448 5.8258 0.637267 5.79256 0.637267Z" fill="#717070"/>
<path d="M4.97871 0.637267H4.52159C4.49665 0.637267 4.47172 0.662448 4.47172 0.696022C4.47172 0.721204 4.49665 0.746385 4.52159 0.746385H4.97871C5.00364 0.746385 5.02858 0.721204 5.02858 0.696022C5.02858 0.662448 5.00364 0.637267 4.97871 0.637267Z" fill="#717070"/>
<path d="M4.15598 0.637267H3.69886C3.66561 0.637267 3.64899 0.662448 3.64899 0.696022C3.64899 0.721204 3.67393 0.746385 3.69886 0.746385H4.15598C4.18923 0.746385 4.20585 0.721204 4.20585 0.696022C4.20585 0.662448 4.18092 0.637267 4.15598 0.637267Z" fill="#717070"/>
<path d="M3.33326 0.637267H2.87614C2.84289 0.637267 2.82627 0.662448 2.82627 0.696022C2.82627 0.721204 2.8512 0.746385 2.87614 0.746385H3.33326C3.36651 0.746385 3.38313 0.721204 3.38313 0.696022C3.39144 0.662448 3.36651 0.637267 3.33326 0.637267Z" fill="#717070"/>
<path d="M2.51744 0.637267H2.06032C2.03538 0.637267 2.01045 0.662448 2.01045 0.696022C2.01045 0.721204 2.03538 0.746385 2.06032 0.746385H2.51744C2.54237 0.746385 2.56731 0.721204 2.56731 0.696022C2.56731 0.662448 2.54237 0.637267 2.51744 0.637267Z" fill="#717070"/>
<path d="M1.69472 0.637267H1.23759C1.20435 0.637267 1.18772 0.662448 1.18772 0.696022C1.18772 0.721204 1.21266 0.746385 1.23759 0.746385H1.69472C1.72796 0.746385 1.74458 0.721204 1.74458 0.696022C1.74458 0.662448 1.71965 0.637267 1.69472 0.637267Z" fill="#717070"/>
<path d="M22.1993 0.637267H21.9749H21.7505C21.7172 0.637267 21.7006 0.662448 21.7006 0.696022C21.7006 0.721204 21.7255 0.746385 21.7505 0.746385H21.9749H22.1993C22.2325 0.746385 22.2492 0.721204 22.2492 0.696022C22.2492 0.662448 22.2242 0.637267 22.1993 0.637267Z" fill="#717070"/>
<path d="M23.0224 0.637267H22.5653C22.5321 0.637267 22.5154 0.662448 22.5154 0.696022C22.5154 0.721204 22.5404 0.746385 22.5653 0.746385H23.0224C23.0557 0.746385 23.0723 0.721204 23.0723 0.696022C23.0723 0.662448 23.0474 0.637267 23.0224 0.637267Z" fill="#717070"/>
<path d="M23.8373 0.637267H23.3801C23.3469 0.637267 23.3303 0.662448 23.3303 0.696022C23.3303 0.721204 23.3552 0.746385 23.3801 0.746385H23.8373C23.8705 0.746385 23.8871 0.721204 23.8871 0.696022C23.8954 0.662448 23.8705 0.637267 23.8373 0.637267Z" fill="#717070"/>
<path d="M24.66 0.637267H24.2029C24.1696 0.637267 24.153 0.662448 24.153 0.696022C24.153 0.721204 24.1779 0.746385 24.2029 0.746385H24.66C24.6849 0.746385 24.7099 0.721204 24.7099 0.696022C24.7099 0.662448 24.6932 0.637267 24.66 0.637267Z" fill="#717070"/>
<path d="M25.4827 0.637267H25.0256C24.9923 0.637267 24.9757 0.662448 24.9757 0.696022C24.9757 0.721204 25.0007 0.746385 25.0256 0.746385H25.4827C25.5076 0.746385 25.5326 0.721204 25.5326 0.696022C25.5326 0.662448 25.5076 0.637267 25.4827 0.637267Z" fill="#717070"/>
<path d="M26.2975 0.637267H25.8404C25.8072 0.637267 25.7906 0.662448 25.7906 0.696022C25.7906 0.721204 25.8155 0.746385 25.8404 0.746385H26.2975C26.3308 0.746385 26.3474 0.721204 26.3474 0.696022C26.3557 0.662448 26.3308 0.637267 26.2975 0.637267Z" fill="#717070"/>
<path d="M27.1213 0.637267H26.6641C26.6392 0.637267 26.6143 0.662448 26.6143 0.696022C26.6143 0.721204 26.6392 0.746385 26.6641 0.746385H27.1213C27.1462 0.746385 27.1711 0.721204 27.1711 0.696022C27.1711 0.662448 27.1545 0.637267 27.1213 0.637267Z" fill="#717070"/>
<path d="M27.943 0.637267H27.4859C27.4609 0.637267 27.436 0.662448 27.436 0.696022C27.436 0.721204 27.4609 0.746385 27.4859 0.746385H27.943C27.9762 0.746385 27.9929 0.721204 27.9929 0.696022C27.9929 0.662448 27.9679 0.637267 27.943 0.637267Z" fill="#717070"/>
<path d="M28.7667 0.637267H28.3096C28.2763 0.637267 28.2597 0.662448 28.2597 0.696022C28.2597 0.721204 28.2846 0.746385 28.3096 0.746385H28.7667C28.7916 0.746385 28.8166 0.721204 28.8166 0.696022C28.8166 0.662448 28.7916 0.637267 28.7667 0.637267Z" fill="#717070"/>
<path d="M29.5806 0.637267H29.1234C29.0902 0.637267 29.0736 0.662448 29.0736 0.696022C29.0736 0.721204 29.0985 0.746385 29.1234 0.746385H29.5806C29.6055 0.746385 29.6304 0.721204 29.6304 0.696022C29.6387 0.662448 29.6138 0.637267 29.5806 0.637267Z" fill="#717070"/>
<path d="M30.4023 0.637267H29.9452C29.9119 0.637267 29.8953 0.662448 29.8953 0.696022C29.8953 0.721204 29.9202 0.746385 29.9452 0.746385H30.4023C30.4272 0.746385 30.4522 0.721204 30.4522 0.696022C30.4522 0.662448 30.4272 0.637267 30.4023 0.637267Z" fill="#717070"/>
<path d="M31.225 0.637267H30.7679C30.7346 0.637267 30.718 0.662448 30.718 0.696022C30.718 0.721204 30.743 0.746385 30.7679 0.746385H31.225C31.25 0.746385 31.2749 0.721204 31.2749 0.696022C31.2749 0.662448 31.25 0.637267 31.225 0.637267Z" fill="#717070"/>
<path d="M32.0398 0.637267H31.5827C31.5495 0.637267 31.5329 0.662448 31.5329 0.696022C31.5329 0.721204 31.5578 0.746385 31.5827 0.746385H32.0398C32.0648 0.746385 32.0897 0.721204 32.0897 0.696022C32.098 0.662448 32.0731 0.637267 32.0398 0.637267Z" fill="#717070"/>
<path d="M32.8616 0.637267H32.4045C32.3712 0.637267 32.3546 0.662448 32.3546 0.696022C32.3546 0.721204 32.3795 0.746385 32.4045 0.746385H32.8616C32.8865 0.746385 32.9115 0.721204 32.9115 0.696022C32.9115 0.662448 32.8865 0.637267 32.8616 0.637267Z" fill="#717070"/>
<path d="M33.6863 0.637267H33.2292C33.2042 0.637267 33.1793 0.662448 33.1793 0.696022C33.1793 0.721204 33.2042 0.746385 33.2292 0.746385H33.6863C33.7112 0.746385 33.7362 0.721204 33.7362 0.696022C33.7362 0.662448 33.7112 0.637267 33.6863 0.637267Z" fill="#717070"/>
<path d="M34.5001 0.637267H34.043C34.0181 0.637267 33.9931 0.662448 33.9931 0.696022C33.9931 0.721204 34.0181 0.746385 34.043 0.746385H34.5001C34.5251 0.746385 34.55 0.721204 34.55 0.696022C34.5583 0.662448 34.5334 0.637267 34.5001 0.637267Z" fill="#717070"/>
<path d="M35.3229 0.637267H34.8657C34.8408 0.637267 34.8159 0.662448 34.8159 0.696022C34.8159 0.721204 34.8408 0.746385 34.8657 0.746385H35.3229C35.3478 0.746385 35.3727 0.721204 35.3727 0.696022C35.3727 0.662448 35.3561 0.637267 35.3229 0.637267Z" fill="#717070"/>
<path d="M36.1466 0.637267H35.6894C35.6645 0.637267 35.6396 0.662448 35.6396 0.696022C35.6396 0.721204 35.6645 0.746385 35.6894 0.746385H36.1466C36.1715 0.746385 36.1964 0.721204 36.1964 0.696022C36.1964 0.662448 36.1715 0.637267 36.1466 0.637267Z" fill="#717070"/>
<path d="M36.9604 0.637267H36.5033C36.47 0.637267 36.4534 0.662448 36.4534 0.696022C36.4534 0.721204 36.4784 0.746385 36.5033 0.746385H36.9604C36.9937 0.746385 37.0103 0.721204 37.0103 0.696022C37.0186 0.662448 36.9937 0.637267 36.9604 0.637267Z" fill="#717070"/>
<path d="M37.7831 0.637267H37.326C37.2928 0.637267 37.2761 0.662448 37.2761 0.696022C37.2761 0.721204 37.3011 0.746385 37.326 0.746385H37.7831C37.8164 0.746385 37.833 0.721204 37.833 0.696022C37.833 0.662448 37.8164 0.637267 37.7831 0.637267Z" fill="#717070"/>
<path d="M38.6059 0.637267H38.1487C38.1155 0.637267 38.0989 0.662448 38.0989 0.696022C38.0989 0.721204 38.1238 0.746385 38.1487 0.746385H38.6059C38.6391 0.746385 38.6557 0.721204 38.6557 0.696022C38.6557 0.662448 38.6308 0.637267 38.6059 0.637267Z" fill="#717070"/>
<path d="M39.4207 0.637267H38.9636C38.9303 0.637267 38.9137 0.662448 38.9137 0.696022C38.9137 0.721204 38.9386 0.746385 38.9636 0.746385H39.4207C39.4539 0.746385 39.4706 0.721204 39.4706 0.696022C39.4789 0.662448 39.4539 0.637267 39.4207 0.637267Z" fill="#717070"/>
<path d="M40.2434 0.637267H39.7863C39.7531 0.637267 39.7364 0.662448 39.7364 0.696022C39.7364 0.721204 39.7614 0.746385 39.7863 0.746385H40.2434C40.2684 0.746385 40.2933 0.721204 40.2933 0.696022C40.3016 0.662448 40.2767 0.637267 40.2434 0.637267Z" fill="#717070"/>
<path d="M41.0661 0.637267H40.609C40.5841 0.637267 40.5592 0.662448 40.5592 0.696022C40.5592 0.721204 40.5841 0.746385 40.609 0.746385H41.0661C41.0911 0.746385 41.116 0.721204 41.116 0.696022C41.116 0.662448 41.0911 0.637267 41.0661 0.637267Z" fill="#717070"/>
<path d="M41.8899 0.637267H41.4327C41.4078 0.637267 41.3829 0.662448 41.3829 0.696022C41.3829 0.721204 41.4078 0.746385 41.4327 0.746385H41.8899C41.9148 0.746385 41.9397 0.721204 41.9397 0.696022C41.9397 0.662448 41.9148 0.637267 41.8899 0.637267Z" fill="#717070"/>
<path d="M42.7047 0.637267H42.2476C42.2143 0.637267 42.1977 0.662448 42.1977 0.696022C42.1977 0.721204 42.2226 0.746385 42.2476 0.746385H42.7047C42.7296 0.746385 42.7546 0.721204 42.7546 0.696022C42.7629 0.662448 42.7379 0.637267 42.7047 0.637267Z" fill="#717070"/>
<path d="M21.7418 17.493C21.7418 17.493 21.8831 17.5266 21.9163 17.535C21.9329 17.5434 21.9496 17.5434 21.9745 17.535C21.9911 17.535 22.0161 17.535 22.0327 17.535C22.0659 17.5266 22.2072 17.493 22.2072 17.493C22.2322 17.4847 22.2571 17.4595 22.2488 17.4259C22.2405 17.4007 22.2155 17.3839 22.1823 17.3839C22.1823 17.3839 22.0077 17.4259 21.9994 17.4343C21.9911 17.4343 21.9828 17.4343 21.9828 17.4343C21.9745 17.4343 21.9662 17.4343 21.9662 17.4343C21.9496 17.4343 21.7833 17.3839 21.7833 17.3839C21.7584 17.3755 21.7252 17.3923 21.7169 17.4259C21.6919 17.4511 21.7169 17.4847 21.7418 17.493Z" fill="#717070"/>
<path d="M22.2165 17.9293C22.2082 17.9209 22.1915 17.9209 22.1749 17.9209C22.1749 17.9209 22.1334 17.9293 22.0918 17.9461C22.0502 17.9545 22.0004 17.9713 21.9921 17.9713H21.9838H21.9754H21.9671H21.9588C21.9505 17.9713 21.909 17.9545 21.8591 17.9461C21.8175 17.9377 21.776 17.9209 21.776 17.9209C21.7593 17.9209 21.7427 17.9209 21.7344 17.9293C21.7178 17.9377 21.7095 17.9461 21.7095 17.9629C21.7095 17.9797 21.7095 17.9881 21.7178 18.0048C21.7261 18.0132 21.7344 18.0216 21.751 18.03C21.751 18.03 21.7843 18.0384 21.8258 18.0468C21.8674 18.0552 21.909 18.0636 21.9256 18.072C21.9339 18.072 21.9422 18.072 21.9505 18.072C21.9588 18.072 21.9671 18.072 21.9754 18.072C21.9838 18.072 21.9921 18.072 22.0004 18.072C22.0087 18.072 22.017 18.072 22.0253 18.072C22.0419 18.0636 22.0918 18.0552 22.125 18.0468C22.1666 18.0384 22.1999 18.03 22.1999 18.03C22.2165 18.03 22.2248 18.0216 22.2331 18.0048C22.2414 17.9881 22.2414 17.9797 22.2414 17.9629C22.2414 17.9461 22.2331 17.9377 22.2165 17.9293Z" fill="#717070"/>
<path d="M0.589915 0.696022V0.922653C0.589915 0.947834 0.61485 0.973015 0.639784 0.973015C0.673029 0.973015 0.689652 0.947834 0.689652 0.922653V0.746385H0.86419C0.897436 0.746385 0.914058 0.721204 0.914058 0.696022C0.914058 0.662448 0.889124 0.637267 0.86419 0.637267H0.639784C0.61485 0.637267 0.589915 0.654054 0.589915 0.696022Z" fill="#717070"/>
<path fill-rule="evenodd" clip-rule="evenodd" d="M11.7684 9.90423C12.1839 10.0637 12.6494 10.1476 13.1564 10.1476C13.6633 10.1476 14.1288 10.0637 14.5527 9.91263C14.9682 9.75314 15.3339 9.51812 15.6248 9.21595C15.9157 8.91377 16.1484 8.54445 16.3064 8.12477C16.4643 7.69669 16.5474 7.21825 16.5474 6.69784C16.5474 6.18582 16.4643 5.69898 16.3064 5.27091C16.1484 4.84283 15.9157 4.4735 15.6248 4.17133C15.3339 3.86916 14.9682 3.63413 14.5527 3.46626C14.1371 3.29838 13.6633 3.21445 13.1564 3.21445C12.641 3.21445 12.1756 3.29838 11.7684 3.45786C11.3611 3.62574 11.0037 3.86076 10.7045 4.16294C10.4136 4.46511 10.1809 4.83443 10.023 5.26251C9.86506 5.6822 9.78194 6.16903 9.78194 6.68944C9.78194 7.20985 9.86506 7.69669 10.023 8.11637C10.1809 8.53606 10.4136 8.90538 10.7045 9.20755C10.9954 9.50973 11.3528 9.74475 11.7684 9.90423ZM12.4584 4.87649C12.6412 4.76737 12.8739 4.70862 13.1565 4.70862C13.4308 4.70862 13.6718 4.75898 13.863 4.88488C14.0542 4.994 14.2038 5.1367 14.3118 5.32136C14.4199 5.49763 14.503 5.70747 14.5528 5.95089C14.6027 6.1943 14.6276 6.44611 14.6276 6.69793C14.6276 6.94974 14.6027 7.20155 14.5528 7.43657C14.5113 7.67999 14.4282 7.88983 14.3118 8.07449C14.2038 8.25915 14.0542 8.40185 13.863 8.51097C13.6718 8.62008 13.4391 8.67884 13.1565 8.67884C12.8823 8.67884 12.6412 8.62008 12.4584 8.51097C12.2672 8.40185 12.1259 8.25915 12.0096 8.07449C11.9015 7.88983 11.8184 7.6716 11.7685 7.43657C11.727 7.19315 11.702 6.94134 11.702 6.69793C11.702 6.44611 11.7187 6.1943 11.7685 5.95089C11.8184 5.71586 11.8932 5.50602 12.0096 5.32136C12.1176 5.1367 12.2672 4.994 12.4584 4.87649Z" fill="#EE7E22"/>
<path d="M25.3989 9.9978L23.6702 7.16072L23.0884 7.7231V9.9894H21.1768V2.01538H23.0884V5.58271L25.1912 3.37516L27.6347 3.25765L24.9917 5.84291L27.7012 10.1321L25.3989 9.9978Z" fill="#AECA36"/>
<path d="M35.8126 10.0136C35.7959 10.0136 34.1918 10.0052 33.1529 10.0052C32.4465 10.0052 32.3052 9.99677 32.2636 9.98837C32.0143 9.9464 31.7899 9.87086 31.5904 9.76174C31.3909 9.64423 31.233 9.48475 31.125 9.26651C31.0086 9.05667 30.9587 8.77968 30.9587 8.44393V2.05632H32.8703V3.38252H34.1503V4.72552H32.8703V7.83119C32.8454 8.37678 33.1779 8.46072 33.1779 8.46072C33.2527 8.4775 33.3607 8.49429 33.5269 8.49429C33.6267 8.49429 33.7181 8.49429 33.8012 8.4859C33.8926 8.4775 33.9757 8.46911 34.0505 8.45232L34.0921 8.44393L36.1284 10.0219L35.8126 10.0136Z" fill="#6D4897"/>
<path fill-rule="evenodd" clip-rule="evenodd" d="M26.8708 9.97977C27.2947 10.1476 27.7684 10.2316 28.2921 10.2316C29.0401 10.2316 29.6967 10.0553 30.2286 9.71118C30.3699 9.61885 30.5029 9.50133 30.6525 9.35025L30.7107 9.29149L29.5803 8.15834L29.5221 8.22549C29.4473 8.31782 29.3559 8.39336 29.2479 8.46891C28.9985 8.64518 28.7076 8.72911 28.3585 8.72911C27.8682 8.72911 27.5108 8.60321 27.2531 8.35979C27.0786 8.18352 26.9539 7.93171 26.8874 7.59596L26.8209 7.24343H31.5418L31.5501 7.16788C31.5833 6.65587 31.5335 6.16064 31.4171 5.69059C31.2924 5.22054 31.093 4.80086 30.827 4.43153C30.5527 4.05382 30.2037 3.76004 29.7798 3.5418C29.3559 3.32357 28.8572 3.21445 28.2921 3.21445C27.7851 3.21445 27.3196 3.30678 26.9041 3.48305C26.4885 3.66771 26.1228 3.91952 25.8236 4.23009C25.5244 4.54065 25.2917 4.91837 25.1254 5.34645C24.9592 5.77453 24.8761 6.24458 24.8761 6.7398C24.8761 7.25182 24.9592 7.73026 25.1171 8.15834C25.275 8.58642 25.5077 8.95574 25.7986 9.26631C25.9732 9.45936 26.1893 9.62724 26.422 9.76154C26.5633 9.84548 26.7129 9.91262 26.8708 9.97977ZM27.5601 4.86005C27.7346 4.77611 27.959 4.72575 28.2333 4.72575C28.6488 4.72575 28.9564 4.83486 29.1558 5.0531C29.2722 5.17901 29.3719 5.33849 29.4467 5.53994L29.6046 5.94283H26.7871L26.9367 5.53994C26.9783 5.42242 27.0447 5.30491 27.1362 5.19579C27.2359 5.06149 27.3855 4.95238 27.5601 4.86005Z" fill="#1EA1DB"/>
<path fill-rule="evenodd" clip-rule="evenodd" d="M4.3563 3.38282V12.3725H6.2596V9.42629L6.71672 9.73686C6.79984 9.79562 6.89126 9.84598 6.991 9.89634C7.34007 10.0642 7.71409 10.1482 8.12134 10.1482C8.59509 10.1482 9.02728 10.0474 9.38467 9.86276C9.75037 9.6781 10.0496 9.4179 10.2906 9.10733C10.5316 8.79676 10.7145 8.43584 10.8308 8.02454C10.9472 7.62165 11.0054 7.19357 11.0054 6.75709C11.0054 6.29544 10.9472 5.85057 10.8308 5.42249C10.7145 4.98602 10.5316 4.6083 10.2906 4.28934C10.0413 3.96199 9.73374 3.70178 9.35973 3.50873C8.99403 3.30728 8.54522 3.20656 8.02992 3.20656C7.62266 3.20656 7.24865 3.29049 6.90788 3.44997L6.90788 3.44997C6.81646 3.50034 6.72503 3.5507 6.64192 3.60945L6.1848 3.92841V3.38282H4.3563ZM7.04875 4.8601C7.2316 4.75938 7.456 4.70902 7.73028 4.70902L7.75521 4.70062C8.0378 4.70902 8.27883 4.76777 8.46999 4.88528C8.66115 5.01119 8.81906 5.16228 8.93542 5.34694C9.05178 5.53999 9.14321 5.74984 9.19308 5.99325C9.24294 6.23667 9.26788 6.48848 9.25957 6.74029C9.25125 6.99211 9.22632 7.24392 9.16814 7.47894C9.11827 7.72236 9.02685 7.92381 8.90218 8.10007C8.78582 8.27634 8.6279 8.41064 8.42843 8.51976C8.23727 8.62048 8.01286 8.67085 7.69703 8.67085C7.41445 8.67085 7.17342 8.6037 6.98226 8.49458C6.78278 8.37707 6.63318 8.24277 6.51682 8.05811C6.40046 7.88184 6.31735 7.6636 6.26748 7.42858C6.21761 7.18516 6.19268 6.93335 6.20099 6.68154C6.2093 6.42133 6.23423 6.16113 6.29241 5.9261C6.35059 5.68269 6.44202 5.47284 6.56669 5.29658C6.69136 5.11192 6.84927 4.97762 7.04875 4.8601Z" fill="#02A4B8"/>
<path d="M39.4129 6.94187C39.2882 6.73202 39.1303 6.54736 38.9308 6.40467C38.7397 6.26198 38.5153 6.15286 38.2659 6.06053C38.0997 6.00177 37.9252 5.95141 37.7423 5.90105C37.6426 5.87587 37.5428 5.85069 37.5428 5.85069L37.2519 5.78354C37.094 5.74996 36.9361 5.71639 36.7782 5.68281C36.5372 5.63245 36.3294 5.57369 36.1548 5.51494C35.9803 5.45618 35.839 5.38064 35.731 5.28831C35.6312 5.20437 35.5814 5.10365 35.5814 4.96095C35.5814 4.88541 35.598 4.80987 35.6146 4.7595L35.6312 4.72593L35.6562 4.69235C35.7143 4.6252 35.7891 4.56645 35.8723 4.53287C35.9637 4.4909 36.0551 4.46572 36.1632 4.45733C36.2712 4.44894 36.3709 4.44054 36.4707 4.44054C36.7699 4.44054 37.0359 4.4993 37.2519 4.60842C37.4597 4.71753 37.5678 4.91898 37.5927 5.23794L37.601 5.31349H37.8088H37.8836H39.4212L39.4129 5.22955C39.3797 4.81826 39.2716 4.47412 39.0971 4.19713C38.9225 3.92853 38.6981 3.7019 38.4405 3.54242C38.1745 3.38294 37.8753 3.26542 37.5428 3.19827C37.2104 3.13112 36.8696 3.09755 36.5205 3.09755C36.1715 3.09755 35.8224 3.13112 35.4899 3.18988C35.1492 3.24864 34.8417 3.36615 34.5757 3.52563C34.3014 3.68511 34.077 3.90335 33.9108 4.18034C33.7446 4.45733 33.6531 4.81826 33.6531 5.24634C33.6531 5.54012 33.7196 5.80032 33.836 6.00177C33.9523 6.20322 34.1186 6.37949 34.318 6.51379C34.5175 6.64809 34.7336 6.75721 34.9829 6.83275C35.2323 6.90829 35.4816 6.98384 35.7393 7.04259C36.3543 7.17689 36.8447 7.3028 37.1938 7.4371C37.5096 7.55461 37.6675 7.73088 37.6675 7.95751C37.6675 8.1002 37.6343 8.21771 37.5678 8.30165C37.5013 8.39398 37.4182 8.46952 37.3184 8.52828C37.2104 8.58703 37.094 8.629 36.9694 8.65418C36.8364 8.67936 36.7117 8.69615 36.5954 8.69615C36.4291 8.69615 36.2712 8.67936 36.1133 8.6374C35.9637 8.59543 35.8307 8.53667 35.7143 8.45273C35.598 8.3688 35.5066 8.26807 35.4401 8.14217C35.3653 8.01626 35.332 7.86517 35.332 7.68891V7.61336L33.4121 7.62176L33.4204 7.70569C33.437 8.15056 33.5368 8.52828 33.7196 8.82206C33.8942 9.10744 34.2349 9.35086 34.5092 9.52713C34.7918 9.7034 35.1159 9.8377 35.4816 9.91324C35.839 9.98878 36.213 10.0308 36.5787 10.0308C36.9444 10.0308 37.3101 9.99718 37.6592 9.92163C38.0166 9.84609 38.3407 9.72018 38.615 9.54392C38.8976 9.36765 39.122 9.12423 39.3049 8.82206C39.4794 8.51988 39.5708 8.15056 39.5708 7.71409C39.5957 7.4287 39.5293 7.1601 39.4129 6.94187Z" fill="#E7328A"/>
<path d="M18.9837 10.1487C18.5016 10.1487 18.0445 10.0647 17.6372 9.89684C17.23 9.72897 16.8809 9.49394 16.5983 9.20016C16.3074 8.90638 16.083 8.54546 15.9251 8.13416C15.7672 7.72287 15.6841 7.26961 15.6841 6.77438C15.6841 6.27076 15.7589 5.79232 15.9002 5.35585C16.0498 4.91937 16.2659 4.53326 16.5484 4.2143C16.831 3.89534 17.1884 3.64353 17.604 3.46726C18.0112 3.29099 18.4933 3.19866 19.0169 3.19866C19.3992 3.19866 19.7732 3.24903 20.1306 3.34975C20.488 3.45047 20.8122 3.60996 21.0947 3.8114C21.3773 4.02125 21.6184 4.28985 21.7929 4.60041C21.9674 4.91098 22.0755 5.2887 22.1004 5.71678V5.80071H20.2304L20.2221 5.73356C20.114 5.04528 19.7151 4.70953 19.0086 4.70953C18.7509 4.70953 18.5265 4.76829 18.352 4.8858C18.1692 5.0117 18.0279 5.16279 17.9115 5.35585C17.7951 5.5489 17.712 5.76714 17.6705 6.00216C17.6206 6.24558 17.5957 6.489 17.5957 6.71563C17.5957 6.93386 17.6206 7.16889 17.6705 7.4123C17.7203 7.64733 17.7951 7.85717 17.9032 8.04183C18.0112 8.22649 18.1442 8.37758 18.3271 8.49509C18.5016 8.6126 18.7177 8.67136 18.9754 8.67136C19.3743 8.67136 19.6735 8.56224 19.8896 8.34401C20.1057 8.11738 20.2387 7.8236 20.2969 7.43749L20.3052 7.37034H22.1586L22.1503 7.46267C22.0339 8.33561 21.6932 9.00711 21.1363 9.46876C20.5628 9.91363 19.848 10.1487 18.9837 10.1487Z" fill="#F9BA16"/>
<path fill-rule="evenodd" clip-rule="evenodd" d="M12.9576 12.5905C13.0241 12.5905 13.0823 12.5988 13.1404 12.6072C13.1903 12.6156 13.2402 12.6408 13.2817 12.666C13.3233 12.6912 13.3482 12.7248 13.3732 12.7751C13.3981 12.8171 13.4064 12.8758 13.4064 12.943C13.4064 13.0101 13.3898 13.0689 13.3565 13.1193C13.3233 13.1696 13.2817 13.2032 13.2152 13.2368C13.2984 13.262 13.3648 13.3039 13.4064 13.3627C13.448 13.4214 13.4729 13.497 13.4729 13.5893C13.4729 13.6565 13.4563 13.7236 13.4313 13.774C13.4064 13.8243 13.3648 13.8663 13.3233 13.8999C13.2734 13.9334 13.2236 13.9586 13.1654 13.9754C13.1072 13.9922 13.049 14.0006 12.9825 14.0006H12.3093V12.5988H12.9576V12.5905ZM12.9163 13.1529C12.9745 13.1529 13.016 13.1361 13.0493 13.1109C13.0825 13.0858 13.0991 13.0438 13.0991 12.985C13.0991 12.9515 13.0908 12.9263 13.0825 12.9011C13.077 12.8955 13.0723 12.8899 13.0677 12.8843L13.0677 12.8843C13.0585 12.8731 13.0493 12.8619 13.0326 12.8507C13.016 12.8423 12.9911 12.834 12.9661 12.8256C12.9412 12.8172 12.9163 12.8172 12.883 12.8172H12.6088V13.1445H12.9163V13.1529ZM12.9745 13.7446C12.9599 13.7467 12.9454 13.7488 12.9329 13.7488V13.7404H12.6088V13.3543H12.9412C13.0077 13.3543 13.0576 13.371 13.0991 13.4046C13.1407 13.4382 13.1573 13.4886 13.1573 13.5557C13.1573 13.5977 13.149 13.6229 13.1407 13.648C13.1241 13.6732 13.1074 13.69 13.0908 13.7068C13.0659 13.7236 13.0409 13.732 13.016 13.7404C13.0035 13.7404 12.989 13.7425 12.9745 13.7446Z" fill="#717070"/>
<path d="M13.5227 12.5905H13.8634L14.1876 13.1444L14.5117 12.5905H14.8442L14.3289 13.455V13.9922H14.0297V13.4466L13.5227 12.5905Z" fill="#717070"/>
<path d="M23.031 13.6651C22.7734 13.6651 22.6653 13.5056 22.7484 13.195C22.8315 12.876 23.031 12.6998 23.297 12.6998C23.4632 12.6998 23.538 12.7753 23.5297 12.9348H24.0616H24.0699C24.0949 12.8257 24.0949 12.7334 24.0616 12.6662C23.9868 12.4815 23.7624 12.3892 23.3801 12.3892C22.7567 12.3892 22.3412 12.6914 22.1916 13.2202C22.1916 13.237 22.1833 13.2538 22.1833 13.2622C22.15 13.3965 22.15 13.4972 22.1833 13.6063C22.2498 13.8497 22.4991 13.9924 22.898 13.9924C23.4881 13.9924 23.8289 13.8077 23.9868 13.3965H23.4383C23.3718 13.5727 23.2222 13.6651 23.031 13.6651Z" fill="#16467B"/>
<path d="M24.061 13.8917L24.0277 13.984H24.061H24.5846L25.0085 12.3724H24.4599L24.061 13.8917Z" fill="#16467B"/>
<path d="M22.2094 12.3724H22.1928H21.6608L21.2619 13.8917L21.237 13.984H21.2619H21.7855L22.1928 12.448L22.2094 12.3724Z" fill="#16467B"/>
<path d="M20.231 13.6651C19.965 13.6651 19.8653 13.5056 19.9484 13.195C20.0232 12.876 20.231 12.6998 20.4886 12.6998C20.6548 12.6998 20.738 12.7753 20.7297 12.9348H21.2616H21.2699C21.2948 12.8257 21.2865 12.7334 21.2616 12.6662C21.1868 12.4815 20.9541 12.3892 20.58 12.3892C19.9567 12.3892 19.5411 12.6914 19.3998 13.2202C19.3998 13.237 19.3915 13.2538 19.3915 13.2622C19.3583 13.3881 19.3583 13.4972 19.3915 13.6063C19.458 13.8497 19.7074 13.9924 20.1146 13.9924C20.7047 13.9924 21.0455 13.8077 21.1951 13.3965H20.6465C20.5717 13.5727 20.4221 13.6651 20.231 13.6651Z" fill="#16467B"/>
<path d="M19.4068 12.3724H19.3902H18.8666L18.4344 13.984H18.9746L19.3902 12.448L19.4068 12.3724Z" fill="#16467B"/>
<path d="M29.6213 12.8435C29.4136 12.8435 29.2473 12.919 29.0977 13.0701L29.131 12.8771H28.8151C28.7736 13.0533 28.7653 13.1624 28.7486 13.2044L28.5409 14.0018H28.865L29.0229 13.431C29.0728 13.2212 29.2639 13.0785 29.4551 13.0785C29.6546 13.0785 29.7211 13.1876 29.6546 13.4143L29.505 14.0018H29.8291L30.012 13.3135C30.0951 13.0114 29.9455 12.8435 29.6213 12.8435Z" fill="#16467B"/>
<path fill-rule="evenodd" clip-rule="evenodd" d="M26.7378 13.1279C26.9372 13.0859 27.0785 13.002 27.145 12.8509C27.1473 12.8439 27.1502 12.8364 27.1532 12.8285L27.1532 12.8285L27.1532 12.8285C27.1612 12.8079 27.17 12.7852 27.17 12.7669C27.2032 12.6578 27.1866 12.5739 27.145 12.5067C27.1385 12.5001 27.1326 12.4936 27.1269 12.4873C27.1108 12.4695 27.0969 12.4542 27.0785 12.448C26.9954 12.3892 26.8458 12.3892 26.6546 12.3892H26.4136H25.8484L25.4246 13.9924H26.2391C26.3056 13.9924 26.3638 13.9924 26.4136 13.984C26.5549 13.9756 26.6879 13.942 26.8043 13.8581C26.9206 13.7826 27.0037 13.6651 27.037 13.5308C27.0868 13.3125 26.9954 13.1614 26.7378 13.1279ZM26.1235 12.6238H26.4144H26.456C26.7136 12.6238 26.83 12.6574 26.7884 12.8169C26.7469 12.9679 26.6305 13.0099 26.4061 13.0183H26.3396H26.0072L26.1235 12.6238ZM26.4135 13.7245C26.5381 13.691 26.6213 13.6322 26.6545 13.5063C26.6961 13.3384 26.6129 13.2797 26.4135 13.2713H26.3137H25.9563L25.8317 13.7413H26.2306C26.2971 13.7413 26.3553 13.7329 26.4135 13.7245L26.4135 13.7245Z" fill="#16467B"/>
<path d="M31.6412 12.8672H31.2339L30.6189 13.3204L30.8682 12.3803H30.5524L30.1202 13.9919H30.4444L30.6106 13.3876L31.0345 13.9919H31.475L30.9929 13.3456L31.6412 12.8672Z" fill="#16467B"/>
<path fill-rule="evenodd" clip-rule="evenodd" d="M27.7515 12.8687C27.8263 12.8519 27.9011 12.8435 27.9925 12.8435C28.3582 12.8435 28.5078 12.9946 28.4247 13.2884L28.3 13.7332L28.3 13.7332C28.2834 13.8172 28.2668 13.9011 28.2585 13.9766H27.926L27.9592 13.8255C27.8928 13.8927 27.818 13.9263 27.7431 13.9598C27.66 13.9934 27.5686 14.0102 27.4772 14.0102C27.3193 14.0102 27.2029 13.9682 27.1447 13.8927C27.0949 13.8339 27.0782 13.75 27.1032 13.6493C27.1115 13.6367 27.1177 13.622 27.124 13.6073C27.1302 13.5926 27.1364 13.5779 27.1447 13.5653C27.2278 13.3807 27.4273 13.3051 27.7515 13.2884C27.8096 13.28 27.8761 13.28 27.9343 13.28H28.1088V13.2632C28.1587 13.1037 28.0922 13.0281 27.926 13.0281C27.8595 13.0281 27.8013 13.0365 27.7515 13.0617C27.7099 13.0953 27.6767 13.1373 27.6517 13.1792H27.3276C27.3858 13.0198 27.5271 12.9106 27.7515 12.8687ZM27.7424 13.808C27.892 13.766 28.0083 13.6569 28.0499 13.489L28.0582 13.4806H27.8421H27.7424C27.5678 13.4974 27.4681 13.5394 27.4349 13.6653C27.4016 13.7744 27.4681 13.8248 27.6177 13.8248C27.6676 13.8248 27.7008 13.8248 27.7424 13.808Z" fill="#16467B"/>
<path fill-rule="evenodd" clip-rule="evenodd" d="M16.3323 11.4833C17.0554 10.753 17.9364 10.5684 18.3021 11.0636C18.6512 11.5672 18.3437 12.5661 17.6123 13.2963C16.8892 14.0266 15.9999 14.2196 15.6425 13.7244C15.2934 13.2208 15.6009 12.2135 16.3323 11.4833Z" fill="#EE7E22"/>
<path fill-rule="evenodd" clip-rule="evenodd" d="M16.8135 11.0964C16.7304 11.1551 16.6556 11.2307 16.5725 11.3062C15.9408 11.9357 15.6666 12.8171 15.9824 13.2535C16.3149 13.69 17.0961 13.5305 17.7444 12.8926C18.0935 12.5485 18.3262 12.1456 18.4259 11.7762C18.4592 11.4993 18.4176 11.2558 18.293 11.0712C18.0104 10.6767 17.412 10.7102 16.8135 11.0964Z" fill="#AD2424"/>
<path fill-rule="evenodd" clip-rule="evenodd" d="M17.6935 11.0708C17.7766 11.1548 17.7268 11.3478 17.5772 11.4905C17.4276 11.6332 17.2364 11.6836 17.1533 11.5996C17.0702 11.5157 17.1117 11.331 17.2613 11.1715C17.4109 11.0289 17.6021 10.9869 17.6935 11.0708ZM17.1699 13.6566C16.8374 13.9168 16.4717 14.0427 16.1309 13.9924C16.2805 14.0008 16.3886 13.8413 16.4883 13.6231C16.5881 13.3964 16.6379 13.1866 16.6961 12.9935C16.7543 12.6914 16.7626 12.4731 16.7294 12.4228C16.6795 12.3472 16.5465 12.3724 16.3969 12.4563C16.3221 12.4983 16.2307 12.4731 16.3387 12.3304C16.4551 12.1877 16.9039 11.852 17.0701 11.7932C17.2447 11.7429 17.4524 11.8184 17.3859 12.0199C17.3278 12.1626 16.7044 13.8245 17.1699 13.6566Z" fill="white"/>
</svg>
