<svg width="8" height="11" viewBox="0 0 8 11" fill="none" xmlns="http://www.w3.org/2000/svg">
<path d="M7.23041 3.1052C7.10704 1.4535 5.66423 0.122041 3.8743 0.00819281C2.85964 -0.056108 1.89132 0.259715 1.15017 0.898226C0.419183 1.5279 0 2.41801 0 3.34039C0 3.77614 0.382847 4.12936 0.854952 4.12936C1.32706 4.12936 1.7099 3.77614 1.7099 3.34039C1.7099 2.84658 1.92552 2.3889 2.31692 2.05177C2.70797 1.71496 3.21906 1.54826 3.75683 1.5825C4.69967 1.64246 5.45963 2.34377 5.52461 3.21376C5.59027 4.09244 4.96556 4.86894 4.0393 5.06018C3.28883 5.21514 2.76474 5.81696 2.76474 6.52364V8.41913C2.76474 8.85488 3.14759 9.2081 3.61969 9.2081C4.09188 9.2081 4.47465 8.85488 4.47456 8.41913V6.58668C6.19729 6.20261 7.3531 4.74791 7.23041 3.1052Z" fill="white"/>
<path d="M4.22497 9.65342C4.06595 9.50667 3.84537 9.42225 3.62052 9.42225C3.39567 9.42225 3.1751 9.50667 3.01608 9.65342C2.85706 9.80017 2.76558 10.0037 2.76558 10.2112C2.76558 10.4195 2.85714 10.6231 3.01608 10.7698C3.1751 10.9166 3.39567 11.0002 3.62052 11.0002C3.84537 11.0002 4.06595 10.9166 4.22497 10.7698C4.38399 10.6223 4.47547 10.4195 4.47547 10.2112C4.47547 10.0037 4.38391 9.80017 4.22497 9.65342Z" fill="white"/>
</svg>
