<svg width="21" height="20" viewBox="0 0 21 20" fill="none" xmlns="http://www.w3.org/2000/svg">
<mask id="path-1-outside-1_10784_20168" maskUnits="userSpaceOnUse" x="-0.823313" y="-0.823313" width="22.6466" height="21.6172" fill="black">
<rect fill="white" x="-0.823313" y="-0.823313" width="22.6466" height="21.6172"/>
<path d="M19.3902 5.73389H17.6028C17.9951 5.5067 18.33 5.19234 18.5815 4.8151C18.833 4.43786 18.9943 4.00785 19.0531 3.5583C19.1119 3.10876 19.0666 2.65171 18.9206 2.22249C18.7745 1.79327 18.5318 1.40336 18.2111 1.08291C17.9353 0.805061 17.6073 0.584536 17.2459 0.434047C16.8846 0.283557 16.497 0.206079 16.1055 0.206079C15.714 0.206079 15.3265 0.283557 14.9651 0.434047C14.6037 0.584536 14.2757 0.805061 13.9999 1.08291L11.1925 3.89034C11.1185 3.87509 11.0434 3.86571 10.9679 3.86227H10.0321C9.94891 3.86287 9.86593 3.8707 9.7841 3.88567L6.97667 1.07823C6.53333 0.635507 5.96101 0.344777 5.34201 0.247846C4.72301 0.150915 4.08921 0.252778 3.53176 0.538786C2.9743 0.824795 2.5219 1.28021 2.23961 1.83956C1.95732 2.39891 1.85968 3.03337 1.96073 3.65171C2.0287 4.08428 2.1931 4.49602 2.44176 4.85644C2.69041 5.21687 3.01695 5.51675 3.39719 5.73389H1.6098C1.23751 5.73389 0.880466 5.88178 0.617219 6.14503C0.353971 6.40828 0.206079 6.76532 0.206079 7.13761V9.00923C0.206893 9.29884 0.297264 9.5811 0.464802 9.81733C0.632341 10.0536 0.868844 10.2322 1.14189 10.3287V18.3673C1.14189 18.7396 1.28978 19.0967 1.55303 19.3599C1.81628 19.6232 2.17332 19.7711 2.54561 19.7711H18.4544C18.8267 19.7711 19.1837 19.6232 19.447 19.3599C19.7102 19.0967 19.8581 18.7396 19.8581 18.3673V10.3287C20.1312 10.2322 20.3677 10.0536 20.5352 9.81733C20.7027 9.5811 20.7931 9.29884 20.7939 9.00923V7.13761C20.7939 6.76532 20.646 6.40828 20.3828 6.14503C20.1195 5.88178 19.7625 5.73389 19.3902 5.73389ZM14.6831 1.74734C15.063 1.36789 15.5779 1.15476 16.1149 1.15476C16.6518 1.15476 17.1668 1.36789 17.5467 1.74734C17.7743 1.9737 17.9447 2.25102 18.0439 2.55634C18.143 2.86167 18.168 3.18621 18.1168 3.50312C18.0656 3.82003 17.9396 4.12018 17.7493 4.37872C17.5591 4.63727 17.3099 4.84679 17.0226 4.98992L15.5347 5.73389H12.2874C12.371 5.50756 12.393 5.26309 12.351 5.02548C12.3091 4.78788 12.2048 4.56569 12.0488 4.38164L14.6831 1.74734ZM11.9037 9.47713H9.09628V6.6697H11.9037V9.47713ZM10.9679 4.79808C11.092 4.79808 11.211 4.84738 11.2988 4.93513C11.3865 5.02288 11.4358 5.14189 11.4358 5.26599C11.4358 5.39008 11.3865 5.5091 11.2988 5.59685C11.211 5.68459 11.092 5.73389 10.9679 5.73389H10.0321C9.908 5.73389 9.78898 5.68459 9.70123 5.59685C9.61349 5.5091 9.56419 5.39008 9.56419 5.26599C9.56419 5.14189 9.61349 5.02288 9.70123 4.93513C9.78898 4.84738 9.908 4.79808 10.0321 4.79808H10.9679ZM3.9774 4.98992C3.71438 4.85889 3.48301 4.67222 3.29934 4.44285C3.11567 4.21348 2.98409 3.9469 2.91373 3.6616C2.84337 3.3763 2.83591 3.07911 2.89187 2.79064C2.94783 2.50217 3.06587 2.22932 3.2378 1.99102C3.40973 1.75272 3.63144 1.55468 3.88755 1.41062C4.14366 1.26656 4.42805 1.17993 4.72098 1.15675C5.01391 1.13357 5.30838 1.17438 5.58396 1.27636C5.85955 1.37834 6.10965 1.53905 6.31693 1.74734L8.95123 4.38164C8.79522 4.56569 8.6909 4.78788 8.64897 5.02548C8.60704 5.26309 8.629 5.50756 8.7126 5.73389H5.46534L3.9774 4.98992ZM1.14189 7.13761C1.14189 7.01351 1.19119 6.8945 1.27894 6.80675C1.36669 6.719 1.4857 6.6697 1.6098 6.6697H8.16047V9.47713H1.6098C1.4857 9.47713 1.36669 9.42784 1.27894 9.34009C1.19119 9.25234 1.14189 9.13333 1.14189 9.00923V7.13761ZM2.0777 18.3673V10.4129H8.62838V18.8352H2.54561C2.42151 18.8352 2.3025 18.7859 2.21475 18.6982C2.127 18.6104 2.0777 18.4914 2.0777 18.3673ZM9.56419 18.8352V10.4129H11.4358V18.8352H9.56419ZM18.9223 18.3673C18.9223 18.4914 18.873 18.6104 18.7853 18.6982C18.6975 18.7859 18.5785 18.8352 18.4544 18.8352H12.3716V10.4129H18.9223V18.3673ZM19.8581 9.00923C19.8581 9.13333 19.8088 9.25234 19.7211 9.34009C19.6333 9.42784 19.5143 9.47713 19.3902 9.47713H12.8395V6.6697H19.3902C19.5143 6.6697 19.6333 6.719 19.7211 6.80675C19.8088 6.8945 19.8581 7.01351 19.8581 7.13761V9.00923Z"/>
</mask>
<path d="M19.3902 5.73389H17.6028C17.9951 5.5067 18.33 5.19234 18.5815 4.8151C18.833 4.43786 18.9943 4.00785 19.0531 3.5583C19.1119 3.10876 19.0666 2.65171 18.9206 2.22249C18.7745 1.79327 18.5318 1.40336 18.2111 1.08291C17.9353 0.805061 17.6073 0.584536 17.2459 0.434047C16.8846 0.283557 16.497 0.206079 16.1055 0.206079C15.714 0.206079 15.3265 0.283557 14.9651 0.434047C14.6037 0.584536 14.2757 0.805061 13.9999 1.08291L11.1925 3.89034C11.1185 3.87509 11.0434 3.86571 10.9679 3.86227H10.0321C9.94891 3.86287 9.86593 3.8707 9.7841 3.88567L6.97667 1.07823C6.53333 0.635507 5.96101 0.344777 5.34201 0.247846C4.72301 0.150915 4.08921 0.252778 3.53176 0.538786C2.9743 0.824795 2.5219 1.28021 2.23961 1.83956C1.95732 2.39891 1.85968 3.03337 1.96073 3.65171C2.0287 4.08428 2.1931 4.49602 2.44176 4.85644C2.69041 5.21687 3.01695 5.51675 3.39719 5.73389H1.6098C1.23751 5.73389 0.880466 5.88178 0.617219 6.14503C0.353971 6.40828 0.206079 6.76532 0.206079 7.13761V9.00923C0.206893 9.29884 0.297264 9.5811 0.464802 9.81733C0.632341 10.0536 0.868844 10.2322 1.14189 10.3287V18.3673C1.14189 18.7396 1.28978 19.0967 1.55303 19.3599C1.81628 19.6232 2.17332 19.7711 2.54561 19.7711H18.4544C18.8267 19.7711 19.1837 19.6232 19.447 19.3599C19.7102 19.0967 19.8581 18.7396 19.8581 18.3673V10.3287C20.1312 10.2322 20.3677 10.0536 20.5352 9.81733C20.7027 9.5811 20.7931 9.29884 20.7939 9.00923V7.13761C20.7939 6.76532 20.646 6.40828 20.3828 6.14503C20.1195 5.88178 19.7625 5.73389 19.3902 5.73389ZM14.6831 1.74734C15.063 1.36789 15.5779 1.15476 16.1149 1.15476C16.6518 1.15476 17.1668 1.36789 17.5467 1.74734C17.7743 1.9737 17.9447 2.25102 18.0439 2.55634C18.143 2.86167 18.168 3.18621 18.1168 3.50312C18.0656 3.82003 17.9396 4.12018 17.7493 4.37872C17.5591 4.63727 17.3099 4.84679 17.0226 4.98992L15.5347 5.73389H12.2874C12.371 5.50756 12.393 5.26309 12.351 5.02548C12.3091 4.78788 12.2048 4.56569 12.0488 4.38164L14.6831 1.74734ZM11.9037 9.47713H9.09628V6.6697H11.9037V9.47713ZM10.9679 4.79808C11.092 4.79808 11.211 4.84738 11.2988 4.93513C11.3865 5.02288 11.4358 5.14189 11.4358 5.26599C11.4358 5.39008 11.3865 5.5091 11.2988 5.59685C11.211 5.68459 11.092 5.73389 10.9679 5.73389H10.0321C9.908 5.73389 9.78898 5.68459 9.70123 5.59685C9.61349 5.5091 9.56419 5.39008 9.56419 5.26599C9.56419 5.14189 9.61349 5.02288 9.70123 4.93513C9.78898 4.84738 9.908 4.79808 10.0321 4.79808H10.9679ZM3.9774 4.98992C3.71438 4.85889 3.48301 4.67222 3.29934 4.44285C3.11567 4.21348 2.98409 3.9469 2.91373 3.6616C2.84337 3.3763 2.83591 3.07911 2.89187 2.79064C2.94783 2.50217 3.06587 2.22932 3.2378 1.99102C3.40973 1.75272 3.63144 1.55468 3.88755 1.41062C4.14366 1.26656 4.42805 1.17993 4.72098 1.15675C5.01391 1.13357 5.30838 1.17438 5.58396 1.27636C5.85955 1.37834 6.10965 1.53905 6.31693 1.74734L8.95123 4.38164C8.79522 4.56569 8.6909 4.78788 8.64897 5.02548C8.60704 5.26309 8.629 5.50756 8.7126 5.73389H5.46534L3.9774 4.98992ZM1.14189 7.13761C1.14189 7.01351 1.19119 6.8945 1.27894 6.80675C1.36669 6.719 1.4857 6.6697 1.6098 6.6697H8.16047V9.47713H1.6098C1.4857 9.47713 1.36669 9.42784 1.27894 9.34009C1.19119 9.25234 1.14189 9.13333 1.14189 9.00923V7.13761ZM2.0777 18.3673V10.4129H8.62838V18.8352H2.54561C2.42151 18.8352 2.3025 18.7859 2.21475 18.6982C2.127 18.6104 2.0777 18.4914 2.0777 18.3673ZM9.56419 18.8352V10.4129H11.4358V18.8352H9.56419ZM18.9223 18.3673C18.9223 18.4914 18.873 18.6104 18.7853 18.6982C18.6975 18.7859 18.5785 18.8352 18.4544 18.8352H12.3716V10.4129H18.9223V18.3673ZM19.8581 9.00923C19.8581 9.13333 19.8088 9.25234 19.7211 9.34009C19.6333 9.42784 19.5143 9.47713 19.3902 9.47713H12.8395V6.6697H19.3902C19.5143 6.6697 19.6333 6.719 19.7211 6.80675C19.8088 6.8945 19.8581 7.01351 19.8581 7.13761V9.00923Z" fill="#20446C"/>
<path d="M19.3902 5.73389H17.6028C17.9951 5.5067 18.33 5.19234 18.5815 4.8151C18.833 4.43786 18.9943 4.00785 19.0531 3.5583C19.1119 3.10876 19.0666 2.65171 18.9206 2.22249C18.7745 1.79327 18.5318 1.40336 18.2111 1.08291C17.9353 0.805061 17.6073 0.584536 17.2459 0.434047C16.8846 0.283557 16.497 0.206079 16.1055 0.206079C15.714 0.206079 15.3265 0.283557 14.9651 0.434047C14.6037 0.584536 14.2757 0.805061 13.9999 1.08291L11.1925 3.89034C11.1185 3.87509 11.0434 3.86571 10.9679 3.86227H10.0321C9.94891 3.86287 9.86593 3.8707 9.7841 3.88567L6.97667 1.07823C6.53333 0.635507 5.96101 0.344777 5.34201 0.247846C4.72301 0.150915 4.08921 0.252778 3.53176 0.538786C2.9743 0.824795 2.5219 1.28021 2.23961 1.83956C1.95732 2.39891 1.85968 3.03337 1.96073 3.65171C2.0287 4.08428 2.1931 4.49602 2.44176 4.85644C2.69041 5.21687 3.01695 5.51675 3.39719 5.73389H1.6098C1.23751 5.73389 0.880466 5.88178 0.617219 6.14503C0.353971 6.40828 0.206079 6.76532 0.206079 7.13761V9.00923C0.206893 9.29884 0.297264 9.5811 0.464802 9.81733C0.632341 10.0536 0.868844 10.2322 1.14189 10.3287V18.3673C1.14189 18.7396 1.28978 19.0967 1.55303 19.3599C1.81628 19.6232 2.17332 19.7711 2.54561 19.7711H18.4544C18.8267 19.7711 19.1837 19.6232 19.447 19.3599C19.7102 19.0967 19.8581 18.7396 19.8581 18.3673V10.3287C20.1312 10.2322 20.3677 10.0536 20.5352 9.81733C20.7027 9.5811 20.7931 9.29884 20.7939 9.00923V7.13761C20.7939 6.76532 20.646 6.40828 20.3828 6.14503C20.1195 5.88178 19.7625 5.73389 19.3902 5.73389ZM14.6831 1.74734C15.063 1.36789 15.5779 1.15476 16.1149 1.15476C16.6518 1.15476 17.1668 1.36789 17.5467 1.74734C17.7743 1.9737 17.9447 2.25102 18.0439 2.55634C18.143 2.86167 18.168 3.18621 18.1168 3.50312C18.0656 3.82003 17.9396 4.12018 17.7493 4.37872C17.5591 4.63727 17.3099 4.84679 17.0226 4.98992L15.5347 5.73389H12.2874C12.371 5.50756 12.393 5.26309 12.351 5.02548C12.3091 4.78788 12.2048 4.56569 12.0488 4.38164L14.6831 1.74734ZM11.9037 9.47713H9.09628V6.6697H11.9037V9.47713ZM10.9679 4.79808C11.092 4.79808 11.211 4.84738 11.2988 4.93513C11.3865 5.02288 11.4358 5.14189 11.4358 5.26599C11.4358 5.39008 11.3865 5.5091 11.2988 5.59685C11.211 5.68459 11.092 5.73389 10.9679 5.73389H10.0321C9.908 5.73389 9.78898 5.68459 9.70123 5.59685C9.61349 5.5091 9.56419 5.39008 9.56419 5.26599C9.56419 5.14189 9.61349 5.02288 9.70123 4.93513C9.78898 4.84738 9.908 4.79808 10.0321 4.79808H10.9679ZM3.9774 4.98992C3.71438 4.85889 3.48301 4.67222 3.29934 4.44285C3.11567 4.21348 2.98409 3.9469 2.91373 3.6616C2.84337 3.3763 2.83591 3.07911 2.89187 2.79064C2.94783 2.50217 3.06587 2.22932 3.2378 1.99102C3.40973 1.75272 3.63144 1.55468 3.88755 1.41062C4.14366 1.26656 4.42805 1.17993 4.72098 1.15675C5.01391 1.13357 5.30838 1.17438 5.58396 1.27636C5.85955 1.37834 6.10965 1.53905 6.31693 1.74734L8.95123 4.38164C8.79522 4.56569 8.6909 4.78788 8.64897 5.02548C8.60704 5.26309 8.629 5.50756 8.7126 5.73389H5.46534L3.9774 4.98992ZM1.14189 7.13761C1.14189 7.01351 1.19119 6.8945 1.27894 6.80675C1.36669 6.719 1.4857 6.6697 1.6098 6.6697H8.16047V9.47713H1.6098C1.4857 9.47713 1.36669 9.42784 1.27894 9.34009C1.19119 9.25234 1.14189 9.13333 1.14189 9.00923V7.13761ZM2.0777 18.3673V10.4129H8.62838V18.8352H2.54561C2.42151 18.8352 2.3025 18.7859 2.21475 18.6982C2.127 18.6104 2.0777 18.4914 2.0777 18.3673ZM9.56419 18.8352V10.4129H11.4358V18.8352H9.56419ZM18.9223 18.3673C18.9223 18.4914 18.873 18.6104 18.7853 18.6982C18.6975 18.7859 18.5785 18.8352 18.4544 18.8352H12.3716V10.4129H18.9223V18.3673ZM19.8581 9.00923C19.8581 9.13333 19.8088 9.25234 19.7211 9.34009C19.6333 9.42784 19.5143 9.47713 19.3902 9.47713H12.8395V6.6697H19.3902C19.5143 6.6697 19.6333 6.719 19.7211 6.80675C19.8088 6.8945 19.8581 7.01351 19.8581 7.13761V9.00923Z" stroke="#20446C" stroke-width="0.4" mask="url(#path-1-outside-1_10784_20168)"/>
<mask id="mask0_10784_20168" style="mask-type:alpha" maskUnits="userSpaceOnUse" x="0" y="0" width="21" height="20">
<mask id="path-2-outside-2_10784_20168" maskUnits="userSpaceOnUse" x="-0.823313" y="-0.823313" width="22.6466" height="21.6172" fill="black">
<rect fill="white" x="-0.823313" y="-0.823313" width="22.6466" height="21.6172"/>
<path d="M19.3902 5.73389H17.6028C17.9951 5.5067 18.33 5.19234 18.5815 4.8151C18.833 4.43786 18.9943 4.00785 19.0531 3.5583C19.1119 3.10876 19.0666 2.65171 18.9206 2.22249C18.7745 1.79327 18.5318 1.40336 18.2111 1.08291C17.9353 0.805061 17.6073 0.584536 17.2459 0.434047C16.8846 0.283557 16.497 0.206079 16.1055 0.206079C15.714 0.206079 15.3265 0.283557 14.9651 0.434047C14.6037 0.584536 14.2757 0.805061 13.9999 1.08291L11.1925 3.89034C11.1185 3.87509 11.0434 3.86571 10.9679 3.86227H10.0321C9.94891 3.86287 9.86593 3.8707 9.7841 3.88567L6.97667 1.07823C6.53333 0.635507 5.96101 0.344777 5.34201 0.247846C4.72301 0.150915 4.08921 0.252778 3.53176 0.538786C2.9743 0.824795 2.5219 1.28021 2.23961 1.83956C1.95732 2.39891 1.85968 3.03337 1.96073 3.65171C2.0287 4.08428 2.1931 4.49602 2.44176 4.85644C2.69041 5.21687 3.01695 5.51675 3.39719 5.73389H1.6098C1.23751 5.73389 0.880466 5.88178 0.617219 6.14503C0.353971 6.40828 0.206079 6.76532 0.206079 7.13761V9.00923C0.206893 9.29884 0.297264 9.5811 0.464802 9.81733C0.632341 10.0536 0.868844 10.2322 1.14189 10.3287V18.3673C1.14189 18.7396 1.28978 19.0967 1.55303 19.3599C1.81628 19.6232 2.17332 19.7711 2.54561 19.7711H18.4544C18.8267 19.7711 19.1837 19.6232 19.447 19.3599C19.7102 19.0967 19.8581 18.7396 19.8581 18.3673V10.3287C20.1312 10.2322 20.3677 10.0536 20.5352 9.81733C20.7027 9.5811 20.7931 9.29884 20.7939 9.00923V7.13761C20.7939 6.76532 20.646 6.40828 20.3828 6.14503C20.1195 5.88178 19.7625 5.73389 19.3902 5.73389ZM14.6831 1.74734C15.063 1.36789 15.5779 1.15476 16.1149 1.15476C16.6518 1.15476 17.1668 1.36789 17.5467 1.74734C17.7743 1.9737 17.9447 2.25102 18.0439 2.55634C18.143 2.86167 18.168 3.18621 18.1168 3.50312C18.0656 3.82003 17.9396 4.12018 17.7493 4.37872C17.5591 4.63727 17.3099 4.84679 17.0226 4.98992L15.5347 5.73389H12.2874C12.371 5.50756 12.393 5.26309 12.351 5.02548C12.3091 4.78788 12.2048 4.56569 12.0488 4.38164L14.6831 1.74734ZM11.9037 9.47713H9.09628V6.6697H11.9037V9.47713ZM10.9679 4.79808C11.092 4.79808 11.211 4.84738 11.2988 4.93513C11.3865 5.02288 11.4358 5.14189 11.4358 5.26599C11.4358 5.39008 11.3865 5.5091 11.2988 5.59685C11.211 5.68459 11.092 5.73389 10.9679 5.73389H10.0321C9.908 5.73389 9.78898 5.68459 9.70123 5.59685C9.61349 5.5091 9.56419 5.39008 9.56419 5.26599C9.56419 5.14189 9.61349 5.02288 9.70123 4.93513C9.78898 4.84738 9.908 4.79808 10.0321 4.79808H10.9679ZM3.9774 4.98992C3.71438 4.85889 3.48301 4.67222 3.29934 4.44285C3.11567 4.21348 2.98409 3.9469 2.91373 3.6616C2.84337 3.3763 2.83591 3.07911 2.89187 2.79064C2.94783 2.50217 3.06587 2.22932 3.2378 1.99102C3.40973 1.75272 3.63144 1.55468 3.88755 1.41062C4.14366 1.26656 4.42805 1.17993 4.72098 1.15675C5.01391 1.13357 5.30838 1.17438 5.58396 1.27636C5.85955 1.37834 6.10965 1.53905 6.31693 1.74734L8.95123 4.38164C8.79522 4.56569 8.6909 4.78788 8.64897 5.02548C8.60704 5.26309 8.629 5.50756 8.7126 5.73389H5.46534L3.9774 4.98992ZM1.14189 7.13761C1.14189 7.01351 1.19119 6.8945 1.27894 6.80675C1.36669 6.719 1.4857 6.6697 1.6098 6.6697H8.16047V9.47713H1.6098C1.4857 9.47713 1.36669 9.42784 1.27894 9.34009C1.19119 9.25234 1.14189 9.13333 1.14189 9.00923V7.13761ZM2.0777 18.3673V10.4129H8.62838V18.8352H2.54561C2.42151 18.8352 2.3025 18.7859 2.21475 18.6982C2.127 18.6104 2.0777 18.4914 2.0777 18.3673ZM9.56419 18.8352V10.4129H11.4358V18.8352H9.56419ZM18.9223 18.3673C18.9223 18.4914 18.873 18.6104 18.7853 18.6982C18.6975 18.7859 18.5785 18.8352 18.4544 18.8352H12.3716V10.4129H18.9223V18.3673ZM19.8581 9.00923C19.8581 9.13333 19.8088 9.25234 19.7211 9.34009C19.6333 9.42784 19.5143 9.47713 19.3902 9.47713H12.8395V6.6697H19.3902C19.5143 6.6697 19.6333 6.719 19.7211 6.80675C19.8088 6.8945 19.8581 7.01351 19.8581 7.13761V9.00923Z"/>
</mask>
<path d="M19.3902 5.73389H17.6028C17.9951 5.5067 18.33 5.19234 18.5815 4.8151C18.833 4.43786 18.9943 4.00785 19.0531 3.5583C19.1119 3.10876 19.0666 2.65171 18.9206 2.22249C18.7745 1.79327 18.5318 1.40336 18.2111 1.08291C17.9353 0.805061 17.6073 0.584536 17.2459 0.434047C16.8846 0.283557 16.497 0.206079 16.1055 0.206079C15.714 0.206079 15.3265 0.283557 14.9651 0.434047C14.6037 0.584536 14.2757 0.805061 13.9999 1.08291L11.1925 3.89034C11.1185 3.87509 11.0434 3.86571 10.9679 3.86227H10.0321C9.94891 3.86287 9.86593 3.8707 9.7841 3.88567L6.97667 1.07823C6.53333 0.635507 5.96101 0.344777 5.34201 0.247846C4.72301 0.150915 4.08921 0.252778 3.53176 0.538786C2.9743 0.824795 2.5219 1.28021 2.23961 1.83956C1.95732 2.39891 1.85968 3.03337 1.96073 3.65171C2.0287 4.08428 2.1931 4.49602 2.44176 4.85644C2.69041 5.21687 3.01695 5.51675 3.39719 5.73389H1.6098C1.23751 5.73389 0.880466 5.88178 0.617219 6.14503C0.353971 6.40828 0.206079 6.76532 0.206079 7.13761V9.00923C0.206893 9.29884 0.297264 9.5811 0.464802 9.81733C0.632341 10.0536 0.868844 10.2322 1.14189 10.3287V18.3673C1.14189 18.7396 1.28978 19.0967 1.55303 19.3599C1.81628 19.6232 2.17332 19.7711 2.54561 19.7711H18.4544C18.8267 19.7711 19.1837 19.6232 19.447 19.3599C19.7102 19.0967 19.8581 18.7396 19.8581 18.3673V10.3287C20.1312 10.2322 20.3677 10.0536 20.5352 9.81733C20.7027 9.5811 20.7931 9.29884 20.7939 9.00923V7.13761C20.7939 6.76532 20.646 6.40828 20.3828 6.14503C20.1195 5.88178 19.7625 5.73389 19.3902 5.73389ZM14.6831 1.74734C15.063 1.36789 15.5779 1.15476 16.1149 1.15476C16.6518 1.15476 17.1668 1.36789 17.5467 1.74734C17.7743 1.9737 17.9447 2.25102 18.0439 2.55634C18.143 2.86167 18.168 3.18621 18.1168 3.50312C18.0656 3.82003 17.9396 4.12018 17.7493 4.37872C17.5591 4.63727 17.3099 4.84679 17.0226 4.98992L15.5347 5.73389H12.2874C12.371 5.50756 12.393 5.26309 12.351 5.02548C12.3091 4.78788 12.2048 4.56569 12.0488 4.38164L14.6831 1.74734ZM11.9037 9.47713H9.09628V6.6697H11.9037V9.47713ZM10.9679 4.79808C11.092 4.79808 11.211 4.84738 11.2988 4.93513C11.3865 5.02288 11.4358 5.14189 11.4358 5.26599C11.4358 5.39008 11.3865 5.5091 11.2988 5.59685C11.211 5.68459 11.092 5.73389 10.9679 5.73389H10.0321C9.908 5.73389 9.78898 5.68459 9.70123 5.59685C9.61349 5.5091 9.56419 5.39008 9.56419 5.26599C9.56419 5.14189 9.61349 5.02288 9.70123 4.93513C9.78898 4.84738 9.908 4.79808 10.0321 4.79808H10.9679ZM3.9774 4.98992C3.71438 4.85889 3.48301 4.67222 3.29934 4.44285C3.11567 4.21348 2.98409 3.9469 2.91373 3.6616C2.84337 3.3763 2.83591 3.07911 2.89187 2.79064C2.94783 2.50217 3.06587 2.22932 3.2378 1.99102C3.40973 1.75272 3.63144 1.55468 3.88755 1.41062C4.14366 1.26656 4.42805 1.17993 4.72098 1.15675C5.01391 1.13357 5.30838 1.17438 5.58396 1.27636C5.85955 1.37834 6.10965 1.53905 6.31693 1.74734L8.95123 4.38164C8.79522 4.56569 8.6909 4.78788 8.64897 5.02548C8.60704 5.26309 8.629 5.50756 8.7126 5.73389H5.46534L3.9774 4.98992ZM1.14189 7.13761C1.14189 7.01351 1.19119 6.8945 1.27894 6.80675C1.36669 6.719 1.4857 6.6697 1.6098 6.6697H8.16047V9.47713H1.6098C1.4857 9.47713 1.36669 9.42784 1.27894 9.34009C1.19119 9.25234 1.14189 9.13333 1.14189 9.00923V7.13761ZM2.0777 18.3673V10.4129H8.62838V18.8352H2.54561C2.42151 18.8352 2.3025 18.7859 2.21475 18.6982C2.127 18.6104 2.0777 18.4914 2.0777 18.3673ZM9.56419 18.8352V10.4129H11.4358V18.8352H9.56419ZM18.9223 18.3673C18.9223 18.4914 18.873 18.6104 18.7853 18.6982C18.6975 18.7859 18.5785 18.8352 18.4544 18.8352H12.3716V10.4129H18.9223V18.3673ZM19.8581 9.00923C19.8581 9.13333 19.8088 9.25234 19.7211 9.34009C19.6333 9.42784 19.5143 9.47713 19.3902 9.47713H12.8395V6.6697H19.3902C19.5143 6.6697 19.6333 6.719 19.7211 6.80675C19.8088 6.8945 19.8581 7.01351 19.8581 7.13761V9.00923Z" fill="#F0792E"/>
<path d="M19.3902 5.73389H17.6028C17.9951 5.5067 18.33 5.19234 18.5815 4.8151C18.833 4.43786 18.9943 4.00785 19.0531 3.5583C19.1119 3.10876 19.0666 2.65171 18.9206 2.22249C18.7745 1.79327 18.5318 1.40336 18.2111 1.08291C17.9353 0.805061 17.6073 0.584536 17.2459 0.434047C16.8846 0.283557 16.497 0.206079 16.1055 0.206079C15.714 0.206079 15.3265 0.283557 14.9651 0.434047C14.6037 0.584536 14.2757 0.805061 13.9999 1.08291L11.1925 3.89034C11.1185 3.87509 11.0434 3.86571 10.9679 3.86227H10.0321C9.94891 3.86287 9.86593 3.8707 9.7841 3.88567L6.97667 1.07823C6.53333 0.635507 5.96101 0.344777 5.34201 0.247846C4.72301 0.150915 4.08921 0.252778 3.53176 0.538786C2.9743 0.824795 2.5219 1.28021 2.23961 1.83956C1.95732 2.39891 1.85968 3.03337 1.96073 3.65171C2.0287 4.08428 2.1931 4.49602 2.44176 4.85644C2.69041 5.21687 3.01695 5.51675 3.39719 5.73389H1.6098C1.23751 5.73389 0.880466 5.88178 0.617219 6.14503C0.353971 6.40828 0.206079 6.76532 0.206079 7.13761V9.00923C0.206893 9.29884 0.297264 9.5811 0.464802 9.81733C0.632341 10.0536 0.868844 10.2322 1.14189 10.3287V18.3673C1.14189 18.7396 1.28978 19.0967 1.55303 19.3599C1.81628 19.6232 2.17332 19.7711 2.54561 19.7711H18.4544C18.8267 19.7711 19.1837 19.6232 19.447 19.3599C19.7102 19.0967 19.8581 18.7396 19.8581 18.3673V10.3287C20.1312 10.2322 20.3677 10.0536 20.5352 9.81733C20.7027 9.5811 20.7931 9.29884 20.7939 9.00923V7.13761C20.7939 6.76532 20.646 6.40828 20.3828 6.14503C20.1195 5.88178 19.7625 5.73389 19.3902 5.73389ZM14.6831 1.74734C15.063 1.36789 15.5779 1.15476 16.1149 1.15476C16.6518 1.15476 17.1668 1.36789 17.5467 1.74734C17.7743 1.9737 17.9447 2.25102 18.0439 2.55634C18.143 2.86167 18.168 3.18621 18.1168 3.50312C18.0656 3.82003 17.9396 4.12018 17.7493 4.37872C17.5591 4.63727 17.3099 4.84679 17.0226 4.98992L15.5347 5.73389H12.2874C12.371 5.50756 12.393 5.26309 12.351 5.02548C12.3091 4.78788 12.2048 4.56569 12.0488 4.38164L14.6831 1.74734ZM11.9037 9.47713H9.09628V6.6697H11.9037V9.47713ZM10.9679 4.79808C11.092 4.79808 11.211 4.84738 11.2988 4.93513C11.3865 5.02288 11.4358 5.14189 11.4358 5.26599C11.4358 5.39008 11.3865 5.5091 11.2988 5.59685C11.211 5.68459 11.092 5.73389 10.9679 5.73389H10.0321C9.908 5.73389 9.78898 5.68459 9.70123 5.59685C9.61349 5.5091 9.56419 5.39008 9.56419 5.26599C9.56419 5.14189 9.61349 5.02288 9.70123 4.93513C9.78898 4.84738 9.908 4.79808 10.0321 4.79808H10.9679ZM3.9774 4.98992C3.71438 4.85889 3.48301 4.67222 3.29934 4.44285C3.11567 4.21348 2.98409 3.9469 2.91373 3.6616C2.84337 3.3763 2.83591 3.07911 2.89187 2.79064C2.94783 2.50217 3.06587 2.22932 3.2378 1.99102C3.40973 1.75272 3.63144 1.55468 3.88755 1.41062C4.14366 1.26656 4.42805 1.17993 4.72098 1.15675C5.01391 1.13357 5.30838 1.17438 5.58396 1.27636C5.85955 1.37834 6.10965 1.53905 6.31693 1.74734L8.95123 4.38164C8.79522 4.56569 8.6909 4.78788 8.64897 5.02548C8.60704 5.26309 8.629 5.50756 8.7126 5.73389H5.46534L3.9774 4.98992ZM1.14189 7.13761C1.14189 7.01351 1.19119 6.8945 1.27894 6.80675C1.36669 6.719 1.4857 6.6697 1.6098 6.6697H8.16047V9.47713H1.6098C1.4857 9.47713 1.36669 9.42784 1.27894 9.34009C1.19119 9.25234 1.14189 9.13333 1.14189 9.00923V7.13761ZM2.0777 18.3673V10.4129H8.62838V18.8352H2.54561C2.42151 18.8352 2.3025 18.7859 2.21475 18.6982C2.127 18.6104 2.0777 18.4914 2.0777 18.3673ZM9.56419 18.8352V10.4129H11.4358V18.8352H9.56419ZM18.9223 18.3673C18.9223 18.4914 18.873 18.6104 18.7853 18.6982C18.6975 18.7859 18.5785 18.8352 18.4544 18.8352H12.3716V10.4129H18.9223V18.3673ZM19.8581 9.00923C19.8581 9.13333 19.8088 9.25234 19.7211 9.34009C19.6333 9.42784 19.5143 9.47713 19.3902 9.47713H12.8395V6.6697H19.3902C19.5143 6.6697 19.6333 6.719 19.7211 6.80675C19.8088 6.8945 19.8581 7.01351 19.8581 7.13761V9.00923Z" stroke="#F0792E" stroke-width="0.4" mask="url(#path-2-outside-2_10784_20168)"/>
</mask>
<g mask="url(#mask0_10784_20168)">
<rect x="-0.823313" y="-0.823313" width="23.676" height="11.3233" fill="#F0792E"/>
</g>
</svg>
