<svg width="360" height="198" viewBox="0 0 360 198" fill="none" xmlns="http://www.w3.org/2000/svg">
<g clip-path="url(#clip0_834_16597)">
<rect width="360" height="5" fill="url(#paint0_linear_834_16597)"/>
<g opacity="0.12">
<path d="M449.585 114.525C422.566 154.407 360.671 191.467 324.024 155.935C290.048 122.99 325.907 103.999 303.686 65.2702C281.465 26.5415 221.457 48.1001 205.211 3.58843C195.782 -22.2475 208.596 -54.6087 239.686 -72.5636C270.776 -90.5185 320.142 -94.0671 383.815 -62.2775C443.962 -32.2487 464.329 6.15999 467.697 39.9573C471.065 73.7547 457.434 102.941 449.585 114.525Z" stroke="#20446C" stroke-width="0.789203" stroke-miterlimit="10"/>
<path d="M384.126 -57.7542C439.677 -30.1367 458.759 5.20746 462.082 36.4285C465.332 67.4479 453.008 94.3156 445.754 105.268C420.944 142.468 363.604 177.077 328.855 145.164C296.77 115.698 328.321 98.1212 307.455 62.4707C306.858 61.4577 306.234 60.4876 305.585 59.5575C288.017 34.3571 251.915 38.8933 230.413 22.2857C224.576 17.7773 219.786 11.736 216.759 3.15779C208.05 -21.517 220.2 -51.5033 249.2 -67.9579C278.361 -84.4611 324.619 -87.2741 384.126 -57.7542Z" stroke="#20446C" stroke-width="0.789203" stroke-miterlimit="10"/>
<path d="M384.34 -53.2749C434.844 -28.2775 452.461 3.78936 455.682 32.2603C458.758 60.3282 447.842 84.7649 441.192 95.0118C418.857 129.427 366.368 161.384 333.8 133.301C303.888 107.508 331.003 91.3401 311.576 59.0518C311.016 58.1212 310.426 57.2321 309.818 56.376C293.421 33.2392 260.843 36.2179 241.626 20.4079C236.379 16.0909 232.075 10.4234 229.407 2.52006C221.515 -20.8563 232.936 -48.3116 259.643 -63.2054C286.673 -78.1956 329.476 -80.3034 384.34 -53.2749Z" stroke="#20446C" stroke-width="0.789203" stroke-miterlimit="10"/>
<path d="M384.154 -47.8316C429.613 -25.4541 445.837 3.32336 448.885 29.0487C451.859 54.1538 442.262 76.1506 436.236 85.7021C416.313 117.279 368.758 146.62 338.36 122.364C310.635 100.241 333.242 85.5249 315.317 56.5652C314.793 55.7182 314.239 54.9089 313.672 54.1271C298.446 33.0571 269.392 34.4734 252.459 19.4719C247.802 15.3457 243.986 10.0525 241.672 2.82774C234.603 -19.2494 245.284 -44.1625 269.696 -57.4921C294.591 -70.9661 333.938 -72.3677 384.154 -47.8316Z" stroke="#20446C" stroke-width="0.789203" stroke-miterlimit="10"/>
<path d="M384.353 -43.3278C424.807 -23.6552 439.549 1.91566 442.478 24.881C445.3 47.0213 437.075 66.5625 431.676 75.4144C414.162 104.13 371.574 130.84 343.333 110.411C317.815 91.9519 335.893 78.7021 319.478 53.0743C318.989 52.3112 318.473 51.5822 317.947 50.8748C303.891 31.8779 278.363 31.7247 263.708 17.5482C259.64 13.6124 256.317 8.69596 254.351 2.15516C248.11 -18.6172 258.006 -41.0274 280.148 -52.7277C302.873 -64.7362 338.833 -65.4641 384.353 -43.3278Z" stroke="#20446C" stroke-width="0.789203" stroke-miterlimit="10"/>
<path d="M384.122 -39.0188C419.744 -21.876 433.105 0.566124 435.924 20.9096C438.6 40.2174 431.696 57.4215 426.895 65.6313C411.677 91.6558 373.857 115.915 347.603 99.2046C324.186 84.2996 337.8 72.4421 322.828 49.9929C322.372 49.3094 321.89 48.6563 321.402 48.0192C308.45 30.9856 286.316 29.2591 273.863 15.8385C270.364 12.0677 267.523 7.49948 265.892 1.60684C260.465 -17.9919 269.651 -37.9821 289.619 -48.1794C310.324 -58.7536 343.025 -58.7961 384.122 -39.0188Z" stroke="#20446C" stroke-width="0.789203" stroke-miterlimit="10"/>
<path d="M384.852 -34.3199C415.632 -19.709 427.613 -0.418073 430.334 17.2871C432.863 33.7445 427.293 48.5917 423.097 56.1568C410.174 79.4581 377.186 101.236 352.882 88.2761C331.594 76.9244 340.674 66.4957 327.155 47.2355C326.731 46.632 326.283 46.0551 325.834 45.4886C313.98 30.428 295.259 27.0973 285.004 14.45C282.077 10.8404 279.725 6.62295 278.419 1.38538C273.823 -17.0422 282.278 -34.5812 300.062 -43.264C318.745 -52.386 348.179 -51.7289 384.852 -34.3199Z" stroke="#20446C" stroke-width="0.789203" stroke-miterlimit="10"/>
<path d="M385.016 -29.8556C410.743 -17.8574 421.243 -1.79991 423.83 13.2128C426.166 26.768 421.941 39.2195 418.369 46.131C407.763 66.6522 379.306 87.1108 357.593 76.8282C339.061 68.0521 343.059 60.1337 331.121 44.128C330.733 43.6071 330.323 43.1086 329.916 42.6146C319.253 29.5868 304.078 24.6621 296.089 12.852C293.762 9.41143 291.927 5.56036 290.952 0.99751C287.275 -16.2174 294.948 -31.2544 310.454 -38.4302C327.022 -46.0975 353.005 -44.7838 385.016 -29.8556Z" stroke="#20446C" stroke-width="0.789203" stroke-miterlimit="10"/>
<path d="M385.139 -25.4053C405.815 -16.0133 414.845 -3.24965 417.332 9.00951C419.482 19.6112 416.629 29.5995 413.703 35.8255C405.424 53.4419 382.674 70.0076 362.465 64.8563C345.837 60.6177 345.585 53.3136 335.24 40.5921C334.886 40.156 334.515 39.7367 334.149 39.3172C324.668 28.3615 313.066 21.8236 307.301 10.9093C305.576 7.64376 304.257 4.1758 303.592 0.308449C300.855 -15.633 307.67 -28.0719 320.866 -33.6933C335.293 -39.8388 357.789 -37.8292 385.139 -25.4053Z" stroke="#20446C" stroke-width="0.789203" stroke-miterlimit="10"/>
<path d="M384.422 -20.1726C400.207 -13.2965 407.854 -3.80983 410.325 5.69533C412.316 13.3565 410.854 20.8609 408.596 26.3866C402.611 41.0321 385.013 54.67 366.678 53.4951C352.301 52.5738 347.281 47.031 338.456 37.524C338.131 37.1728 337.797 36.8305 337.468 36.4843C329.067 27.5737 320.965 19.4076 317.294 9.40958C316.159 6.31686 315.336 3.23743 314.947 0.0693658C313.145 -14.5826 319.025 -24.3656 329.976 -28.3964C342.342 -32.9477 361.495 -30.1593 384.422 -20.1726Z" stroke="#20446C" stroke-width="0.789203" stroke-miterlimit="10"/>
<path d="M371.722 42.6166C359.003 45.0212 348.931 40.9838 341.644 34.0471C334.356 27.1103 329.853 17.2741 328.272 8.08066C325.026 -10.7827 329.948 -20.4266 340.308 -23.4825C350.668 -26.5384 366.465 -23.0065 384.969 -15.5182C403.474 -8.02991 408.352 4.95533 404.509 16.8428C400.666 28.7304 388.102 39.5201 371.722 42.6166Z" stroke="#20446C" stroke-width="0.789203" stroke-miterlimit="10"/>
</g>
</g>
<defs>
<linearGradient id="paint0_linear_834_16597" x1="-2.33208e-06" y1="1.44578" x2="136.687" y2="201.962" gradientUnits="userSpaceOnUse">
<stop stop-color="#EF8B24"/>
<stop offset="1" stop-color="#F06837"/>
</linearGradient>
<clipPath id="clip0_834_16597">
<rect width="360" height="198" fill="white"/>
</clipPath>
</defs>
</svg>
