<svg width="27" height="26" viewBox="0 0 27 26" fill="none" xmlns="http://www.w3.org/2000/svg">
<path d="M9.19 21H2.75C1.233 21 0 19.767 0 18.25V2.75C0 1.233 1.233 0 2.75 0H14.25C15.767 0 17 1.233 17 2.75V8.84H15.5V2.75C15.5 2.061 14.939 1.5 14.25 1.5H2.75C2.061 1.5 1.5 2.061 1.5 2.75V18.25C1.5 18.939 2.061 19.5 2.75 19.5H9.19V21Z" fill="#20446C"/>
<path d="M3.75 8H13.25V9.5H3.75V8Z" fill="#F0792E"/>
<path d="M3.75 12H9.25V13.5H3.75V12Z" fill="#F0792E"/>
<circle cx="16.5" cy="15.5" r="10.5" fill="white"/>
<path d="M16.4973 10.8335C15.6242 10.8323 14.7683 11.0761 14.0268 11.5371C13.2853 11.9981 12.6881 12.6579 12.3029 13.4414C11.9177 14.2249 11.7601 15.1008 11.8479 15.9695C11.9357 16.8381 12.2654 17.6648 12.7996 18.3554C13.3338 19.046 14.051 19.5729 14.8697 19.8762C15.6884 20.1795 16.5758 20.247 17.431 20.0711C18.2862 19.8953 19.0749 19.483 19.7075 18.8812C20.34 18.2794 20.7911 17.5122 21.0094 16.6668H19.7955C19.5815 17.2719 19.2054 17.8064 18.7082 18.2121C18.2109 18.6178 17.6117 18.8789 16.9761 18.967C16.3404 19.0551 15.6928 18.9668 15.1039 18.7116C14.5151 18.4564 14.0078 18.0443 13.6374 17.5202C13.267 16.9962 13.0479 16.3803 13.0039 15.7401C12.9599 15.0999 13.0927 14.4599 13.3879 13.8901C13.6831 13.3203 14.1293 12.8426 14.6777 12.5093C15.2261 12.176 15.8556 11.9999 16.4973 12.0002C16.9563 12.0008 17.4106 12.093 17.8335 12.2713C18.2565 12.4496 18.6397 12.7104 18.9607 13.0385L17.0835 14.9168H21.1669V10.8335L19.7955 12.2043C19.3633 11.7696 18.8494 11.4246 18.2834 11.1893C17.7173 10.9541 17.1103 10.8331 16.4973 10.8335Z" fill="#F0792E"/>
<path d="M16.5 23.9C11.8685 23.9 8.1 20.1315 8.1 15.5C8.1 10.8685 11.8685 7.1 16.5 7.1C21.1315 7.1 24.9 10.8685 24.9 15.5C24.9 20.1315 21.1315 23.9 16.5 23.9ZM16.5 8.86154C12.8395 8.86154 9.86154 11.8395 9.86154 15.5C9.86154 19.1605 12.8395 22.1385 16.5 22.1385C20.1605 22.1385 23.1385 19.1605 23.1385 15.5C23.1385 11.8395 20.1605 8.86154 16.5 8.86154Z" fill="#20446C" stroke="white" stroke-width="0.2"/>
<path d="M3.75 4H8.25V5.5H3.75V4Z" fill="#F0792E"/>
</svg>
