<svg width="24" height="24" viewBox="0 0 24 24" fill="none" xmlns="http://www.w3.org/2000/svg">
<g clip-path="url(#clip0_2120_11440)">
<path d="M23.25 17.5C22.836 17.5 22.5 17.164 22.5 16.75V2.75C22.5 2.061 21.939 1.5 21.25 1.5H2.75C2.061 1.5 1.5 2.061 1.5 2.75V15.25C1.5 15.664 1.164 16 0.75 16C0.336 16 0 15.664 0 15.25V2.75C0 1.233 1.233 0 2.75 0H21.25C22.767 0 24 1.233 24 2.75V16.75C24 17.164 23.664 17.5 23.25 17.5Z" fill="white"/>
<path d="M23.25 2.5C22.836 2.5 22.5 2.836 22.5 3.25V17.25C22.5 17.939 21.939 18.5 21.25 18.5H2.75C2.061 18.5 1.5 17.939 1.5 17.25V4.75C1.5 4.336 1.164 4 0.75 4C0.336 4 0 4.336 0 4.75V17.25C0 18.767 1.233 20 2.75 20H21.25C22.767 20 24 18.767 24 17.25V3.25C24 2.836 23.664 2.5 23.25 2.5Z" fill="white"/>
<path d="M23.25 5H0.75C0.336 5 0 4.664 0 4.25C0 3.836 0.336 3.5 0.75 3.5H23.25C23.664 3.5 24 3.836 24 4.25C24 4.664 23.664 5 23.25 5Z" fill="white"/>
<rect x="3.27295" y="18.5454" width="17" height="3" fill="#F0792E"/>
<path d="M8.25 21.23C7.836 21.23 7.5 20.894 7.5 20.48V10.25C7.5 9.009 8.51 8 9.75 8C10.99 8 12 9.009 12 10.25V16.25C12 16.664 11.664 17 11.25 17C10.836 17 10.5 16.664 10.5 16.25V10.25C10.5 9.836 10.163 9.5 9.75 9.5C9.337 9.5 9 9.836 9 10.25V20.48C9 20.894 8.664 21.23 8.25 21.23Z" fill="white"/>
<path d="M11.25 19.5C10.836 19.5 10.5 19.164 10.5 18.75V16.25C10.5 15.009 11.51 14 12.75 14C13.99 14 15 15.009 15 16.25V17.25C15 17.664 14.664 18 14.25 18C13.836 18 13.5 17.664 13.5 17.25V16.25C13.5 15.836 13.163 15.5 12.75 15.5C12.337 15.5 12 15.836 12 16.25V18.75C12 19.164 11.664 19.5 11.25 19.5Z" fill="white"/>
<path d="M14.25 20.5C13.836 20.5 13.5 20.164 13.5 19.75V17.25C13.5 16.009 14.51 15 15.75 15C16.99 15 18 16.009 18 17.25V19.25C18 19.664 17.664 20 17.25 20C16.836 20 16.5 19.664 16.5 19.25V17.25C16.5 16.836 16.163 16.5 15.75 16.5C15.337 16.5 15 16.836 15 17.25V19.75C15 20.164 14.664 20.5 14.25 20.5Z" fill="white"/>
<path d="M20.25 24C19.836 24 19.5 23.664 19.5 23.25V19.25C19.5 18.836 19.163 18.5 18.75 18.5C18.337 18.5 18 18.836 18 19.25V20.75C18 21.164 17.664 21.5 17.25 21.5C16.836 21.5 16.5 21.164 16.5 20.75V19.25C16.5 18.009 17.51 17 18.75 17C19.99 17 21 18.009 21 19.25V23.25C21 23.664 20.664 24 20.25 24Z" fill="white"/>
<path d="M5.36 24C5.07 24 4.794 23.831 4.672 23.547C3.963 21.902 3.324 21.309 2.858 20.876C2.436 20.484 2 20.08 2 19.25C2 18.958 2.133 17.5 4.75 17.5C6.588 17.5 7.995 18.877 8.853 20.033C9.1 20.366 9.03 20.835 8.697 21.082C8.366 21.329 7.896 21.258 7.648 20.926C7.114 20.207 6.028 19 4.75 19C3.705 19 3.493 19.288 3.492 19.291C3.5 19.402 3.5 19.425 3.878 19.776C4.41 20.27 5.215 21.017 6.049 22.953C6.213 23.333 6.037 23.775 5.657 23.939C5.561 23.98 5.46 24 5.36 24Z" fill="white"/>
</g>
<defs>
<clipPath id="clip0_2120_11440">
<rect width="24" height="24" fill="white"/>
</clipPath>
</defs>
</svg>
