<svg width="20" height="20" viewBox="0 0 20 20" fill="none" xmlns="http://www.w3.org/2000/svg">
<path d="M10 19.8C4.59661 19.8 0.2 15.4034 0.2 10C0.2 4.59661 4.59661 0.2 10 0.2C15.4034 0.2 19.8 4.59661 19.8 10C19.8 15.4034 15.4034 19.8 10 19.8ZM10 2.10769C5.648 2.10769 2.10769 5.648 2.10769 10C2.10769 14.352 5.648 17.8923 10 17.8923C14.352 17.8923 17.8923 14.352 17.8923 10C17.8923 5.648 14.352 2.10769 10 2.10769Z" fill="#20446C" stroke="white" stroke-width="0.4"/>
<path d="M8.8457 9.64619C8.8457 9.20436 9.20388 8.84619 9.6457 8.84619H10.3534C10.7952 8.84619 11.1534 9.20436 11.1534 9.64619V13.4308C11.1534 13.8726 10.7952 14.2308 10.3534 14.2308H9.6457C9.20388 14.2308 8.8457 13.8726 8.8457 13.4308V9.64619Z" fill="#F0792E"/>
<path d="M9.99955 6.92293C10.6368 6.92293 11.1534 6.40633 11.1534 5.76908C11.1534 5.13183 10.6368 4.61523 9.99955 4.61523C9.3623 4.61523 8.8457 5.13183 8.8457 5.76908C8.8457 6.40633 9.3623 6.92293 9.99955 6.92293Z" fill="#F0792E"/>
</svg>
