<svg width="360" height="24" viewBox="0 0 360 24" fill="none" xmlns="http://www.w3.org/2000/svg">
<g clip-path="url(#clip0_834_25274)" filter="url(#filter0_b_834_25274)">
<rect width="360" height="24" fill="white"/>
<path opacity="0.35" d="M325.322 12.1344C325.322 10.9378 326.292 9.96777 327.489 9.96777H339.759C340.955 9.96777 341.925 10.9378 341.925 12.1344V15.8694C341.925 17.066 340.955 18.0361 339.759 18.0361H327.489C326.292 18.0361 325.322 17.066 325.322 15.8694V12.1344Z" stroke="black"/>
<path opacity="0.4" d="M343.226 12.4019V15.6024C343.869 15.3314 344.288 14.7008 344.288 14.0021C344.288 13.3035 343.869 12.6729 343.226 12.4019Z" fill="black"/>
<path d="M326.423 12.4012C326.423 11.6648 327.02 11.0679 327.756 11.0679H339.492C340.228 11.0679 340.825 11.6648 340.825 12.4012V15.6023C340.825 16.3386 340.228 16.9356 339.492 16.9356H327.756C327.02 16.9356 326.423 16.3386 326.423 15.6023V12.4012Z" fill="black"/>
<path fill-rule="evenodd" clip-rule="evenodd" d="M307.713 11.288C309.486 11.2881 311.191 11.9694 312.476 13.191C312.573 13.2853 312.728 13.2841 312.823 13.1883L313.748 12.2548C313.796 12.2063 313.823 12.1404 313.823 12.072C313.822 12.0035 313.795 11.938 313.746 11.89C310.373 8.65777 305.052 8.65777 301.68 11.89C301.631 11.938 301.603 12.0034 301.603 12.0719C301.602 12.1404 301.629 12.2062 301.677 12.2548L302.602 13.1883C302.698 13.2843 302.852 13.2855 302.949 13.191C304.234 11.9693 305.94 11.288 307.713 11.288ZM307.713 14.3251C308.687 14.325 309.626 14.6871 310.349 15.341C310.446 15.4338 310.6 15.4318 310.695 15.3365L311.619 14.403C311.668 14.354 311.695 14.2876 311.694 14.2185C311.693 14.1495 311.665 14.0837 311.615 14.0357C309.417 11.9902 306.011 11.9902 303.812 14.0357C303.763 14.0837 303.734 14.1495 303.734 14.2186C303.733 14.2876 303.76 14.3541 303.809 14.403L304.732 15.3365C304.828 15.4318 304.981 15.4338 305.079 15.341C305.801 14.6875 306.739 14.3255 307.713 14.3251ZM309.564 16.3685C309.565 16.4377 309.538 16.5044 309.488 16.5529L307.89 18.1658C307.843 18.2132 307.78 18.2398 307.713 18.2398C307.646 18.2398 307.582 18.2132 307.536 18.1658L305.937 16.5529C305.888 16.5044 305.861 16.4376 305.862 16.3684C305.863 16.2992 305.893 16.2337 305.945 16.1873C306.965 15.324 308.46 15.324 309.481 16.1873C309.532 16.2337 309.562 16.2993 309.564 16.3685Z" fill="black"/>
<path fill-rule="evenodd" clip-rule="evenodd" d="M289.802 9.73438H289.002C288.56 9.73438 288.202 10.0926 288.202 10.5345V17.4691C288.202 17.911 288.56 18.2692 289.002 18.2692H289.802C290.244 18.2692 290.602 17.911 290.602 17.4691V10.5345C290.602 10.0926 290.244 9.73438 289.802 9.73438ZM285.268 11.6014H286.068C286.51 11.6014 286.868 11.9596 286.868 12.4015V17.4691C286.868 17.911 286.51 18.2692 286.068 18.2692H285.268C284.826 18.2692 284.468 17.911 284.468 17.4691V12.4015C284.468 11.9596 284.826 11.6014 285.268 11.6014ZM282.334 13.4684H281.534C281.092 13.4684 280.734 13.8266 280.734 14.2685V17.4691C280.734 17.911 281.092 18.2692 281.534 18.2692H282.334C282.776 18.2692 283.134 17.911 283.134 17.4691V14.2685C283.134 13.8266 282.776 13.4684 282.334 13.4684ZM278.6 15.0687H277.8C277.358 15.0687 277 15.4269 277 15.8688V17.4691C277 17.911 277.358 18.2692 277.8 18.2692H278.6C279.042 18.2692 279.4 17.911 279.4 17.4691V15.8688C279.4 15.4269 279.042 15.0687 278.6 15.0687Z" fill="black"/>
<path d="M24.8569 17C26.8427 17 28.0222 15.4835 28.0222 12.9155C28.0222 11.9485 27.8329 11.1347 27.4703 10.5059C26.9455 9.5284 26.0419 9 24.9002 9C23.2012 9 22 10.1149 22 11.679C22 13.148 23.0822 14.2153 24.5701 14.2153C25.4846 14.2153 26.2258 13.7979 26.5938 13.074H26.61C26.61 13.074 26.6317 13.074 26.6371 13.074C26.6479 13.074 26.6858 13.074 26.6858 13.074C26.6858 14.8177 26.0094 15.8587 24.8677 15.8587C24.1968 15.8587 23.6774 15.4993 23.4988 14.9234H22.1082C22.3409 16.1757 23.4285 17 24.8569 17ZM24.9056 13.1321C24.0074 13.1321 23.3689 12.5086 23.3689 11.6367C23.3689 10.786 24.0399 10.1361 24.911 10.1361C25.7822 10.1361 26.4531 10.7966 26.4531 11.6579C26.4531 12.5086 25.7984 13.1321 24.9056 13.1321Z" fill="black"/>
<path d="M30.3058 16.926C30.8198 16.926 31.1715 16.5667 31.1715 16.0911C31.1715 15.6103 30.8198 15.2563 30.3058 15.2563C29.7972 15.2563 29.4401 15.6103 29.4401 16.0911C29.4401 16.5667 29.7972 16.926 30.3058 16.926ZM30.3058 12.963C30.8198 12.963 31.1715 12.609 31.1715 12.1334C31.1715 11.6526 30.8198 11.2985 30.3058 11.2985C29.7972 11.2985 29.4401 11.6526 29.4401 12.1334C29.4401 12.609 29.7972 12.963 30.3058 12.963Z" fill="black"/>
<path d="M36.2363 16.8151H37.5727V15.3937H38.6279V14.2417H37.5727V9.19022H35.6032C34.2235 11.2193 33.1251 12.9155 32.4217 14.1783V15.3937H36.2363V16.8151ZM33.7148 14.1942C34.6239 12.6301 35.4355 11.3778 36.1822 10.2999H36.2579V14.2734H33.7148V14.1942Z" fill="black"/>
<path d="M41.604 16.8151H43V9.19022H41.6094L39.5695 10.5852V11.8956L41.512 10.5641H41.604V16.8151Z" fill="black"/>
</g>
<defs>
<filter id="filter0_b_834_25274" x="-80" y="-80" width="520" height="184" filterUnits="userSpaceOnUse" color-interpolation-filters="sRGB">
<feFlood flood-opacity="0" result="BackgroundImageFix"/>
<feGaussianBlur in="BackgroundImageFix" stdDeviation="40"/>
<feComposite in2="SourceAlpha" operator="in" result="effect1_backgroundBlur_834_25274"/>
<feBlend mode="normal" in="SourceGraphic" in2="effect1_backgroundBlur_834_25274" result="shape"/>
</filter>
<clipPath id="clip0_834_25274">
<rect width="360" height="24" fill="white"/>
</clipPath>
</defs>
</svg>
