<svg width="20" height="26" viewBox="0 0 20 26" fill="none" xmlns="http://www.w3.org/2000/svg">
<path d="M18.3811 2.71887C18.4163 2.75919 18.4674 2.78219 18.5208 2.78219C18.5748 2.78219 18.6253 2.75919 18.6611 2.71887L19.9531 1.41608C20.0019 1.36071 20.0139 1.28234 19.9838 1.21504C19.9531 1.14831 19.8861 1.10515 19.8125 1.10515H19.3494V0.186842C19.3497 0.0834827 19.2665 0 19.1631 0H17.8788C17.7754 0 17.692 0.0834827 17.692 0.186842V1.10515H17.2291C17.1556 1.10515 17.0886 1.14831 17.0585 1.21504C17.0281 1.28234 17.0406 1.36071 17.0891 1.41608L18.3811 2.71887Z" fill="#4B525A"/>
<path d="M12.1793 11.6089C11.6452 11.0134 11.1176 10.3481 10.6425 9.74954C10.4185 9.46672 10.2041 9.19696 10.0036 8.95191L9.98885 8.93402C10.2825 8.09777 10.4503 7.41344 10.4878 6.89948C10.5829 5.59017 10.4366 4.74682 10.0411 4.32174C9.77389 4.0341 9.37267 3.93386 8.99529 4.06079C8.72497 4.15137 8.35895 4.39415 8.14967 5.03532C7.83789 5.99111 7.98896 7.68377 8.87546 9.08366C8.47991 10.1195 7.92847 11.3099 7.31939 12.4431C6.15944 12.8498 5.23488 13.3844 4.57128 14.033C3.70437 14.8792 3.35198 15.7191 3.60413 16.337C3.75945 16.7198 4.11866 16.9481 4.56475 16.9481C4.87539 16.9481 5.21131 16.8359 5.53644 16.6241C6.35735 16.0874 7.42928 14.2993 8.00429 13.2632C9.19378 12.8918 10.3682 12.7399 10.9651 12.6822C11.2351 12.6561 11.5032 12.6354 11.7613 12.6209C12.806 13.724 13.6604 14.3059 14.4475 14.451C14.6059 14.4805 14.7644 14.4953 14.9192 14.4953C15.5606 14.4953 16.0907 14.2394 16.3381 13.8109C16.5246 13.4872 16.5209 13.1096 16.3276 12.7745C15.8908 12.0183 14.5727 11.6021 12.616 11.6021C12.4752 11.6023 12.3298 11.6043 12.1793 11.6089ZM4.99181 15.7921C4.83649 15.8935 4.67691 15.9539 4.56446 15.9539C4.54317 15.9539 4.52869 15.9517 4.52045 15.9497C4.50086 15.8506 4.57128 15.4221 5.26555 14.7437C5.59153 14.4251 6.00383 14.1344 6.49195 13.8771C5.87605 14.8681 5.32177 15.5766 4.99181 15.7921ZM9.09411 5.34398C9.16652 5.12221 9.25625 5.02198 9.31218 5.00324C9.3136 5.00295 9.31474 5.00238 9.31588 5.0021C9.36983 5.06287 9.59926 5.41014 9.49647 6.82821C9.47858 7.07554 9.41838 7.38817 9.31701 7.75958C8.98535 6.90545 8.8942 5.95647 9.09411 5.34398ZM10.8691 11.6935C10.3404 11.7443 9.53509 11.8491 8.63666 12.0618C8.98507 11.3661 9.30764 10.661 9.57711 10.0077C9.67054 10.1246 9.76623 10.2448 9.86334 10.3677C10.1885 10.7775 10.5536 11.238 10.9321 11.6878L10.8691 11.6935ZM15.466 13.2717C15.4808 13.2973 15.4805 13.3075 15.4768 13.3143C15.4351 13.3867 15.2463 13.5017 14.9177 13.5017C14.826 13.5017 14.7283 13.4923 14.6275 13.4736C14.2175 13.3978 13.7393 13.1144 13.1694 12.609C14.7158 12.6828 15.3408 13.0556 15.466 13.2717Z" fill="#4B525A"/>
<path d="M14.2858 0H1.42829C0.640318 0 0 0.638614 0 1.42858V24.1273C0 24.9165 0.640318 25.5559 1.42829 25.5559H18.5715C19.3612 25.5559 19.9998 24.9165 19.9998 24.1273V5.7143L14.2858 0ZM14.2858 2.01977L17.9803 5.7143H14.2858V2.01977ZM18.5718 24.1273H1.42829V1.42858H12.8572V5.7143C12.8572 6.50341 13.4961 7.14288 14.2855 7.14288H18.5715V24.1273H18.5718Z" fill="#4B525A"/>
<path d="M7.63992 18.2739C7.52322 18.1708 7.38323 18.0959 7.22421 18.0518C7.06718 18.007 6.84229 17.9843 6.55578 17.9843H5.60482C5.42394 17.9843 5.28764 18.0257 5.19933 18.1084C5.11017 18.1918 5.06445 18.327 5.06445 18.5096V21.3298C5.06445 21.4939 5.10506 21.6217 5.18513 21.7103C5.26663 21.8012 5.3751 21.8475 5.50742 21.8475C5.63407 21.8475 5.74083 21.8012 5.82432 21.7098C5.90609 21.62 5.94784 21.4905 5.94784 21.325V20.3604H6.55578C7.02516 20.3604 7.38578 20.2579 7.62686 20.0554C7.8722 19.8504 7.99685 19.5472 7.99685 19.1539C7.99685 18.9707 7.96675 18.8032 7.90684 18.6555C7.84664 18.5059 7.75691 18.3778 7.63992 18.2739ZM7.02544 19.4532C6.97234 19.5247 6.89653 19.575 6.79317 19.6074C6.68328 19.6414 6.54329 19.659 6.37632 19.659H5.94812V18.6828H6.37632C6.76222 18.6828 6.91868 18.7597 6.98086 18.8225C7.06378 18.9111 7.1041 19.0244 7.1041 19.1684C7.1041 19.2871 7.07769 19.3827 7.02544 19.4532Z" fill="#4B525A"/>
<path d="M11.1526 18.3335C10.9985 18.1986 10.8241 18.1052 10.6344 18.056C10.4499 18.0083 10.2261 17.9839 9.97025 17.9839H9.00452C8.82592 17.9839 8.69246 18.0268 8.60756 18.112C8.52265 18.1972 8.47949 18.3306 8.47949 18.5089V21.1918C8.47949 21.3175 8.49057 21.4183 8.51328 21.4993C8.53912 21.5913 8.59478 21.6631 8.67854 21.7128C8.75834 21.7611 8.87021 21.7844 9.01957 21.7844H9.9853C10.1562 21.7844 10.3124 21.7733 10.4496 21.7511C10.5893 21.7284 10.7219 21.6887 10.8434 21.6333C10.9661 21.5774 11.0802 21.5018 11.1839 21.4087C11.3136 21.2894 11.4218 21.1523 11.5053 21.0004C11.5879 20.849 11.6501 20.6772 11.6893 20.4904C11.7285 20.3052 11.7484 20.0977 11.7484 19.8742C11.7481 19.1904 11.5473 18.6719 11.1526 18.3335ZM10.5072 20.8996C10.4592 20.9413 10.4016 20.9748 10.3357 20.9984C10.2667 21.0228 10.1997 21.0384 10.1358 21.0444C10.0685 21.0506 9.97338 21.054 9.85298 21.054H9.36231V18.7125H9.78057C9.9995 18.7125 10.1872 18.7364 10.3388 18.7833C10.4805 18.8264 10.6026 18.9312 10.7017 19.0953C10.8034 19.2631 10.8551 19.5235 10.8551 19.8697C10.8551 20.3578 10.7384 20.7039 10.5072 20.8996Z" fill="#4B525A"/>
<path d="M14.5144 17.9843H12.7675C12.6511 17.9843 12.5568 18.0016 12.4796 18.0371C12.3969 18.0746 12.3353 18.1356 12.2961 18.2188C12.2598 18.2966 12.2422 18.3917 12.2422 18.5096V21.3247C12.2422 21.4942 12.2836 21.6246 12.3646 21.712C12.4472 21.8018 12.5551 21.8475 12.6852 21.8475C12.8127 21.8475 12.9197 21.8026 13.0032 21.7137C13.0844 21.626 13.1256 21.4951 13.1256 21.3247V20.1903H14.275C14.4037 20.1903 14.5045 20.1594 14.574 20.0977C14.6464 20.0339 14.6831 19.9481 14.6831 19.8425C14.6831 19.7371 14.6473 19.6511 14.5763 19.5869C14.5073 19.5239 14.4059 19.4921 14.275 19.4921H13.1256V18.6981H14.5147C14.6507 18.6981 14.7555 18.6655 14.8262 18.6007C14.8986 18.5349 14.9352 18.4471 14.9352 18.3401C14.9352 18.2353 14.8986 18.1484 14.8259 18.0814C14.7543 18.0166 14.6498 17.9843 14.5144 17.9843Z" fill="#4B525A"/>
</svg>
