<svg width="17" height="17" viewBox="0 0 17 17" fill="none" xmlns="http://www.w3.org/2000/svg">
<path opacity="0.66" d="M7.16264 0.5C3.49086 0.5 0.5 3.49086 0.5 7.16264C0.5 10.8344 3.49086 13.8253 7.16264 13.8253C8.75935 13.8253 10.2257 13.2583 11.3749 12.3171L15.353 16.2951C15.4144 16.3591 15.4879 16.4101 15.5693 16.4453C15.6507 16.4805 15.7382 16.4991 15.8269 16.5C15.9155 16.5009 16.0035 16.4841 16.0855 16.4506C16.1676 16.4171 16.2421 16.3675 16.3048 16.3048C16.3675 16.2422 16.4171 16.1676 16.4506 16.0855C16.4841 16.0035 16.5009 15.9155 16.5 15.8269C16.4991 15.7382 16.4805 15.6507 16.4453 15.5693C16.4101 15.4879 16.3591 15.4144 16.2951 15.353L12.3171 11.3749C13.2583 10.2257 13.8253 8.75935 13.8253 7.16264C13.8253 3.49086 10.8344 0.5 7.16264 0.5ZM7.16264 1.83253C10.1143 1.83253 12.4928 4.21101 12.4928 7.16264C12.4928 10.1143 10.1143 12.4928 7.16264 12.4928C4.21101 12.4928 1.83253 10.1143 1.83253 7.16264C1.83253 4.21101 4.21101 1.83253 7.16264 1.83253Z" fill="#434B53" stroke="#434B53"/>
</svg>
