<svg width="98" height="98" viewBox="0 0 98 98" fill="none" xmlns="http://www.w3.org/2000/svg">
<path d="M9.3696 65.1455C25.869 74.2187 32.5003 88.9949 40.4492 93.3668C48.4008 97.7387 67.6115 102.347 87.7233 65.7716C107.835 29.1959 88.3249 11.4769 79.5784 6.66948C38.6308 -15.8487 -19.8507 49.0763 9.3696 65.1455Z" fill="#FEF1E8"/>
<path d="M57.8472 23.8194V74.1806C57.8472 77.175 55.3972 79.625 52.4028 79.625H23.8194C20.825 79.625 18.375 77.175 18.375 74.1806V23.8194C18.375 20.825 20.825 18.375 23.8194 18.375H25.1806C27.44 18.375 29.2639 20.1989 29.2639 22.4583C29.2639 23.9556 30.4889 25.1806 31.9861 25.1806H44.2361C45.7333 25.1806 46.9583 23.9556 46.9583 22.4583C46.9583 20.1989 48.7822 18.375 51.0417 18.375H52.4028C55.3972 18.375 57.8472 20.825 57.8472 23.8194Z" fill="#FEF1E8"/>
<path d="M24.5 74.1806V23.8194C24.5 21.7478 25.6869 19.9566 27.4019 19.0365C26.7622 18.6227 26.0027 18.375 25.1806 18.375H23.8194C20.825 18.375 18.375 20.825 18.375 23.8194V74.1806C18.375 77.175 20.825 79.625 23.8194 79.625H29.9444C26.95 79.625 24.5 77.175 24.5 74.1806Z" fill="#D5DBE1"/>
<path d="M61.2504 52.4031C63.1297 52.4031 64.6532 50.8796 64.6532 49.0003C64.6532 47.121 63.1297 45.5975 61.2504 45.5975C59.3711 45.5975 57.8477 47.121 57.8477 49.0003C57.8477 50.8796 59.3711 52.4031 61.2504 52.4031Z" fill="#FEF1E8"/>
<path d="M84.0479 78.6042H89.4923V81.3265H84.0479V78.6042Z" fill="#A4AFC1"/>
<path d="M68.3955 78.6042H73.84V81.3265H68.3955V78.6042Z" fill="#A4AFC1"/>
<path d="M77.9229 69.0767H80.6451V74.5211H77.9229V69.0767Z" fill="#A4AFC1"/>
<path d="M77.9229 84.7297H80.6451V90.1742H77.9229V84.7297Z" fill="#A4AFC1"/>
<path d="M61.2503 14.6322C58.999 14.6322 57.167 12.8002 57.167 10.5489C57.167 8.29763 58.999 6.46558 61.2503 6.46558C63.5016 6.46558 65.3336 8.29763 65.3336 10.5489C65.3336 12.8002 63.5016 14.6322 61.2503 14.6322ZM61.2503 9.1878C60.499 9.1878 59.8892 9.79758 59.8892 10.5489C59.8892 11.3002 60.499 11.91 61.2503 11.91C62.0016 11.91 62.6114 11.3002 62.6114 10.5489C62.6114 9.79758 62.0016 9.1878 61.2503 9.1878Z" fill="#A4AFC1"/>
<path d="M44.236 27.2223H31.986C29.3591 27.2223 27.2221 25.0853 27.2221 22.4584C27.2221 21.3314 26.3074 20.4167 25.1804 20.4167H23.8193V16.3334H25.1804C28.5587 16.3334 31.3054 19.0801 31.3054 22.4584C31.3054 22.834 31.6103 23.1389 31.986 23.1389H44.236C44.6117 23.1389 44.9166 22.834 44.9166 22.4584C44.9166 19.0801 47.6633 16.3334 51.0416 16.3334H52.4027V20.4167H51.0416C49.9146 20.4167 48.9999 21.3314 48.9999 22.4584C48.9999 25.0853 46.8629 27.2223 44.236 27.2223Z" fill="#20446C"/>
<path d="M52.4024 81.6667H23.8191C19.6895 81.6667 16.333 78.3102 16.333 74.1806V23.8195C16.333 19.6899 19.6895 16.3334 23.8191 16.3334H52.4024C56.5321 16.3334 59.8885 19.6899 59.8885 23.8195V27.9028H55.8052V23.8195C55.8052 21.9439 54.278 20.4167 52.4024 20.4167H23.8191C21.9435 20.4167 20.4163 21.9439 20.4163 23.8195V74.1806C20.4163 76.0562 21.9435 77.5834 23.8191 77.5834H52.4024C54.278 77.5834 55.8052 76.0562 55.8052 74.1806V70.0973H59.8885V74.1806C59.8885 78.3102 56.5321 81.6667 52.4024 81.6667Z" fill="#20446C"/>
<path d="M66.1228 63.9177H51.1506C48.5237 63.9177 46.3867 61.7808 46.3867 59.1539V49.6261C46.3867 46.9991 48.5237 44.8622 51.1506 44.8622H66.1228C68.7498 44.8622 70.8867 46.9991 70.8867 49.6261V59.1539C70.8867 61.7808 68.7498 63.9177 66.1228 63.9177ZM51.1506 48.9455C50.7749 48.9455 50.4701 49.2504 50.4701 49.6261V59.1539C50.4701 59.5295 50.7749 59.8344 51.1506 59.8344H66.1228C66.4985 59.8344 66.8034 59.5295 66.8034 59.1539V49.6261C66.8034 49.2504 66.4985 48.9455 66.1228 48.9455H51.1506Z" fill="#F0792E"/>
<path d="M63.4005 48.9455H53.8727C52.7457 48.9455 51.8311 48.0308 51.8311 46.9038V40.7788C51.8311 37.0276 54.8827 33.9733 58.6366 33.9733C62.3906 33.9733 65.4422 37.0276 65.4422 40.7788V46.9038C65.4422 48.0308 64.5275 48.9455 63.4005 48.9455ZM55.9144 44.8622H61.3588V40.7788C61.3588 39.2789 60.1393 38.0566 58.6366 38.0566C57.1339 38.0566 55.9144 39.2789 55.9144 40.7788V44.8622Z" fill="#F0792E"/>
</svg>
