<svg width="257" height="187" viewBox="0 0 257 187" fill="none" xmlns="http://www.w3.org/2000/svg">
<path d="M94.9863 36.1541L95.2116 36.0469C115.914 26.3354 138.875 31.4457 151.687 50.7462C158.357 60.8022 174.108 63.1698 184.388 68.7887C219.833 88.1654 201.506 133.24 177.081 151.109C155.042 167.233 117.26 162.613 95.1785 146.381C75.7629 132.117 65.5115 108.597 65.2733 86.6423C65.2474 84.441 65.3284 82.2462 65.5163 80.0579C67.0787 61.8168 77.2443 44.5828 94.9863 36.1541Z" fill="#FFF0E0"/>
<path d="M62.9123 67.0226L57.6864 102.623C56.9981 107.31 59.9498 111.748 64.4515 112.794L168.977 137.087C173.293 138.09 177.664 135.648 179.189 131.382L203.281 63.9981C205.468 57.8799 200.828 51.4659 194.494 51.8505L71.1022 59.3413C66.9482 59.5938 63.5329 62.7971 62.9123 67.0226Z" stroke="#EFC500" stroke-width="4" stroke-miterlimit="10"/>
<path d="M78.9153 126.972L78.9119 126.972C78.8754 126.974 78.8413 126.976 78.8091 126.977L78.8032 126.977C78.6289 126.983 78.4566 126.983 78.2857 126.976L78.2847 126.976C75.0805 126.86 72.3109 124.607 71.5866 121.436L71.0991 121.547L71.5866 121.436L60.9519 74.8859L60.9519 74.8858L60.7468 73.9874L60.7468 73.9873L58.2805 63.1924C58.2805 63.1924 58.2805 63.1924 58.2805 63.1923C58.0307 62.098 58.0451 61.0241 58.2735 60.0241L58.2735 60.024C59.0351 56.686 62.1776 54.1625 65.8953 54.5031C65.8953 54.5031 65.8953 54.5031 65.8953 54.5031L205.678 67.3125L205.723 66.8146L205.678 67.3125C210.141 67.7209 213.128 72.0865 211.888 76.3869L212.369 76.5253L211.888 76.3869L208.712 87.4124L206.977 93.4396L200.504 115.909C199.661 118.835 197.052 120.904 194.008 121.06L185.11 121.517L88.0827 126.501L78.9153 126.972Z" fill="white" stroke="#F7E46E"/>
<path d="M43.2923 111.341L38.5537 113.407L47.2861 133.399C47.4926 133.872 48.1052 134.061 48.6547 133.822L51.4042 132.624C51.9537 132.384 52.2312 131.807 52.0247 131.334L48.1594 122.484C47.8515 121.779 48.266 120.918 49.0851 120.561C49.9042 120.204 50.3192 119.343 50.0108 118.637L46.259 110.048L43.2923 111.341Z" fill="#F3A16D"/>
<path d="M49.5077 133.438L46.7583 134.636C46.2088 134.876 45.5962 134.686 45.3896 134.213L41.1131 124.422L36.6572 114.221L41.3958 112.156L44.3626 110.863L46.1573 114.972C46.1573 114.972 46.1573 114.972 46.1573 114.972L48.1143 119.452C48.1582 119.552 48.1872 119.656 48.2031 119.762C48.2961 120.393 47.8909 121.07 47.1886 121.375C46.369 121.732 45.9546 122.594 46.263 123.299L50.1282 132.148C50.3348 132.621 50.0572 133.198 49.5077 133.438Z" fill="#FFB587"/>
<path d="M46.1578 114.971C46.148 115.036 45.2938 120.562 41.1131 124.422L36.6572 114.221L41.3958 112.156L44.3626 110.863L46.1578 114.971Z" fill="#DD7432"/>
<path d="M32.4813 118.188C32.7677 116.659 31.7491 113.979 29.7809 111.426C27.8128 108.872 25.4797 107.203 23.9269 107.089L23.6564 106.738L22.8429 107.364C21.5228 108.379 22.4887 111.844 25.0003 115.102C27.5119 118.361 30.6183 120.18 31.9383 119.165L32.7519 118.539L32.4813 118.188Z" fill="#5E5E5E"/>
<path d="M44.43 112.649L35.6294 119.416C34.9598 119.931 33.9439 119.897 32.758 119.418C30.838 118.641 28.4726 116.695 26.4101 114.019C25.5064 112.846 24.7536 111.654 24.1709 110.512C23.6518 109.494 23.2672 108.516 23.0308 107.626C22.914 107.184 22.8341 106.765 22.7916 106.373C22.7453 105.938 22.7462 105.538 22.7967 105.18C22.8864 104.549 23.1308 104.052 23.5434 103.735L32.3431 96.9678L32.5491 97.2352L33.3075 98.2191L33.351 98.2756L43.4006 111.315L44.223 112.382L44.43 112.649Z" fill="#F5F5F5"/>
<path d="M33.3514 98.2756L32.4837 99.4429L22.7916 106.373C22.7453 105.937 22.7462 105.537 22.7967 105.179C22.8864 104.548 23.1308 104.052 23.5434 103.734L32.3431 96.9673L32.5491 97.2347L33.3075 98.2186L33.3514 98.2756Z" fill="white"/>
<path d="M72.1386 101.429L44.6681 112.305C44.5817 112.329 44.4924 112.348 44.3994 112.362C44.3415 112.37 44.2831 112.377 44.2228 112.381L44.4289 112.649L35.6292 119.415C34.9596 119.93 33.9438 119.896 32.7578 119.416L42.0411 111.866H42.0416L43.4014 111.314L68.9415 100.94L71.2611 100.29L72.1386 101.429Z" fill="#CFCFCF"/>
<path d="M45.2019 112.05L33.1162 96.3682L31.8854 97.3146L43.9711 112.996L45.2019 112.05Z" fill="#DD7432"/>
<path d="M44.1089 112.897C45.8632 111.548 44.5799 106.944 41.2425 102.613C37.9052 98.2829 33.7775 95.8661 32.0232 97.2151C30.2688 98.5641 31.5521 103.168 34.8895 107.499C38.2269 111.829 42.3545 114.246 44.1089 112.897Z" fill="#EF8B24"/>
<path d="M72.1398 101.43L44.6693 112.306C44.5828 112.33 44.4931 112.349 44.4006 112.362C44.3431 112.371 44.2842 112.377 44.2244 112.382C43.6006 112.426 42.8562 112.244 42.0423 111.868H42.0418C41.0063 111.388 39.8606 110.593 38.7115 109.544C37.8027 108.716 36.8929 107.73 36.0355 106.617C35.178 105.505 34.4561 104.374 33.8865 103.285C33.3187 102.199 32.9024 101.155 32.6538 100.213C32.5837 99.9479 32.5272 99.6912 32.4847 99.4433C32.3333 98.5742 32.3501 97.819 32.5501 97.2351C32.6001 97.0867 32.6627 96.95 32.7375 96.8244L50.2878 73.0781L50.5588 73.4296L63.9644 90.823L71.2613 100.291L72.1398 101.43Z" fill="#DD7432"/>
<path d="M63.9639 90.8225L61.4565 96.157C61.4565 96.157 45.5001 106.678 32.6534 100.212C32.2758 98.782 32.2842 97.5834 32.7366 96.8235L39.2167 88.0556L39.6321 87.4932L50.2868 73.0771L52.7933 76.3285L54.4409 78.4662L63.9639 90.8225Z" fill="#FFB587"/>
<path d="M72.1395 101.43L44.669 112.305C44.5826 112.33 44.4933 112.348 44.4003 112.362C44.3424 112.371 44.284 112.377 44.2237 112.382C43.6003 112.426 42.855 112.244 42.042 111.868L43.4018 111.315L68.942 100.941L71.2615 100.292L72.1395 101.43Z" fill="#F3A16D"/>
<path d="M50.5588 73.4291L49.7448 76.2151L32.4847 99.4424C32.3333 98.5733 32.3501 97.8181 32.5501 97.2342C32.6001 97.0858 32.6627 96.949 32.7375 96.8235L50.2877 73.0771L50.5588 73.4291Z" fill="#EF8B24"/>
<path d="M84.1438 100.928C91.0326 95.6309 89.835 82.5368 81.4691 71.6817C73.1032 60.8266 60.7368 56.3209 53.8481 61.6181C46.9594 66.9153 48.1569 80.0093 56.5229 90.8644C64.8888 101.72 77.2551 106.225 84.1438 100.928Z" fill="#F3A16D"/>
<path d="M85.042 100.237C91.8339 95.0137 90.558 81.98 82.1921 71.1249C73.8261 60.2697 61.5382 55.7038 54.7462 60.9266C47.9542 66.1494 49.2302 79.1831 57.5961 90.0382C65.962 100.893 78.25 105.459 85.042 100.237Z" fill="#FFF0E0"/>
<path d="M85.1286 97.738C91.2227 93.0519 89.9076 81.1366 82.1914 71.1245C74.4751 61.1124 63.2797 56.7948 57.1856 61.4809C51.0916 66.167 52.4066 78.0823 60.1229 88.0944C67.8391 98.1065 79.0346 102.424 85.1286 97.738Z" fill="#DAD8D8"/>
<path d="M80.935 72.0884C73.4512 62.3786 62.7259 58.0901 56.9798 62.5088C54.6766 64.2801 53.5229 67.1814 53.4491 70.648C53.3804 73.8788 54.2495 77.6007 56.0013 81.3552C57.0588 83.6222 58.4377 85.9009 60.1255 88.0909C61.8133 90.2809 63.6665 92.1955 65.5898 93.796C68.7757 96.4476 72.1554 98.239 75.3002 98.9988C78.6739 99.8142 81.7771 99.4418 84.0807 97.6705C89.8273 93.2522 88.4189 81.7982 80.935 72.0884Z" fill="#F5F5F5"/>
<path d="M75.3002 98.9987C70.2569 97.7805 64.6095 93.9084 60.1255 88.0908C55.6416 82.2732 53.3384 75.8293 53.4491 70.6475C58.1686 70.9233 64.317 74.8356 69.1715 81.1339C74.026 87.4332 76.2404 94.3709 75.3002 98.9987Z" fill="#CFCFCF"/>
<path d="M73.5727 84.3219L65.5889 93.7959C65.1123 93.3997 64.6403 92.9833 64.1735 92.5488C62.7572 91.2297 61.3942 89.7385 60.1241 88.0909C59.0835 86.7405 58.1607 85.3571 57.3584 83.9629C56.8584 83.0957 56.4056 82.2243 56 81.3547L67.2113 76.0679L69.4453 78.9664L72.6966 83.1853L73.5727 84.3219Z" fill="#DD7432"/>
<path d="M69.4453 78.9664L68.4528 82.67C68.4528 82.67 62.66 85.759 57.3584 83.9629C56.8584 83.0957 56.4056 82.2243 56 81.3547L67.2113 76.0679L69.4453 78.9664Z" fill="#FFB587"/>
<path d="M73.573 84.3221L65.5892 93.7961C65.1126 93.3999 64.6406 92.9835 64.1738 92.549L72.1894 83.6765L72.6969 83.1851L73.573 84.3221Z" fill="#F3A16D"/>
<path d="M72.8348 78.3173C71.0783 76.0381 68.5606 75.0313 67.2116 76.0685C65.8626 77.1056 66.1934 79.7945 67.9499 82.0736C69.7064 84.3528 72.224 85.3596 73.573 84.3224C74.9221 83.2849 74.5912 80.5964 72.8348 78.3173ZM69.1713 81.1345C68.2929 79.9947 68.1275 78.6505 68.8022 78.1319C69.4765 77.6134 70.7353 78.1165 71.6138 79.2563C72.4922 80.3962 72.6572 81.7404 71.9829 82.2589C71.3082 82.7775 70.0493 82.2743 69.1713 81.1345Z" fill="#EF8B24"/>
<path d="M71.9817 82.263C72.6561 81.7444 72.4908 80.4002 71.6126 79.2606C70.7343 78.121 69.4756 77.6176 68.8012 78.1362C68.1268 78.6548 68.2921 79.999 69.1703 81.1386C70.0486 82.2782 71.3073 82.7816 71.9817 82.263Z" fill="white"/>
<path d="M28.0972 112.026L27.971 111.862C27.8612 111.72 27.8878 111.516 28.0303 111.407L32.1283 108.255C32.2709 108.145 32.4751 108.172 32.5844 108.314L32.7106 108.478C32.8204 108.62 32.7937 108.824 32.6512 108.933L28.5532 112.085C28.4107 112.194 28.2065 112.168 28.0972 112.026ZM29.2224 113.486L29.0962 113.322C28.9864 113.18 29.013 112.976 29.1555 112.867L33.2535 109.715C33.3961 109.605 33.6003 109.632 33.7096 109.774L33.8358 109.938C33.9456 110.08 33.9189 110.284 33.7764 110.393L29.6784 113.545C29.5359 113.654 29.3317 113.628 29.2224 113.486ZM30.3476 114.946L30.2214 114.782C30.1116 114.64 30.1382 114.436 30.2807 114.327L34.3787 111.175C34.5212 111.065 34.7254 111.092 34.8348 111.234L34.961 111.398C35.0708 111.54 35.0441 111.744 34.9016 111.853L30.8036 115.005C30.6611 115.114 30.4569 115.087 30.3476 114.946Z" fill="#5E5E5E"/>
<path d="M213.114 128.732L216.45 130.186L210.303 144.26C210.157 144.593 209.726 144.726 209.339 144.557L207.404 143.714C207.017 143.545 206.822 143.139 206.967 142.806L209.688 136.576C209.905 136.08 209.613 135.473 209.036 135.222C208.459 134.971 208.167 134.365 208.384 133.868L211.025 127.822L213.114 128.732Z" fill="#F3A16D"/>
<path d="M208.74 144.286L210.675 145.13C211.062 145.298 211.493 145.165 211.639 144.832L214.649 137.94L217.786 130.759L214.45 129.305L212.361 128.395L211.098 131.287C211.098 131.287 211.098 131.287 211.098 131.287L209.72 134.441C209.69 134.512 209.669 134.585 209.658 134.659C209.593 135.104 209.878 135.58 210.372 135.795C210.949 136.046 211.241 136.653 211.024 137.149L208.303 143.379C208.157 143.711 208.353 144.118 208.74 144.286Z" fill="#FFB587"/>
<path d="M211.098 131.287C211.105 131.333 211.706 135.223 214.649 137.94L217.786 130.759L214.45 129.305L212.361 128.395L211.098 131.287Z" fill="#DD7432"/>
<path d="M220.725 133.552C220.523 132.476 221.24 130.589 222.626 128.792C224.011 126.994 225.654 125.819 226.747 125.739L226.937 125.492L227.51 125.932C228.439 126.647 227.759 129.086 225.991 131.38C224.223 133.674 222.036 134.955 221.107 134.24L220.534 133.799L220.725 133.552Z" fill="#5E5E5E"/>
<path d="M212.313 129.652L218.509 134.415C218.98 134.778 219.695 134.754 220.53 134.417C221.881 133.87 223.546 132.5 224.999 130.616C225.634 129.79 226.165 128.951 226.575 128.147C226.941 127.431 227.212 126.742 227.377 126.116C227.46 125.804 227.516 125.509 227.546 125.234C227.578 124.927 227.578 124.646 227.542 124.393C227.479 123.949 227.307 123.6 227.016 123.376L220.822 118.613L220.676 118.801L220.142 119.494L220.111 119.534L213.037 128.713L212.458 129.464L212.313 129.652Z" fill="#F5F5F5"/>
<path d="M220.111 119.534L220.722 120.356L227.545 125.234C227.578 124.927 227.577 124.646 227.541 124.394C227.478 123.95 227.306 123.6 227.016 123.377L220.821 118.613L220.676 118.802L220.142 119.495L220.111 119.534Z" fill="white"/>
<path d="M192.808 121.755L212.146 129.41C212.206 129.427 212.27 129.441 212.335 129.45C212.376 129.456 212.417 129.461 212.459 129.464L212.314 129.652L218.51 134.415C218.981 134.778 219.696 134.754 220.531 134.416L213.996 129.102H213.996L213.039 128.713L195.059 121.41L193.427 120.953L192.808 121.755Z" fill="#CFCFCF"/>
<path d="M212.638 129.907L221.146 118.868L220.28 118.201L211.772 129.241L212.638 129.907Z" fill="#DD7432"/>
<path d="M219.025 126.016C221.374 122.967 222.278 119.726 221.043 118.777C219.808 117.827 216.902 119.529 214.553 122.577C212.203 125.625 211.3 128.866 212.535 129.816C213.77 130.766 216.675 129.064 219.025 126.016Z" fill="#EF8B24"/>
<path d="M192.808 121.755L212.146 129.411C212.206 129.428 212.27 129.441 212.335 129.451C212.375 129.457 212.416 129.461 212.459 129.464C212.898 129.496 213.422 129.368 213.995 129.103H213.995C214.724 128.765 215.531 128.205 216.34 127.467C216.979 126.884 217.62 126.189 218.224 125.406C218.827 124.623 219.335 123.827 219.736 123.06C220.136 122.296 220.429 121.562 220.604 120.898C220.653 120.711 220.693 120.531 220.723 120.356C220.83 119.744 220.818 119.213 220.677 118.802C220.642 118.697 220.598 118.601 220.545 118.513L208.19 101.797L208 102.044L198.563 114.288L193.426 120.954L192.808 121.755Z" fill="#DD7432"/>
<path d="M198.562 114.288L200.327 118.043C200.327 118.043 211.56 125.449 220.603 120.898C220.869 119.891 220.863 119.048 220.545 118.513L215.983 112.341L215.69 111.945L208.19 101.797L206.425 104.086L205.266 105.591L198.562 114.288Z" fill="#FFB587"/>
<path d="M192.808 121.754L212.146 129.41C212.206 129.427 212.27 129.44 212.335 129.45C212.376 129.456 212.417 129.46 212.459 129.463C212.898 129.495 213.423 129.367 213.995 129.102L213.038 128.713L195.059 121.41L193.426 120.953L192.808 121.754Z" fill="#F3A16D"/>
<path d="M208 102.044L208.573 104.005L220.724 120.356C220.83 119.744 220.819 119.213 220.678 118.802C220.643 118.697 220.599 118.601 220.546 118.513L208.191 101.797L208 102.044Z" fill="#EF8B24"/>
<path d="M203.796 114.305C209.686 106.664 210.529 97.4463 205.679 93.7174C200.83 89.9884 192.125 93.1602 186.236 100.802C180.346 108.443 179.503 117.661 184.353 121.39C189.202 125.118 197.907 121.947 203.796 114.305Z" fill="#F3A16D"/>
<path d="M203.041 113.724C208.93 106.083 209.828 96.9075 205.047 93.2308C200.265 89.5541 191.615 92.7681 185.726 100.41C179.837 108.051 178.939 117.226 183.72 120.903C188.501 124.58 197.152 121.366 203.041 113.724Z" fill="#FFF0E0"/>
<path d="M201.262 112.356C206.694 105.308 207.619 96.9198 203.329 93.6209C199.039 90.3221 191.158 93.3616 185.726 100.41C180.294 107.458 179.368 115.846 183.658 119.145C187.948 122.444 195.83 119.404 201.262 112.356Z" fill="#DAD8D8"/>
<path d="M186.616 101.099C191.884 94.2642 199.434 91.2448 203.479 94.3557C205.101 95.6028 205.913 97.6453 205.965 100.085C206.013 102.36 205.401 104.98 204.168 107.623C203.424 109.219 202.453 110.823 201.265 112.365C200.076 113.906 198.772 115.254 197.418 116.381C195.175 118.247 192.796 119.508 190.582 120.043C188.207 120.617 186.023 120.355 184.401 119.108C180.356 115.997 181.348 107.934 186.616 101.099Z" fill="#F5F5F5"/>
<path d="M190.582 120.043C194.132 119.185 198.108 116.46 201.264 112.364C204.42 108.269 206.042 103.733 205.964 100.085C202.642 100.279 198.313 103.033 194.896 107.467C191.479 111.901 189.92 116.785 190.582 120.043Z" fill="#CFCFCF"/>
<path d="M191.798 109.711L197.418 116.381C197.754 116.102 198.086 115.809 198.414 115.503C199.412 114.574 200.371 113.524 201.265 112.365C201.997 111.414 202.647 110.44 203.212 109.459C203.564 108.848 203.882 108.235 204.168 107.623L196.276 103.901L194.703 105.941L192.415 108.911L191.798 109.711Z" fill="#DD7432"/>
<path d="M194.704 105.941L195.403 108.549C195.403 108.549 199.481 110.723 203.213 109.459C203.565 108.848 203.883 108.235 204.169 107.623L196.277 103.901L194.704 105.941Z" fill="#FFB587"/>
<path d="M191.798 109.712L197.418 116.381C197.754 116.102 198.086 115.809 198.414 115.503L192.772 109.257L192.415 108.912L191.798 109.712Z" fill="#F3A16D"/>
<path d="M191.797 109.712C192.747 110.442 194.519 109.733 195.756 108.129C196.993 106.524 197.225 104.631 196.275 103.901C195.326 103.171 193.553 103.88 192.317 105.484C191.08 107.089 190.847 108.981 191.797 109.712ZM192.917 108.259C192.442 107.894 192.559 106.947 193.177 106.145C193.795 105.343 194.681 104.988 195.156 105.353C195.631 105.718 195.515 106.665 194.896 107.467C194.278 108.27 193.392 108.624 192.917 108.259Z" fill="#EF8B24"/>
<path d="M194.893 107.46C195.511 106.657 195.628 105.711 195.153 105.346C194.678 104.981 193.792 105.335 193.173 106.138C192.555 106.94 192.439 107.886 192.913 108.251C193.388 108.617 194.275 108.262 194.893 107.46Z" fill="white"/>
<path d="M223.811 129.214L223.9 129.099C223.977 128.999 223.958 128.855 223.858 128.778L220.973 126.559C220.873 126.482 220.729 126.501 220.652 126.601L220.563 126.716C220.486 126.815 220.504 126.959 220.604 127.036L223.489 129.255C223.59 129.332 223.734 129.314 223.811 129.214ZM223.019 130.241L223.108 130.127C223.185 130.027 223.166 129.883 223.066 129.806L220.181 127.587C220.081 127.51 219.937 127.529 219.86 127.629L219.771 127.744C219.694 127.844 219.713 127.987 219.813 128.065L222.698 130.283C222.798 130.36 222.942 130.341 223.019 130.241ZM222.227 131.269L222.316 131.154C222.393 131.055 222.374 130.911 222.274 130.834L219.389 128.615C219.289 128.538 219.145 128.557 219.068 128.657L218.979 128.772C218.902 128.872 218.921 129.015 219.021 129.092L221.906 131.311C222.006 131.388 222.15 131.369 222.227 131.269Z" fill="#5E5E5E"/>
<path d="M101.059 149.762C99.9289 149.762 99.0098 148.844 99.0098 147.715C99.0098 146.587 99.9289 145.668 101.059 145.668C102.189 145.668 103.108 146.587 103.108 147.715C103.108 148.844 102.189 149.762 101.059 149.762ZM101.059 146.667C100.48 146.667 100.009 147.137 100.009 147.715C100.009 148.293 100.48 148.763 101.059 148.763C101.637 148.763 102.108 148.293 102.108 147.715C102.108 147.137 101.637 146.667 101.059 146.667Z" fill="#F6985D"/>
<path d="M218.09 93.5895C216.96 93.5895 216.041 92.6714 216.041 91.5428C216.041 90.4142 216.96 89.4961 218.09 89.4961C219.22 89.4961 220.139 90.4142 220.139 91.5428C220.139 92.6714 219.22 93.5895 218.09 93.5895ZM218.09 90.4945C217.512 90.4945 217.04 90.965 217.04 91.5428C217.04 92.1207 217.512 92.5911 218.09 92.5911C218.668 92.5911 219.14 92.1207 219.14 91.5428C219.14 90.965 218.668 90.4945 218.09 90.4945Z" fill="#F6985D"/>
<path d="M124.588 39.3287C123.458 39.3287 122.539 38.4107 122.539 37.2821C122.539 36.1534 123.458 35.2354 124.588 35.2354C125.718 35.2354 126.637 36.1534 126.637 37.2821C126.637 38.4107 125.718 39.3287 124.588 39.3287ZM124.588 36.2337C124.01 36.2337 123.539 36.7042 123.539 37.2821C123.539 37.8599 124.01 38.3304 124.588 38.3304C125.167 38.3304 125.638 37.8599 125.638 37.2821C125.638 36.7042 125.167 36.2337 124.588 36.2337Z" fill="#F6985D"/>
<path d="M164.651 130.816C164.392 130.816 164.174 130.617 164.154 130.355L163.909 127.17C163.888 126.895 164.093 126.655 164.368 126.634C164.643 126.612 164.884 126.819 164.905 127.093L165.15 130.279C165.171 130.554 164.965 130.794 164.69 130.815C164.677 130.816 164.664 130.816 164.651 130.816Z" fill="#F6985D"/>
<path d="M162.934 129.346C162.675 129.346 162.456 129.147 162.436 128.885C162.415 128.61 162.621 128.371 162.896 128.35L166.085 128.105C166.361 128.084 166.6 128.29 166.621 128.564C166.642 128.839 166.437 129.079 166.162 129.1L162.972 129.345C162.959 129.346 162.946 129.346 162.934 129.346Z" fill="#F6985D"/>
<path d="M193.112 61.1109C192.853 61.1109 192.635 60.9116 192.615 60.6497L192.37 57.4641C192.349 57.1892 192.554 56.9493 192.83 56.9283C193.104 56.9068 193.345 57.1131 193.366 57.3876L193.611 60.5732C193.632 60.8481 193.426 61.088 193.151 61.109C193.138 61.1104 193.125 61.1109 193.112 61.1109Z" fill="#F6985D"/>
<path d="M191.396 59.64C191.137 59.64 190.918 59.4407 190.898 59.1788C190.877 58.9039 191.083 58.664 191.358 58.643L194.547 58.3984C194.823 58.3774 195.062 58.5833 195.083 58.8577C195.104 59.1326 194.899 59.3725 194.624 59.3935L191.434 59.6381C191.421 59.6395 191.408 59.64 191.396 59.64Z" fill="#F6985D"/>
<path d="M34.036 132.941C33.7771 132.941 33.5584 132.742 33.5383 132.48L33.2935 129.295C33.2724 129.02 33.4785 128.78 33.7533 128.759C34.028 128.737 34.2687 128.944 34.2897 129.218L34.5346 132.404C34.5556 132.679 34.35 132.918 34.0748 132.939C34.0617 132.941 34.0486 132.941 34.036 132.941Z" fill="#F6985D"/>
<path d="M32.3185 131.472C32.0596 131.472 31.8409 131.272 31.8208 131.01C31.7998 130.736 32.0059 130.496 32.2806 130.475L35.4698 130.23C35.7454 130.209 35.9852 130.415 36.0062 130.689C36.0272 130.964 35.8216 131.204 35.5464 131.225L32.3572 131.47C32.3442 131.471 32.3315 131.472 32.3185 131.472Z" fill="#F6985D"/>
<path d="M108.15 86.8964L108.432 86.6761C108.788 86.4478 109.041 86.3307 109.191 86.3246C109.523 86.3115 109.894 86.5977 110.303 87.182C110.554 87.548 110.684 87.8429 110.693 88.0679C110.702 88.2929 110.637 88.4833 110.497 88.6387C110.359 88.7946 110.195 88.9347 110.006 89.0602C109.818 89.1858 109.637 89.3053 109.465 89.4192C109.292 89.533 108.936 89.6866 108.396 89.8794C107.855 90.0717 107.331 90.1785 106.821 90.1982C106.312 90.2182 105.795 90.1711 105.27 90.0577C104.744 89.9442 104.199 89.7403 103.635 89.4458C103.07 89.1517 102.559 88.7853 102.102 88.347C101.644 87.9092 101.259 87.3398 100.948 86.6383C100.636 85.9372 100.463 85.1689 100.43 84.3335C100.398 83.498 100.507 82.7349 100.759 82.0441C101.011 81.3533 101.346 80.7768 101.763 80.3152C102.18 79.8541 102.661 79.4625 103.207 79.1404C104.235 78.5211 105.28 78.1906 106.341 78.1491C106.845 78.1295 107.36 78.1873 107.887 78.3218C108.413 78.4566 108.813 78.5995 109.088 78.7493L109.482 78.9593C109.68 79.0699 109.834 79.1605 109.944 79.231C110.231 79.4452 110.381 79.694 110.392 79.9778C110.403 80.2616 110.303 80.5631 110.089 80.8828C109.694 81.4774 109.33 81.7813 108.997 81.7944C108.804 81.8018 108.526 81.6949 108.163 81.4728C107.699 81.1264 107.091 80.9677 106.341 80.9967C105.643 81.0238 104.967 81.2917 104.31 81.8C103.998 82.0483 103.742 82.3909 103.545 82.8273C103.347 83.2641 103.259 83.7528 103.28 84.2938C103.301 84.8348 103.427 85.3155 103.658 85.7351C103.89 86.1552 104.176 86.4819 104.518 86.7153C105.191 87.161 105.881 87.3701 106.588 87.3421C106.92 87.3291 107.233 87.2744 107.524 87.1769C107.817 87.0812 108.025 86.9874 108.15 86.8964ZM116.891 77.7056C118.478 77.6436 119.878 78.1631 121.092 79.2632C122.305 80.3638 122.946 81.7626 123.012 83.4602C123.078 85.1577 122.577 86.6257 121.509 87.863C120.44 89.1008 119.091 89.7515 117.462 89.8154C115.832 89.8789 114.423 89.3445 113.235 88.2107C112.047 87.0775 111.421 85.6968 111.358 84.0688C111.323 83.1801 111.451 82.3409 111.742 81.5516C112.033 80.7628 112.437 80.0954 112.952 79.5493C113.468 79.0037 114.068 78.5673 114.754 78.2401C115.439 77.9129 116.151 77.7346 116.891 77.7056ZM114.201 83.8765C114.238 84.8301 114.577 85.5914 115.217 86.1617C115.857 86.7321 116.557 87.0023 117.319 86.9725C118.08 86.9426 118.755 86.6266 119.343 86.0245C119.932 85.4224 120.207 84.6341 120.169 83.659C120.131 82.6844 119.792 81.9148 119.152 81.3495C118.513 80.7848 117.812 80.5169 117.051 80.5467C116.29 80.5766 115.615 80.9005 115.027 81.519C114.439 82.1374 114.164 82.9234 114.201 83.8765ZM136.375 77.5395C136.467 77.6968 136.524 77.8396 136.545 77.9675C136.566 78.0954 136.581 78.2825 136.591 78.529L136.94 87.4453C136.969 88.1841 136.782 88.6261 136.38 88.7704C136.178 88.8427 135.922 88.8847 135.611 88.8969C135.3 88.909 135.053 88.8922 134.868 88.8455C134.684 88.7993 134.542 88.7405 134.443 88.6691C134.343 88.5981 134.264 88.4936 134.205 88.3564C134.144 88.1767 134.106 87.8994 134.092 87.5242L133.881 82.1426C133.626 82.4851 133.255 83.028 132.769 83.771C132.283 84.5141 131.973 84.9794 131.841 85.1671C131.709 85.3547 131.617 85.4845 131.566 85.5559C131.515 85.6278 131.388 85.729 131.184 85.8607C130.979 85.9923 130.756 86.0623 130.515 86.0716C130.274 86.081 130.052 86.0334 129.849 85.9288C129.647 85.8243 129.5 85.7202 129.41 85.6161L129.275 85.4443C129.05 85.1853 128.604 84.6313 127.937 83.7832C127.27 82.9351 126.908 82.48 126.852 82.4175L127.065 87.8313C127.074 88.0777 127.073 88.263 127.062 88.3862C127.051 88.5099 127.005 88.6485 126.925 88.8021C126.776 89.0976 126.363 89.2586 125.688 89.2847C125.034 89.3104 124.621 89.1816 124.449 88.8987C124.357 88.7522 124.301 88.6149 124.28 88.4871C124.259 88.3592 124.243 88.1669 124.233 87.9097L123.884 78.9934C123.874 78.747 123.875 78.5621 123.886 78.438C123.897 78.3143 123.943 78.1701 124.022 78.0062C124.172 77.7215 124.585 77.5661 125.26 77.5395C125.55 77.5283 125.801 77.5535 126.012 77.6146C126.224 77.6762 126.364 77.743 126.431 77.8153L126.531 77.9077L130.37 82.5524C132.098 80.0711 133.253 78.4333 133.833 77.6384C134.004 77.342 134.43 77.1806 135.111 77.1539C135.792 77.1278 136.213 77.2562 136.375 77.5395ZM137.876 78.4464C137.866 78.1999 137.867 78.0151 137.879 77.8909C137.89 77.7673 137.935 77.6235 138.015 77.4592C138.153 77.1642 138.566 77.0032 139.252 76.9766C140.002 76.9472 140.455 77.1283 140.61 77.5189C140.671 77.6991 140.709 77.9764 140.723 78.3512L141.073 87.2833C141.083 87.5405 141.083 87.7281 141.072 87.8467C141.06 87.9652 141.014 88.1062 140.935 88.2705C140.796 88.5655 140.384 88.7265 139.698 88.7531C138.947 88.7825 138.5 88.5963 138.355 88.1939C138.284 88.0254 138.241 87.7533 138.226 87.3785L137.876 78.4464ZM149.588 77.0634C149.683 76.872 149.831 76.7399 150.032 76.6681C150.233 76.5957 150.487 76.5537 150.792 76.5416C151.098 76.5294 151.345 76.5467 151.535 76.5929C151.725 76.6391 151.867 76.6979 151.961 76.7694C152.055 76.8408 152.126 76.9504 152.175 77.0989C152.246 77.2678 152.289 77.5395 152.304 77.9143L152.653 86.8306C152.663 87.0877 152.662 87.2754 152.651 87.3939C152.639 87.5125 152.594 87.6534 152.514 87.8177C152.375 88.1127 151.963 88.2737 151.277 88.3004C150.859 88.3167 150.568 88.2957 150.404 88.2378C150.241 88.1799 150.103 88.0833 149.99 87.9484C147.452 84.8296 145.783 82.7927 144.983 81.8368L145.19 87.1223C145.2 87.3795 145.199 87.5671 145.188 87.6856C145.176 87.8042 145.131 87.9452 145.051 88.1095C144.912 88.4044 144.5 88.5655 143.814 88.5921C143.149 88.6182 142.736 88.4894 142.575 88.2061C142.483 88.0488 142.426 87.9064 142.405 87.7785C142.384 87.6506 142.369 87.4635 142.359 87.217L142.008 78.2527C141.992 77.8457 142.031 77.5465 142.126 77.3551C142.22 77.1637 142.368 77.0321 142.569 76.9598C142.77 76.8874 143.032 76.845 143.354 76.8324C143.675 76.8198 143.931 76.8394 144.121 76.8907C144.311 76.9425 144.445 77.0041 144.523 77.076C144.567 77.1063 144.696 77.2408 144.909 77.4793C147.292 80.4646 148.883 82.4352 149.683 83.3906L149.471 77.9605C149.455 77.554 149.494 77.2548 149.588 77.0634ZM159.861 80.8534L162.691 80.7428C163.271 80.7418 163.631 80.8777 163.77 81.1512C163.885 81.3505 163.951 81.6483 163.966 82.0445L164.105 85.5787C164.118 85.9218 163.98 86.2541 163.693 86.5762C162.829 87.5433 161.496 88.0618 159.694 88.1323C158.097 88.1949 156.684 87.6464 155.458 86.488C154.231 85.329 153.585 83.8985 153.518 82.1953C153.451 80.4921 153.996 79.0471 155.152 77.8597C156.308 76.6723 157.701 76.0464 159.331 75.9829C160.596 75.9334 161.808 76.3045 162.967 77.0956C163.265 77.2986 163.418 77.5311 163.429 77.7934C163.439 78.0557 163.327 78.3633 163.095 78.7157C162.699 79.2996 162.329 79.5983 161.986 79.6118C161.782 79.6198 161.449 79.4854 160.987 79.2086C160.525 78.9318 159.983 78.8053 159.361 78.8296C158.547 78.8613 157.834 79.1764 157.224 79.7738C156.613 80.3717 156.327 81.1339 156.363 82.0599C156.399 82.9864 156.752 83.7612 157.42 84.3839C158.089 85.007 158.831 85.302 159.646 85.2702C160.235 85.2474 160.762 85.1302 161.226 84.9188L161.158 83.1675L159.887 83.217C159.554 83.2301 159.317 83.1965 159.175 83.1162C159.032 83.0359 158.935 82.9136 158.886 82.7493C158.837 82.585 158.807 82.361 158.796 82.0772C158.784 81.7934 158.8 81.5652 158.841 81.3916C158.883 81.2184 158.967 81.097 159.093 81.028C159.283 80.9239 159.539 80.866 159.861 80.8534ZM111.004 107.525C110.711 107.193 110.56 106.89 110.55 106.617C110.539 106.344 110.755 105.974 111.199 105.506C111.457 105.239 111.736 105.099 112.036 105.087C112.336 105.076 112.765 105.327 113.322 105.842C113.479 106.018 113.701 106.184 113.986 106.339C114.271 106.494 114.532 106.567 114.768 106.558C115.765 106.519 116.248 106.092 116.216 105.278C116.206 105.032 116.061 104.831 115.781 104.676C115.501 104.52 115.156 104.413 114.746 104.354C114.335 104.295 113.891 104.192 113.413 104.044C112.934 103.897 112.487 103.718 112.071 103.509C111.654 103.3 111.3 102.958 111.008 102.481C110.715 102.005 110.555 101.423 110.529 100.738C110.492 99.7954 110.81 98.9595 111.486 98.2309C112.16 97.5018 113.103 97.1139 114.315 97.0663C114.959 97.0411 115.549 97.1014 116.086 97.2465C116.624 97.3921 116.998 97.5462 117.208 97.7095L117.622 97.9989C117.966 98.2967 118.143 98.5525 118.151 98.7667C118.16 98.9809 118.042 99.2806 117.8 99.6652C117.456 100.215 117.092 100.497 116.706 100.512C116.48 100.521 116.197 100.425 115.857 100.224C115.823 100.204 115.76 100.153 115.665 100.07C115.571 99.9882 115.485 99.9219 115.408 99.871C115.177 99.7408 114.887 99.682 114.539 99.696C114.191 99.7095 113.905 99.8043 113.68 99.9789C113.456 100.154 113.35 100.389 113.362 100.683C113.373 100.978 113.519 101.211 113.8 101.382C114.08 101.553 114.426 101.663 114.836 101.711C115.246 101.76 115.695 101.842 116.183 101.956C116.671 102.072 117.121 102.217 117.537 102.394C117.952 102.571 118.306 102.893 118.598 103.359C118.89 103.824 119.049 104.405 119.077 105.102C119.104 105.798 118.988 106.417 118.73 106.958C118.472 107.499 118.124 107.922 117.684 108.23C116.838 108.831 115.922 109.151 114.936 109.19C114.431 109.209 113.952 109.166 113.497 109.061C113.042 108.955 112.671 108.817 112.385 108.646C111.803 108.325 111.394 108.009 111.156 107.697L111.004 107.525ZM125.334 96.6831C126.921 96.6211 128.321 97.1401 129.535 98.2407C130.748 99.3413 131.388 100.74 131.455 102.438C131.521 104.135 131.02 105.603 129.952 106.841C128.883 108.078 127.534 108.729 125.905 108.793C124.275 108.857 122.866 108.322 121.678 107.188C120.49 106.055 119.864 104.674 119.8 103.046C119.765 102.157 119.894 101.318 120.185 100.529C120.476 99.7399 120.879 99.0724 121.395 98.5263C121.911 97.9807 122.511 97.5443 123.196 97.2171C123.881 96.8904 124.594 96.7121 125.334 96.6831ZM122.644 102.854C122.681 103.808 123.019 104.569 123.66 105.14C124.299 105.71 125 105.98 125.761 105.95C126.522 105.921 127.197 105.605 127.786 105.002C128.374 104.4 128.65 103.612 128.612 102.637C128.573 101.663 128.235 100.893 127.595 100.328C126.955 99.7632 126.255 99.4953 125.494 99.5252C124.732 99.555 124.058 99.879 123.47 100.497C122.882 101.115 122.606 101.901 122.644 102.854ZM137.798 96.1963C139.385 96.1343 140.785 96.6537 141.999 97.7539C143.213 98.8545 143.853 100.253 143.919 101.951C143.985 103.648 143.485 105.116 142.416 106.354C141.348 107.592 139.999 108.242 138.369 108.306C136.739 108.37 135.331 107.835 134.142 106.701C132.955 105.568 132.328 104.188 132.265 102.56C132.23 101.671 132.358 100.832 132.649 100.042C132.94 99.2535 133.344 98.5861 133.86 98.04C134.375 97.4944 134.975 97.0579 135.661 96.7308C136.346 96.4036 137.059 96.2253 137.798 96.1963ZM135.108 102.367C135.146 103.321 135.484 104.082 136.124 104.652C136.764 105.223 137.464 105.493 138.226 105.463C138.987 105.433 139.662 105.117 140.251 104.515C140.839 103.913 141.114 103.125 141.076 102.15C141.038 101.176 140.699 100.406 140.059 99.8407C139.42 99.2759 138.719 99.008 137.958 99.0379C137.197 99.0678 136.522 99.3917 135.934 100.01C135.346 100.629 135.071 101.414 135.108 102.367ZM152.37 96.2621C152.465 96.0708 152.613 95.9391 152.814 95.8668C153.015 95.7945 153.268 95.7525 153.574 95.7408C153.879 95.7291 154.127 95.7459 154.317 95.7921C154.507 95.8383 154.649 95.8971 154.743 95.9686C154.836 96.04 154.908 96.1501 154.957 96.2981C155.028 96.467 155.071 96.7387 155.085 97.1135L155.435 106.03C155.444 106.287 155.444 106.475 155.433 106.593C155.421 106.712 155.376 106.853 155.296 107.017C155.157 107.312 154.745 107.473 154.059 107.5C153.641 107.516 153.35 107.495 153.186 107.437C153.023 107.379 152.885 107.283 152.772 107.148C150.234 104.029 148.565 101.992 147.765 101.036L147.972 106.321C147.982 106.579 147.982 106.766 147.97 106.885C147.959 107.003 147.913 107.144 147.834 107.309C147.695 107.604 147.282 107.765 146.597 107.791C145.932 107.817 145.519 107.689 145.357 107.405C145.265 107.248 145.209 107.106 145.188 106.977C145.167 106.849 145.151 106.662 145.141 106.416L144.791 97.4514C144.775 97.0444 144.814 96.7452 144.908 96.5539C145.003 96.3625 145.151 96.2309 145.352 96.1585C145.553 96.0862 145.814 96.0437 146.136 96.0316C146.458 96.019 146.714 96.0386 146.904 96.0899C147.093 96.1417 147.227 96.2033 147.305 96.2752C147.349 96.3055 147.478 96.44 147.692 96.6785C150.074 99.6638 151.666 101.634 152.466 102.59L152.253 97.1597C152.237 96.7532 152.275 96.454 152.37 96.2621ZM158.923 102.981C158.721 103.043 158.449 103.08 158.106 103.093C157.762 103.107 157.488 103.091 157.283 103.045C157.077 103 156.931 102.909 156.845 102.772C156.759 102.637 156.706 102.515 156.686 102.409C156.666 102.302 156.651 102.137 156.642 101.912L156.443 96.819C156.434 96.594 156.435 96.425 156.447 96.3121C156.459 96.1991 156.505 96.0712 156.585 95.9289C156.665 95.7865 156.806 95.6815 157.007 95.6148C157.209 95.548 157.481 95.5079 157.824 95.4943C158.167 95.4808 158.442 95.4999 158.648 95.5508C158.854 95.6017 159 95.6978 159.086 95.8393C159.172 95.9807 159.226 96.1072 159.246 96.2192C159.267 96.3312 159.281 96.4993 159.29 96.7242L159.49 101.817C159.498 102.042 159.497 102.209 159.485 102.316C159.473 102.424 159.426 102.546 159.346 102.683C159.266 102.82 159.125 102.92 158.923 102.981ZM156.841 104.937C156.941 104.724 157.098 104.576 157.315 104.492C157.532 104.409 157.874 104.358 158.34 104.34C158.806 104.321 159.148 104.41 159.365 104.605C159.583 104.801 159.699 105.118 159.717 105.557L159.726 105.814C159.737 106.071 159.736 106.262 159.725 106.385C159.713 106.509 159.668 106.658 159.589 106.833C159.43 107.15 159.026 107.322 158.377 107.347C157.728 107.372 157.295 107.285 157.078 107.084C156.861 106.883 156.741 106.483 156.717 105.884C156.701 105.465 156.742 105.15 156.841 104.937Z" fill="#434B53"/>
</svg>
