<svg width="13" height="13" viewBox="0 0 13 13" fill="none" xmlns="http://www.w3.org/2000/svg">
<g clip-path="url(#clip0_834_21275)">
<path d="M7.69101 6.48935L12.753 11.5514C13.0824 11.8807 13.0824 12.4131 12.753 12.7424C12.4237 13.0716 11.8913 13.0716 11.562 12.7424L6.49993 7.68027L1.43799 12.7424C1.10856 13.0716 0.576336 13.0716 0.247067 12.7424C-0.0823557 12.4131 -0.0823557 11.8807 0.247067 11.5514L5.30901 6.48935L0.247067 1.42726C-0.0823557 1.09799 -0.0823557 0.565606 0.247067 0.236339C0.411162 0.0720892 0.626921 -0.0104198 0.842527 -0.0104198C1.05813 -0.0104198 1.27374 0.0720892 1.43799 0.236339L6.49993 5.29843L11.562 0.236339C11.7263 0.0720892 11.9419 -0.0104198 12.1575 -0.0104198C12.3731 -0.0104198 12.5887 0.0720892 12.753 0.236339C13.0824 0.565606 13.0824 1.09799 12.753 1.42726L7.69101 6.48935Z" fill="#393939"/>
</g>
<defs>
<clipPath id="clip0_834_21275">
<rect width="13" height="13" fill="white" transform="matrix(1 0 0 -1 0 13)"/>
</clipPath>
</defs>
</svg>
