<svg width="53" height="53" viewBox="0 0 53 53" fill="none" xmlns="http://www.w3.org/2000/svg">
<path d="M16.9306 29.2485L16.5919 30.4852L14.4278 38.4793L13.9861 40.1135H9.9375V27.5996C14.7958 27.5996 16.9306 29.2485 16.9306 29.2485Z" fill="#F0792E"/>
<path d="M9.9375 27.5996V40.1135H13.25V27.8941C12.3284 27.7203 11.2375 27.5996 9.9375 27.5996Z" fill="#D5651F"/>
<path d="M43.0625 37.1692C43.0625 37.1692 32.3888 43.0581 27.9722 43.0581C24.4683 43.0581 17.2544 39.8045 14.4277 38.4795L16.5919 30.4854L30.7694 33.3856C32.1386 33.6653 33.125 34.8726 33.125 36.2712V36.919C35.245 36.2565 37.468 35.329 39.3819 35.329C42.3263 35.329 43.0625 37.1692 43.0625 37.1692Z" fill="white"/>
<path d="M17.7402 39.2156L19.9044 31.2215L31.3068 33.5535C31.1345 33.4828 30.9564 33.4239 30.7694 33.3856L16.5919 30.4854L14.4277 38.4795C17.0615 39.7147 23.5025 42.6209 27.2037 43.011C23.7337 41.9628 19.6924 40.1299 17.7402 39.2156Z" fill="#D5DBE1"/>
<path d="M14.4278 39.5819L13.6416 39.2625L14.3983 38.4851V37.3604L15.1845 37.6798L14.4278 38.4557V39.5819Z" fill="#434B53"/>
<path d="M7.91211 20.4272H9.38433V23.3717H7.91211V20.4272Z" fill="#A4AFC1"/>
<path d="M7.91211 11.9619H9.38433V14.9064H7.91211V11.9619Z" fill="#A4AFC1"/>
<path d="M11.5938 17.1147H14.5382V18.587H11.5938V17.1147Z" fill="#A4AFC1"/>
<path d="M3.12793 17.1147H6.07238V18.587H3.12793V17.1147Z" fill="#A4AFC1"/>
<path d="M22.0833 9.56949C20.8658 9.56949 19.875 8.57869 19.875 7.36116C19.875 6.14364 20.8658 5.15283 22.0833 5.15283C23.3009 5.15283 24.2917 6.14364 24.2917 7.36116C24.2917 8.57869 23.3009 9.56949 22.0833 9.56949ZM22.0833 6.62505C21.677 6.62505 21.3472 6.9563 21.3472 7.36116C21.3472 7.76602 21.677 8.09727 22.0833 8.09727C22.4897 8.09727 22.8194 7.76602 22.8194 7.36116C22.8194 6.9563 22.4897 6.62505 22.0833 6.62505Z" fill="#A4AFC1"/>
<path d="M35.9588 14.4838H35.8115L39.6761 11.5555C40.5168 10.921 40.0398 9.63867 38.9709 9.63867H28.4019C27.333 9.63867 26.856 10.9195 27.6967 11.5555L31.5612 14.4838H31.414C27.4817 16.6685 24.3105 22.8916 24.3105 27.4025C24.3105 30.6325 26.0154 33.8611 29.9933 33.8611H37.6651C41.643 33.8611 43.0637 30.6311 43.0637 27.4025C43.0622 22.8916 39.8911 16.6685 35.9588 14.4838Z" fill="#F0792E"/>
<path d="M27.623 27.4025C27.623 22.8916 30.7942 16.67 34.7265 14.4838H34.8737L31.0092 11.5555C30.1685 10.921 30.6455 9.63867 31.7144 9.63867H28.4019C27.333 9.63867 26.856 10.9195 27.6967 11.5555L31.5612 14.4838H31.414C27.4817 16.6685 24.3105 22.8916 24.3105 27.4025C24.3105 30.6325 26.0154 33.8611 29.9933 33.8611H33.3058C29.3264 33.8611 27.623 30.6311 27.623 27.4025Z" fill="#D5651F"/>
<path d="M43.9757 29.4448H41.7673V26.677C41.7673 21.6994 37.9499 15.6206 33.4934 15.6206C33.439 15.6206 33.3874 15.6162 33.3359 15.6088C28.9487 15.7649 25.221 21.7642 25.221 26.677V26.8684H23.0127V26.677C23.0127 20.6762 27.687 13.4137 33.492 13.3975C33.545 13.3931 33.623 13.4034 33.6878 13.4152C39.4972 13.5683 43.9771 20.6099 43.9771 26.677V29.4448H43.9757Z" fill="#434B53"/>
<path d="M30.9071 15.3643L27.4592 12.6053C26.7481 12.0371 26.4802 11.1125 26.7834 10.2512C27.0838 9.39 27.867 8.8335 28.7783 8.8335H38.2108C39.1221 8.8335 39.9054 9.39 40.2057 10.2527C40.5075 11.114 40.2396 12.0385 39.527 12.6083L36.082 15.3658L34.7011 13.6388L37.9473 11.0418H29.0389L32.2866 13.6403L30.9071 15.3643Z" fill="#434B53"/>
<path d="M28.1689 13.3975H38.8175V15.6058H28.1689V13.3975Z" fill="#434B53"/>
<path d="M13.9868 41.2222H9.93815C9.32865 41.2222 8.83398 40.7276 8.83398 40.1181V27.6042C8.83398 26.9947 9.32865 26.5 9.93815 26.5C15.0983 26.5 17.5024 28.2917 17.6025 28.3682C17.9588 28.6406 18.1149 29.1014 17.9986 29.5343L15.0541 40.4081C14.9216 40.888 14.4858 41.2222 13.9868 41.2222ZM11.0423 39.0139H13.1417L15.6415 29.7816C14.8716 29.4179 13.3655 28.8762 11.0408 28.7407V39.0139H11.0423Z" fill="#434B53"/>
<path d="M27.9727 44.167C24.4247 44.167 17.651 41.2225 13.9277 39.4691L14.87 37.4713C20.9193 40.3245 25.6952 41.9601 27.9727 41.9601C30.9584 41.9601 37.7365 38.736 41.2875 36.8751C40.8782 36.641 40.2687 36.4393 39.3825 36.4393C38.0898 36.4393 36.4925 36.9708 34.9466 37.4875C33.2345 38.0587 31.4634 38.6476 29.813 38.6476C26.7096 38.6476 22.6153 37.171 22.4431 37.1092L23.1968 35.0333C23.2351 35.048 27.1012 36.4393 29.813 36.4393C31.1056 36.4393 32.703 35.9078 34.2488 35.3911C35.961 34.8198 37.7321 34.231 39.3825 34.231C43.0321 34.231 44.0464 36.6616 44.0877 36.7661C44.2953 37.2843 44.0847 37.8732 43.5959 38.1427C43.1499 38.387 32.6205 44.167 27.9727 44.167Z" fill="#434B53"/>
<path d="M34.2296 36.9382H32.0213V36.2757C32.0213 35.4041 31.403 34.6459 30.5491 34.4722L16.3701 31.5689L16.8133 29.4062L30.9907 32.308C32.8664 32.6893 34.2282 34.3588 34.2282 36.2742V36.9382H34.2296Z" fill="#434B53"/>
</svg>
