<svg width="21" height="21" viewBox="0 0 21 21" fill="none" xmlns="http://www.w3.org/2000/svg">
<path d="M20.3017 13.9408L20.3017 13.9407C20.4483 13.5327 20.2344 13.0818 19.8202 12.9351C19.4052 12.7882 18.9505 13.0039 18.8037 13.4129C17.5659 16.8603 14.2588 19.1747 10.5749 19.1747C5.75995 19.1747 1.84001 15.285 1.84001 10.4999C1.84001 5.71469 5.75995 1.82507 10.5749 1.82507C14.8138 1.82507 18.4309 4.82965 19.172 8.9722M20.3017 13.9408L18.9259 9.01623M20.3017 13.9408C18.8401 18.0125 14.9314 20.75 10.5749 20.75C4.8803 20.75 0.25 16.15 0.25 10.5C0.25 4.85005 4.88017 0.25 10.5749 0.25C15.5896 0.25 19.8622 3.80386 20.7376 8.69737M20.3017 13.9408L20.9837 8.65334M19.172 8.9722L18.9259 9.01623M19.172 8.9722C19.172 8.97219 19.172 8.97218 19.172 8.97217L18.9259 9.01623M19.172 8.9722C19.2485 9.3994 19.6606 9.6871 20.0939 9.61025L20.0942 9.61021C20.5277 9.53379 20.8139 9.12388 20.7376 8.69737M18.9259 9.01623C19.0269 9.58041 19.5696 9.95713 20.1376 9.85641C20.7058 9.75625 21.0846 9.21752 20.9837 8.65334M20.7376 8.69737L20.9837 8.65334M20.7376 8.69737C20.7376 8.69736 20.7376 8.69735 20.7376 8.69735L20.9837 8.65334" fill="#F0792E" stroke="#F7EAE0" stroke-width="0.5"/>
</svg>
