<svg width="24" height="24" viewBox="0 0 24 24" fill="none" xmlns="http://www.w3.org/2000/svg">
<g clip-path="url(#clip0_2645_15251)">
<path d="M24 12C24 18.337 19.087 23.5275 12.8625 23.9691C12.5775 23.9897 12.2902 24 12 24C11.2706 24 10.5567 23.9348 9.86344 23.8102C9.86297 23.8102 9.86203 23.8102 9.86156 23.8097C9.79172 23.7975 9.72234 23.7844 9.65344 23.7703C9.36328 23.7131 9.07687 23.6452 8.79469 23.5669C8.57344 23.5059 8.35453 23.4384 8.13844 23.3648C7.32984 23.0906 6.56016 22.732 5.83969 22.3003C5.65922 22.192 5.48156 22.0795 5.30766 21.9623C4.80984 21.6267 4.33781 21.255 3.89672 20.8505C3.36328 20.3616 2.87391 19.8253 2.43609 19.2478C2.31469 19.0889 2.19797 18.9263 2.085 18.7612C2.085 18.7612 2.085 18.7608 2.08453 18.7608C1.71938 18.2259 1.39594 17.6597 1.11937 17.0672C0.783281 16.3463 0.516094 15.5864 0.327656 14.7961C0.327656 14.7956 0.327656 14.7956 0.327656 14.7956C0.113437 13.8989 0 12.9628 0 12C0 5.37281 5.37281 0 12 0C18.6272 0 24 5.37281 24 12Z" fill="#FDF4E2"/>
<path d="M22.0416 4.33783V18.5728C19.8976 21.8414 16.201 24 12.0001 24C7.79912 24 4.10256 21.8414 1.9585 18.5728V4.33783C1.9585 2.69955 3.28646 1.37158 4.92475 1.37158H19.0754C20.7136 1.37158 22.0416 2.69955 22.0416 4.33783Z" fill="#F4AA39"/>
<path d="M6.05725 1.37158C4.55771 1.37158 3.3174 2.48486 3.11912 3.93049C3.10037 4.06361 3.091 4.19955 3.091 4.33783V20.0391C2.67709 19.5811 2.29834 19.0908 1.9585 18.5728V4.33783C1.9585 2.69955 3.28646 1.37158 4.92475 1.37158H6.05725Z" fill="#C98001"/>
<path d="M16.3919 6.26934H7.60832C6.97949 6.26934 6.46973 5.75957 6.46973 5.13075V3.62639C6.46973 2.99756 6.97949 2.48779 7.60832 2.48779H16.392C17.0208 2.48779 17.5306 2.99756 17.5306 3.62639V5.1307C17.5305 5.75957 17.0208 6.26934 16.3919 6.26934Z" fill="#C98001"/>
<path d="M19.0654 6.87547V21.7002C18.5755 22.0578 18.0576 22.3789 17.5152 22.6597C16.9874 22.9334 16.4371 23.1692 15.8671 23.3628H8.13273C7.56227 23.1692 7.01148 22.9334 6.48367 22.6597C5.76273 22.2856 5.08445 21.8408 4.45867 21.3341C4.29602 21.2033 4.13758 21.0678 3.98242 20.9281V6.87547C3.98242 6.50844 4.17883 6.18734 4.4718 6.01156C4.62367 5.91969 4.80133 5.86719 4.99117 5.86719H18.0566C18.6135 5.86719 19.0654 6.31859 19.0654 6.87547Z" fill="#C98001"/>
<path d="M19.5415 6.17234V21.3341C19.3863 21.4602 19.2274 21.582 19.0657 21.7002C18.5759 22.0578 18.0579 22.3789 17.5155 22.6597H6.48398C5.76305 22.2856 5.08477 21.8408 4.45898 21.3341V6.17234C4.45898 6.1175 4.4632 6.06406 4.47211 6.01156C4.54852 5.53109 4.96523 5.16406 5.46727 5.16406H18.5332C19.0901 5.16406 19.5415 5.61547 19.5415 6.17234Z" fill="#F1F4F6"/>
<path d="M15.0508 8.01893H8.94921C7.95199 8.01893 7.14062 7.20762 7.14062 6.21035V3.74121C7.14062 3.45645 7.37148 3.22559 7.65625 3.22559H16.3438C16.6286 3.22559 16.8594 3.45645 16.8594 3.74121V6.2103C16.8594 7.20757 16.0481 8.01893 15.0508 8.01893ZM8.17188 4.25684V6.2103C8.17188 6.63893 8.52058 6.98763 8.94921 6.98763H15.0508C15.4795 6.98763 15.8282 6.63893 15.8282 6.2103V4.25684H8.17188Z" fill="#D0E2E7"/>
<path d="M15.7938 17.5464C15.5853 17.5464 15.3894 17.4414 15.2743 17.2649L13.8786 15.1249C13.6915 14.8379 13.7724 14.4536 14.0594 14.2665C14.3463 14.0794 14.7306 14.1602 14.9178 14.4472L15.6926 15.6352L17.7711 10.9967C17.9111 10.684 18.2782 10.5442 18.5908 10.6843C18.9034 10.8244 19.0433 11.1914 18.9032 11.504L16.3599 17.1798C16.2671 17.3869 16.0687 17.5268 15.8424 17.5445C15.8262 17.5458 15.81 17.5464 15.7938 17.5464Z" fill="#E94A47"/>
<path d="M12.8859 23.791C12.8817 23.8514 12.8737 23.911 12.8625 23.9691C12.5775 23.9897 12.2901 24 12 24C6.3356 24 1.58717 20.0747 0.327637 14.7956C0.363262 13.3153 0.433105 11.835 0.537637 10.3547C0.589668 9.61455 1.16154 9.01689 1.89842 8.93299C5.10748 8.56596 8.31607 8.56596 11.5251 8.93299C12.262 9.01689 12.8339 9.61455 12.8859 10.3547C13.2023 14.8336 13.2023 19.312 12.8859 23.791Z" fill="#20446C"/>
<path d="M2.11076 8.90967C1.68889 9.1717 1.40014 9.62545 1.36311 10.1481C1.20045 12.4548 1.11936 14.7611 1.11936 17.0673C0.783262 16.3464 0.516074 15.5865 0.327637 14.7962C0.327637 14.7958 0.327637 14.7958 0.327637 14.7958C0.363262 13.3154 0.433105 11.8351 0.537637 10.3548C0.589668 9.61514 1.16107 9.01748 1.89842 8.93311C1.96873 8.92514 2.03998 8.91764 2.11076 8.90967Z" fill="#0A2E43"/>
<path d="M10.5123 15.1104H2.91102C2.327 15.1104 1.85352 14.637 1.85352 14.0529V11.4735C1.85352 10.8895 2.32695 10.416 2.91102 10.416H10.5123C11.0963 10.416 11.5698 10.8895 11.5698 11.4735V14.0529C11.5698 14.637 11.0963 15.1104 10.5123 15.1104Z" fill="#F0F0F0"/>
<path d="M4.13089 17.9634H2.48431C2.13594 17.9634 1.85352 17.6809 1.85352 17.3326V16.3622C1.85352 16.0139 2.13594 15.7314 2.48431 15.7314H4.13089C4.47926 15.7314 4.76168 16.0139 4.76168 16.3622V17.3326C4.76168 17.6809 4.47926 17.9634 4.13089 17.9634Z" fill="#F1F4F6"/>
<path d="M3.06659 17.9634H2.48441C2.13589 17.9634 1.85352 17.6805 1.85352 17.3325V16.3618C1.85352 16.0138 2.13584 15.731 2.48441 15.731H3.06659C2.71808 15.731 2.4357 16.0138 2.4357 16.3618V17.3325C2.4357 17.6805 2.71803 17.9634 3.06659 17.9634Z" fill="#D0E2E7"/>
<path d="M7.53519 18.0361H5.88861C5.54024 18.0361 5.25781 17.7537 5.25781 17.4053V16.435C5.25781 16.0866 5.54024 15.8042 5.88861 15.8042H7.53519C7.88357 15.8042 8.16599 16.0866 8.16599 16.435V17.4053C8.16599 17.7537 7.88357 18.0361 7.53519 18.0361Z" fill="#F1F4F6"/>
<path d="M10.939 18.0361H9.29242C8.94404 18.0361 8.66162 17.7537 8.66162 17.4053V16.435C8.66162 16.0866 8.94404 15.8042 9.29242 15.8042H10.939C11.2874 15.8042 11.5698 16.0866 11.5698 16.435V17.4053C11.5698 17.7537 11.2874 18.0361 10.939 18.0361Z" fill="#F1F4F6"/>
<path d="M6.47089 18.0361H5.8887C5.54019 18.0361 5.25781 17.7532 5.25781 17.4052V16.4346C5.25781 16.0866 5.54014 15.8037 5.8887 15.8037H6.47089C6.12238 15.8037 5.84 16.0866 5.84 16.4346V17.4052C5.84 17.7533 6.12233 18.0361 6.47089 18.0361Z" fill="#D0E2E7"/>
<path d="M9.8747 18.0361H9.29251C8.944 18.0361 8.66162 17.7532 8.66162 17.4052V16.4346C8.66162 16.0866 8.94395 15.8037 9.29251 15.8037H9.8747C9.52618 15.8037 9.24381 16.0866 9.24381 16.4346V17.4052C9.24381 17.7533 9.52614 18.0361 9.8747 18.0361Z" fill="#D0E2E7"/>
<path d="M4.76199 19.2491V20.2194C4.76199 20.5682 4.47933 20.8504 4.13105 20.8504H3.89668C3.21605 20.2269 2.60762 19.5262 2.08496 18.7612C2.19371 18.6721 2.33246 18.6187 2.48434 18.6187H4.13105C4.47933 18.6187 4.76199 18.9008 4.76199 19.2491Z" fill="#F1F4F6"/>
<path d="M3.0665 18.6182C2.71869 18.6182 2.43697 18.8999 2.43604 19.2477C2.31463 19.0888 2.19791 18.9261 2.08494 18.7611C2.08494 18.7611 2.08494 18.7607 2.08447 18.7607C2.19322 18.6721 2.33244 18.6182 2.48432 18.6182H3.0665Z" fill="#D0E2E7"/>
<path d="M7.53519 20.9233H5.88861C5.54024 20.9233 5.25781 20.6409 5.25781 20.2925V19.3222C5.25781 18.9738 5.54024 18.6914 5.88861 18.6914H7.53519C7.88357 18.6914 8.16599 18.9738 8.16599 19.3222V20.2925C8.16599 20.6409 7.88357 20.9233 7.53519 20.9233Z" fill="#F1F4F6"/>
<path d="M10.939 20.9233H9.29242C8.94404 20.9233 8.66162 20.6409 8.66162 20.2925V19.3222C8.66162 18.9738 8.94404 18.6914 9.29242 18.6914H10.939C11.2874 18.6914 11.5698 18.9738 11.5698 19.3222V20.2925C11.5698 20.6409 11.2874 20.9233 10.939 20.9233Z" fill="#F1F4F6"/>
<path d="M6.47089 20.9233H5.8887C5.54019 20.9233 5.25781 20.6405 5.25781 20.2924V19.3218C5.25781 18.9738 5.54014 18.6909 5.8887 18.6909H6.47089C6.12238 18.6909 5.84 18.9738 5.84 19.3218V20.2924C5.84 20.6405 6.12233 20.9233 6.47089 20.9233Z" fill="#D0E2E7"/>
<path d="M9.8747 20.9233H9.29251C8.944 20.9233 8.66162 20.6405 8.66162 20.2924V19.3218C8.66162 18.9738 8.94395 18.6909 9.29251 18.6909H9.8747C9.52618 18.6909 9.24381 18.9738 9.24381 19.3218V20.2924C9.24381 20.6405 9.52614 20.9233 9.8747 20.9233Z" fill="#D0E2E7"/>
<path d="M8.16605 22.2086V23.1789C8.16605 23.2436 8.1562 23.3059 8.13839 23.3645C7.1273 23.0214 6.17715 22.547 5.30762 21.962C5.40371 21.7361 5.62777 21.5781 5.8884 21.5781H7.53511C7.88339 21.5781 8.16605 21.8603 8.16605 22.2086Z" fill="#F1F4F6"/>
<path d="M11.5697 22.2086V23.1789C11.5697 23.5277 11.2876 23.8098 10.9393 23.8098H9.8635C9.50115 23.7447 9.1449 23.6636 8.79475 23.5666C8.71131 23.4597 8.66162 23.3252 8.66162 23.1789V22.2086C8.66162 21.8603 8.94428 21.5781 9.29256 21.5781H10.9393C11.2876 21.5781 11.5697 21.8603 11.5697 22.2086Z" fill="#F1F4F6"/>
<path d="M6.47058 21.5776C6.1223 21.5776 5.83965 21.8603 5.83965 22.2086V22.3C5.65918 22.1917 5.48152 22.0792 5.30762 21.962C5.40371 21.7361 5.62777 21.5776 5.8884 21.5776H6.47058Z" fill="#D0E2E7"/>
<path d="M9.86133 23.8096C9.8654 23.81 9.86993 23.81 9.874 23.81H9.86314C9.86269 23.81 9.86178 23.81 9.86133 23.8096Z" fill="#D0E2E7"/>
<path d="M9.6535 23.77C9.36334 23.7128 9.07693 23.6448 8.79475 23.5665C8.71131 23.4592 8.66162 23.3247 8.66162 23.1789V22.2086C8.66162 21.8603 8.94428 21.5776 9.29256 21.5776H9.87475C9.52647 21.5776 9.24381 21.8603 9.24381 22.2086V23.1789C9.24381 23.4494 9.41443 23.6805 9.6535 23.77Z" fill="#D0E2E7"/>
<path d="M3.4245 14.2988C3.39759 14.2988 3.37022 14.2936 3.34383 14.2825C3.23751 14.2379 3.18755 14.1155 3.23212 14.0093L4.35384 11.3365C4.39847 11.2302 4.52072 11.1802 4.62708 11.2248C4.73339 11.2694 4.78336 11.3918 4.73878 11.498L3.61706 14.1708C3.58355 14.2507 3.50606 14.2988 3.4245 14.2988Z" fill="#434B53"/>
<path d="M3.20971 12.6533C2.82136 12.6533 2.50537 12.3013 2.50537 11.8686C2.50537 11.436 2.82136 11.084 3.20971 11.084C3.59812 11.084 3.91406 11.436 3.91406 11.8686C3.91411 12.3013 3.59812 12.6533 3.20971 12.6533ZM3.20971 11.5015C3.05151 11.5015 2.92284 11.6662 2.92284 11.8687C2.92284 12.0712 3.05156 12.2359 3.20971 12.2359C3.36792 12.2359 3.49664 12.0712 3.49664 11.8687C3.49664 11.6662 3.36792 11.5015 3.20971 11.5015Z" fill="#434B53"/>
<path d="M4.72485 14.481C4.33645 14.481 4.02051 14.129 4.02051 13.6963C4.02051 13.2636 4.33649 12.9116 4.72485 12.9116C5.11321 12.9116 5.4292 13.2636 5.4292 13.6963C5.4292 14.129 5.11321 14.481 4.72485 14.481ZM4.72485 13.3291C4.56665 13.3291 4.43793 13.4939 4.43793 13.6964C4.43793 13.8989 4.56665 14.0636 4.72485 14.0636C4.88305 14.0636 5.01173 13.8989 5.01173 13.6964C5.01173 13.4939 4.88301 13.3291 4.72485 13.3291Z" fill="#434B53"/>
<path d="M6.20184 14.2988C6.17494 14.2988 6.14756 14.2936 6.12117 14.2825C6.01486 14.2379 5.96489 14.1155 6.00947 14.0093L7.13119 11.3365C7.17581 11.2302 7.29806 11.1802 7.40442 11.2248C7.51073 11.2694 7.5607 11.3918 7.51612 11.498L6.3944 14.1708C6.36089 14.2507 6.28341 14.2988 6.20184 14.2988Z" fill="#434B53"/>
<path d="M5.98706 12.6533C5.5987 12.6533 5.28271 12.3013 5.28271 11.8686C5.28271 11.436 5.5987 11.084 5.98706 11.084C6.37546 11.084 6.6914 11.436 6.6914 11.8686C6.69144 12.3013 6.37546 12.6533 5.98706 12.6533ZM5.98706 11.5015C5.82885 11.5015 5.70018 11.6662 5.70018 11.8687C5.70018 12.0712 5.8289 12.2359 5.98706 12.2359C6.14526 12.2359 6.27398 12.0712 6.27398 11.8687C6.27398 11.6662 6.14526 11.5015 5.98706 11.5015Z" fill="#434B53"/>
<path d="M7.5022 14.481C7.11379 14.481 6.79785 14.129 6.79785 13.6963C6.79785 13.2636 7.11384 12.9116 7.5022 12.9116C7.89056 12.9116 8.20654 13.2636 8.20654 13.6963C8.20654 14.129 7.8906 14.481 7.5022 14.481ZM7.5022 13.3291C7.34399 13.3291 7.21527 13.4939 7.21527 13.6964C7.21527 13.8989 7.34399 14.0636 7.5022 14.0636C7.6604 14.0636 7.78907 13.8989 7.78907 13.6964C7.78907 13.4939 7.6604 13.3291 7.5022 13.3291Z" fill="#434B53"/>
<path d="M8.97967 14.2988C8.95277 14.2988 8.92539 14.2936 8.899 14.2825C8.79269 14.2379 8.74272 14.1155 8.7873 14.0093L9.90902 11.3365C9.95364 11.2302 10.0759 11.1802 10.1823 11.2248C10.2886 11.2694 10.3385 11.3918 10.294 11.498L9.17224 14.1708C9.13872 14.2507 9.06124 14.2988 8.97967 14.2988Z" fill="#434B53"/>
<path d="M8.76489 12.6533C8.37653 12.6533 8.06055 12.3013 8.06055 11.8686C8.06055 11.436 8.37653 11.084 8.76489 11.084C9.1533 11.084 9.46923 11.436 9.46923 11.8686C9.46928 12.3013 9.1533 12.6533 8.76489 12.6533ZM8.76489 11.5015C8.60669 11.5015 8.47802 11.6662 8.47802 11.8687C8.47802 12.0712 8.60673 12.2359 8.76489 12.2359C8.92309 12.2359 9.05181 12.0712 9.05181 11.8687C9.05181 11.6662 8.92309 11.5015 8.76489 11.5015Z" fill="#434B53"/>
<path d="M10.28 14.481C9.89162 14.481 9.57568 14.129 9.57568 13.6963C9.57568 13.2636 9.89167 12.9116 10.28 12.9116C10.6684 12.9116 10.9844 13.2636 10.9844 13.6963C10.9844 14.129 10.6684 14.481 10.28 14.481ZM10.28 13.3291C10.1218 13.3291 9.99311 13.4939 9.99311 13.6964C9.99311 13.8989 10.1218 14.0636 10.28 14.0636C10.4382 14.0636 10.5669 13.8989 10.5669 13.6964C10.5669 13.4939 10.4382 13.3291 10.28 13.3291Z" fill="#434B53"/>
</g>
<defs>
<clipPath id="clip0_2645_15251">
<rect width="24" height="24" fill="white"/>
</clipPath>
</defs>
</svg>
