<svg width="43" height="43" viewBox="0 0 43 43" fill="none" xmlns="http://www.w3.org/2000/svg">
<circle cx="21.5" cy="21.5" r="21.5" fill="#FFEEDC"/>
<path d="M22.8154 22.5781C26.8347 22.5781 30.1045 19.3082 30.1045 15.2891C30.1045 11.2699 26.8347 8 22.8154 8C18.7962 8 15.5264 11.2699 15.5264 15.2891C15.5264 19.3082 18.7962 22.5781 22.8154 22.5781ZM22.8154 9.52349C25.9946 9.52349 28.581 12.1099 28.581 15.2891C28.581 18.4682 25.9946 21.0546 22.8155 21.0546C19.6363 21.0546 17.0499 18.4682 17.0499 15.2891C17.0499 12.1099 19.6363 9.52349 22.8154 9.52349Z" fill="#F0792E"/>
<path d="M27.4532 24.7221L26.4252 25.7502C26.0542 24.9077 25.2113 24.3182 24.2333 24.3182H18.9008C16.824 24.3182 15.9651 26.0089 15.7817 26.7659H14.6031V25.8958C14.6031 25.4751 14.262 25.1341 13.8413 25.1341H9.76175C9.34106 25.1341 9 25.4751 9 25.8958V33.239C9 33.6597 9.34106 34.0008 9.76175 34.0008H13.8413C14.262 34.0008 14.6031 33.6597 14.6031 33.239V32.369H25.1072C26.0544 32.369 26.9452 32 27.6156 31.3299L33.146 25.7993C33.4435 25.5018 33.4432 25.0192 33.146 24.722C31.5765 23.1526 29.0228 23.1526 27.4532 24.7221ZM13.0796 32.4773H10.5235V26.6576H13.0796V32.4773H13.0796ZM26.5384 30.2525C26.1559 30.6349 25.6476 30.8454 25.1072 30.8454H14.6031V28.2894H16.4531C16.8738 28.2894 17.2149 27.9483 17.2149 27.5276C17.2149 26.5958 17.9684 25.8416 18.9009 25.8416H24.2333C24.7131 25.8416 25.1034 26.2319 25.1034 26.7117C25.1034 27.4234 24.4469 27.5782 24.2484 27.5817C24.248 27.5817 24.2475 27.5817 24.2473 27.5817C24.2427 27.5817 24.238 27.5818 24.2333 27.5818H21.4476C21.0269 27.5818 20.6859 27.9228 20.6859 28.3435C20.6859 28.7642 21.0269 29.1052 21.4476 29.1052H24.2336C24.8723 29.1052 25.4731 28.8565 25.9257 28.4043L28.5305 25.7992C29.3183 25.0115 30.505 24.8598 31.4463 25.3444L26.5384 30.2525Z" fill="#F0792E"/>
<path d="M32.9473 12.7064L34.5792 11.8905C34.9555 11.7024 35.108 11.2448 34.9198 10.8685C34.7317 10.4922 34.2742 10.3397 33.8978 10.5278L32.266 11.3438C31.8897 11.5319 31.7372 11.9894 31.9253 12.3657C32.1142 12.7434 32.5725 12.8937 32.9473 12.7064Z" fill="#F0792E"/>
<path d="M34.5792 18.6874L32.9473 17.8715C32.5712 17.6836 32.1135 17.8359 31.9253 18.2122C31.7372 18.5885 31.8897 19.0461 32.266 19.2342L33.8978 20.0501C34.2736 20.2379 34.7314 20.0862 34.9198 19.7094C35.108 19.3331 34.9555 18.8755 34.5792 18.6874Z" fill="#F0792E"/>
<path d="M11.0531 11.8905L12.6849 12.7064C13.0598 12.8938 13.518 12.7435 13.7069 12.3657C13.8951 11.9894 13.7426 11.5319 13.3663 11.3438L11.7344 10.5278C11.358 10.3397 10.9006 10.4922 10.7124 10.8685C10.5243 11.2448 10.6768 11.7024 11.0531 11.8905Z" fill="#F0792E"/>
<path d="M11.7344 20.0501L13.3663 19.2342C13.7426 19.0461 13.8951 18.5885 13.7069 18.2122C13.5188 17.8359 13.061 17.6836 12.6849 17.8715L11.0531 18.6874C10.6768 18.8755 10.5243 19.3331 10.7124 19.7094C10.9008 20.0862 11.3586 20.238 11.7344 20.0501Z" fill="#F0792E"/>
<path d="M25.4961 13.8481C25.7744 13.8481 26 13.6582 26 13.424C26 13.19 25.7744 13 25.4961 13H21.5051C21.2267 13 21.0011 13.19 21.0011 13.424C21.0011 13.6582 21.2267 13.8481 21.5051 13.8481H22.6489C23.1219 13.8474 23.5517 14.0796 23.7475 14.4417H21.51C21.2318 14.4417 21.0061 14.6317 21.0061 14.8657C21.0061 15.0999 21.2318 15.2897 21.51 15.2897H23.7475C23.5499 15.6508 23.1212 15.8824 22.6489 15.8834H21.5051C21.2984 15.8836 21.1126 15.9897 21.036 16.1512C20.9594 16.3127 21.0074 16.4972 21.1572 16.617L24.0095 18.8855C24.1038 18.9597 24.2282 19.0007 24.3571 19C24.4957 18.9993 24.6282 18.952 24.725 18.8686C24.8168 18.7871 24.8662 18.6783 24.8624 18.5662C24.8587 18.4541 24.802 18.3477 24.705 18.2707L22.7698 16.7314C23.7514 16.6837 24.5794 16.0992 24.8057 15.2941H25.4961C25.7744 15.2941 26 15.1042 26 14.87C26 14.6358 25.7744 14.446 25.4961 14.446H24.8057C24.7471 14.2348 24.6447 14.0337 24.5034 13.8524H25.4961V13.8481Z" fill="#F0792E"/>
</svg>
