<svg width="19" height="19" viewBox="0 0 19 19" fill="none" xmlns="http://www.w3.org/2000/svg">
<path d="M2.14023 2.14023L6.40112 1.36552L9.11259 3.30229L11.4367 0.590818L13.3735 1.75288L13.7608 4.077L16.4723 7.17582L18.4091 12.5988L16.0849 15.3102L12.5988 17.6344L5.62641 16.8597L1.75288 18.7964L0.590818 14.1482L2.91494 12.9861L3.68964 13.3735L6.01376 10.662L2.91494 9.49994L0.978171 7.56318V4.8517L2.14023 2.14023Z" fill="#FEEEE4"/>
<mask id="path-2-outside-1_2120_11500" maskUnits="userSpaceOnUse" x="-0.813243" y="-0.813243" width="20.336" height="20.336" fill="black">
<rect fill="white" x="-0.813243" y="-0.813243" width="20.336" height="20.336"/>
<path d="M18.7449 12.1943C18.6946 12.0141 18.6098 11.8471 18.4928 11.6976C18.2872 11.4354 18.0025 11.2626 17.6946 11.1879C17.7055 11.0461 17.7116 10.902 17.7116 10.7563C17.7116 9.43082 17.2778 8.00953 16.4901 6.75431C16.4098 6.62645 16.2398 6.58715 16.1106 6.66643C15.9812 6.74571 15.9414 6.91362 16.0216 7.04145C16.7454 8.19467 17.1605 9.5487 17.1605 10.7563C17.1605 10.8926 17.1546 11.0273 17.1442 11.1594C16.9407 11.1871 16.7411 11.2576 16.5601 11.3738L12.749 13.8188C12.4133 14.034 12.0116 14.1154 11.6176 14.0477L8.51517 13.5138L10.1569 12.5411C10.901 12.1005 11.1599 11.1651 10.7462 10.4116C10.3867 9.75675 9.62819 9.43674 8.90245 9.63335C8.80582 9.65931 8.71043 9.69483 8.61894 9.73899L6.29866 10.859C6.298 10.8248 6.29741 10.7906 6.29741 10.7563C6.29741 10.6117 6.30359 10.4635 6.3152 10.3136C7.10446 10.1042 7.82806 9.69345 8.4214 9.107C9.31296 8.22586 9.80393 7.05434 9.80393 5.8082C9.80393 5.46906 9.76726 5.13551 9.69638 4.81176C10.3554 4.4436 11.0382 4.25662 11.729 4.25662C13.0407 4.25662 14.3443 4.94289 15.3996 6.18907C15.4541 6.25342 15.5323 6.28665 15.6111 6.28665C15.6735 6.28665 15.7363 6.2658 15.7878 6.22314C15.9046 6.12661 15.92 5.95481 15.8223 5.83947C15.1746 5.07464 14.4362 4.50167 13.6535 4.14408C13.9004 3.77697 14.0576 3.3937 14.1118 3.02021C14.1769 2.57234 14.0908 2.16576 13.8693 1.87531C13.6462 1.58258 13.3125 1.4464 12.9501 1.48485C12.9468 1.45417 12.9428 1.42236 12.9379 1.38964C12.8847 1.03299 12.76 0.748644 12.5673 0.54441C12.3568 0.321437 12.067 0.203559 11.729 0.203559C11.3909 0.203559 11.1011 0.321437 10.8906 0.54441C10.698 0.748608 10.5732 1.03299 10.5201 1.38964C10.5152 1.42232 10.5112 1.45417 10.5079 1.48482C10.1452 1.4464 9.81198 1.58265 9.5888 1.87527C9.36734 2.16572 9.28114 2.5723 9.34617 3.02017C9.40041 3.39385 9.55767 3.77726 9.80474 4.14451C9.71722 4.18471 9.62999 4.22727 9.54327 4.27299C9.31256 3.61671 8.93314 3.01516 8.4214 2.50944C7.52985 1.6283 6.34448 1.14302 5.08361 1.14302C3.82274 1.14302 2.63738 1.6283 1.74579 2.50944C0.854266 3.39058 0.363256 4.5621 0.363256 5.80824C0.363256 7.05438 0.854266 8.2259 1.74582 9.10704C2.63742 9.98818 3.82278 10.4735 5.08365 10.4735C5.31043 10.4735 5.53476 10.4575 5.7554 10.4266C5.74945 10.5378 5.74629 10.6479 5.74629 10.7563C5.74629 10.8783 5.75055 10.9999 5.75823 11.1199L4.47183 11.7409C4.40495 11.7729 4.33918 11.8098 4.27723 11.8499C3.79324 12.1603 3.49179 12.6799 3.45732 13.242L3.12163 13.3339C3.08643 13.2488 3.05097 13.1635 3.01507 13.0781C2.96764 12.9653 2.84961 12.8974 2.72726 12.9123C1.87145 13.0153 1.06602 13.2966 0.333347 13.7483C0.228442 13.813 0.17994 13.9388 0.2147 14.056C0.673964 15.6036 1.22413 17.1422 1.84988 18.6288C1.89302 18.7313 1.99407 18.7965 2.10419 18.7965C2.11528 18.7965 2.12645 18.7959 2.13766 18.7945C2.99442 18.6913 3.79978 18.41 4.53139 17.9584C4.63618 17.8938 4.68461 17.7681 4.64989 17.6509C4.63489 17.6003 4.61946 17.5497 4.60429 17.4991L5.60123 17.1346L11.9227 17.895C12.0077 17.9053 12.0928 17.9104 12.1778 17.9104C12.6602 17.9104 13.1362 17.7475 13.5142 17.4475L18.2454 13.6967C18.2484 13.6945 18.2513 13.6923 18.2542 13.69C18.7049 13.3325 18.8976 12.7457 18.7449 12.1943ZM10.0289 2.20312C10.1729 2.01432 10.398 1.97205 10.6629 2.08412C10.7513 2.12149 10.8528 2.1107 10.9311 2.05572C11.0094 2.00074 11.053 1.90945 11.0463 1.81477C11.0459 1.80885 11.0124 1.21413 11.2937 0.915983C11.4002 0.803116 11.5425 0.748281 11.729 0.748281C11.9148 0.748281 12.0569 0.802789 12.1632 0.914893C12.399 1.16347 12.4224 1.64925 12.4116 1.81477C12.4049 1.90945 12.4486 2.00074 12.5268 2.05572C12.6051 2.11074 12.7067 2.12149 12.795 2.08412C13.06 1.97205 13.2852 2.01429 13.4292 2.20312C13.6827 2.53566 13.6496 3.22302 13.1274 3.93854C12.6695 3.78921 12.2005 3.71193 11.729 3.71193C11.2566 3.71193 10.789 3.78797 10.3302 3.9381C9.80834 3.22277 9.77542 2.53562 10.0289 2.20312ZM2.13557 8.72185C1.34807 7.94358 0.914416 6.90883 0.914416 5.80824C0.914416 4.70765 1.34811 3.67286 2.13557 2.89459C2.92303 2.11633 3.97001 1.68774 5.08361 1.68774C6.19721 1.68774 7.24423 2.11633 8.03162 2.89459C8.55372 3.41059 8.92009 4.03938 9.10785 4.7253C9.11065 4.74171 9.11487 4.75802 9.12082 4.77399C9.20772 5.10773 9.25274 5.45453 9.25274 5.8082C9.25274 6.90883 8.81908 7.94358 8.03162 8.72181C7.2442 9.50007 6.19721 9.92866 5.08361 9.92866C3.97001 9.92866 2.92303 9.50011 2.13557 8.72185ZM17.9166 13.2592C17.914 13.2611 17.9114 13.263 17.9089 13.265L13.1692 17.0226C12.8396 17.2842 12.4098 17.4051 11.9894 17.3543L5.60148 16.5859C5.55783 16.5807 5.5137 16.5858 5.47259 16.6008L4.44394 16.9769C4.25555 16.3772 4.0532 15.7776 3.83942 15.187C3.78813 15.0453 3.63042 14.9717 3.48712 15.0223C3.34382 15.073 3.26919 15.2289 3.32049 15.3705C3.58674 16.1061 3.83538 16.8558 4.06059 17.6022C3.50634 17.9157 2.90826 18.1246 2.27744 18.225C1.71985 16.8821 1.22487 15.4979 0.804074 14.1048C1.35906 13.7912 1.95721 13.5823 2.58741 13.4819C2.62562 13.574 2.66321 13.6658 2.70051 13.7573C2.70153 13.7599 2.7026 13.7626 2.7037 13.7652C2.78476 13.9644 2.86365 14.1619 2.93916 14.3558C2.99383 14.4962 3.15334 14.5663 3.29532 14.5121C3.43737 14.4581 3.50818 14.3005 3.4535 14.1601C3.41268 14.0553 3.37068 13.9492 3.32817 13.8426L3.80639 13.7117C3.93224 13.6772 4.01631 13.5602 4.00782 13.4315C3.97817 12.9821 4.19643 12.5511 4.57824 12.3062C4.62134 12.2782 4.66631 12.253 4.71279 12.2308L8.86079 10.2284C8.92112 10.1993 8.98377 10.176 9.04756 10.1588C9.52574 10.0293 10.025 10.2401 10.2618 10.6713C10.5342 11.1676 10.3637 11.7836 9.8736 12.0738L7.59657 13.4229C7.4978 13.4814 7.44629 13.5945 7.46731 13.7063C7.48836 13.8182 7.57758 13.9053 7.691 13.9248L11.5231 14.5843C12.0545 14.6755 12.5963 14.5659 13.049 14.2757L16.8602 11.8305C17.0154 11.7309 17.1893 11.6846 17.3606 11.6866C17.3607 11.6866 17.3607 11.6866 17.3609 11.6866C17.3725 11.6881 17.3841 11.6888 17.3956 11.6888C17.4007 11.6888 17.4058 11.6884 17.4108 11.6881C17.6569 11.7048 17.8935 11.8224 18.057 12.031C18.1297 12.124 18.1824 12.2277 18.2135 12.3386C18.3072 12.6769 18.1907 13.0372 17.9166 13.2592Z"/>
</mask>
<path d="M18.7449 12.1943C18.6946 12.0141 18.6098 11.8471 18.4928 11.6976C18.2872 11.4354 18.0025 11.2626 17.6946 11.1879C17.7055 11.0461 17.7116 10.902 17.7116 10.7563C17.7116 9.43082 17.2778 8.00953 16.4901 6.75431C16.4098 6.62645 16.2398 6.58715 16.1106 6.66643C15.9812 6.74571 15.9414 6.91362 16.0216 7.04145C16.7454 8.19467 17.1605 9.5487 17.1605 10.7563C17.1605 10.8926 17.1546 11.0273 17.1442 11.1594C16.9407 11.1871 16.7411 11.2576 16.5601 11.3738L12.749 13.8188C12.4133 14.034 12.0116 14.1154 11.6176 14.0477L8.51517 13.5138L10.1569 12.5411C10.901 12.1005 11.1599 11.1651 10.7462 10.4116C10.3867 9.75675 9.62819 9.43674 8.90245 9.63335C8.80582 9.65931 8.71043 9.69483 8.61894 9.73899L6.29866 10.859C6.298 10.8248 6.29741 10.7906 6.29741 10.7563C6.29741 10.6117 6.30359 10.4635 6.3152 10.3136C7.10446 10.1042 7.82806 9.69345 8.4214 9.107C9.31296 8.22586 9.80393 7.05434 9.80393 5.8082C9.80393 5.46906 9.76726 5.13551 9.69638 4.81176C10.3554 4.4436 11.0382 4.25662 11.729 4.25662C13.0407 4.25662 14.3443 4.94289 15.3996 6.18907C15.4541 6.25342 15.5323 6.28665 15.6111 6.28665C15.6735 6.28665 15.7363 6.2658 15.7878 6.22314C15.9046 6.12661 15.92 5.95481 15.8223 5.83947C15.1746 5.07464 14.4362 4.50167 13.6535 4.14408C13.9004 3.77697 14.0576 3.3937 14.1118 3.02021C14.1769 2.57234 14.0908 2.16576 13.8693 1.87531C13.6462 1.58258 13.3125 1.4464 12.9501 1.48485C12.9468 1.45417 12.9428 1.42236 12.9379 1.38964C12.8847 1.03299 12.76 0.748644 12.5673 0.54441C12.3568 0.321437 12.067 0.203559 11.729 0.203559C11.3909 0.203559 11.1011 0.321437 10.8906 0.54441C10.698 0.748608 10.5732 1.03299 10.5201 1.38964C10.5152 1.42232 10.5112 1.45417 10.5079 1.48482C10.1452 1.4464 9.81198 1.58265 9.5888 1.87527C9.36734 2.16572 9.28114 2.5723 9.34617 3.02017C9.40041 3.39385 9.55767 3.77726 9.80474 4.14451C9.71722 4.18471 9.62999 4.22727 9.54327 4.27299C9.31256 3.61671 8.93314 3.01516 8.4214 2.50944C7.52985 1.6283 6.34448 1.14302 5.08361 1.14302C3.82274 1.14302 2.63738 1.6283 1.74579 2.50944C0.854266 3.39058 0.363256 4.5621 0.363256 5.80824C0.363256 7.05438 0.854266 8.2259 1.74582 9.10704C2.63742 9.98818 3.82278 10.4735 5.08365 10.4735C5.31043 10.4735 5.53476 10.4575 5.7554 10.4266C5.74945 10.5378 5.74629 10.6479 5.74629 10.7563C5.74629 10.8783 5.75055 10.9999 5.75823 11.1199L4.47183 11.7409C4.40495 11.7729 4.33918 11.8098 4.27723 11.8499C3.79324 12.1603 3.49179 12.6799 3.45732 13.242L3.12163 13.3339C3.08643 13.2488 3.05097 13.1635 3.01507 13.0781C2.96764 12.9653 2.84961 12.8974 2.72726 12.9123C1.87145 13.0153 1.06602 13.2966 0.333347 13.7483C0.228442 13.813 0.17994 13.9388 0.2147 14.056C0.673964 15.6036 1.22413 17.1422 1.84988 18.6288C1.89302 18.7313 1.99407 18.7965 2.10419 18.7965C2.11528 18.7965 2.12645 18.7959 2.13766 18.7945C2.99442 18.6913 3.79978 18.41 4.53139 17.9584C4.63618 17.8938 4.68461 17.7681 4.64989 17.6509C4.63489 17.6003 4.61946 17.5497 4.60429 17.4991L5.60123 17.1346L11.9227 17.895C12.0077 17.9053 12.0928 17.9104 12.1778 17.9104C12.6602 17.9104 13.1362 17.7475 13.5142 17.4475L18.2454 13.6967C18.2484 13.6945 18.2513 13.6923 18.2542 13.69C18.7049 13.3325 18.8976 12.7457 18.7449 12.1943ZM10.0289 2.20312C10.1729 2.01432 10.398 1.97205 10.6629 2.08412C10.7513 2.12149 10.8528 2.1107 10.9311 2.05572C11.0094 2.00074 11.053 1.90945 11.0463 1.81477C11.0459 1.80885 11.0124 1.21413 11.2937 0.915983C11.4002 0.803116 11.5425 0.748281 11.729 0.748281C11.9148 0.748281 12.0569 0.802789 12.1632 0.914893C12.399 1.16347 12.4224 1.64925 12.4116 1.81477C12.4049 1.90945 12.4486 2.00074 12.5268 2.05572C12.6051 2.11074 12.7067 2.12149 12.795 2.08412C13.06 1.97205 13.2852 2.01429 13.4292 2.20312C13.6827 2.53566 13.6496 3.22302 13.1274 3.93854C12.6695 3.78921 12.2005 3.71193 11.729 3.71193C11.2566 3.71193 10.789 3.78797 10.3302 3.9381C9.80834 3.22277 9.77542 2.53562 10.0289 2.20312ZM2.13557 8.72185C1.34807 7.94358 0.914416 6.90883 0.914416 5.80824C0.914416 4.70765 1.34811 3.67286 2.13557 2.89459C2.92303 2.11633 3.97001 1.68774 5.08361 1.68774C6.19721 1.68774 7.24423 2.11633 8.03162 2.89459C8.55372 3.41059 8.92009 4.03938 9.10785 4.7253C9.11065 4.74171 9.11487 4.75802 9.12082 4.77399C9.20772 5.10773 9.25274 5.45453 9.25274 5.8082C9.25274 6.90883 8.81908 7.94358 8.03162 8.72181C7.2442 9.50007 6.19721 9.92866 5.08361 9.92866C3.97001 9.92866 2.92303 9.50011 2.13557 8.72185ZM17.9166 13.2592C17.914 13.2611 17.9114 13.263 17.9089 13.265L13.1692 17.0226C12.8396 17.2842 12.4098 17.4051 11.9894 17.3543L5.60148 16.5859C5.55783 16.5807 5.5137 16.5858 5.47259 16.6008L4.44394 16.9769C4.25555 16.3772 4.0532 15.7776 3.83942 15.187C3.78813 15.0453 3.63042 14.9717 3.48712 15.0223C3.34382 15.073 3.26919 15.2289 3.32049 15.3705C3.58674 16.1061 3.83538 16.8558 4.06059 17.6022C3.50634 17.9157 2.90826 18.1246 2.27744 18.225C1.71985 16.8821 1.22487 15.4979 0.804074 14.1048C1.35906 13.7912 1.95721 13.5823 2.58741 13.4819C2.62562 13.574 2.66321 13.6658 2.70051 13.7573C2.70153 13.7599 2.7026 13.7626 2.7037 13.7652C2.78476 13.9644 2.86365 14.1619 2.93916 14.3558C2.99383 14.4962 3.15334 14.5663 3.29532 14.5121C3.43737 14.4581 3.50818 14.3005 3.4535 14.1601C3.41268 14.0553 3.37068 13.9492 3.32817 13.8426L3.80639 13.7117C3.93224 13.6772 4.01631 13.5602 4.00782 13.4315C3.97817 12.9821 4.19643 12.5511 4.57824 12.3062C4.62134 12.2782 4.66631 12.253 4.71279 12.2308L8.86079 10.2284C8.92112 10.1993 8.98377 10.176 9.04756 10.1588C9.52574 10.0293 10.025 10.2401 10.2618 10.6713C10.5342 11.1676 10.3637 11.7836 9.8736 12.0738L7.59657 13.4229C7.4978 13.4814 7.44629 13.5945 7.46731 13.7063C7.48836 13.8182 7.57758 13.9053 7.691 13.9248L11.5231 14.5843C12.0545 14.6755 12.5963 14.5659 13.049 14.2757L16.8602 11.8305C17.0154 11.7309 17.1893 11.6846 17.3606 11.6866C17.3607 11.6866 17.3607 11.6866 17.3609 11.6866C17.3725 11.6881 17.3841 11.6888 17.3956 11.6888C17.4007 11.6888 17.4058 11.6884 17.4108 11.6881C17.6569 11.7048 17.8935 11.8224 18.057 12.031C18.1297 12.124 18.1824 12.2277 18.2135 12.3386C18.3072 12.6769 18.1907 13.0372 17.9166 13.2592Z" fill="#F0792E"/>
<path d="M18.7449 12.1943C18.6946 12.0141 18.6098 11.8471 18.4928 11.6976C18.2872 11.4354 18.0025 11.2626 17.6946 11.1879C17.7055 11.0461 17.7116 10.902 17.7116 10.7563C17.7116 9.43082 17.2778 8.00953 16.4901 6.75431C16.4098 6.62645 16.2398 6.58715 16.1106 6.66643C15.9812 6.74571 15.9414 6.91362 16.0216 7.04145C16.7454 8.19467 17.1605 9.5487 17.1605 10.7563C17.1605 10.8926 17.1546 11.0273 17.1442 11.1594C16.9407 11.1871 16.7411 11.2576 16.5601 11.3738L12.749 13.8188C12.4133 14.034 12.0116 14.1154 11.6176 14.0477L8.51517 13.5138L10.1569 12.5411C10.901 12.1005 11.1599 11.1651 10.7462 10.4116C10.3867 9.75675 9.62819 9.43674 8.90245 9.63335C8.80582 9.65931 8.71043 9.69483 8.61894 9.73899L6.29866 10.859C6.298 10.8248 6.29741 10.7906 6.29741 10.7563C6.29741 10.6117 6.30359 10.4635 6.3152 10.3136C7.10446 10.1042 7.82806 9.69345 8.4214 9.107C9.31296 8.22586 9.80393 7.05434 9.80393 5.8082C9.80393 5.46906 9.76726 5.13551 9.69638 4.81176C10.3554 4.4436 11.0382 4.25662 11.729 4.25662C13.0407 4.25662 14.3443 4.94289 15.3996 6.18907C15.4541 6.25342 15.5323 6.28665 15.6111 6.28665C15.6735 6.28665 15.7363 6.2658 15.7878 6.22314C15.9046 6.12661 15.92 5.95481 15.8223 5.83947C15.1746 5.07464 14.4362 4.50167 13.6535 4.14408C13.9004 3.77697 14.0576 3.3937 14.1118 3.02021C14.1769 2.57234 14.0908 2.16576 13.8693 1.87531C13.6462 1.58258 13.3125 1.4464 12.9501 1.48485C12.9468 1.45417 12.9428 1.42236 12.9379 1.38964C12.8847 1.03299 12.76 0.748644 12.5673 0.54441C12.3568 0.321437 12.067 0.203559 11.729 0.203559C11.3909 0.203559 11.1011 0.321437 10.8906 0.54441C10.698 0.748608 10.5732 1.03299 10.5201 1.38964C10.5152 1.42232 10.5112 1.45417 10.5079 1.48482C10.1452 1.4464 9.81198 1.58265 9.5888 1.87527C9.36734 2.16572 9.28114 2.5723 9.34617 3.02017C9.40041 3.39385 9.55767 3.77726 9.80474 4.14451C9.71722 4.18471 9.62999 4.22727 9.54327 4.27299C9.31256 3.61671 8.93314 3.01516 8.4214 2.50944C7.52985 1.6283 6.34448 1.14302 5.08361 1.14302C3.82274 1.14302 2.63738 1.6283 1.74579 2.50944C0.854266 3.39058 0.363256 4.5621 0.363256 5.80824C0.363256 7.05438 0.854266 8.2259 1.74582 9.10704C2.63742 9.98818 3.82278 10.4735 5.08365 10.4735C5.31043 10.4735 5.53476 10.4575 5.7554 10.4266C5.74945 10.5378 5.74629 10.6479 5.74629 10.7563C5.74629 10.8783 5.75055 10.9999 5.75823 11.1199L4.47183 11.7409C4.40495 11.7729 4.33918 11.8098 4.27723 11.8499C3.79324 12.1603 3.49179 12.6799 3.45732 13.242L3.12163 13.3339C3.08643 13.2488 3.05097 13.1635 3.01507 13.0781C2.96764 12.9653 2.84961 12.8974 2.72726 12.9123C1.87145 13.0153 1.06602 13.2966 0.333347 13.7483C0.228442 13.813 0.17994 13.9388 0.2147 14.056C0.673964 15.6036 1.22413 17.1422 1.84988 18.6288C1.89302 18.7313 1.99407 18.7965 2.10419 18.7965C2.11528 18.7965 2.12645 18.7959 2.13766 18.7945C2.99442 18.6913 3.79978 18.41 4.53139 17.9584C4.63618 17.8938 4.68461 17.7681 4.64989 17.6509C4.63489 17.6003 4.61946 17.5497 4.60429 17.4991L5.60123 17.1346L11.9227 17.895C12.0077 17.9053 12.0928 17.9104 12.1778 17.9104C12.6602 17.9104 13.1362 17.7475 13.5142 17.4475L18.2454 13.6967C18.2484 13.6945 18.2513 13.6923 18.2542 13.69C18.7049 13.3325 18.8976 12.7457 18.7449 12.1943ZM10.0289 2.20312C10.1729 2.01432 10.398 1.97205 10.6629 2.08412C10.7513 2.12149 10.8528 2.1107 10.9311 2.05572C11.0094 2.00074 11.053 1.90945 11.0463 1.81477C11.0459 1.80885 11.0124 1.21413 11.2937 0.915983C11.4002 0.803116 11.5425 0.748281 11.729 0.748281C11.9148 0.748281 12.0569 0.802789 12.1632 0.914893C12.399 1.16347 12.4224 1.64925 12.4116 1.81477C12.4049 1.90945 12.4486 2.00074 12.5268 2.05572C12.6051 2.11074 12.7067 2.12149 12.795 2.08412C13.06 1.97205 13.2852 2.01429 13.4292 2.20312C13.6827 2.53566 13.6496 3.22302 13.1274 3.93854C12.6695 3.78921 12.2005 3.71193 11.729 3.71193C11.2566 3.71193 10.789 3.78797 10.3302 3.9381C9.80834 3.22277 9.77542 2.53562 10.0289 2.20312ZM2.13557 8.72185C1.34807 7.94358 0.914416 6.90883 0.914416 5.80824C0.914416 4.70765 1.34811 3.67286 2.13557 2.89459C2.92303 2.11633 3.97001 1.68774 5.08361 1.68774C6.19721 1.68774 7.24423 2.11633 8.03162 2.89459C8.55372 3.41059 8.92009 4.03938 9.10785 4.7253C9.11065 4.74171 9.11487 4.75802 9.12082 4.77399C9.20772 5.10773 9.25274 5.45453 9.25274 5.8082C9.25274 6.90883 8.81908 7.94358 8.03162 8.72181C7.2442 9.50007 6.19721 9.92866 5.08361 9.92866C3.97001 9.92866 2.92303 9.50011 2.13557 8.72185ZM17.9166 13.2592C17.914 13.2611 17.9114 13.263 17.9089 13.265L13.1692 17.0226C12.8396 17.2842 12.4098 17.4051 11.9894 17.3543L5.60148 16.5859C5.55783 16.5807 5.5137 16.5858 5.47259 16.6008L4.44394 16.9769C4.25555 16.3772 4.0532 15.7776 3.83942 15.187C3.78813 15.0453 3.63042 14.9717 3.48712 15.0223C3.34382 15.073 3.26919 15.2289 3.32049 15.3705C3.58674 16.1061 3.83538 16.8558 4.06059 17.6022C3.50634 17.9157 2.90826 18.1246 2.27744 18.225C1.71985 16.8821 1.22487 15.4979 0.804074 14.1048C1.35906 13.7912 1.95721 13.5823 2.58741 13.4819C2.62562 13.574 2.66321 13.6658 2.70051 13.7573C2.70153 13.7599 2.7026 13.7626 2.7037 13.7652C2.78476 13.9644 2.86365 14.1619 2.93916 14.3558C2.99383 14.4962 3.15334 14.5663 3.29532 14.5121C3.43737 14.4581 3.50818 14.3005 3.4535 14.1601C3.41268 14.0553 3.37068 13.9492 3.32817 13.8426L3.80639 13.7117C3.93224 13.6772 4.01631 13.5602 4.00782 13.4315C3.97817 12.9821 4.19643 12.5511 4.57824 12.3062C4.62134 12.2782 4.66631 12.253 4.71279 12.2308L8.86079 10.2284C8.92112 10.1993 8.98377 10.176 9.04756 10.1588C9.52574 10.0293 10.025 10.2401 10.2618 10.6713C10.5342 11.1676 10.3637 11.7836 9.8736 12.0738L7.59657 13.4229C7.4978 13.4814 7.44629 13.5945 7.46731 13.7063C7.48836 13.8182 7.57758 13.9053 7.691 13.9248L11.5231 14.5843C12.0545 14.6755 12.5963 14.5659 13.049 14.2757L16.8602 11.8305C17.0154 11.7309 17.1893 11.6846 17.3606 11.6866C17.3607 11.6866 17.3607 11.6866 17.3609 11.6866C17.3725 11.6881 17.3841 11.6888 17.3956 11.6888C17.4007 11.6888 17.4058 11.6884 17.4108 11.6881C17.6569 11.7048 17.8935 11.8224 18.057 12.031C18.1297 12.124 18.1824 12.2277 18.2135 12.3386C18.3072 12.6769 18.1907 13.0372 17.9166 13.2592Z" stroke="#F0792E" stroke-width="0.4" mask="url(#path-2-outside-1_2120_11500)"/>
<path d="M3.23275 17.0845L3.23284 17.0847C3.30395 17.2517 3.23923 17.45 3.08565 17.5451L3.08565 17.5451C2.80386 17.7194 2.4274 17.46 2.52162 17.1283L3.23275 17.0845ZM3.23275 17.0845C3.16985 16.9377 3.01878 16.8441 2.85714 16.8558L2.85713 16.8558M3.23275 17.0845L2.85713 16.8558M2.85713 16.8558C2.69915 16.8672 2.56442 16.9775 2.52163 17.1282L2.85713 16.8558Z" fill="#F0792E" stroke="#F0792E" stroke-width="0.2"/>
<path d="M14.6265 7.79405C14.7983 7.79405 14.9376 7.65565 14.9376 7.48488C14.9376 7.31423 14.7983 7.1757 14.6265 7.1757H12.1629C11.9911 7.1757 11.8518 7.31423 11.8518 7.48488C11.8518 7.65565 11.9911 7.79405 12.1629 7.79405H12.869C13.161 7.79357 13.4262 7.96289 13.5471 8.2269H12.1659C11.9942 8.2269 11.8548 8.36542 11.8548 8.53607C11.8548 8.70684 11.9942 8.84524 12.1659 8.84524H13.5471C13.4251 9.10853 13.1605 9.27736 12.869 9.27809H12.1629C12.0353 9.27821 11.9206 9.35562 11.8733 9.47338C11.8261 9.59113 11.8557 9.72567 11.9482 9.81298L13.7089 11.4671C13.7671 11.5212 13.8439 11.551 13.9234 11.5505C14.009 11.55 14.0908 11.5155 14.1505 11.4547C14.2072 11.3953 14.2377 11.316 14.2354 11.2342C14.2331 11.1525 14.1981 11.0749 14.1382 11.0188L12.9436 9.89644C13.5496 9.86165 14.0606 9.43545 14.2004 8.84838H14.6265C14.7983 8.84838 14.9376 8.70998 14.9376 8.53921C14.9376 8.36844 14.7983 8.23004 14.6265 8.23004H14.2004C14.1642 8.07605 14.101 7.92944 14.0137 7.79719H14.6265V7.79405Z" fill="#F0792E"/>
<path d="M6.95229 4.07714L7.95033 4.97417L4.29083 8.26329L3.29279 7.36626L6.95229 4.07714Z" fill="#F0792E"/>
<path d="M2.7401 5.14061L5.29181 7.43406L4.30405 8.32184L1.75235 6.0284L2.7401 5.14061Z" fill="#F0792E"/>
</svg>
