<svg width="29" height="29" viewBox="0 0 29 29" fill="none" xmlns="http://www.w3.org/2000/svg">
<g clip-path="url(#clip0_2673_14228)">
<path d="M29 14.5C29 22.1572 23.0635 28.4291 15.5422 28.9626C15.1978 28.9875 14.8506 29 14.5 29C13.6187 29 12.756 28.9213 11.9183 28.7706C11.9178 28.7706 11.9166 28.7706 11.9161 28.77C11.8317 28.7553 11.7478 28.7395 11.6646 28.7225C11.314 28.6534 10.9679 28.5712 10.6269 28.4766C10.3596 28.403 10.0951 28.3214 9.83395 28.2325C8.85689 27.9012 7.92686 27.4679 7.05629 26.9462C6.83822 26.8154 6.62355 26.6794 6.41342 26.5378C5.81189 26.1323 5.24152 25.6831 4.70854 25.1943C4.06396 24.6036 3.47264 23.9556 2.94361 23.2578C2.79691 23.0658 2.65588 22.8692 2.51938 22.6698C2.51938 22.6698 2.51938 22.6693 2.51881 22.6693C2.07758 22.023 1.68676 21.3388 1.35258 20.6229C0.946465 19.7517 0.623613 18.8336 0.395918 17.8786C0.395918 17.878 0.395918 17.878 0.395918 17.878C0.13707 16.7945 0 15.6634 0 14.5C0 6.49215 6.49215 0 14.5 0C22.5079 0 29 6.49215 29 14.5Z" fill="#FDF4E2"/>
<path d="M26.6333 5.24145V22.4421C24.0426 26.3916 19.5759 28.9999 14.4998 28.9999C9.42363 28.9999 4.95695 26.3916 2.36621 22.4421V5.24145C2.36621 3.26186 3.97084 1.65723 5.95043 1.65723H23.0491C25.0287 1.65723 26.6333 3.26186 26.6333 5.24145Z" fill="#F4AA39"/>
<path d="M7.31887 1.65723C5.50693 1.65723 4.00822 3.00244 3.76863 4.74924C3.74598 4.9101 3.73465 5.07436 3.73465 5.24145V24.2138C3.23451 23.6604 2.77686 23.0679 2.36621 22.4421V5.24145C2.36621 3.26186 3.97084 1.65723 5.95043 1.65723H7.31887Z" fill="#C98001"/>
<path d="M19.8067 7.57572H9.19318C8.43335 7.57572 7.81738 6.95975 7.81738 6.19992V4.38215C7.81738 3.62231 8.43335 3.00635 9.19318 3.00635H19.8068C20.5666 3.00635 21.1826 3.62231 21.1826 4.38215V6.19986C21.1825 6.95975 20.5666 7.57572 19.8067 7.57572Z" fill="#C98001"/>
<path d="M23.0368 8.3077V26.2209C22.4449 26.653 21.819 27.041 21.1637 27.3803C20.5259 27.7111 19.8609 27.996 19.1722 28.2299H9.82648C9.13717 27.996 8.47164 27.7111 7.83387 27.3803C6.96273 26.9283 6.14314 26.3908 5.38699 25.7785C5.19045 25.6205 4.999 25.4568 4.81152 25.288V8.3077C4.81152 7.8642 5.04885 7.47621 5.40285 7.26381C5.58637 7.15279 5.80104 7.08936 6.03043 7.08936H21.8179C22.4908 7.08936 23.0368 7.6348 23.0368 8.3077Z" fill="#C98001"/>
<path d="M23.6124 7.45857V25.779C23.4249 25.9314 23.2329 26.0786 23.0375 26.2214C22.4456 26.6535 21.8197 27.0415 21.1644 27.3808H7.83457C6.96344 26.9288 6.14385 26.3913 5.3877 25.779V7.45857C5.3877 7.3923 5.39279 7.32773 5.40355 7.2643C5.49588 6.68373 5.99941 6.24023 6.60603 6.24023H22.394C23.0669 6.24023 23.6124 6.78568 23.6124 7.45857Z" fill="#F1F4F6"/>
<path d="M18.1861 9.68942H10.8133C9.60832 9.68942 8.62793 8.70908 8.62793 7.50405V4.52051C8.62793 4.17642 8.90689 3.89746 9.25098 3.89746H19.7484C20.0925 3.89746 20.3715 4.17642 20.3715 4.52051V7.504C20.3715 8.70902 19.3911 9.68942 18.1861 9.68942ZM9.87402 5.14355V7.504C9.87402 8.02192 10.2954 8.44327 10.8133 8.44327H18.1861C18.704 8.44327 19.1254 8.02192 19.1254 7.504V5.14355H9.87402Z" fill="#D0E2E7"/>
<path d="M19.0844 21.2022C18.8325 21.2022 18.5957 21.0753 18.4567 20.8621L16.7702 18.2762C16.5441 17.9295 16.6419 17.4651 16.9886 17.239C17.3353 17.0129 17.7997 17.1106 18.0259 17.4573L18.9621 18.8929L21.4736 13.2879C21.6428 12.9101 22.0864 12.7412 22.4641 12.9104C22.8419 13.0797 23.0109 13.5232 22.8416 13.9009L19.7685 20.7592C19.6563 21.0094 19.4165 21.1785 19.1431 21.1999C19.1235 21.2015 19.1039 21.2022 19.0844 21.2022Z" fill="#E94A47"/>
<path d="M15.5701 28.7474C15.565 28.8205 15.5554 28.8924 15.5418 28.9627C15.1974 28.9876 14.8502 29 14.4996 29C7.65513 29 1.91744 24.257 0.395508 17.8781C0.438555 16.0894 0.522949 14.3007 0.649258 12.512C0.712129 11.6176 1.40314 10.8954 2.29353 10.794C6.17115 10.3506 10.0482 10.3506 13.9258 10.794C14.8162 10.8954 15.5072 11.6176 15.5701 12.512C15.9524 17.924 15.9524 23.3354 15.5701 28.7474Z" fill="#20446C"/>
<path d="M2.55012 10.7656C2.04035 11.0822 1.69145 11.6305 1.6467 12.2621C1.45016 15.0494 1.35217 17.8361 1.35217 20.6228C0.946055 19.7517 0.623203 18.8335 0.395508 17.8786C0.395508 17.878 0.395508 17.878 0.395508 17.878C0.438555 16.0893 0.522949 14.3006 0.649258 12.5119C0.712129 11.6181 1.40258 10.8959 2.29353 10.7939C2.3785 10.7843 2.46459 10.7753 2.55012 10.7656Z" fill="#0A2E43"/>
<path d="M12.7019 18.2588H3.51707C2.81138 18.2588 2.23926 17.6867 2.23926 16.981V13.8642C2.23926 13.1586 2.81133 12.5864 3.51707 12.5864H12.7019C13.4076 12.5864 13.9797 13.1585 13.9797 13.8642V16.981C13.9797 17.6867 13.4077 18.2588 12.7019 18.2588Z" fill="#F0F0F0"/>
<path d="M4.99108 21.7062H3.00147C2.58052 21.7062 2.23926 21.3649 2.23926 20.944V19.7715C2.23926 19.3505 2.58052 19.0093 3.00147 19.0093H4.99108C5.41204 19.0093 5.75329 19.3505 5.75329 19.7715V20.944C5.75329 21.3649 5.41204 21.7062 4.99108 21.7062Z" fill="#F1F4F6"/>
<path d="M3.70506 21.7063H3.00158C2.58046 21.7063 2.23926 21.3645 2.23926 20.944V19.7711C2.23926 19.3506 2.5804 19.0088 3.00158 19.0088H3.70506C3.28394 19.0088 2.94273 19.3506 2.94273 19.7711V20.944C2.94273 21.3645 3.28388 21.7063 3.70506 21.7063Z" fill="#D0E2E7"/>
<path d="M9.10437 21.7941H7.11475C6.6938 21.7941 6.35254 21.4528 6.35254 21.0318V19.8594C6.35254 19.4384 6.6938 19.0972 7.11475 19.0972H9.10437C9.52533 19.0972 9.86659 19.4384 9.86659 19.8594V21.0318C9.86659 21.4528 9.52533 21.7941 9.10437 21.7941Z" fill="#F1F4F6"/>
<path d="M13.2176 21.7941H11.228C10.8071 21.7941 10.4658 21.4528 10.4658 21.0318V19.8594C10.4658 19.4384 10.8071 19.0972 11.228 19.0972H13.2176C13.6386 19.0972 13.9799 19.4384 13.9799 19.8594V21.0318C13.9799 21.4528 13.6386 21.7941 13.2176 21.7941Z" fill="#F1F4F6"/>
<path d="M7.81834 21.7942H7.11487C6.69374 21.7942 6.35254 21.4524 6.35254 21.0319V19.859C6.35254 19.4385 6.69369 19.0967 7.11487 19.0967H7.81834C7.39722 19.0967 7.05602 19.4385 7.05602 19.859V21.0319C7.05602 21.4524 7.39716 21.7942 7.81834 21.7942Z" fill="#D0E2E7"/>
<path d="M11.9316 21.7942H11.2281C10.807 21.7942 10.4658 21.4524 10.4658 21.0319V19.859C10.4658 19.4385 10.807 19.0967 11.2281 19.0967H11.9316C11.5105 19.0967 11.1693 19.4385 11.1693 19.859V21.0319C11.1693 21.4524 11.5104 21.7942 11.9316 21.7942Z" fill="#D0E2E7"/>
<path d="M5.75427 23.2599V24.4323C5.75427 24.8537 5.41273 25.1947 4.99189 25.1947H4.70869C3.88627 24.4414 3.15107 23.5946 2.51953 22.6702C2.65094 22.5626 2.81859 22.498 3.00211 22.498H4.99189C5.41273 22.498 5.75427 22.839 5.75427 23.2599Z" fill="#F1F4F6"/>
<path d="M3.70518 22.4976C3.2849 22.4976 2.94449 22.838 2.94336 23.2582C2.79666 23.0662 2.65562 22.8697 2.51912 22.6703C2.51912 22.6703 2.51912 22.6697 2.51855 22.6697C2.64996 22.5627 2.81818 22.4976 3.0017 22.4976H3.70518Z" fill="#D0E2E7"/>
<path d="M9.10437 25.2828H7.11475C6.6938 25.2828 6.35254 24.9416 6.35254 24.5206V23.3482C6.35254 22.9272 6.6938 22.5859 7.11475 22.5859H9.10437C9.52533 22.5859 9.86659 22.9272 9.86659 23.3482V24.5206C9.86659 24.9416 9.52533 25.2828 9.10437 25.2828Z" fill="#F1F4F6"/>
<path d="M13.2176 25.2828H11.228C10.8071 25.2828 10.4658 24.9416 10.4658 24.5206V23.3482C10.4658 22.9272 10.8071 22.5859 11.228 22.5859H13.2176C13.6386 22.5859 13.9799 22.9272 13.9799 23.3482V24.5206C13.9799 24.9416 13.6386 25.2828 13.2176 25.2828Z" fill="#F1F4F6"/>
<path d="M7.81834 25.283H7.11487C6.69374 25.283 6.35254 24.9411 6.35254 24.5206V23.3478C6.35254 22.9273 6.69369 22.5854 7.11487 22.5854H7.81834C7.39722 22.5854 7.05602 22.9273 7.05602 23.3478V24.5206C7.05602 24.9411 7.39716 25.283 7.81834 25.283Z" fill="#D0E2E7"/>
<path d="M11.9316 25.283H11.2281C10.807 25.283 10.4658 24.9411 10.4658 24.5206V23.3478C10.4658 22.9273 10.807 22.5854 11.2281 22.5854H11.9316C11.5105 22.5854 11.1693 22.9273 11.1693 23.3478V24.5206C11.1693 24.9411 11.5104 25.283 11.9316 25.283Z" fill="#D0E2E7"/>
<path d="M9.86702 26.836V28.0085C9.86702 28.0867 9.85513 28.162 9.83361 28.2328C8.61187 27.8182 7.46377 27.245 6.41309 26.5381C6.5292 26.2651 6.79994 26.0742 7.11486 26.0742H9.10464C9.52548 26.0742 9.86702 26.4152 9.86702 26.836Z" fill="#F1F4F6"/>
<path d="M13.9798 26.836V28.0085C13.9798 28.4299 13.6388 28.7709 13.218 28.7709H11.9181C11.4803 28.6921 11.0498 28.5942 10.6267 28.4769C10.5259 28.3478 10.4658 28.1852 10.4658 28.0085V26.836C10.4658 26.4152 10.8074 26.0742 11.2282 26.0742H13.218C13.6388 26.0742 13.9798 26.4152 13.9798 26.836Z" fill="#F1F4F6"/>
<path d="M7.81833 26.0737C7.39749 26.0737 7.05595 26.4153 7.05595 26.8361V26.9466C6.83789 26.8157 6.62322 26.6798 6.41309 26.5382C6.5292 26.2652 6.79994 26.0737 7.11486 26.0737H7.81833Z" fill="#D0E2E7"/>
<path d="M11.916 28.7705C11.9209 28.7711 11.9264 28.7711 11.9313 28.7711H11.9182C11.9177 28.7711 11.9166 28.7711 11.916 28.7705Z" fill="#D0E2E7"/>
<path d="M11.6643 28.7228C11.3137 28.6537 10.9677 28.5716 10.6267 28.477C10.5259 28.3473 10.4658 28.1847 10.4658 28.0086V26.8361C10.4658 26.4153 10.8074 26.0737 11.2282 26.0737H11.9317C11.5108 26.0737 11.1693 26.4153 11.1693 26.8361V28.0086C11.1693 28.3354 11.3755 28.6146 11.6643 28.7228Z" fill="#D0E2E7"/>
<path d="M4.1379 17.2781C4.10538 17.2781 4.07231 17.2717 4.04042 17.2584C3.91196 17.2044 3.85158 17.0566 3.90544 16.9282L5.26085 13.6986C5.31477 13.5702 5.46249 13.5098 5.59101 13.5636C5.71947 13.6176 5.77985 13.7654 5.72598 13.8938L4.37057 17.1234C4.33008 17.2199 4.23645 17.2781 4.1379 17.2781Z" fill="#434B53"/>
<path d="M3.87843 15.2898C3.40916 15.2898 3.02734 14.8645 3.02734 14.3417C3.02734 13.8189 3.40916 13.3936 3.87843 13.3936C4.34775 13.3936 4.72951 13.8189 4.72951 14.3417C4.72956 14.8645 4.34775 15.2898 3.87843 15.2898ZM3.87843 13.898C3.68726 13.898 3.53179 14.097 3.53179 14.3417C3.53179 14.5864 3.68732 14.7854 3.87843 14.7854C4.06959 14.7854 4.22512 14.5864 4.22512 14.3417C4.22512 14.097 4.06959 13.898 3.87843 13.898Z" fill="#434B53"/>
<path d="M5.7085 17.4979C5.23918 17.4979 4.85742 17.0726 4.85742 16.5497C4.85742 16.0269 5.23924 15.6016 5.7085 15.6016C6.17777 15.6016 6.55959 16.0269 6.55959 16.5497C6.55959 17.0726 6.17777 17.4979 5.7085 17.4979ZM5.7085 16.1061C5.51734 16.1061 5.36181 16.3051 5.36181 16.5498C5.36181 16.7945 5.51734 16.9935 5.7085 16.9935C5.89967 16.9935 6.05514 16.7945 6.05514 16.5498C6.05514 16.3051 5.89961 16.1061 5.7085 16.1061Z" fill="#434B53"/>
<path d="M7.49434 17.2781C7.46183 17.2781 7.42875 17.2717 7.39686 17.2584C7.2684 17.2044 7.20802 17.0566 7.26189 16.9282L8.6173 13.6986C8.67122 13.5702 8.81894 13.5098 8.94745 13.5636C9.07592 13.6176 9.13629 13.7654 9.08243 13.8938L7.72702 17.1234C7.68652 17.2199 7.5929 17.2781 7.49434 17.2781Z" fill="#434B53"/>
<path d="M7.23487 15.2898C6.7656 15.2898 6.38379 14.8645 6.38379 14.3417C6.38379 13.8189 6.7656 13.3936 7.23487 13.3936C7.70419 13.3936 8.08595 13.8189 8.08595 14.3417C8.086 14.8645 7.70419 15.2898 7.23487 15.2898ZM7.23487 13.898C7.04371 13.898 6.88823 14.097 6.88823 14.3417C6.88823 14.5864 7.04376 14.7854 7.23487 14.7854C7.42603 14.7854 7.58156 14.5864 7.58156 14.3417C7.58156 14.097 7.42603 13.898 7.23487 13.898Z" fill="#434B53"/>
<path d="M9.06495 17.4979C8.59563 17.4979 8.21387 17.0726 8.21387 16.5497C8.21387 16.0269 8.59568 15.6016 9.06495 15.6016C9.53422 15.6016 9.91603 16.0269 9.91603 16.5497C9.91603 17.0726 9.53427 17.4979 9.06495 17.4979ZM9.06495 16.1061C8.87379 16.1061 8.71825 16.3051 8.71825 16.5498C8.71825 16.7945 8.87379 16.9935 9.06495 16.9935C9.25611 16.9935 9.41159 16.7945 9.41159 16.5498C9.41159 16.3051 9.25611 16.1061 9.06495 16.1061Z" fill="#434B53"/>
<path d="M10.8508 17.2781C10.8183 17.2781 10.7852 17.2717 10.7533 17.2584C10.6248 17.2044 10.5645 17.0566 10.6183 16.9282L11.9737 13.6986C12.0277 13.5702 12.1754 13.5098 12.3039 13.5636C12.4324 13.6176 12.4927 13.7654 12.4389 13.8938L11.0835 17.1234C11.043 17.2199 10.9493 17.2781 10.8508 17.2781Z" fill="#434B53"/>
<path d="M10.5913 15.2898C10.122 15.2898 9.74023 14.8645 9.74023 14.3417C9.74023 13.8189 10.122 13.3936 10.5913 13.3936C11.0606 13.3936 11.4424 13.8189 11.4424 14.3417C11.4425 14.8645 11.0606 15.2898 10.5913 15.2898ZM10.5913 13.898C10.4002 13.898 10.2447 14.097 10.2447 14.3417C10.2447 14.5864 10.4002 14.7854 10.5913 14.7854C10.7825 14.7854 10.938 14.5864 10.938 14.3417C10.938 14.097 10.7825 13.898 10.5913 13.898Z" fill="#434B53"/>
<path d="M12.4214 17.4979C11.9521 17.4979 11.5703 17.0726 11.5703 16.5497C11.5703 16.0269 11.9521 15.6016 12.4214 15.6016C12.8907 15.6016 13.2725 16.0269 13.2725 16.5497C13.2725 17.0726 12.8907 17.4979 12.4214 17.4979ZM12.4214 16.1061C12.2302 16.1061 12.0747 16.3051 12.0747 16.5498C12.0747 16.7945 12.2302 16.9935 12.4214 16.9935C12.6126 16.9935 12.768 16.7945 12.768 16.5498C12.768 16.3051 12.6126 16.1061 12.4214 16.1061Z" fill="#434B53"/>
</g>
<defs>
<clipPath id="clip0_2673_14228">
<rect width="29" height="29" fill="white"/>
</clipPath>
</defs>
</svg>
