<svg width="88" height="80" viewBox="0 0 88 80" fill="none" xmlns="http://www.w3.org/2000/svg">
<path d="M29.4265 13.0847C29.7315 13.7998 29.816 14.5908 29.6692 15.3578C29.5224 16.1248 29.151 16.8332 28.6019 17.3934C28.0528 17.9536 27.3507 18.3404 26.5845 18.5049C25.8183 18.6694 25.0224 18.6041 24.2976 18.3174C23.5727 18.0307 22.9515 17.5353 22.5125 16.8941C22.0736 16.2529 21.8366 15.4946 21.8315 14.7152C21.8265 13.9358 22.0536 13.1703 22.4842 12.5156C22.9148 11.8608 23.5295 11.3464 24.2504 11.0372C24.7283 10.8316 25.2413 10.7215 25.7601 10.7131C26.2789 10.7048 26.7934 10.7983 27.274 10.9885C27.7547 11.1786 28.1922 11.4616 28.5616 11.8213C28.9309 12.181 29.2248 12.6103 29.4265 13.0847Z" fill="#F9C0A8"/>
<path d="M28.5591 13.4573C28.7916 14.0023 28.8559 14.6051 28.744 15.1896C28.6321 15.7741 28.349 16.3139 27.9305 16.7408C27.512 17.1677 26.9769 17.4624 26.393 17.5877C25.8091 17.713 25.2026 17.6632 24.6502 17.4446C24.0979 17.226 23.6245 16.8485 23.2901 16.3598C22.9556 15.8711 22.7751 15.2932 22.7713 14.6992C22.7676 14.1052 22.9408 13.5219 23.269 13.023C23.5973 12.5241 24.0658 12.1321 24.6153 11.8967C24.9794 11.7401 25.3703 11.6562 25.7656 11.6499C26.161 11.6436 26.5529 11.7149 26.9192 11.8598C27.2854 12.0048 27.6188 12.2205 27.9002 12.4946C28.1815 12.7687 28.4055 13.0958 28.5591 13.4573Z" fill="#FCD3C3"/>
<path d="M25.7398 13.0081C25.8284 12.9202 25.8309 12.7794 25.7455 12.6935C25.66 12.6077 25.5189 12.6094 25.4303 12.6973L24.1598 13.9577C24.0712 14.0456 24.0687 14.1865 24.1542 14.2723C24.2396 14.3581 24.3807 14.3564 24.4693 14.2685L24.8335 13.9073C24.9838 13.7577 25.2053 13.7071 25.3998 13.7779L24.6876 14.4846C24.599 14.5724 24.5965 14.7134 24.6819 14.7992C24.7674 14.885 24.9086 14.8833 24.9971 14.7954L25.7094 14.0888C25.7782 14.2836 25.7263 14.5038 25.5763 14.6533L25.2122 15.0146C25.1465 15.0799 25.1261 15.1775 25.1606 15.2609C25.1952 15.3443 25.2778 15.3968 25.3692 15.3933L27.1052 15.3241C27.1623 15.3215 27.2168 15.2972 27.2576 15.2563C27.3015 15.2123 27.3264 15.1531 27.3268 15.0919C27.3262 15.0331 27.3023 14.9776 27.2601 14.9377C27.218 14.8978 27.1612 14.8767 27.1022 14.8791L25.9243 14.926C26.2194 14.5985 26.2696 14.1228 26.0478 13.7562L26.2676 13.5382C26.3562 13.4502 26.3587 13.3094 26.2732 13.2236C26.1877 13.1377 26.0466 13.1394 25.958 13.2273L25.7383 13.4453C25.6425 13.3864 25.5366 13.345 25.4254 13.3232L25.7414 13.0097L25.7398 13.0081Z" fill="#F38D5D"/>
<path d="M28.5221 13.3728C28.5048 13.3763 28.4429 13.2649 28.3082 13.0731C28.1205 12.8029 27.8915 12.5637 27.6293 12.3644C27.4489 12.2292 27.2542 12.1139 27.0485 12.0207C26.8119 11.9158 26.5625 11.8417 26.3064 11.8003C26.1688 11.7771 26.0295 11.7644 25.8898 11.7625C25.5942 11.7568 25.2991 11.7954 25.0142 11.8772C24.8648 11.9206 24.7188 11.975 24.5774 12.04C24.4365 12.1067 24.3006 12.1833 24.1705 12.2692C24.045 12.3538 23.9261 12.4478 23.8149 12.5504C23.7067 12.6484 23.6066 12.7549 23.5155 12.8688C23.4271 12.9785 23.3469 13.0944 23.2756 13.2157C23.1423 13.4386 23.0382 13.6774 22.9658 13.9263C22.9032 14.1438 22.865 14.3674 22.8519 14.5928C22.8344 14.9225 22.8682 15.2525 22.9522 15.5709C23.012 15.7979 23.0593 15.9212 23.0428 15.9286C23.0263 15.9359 22.9542 15.8236 22.8668 15.5983C22.745 15.2765 22.6846 14.9345 22.6886 14.5895C22.6948 14.0711 22.8348 13.5618 23.0952 13.1107C23.2487 12.8436 23.4407 12.6002 23.6652 12.3885C23.784 12.2767 23.9117 12.1745 24.0469 12.0831C24.1864 11.9893 24.3329 11.9062 24.4849 11.8346C24.6377 11.7642 24.7956 11.7056 24.9573 11.6595C25.1144 11.6139 25.2747 11.5811 25.4369 11.5613C25.5927 11.5428 25.7497 11.5365 25.9063 11.5427C26.0563 11.5474 26.2056 11.5637 26.353 11.5913C26.6239 11.643 26.8863 11.7308 27.1331 11.8525C27.3462 11.957 27.5459 12.0864 27.7281 12.2379C27.9937 12.4572 28.2156 12.7242 28.3826 13.0252C28.4993 13.2375 28.5349 13.3672 28.5221 13.3728Z" fill="#F38D5D"/>
<path d="M51.8254 60.6661C51.7514 61.2774 51.4961 61.8534 51.0917 62.3214C50.6872 62.7894 50.1519 63.1282 49.5534 63.295C48.9548 63.4618 48.3201 63.4491 47.7294 63.2585C47.1387 63.0679 46.6186 62.7079 46.2349 62.2242C45.8513 61.7405 45.6213 61.1547 45.5741 60.541C45.527 59.9273 45.6647 59.3133 45.9699 58.7766C46.2751 58.24 46.7341 57.8049 47.2887 57.5263C47.8434 57.2477 48.4688 57.1383 49.0858 57.2117C49.495 57.26 49.8905 57.3876 50.2497 57.5873C50.6088 57.787 50.9247 58.0549 51.1791 58.3757C51.4335 58.6965 51.6215 59.0639 51.7324 59.4569C51.8433 59.8499 51.8749 60.2608 51.8254 60.6661Z" fill="#F9C0A8"/>
<path d="M51.0822 60.5779C51.0258 61.0438 50.8312 61.4828 50.523 61.8394C50.2147 62.196 49.8067 62.4542 49.3506 62.5812C48.8945 62.7083 48.4107 62.6986 47.9606 62.5533C47.5104 62.408 47.1141 62.1336 46.8218 61.7649C46.5295 61.3963 46.3543 60.9498 46.3184 60.4821C46.2826 60.0145 46.3876 59.5465 46.6203 59.1376C46.8529 58.7287 47.2028 58.3972 47.6255 58.185C48.0482 57.9728 48.5248 57.8894 48.995 57.9455C49.3068 57.9823 49.6081 58.0796 49.8818 58.2318C50.1555 58.384 50.3961 58.5882 50.5899 58.8327C50.7837 59.0771 50.927 59.3571 51.0114 59.6566C51.0959 59.956 51.1199 60.2691 51.0822 60.5779Z" fill="#FCD3C3"/>
<path d="M49.3267 59.1528C49.4223 59.1276 49.4798 59.032 49.4551 58.9392C49.4305 58.8465 49.333 58.7917 49.2375 58.8169L47.8668 59.1784C47.7712 59.2036 47.7137 59.2992 47.7384 59.3919C47.763 59.4847 47.8604 59.5394 47.956 59.5142L48.3489 59.4106C48.5112 59.3675 48.6832 59.4205 48.7886 59.5462L48.0202 59.7488C47.9246 59.774 47.8671 59.8697 47.8917 59.9624C47.9163 60.0551 48.0138 60.1098 48.1094 60.0846L48.8778 59.882C48.8479 60.0429 48.725 60.1734 48.563 60.2166L48.1701 60.3201C48.0992 60.3389 48.0465 60.3978 48.0372 60.4687C48.0279 60.5396 48.0638 60.6083 48.1278 60.6421L49.346 61.2821C49.3862 61.303 49.4333 61.3079 49.4775 61.296C49.525 61.2832 49.5655 61.2524 49.59 61.2106C49.6129 61.1701 49.6184 61.1225 49.6054 61.0784C49.5923 61.0344 49.5616 60.9974 49.5202 60.9757L48.6937 60.5414C49.0258 60.4336 49.2486 60.1272 49.2417 59.7879L49.4788 59.7253C49.5744 59.7001 49.6319 59.6045 49.6072 59.5118C49.5826 59.4191 49.4852 59.3643 49.3896 59.3895L49.1525 59.4521C49.1101 59.3737 49.0538 59.3034 48.9862 59.2444L49.3271 59.1545L49.3267 59.1528Z" fill="#F38D5D"/>
<path d="M51.09 60.5055C51.0767 60.5011 51.0784 60.4001 51.062 60.2152C51.0402 59.9555 50.9778 59.7008 50.877 59.4602C50.8068 59.296 50.7188 59.1399 50.6147 58.9944C50.4939 58.8288 50.3522 58.6792 50.1929 58.5494C50.1077 58.479 50.0172 58.4151 49.9221 58.3585C49.7216 58.2375 49.5039 58.1471 49.2761 58.0904C49.1565 58.061 49.0347 58.0405 48.912 58.0291C48.7889 58.019 48.6653 58.0177 48.5421 58.0252C48.4225 58.0335 48.3037 58.0509 48.1868 58.0772C48.0738 58.1016 47.9629 58.135 47.8553 58.177C47.7513 58.2172 47.6504 58.265 47.5534 58.32C47.3737 58.4201 47.2077 58.5427 47.0595 58.6847C46.9304 58.8091 46.8157 58.9473 46.7174 59.0968C46.5748 59.316 46.4674 59.5557 46.3989 59.8074C46.35 59.9868 46.3336 60.0902 46.3194 60.0887C46.3051 60.0872 46.3002 59.9816 46.3294 59.7924C46.3733 59.5235 46.4673 59.2649 46.6067 59.0299C46.8162 58.6767 47.114 58.3828 47.4713 58.1765C47.6823 58.0541 47.9104 57.9632 48.1482 57.9069C48.2741 57.8772 48.4021 57.8577 48.5311 57.8485C48.6639 57.8394 48.7972 57.8405 48.9299 57.8515C49.0626 57.8637 49.1941 57.8861 49.3233 57.9185C49.4491 57.9494 49.5721 57.9904 49.6911 58.0411C49.8054 58.0901 49.9155 58.148 50.0205 58.2142C50.1215 58.2769 50.2175 58.3472 50.3076 58.4244C50.473 58.5672 50.6182 58.7314 50.7393 58.9126C50.8441 59.0686 50.9299 59.2365 50.9948 59.4126C51.0901 59.6682 51.1366 59.9392 51.132 60.2118C51.128 60.4037 51.101 60.5067 51.09 60.5055Z" fill="#F38D5D"/>
<path d="M19.5684 16.2858C19.81 16.8521 19.8769 17.4787 19.7606 18.0862C19.6444 18.6937 19.3502 19.2548 18.9152 19.6985C18.4803 20.1422 17.9242 20.4486 17.3174 20.5789C16.7105 20.7092 16.0801 20.6575 15.506 20.4304C14.9319 20.2033 14.4398 19.8109 14.0921 19.3031C13.7444 18.7952 13.5567 18.1945 13.5527 17.5772C13.5487 16.9599 13.7286 16.3535 14.0697 15.835C14.4107 15.3164 14.8976 14.9089 15.4687 14.664C15.8472 14.5012 16.2535 14.414 16.6644 14.4073C17.0753 14.4007 17.4828 14.4748 17.8635 14.6254C18.2443 14.776 18.5908 15.0002 18.8833 15.2851C19.1758 15.57 19.4086 15.91 19.5684 16.2858Z" fill="#F9C0A8"/>
<path d="M18.8814 16.581C19.0655 17.0126 19.1164 17.4901 19.0278 17.9531C18.9391 18.416 18.7149 18.8436 18.3834 19.1817C18.052 19.5198 17.6282 19.7533 17.1657 19.8525C16.7032 19.9518 16.2228 19.9123 15.7853 19.7392C15.3478 19.5661 14.9729 19.267 14.7079 18.8799C14.443 18.4928 14.3 18.0351 14.2971 17.5646C14.2941 17.0942 14.4313 16.6321 14.6913 16.237C14.9513 15.8419 15.3224 15.5314 15.7576 15.3449C16.046 15.2208 16.3556 15.1544 16.6688 15.1494C16.9819 15.1444 17.2923 15.2009 17.5824 15.3157C17.8725 15.4305 18.1365 15.6014 18.3594 15.8185C18.5823 16.0356 18.7596 16.2947 18.8814 16.581Z" fill="#FCD3C3"/>
<path d="M16.6493 16.2246C16.7195 16.1549 16.7215 16.0434 16.6538 15.9754C16.5861 15.9075 16.4743 15.9087 16.4041 15.9784L15.3979 16.9767C15.3277 17.0463 15.3257 17.1579 15.3934 17.2259C15.4611 17.2938 15.5728 17.2925 15.643 17.2229L15.9314 16.9368C16.0505 16.8183 16.226 16.7782 16.38 16.8343L15.8159 17.394C15.7457 17.4636 15.7437 17.5752 15.8114 17.6432C15.8791 17.7112 15.9909 17.7098 16.061 17.6402L16.6252 17.0805C16.6798 17.2348 16.6386 17.4093 16.5198 17.5277L16.2314 17.8138C16.1793 17.8656 16.1632 17.9429 16.1906 18.0089C16.2179 18.075 16.2834 18.1165 16.3558 18.1138L17.7308 18.059C17.776 18.0569 17.8192 18.0377 17.8515 18.0052C17.8863 17.9704 17.906 17.9235 17.9063 17.8751C17.9059 17.8285 17.8869 17.7845 17.8535 17.7529C17.8201 17.7213 17.7751 17.7046 17.7284 17.7065L16.7955 17.7437C17.0292 17.4843 17.069 17.1075 16.8933 16.8171L17.0673 16.6444C17.1375 16.5748 17.1395 16.4632 17.0718 16.3952C17.0041 16.3272 16.8923 16.3286 16.8222 16.3982L16.6481 16.5709C16.5723 16.5242 16.4883 16.4914 16.4003 16.4741L16.6506 16.2258L16.6493 16.2246Z" fill="#F38D5D"/>
<path d="M18.8527 16.5148C18.839 16.5176 18.79 16.4294 18.6833 16.2774C18.5346 16.0634 18.3532 15.874 18.1456 15.716C18.0027 15.609 17.8484 15.5177 17.6855 15.4438C17.4981 15.3608 17.3006 15.3021 17.0978 15.2693C16.9888 15.2509 16.8785 15.2409 16.7678 15.2393C16.5337 15.2348 16.2999 15.2654 16.0743 15.3301C15.956 15.3645 15.8403 15.4076 15.7282 15.4591C15.6167 15.512 15.509 15.5726 15.406 15.6407C15.3066 15.7077 15.2124 15.7821 15.1243 15.8634C15.0386 15.941 14.9593 16.0254 14.8872 16.1156C14.8172 16.2024 14.7537 16.2943 14.6972 16.3903C14.5916 16.5669 14.5091 16.7561 14.4518 16.9532C14.4022 17.1255 14.3719 17.3025 14.3616 17.4811C14.3477 17.7422 14.3745 18.0036 14.4411 18.2558C14.4884 18.4356 14.5259 18.5333 14.5128 18.5391C14.4997 18.5449 14.4426 18.456 14.3734 18.2775C14.2769 18.0227 14.2291 17.7517 14.2322 17.4785C14.2371 17.0679 14.348 16.6645 14.5543 16.3072C14.6758 16.0956 14.828 15.9029 15.0057 15.7352C15.0999 15.6466 15.201 15.5657 15.3081 15.4932C15.4186 15.4189 15.5346 15.3532 15.655 15.2964C15.776 15.2406 15.9011 15.1943 16.0292 15.1578C16.1536 15.1216 16.2806 15.0956 16.4091 15.08C16.5325 15.0653 16.6568 15.0603 16.7808 15.0652C16.8997 15.069 17.0179 15.0818 17.1346 15.1037C17.3492 15.1447 17.557 15.2142 17.7525 15.3106C17.9213 15.3934 18.0795 15.4958 18.2238 15.6159C18.4342 15.7896 18.6099 16.001 18.7422 16.2394C18.8347 16.4076 18.8629 16.5103 18.8527 16.5148Z" fill="#F38D5D"/>
<path d="M45.3313 65.5169C45.238 66.2887 44.9156 67.016 44.405 67.6068C43.8944 68.1976 43.2185 68.6254 42.4628 68.836C41.7072 69.0466 40.9058 69.0306 40.16 68.7899C39.4142 68.5493 38.7576 68.0948 38.2732 67.4841C37.7888 66.8734 37.4985 66.1338 37.439 65.359C37.3794 64.5842 37.5533 63.809 37.9386 63.1315C38.324 62.4539 38.9034 61.9046 39.6037 61.5529C40.3039 61.2012 41.0935 61.063 41.8725 61.1557C42.3891 61.2166 42.8885 61.3777 43.3419 61.6299C43.7954 61.882 44.1942 62.2203 44.5154 62.6253C44.8366 63.0303 45.074 63.4942 45.214 63.9903C45.354 64.4865 45.3938 65.0052 45.3313 65.5169Z" fill="#F9C0A8"/>
<path d="M44.3942 65.4064C44.3231 65.9945 44.0774 66.5487 43.6882 66.999C43.299 67.4492 42.7839 67.7752 42.2081 67.9356C41.6322 68.0961 41.0215 68.0838 40.4531 67.9003C39.8848 67.7169 39.3844 67.3705 39.0154 66.905C38.6463 66.4395 38.4252 65.8759 38.3799 65.2854C38.3346 64.695 38.4672 64.1042 38.7609 63.5879C39.0547 63.0717 39.4963 62.6531 40.03 62.3852C40.5637 62.1173 41.1655 62.012 41.7591 62.0829C42.1528 62.1293 42.5332 62.2521 42.8787 62.4443C43.2242 62.6365 43.528 62.8943 43.7728 63.2029C44.0175 63.5116 44.1983 63.865 44.3049 64.2431C44.4116 64.6212 44.4419 65.0165 44.3942 65.4064Z" fill="#FCD3C3"/>
<path d="M42.1773 63.6067C42.298 63.5749 42.3706 63.4542 42.3395 63.3371C42.3084 63.2201 42.1854 63.1509 42.0647 63.1827L40.3342 63.639C40.2135 63.6709 40.141 63.7916 40.172 63.9086C40.2032 64.0257 40.3262 64.0948 40.4469 64.063L40.9428 63.9322C41.1478 63.8778 41.365 63.9448 41.498 64.1034L40.5278 64.3592C40.4072 64.391 40.3346 64.5118 40.3656 64.6288C40.3968 64.7459 40.5199 64.815 40.6405 64.7832L41.6106 64.5274C41.5729 64.7305 41.4178 64.8953 41.2131 64.9498L40.7172 65.0805C40.6276 65.1043 40.5611 65.1786 40.5493 65.2681C40.5376 65.3576 40.5829 65.4443 40.6638 65.4871L42.2018 66.2951C42.2525 66.3214 42.3119 66.3276 42.3677 66.3126C42.4277 66.2964 42.4789 66.2575 42.5098 66.2048C42.5387 66.1536 42.5457 66.0935 42.5292 66.0379C42.5127 65.9823 42.474 65.9356 42.4217 65.9082L41.3782 65.3599C41.7975 65.2238 42.0788 64.8369 42.0701 64.4085L42.3694 64.3296C42.4901 64.2978 42.5627 64.1771 42.5316 64.06C42.5004 63.9429 42.3774 63.8738 42.2567 63.9056L41.9574 63.9845C41.9039 63.8857 41.8329 63.7968 41.7475 63.7223L42.1779 63.6088L42.1773 63.6067Z" fill="#F38D5D"/>
<path d="M44.4048 65.3151C44.3881 65.3095 44.3902 65.182 44.3695 64.9486C44.342 64.6207 44.2633 64.2991 44.1359 63.9954C44.0473 63.7881 43.9362 63.5909 43.8048 63.4073C43.6523 63.1982 43.4733 63.0094 43.2723 62.8454C43.1647 62.7565 43.0504 62.6759 42.9304 62.6043C42.6773 62.4516 42.4023 62.3375 42.1148 62.2659C41.9637 62.2288 41.81 62.2029 41.655 62.1885C41.4997 62.1758 41.3437 62.1742 41.1881 62.1835C41.0371 62.194 40.8871 62.216 40.7395 62.2493C40.5968 62.28 40.4569 62.3222 40.321 62.3753C40.1896 62.4261 40.0622 62.4864 39.9398 62.5558C39.7129 62.6822 39.5033 62.8369 39.3163 63.0163C39.1533 63.1733 39.0084 63.3478 38.8843 63.5366C38.7043 63.8133 38.5687 64.116 38.4822 64.4337C38.4205 64.6602 38.3998 64.7907 38.3818 64.7888C38.3638 64.7869 38.3576 64.6536 38.3945 64.4148C38.4499 64.0752 38.5686 63.7488 38.7446 63.452C39.0091 63.0062 39.385 62.6351 39.8361 62.3746C40.1026 62.2201 40.3906 62.1053 40.6908 62.0342C40.8497 61.9968 41.0113 61.9722 41.1741 61.9606C41.3419 61.9491 41.5102 61.9504 41.6777 61.9644C41.8452 61.9797 42.0112 62.008 42.1743 62.0489C42.3331 62.088 42.4885 62.1397 42.6387 62.2037C42.783 62.2655 42.922 62.3386 43.0545 62.4223C43.1821 62.5014 43.3033 62.5901 43.4171 62.6876C43.6259 62.8679 43.8092 63.0752 43.9621 63.3039C44.0944 63.501 44.2027 63.7129 44.2847 63.9353C44.405 64.258 44.4637 64.6001 44.4578 64.9442C44.4528 65.1865 44.4188 65.3166 44.4048 65.3151Z" fill="#F38D5D"/>
<g clip-path="url(#clip0_834_28705)">
<path d="M65.8022 27.9953L52.7637 27.3657L51.8096 46.8005L64.8481 47.43L65.8022 27.9953Z" fill="white" stroke="#263238" stroke-width="0.114759" stroke-linecap="round" stroke-linejoin="round"/>
<path d="M53.6766 28.7368L57.0706 28.8939" stroke="#263238" stroke-width="0.229517" stroke-linecap="round" stroke-linejoin="round"/>
<path d="M53.6453 29.3832L55.9535 29.4892" stroke="#263238" stroke-width="0.229517" stroke-linecap="round" stroke-linejoin="round"/>
<path d="M54.4005 30.947L64.1628 31.3976" stroke="#263238" stroke-width="0.229517" stroke-linecap="round" stroke-linejoin="round"/>
<path d="M54.3704 31.591L64.1325 32.0431" stroke="#263238" stroke-width="0.229517" stroke-linecap="round" stroke-linejoin="round"/>
<path d="M54.3362 32.3453L62.6614 32.7308" stroke="#263238" stroke-width="0.229517" stroke-linecap="round" stroke-linejoin="round"/>
<path d="M55.1396 33.0709L54.3457 33.0342L54.3087 33.8215L55.1027 33.8582L55.1396 33.0709Z" stroke="#263238" stroke-width="0.114759" stroke-linecap="round" stroke-linejoin="round"/>
<path d="M56.5781 33.1363L55.7842 33.0996L55.7472 33.887L56.5411 33.9236L56.5781 33.1363Z" stroke="#263238" stroke-width="0.114759" stroke-linecap="round" stroke-linejoin="round"/>
<path d="M58.0185 33.2037L57.2246 33.167L57.1876 33.9544L57.9816 33.991L58.0185 33.2037Z" stroke="#263238" stroke-width="0.114759" stroke-linecap="round" stroke-linejoin="round"/>
<path d="M59.457 33.2691L58.6631 33.2324L58.6261 34.0198L59.42 34.0565L59.457 33.2691Z" stroke="#263238" stroke-width="0.114759" stroke-linecap="round" stroke-linejoin="round"/>
<path d="M53.8819 30.9216C53.8805 30.9609 53.8672 30.9989 53.8439 31.0307C53.8207 31.0625 53.7884 31.0868 53.7511 31.1003C53.7139 31.1139 53.6735 31.1162 53.635 31.1069C53.5964 31.0976 53.5616 31.0772 53.5348 31.0482C53.508 31.0192 53.4905 30.9829 53.4846 30.944C53.4786 30.9052 53.4845 30.8654 53.5014 30.8298C53.5182 30.7943 53.5454 30.7645 53.5794 30.7443C53.6134 30.7241 53.6527 30.7143 53.6923 30.7163C53.7448 30.719 53.7941 30.742 53.8296 30.7804C53.8651 30.8188 53.8839 30.8695 53.8819 30.9216Z" fill="#263238"/>
<path d="M54.2237 34.7151L63.986 35.1657" stroke="#263238" stroke-width="0.229517" stroke-linecap="round" stroke-linejoin="round"/>
<path d="M54.1937 35.36L63.9558 35.8122" stroke="#263238" stroke-width="0.229517" stroke-linecap="round" stroke-linejoin="round"/>
<path d="M54.1583 36.1153L62.4837 36.4993" stroke="#263238" stroke-width="0.229517" stroke-linecap="round" stroke-linejoin="round"/>
<path d="M54.9629 36.8389L54.1689 36.8022L54.132 37.5896L54.9259 37.6263L54.9629 36.8389Z" stroke="#263238" stroke-width="0.114759" stroke-linecap="round" stroke-linejoin="round"/>
<path d="M56.4014 36.9058L55.6074 36.8691L55.5704 37.6565L56.3644 37.6932L56.4014 36.9058Z" stroke="#263238" stroke-width="0.114759" stroke-linecap="round" stroke-linejoin="round"/>
<path d="M57.8408 36.9727L57.0469 36.936L57.0099 37.7234L57.8038 37.7601L57.8408 36.9727Z" stroke="#263238" stroke-width="0.114759" stroke-linecap="round" stroke-linejoin="round"/>
<path d="M59.2793 37.0386L58.4854 37.002L58.4484 37.7893L59.2423 37.826L59.2793 37.0386Z" stroke="#263238" stroke-width="0.114759" stroke-linecap="round" stroke-linejoin="round"/>
<path d="M53.7051 34.6917C53.7033 34.7309 53.6898 34.7687 53.6664 34.8004C53.6429 34.832 53.6105 34.856 53.5733 34.8693C53.536 34.8826 53.4956 34.8847 53.4572 34.8752C53.4188 34.8657 53.3841 34.8451 53.3575 34.8161C53.3308 34.787 53.3135 34.7508 53.3077 34.7119C53.3019 34.6731 53.3079 34.6334 53.3248 34.5979C53.3418 34.5625 53.369 34.5328 53.4029 34.5127C53.4369 34.4925 53.4762 34.4829 53.5157 34.4849C53.5684 34.4876 53.6179 34.5108 53.6534 34.5496C53.6889 34.5883 53.7075 34.6394 53.7051 34.6917Z" fill="#263238"/>
<path d="M54.0462 38.4831L63.8083 38.9352" stroke="#263238" stroke-width="0.229517" stroke-linecap="round" stroke-linejoin="round"/>
<path d="M54.0167 39.1306L63.7774 39.581" stroke="#263238" stroke-width="0.229517" stroke-linecap="round" stroke-linejoin="round"/>
<path d="M53.9815 39.8844L62.3069 40.2684" stroke="#263238" stroke-width="0.229517" stroke-linecap="round" stroke-linejoin="round"/>
<path d="M54.7861 40.6075L53.9922 40.5708L53.9552 41.3582L54.7491 41.3948L54.7861 40.6075Z" stroke="#263238" stroke-width="0.114759" stroke-linecap="round" stroke-linejoin="round"/>
<path d="M56.2246 40.6744L55.4307 40.6377L55.3937 41.4251L56.1876 41.4617L56.2246 40.6744Z" stroke="#263238" stroke-width="0.114759" stroke-linecap="round" stroke-linejoin="round"/>
<path d="M57.665 40.7422L56.8711 40.7056L56.8341 41.4929L57.628 41.5296L57.665 40.7422Z" stroke="#263238" stroke-width="0.114759" stroke-linecap="round" stroke-linejoin="round"/>
<path d="M59.1025 40.8082L58.3086 40.7715L58.2716 41.5589L59.0655 41.5955L59.1025 40.8082Z" stroke="#263238" stroke-width="0.114759" stroke-linecap="round" stroke-linejoin="round"/>
<path d="M53.5283 38.4603C53.5266 38.4995 53.5131 38.5373 53.4896 38.5689C53.4661 38.6005 53.4337 38.6245 53.3965 38.6378C53.3593 38.6512 53.3189 38.6532 53.2805 38.6437C53.242 38.6343 53.2073 38.6137 53.1807 38.5846C53.1541 38.5556 53.1368 38.5193 53.131 38.4805C53.1252 38.4417 53.1311 38.402 53.1481 38.3665C53.165 38.331 53.1922 38.3013 53.2262 38.2812C53.2602 38.2611 53.2994 38.2514 53.339 38.2534C53.3917 38.2561 53.4412 38.2794 53.4766 38.3181C53.5121 38.3569 53.5307 38.408 53.5283 38.4603Z" fill="#263238"/>
<path d="M53.8656 42.3591L63.6261 42.811" stroke="#263238" stroke-width="0.229517" stroke-linecap="round" stroke-linejoin="round"/>
<path d="M53.8353 43.006L63.5958 43.4579" stroke="#263238" stroke-width="0.229517" stroke-linecap="round" stroke-linejoin="round"/>
<path d="M53.7981 43.7593L62.1233 44.1449" stroke="#263238" stroke-width="0.229517" stroke-linecap="round" stroke-linejoin="round"/>
<path d="M54.6045 44.4844L53.8105 44.4478L53.7736 45.2351L54.5675 45.2718L54.6045 44.4844Z" stroke="#263238" stroke-width="0.114759" stroke-linecap="round" stroke-linejoin="round"/>
<path d="M56.042 44.5508L55.248 44.5142L55.2111 45.3015L56.005 45.3382L56.042 44.5508Z" stroke="#263238" stroke-width="0.114759" stroke-linecap="round" stroke-linejoin="round"/>
<path d="M57.4814 44.6172L56.6875 44.5806L56.6505 45.3679L57.4445 45.4046L57.4814 44.6172Z" stroke="#263238" stroke-width="0.114759" stroke-linecap="round" stroke-linejoin="round"/>
<path d="M58.9219 44.6832L58.1279 44.6465L58.091 45.4339L58.8849 45.4705L58.9219 44.6832Z" stroke="#263238" stroke-width="0.114759" stroke-linecap="round" stroke-linejoin="round"/>
<path d="M53.3516 42.3369C53.3499 42.3757 53.3365 42.4132 53.3133 42.4445C53.2901 42.4758 53.2581 42.4996 53.2212 42.5129C53.1844 42.5262 53.1444 42.5283 53.1063 42.5191C53.0682 42.5098 53.0338 42.4896 53.0073 42.4609C52.9808 42.4322 52.9635 42.3964 52.9575 42.358C52.9516 42.3195 52.9572 42.2802 52.9738 42.245C52.9903 42.2097 53.0171 42.1801 53.0506 42.16C53.0841 42.1398 53.1229 42.1299 53.162 42.1316C53.1881 42.1327 53.2137 42.1389 53.2373 42.1498C53.2609 42.1607 53.2821 42.1761 53.2998 42.1952C53.3174 42.2143 53.331 42.2366 53.3399 42.2609C53.3488 42.2852 53.3528 42.311 53.3516 42.3369Z" fill="#263238"/>
<path d="M54.6154 33.3616L54.7195 33.5359L55.14 33.0716" stroke="#263238" stroke-width="0.229517" stroke-linecap="round" stroke-linejoin="round"/>
<path d="M57.3185 37.2156L57.4224 37.3915L57.8431 36.9256" stroke="#263238" stroke-width="0.229517" stroke-linecap="round" stroke-linejoin="round"/>
<path d="M55.6974 40.9958L55.8029 41.172L56.222 40.7059" stroke="#263238" stroke-width="0.229517" stroke-linecap="round" stroke-linejoin="round"/>
<path d="M58.3781 44.9729L58.482 45.1488L58.9027 44.683" stroke="#263238" stroke-width="0.229517" stroke-linecap="round" stroke-linejoin="round"/>
</g>
<path opacity="0.2" d="M53.3382 48.5396C53.3382 48.5396 53.3224 55.9614 53.3382 56.3942C53.3539 56.827 53.9275 59.4336 53.9275 59.4336L52.1025 62.7563L53.6741 64.0062L56.7287 61.0386C56.7287 61.0386 59.3296 62.6263 59.805 64.8971C60.2804 67.1679 63.1111 68.8215 66.0479 75.1098C68.9847 81.3982 72.3341 61.0386 72.3341 61.0386L63.2722 49.7681L53.3382 48.5396Z" fill="black" fill-opacity="0.7"/>
<path d="M80.6464 77.558L66.699 79.9026C66.699 79.9026 64.271 67.1609 62.8232 65.1521C61.3755 63.1433 61.6446 62.3185 60.9374 60.9657C60.5131 60.1486 58.3837 58.625 56.7159 57.1209C56.5705 56.9908 56.4291 56.8608 56.2935 56.7327C56.2346 56.6803 56.1796 56.624 56.1246 56.5716C55.9026 56.3542 55.6963 56.1427 55.5136 55.935C55.4469 55.8613 55.3814 55.7875 55.3172 55.7138C55.0075 55.3731 54.7769 54.9697 54.6414 54.5318C54.6355 54.5122 54.6315 54.492 54.6297 54.4716C54.624 54.448 54.62 54.424 54.6179 54.3998C54.5805 54.099 54.5413 53.7554 54.502 53.3828C54.502 53.309 54.4863 53.2314 54.4764 53.1538L54.4646 53.0606C54.4313 52.7501 54.3939 52.4201 54.3507 52.0805C54.3075 51.7408 54.2603 51.3565 54.2053 50.9858C54.1877 50.8577 54.17 50.7296 54.1484 50.5977C54.1268 50.454 54.1032 50.3104 54.0796 50.1649L54.0148 49.7922C54.0148 49.7709 54.005 49.7515 54.003 49.734L53.9244 49.2973C53.9191 49.2816 53.9158 49.2653 53.9146 49.2488C53.8871 49.1226 53.8616 48.9984 53.8321 48.8722C53.7712 48.5908 53.7025 48.3152 53.6357 48.0474C53.5004 47.5433 53.3264 47.0502 53.1151 46.5723C52.1093 44.3539 53.4176 45.1555 52.6299 39.4475C52.6299 39.4475 53.2094 38.1238 54.8615 39.1816C54.9891 39.2639 55.1124 39.3526 55.2308 39.4475C55.5656 39.715 55.8611 40.0272 56.1089 40.3752C56.4447 40.849 56.7008 41.3733 56.8671 41.9279C57.1371 42.8274 57.2134 43.7729 57.0911 44.7033C57.0911 44.7033 58.3326 48.9072 58.9867 49.864C59.6409 50.8209 62.3459 45.3244 62.1711 44.6839C62.1097 44.3966 62.0631 44.1064 62.0316 43.8144C62.0198 43.7193 62.008 43.6203 61.9943 43.5116C61.9805 43.4029 61.9687 43.2942 61.9569 43.1797C61.9569 43.1254 61.9432 43.0672 61.9353 43.0109C61.9353 42.9876 61.9353 42.9643 61.9353 42.9429C61.9118 42.7236 61.8843 42.4907 61.8587 42.2501C61.8587 42.1821 61.845 42.1181 61.8371 42.056L61.8017 41.7066C61.8006 41.6872 61.8006 41.6678 61.8017 41.6484C61.8017 41.5824 61.786 41.5145 61.7801 41.4446C61.7644 41.3087 61.7507 41.1709 61.7369 41.0331C61.7232 40.8953 61.7133 40.7964 61.7016 40.678C61.678 40.4548 61.6564 40.2316 61.6348 40.0161C61.6191 39.855 61.6033 39.6959 61.5896 39.5406C61.5896 39.5057 61.5896 39.4708 61.5798 39.4378C61.4973 38.5838 61.4324 37.8851 61.4089 37.5823C61.4089 37.5823 59.4444 34.706 59.248 33.3513C59.0516 31.9965 59.0633 30.57 59.8864 29.9897C61.8351 28.6195 61.2615 30.8281 62.1377 31.7365C63.0138 32.6448 64.3476 34.1489 65.1059 34.6167C65.8052 35.0553 66.4299 36.7516 66.5183 37.0078C66.4181 36.6352 65.4182 32.9708 65.3966 32.2333C65.3711 31.457 64.77 27.3501 65.7895 25.877C66.809 24.4039 68.1684 25.5471 68.2941 25.8382C68.4199 26.1293 68.4572 30.1081 68.8167 31.2144C69.1762 32.3207 70.6809 36.9341 70.6809 36.9341C70.6809 36.9341 70.7438 32.4468 71.0836 30.438C71.4235 28.4293 72.3055 26.8591 73.1698 26.7698C74.0342 26.6805 74.8337 27.6219 74.8337 27.6219C74.8337 27.6219 74.4919 30.8243 74.5901 31.5637C74.6883 32.3032 74.4487 34.9738 74.8592 36.4159C74.8592 36.4159 74.8121 32.5904 75.4132 32.1013C76.0143 31.6122 76.5309 31.3774 76.8688 31.7132C77.2067 32.0489 77.2794 34.3081 77.6232 35.6706C77.9669 37.033 77.9237 38.8846 78.1496 41.0099C78.3755 43.1351 79.2654 46.0852 79.0886 47.7718C78.9118 49.4584 78.3677 53.6409 77.9296 56.0961C77.4915 58.5513 76.3738 61.9187 76.3738 61.9187C76.3738 61.9187 76.8826 63.7139 76.7844 65.3151C76.6861 66.9164 80.6464 77.558 80.6464 77.558Z" fill="white"/>
<path opacity="0.8" d="M68.7936 31.2113C69.0608 32.0323 69.9526 34.7728 70.3966 36.1411C70.3966 36.1411 68.4479 37.556 68.497 38.8719C68.5461 40.1878 68.1394 42.8428 67.2633 42.7672C66.3872 42.6915 66.4775 37.1659 66.1809 36.2381C66.3597 36.6263 66.4736 36.9621 66.4972 37.0261C66.4324 36.7874 65.3912 32.9853 65.3696 32.2322C65.3696 32.0536 65.3284 31.7024 65.2871 31.2462V31.2365C65.2871 31.2365 67.224 29.4044 68.6463 30.5262C68.6781 30.7579 68.7273 30.9869 68.7936 31.2113Z" fill="#FFE4C8"/>
<path opacity="0.8" d="M74.5851 32.8013C73.6775 33.6534 72.3083 35.1556 72.1354 36.6054C72.1354 36.6054 72.6423 40.654 72.4262 42.4183L70.6582 36.9431C70.6582 36.9431 70.7211 32.4559 71.0609 30.4471L71.0904 30.2821C72.1937 29.7265 73.4116 29.429 74.6499 29.4126C74.574 30.1268 74.5484 30.8454 74.5733 31.5631C74.5993 31.9753 74.6033 32.3887 74.5851 32.8013Z" fill="#FFE4C8"/>
<path opacity="0.4" d="M75.3876 32.0939C75.366 32.1094 75.3129 32.1502 75.2363 32.2162C75.2826 32.1287 75.3338 32.0438 75.3896 31.9619L75.3876 32.0939Z" fill="#92E3A9"/>
<path opacity="0.8" d="M75.851 43.2813C75.851 43.2813 74.6841 38.9571 74.6723 35.4752C74.6625 34.1865 74.8138 33.0123 75.2361 32.2185C75.2824 32.131 75.3335 32.0461 75.3893 31.9642V32.0904C75.5996 31.909 75.8335 31.7563 76.0847 31.6362C75.7567 32.1409 75.3795 33.1287 75.8156 34.7416C76.5012 37.2531 75.904 40.3235 75.851 43.2813Z" fill="#FFE4C8"/>
<path opacity="0.8" d="M59.7549 51.5285C59.7549 51.5285 60.0673 55.6489 56.716 57.124C56.5706 56.9939 56.4292 56.8639 56.2936 56.7358C56.2347 56.6834 56.1797 56.6271 56.1247 56.5747C55.9027 56.3573 55.6964 56.1438 55.5137 55.9381C55.445 55.8624 55.3841 55.7887 55.3173 55.7168C55.0076 55.3762 54.777 54.9728 54.6415 54.5349C54.6357 54.5152 54.6318 54.4951 54.6298 54.4747C54.6241 54.4511 54.6201 54.4271 54.618 54.4029C54.5806 54.102 54.5414 53.7585 54.5021 53.3859C54.5021 53.3121 54.4864 53.2345 54.4765 53.1569L54.4647 53.0637C54.4314 52.7512 54.394 52.4232 54.3508 52.0836C54.3076 51.7439 54.2604 51.3596 54.2054 50.9889C54.1858 50.8608 54.1681 50.7308 54.1485 50.6007C54.1269 50.4571 54.1033 50.3116 54.0797 50.1679L54.0149 49.7953L54.0031 49.7371C53.9756 49.5915 53.9501 49.4498 53.9206 49.3062C53.9164 49.2902 53.9131 49.274 53.9108 49.2577C53.8833 49.1315 53.8577 49.0054 53.8283 48.8812C53.7654 48.5997 53.6967 48.3241 53.6318 48.0563C54.9578 46.7947 58.0184 47.5866 56.5372 44.6656C56.5372 44.6656 57.2837 42.1658 55.2269 39.4564C56.6335 40.5762 57.3544 42.5462 57.0872 44.6967C57.0872 44.6967 58.3288 48.8986 58.9829 49.8574C59.6371 50.8162 62.3421 45.3177 62.1672 44.6753C62.1058 44.3888 62.0599 44.0992 62.0297 43.8078C62.016 43.7127 62.0042 43.6137 61.9924 43.505C61.9806 43.3963 61.9649 43.2876 61.9531 43.1712C61.9531 43.1188 61.9394 43.0605 61.9315 43.0043C61.9315 42.981 61.9315 42.9577 61.9315 42.9363C61.9079 42.7151 61.8824 42.4841 61.8549 42.2415C61.8549 42.1755 61.8411 42.1115 61.8333 42.0474C61.8333 41.931 61.8097 41.8145 61.7979 41.6981C61.7969 41.6787 61.7969 41.6592 61.7979 41.6398C61.7979 41.5738 61.7822 41.5059 61.7763 41.436C61.7606 41.2982 61.7488 41.1624 61.7331 41.0246L61.6977 40.6675C61.6742 40.4462 61.6526 40.223 61.6309 40.0076C61.6172 39.8445 61.6015 39.6854 61.5858 39.5321C61.5858 39.4971 61.5858 39.4622 61.5759 39.4292C61.6309 39.6835 62.6269 44.3667 63.1946 45.4594C63.7623 46.5812 61.2911 52.4989 59.7549 51.5285Z" fill="#FFE4C8"/>
<path opacity="0.8" d="M77.9047 56.091C77.4667 58.5481 76.3489 61.9135 76.3489 61.9135C76.3489 61.9135 76.8577 63.7088 76.7595 65.31C76.732 65.7409 77.0031 66.8278 77.4077 68.1883C77.2918 67.8894 76.0326 64.6831 76.0601 63.5633C76.0837 62.3988 75.7458 62.0669 75.0779 60.6248C74.41 59.1828 73.4062 59.34 73.4062 59.34C73.4062 59.34 73.0133 62.9383 72.1018 60.5744C71.1903 58.2104 71.0116 55.4602 73.3158 45.9112C73.3158 45.9112 73.6635 47.1087 73.3728 50.6663C73.0821 54.2239 73.9425 55.3011 73.9425 55.3011C75.2382 53.071 76.2666 50.6995 77.007 48.2344C77.007 48.2344 76.7084 52.3859 76.4432 54.2763C76.178 56.1667 77.3881 52.0851 78.2328 49.5639C79.0185 47.1961 79.0559 46.2975 78.7534 44.6128C78.9773 45.7987 79.1462 46.9302 79.0598 47.757C78.8869 49.4416 78.3428 53.628 77.9047 56.091Z" fill="#FFE4C8"/>
<path opacity="0.8" d="M62.1445 64.0854C62.8242 65.1549 64.4881 66.5659 65.484 70.4689C66.48 74.372 65.8514 78.6438 65.8514 78.6438L62.1445 64.0854Z" fill="#FFE4C8"/>
<path opacity="0.8" d="M56.7959 41.9307C56.7959 41.9307 53.3169 43.6774 53.0419 46.5887C52.0361 44.3703 53.3444 45.1719 52.5566 39.4638C52.5566 39.4638 53.1361 38.1402 54.7882 39.198C54.9159 39.2802 55.0391 39.369 55.1575 39.4638C55.4923 39.7314 55.7879 40.0436 56.0356 40.3916L56.7959 41.9307Z" fill="#FFE4C8" fill-opacity="0.7"/>
<path d="M66.6991 79.9035C66.6991 79.9035 64.273 67.1618 62.8233 65.153C61.3736 63.1442 61.6447 62.3194 60.9375 60.9666C60.2303 59.6138 54.8615 56.3202 54.6238 54.3988C54.3861 52.4773 54.115 48.7936 53.1073 46.5752C52.0995 44.3568 53.4098 45.1584 52.6201 39.4484C52.6201 39.4484 53.2094 38.1267 54.8537 39.1844C56.4979 40.2422 57.374 42.3558 57.0852 44.6984C57.0852 44.6984 58.3268 48.9003 58.9829 49.8591C59.639 50.8179 62.3381 45.3195 62.1652 44.677C61.9924 44.0346 61.4718 38.5692 61.3893 37.5735C61.3893 37.5735 59.4249 34.6952 59.2284 33.3405C59.032 31.9858 59.0438 30.5593 59.8669 29.9809C61.8156 28.6107 61.2419 30.8193 62.1181 31.7277C62.9942 32.636 64.328 34.1363 65.0843 34.6059C65.8406 35.0756 66.5086 37.0262 66.5086 37.0262C66.5086 37.0262 65.3987 33.0009 65.377 32.2226C65.3554 31.4443 64.7504 27.3394 65.7699 25.8663C66.7895 24.3932 68.1488 25.5363 68.2746 25.8275C68.4003 26.1186 68.4376 30.0973 68.7991 31.2017C69.1605 32.306 70.6594 36.9233 70.6594 36.9233C70.6594 36.9233 70.7242 32.4361 71.064 30.4273C71.4039 28.4185 72.2879 26.8484 73.1502 26.7591C74.0126 26.6698 74.8141 27.6111 74.8141 27.6111C74.8141 27.6111 74.4723 30.8135 74.5686 31.553C74.6648 32.2925 74.4291 34.9611 74.8396 36.4051C74.8396 36.4051 74.7925 32.5797 75.3936 32.0906C75.9947 31.6015 76.5114 31.3667 76.8492 31.7024C77.1871 32.0382 77.2598 34.2973 77.6036 35.6598C77.9474 37.0223 77.9061 38.8739 78.13 40.9991C78.354 43.1243 79.2458 46.0744 79.069 47.7591C78.8922 49.4438 78.3481 53.6302 77.9081 56.0854C77.468 58.5405 76.3562 61.9079 76.3562 61.9079C76.3562 61.9079 76.865 63.7032 76.7648 65.3044C76.6646 66.9056 80.6524 77.5648 80.6524 77.5648" stroke="#263238" stroke-width="0.114759" stroke-linecap="round" stroke-linejoin="round"/>
<path d="M70.6543 36.9326C71.0609 37.8759 72.0647 41.8566 72.4223 42.4097C72.604 42.7152 72.8697 42.9635 73.1884 43.1259" stroke="#263238" stroke-width="0.114759" stroke-linecap="round" stroke-linejoin="round"/>
<path d="M74.8339 36.4092C74.8339 36.4092 74.7475 37.2243 75.1934 39.827C75.6393 42.4297 75.8573 43.536 76.1088 44.1163" stroke="#263238" stroke-width="0.114759" stroke-linecap="round" stroke-linejoin="round"/>
<path d="M66.501 37.0361C67.0451 38.6218 67.3535 41.1488 67.6639 41.9096C67.9743 42.6704 68.2532 42.8276 68.2532 42.8276" stroke="#263238" stroke-width="0.114759" stroke-linecap="round" stroke-linejoin="round"/>
<path d="M67.3818 40.8398C67.7096 41.0858 67.969 41.4096 68.1362 41.7812" stroke="#263238" stroke-width="0.114759" stroke-linecap="round" stroke-linejoin="round"/>
<path d="M58.9824 49.8608C58.9824 49.8608 59.281 51.9628 60.6129 51.8017" stroke="#263238" stroke-width="0.114759" stroke-linecap="round" stroke-linejoin="round"/>
<path d="M62.1653 44.6787C62.1653 44.6787 62.5091 47.1785 61.9434 48.2382" stroke="#263238" stroke-width="0.114759" stroke-linecap="round" stroke-linejoin="round"/>
<path d="M72.8183 44.7021C72.8183 44.7021 73.7141 45.2436 73.1149 46.8371C72.5158 48.4305 71.4727 54.8392 71.4727 54.8392" stroke="#263238" stroke-width="0.114759" stroke-linecap="round" stroke-linejoin="round"/>
<path d="M76.7173 46.3867C77.0925 47.8229 77.1259 47.8598 76.5209 49.6241C75.9159 51.3883 74.9238 55.7028 74.9238 55.7028" stroke="#263238" stroke-width="0.114759" stroke-linecap="round" stroke-linejoin="round"/>
<path d="M76.3497 61.9025C76.3497 61.9025 75.7604 60.738 76.2476 59.7676" stroke="#263238" stroke-width="0.114759" stroke-linecap="round" stroke-linejoin="round"/>
<path d="M62.8232 65.1553C62.8232 65.1553 64.3044 67.2106 64.9487 69.5105" stroke="#263238" stroke-width="0.114759" stroke-linecap="round" stroke-linejoin="round"/>
<path d="M73.7227 29.1271L74.1234 28.735L74.3041 28.6846L74.2923 28.8787L73.925 29.3425L73.7227 29.1271Z" fill="#757575" stroke="#263238" stroke-width="0.114759" stroke-linecap="round" stroke-linejoin="round"/>
<path d="M74.0464 29.3421L73.3942 30.8035L55.8716 53.8861L53.9209 52.6575L56.5768 49.3736L72.3137 29.868L73.7026 28.9966C73.7852 29.0199 73.8603 29.064 73.9206 29.1245C73.9808 29.1851 74.0242 29.26 74.0464 29.3421Z" fill="#20446C"/>
<path opacity="0.3" d="M74.0464 29.3421L73.3942 30.8035L55.8716 53.8861L53.9209 52.6575L56.5768 49.3736C57.7928 49.2494 57.9971 49.9559 57.9971 49.9559L73.0877 30.491C72.9384 29.969 72.302 29.868 72.302 29.868L73.6908 28.9966C73.7756 29.0181 73.8532 29.0614 73.9156 29.1221C73.978 29.1827 74.0231 29.2586 74.0464 29.3421Z" fill="black" fill-opacity="0.7"/>
<path d="M74.0464 29.3421L73.3942 30.8035L55.8716 53.8861L53.9209 52.6575L56.5768 49.3736L72.3137 29.868L73.7026 28.9966C73.7852 29.0199 73.8603 29.064 73.9206 29.1245C73.9808 29.1851 74.0242 29.26 74.0464 29.3421Z" stroke="#263238" stroke-width="0.114759" stroke-linecap="round" stroke-linejoin="round"/>
<path d="M61.588 47.0527C61.588 47.0527 59.6236 50.8878 57.7496 53.6011L56.4059 53.9447C56.4059 53.9447 53.3218 56.9724 51.4399 58.4824C51.0982 58.2727 50.7886 58.0159 50.5205 57.7196C50.5205 57.7196 53.1921 52.6521 56.1486 49.4419C56.4948 49.5645 56.8211 49.7365 57.117 49.9523C57.5014 50.2202 57.8431 50.5434 58.1307 50.9111L61.425 46.8159L61.588 47.0527Z" fill="#F0792E"/>
<path opacity="0.3" d="M61.5886 47.0522C61.5886 47.0522 59.6242 50.8873 57.7501 53.6006L56.4065 53.9441C56.4065 53.9441 53.3223 56.9719 51.4404 58.4818L51.4915 57.6609C53.5325 54.5807 56.1256 51.2211 57.1176 49.9518C57.502 50.2196 57.8437 50.5428 58.1312 50.9106L56.3004 53.325L57.3494 53.1309L61.4256 46.8076L61.5886 47.0522Z" fill="black" fill-opacity="0.7"/>
<path d="M61.588 47.0527C61.588 47.0527 59.6236 50.8878 57.7496 53.6011L56.4059 53.9447C56.4059 53.9447 53.3218 56.9724 51.4399 58.4824C51.0982 58.2727 50.7886 58.0159 50.5205 57.7196C50.5205 57.7196 53.1921 52.6521 56.1486 49.4419C56.4948 49.5645 56.8211 49.7365 57.117 49.9523C57.5014 50.2202 57.8431 50.5434 58.1307 50.9111L61.425 46.8159L61.588 47.0527Z" stroke="#263238" stroke-width="0.114759" stroke-linecap="round" stroke-linejoin="round"/>
<path d="M68.2513 42.827L62.7765 48.0673L61.9023 48.9096C62.5015 47.388 62.2107 45.0279 62.1734 44.7504C62.1739 44.742 62.1739 44.7335 62.1734 44.7251C62.1746 44.7109 62.1746 44.6966 62.1734 44.6824C62.1119 44.3959 62.066 44.1063 62.0359 43.8149C62.0222 43.7198 62.0104 43.6208 61.9986 43.5121C61.9868 43.4034 61.9711 43.2947 61.9593 43.1783C61.9593 43.1259 61.9456 43.0676 61.9377 43.0114C61.9377 42.9881 61.9377 42.9648 61.9377 42.9434C61.9141 42.7241 61.8866 42.4912 61.8611 42.2486C61.8611 42.1826 61.8473 42.1186 61.8395 42.0545C61.8395 41.9381 61.8159 41.8216 61.8041 41.7052C61.803 41.6858 61.803 41.6663 61.8041 41.6469C61.8041 41.5809 61.7884 41.513 61.7825 41.4431C61.7668 41.3053 61.755 41.1695 61.7393 41.0317L61.7039 40.6746C61.6804 40.4533 61.6587 40.2301 61.6371 40.0147C61.6214 39.8516 61.6057 39.6944 61.592 39.5392C61.592 39.5042 61.592 39.4693 61.5821 39.4363C61.4996 38.5823 61.4348 37.8836 61.4112 37.5808C61.4112 37.5808 59.4468 34.7045 59.2504 33.3478C59.0539 31.9912 59.0657 30.5666 59.8888 29.9882C61.8375 28.618 61.2639 30.8267 62.14 31.735C63.0162 32.6433 64.35 34.1475 65.1083 34.6152C65.8665 35.083 66.5305 37.0355 66.5305 37.0355C67.0746 38.6211 67.3831 41.1462 67.6934 41.9089C68.0038 42.6717 68.2513 42.827 68.2513 42.827Z" fill="white"/>
<path d="M67.3818 40.8398C67.7096 41.0858 67.969 41.4096 68.1362 41.7812" stroke="#263238" stroke-width="0.114759" stroke-linecap="round" stroke-linejoin="round"/>
<path opacity="0.8" d="M62.1097 31.7359C62.978 32.6519 64.3118 34.1386 65.0701 34.6122C64.964 34.5598 63.5673 33.8883 62.7874 34.6355C61.9761 35.4118 61.3888 37.5759 61.3888 37.5759C61.3888 37.5759 59.4243 34.6995 59.2279 33.3429C59.0315 31.9862 59.0433 30.5616 59.8663 29.9833C61.8072 28.613 61.2375 30.8217 62.1097 31.7359Z" fill="#FFE4C8"/>
<path opacity="0.8" d="M62.7764 48.0714L61.9022 48.9098C62.5014 47.3882 62.2106 45.0281 62.1733 44.7506C62.1757 44.728 62.1757 44.7052 62.1733 44.6826C62.1118 44.3961 62.0659 44.1065 62.0358 43.8151C62.0221 43.72 62.0103 43.621 61.9985 43.5123C61.9867 43.4036 61.971 43.2949 61.9592 43.1785C61.9592 43.1261 61.9454 43.0679 61.9376 43.0116C61.9376 42.9883 61.9376 42.965 61.9376 42.9436C61.914 42.7224 61.8885 42.4914 61.861 42.2488C61.861 42.1828 61.8472 42.1188 61.8394 42.0547C61.8394 41.9383 61.8158 41.8218 61.804 41.7054C61.8029 41.686 61.8029 41.6665 61.804 41.6472C61.804 41.5812 61.7883 41.5132 61.7824 41.4434C61.7667 41.3056 61.7549 41.1697 61.7392 41.0319L61.7038 40.6748C61.6803 40.4535 61.6586 40.2303 61.637 40.0149C61.6233 39.8519 61.6076 39.6927 61.5919 39.5394C61.5919 39.5045 61.5919 39.4695 61.582 39.4365C61.637 39.6908 62.633 44.374 63.2007 45.4667C63.3932 45.8743 63.1948 46.9379 62.7764 48.0714Z" fill="#FFE4C8"/>
<path d="M68.2513 42.8276C68.2513 42.8276 67.9743 42.6704 67.662 41.9096C67.3496 41.1488 67.0432 38.6218 66.499 37.0361C66.499 37.0361 65.8331 35.0953 65.0748 34.6159C64.3166 34.1365 62.9808 32.6537 62.1086 31.7376C61.2364 30.8215 61.806 28.6128 59.8573 29.9908C59.0343 30.5731 59.0185 31.9957 59.2189 33.3505C59.4193 34.7052 61.3798 37.5835 61.3798 37.5835C61.4623 38.5791 61.9809 44.0465 62.1557 44.687" stroke="#263238" stroke-width="0.114759" stroke-linecap="round" stroke-linejoin="round"/>
<path d="M62.1653 44.6787C62.1653 44.6787 62.5091 47.1785 61.9434 48.2382" stroke="#263238" stroke-width="0.114759" stroke-linecap="round" stroke-linejoin="round"/>
<path opacity="0.2" d="M28.5646 47.7451C28.5646 47.7451 29.8081 53.4493 27.1148 57.6008C24.4216 61.7522 22.3492 62.8566 21.418 64.0949C20.4869 65.3331 16.835 72.2484 16.835 72.2484L12.5723 59.7784L16.835 44.3467L28.5646 47.7451Z" fill="black" fill-opacity="0.7"/>
<g clip-path="url(#clip1_834_28705)">
<path d="M25.62 24.4069L13.5205 29.2661L20.8847 47.3013L32.9842 42.4421L25.62 24.4069Z" fill="white" stroke="#263238" stroke-width="0.114759" stroke-linecap="round" stroke-linejoin="round"/>
<path d="M14.9291 30.1294L18.0758 28.8583" stroke="#263238" stroke-width="0.229517" stroke-linecap="round" stroke-linejoin="round"/>
<path d="M15.175 30.7282L17.3146 29.863" stroke="#263238" stroke-width="0.229517" stroke-linecap="round" stroke-linejoin="round"/>
<path d="M16.5223 31.8329L25.5728 28.1759" stroke="#263238" stroke-width="0.229517" stroke-linecap="round" stroke-linejoin="round"/>
<path d="M16.768 32.4306L25.8189 28.775" stroke="#263238" stroke-width="0.229517" stroke-linecap="round" stroke-linejoin="round"/>
<path d="M17.0566 33.1296L24.7753 30.0121" stroke="#263238" stroke-width="0.229517" stroke-linecap="round" stroke-linejoin="round"/>
<path d="M18.0925 33.4526L17.3564 33.75L17.6563 34.48L18.3924 34.1826L18.0925 33.4526Z" stroke="#263238" stroke-width="0.114759" stroke-linecap="round" stroke-linejoin="round"/>
<path d="M19.4255 32.914L18.6895 33.2114L18.9893 33.9414L19.7254 33.644L19.4255 32.914Z" stroke="#263238" stroke-width="0.114759" stroke-linecap="round" stroke-linejoin="round"/>
<path d="M20.7614 32.374L20.0254 32.6714L20.3253 33.4014L21.0613 33.104L20.7614 32.374Z" stroke="#263238" stroke-width="0.114759" stroke-linecap="round" stroke-linejoin="round"/>
<path d="M22.0944 31.8349L21.3584 32.1323L21.6583 32.8623L22.3943 32.5649L22.0944 31.8349Z" stroke="#263238" stroke-width="0.114759" stroke-linecap="round" stroke-linejoin="round"/>
<path d="M16.0416 32.0262C16.0569 32.0625 16.061 32.1024 16.0533 32.141C16.0457 32.1796 16.0266 32.215 15.9986 32.2428C15.9706 32.2707 15.9348 32.2896 15.8959 32.2972C15.857 32.3048 15.8167 32.3008 15.7801 32.2856C15.7436 32.2705 15.7124 32.2448 15.6905 32.212C15.6686 32.1792 15.6571 32.1407 15.6574 32.1014C15.6576 32.0621 15.6697 32.0237 15.692 31.9912C15.7143 31.9587 15.7458 31.9335 15.7826 31.9188C15.8313 31.8994 15.8858 31.8998 15.9343 31.9198C15.9828 31.9399 16.0213 31.9781 16.0416 32.0262Z" fill="#263238"/>
<path d="M17.9569 35.3275L27.0073 31.6705" stroke="#263238" stroke-width="0.229517" stroke-linecap="round" stroke-linejoin="round"/>
<path d="M18.2035 35.9247L27.2544 32.2691" stroke="#263238" stroke-width="0.229517" stroke-linecap="round" stroke-linejoin="round"/>
<path d="M18.4917 36.6243L26.2099 33.5052" stroke="#263238" stroke-width="0.229517" stroke-linecap="round" stroke-linejoin="round"/>
<path d="M19.5271 36.9458L18.791 37.2432L19.0909 37.9731L19.8269 37.6757L19.5271 36.9458Z" stroke="#263238" stroke-width="0.114759" stroke-linecap="round" stroke-linejoin="round"/>
<path d="M20.8611 36.4082L20.125 36.7056L20.4249 37.4355L21.1609 37.1381L20.8611 36.4082Z" stroke="#263238" stroke-width="0.114759" stroke-linecap="round" stroke-linejoin="round"/>
<path d="M22.196 35.8681L21.46 36.1655L21.7598 36.8955L22.4959 36.5981L22.196 35.8681Z" stroke="#263238" stroke-width="0.114759" stroke-linecap="round" stroke-linejoin="round"/>
<path d="M23.53 35.3301L22.7939 35.6274L23.0938 36.3574L23.8299 36.06L23.53 35.3301Z" stroke="#263238" stroke-width="0.114759" stroke-linecap="round" stroke-linejoin="round"/>
<path d="M17.4767 35.5218C17.4918 35.5581 17.4955 35.598 17.4876 35.6365C17.4797 35.675 17.4605 35.7102 17.4323 35.7378C17.4041 35.7654 17.3684 35.7841 17.3295 35.7915C17.2906 35.7989 17.2504 35.7947 17.2139 35.7794C17.1775 35.7641 17.1464 35.7384 17.1247 35.7056C17.103 35.6728 17.0916 35.6343 17.0919 35.5951C17.0923 35.5558 17.1044 35.5175 17.1267 35.4851C17.149 35.4527 17.1806 35.4276 17.2173 35.4129C17.2663 35.3934 17.321 35.3939 17.3696 35.4143C17.4182 35.4347 17.4568 35.4733 17.4767 35.5218Z" fill="#263238"/>
<path d="M19.393 38.8207L28.4439 35.1651" stroke="#263238" stroke-width="0.229517" stroke-linecap="round" stroke-linejoin="round"/>
<path d="M19.6385 39.4203L28.6875 35.7637" stroke="#263238" stroke-width="0.229517" stroke-linecap="round" stroke-linejoin="round"/>
<path d="M19.9262 40.1194L27.6445 37.0003" stroke="#263238" stroke-width="0.229517" stroke-linecap="round" stroke-linejoin="round"/>
<path d="M20.9626 40.4409L20.2266 40.7383L20.5264 41.4682L21.2625 41.1709L20.9626 40.4409Z" stroke="#263238" stroke-width="0.114759" stroke-linecap="round" stroke-linejoin="round"/>
<path d="M22.2966 39.9013L21.5605 40.1987L21.8604 40.9287L22.5965 40.6313L22.2966 39.9013Z" stroke="#263238" stroke-width="0.114759" stroke-linecap="round" stroke-linejoin="round"/>
<path d="M23.6325 39.3633L22.8965 39.6606L23.1964 40.3906L23.9324 40.0932L23.6325 39.3633Z" stroke="#263238" stroke-width="0.114759" stroke-linecap="round" stroke-linejoin="round"/>
<path d="M24.9655 38.8247L24.2295 39.1221L24.5294 39.852L25.2654 39.5546L24.9655 38.8247Z" stroke="#263238" stroke-width="0.114759" stroke-linecap="round" stroke-linejoin="round"/>
<path d="M18.9113 39.0154C18.9263 39.0517 18.9301 39.0917 18.9222 39.1301C18.9143 39.1686 18.895 39.2039 18.8669 39.2315C18.8387 39.2591 18.8029 39.2778 18.7641 39.2852C18.7252 39.2926 18.685 39.2884 18.6485 39.2731C18.612 39.2578 18.581 39.2321 18.5593 39.1993C18.5375 39.1665 18.5261 39.128 18.5265 39.0887C18.5269 39.0495 18.539 39.0112 18.5613 38.9788C18.5836 38.9463 18.6151 38.9212 18.6519 38.9066C18.7008 38.8871 18.7556 38.8876 18.8042 38.908C18.8528 38.9283 18.8913 38.967 18.9113 39.0154Z" fill="#263238"/>
<path d="M20.8685 42.4135L29.9179 38.7583" stroke="#263238" stroke-width="0.229517" stroke-linecap="round" stroke-linejoin="round"/>
<path d="M21.1146 43.0126L30.164 39.3575" stroke="#263238" stroke-width="0.229517" stroke-linecap="round" stroke-linejoin="round"/>
<path d="M21.4014 43.7121L29.1201 40.5946" stroke="#263238" stroke-width="0.229517" stroke-linecap="round" stroke-linejoin="round"/>
<path d="M22.4402 44.0346L21.7041 44.332L22.004 45.062L22.74 44.7646L22.4402 44.0346Z" stroke="#263238" stroke-width="0.114759" stroke-linecap="round" stroke-linejoin="round"/>
<path d="M23.7732 43.4956L23.0371 43.793L23.337 44.5229L24.073 44.2255L23.7732 43.4956Z" stroke="#263238" stroke-width="0.114759" stroke-linecap="round" stroke-linejoin="round"/>
<path d="M25.1071 42.957L24.3711 43.2544L24.671 43.9844L25.407 43.687L25.1071 42.957Z" stroke="#263238" stroke-width="0.114759" stroke-linecap="round" stroke-linejoin="round"/>
<path d="M26.4421 42.417L25.7061 42.7144L26.0059 43.4443L26.742 43.1469L26.4421 42.417Z" stroke="#263238" stroke-width="0.114759" stroke-linecap="round" stroke-linejoin="round"/>
<path d="M20.3943 42.6063C20.4091 42.6422 20.4129 42.6818 20.4051 42.7199C20.3973 42.758 20.3783 42.793 20.3505 42.8204C20.3226 42.8478 20.2872 42.8664 20.2488 42.8738C20.2103 42.8813 20.1704 42.8772 20.1343 42.8622C20.0981 42.8473 20.0672 42.822 20.0455 42.7896C20.0238 42.7572 20.0123 42.7191 20.0124 42.6803C20.0125 42.6414 20.0243 42.6034 20.0461 42.5711C20.068 42.5388 20.099 42.5137 20.1353 42.4989C20.1594 42.4891 20.1852 42.4841 20.2113 42.4841C20.2373 42.4842 20.2632 42.4894 20.2872 42.4993C20.3113 42.5093 20.3331 42.5239 20.3515 42.5422C20.3698 42.5606 20.3844 42.5823 20.3943 42.6063Z" fill="#263238"/>
<path d="M17.7401 33.935L17.9085 34.0499L18.0935 33.4534" stroke="#263238" stroke-width="0.229517" stroke-linecap="round" stroke-linejoin="round"/>
<path d="M21.8241 36.3076L21.9929 36.4239L22.1774 35.8259" stroke="#263238" stroke-width="0.229517" stroke-linecap="round" stroke-linejoin="round"/>
<path d="M21.955 40.413L22.1253 40.5289L22.3083 39.9314" stroke="#263238" stroke-width="0.229517" stroke-linecap="round" stroke-linejoin="round"/>
<path d="M26.0712 42.9067L26.24 43.023L26.4245 42.4251" stroke="#263238" stroke-width="0.229517" stroke-linecap="round" stroke-linejoin="round"/>
</g>
<path d="M25.6107 45.3835C26.0703 43.8308 27.8619 38.8603 27.6262 36.6613C27.6074 36.4782 27.5652 36.2982 27.5004 36.1256C26.8718 34.4837 24.3024 34.6428 23.3162 36.0033C22.2319 37.4997 21.3518 40.1917 21.2713 41.8259C21.2024 42.6448 20.9327 43.4349 20.4855 44.1277C20.332 44.3839 20.1586 44.6279 19.9669 44.8575L14.107 31.126C13.5152 31.6128 12.9984 32.1823 12.5728 32.8165C12.3333 33.17 12.1787 33.5729 12.121 33.9946C12.0012 35.3532 10.4493 40.9118 9.80497 43.2582C9.79319 43.3087 9.77747 43.3553 9.76568 43.4038C9.14493 45.6591 10.7833 54.0358 10.3138 56.4677C9.84426 58.8996 9.55549 58.8472 9.48674 60.5745C9.43763 61.8361 7.61072 65.6731 5.5579 69.6111C4.37925 71.8664 3.13774 74.1547 2.11035 76.016L17.1028 75.4007C17.3621 73.5996 17.6292 71.7014 17.8728 69.8615C17.9787 69.0962 18.1282 68.3374 18.3207 67.5888C18.6507 66.269 19.0534 65.0754 19.3029 64.3767C19.621 63.3496 19.8833 62.3066 20.0887 61.2519C21.8311 59.4294 24.1177 56.5628 24.7797 54.6219V54.6083C24.9421 54.2091 24.9937 53.7743 24.929 53.3487C24.8559 52.9993 24.8157 52.6439 24.8092 52.2871C24.7404 50.1754 25.2256 46.6761 25.6107 45.3835Z" fill="white"/>
<path opacity="0.8" d="M20.4889 44.1394C20.0253 45.0613 19.4654 45.958 19.1138 46.9905C18.7621 48.023 18.3712 48.1705 17.3222 48.9779C16.2732 49.7853 15.5071 48.4559 15.5071 48.4559C15.5071 48.4559 16.8959 47.0293 16.4343 46.2375C15.9727 45.4456 14.2381 43.4756 14.3402 42.381C14.4424 41.2863 13.2932 38.8486 13.2932 38.8486C13.2932 38.8486 15.9118 37.3309 15.403 35.5492C15.126 34.5846 13.7509 33.552 12.5723 32.8165C12.9978 32.1823 13.5147 31.6128 14.1065 31.126L19.9703 44.8692C20.162 44.6395 20.3354 44.3955 20.4889 44.1394Z" fill="#FFE4C8"/>
<path opacity="0.8" d="M10.9813 52.5695C11.0167 52.686 11.8693 55.4692 11.1503 56.6279C10.4313 57.7866 9.69268 59.3218 10.0443 60.8978C10.3233 62.1554 7.96792 66.697 5.56348 69.6122C7.6104 65.6742 9.43731 61.8371 9.49231 60.5756C9.56107 58.8482 9.84984 58.9006 10.3193 56.4687C10.7888 54.0368 9.14068 45.6601 9.77126 43.4048C9.78305 43.3563 9.79876 43.3097 9.81055 43.2593C10.2683 45.8154 11.3349 50.9062 11.6276 52.5424C11.993 54.6249 11.0206 52.653 10.9813 52.5695Z" fill="#FFE4C8"/>
<path opacity="0.8" d="M16.3799 69.3521C18.1223 61.9419 23.9861 56.2572 24.7797 54.6133C24.1177 56.5541 21.8331 59.4208 20.0887 61.2432C19.8833 62.2979 19.621 63.341 19.3029 64.368C19.0574 65.0667 18.6547 66.2603 18.3207 67.5801C16.6235 69.5637 16.3799 69.3521 16.3799 69.3521Z" fill="#FFE4C8"/>
<path opacity="0.8" d="M25.6099 45.3836C25.217 46.6762 24.7397 50.1755 24.8143 52.2775C24.5059 50.9557 23.9127 49.2808 23.8145 46.9459C23.6475 42.9866 25.9183 44.4073 25.1267 42.4568C24.335 40.5062 22.0779 43.006 23.1898 38.8778C24.003 35.8617 26.3132 35.8909 27.4997 36.1257C27.5644 36.2983 27.6067 36.4783 27.6254 36.6614C27.8612 38.8604 26.0696 43.8348 25.6099 45.3836Z" fill="#FFE4C8"/>
<path d="M19.9713 44.8687C19.6159 45.5471 19.3265 46.2574 19.107 46.99C18.8614 47.941 17.618 47.8052 16.9756 48.3952" stroke="#263238" stroke-width="0.114759" stroke-linecap="round" stroke-linejoin="round"/>
<path d="M15.2793 43.1958C15.2793 43.1958 16.9726 43.7781 17.9568 44.5447C18.941 45.3113 19.6698 45.4879 19.6698 45.4879" stroke="#263238" stroke-width="0.114759" stroke-linecap="round" stroke-linejoin="round"/>
<path d="M14.2021 39.0518C14.2021 39.0518 15.5674 39.4303 16.5791 38.9548C16.6248 38.4705 16.7109 37.9908 16.8364 37.5205" stroke="#263238" stroke-width="0.114759" stroke-linecap="round" stroke-linejoin="round"/>
<path d="M16.9043 39.1494C16.9043 39.1494 16.918 39.3435 17.6135 39.3435" stroke="#263238" stroke-width="0.114759" stroke-linecap="round" stroke-linejoin="round"/>
<path d="M20.0865 61.2461C19.1341 62.1936 18.402 63.3347 17.9414 64.5902" stroke="#263238" stroke-width="0.114759" stroke-linecap="round" stroke-linejoin="round"/>
<path d="M9.68457 43.8169C9.62367 44.9814 11.0047 49.1115 11.425 51.165C11.8454 53.2184 12.0006 54.6701 12.0006 54.6701" stroke="#263238" stroke-width="0.114759" stroke-linecap="round" stroke-linejoin="round"/>
<path d="M4.39648 71.9203C6.28625 68.5277 8.10334 65.0361 9.42932 61.2689C9.58844 60.7274 9.37628 60.0229 9.5354 59.4814C11.3152 54.5904 9.29574 49.4996 9.62773 44.4922C9.90471 42.5183 10.5431 40.529 11.1835 38.5396C11.4841 37.0995 11.5961 35.4905 12.0774 34.0426C12.5724 32.9519 13.0596 31.6825 14.1145 31.1313C16.1182 35.6671 18.116 40.2242 19.9782 44.8745C20.819 44.3951 20.9604 43.3218 21.096 42.4213C21.5478 40.2611 22.0055 38.2795 22.8325 36.4629C23.6733 34.9995 25.8145 34.3765 27.1287 35.572C27.5059 35.9449 27.7215 36.4481 27.7298 36.9753C27.4745 39.4828 26.6769 42.0215 25.8735 44.366C25.5572 45.449 25.235 46.3554 25.0995 47.4306C25.1152 47.7858 25.1211 47.9644 25.1368 48.3215C24.6712 50.1245 25.0995 51.7122 24.9934 53.5016C24.5868 56.7293 21.9741 58.9768 20.0824 61.3737C19.6168 63.1768 19.1493 64.9798 18.5108 66.7906C17.7251 69.4981 17.4736 72.1862 17.2045 74.7967" stroke="#263238" stroke-width="0.114759" stroke-linecap="round" stroke-linejoin="round"/>
<path d="M49.0184 20.2104H32.7373V44.5713H49.0184V20.2104Z" fill="white" stroke="#263238" stroke-width="0.114759" stroke-linecap="round" stroke-linejoin="round"/>
<path d="M33.9572 21.8688L38.1949 21.8602" stroke="#263238" stroke-width="0.229517" stroke-linecap="round" stroke-linejoin="round"/>
<path d="M33.9595 22.6789L36.8414 22.672" stroke="#263238" stroke-width="0.229517" stroke-linecap="round" stroke-linejoin="round"/>
<path d="M34.9963 24.5893L47.1851 24.5634" stroke="#263238" stroke-width="0.229517" stroke-linecap="round" stroke-linejoin="round"/>
<path d="M34.9975 25.3975L47.1861 25.3734" stroke="#263238" stroke-width="0.229517" stroke-linecap="round" stroke-linejoin="round"/>
<path d="M35.0008 26.3419L45.3954 26.3213" stroke="#263238" stroke-width="0.229517" stroke-linecap="round" stroke-linejoin="round"/>
<path d="M36.0469 27.2006L35.0557 27.2026L35.0578 28.1895L36.049 28.1874L36.0469 27.2006Z" stroke="#263238" stroke-width="0.114759" stroke-linecap="round" stroke-linejoin="round"/>
<path d="M37.8409 27.1957L36.8496 27.1978L36.8517 28.1846L37.843 28.1825L37.8409 27.1957Z" stroke="#263238" stroke-width="0.114759" stroke-linecap="round" stroke-linejoin="round"/>
<path d="M39.6397 27.1918L38.6484 27.1938L38.6505 28.1807L39.6418 28.1786L39.6397 27.1918Z" stroke="#263238" stroke-width="0.114759" stroke-linecap="round" stroke-linejoin="round"/>
<path d="M41.4366 27.1884L40.4453 27.1904L40.4474 28.1773L41.4387 28.1752L41.4366 27.1884Z" stroke="#263238" stroke-width="0.114759" stroke-linecap="round" stroke-linejoin="round"/>
<path d="M34.3481 24.5877C34.3487 24.6369 34.3346 24.6852 34.3075 24.7264C34.2805 24.7676 34.2417 24.7999 34.1962 24.8191C34.1506 24.8383 34.1004 24.8436 34.0518 24.8343C34.0033 24.825 33.9586 24.8016 33.9235 24.7669C33.8883 24.7323 33.8643 24.688 33.8545 24.6398C33.8447 24.5915 33.8496 24.5415 33.8685 24.4959C33.8873 24.4504 33.9193 24.4116 33.9605 24.3842C34.0016 24.3569 34.05 24.3423 34.0994 24.3424C34.1649 24.3426 34.2278 24.3684 34.2743 24.4143C34.3209 24.4602 34.3474 24.5225 34.3481 24.5877Z" fill="#263238"/>
<path d="M35.0061 29.3115L47.1949 29.2855" stroke="#263238" stroke-width="0.229517" stroke-linecap="round" stroke-linejoin="round"/>
<path d="M35.0082 30.1196L47.1968 30.0956" stroke="#263238" stroke-width="0.229517" stroke-linecap="round" stroke-linejoin="round"/>
<path d="M35.0104 31.0669L45.4052 31.0445" stroke="#263238" stroke-width="0.229517" stroke-linecap="round" stroke-linejoin="round"/>
<path d="M36.0557 31.9227L35.0645 31.9248L35.0665 32.9116L36.0578 32.9096L36.0557 31.9227Z" stroke="#263238" stroke-width="0.114759" stroke-linecap="round" stroke-linejoin="round"/>
<path d="M37.8526 31.9208L36.8613 31.9229L36.8634 32.9097L37.8547 32.9076L37.8526 31.9208Z" stroke="#263238" stroke-width="0.114759" stroke-linecap="round" stroke-linejoin="round"/>
<path d="M39.6495 31.9159L38.6582 31.918L38.6603 32.9048L39.6516 32.9027L39.6495 31.9159Z" stroke="#263238" stroke-width="0.114759" stroke-linecap="round" stroke-linejoin="round"/>
<path d="M41.4464 31.9125L40.4551 31.9146L40.4572 32.9014L41.4484 32.8993L41.4464 31.9125Z" stroke="#263238" stroke-width="0.114759" stroke-linecap="round" stroke-linejoin="round"/>
<path d="M34.3579 29.3133C34.3581 29.3624 34.3436 29.4105 34.3163 29.4515C34.289 29.4924 34.2501 29.5244 34.2045 29.5433C34.159 29.5622 34.1088 29.5672 34.0603 29.5577C34.0119 29.5482 33.9674 29.5245 33.9325 29.4898C33.8975 29.4551 33.8738 29.4108 33.8641 29.3626C33.8545 29.3144 33.8595 29.2644 33.8785 29.219C33.8974 29.1736 33.9295 29.1348 33.9706 29.1076C34.0117 29.0804 34.06 29.0659 34.1094 29.0661C34.1752 29.0663 34.2383 29.0924 34.2848 29.1387C34.3314 29.185 34.3577 29.2478 34.3579 29.3133Z" fill="#263238"/>
<path d="M35.016 34.0347L47.2047 34.0106" stroke="#263238" stroke-width="0.229517" stroke-linecap="round" stroke-linejoin="round"/>
<path d="M35.0178 34.8452L47.2047 34.819" stroke="#263238" stroke-width="0.229517" stroke-linecap="round" stroke-linejoin="round"/>
<path d="M35.0202 35.7901L45.4149 35.7676" stroke="#263238" stroke-width="0.229517" stroke-linecap="round" stroke-linejoin="round"/>
<path d="M36.0655 36.6473L35.0742 36.6494L35.0763 37.6363L36.0676 37.6342L36.0655 36.6473Z" stroke="#263238" stroke-width="0.114759" stroke-linecap="round" stroke-linejoin="round"/>
<path d="M37.8624 36.6434L36.8711 36.6455L36.8732 37.6323L37.8645 37.6303L37.8624 36.6434Z" stroke="#263238" stroke-width="0.114759" stroke-linecap="round" stroke-linejoin="round"/>
<path d="M39.6612 36.6405L38.6699 36.6426L38.672 37.6294L39.6633 37.6273L39.6612 36.6405Z" stroke="#263238" stroke-width="0.114759" stroke-linecap="round" stroke-linejoin="round"/>
<path d="M41.4561 36.6361L40.4648 36.6382L40.4669 37.625L41.4582 37.6229L41.4561 36.6361Z" stroke="#263238" stroke-width="0.114759" stroke-linecap="round" stroke-linejoin="round"/>
<path d="M34.3677 34.0374C34.3679 34.0866 34.3534 34.1347 34.3261 34.1756C34.2988 34.2166 34.2599 34.2485 34.2143 34.2674C34.1687 34.2863 34.1185 34.2913 34.0701 34.2818C34.0217 34.2723 33.9772 34.2487 33.9422 34.2139C33.9073 34.1792 33.8835 34.1349 33.8739 34.0867C33.8643 34.0385 33.8693 33.9885 33.8882 33.9431C33.9072 33.8977 33.9392 33.859 33.9803 33.8317C34.0215 33.8045 34.0698 33.7901 34.1191 33.7902C34.185 33.7904 34.248 33.8165 34.2946 33.8628C34.3412 33.9091 34.3674 33.9719 34.3677 34.0374Z" fill="#263238"/>
<path d="M35.0258 38.8926L47.2125 38.8684" stroke="#263238" stroke-width="0.229517" stroke-linecap="round" stroke-linejoin="round"/>
<path d="M35.0287 39.7031L47.2154 39.6789" stroke="#263238" stroke-width="0.229517" stroke-linecap="round" stroke-linejoin="round"/>
<path d="M35.0291 40.648L45.4237 40.6275" stroke="#263238" stroke-width="0.229517" stroke-linecap="round" stroke-linejoin="round"/>
<path d="M36.0772 41.5057L35.0859 41.5078L35.088 42.4947L36.0793 42.4926L36.0772 41.5057Z" stroke="#263238" stroke-width="0.114759" stroke-linecap="round" stroke-linejoin="round"/>
<path d="M37.8721 41.5013L36.8809 41.5034L36.8829 42.4903L37.8742 42.4882L37.8721 41.5013Z" stroke="#263238" stroke-width="0.114759" stroke-linecap="round" stroke-linejoin="round"/>
<path d="M39.67 41.4974L38.6787 41.4995L38.6808 42.4863L39.6721 42.4843L39.67 41.4974Z" stroke="#263238" stroke-width="0.114759" stroke-linecap="round" stroke-linejoin="round"/>
<path d="M41.4678 41.493L40.4766 41.4951L40.4787 42.482L41.4699 42.4799L41.4678 41.493Z" stroke="#263238" stroke-width="0.114759" stroke-linecap="round" stroke-linejoin="round"/>
<path d="M34.3864 38.8942C34.3866 38.9429 34.3723 38.9905 34.3453 39.0311C34.3183 39.0717 34.2799 39.1034 34.2348 39.1222C34.1897 39.141 34.14 39.1461 34.092 39.1368C34.044 39.1276 33.9998 39.1043 33.9651 39.0701C33.9303 39.0358 33.9066 38.9921 33.8968 38.9444C33.887 38.8967 33.8916 38.8472 33.9101 38.8021C33.9286 38.757 33.9601 38.7184 34.0006 38.6912C34.0411 38.6639 34.0888 38.6492 34.1377 38.6489C34.1702 38.6487 34.2025 38.6549 34.2326 38.6672C34.2627 38.6794 34.2901 38.6974 34.3132 38.7202C34.3363 38.743 34.3546 38.7701 34.3672 38.7999C34.3798 38.8298 34.3863 38.8618 34.3864 38.8942Z" fill="#263238"/>
<path d="M35.4107 27.5953L35.5511 27.807L36.0464 27.201" stroke="#263238" stroke-width="0.229517" stroke-linecap="round" stroke-linejoin="round"/>
<path d="M39.0142 32.252L39.1544 32.4657L39.65 31.8578" stroke="#263238" stroke-width="0.229517" stroke-linecap="round" stroke-linejoin="round"/>
<path d="M37.2271 37.0772L37.3692 37.2911L37.8629 36.683" stroke="#263238" stroke-width="0.229517" stroke-linecap="round" stroke-linejoin="round"/>
<path d="M40.8081 41.8887L40.9483 42.1024L41.4439 41.4945" stroke="#263238" stroke-width="0.229517" stroke-linecap="round" stroke-linejoin="round"/>
<defs>
<clipPath id="clip0_834_28705">
<rect width="15.0258" height="20.7621" fill="white" transform="matrix(0.998836 0.0482276 -0.0490328 0.998797 51.8096 26.667)"/>
</clipPath>
<clipPath id="clip1_834_28705">
<rect width="15.0086" height="20.7861" fill="white" transform="matrix(0.927964 -0.372671 0.378023 0.925796 12.3584 29.0293)"/>
</clipPath>
</defs>
</svg>
