<svg width="18" height="18" viewBox="0 0 18 18" fill="none" xmlns="http://www.w3.org/2000/svg">
<path d="M15.125 15.1241H2.875C2.39175 15.1241 2 15.5159 2 15.9991C2 16.4824 2.39175 16.8741 2.875 16.8741H15.125C15.6082 16.8741 16 16.4824 16 15.9991C16 15.5159 15.6082 15.1241 15.125 15.1241Z" fill="#F0792E"/>
<path d="M2 14.2509V16.0009C2 16.4841 2.39175 16.8759 2.875 16.8759C3.35825 16.8759 3.75 16.4841 3.75 16.0009V14.2509C3.75 13.7676 3.35825 13.3759 2.875 13.3759C2.39175 13.3759 2 13.7676 2 14.2509Z" fill="#F0792E"/>
<path d="M14.25 14.2509V16.0009C14.25 16.4841 14.6418 16.8759 15.125 16.8759C15.6082 16.8759 16 16.4841 16 16.0009V14.2509C16 13.7676 15.6082 13.3759 15.125 13.3759C14.6418 13.3759 14.25 13.7676 14.25 14.2509Z" fill="#F0792E"/>
<path d="M8.99828 2C9.17968 1.99862 9.35703 2.05366 9.50578 2.1575L13.0058 4.625C13.1944 4.75882 13.3224 4.96188 13.3617 5.18979C13.4011 5.4177 13.3486 5.65192 13.2158 5.84125C13.1495 5.93588 13.0651 6.01644 12.9674 6.07828C12.8698 6.14012 12.7609 6.18201 12.647 6.20153C12.5331 6.22106 12.4165 6.21783 12.3039 6.19203C12.1912 6.16624 12.0848 6.11839 11.9908 6.05125L8.99828 3.96L6.02328 6.2C5.83763 6.33924 5.60427 6.39902 5.37454 6.3662C5.14481 6.33338 4.93752 6.21065 4.79828 6.025C4.65905 5.83935 4.59926 5.60599 4.63208 5.37625C4.6649 5.14652 4.78763 4.93924 4.97328 4.8L8.47328 2.175C8.62474 2.06141 8.80895 2 8.99828 2Z" fill="#F0792E"/>
<path d="M8.99756 3.74903C9.22962 3.74903 9.45218 3.84122 9.61628 4.00531C9.78037 4.16941 9.87256 4.39197 9.87256 4.62403V11.624C9.87256 11.8561 9.78037 12.0786 9.61628 12.2427C9.45218 12.4068 9.22962 12.499 8.99756 12.499C8.7655 12.499 8.54294 12.4068 8.37884 12.2427C8.21475 12.0786 8.12256 11.8561 8.12256 11.624V4.62403C8.12256 4.39197 8.21475 4.16941 8.37884 4.00531C8.54294 3.84122 8.7655 3.74903 8.99756 3.74903Z" fill="#F0792E"/>
</svg>
