<svg width="22" height="22" viewBox="0 0 22 22" fill="none" xmlns="http://www.w3.org/2000/svg">
<path d="M21.4092 9.56894C21.4085 9.56844 21.408 9.56776 21.4075 9.56726L12.4323 0.593338C12.0498 0.210648 11.5412 0 11.0001 0C10.4591 0 9.95047 0.210648 9.56775 0.593338L0.597281 9.56273C0.59426 9.56575 0.59107 9.56894 0.588217 9.57196C-0.197385 10.362 -0.196042 11.6439 0.592078 12.4319C0.952145 12.7921 1.42753 13.0006 1.93599 13.0226C1.95681 13.0246 1.97762 13.0256 1.99861 13.0256H2.35616V19.6297C2.35616 20.9367 3.41974 22 4.72689 22H8.23827C8.59431 22 8.88286 21.7113 8.88286 21.3555V16.1777C8.88286 15.5814 9.36816 15.0963 9.96458 15.0963H12.0357C12.6321 15.0963 13.1172 15.5814 13.1172 16.1777V21.3555C13.1172 21.7113 13.4058 22 13.7618 22H17.2732C18.5805 22 19.6439 20.9367 19.6439 19.6297V13.0256H19.9756C20.5165 13.0256 21.0251 12.8149 21.408 12.4321C22.197 11.6429 22.1973 10.3587 21.4092 9.56894ZM20.4963 11.5207C20.3572 11.6598 20.1722 11.7365 19.9756 11.7365H18.9993C18.6433 11.7365 18.3547 12.025 18.3547 12.381V19.6297C18.3547 20.2259 17.8696 20.7109 17.2732 20.7109H14.4064V16.1777C14.4064 14.8707 13.343 13.8072 12.0357 13.8072H9.96458C8.65725 13.8072 7.59367 14.8707 7.59367 16.1777V20.7109H4.72689C4.13064 20.7109 3.64535 20.2259 3.64535 19.6297V12.381C3.64535 12.025 3.35679 11.7365 3.00075 11.7365H2.04124C2.03117 11.7358 2.02127 11.7353 2.01103 11.7352C1.81899 11.7318 1.63888 11.6556 1.50391 11.5205C1.21687 11.2335 1.21687 10.7664 1.50391 10.4792C1.50408 10.4792 1.50408 10.479 1.50425 10.4788L1.50475 10.4783L10.4796 1.50475C10.6186 1.3656 10.8034 1.28906 11.0001 1.28906C11.1967 1.28906 11.3815 1.3656 11.5207 1.50475L20.4935 10.4765C20.4948 10.4778 20.4963 10.4792 20.4977 10.4805C20.7832 10.768 20.7827 11.2341 20.4963 11.5207Z" fill="white"/>
</svg>
