<svg width="24" height="20" viewBox="0 0 24 20" fill="none" xmlns="http://www.w3.org/2000/svg">
<path d="M22.0755 0H1.32075C0.970588 0.000387043 0.634873 0.139662 0.387268 0.387268C0.139662 0.634873 0.000387043 0.970588 0 1.32075V15.283C0.000387043 15.6332 0.139662 15.9689 0.387268 16.2165C0.634873 16.4641 0.970588 16.6034 1.32075 16.6038H8.91038L8.40707 18.1132H7.16981C7.06973 18.1132 6.97375 18.153 6.90298 18.2237C6.83221 18.2945 6.79245 18.3905 6.79245 18.4906V19.6226C6.79245 19.7227 6.83221 19.8187 6.90298 19.8895C6.97375 19.9602 7.06973 20 7.16981 20H16.2264C16.3265 20 16.4225 19.9602 16.4932 19.8895C16.564 19.8187 16.6038 19.7227 16.6038 19.6226V18.4906C16.6038 18.3905 16.564 18.2945 16.4932 18.2237C16.4225 18.153 16.3265 18.1132 16.2264 18.1132H14.9892L14.4858 16.6038H22.0755C22.4256 16.6034 22.7614 16.4641 23.009 16.2165C23.2566 15.9689 23.3958 15.6332 23.3962 15.283V1.32075C23.3958 0.970588 23.2566 0.634873 23.009 0.387268C22.7614 0.139662 22.4256 0.000387043 22.0755 0ZM15.8491 18.8679V19.2453H7.54717V18.8679H15.8491ZM9.20283 18.1132L9.70613 16.6038H13.6901L14.1934 18.1132H9.20283ZM22.6415 15.283C22.6414 15.4331 22.5817 15.577 22.4756 15.6831C22.3695 15.7893 22.2256 15.8489 22.0755 15.8491H1.32075C1.17067 15.8489 1.02677 15.7893 0.920644 15.6831C0.814518 15.577 0.754842 15.4331 0.754717 15.283V14.717H22.6415V15.283ZM22.6415 13.9623H0.754717V1.32075C0.754842 1.17067 0.814518 1.02677 0.920644 0.920644C1.02677 0.814518 1.17067 0.754842 1.32075 0.754717H22.0755C22.2256 0.754842 22.3695 0.814518 22.4756 0.920644C22.5817 1.02677 22.6414 1.17067 22.6415 1.32075V13.9623Z" fill="#F0792E"/>
<path d="M13.2074 9.81136C13.4158 9.81136 13.5848 9.64241 13.5848 9.434C13.5848 9.22559 13.4158 9.05664 13.2074 9.05664C12.999 9.05664 12.8301 9.22559 12.8301 9.434C12.8301 9.64241 12.999 9.81136 13.2074 9.81136Z" fill="#F0792E"/>
<path d="M10.9909 9.05664C10.7825 9.05664 10.5664 9.2256 10.5664 9.434C10.5664 9.53408 10.6062 9.63006 10.6769 9.70083C10.7477 9.7716 10.8437 9.81136 10.9438 9.81136C11.0438 9.81136 11.1398 9.7716 11.2106 9.70083C11.2814 9.63006 11.3211 9.53408 11.3211 9.434C11.3211 9.2256 11.1993 9.05664 10.9909 9.05664Z" fill="#F0792E"/>
<path d="M11.6977 2.26416C10.7274 2.26416 9.77895 2.55187 8.97222 3.09091C8.16548 3.62995 7.53671 4.39611 7.16542 5.29251C6.79412 6.1889 6.69697 7.17526 6.88626 8.12687C7.07554 9.07847 7.54276 9.95258 8.22883 10.6386C8.9149 11.3247 9.789 11.7919 10.7406 11.9812C11.6922 12.1705 12.6786 12.0734 13.575 11.7021C14.4714 11.3308 15.2375 10.702 15.7766 9.89526C16.3156 9.08853 16.6033 8.14007 16.6033 7.16982C16.6019 5.86919 16.0846 4.62223 15.1649 3.70254C14.2452 2.78285 12.9983 2.26556 11.6977 2.26416ZM11.6977 11.3208C10.8767 11.3208 10.0741 11.0773 9.39151 10.6212C8.70889 10.1651 8.17686 9.5168 7.86268 8.75832C7.54851 7.99983 7.46631 7.16522 7.62647 6.36001C7.78664 5.55481 8.18197 4.81518 8.76249 4.23466C9.34301 3.65414 10.0826 3.2588 10.8878 3.09864C11.693 2.93847 12.5277 3.02067 13.2862 3.33485C14.0446 3.64902 14.6929 4.18106 15.149 4.86368C15.6051 5.5463 15.8486 6.34884 15.8486 7.16982C15.8474 8.27034 15.4096 9.32542 14.6314 10.1036C13.8533 10.8818 12.7982 11.3195 11.6977 11.3208Z" fill="#F0792E"/>
<path d="M14.2029 5.79397C14.1675 5.75211 14.1235 5.71848 14.0738 5.69542C14.0241 5.67236 13.9699 5.66044 13.9151 5.66048H10.9434V5.28312C10.9434 5.18304 10.9037 5.08706 10.8329 5.01629C10.7621 4.94552 10.6662 4.90576 10.5661 4.90576H9.434C9.33392 4.90576 9.23793 4.94552 9.16717 5.01629C9.0964 5.08706 9.05664 5.18304 9.05664 5.28312C9.05664 5.3832 9.0964 5.47918 9.16717 5.54995C9.23793 5.62072 9.33392 5.66048 9.434 5.66048H10.1887V8.30199C10.1887 8.40207 10.2285 8.49805 10.2992 8.56882C10.37 8.63959 10.466 8.67935 10.5661 8.67935H13.5378C13.6271 8.67934 13.7134 8.64768 13.7816 8.58999C13.8497 8.5323 13.8952 8.45231 13.9099 8.36425L14.2873 6.1001C14.2963 6.046 14.2935 5.99059 14.2789 5.93771C14.2643 5.88484 14.2384 5.83579 14.2029 5.79397ZM13.218 7.92463H10.9434V6.4152H13.4698L13.218 7.92463Z" fill="#F0792E"/>
</svg>
