<svg width="22" height="21" viewBox="0 0 22 21" fill="none" xmlns="http://www.w3.org/2000/svg">
<path d="M10.9846 1.87238C16.5141 1.87238 20.0955 4.80629 20.0955 9.54174C20.0955 14.2772 16.5141 17.213 10.9846 17.213C10.1394 17.213 9.31672 17.116 8.46975 16.9184L7.90448 17.7039L7.52576 18.1439C7.19929 18.526 6.10232 19.6484 4.29271 19.9635C4.63784 19.3408 4.89902 18.7069 5.07066 18.073C5.20311 17.579 5.22736 17.3198 5.23483 17.0942L5.25721 15.6432L4.81507 15.3449C2.36183 13.6875 1.87362 12.1556 1.87362 9.54174C1.87362 4.80629 5.45496 1.87238 10.9846 1.87238ZM10.9846 0C4.9326 0 0 4.23767 0 9.54174C0 12.6217 1.68649 15.3026 4.27965 17.0532C4.27592 17.1558 4.28338 17.3235 4.14719 17.8232C3.98115 18.444 3.64162 19.3165 2.95508 20.3009L2.4663 21H3.31887C6.27582 21 7.98656 19.0742 8.25147 18.7647C9.13203 18.9716 10.0387 19.0854 10.9846 19.0854C17.0365 19.0854 21.9691 14.8477 21.9691 9.54174C21.9691 4.23767 17.0365 0 10.9846 0Z" fill="#434B53"/>
</svg>
