<svg width="19" height="19" viewBox="0 0 19 19" fill="none" xmlns="http://www.w3.org/2000/svg">
<g opacity="0.5" clip-path="url(#clip0_834_16548)">
<path d="M10.3535 13.5098C10.3535 14.3282 11.0194 14.9941 11.8379 14.9941H13.582C14.4005 14.9941 15.0664 14.3282 15.0664 13.5098V11.7656C15.0664 10.9471 14.4005 10.2812 13.582 10.2812H11.8379C11.0194 10.2812 10.3535 10.9471 10.3535 11.7656V13.5098ZM11.8379 11.7656H13.582L13.583 13.5097C13.583 13.5097 13.5827 13.5098 13.582 13.5098H11.8379V11.7656Z" fill="#434B53"/>
<path d="M14.3242 8.53516C14.7341 8.53516 15.0664 8.20287 15.0664 7.79297C15.0664 7.38307 14.7341 7.05078 14.3242 7.05078C13.9143 7.05078 13.582 7.38307 13.582 7.79297C13.582 8.20287 13.9143 8.53516 14.3242 8.53516Z" fill="#434B53"/>
<path d="M11.0957 8.53516C11.5056 8.53516 11.8379 8.20287 11.8379 7.79297C11.8379 7.38307 11.5056 7.05078 11.0957 7.05078C10.6858 7.05078 10.3535 7.38307 10.3535 7.79297C10.3535 8.20287 10.6858 8.53516 11.0957 8.53516Z" fill="#434B53"/>
<path d="M18.2578 13.0625C18.6677 13.0625 19 12.7302 19 12.3203V4.45312C19 2.81616 17.6682 1.48438 16.0312 1.48438H15.0664V0.742188C15.0664 0.332277 14.7341 0 14.3242 0C13.9143 0 13.582 0.332277 13.582 0.742188V1.48438H10.2051V0.742188C10.2051 0.332277 9.8728 0 9.46289 0C9.05298 0 8.7207 0.332277 8.7207 0.742188V1.48438H5.38086V0.742188C5.38086 0.332277 5.04858 0 4.63867 0C4.22876 0 3.89648 0.332277 3.89648 0.742188V1.48438H2.96875C1.33178 1.48438 0 2.81616 0 4.45312V16.0312C0 17.6682 1.33178 19 2.96875 19H16.0312C17.6682 19 19 17.6682 19 16.0312C19 15.6213 18.6677 15.2891 18.2578 15.2891C17.8479 15.2891 17.5156 15.6213 17.5156 16.0312C17.5156 16.8497 16.8497 17.5156 16.0312 17.5156H2.96875C2.15027 17.5156 1.48438 16.8497 1.48438 16.0312V4.45312C1.48438 3.63464 2.15027 2.96875 2.96875 2.96875H3.89648V3.71094C3.89648 4.12085 4.22876 4.45312 4.63867 4.45312C5.04858 4.45312 5.38086 4.12085 5.38086 3.71094V2.96875H8.7207V3.71094C8.7207 4.12085 9.05298 4.45312 9.46289 4.45312C9.8728 4.45312 10.2051 4.12085 10.2051 3.71094V2.96875H13.582V3.71094C13.582 4.12085 13.9143 4.45312 14.3242 4.45312C14.7341 4.45312 15.0664 4.12085 15.0664 3.71094V2.96875H16.0312C16.8497 2.96875 17.5156 3.63464 17.5156 4.45312V12.3203C17.5156 12.7302 17.8479 13.0625 18.2578 13.0625Z" fill="#434B53"/>
<path d="M4.63867 14.9922C5.04857 14.9922 5.38086 14.6599 5.38086 14.25C5.38086 13.8401 5.04857 13.5078 4.63867 13.5078C4.22877 13.5078 3.89648 13.8401 3.89648 14.25C3.89648 14.6599 4.22877 14.9922 4.63867 14.9922Z" fill="#434B53"/>
<path d="M4.63867 8.53516C5.04857 8.53516 5.38086 8.20287 5.38086 7.79297C5.38086 7.38307 5.04857 7.05078 4.63867 7.05078C4.22877 7.05078 3.89648 7.38307 3.89648 7.79297C3.89648 8.20287 4.22877 8.53516 4.63867 8.53516Z" fill="#434B53"/>
<path d="M4.63867 11.7656C5.04857 11.7656 5.38086 11.4333 5.38086 11.0234C5.38086 10.6135 5.04857 10.2812 4.63867 10.2812C4.22877 10.2812 3.89648 10.6135 3.89648 11.0234C3.89648 11.4333 4.22877 11.7656 4.63867 11.7656Z" fill="#434B53"/>
<path d="M7.86719 11.7656C8.27709 11.7656 8.60938 11.4333 8.60938 11.0234C8.60938 10.6135 8.27709 10.2812 7.86719 10.2812C7.45729 10.2812 7.125 10.6135 7.125 11.0234C7.125 11.4333 7.45729 11.7656 7.86719 11.7656Z" fill="#434B53"/>
<path d="M7.86719 8.53516C8.27709 8.53516 8.60938 8.20287 8.60938 7.79297C8.60938 7.38307 8.27709 7.05078 7.86719 7.05078C7.45729 7.05078 7.125 7.38307 7.125 7.79297C7.125 8.20287 7.45729 8.53516 7.86719 8.53516Z" fill="#434B53"/>
<path d="M7.86719 14.9922C8.27709 14.9922 8.60938 14.6599 8.60938 14.25C8.60938 13.8401 8.27709 13.5078 7.86719 13.5078C7.45729 13.5078 7.125 13.8401 7.125 14.25C7.125 14.6599 7.45729 14.9922 7.86719 14.9922Z" fill="#434B53"/>
</g>
<defs>
<clipPath id="clip0_834_16548">
<rect width="19" height="19" fill="white"/>
</clipPath>
</defs>
</svg>
