<svg width="19" height="19" viewBox="0 0 19 19" fill="none" xmlns="http://www.w3.org/2000/svg">
<path d="M6.467 14.7777H1.93517C0.867661 14.7777 0 13.91 0 12.8425V1.93517C0 0.867661 0.867661 0 1.93517 0H10.0277C11.0952 0 11.9629 0.867661 11.9629 1.93517V6.2207H10.9073V1.93517C10.9073 1.45032 10.5126 1.05555 10.0277 1.05555H1.93517C1.45032 1.05555 1.05555 1.45032 1.05555 1.93517V12.8425C1.05555 13.3274 1.45032 13.7221 1.93517 13.7221H6.467V14.7777Z" fill="#F0792E"/>
<path d="M2.63919 5.62965H9.32433V6.6852H2.63919V5.62965Z" fill="#F0792E"/>
<path d="M2.63919 8.44423H6.50953V9.49978H2.63919V8.44423Z" fill="#F0792E"/>
<circle cx="11.611" cy="10.9069" r="7.38884" fill="#FEEEE4"/>
<path d="M11.318 16.7885C8.07514 16.7885 5.43657 14.1499 5.43657 10.9071C5.43657 7.66426 8.07514 5.02569 11.318 5.02569C14.5608 5.02569 17.1993 7.66426 17.1993 10.9071C17.1993 14.1499 14.5608 16.7885 11.318 16.7885ZM11.318 6.20591C8.72564 6.20591 6.61679 8.31477 6.61679 10.9071C6.61679 13.4994 8.72564 15.6082 11.318 15.6082C13.9103 15.6082 16.0191 13.4994 16.0191 10.9071C16.0191 8.31477 13.9103 6.20591 11.318 6.20591Z" fill="#F0792E" stroke="#FEEEE4" stroke-width="0.2"/>
<path d="M2.63919 2.81458H5.80583V3.87013H2.63919V2.81458Z" fill="#F0792E"/>
<path d="M13.8242 9.14824L14.868 10.1921L11.0407 14.0194L9.99688 12.9756L13.8242 9.14824Z" fill="#F0792E"/>
<path d="M9.41939 10.3858L12.0881 13.0545L11.0551 14.0875L8.38633 11.4188L9.41939 10.3858Z" fill="#F0792E"/>
</svg>
