<svg width="29" height="29" viewBox="0 0 29 29" fill="none" xmlns="http://www.w3.org/2000/svg">
<path d="M4.74657 24.8078H4.7466H4.74701H4.74704C4.8573 24.8078 4.96507 24.7751 5.05673 24.7138C5.1484 24.6525 5.21985 24.5655 5.26204 24.4636C5.30423 24.3617 5.31527 24.2497 5.29376 24.1415C5.27226 24.0334 5.21918 23.934 5.14123 23.8561L5.14114 23.856C2.96739 21.6852 1.61676 18.8256 1.32094 15.7679C1.02511 12.7101 1.80253 9.64468 3.51984 7.09745C5.23715 4.55023 7.7873 2.67996 10.7328 1.80747C13.6784 0.934991 16.8358 1.11467 19.6633 2.31569L19.6635 2.31576C19.7996 2.37343 19.9532 2.37463 20.0902 2.31911L20.0332 2.17823L20.0902 2.31911C20.2273 2.26359 20.3367 2.15589 20.3944 2.01971C20.452 1.88353 20.4533 1.73001 20.3977 1.59294L20.2569 1.65C20.2165 1.5503 20.1381 1.47071 20.0391 1.42877L20.0984 1.28881C20.0984 1.28881 20.0983 1.2888 20.0983 1.2888C17.0328 -0.010071 13.611 -0.202502 10.4192 0.744473C7.22742 1.69145 4.46424 3.7189 2.60312 6.47946C0.741994 9.24002 -0.101236 12.5619 0.217897 15.8759C0.537029 19.1899 1.99866 22.2898 4.35237 24.6444L4.45988 24.537L4.35238 24.6444C4.45692 24.749 4.59871 24.8078 4.74657 24.8078Z" fill="#F0792E" stroke="#F0792E" stroke-width="0.3"/>
<path d="M7.79714 27.019L7.72716 27.154C7.66162 27.12 7.60347 27.0733 7.55611 27.0167C7.50875 26.96 7.47311 26.8945 7.45126 26.824C7.42941 26.7535 7.42179 26.6793 7.42884 26.6058L7.58015 26.6203L7.82591 26.1243C7.89673 26.1034 7.97099 26.0968 8.04438 26.1048C8.11738 26.1127 8.18808 26.1351 8.25242 26.1704C11.0505 27.666 14.2929 28.1066 17.3886 27.4118C20.4847 26.7169 23.228 24.9328 25.1186 22.3845C27.0092 19.8362 27.9213 16.6934 27.6886 13.5289C27.4558 10.3644 26.0938 7.38881 23.8508 5.14449L23.8489 5.14266L23.849 5.14264C23.7474 5.03748 23.6912 4.89665 23.6925 4.75046C23.6937 4.60427 23.7524 4.46443 23.8557 4.36105C23.9591 4.25768 24.099 4.19904 24.2452 4.19777C24.3913 4.1965 24.5322 4.2527 24.6373 4.35426L24.6391 4.35597L24.6391 4.35599C26.6506 6.36268 28.02 8.92206 28.5735 11.7089C29.127 14.4957 28.8395 17.3842 27.7476 20.0073C26.6556 22.6303 24.8085 24.8696 22.441 26.4404C20.0736 28.0111 17.2927 28.8427 14.4517 28.8293C14.4515 28.8293 14.4513 28.8293 14.4511 28.8293L14.4518 28.6773C12.1308 28.6815 9.84477 28.1119 7.79714 27.019ZM7.79714 27.019C7.74946 26.9943 7.70717 26.9604 7.67272 26.9192C7.63827 26.878 7.61235 26.8303 7.59646 26.779L7.79714 27.019Z" fill="#F0792E" stroke="#F0792E" stroke-width="0.3"/>
<path d="M23.855 8.39197C23.9596 8.49653 24.1014 8.55527 24.2493 8.55527C24.3972 8.55527 24.539 8.49653 24.6435 8.39197C24.7481 8.28741 24.8068 8.14559 24.8068 7.99772V5.31087H27.4937C27.6415 5.31087 27.7834 5.25213 27.8879 5.14757C27.9925 5.04301 28.0512 4.90119 28.0512 4.75332C28.0512 4.60545 27.9925 4.46364 27.8879 4.35907C27.7834 4.25451 27.6415 4.19577 27.4937 4.19577H24.2493C24.1014 4.19577 23.9596 4.25451 23.855 4.35907C23.7505 4.46364 23.6917 4.60545 23.6917 4.75332V7.99772C23.6917 8.14559 23.7505 8.28741 23.855 8.39197Z" fill="#F0792E" stroke="#F0792E" stroke-width="0.3"/>
<path d="M4.74889 24.8108H1.50449C1.35662 24.8108 1.2148 24.7521 1.11024 24.6475C1.00568 24.5429 0.946941 24.4011 0.946941 24.2533C0.946941 24.1054 1.00568 23.9636 1.11024 23.859M4.74889 24.8108L1.11024 23.859M4.74889 24.8108C4.89676 24.8108 5.03857 24.7521 5.14314 24.6475C5.2477 24.5429 5.30644 24.4011 5.30644 24.2533V21.0089C5.30644 20.861 5.2477 20.7192 5.14314 20.6146C5.03857 20.51 4.89676 20.4513 4.74889 20.4513C4.60102 20.4513 4.4592 20.51 4.35464 20.6146M4.74889 24.8108L4.35464 20.6146M1.11024 23.859C1.2148 23.7544 1.35662 23.6957 1.50449 23.6957H4.19134V21.0089C4.19134 20.861 4.25008 20.7192 4.35464 20.6146M1.11024 23.859L4.35464 20.6146" fill="#F0792E" stroke="#F0792E" stroke-width="0.3"/>
<path d="M14.4924 23.9968H14.4925C17.1177 23.9938 19.6346 22.9497 21.4909 21.0934C23.3473 19.2371 24.3915 16.7203 24.3946 14.0951V14.0949C24.3947 12.1365 23.814 10.2219 22.7259 8.59346C21.6379 6.96499 20.0914 5.69573 18.2821 4.94619C16.4727 4.19665 14.4816 4.0005 12.5608 4.38253C10.6399 4.76456 8.87546 5.70763 7.49057 7.09246C6.10568 8.4773 5.16254 10.2417 4.78043 12.1626C4.39831 14.0834 4.59439 16.0744 5.34385 17.8839C6.09332 19.6933 7.36251 21.2398 8.99093 22.3279C10.6193 23.416 12.5339 23.9968 14.4924 23.9968ZM9.61049 6.78872C11.0555 5.82319 12.7544 5.30783 14.4923 5.30782C16.822 5.31038 19.0556 6.23699 20.7029 7.88435C22.3503 9.53174 23.2769 11.7654 23.2795 14.0951C23.2794 15.833 22.7641 17.5318 21.7986 18.9768C20.833 20.4218 19.4607 21.5481 17.855 22.2132C16.2494 22.8783 14.4826 23.0523 12.7781 22.7132C11.0735 22.3742 9.50782 21.5373 8.27892 20.3084C7.05002 19.0795 6.21313 17.5138 5.87407 15.8092C5.53502 14.1047 5.70903 12.3379 6.37411 10.7323C7.03919 9.12662 8.16545 7.75426 9.61049 6.78872Z" fill="#F0792E" stroke="#F0792E" stroke-width="0.3"/>
<path d="M9.87504 14.0946C9.87504 16.8445 10.368 19.3047 11.1827 21.0834C11.992 22.8504 13.1464 23.9968 14.4925 23.9968C15.8387 23.9968 16.9931 22.8506 17.8024 21.0836C18.6171 19.305 19.1101 16.8449 19.1101 14.095C19.1101 11.3452 18.6171 8.88491 17.8024 7.10626C16.9931 5.3392 15.8387 4.1928 14.4925 4.1928C13.1464 4.1928 11.992 5.33909 11.1827 7.10606C10.368 8.88461 9.87504 11.3448 9.87504 14.0946ZM10.9901 14.095C10.9901 11.6878 11.4062 9.47322 12.0633 7.86592C12.392 7.06185 12.7781 6.41707 13.1963 5.9758C13.6145 5.53446 14.0533 5.3079 14.4925 5.3079C14.9318 5.3079 15.3706 5.53444 15.7888 5.97574C16.207 6.41697 16.5931 7.0617 16.9218 7.86572C17.5789 9.47291 17.995 11.6874 17.995 14.0946C17.995 16.5019 17.5789 18.7164 16.9218 20.3237C16.5931 21.1278 16.207 21.7726 15.7888 22.2138C15.3706 22.6552 14.9318 22.8817 14.4925 22.8817C14.0533 22.8817 13.6145 22.6552 13.1963 22.2139C12.7781 21.7727 12.392 21.1279 12.0633 20.3239C11.4062 18.7167 10.9901 16.5023 10.9901 14.095Z" fill="#F0792E" stroke="#F0792E" stroke-width="0.3"/>
<path d="M14.0981 23.8335C14.2027 23.9381 14.3445 23.9968 14.4924 23.9968C14.6403 23.9968 14.7821 23.9381 14.8866 23.8335C14.9912 23.729 15.0499 23.5872 15.0499 23.4393V4.75035C15.0499 4.60248 14.9912 4.46067 14.8866 4.35611C14.7821 4.25155 14.6403 4.1928 14.4924 4.1928C14.3445 4.1928 14.2027 4.25155 14.0981 4.35611C13.9936 4.46067 13.9348 4.60248 13.9348 4.75035V23.4393C13.9348 23.5872 13.9936 23.729 14.0981 23.8335Z" fill="#F0792E" stroke="#F0792E" stroke-width="0.3"/>
<path d="M24.2313 13.7008L24.2313 13.7008C24.1267 13.5963 23.9849 13.5375 23.837 13.5375H5.14768C4.9998 13.5375 4.85799 13.5963 4.75343 13.7008C4.64887 13.8054 4.59012 13.9472 4.59012 14.0951C4.59012 14.2429 4.64887 14.3848 4.75343 14.4893C4.85799 14.5939 4.9998 14.6526 5.14768 14.6526H23.837C23.9849 14.6526 24.1267 14.5939 24.2313 14.4893L24.1238 14.3818L24.2313 14.4893C24.3358 14.3848 24.3946 14.2429 24.3946 14.0951C24.3946 13.9472 24.3358 13.8054 24.2313 13.7008Z" fill="#F0792E" stroke="#F0792E" stroke-width="0.3"/>
<path d="M6.27977 10.192H22.7045C22.8524 10.192 22.9942 10.1333 23.0988 10.0287C23.2033 9.92417 23.2621 9.78236 23.2621 9.63449C23.2621 9.48662 23.2033 9.3448 23.0988 9.24024C22.9942 9.13568 22.8524 9.07694 22.7045 9.07694H6.27977C6.1319 9.07694 5.99008 9.13568 5.88552 9.24024C5.78096 9.3448 5.72222 9.48662 5.72222 9.63449C5.72222 9.78236 5.78096 9.92417 5.88552 10.0287C5.99008 10.1333 6.1319 10.192 6.27977 10.192Z" fill="#F0792E" stroke="#F0792E" stroke-width="0.3"/>
<path d="M6.27977 19.1142H22.7045C22.8524 19.1142 22.9942 19.0555 23.0988 18.9509C23.2033 18.8463 23.2621 18.7045 23.2621 18.5566C23.2621 18.4088 23.2033 18.267 23.0988 18.1624C22.9942 18.0578 22.8524 17.9991 22.7045 17.9991H6.27977C6.1319 17.9991 5.99008 18.0578 5.88552 18.1624C5.78096 18.267 5.72222 18.4088 5.72222 18.5566C5.72222 18.7045 5.78096 18.8463 5.88552 18.9509C5.99008 19.0555 6.1319 19.1142 6.27977 19.1142Z" fill="#F0792E" stroke="#F0792E" stroke-width="0.3"/>
</svg>
