<svg width="30" height="30" viewBox="0 0 30 30" fill="none" xmlns="http://www.w3.org/2000/svg">
<path d="M21.2449 17.5001C16.4199 17.5001 12.4949 13.5738 12.4949 8.75003C12.4949 3.92627 16.4199 0 21.2449 0C26.07 0 29.995 3.92627 29.995 8.75003C29.995 13.5738 26.07 17.5001 21.2449 17.5001ZM21.2449 1.87501C17.4537 1.87501 14.3699 4.96002 14.3699 8.75003C14.3699 12.5401 17.4537 15.6251 21.2449 15.6251C25.0362 15.6251 28.12 12.5401 28.12 8.75003C28.12 4.96002 25.0362 1.87501 21.2449 1.87501Z" fill="#F0792E"/>
<path d="M23.9959 6.21046C24.2019 6.21046 24.369 6.03642 24.369 5.82174C24.369 5.60706 24.2019 5.43302 23.9959 5.43302H19.4445C19.2385 5.43302 19.0715 5.60706 19.0715 5.82174C19.0715 6.03642 19.2385 6.21046 19.4445 6.21046H21.0114C21.4977 6.21046 21.9124 6.53549 22.0664 6.98793H19.4445C19.2385 6.98793 19.0715 7.16198 19.0715 7.37665C19.0715 7.59133 19.2385 7.76538 19.4445 7.76538H22.0664C21.9124 8.2178 21.4977 8.54282 21.0114 8.54282H19.4694C19.324 8.54282 19.1919 8.63083 19.1308 8.7683C19.0698 8.90578 19.0909 9.0677 19.1851 9.18318L22.269 12.9667C22.3428 13.0573 22.4478 13.1039 22.5535 13.1038C22.6389 13.1038 22.7247 13.0735 22.7949 13.0114C22.9519 12.8724 22.9711 12.6271 22.8377 12.4635L20.2757 9.32024H21.0114C21.9122 9.32024 22.6659 8.65143 22.8392 7.76535H23.9959C24.202 7.76535 24.369 7.59131 24.369 7.37663C24.369 7.16195 24.202 6.98791 23.9959 6.98791H22.8392C22.783 6.7008 22.6659 6.43657 22.5026 6.21044H23.9959V6.21046Z" fill="#F0792E" stroke="#F0792E" stroke-width="0.0933824"/>
<path d="M4.37503 27.4998H0.937505C0.420002 27.4998 0 27.0798 0 26.5623V15.9373C0 15.4198 0.420002 14.9998 0.937505 14.9998C5.31878 14.9998 7.36004 16.521 7.44379 16.586C7.74629 16.8173 7.88005 17.2085 7.78004 17.576L5.28003 26.8086C5.16878 27.2161 4.79878 27.4998 4.37503 27.4998ZM1.87501 25.6248H3.65752L5.78003 17.786C5.12628 17.4773 3.84752 17.0173 1.87376 16.9023V25.6248H1.87501Z" fill="#F0792E"/>
<path d="M16.2477 29.9999C13.2365 29.9999 7.48395 27.4999 4.32268 26.0111L5.12269 24.3149C10.2602 26.7374 14.3152 28.1261 16.2477 28.1261C18.7827 28.1261 24.5378 25.3886 27.5528 23.8086C27.2053 23.6099 26.6878 23.4386 25.9353 23.4386C24.8378 23.4386 23.4815 23.8899 22.169 24.3286C20.7152 24.8136 19.2115 25.3136 17.8102 25.3136C15.1752 25.3136 11.699 24.0599 11.5527 24.0074L12.1927 22.2449C12.2252 22.2574 15.5077 23.4386 17.8102 23.4386C18.9077 23.4386 20.264 22.9874 21.5765 22.5486C23.0303 22.0636 24.534 21.5636 25.9353 21.5636C29.034 21.5636 29.8953 23.6274 29.9303 23.7161C30.1065 24.1561 29.9278 24.6561 29.5128 24.8849C29.1353 25.0924 20.194 29.9999 16.2477 29.9999Z" fill="#F0792E"/>
<path d="M21.5604 23.8625H19.6854V23.3C19.6854 22.56 19.1604 21.9163 18.4354 21.7688L6.39785 19.3038L6.7741 17.4675L18.8116 19.9313C20.4041 20.255 21.5616 21.6725 21.5616 23.2988V23.8625H21.5604Z" fill="#F0792E"/>
</svg>
