<svg width="13" height="15" viewBox="0 0 13 15" fill="none" xmlns="http://www.w3.org/2000/svg">
<path d="M6.9647 0.0509186L0.161285 11.4252L5.79448 14.7946L12.5979 3.42036L6.9647 0.0509186Z" fill="#EABEF5"/>
<path d="M7.52708 8.313C7.34457 8.52364 7.10366 8.67538 6.83485 8.74902C6.56605 8.82265 6.28144 8.81487 6.01706 8.72664C5.75268 8.63842 5.52043 8.47374 5.3497 8.25344C5.17898 8.03314 5.07747 7.76713 5.05802 7.4891C5.03857 7.21107 5.10206 6.93352 5.24045 6.6916C5.37884 6.44968 5.5859 6.25426 5.83543 6.13009C6.08495 6.00592 6.3657 5.95859 6.64214 5.99408C6.91858 6.02958 7.17827 6.1463 7.38833 6.32947C7.66864 6.57481 7.84055 6.92104 7.86654 7.29264C7.89254 7.66424 7.77051 8.03103 7.52708 8.313Z" fill="#954CAF" stroke="#263238" stroke-width="0.250052" stroke-linecap="round" stroke-linejoin="round"/>
<path d="M6.13406 6.64684L6.14106 6.63313C6.16761 6.58117 6.14763 6.5184 6.09723 6.49265C6.04686 6.46691 5.98425 6.48749 5.9577 6.53945L5.52331 7.38964C5.49677 7.4416 5.51678 7.5044 5.56715 7.53013C5.61755 7.55588 5.68012 7.53529 5.70667 7.48333L5.83116 7.23967L5.83117 7.23965L6.13406 6.64684ZM6.13406 6.64684L6.13513 6.64738M6.13406 6.64684L6.13513 6.64738M6.13513 6.64738L6.03408 6.84515L6.02099 6.87078L6.04958 6.86744C6.10823 6.86057 6.16751 6.86419 6.2246 6.87808L6.23641 6.88095L6.24194 6.87012L6.31708 6.72306C6.34363 6.6711 6.4062 6.65051 6.4566 6.67626C6.507 6.70201 6.52699 6.76478 6.50044 6.81675L6.4253 6.96381L6.41978 6.9746L6.42899 6.98249C6.59918 7.12843 6.65288 7.37171 6.56056 7.58083L6.54596 7.61391L6.57993 7.6015L7.17311 7.38471L7.17312 7.38471C7.19899 7.37522 7.2273 7.37649 7.2518 7.38813C7.27626 7.39976 7.29507 7.42083 7.30402 7.44679C7.31287 7.47408 7.31056 7.50406 7.29747 7.53004C7.28534 7.55414 7.26462 7.57274 7.23961 7.58204C7.2396 7.58204 7.23959 7.58205 7.23958 7.58205L6.36544 7.90156C6.36543 7.90156 6.36543 7.90156 6.36542 7.90157C6.3253 7.9161 6.28096 7.90459 6.25338 7.87265C6.22575 7.84067 6.22026 7.79436 6.23993 7.75577L6.13513 6.64738Z" fill="white" stroke="#BFBFBF" stroke-width="0.0300063"/>
<path d="M0.163107 11.4266L5.79469 14.7894L12.6048 3.4234L6.97431 0.0555545L0.163107 11.4266ZM11.8943 3.59925L5.61872 14.092L0.863975 11.2592L7.13668 0.755366L11.8943 3.59925Z" fill="white"/>
<path d="M6.93164 0.128055L0.128227 11.5023L5.76142 14.8718L12.5648 3.4975L6.93164 0.128055Z" stroke="#263238" stroke-width="0.250052" stroke-linecap="round" stroke-linejoin="round"/>
<path opacity="0.5" d="M7.53383 1.8403L6.69549 3.2369C6.64946 3.31182 6.57588 3.36571 6.49056 3.387C6.40524 3.40829 6.31497 3.39529 6.23913 3.35078C6.16369 3.3052 6.10936 3.23161 6.08802 3.14609C6.06668 3.06058 6.08007 2.97009 6.12526 2.89442L6.96359 1.49781C7.00963 1.42289 7.0832 1.369 7.16852 1.34771C7.25384 1.32642 7.34411 1.33943 7.41995 1.38394C7.49539 1.42951 7.54972 1.5031 7.57106 1.58862C7.5924 1.67414 7.57902 1.76462 7.53383 1.8403Z" fill="#20446C"/>
<path opacity="0.5" d="M6.55611 11.6847L5.71777 13.0813C5.67173 13.1562 5.59815 13.2101 5.51283 13.2314C5.42751 13.2527 5.33724 13.2397 5.2614 13.1952C5.18596 13.1496 5.13163 13.076 5.11029 12.9905C5.08895 12.905 5.10234 12.8145 5.14753 12.7388L5.98586 11.3422C6.0319 11.2673 6.10547 11.2134 6.19079 11.1921C6.27612 11.1708 6.36638 11.1838 6.44222 11.2283C6.51767 11.2739 6.572 11.3475 6.59334 11.433C6.61467 11.5185 6.60129 11.609 6.55611 11.6847Z" fill="#20446C"/>
</svg>
