<svg width="10" height="10" viewBox="0 0 10 10" fill="none" xmlns="http://www.w3.org/2000/svg">
<g clip-path="url(#clip0_834_34783)">
<path d="M8.82812 0H2.34375C1.69754 0 1.17188 0.525665 1.17188 1.17188V8.24219H0.292969C0.131149 8.24219 0 8.37334 0 8.53516C0 9.34288 0.65712 10 1.46484 10H7.07031C7.71652 10 8.24219 9.47433 8.24219 8.82812C8.24219 8.71902 8.24219 3.32199 8.24219 2.92969H9.70703C9.86885 2.92969 10 2.79854 10 2.63672V1.17188C10 0.525665 9.47433 0 8.82812 0ZM1.46484 9.41406C1.08284 9.41406 0.757065 9.16916 0.636139 8.82812H5.89844C5.89844 9.04144 5.95573 9.24164 6.05568 9.41406H1.46484ZM7.07031 9.41406C6.74721 9.41406 6.48438 9.15123 6.48438 8.82812V8.53516C6.48438 8.37334 6.35323 8.24219 6.19141 8.24219H1.75781V1.17188C1.75781 0.84877 2.02065 0.585938 2.34375 0.585938H7.81387C7.71385 0.758438 7.65625 0.958481 7.65625 1.17188V8.82812C7.65625 9.15123 7.39342 9.41406 7.07031 9.41406ZM9.41406 2.34375H8.24219C8.24219 2.20474 8.24219 1.31531 8.24219 1.17188C8.24219 0.84877 8.50502 0.585938 8.82812 0.585938C9.15123 0.585938 9.41406 0.84877 9.41406 1.17188V2.34375Z" fill="white"/>
<path d="M6.77734 4.72656H2.63672C2.4749 4.72656 2.34375 4.85771 2.34375 5.01953C2.34375 5.18135 2.4749 5.3125 2.63672 5.3125H6.77734C6.93916 5.3125 7.07031 5.18135 7.07031 5.01953C7.07031 4.85771 6.93916 4.72656 6.77734 4.72656Z" fill="white"/>
</g>
<defs>
<clipPath id="clip0_834_34783">
<rect width="10" height="10" fill="white"/>
</clipPath>
</defs>
</svg>
