<svg width="7" height="7" viewBox="0 0 7 7" fill="none" xmlns="http://www.w3.org/2000/svg">
<path d="M6.92576 2.77091C7.06786 3.44583 7.0057 4.14755 6.74714 4.78728C6.48858 5.42701 6.04525 5.97599 5.47325 6.36473C4.90124 6.75348 4.22629 6.96452 3.53379 6.97116C2.84129 6.97779 2.16237 6.77972 1.58296 6.402C1.00356 6.02428 0.549702 5.4839 0.278833 4.84924C0.00796371 4.21458 -0.0677402 3.51418 0.0612965 2.83666C0.190333 2.15914 0.518313 1.53497 1.00373 1.04313C1.48915 0.551288 2.11018 0.213891 2.78824 0.0736359C3.23778 -0.0199289 3.70143 -0.0243726 4.1527 0.0605586C4.60397 0.14549 5.03401 0.318131 5.41825 0.568618C5.80249 0.819105 6.1334 1.14253 6.39206 1.52041C6.65073 1.89828 6.83208 2.32321 6.92576 2.77091Z" fill="#FFE8DE"/>
<path d="M6.10922 2.93989C6.21749 3.45424 6.17009 3.98901 5.97301 4.47651C5.77594 4.96402 5.43806 5.38236 5.00212 5.67857C4.56619 5.97479 4.0518 6.13557 3.52406 6.14057C2.99632 6.14556 2.47896 5.99455 2.03745 5.70665C1.59594 5.41874 1.25012 5.00688 1.04377 4.52319C0.837425 4.0395 0.779817 3.50573 0.878243 2.98943C0.976669 2.47313 1.2267 1.99751 1.5967 1.62276C1.9667 1.24801 2.44002 0.990989 2.95678 0.884216C3.29933 0.812975 3.65262 0.809642 3.99647 0.874407C4.34032 0.939171 4.66798 1.07076 4.96074 1.26167C5.25349 1.45257 5.5056 1.69904 5.70266 1.987C5.89973 2.27496 6.03788 2.59875 6.10922 2.93989Z" fill="#FFD2C0"/>
<path d="M3.74066 2.04689C3.83225 1.98636 3.85833 1.86444 3.79891 1.77453C3.73954 1.68468 3.61711 1.66079 3.52552 1.72132L2.21225 2.58912C2.12066 2.64965 2.09463 2.77163 2.154 2.86148C2.21341 2.95139 2.33579 2.97522 2.42738 2.91469L2.80378 2.66597C2.95926 2.56286 3.15957 2.55858 3.31587 2.65499L2.5796 3.14152C2.48807 3.202 2.46197 3.32403 2.52135 3.41388C2.58076 3.50379 2.70321 3.52757 2.79473 3.46709L3.53101 2.98056C3.55758 3.16216 3.47524 3.34428 3.32011 3.44734L2.94371 3.69606C2.87574 3.74107 2.84153 3.82223 2.8573 3.90088C2.87307 3.97953 2.93568 4.03992 3.01535 4.05332L4.5294 4.30402C4.57925 4.31201 4.63057 4.30066 4.67283 4.27237C4.71826 4.24198 4.74984 4.19499 4.76057 4.14195C4.77008 4.09072 4.75873 4.0382 4.72905 3.99596C4.69938 3.95373 4.65375 3.92523 4.60227 3.91676L3.57501 3.74663C3.88593 3.51486 4.01009 3.11044 3.88032 2.75211L4.10748 2.60201C4.19907 2.54148 4.22515 2.41956 4.16573 2.32965C4.10632 2.23974 3.98394 2.21592 3.89235 2.27644L3.66519 2.42654C3.59231 2.35822 3.50762 2.30329 3.4151 2.26439L3.74175 2.04854L3.74066 2.04689Z" fill="#F38D5D"/>
<path d="M6.09379 2.85758C6.07822 2.85758 6.04363 2.74993 5.95973 2.55961C5.84333 2.29181 5.68577 2.04368 5.49271 1.82415C5.35947 1.67483 5.21042 1.54028 5.04816 1.42283C4.86106 1.28984 4.6576 1.18131 4.44276 1.09988C4.32748 1.05529 4.20894 1.01959 4.08816 0.993091C3.83299 0.935657 3.57059 0.916786 3.30978 0.937113C3.17288 0.948241 3.03701 0.969543 2.90329 1.00084C2.76983 1.03368 2.6389 1.07598 2.51151 1.12744C2.38825 1.17852 2.26912 1.23899 2.15518 1.30829C2.04466 1.37408 1.93967 1.44868 1.84123 1.53134C1.74587 1.61077 1.65654 1.69712 1.57399 1.7897C1.42031 1.95942 1.28921 2.14814 1.18394 2.3512C1.09244 2.52878 1.02108 2.71595 0.971177 2.90926C0.899567 3.19217 0.872434 3.48443 0.890745 3.77562C0.903718 3.98317 0.923611 4.09857 0.908044 4.10201C0.892476 4.10546 0.849234 3.99523 0.812045 3.78423C0.761548 3.48345 0.767704 3.17593 0.830203 2.87739C0.924276 2.42872 1.13277 2.01172 1.43561 1.66655C1.61432 1.46209 1.82241 1.28506 2.05313 1.14122C2.17529 1.0653 2.30342 0.999348 2.43626 0.944002C2.57321 0.887405 2.71431 0.84134 2.85832 0.806211C3.00278 0.772214 3.14967 0.749468 3.29767 0.738176C3.44158 0.726495 3.5862 0.726495 3.73011 0.738176C3.86833 0.749711 4.00541 0.772173 4.14005 0.80535C4.26927 0.836077 4.39592 0.876673 4.51887 0.926779C4.74481 1.01975 4.95716 1.14257 5.15022 1.29193C5.31704 1.42043 5.468 1.56815 5.59995 1.732C5.79256 1.96943 5.9392 2.24042 6.03238 2.53119C6.09725 2.73615 6.1059 2.855 6.09379 2.85758Z" fill="#F38D5D"/>
</svg>
