<svg width="11" height="11" viewBox="0 0 11 11" fill="none" xmlns="http://www.w3.org/2000/svg">
<path d="M5.4995 10.6504C4.82313 10.6504 4.15339 10.5172 3.52851 10.2584C2.90363 9.99955 2.33585 9.62017 1.85759 9.14191C1.37933 8.66364 0.99995 8.09587 0.741116 7.47099C0.482283 6.84611 0.349063 6.17636 0.349063 5.5C0.349063 4.82364 0.482283 4.15389 0.741116 3.52901C0.99995 2.90413 1.37933 2.33635 1.85759 1.85809C2.33585 1.37983 2.90363 1.00045 3.52851 0.741619C4.15339 0.482786 4.82313 0.349566 5.4995 0.349566C6.86548 0.349566 8.17551 0.892199 9.1414 1.85809C10.1073 2.82399 10.6499 4.13402 10.6499 5.5C10.6499 6.86598 10.1073 8.17601 9.1414 9.14191C8.17551 10.1078 6.86548 10.6504 5.4995 10.6504Z" fill="#4CAF50" stroke="#4CAF50" stroke-width="0.678571"/>
<path d="M8.33061 3.54238L8.28209 3.50328L8.2336 3.54243L4.72597 6.37425L3.30682 5.23245L3.25828 5.19339L3.20983 5.23255L2.46932 5.831L2.3948 5.89122L2.46945 5.95128L4.67893 7.72886L4.72744 7.76789L4.77589 7.72878L9.07222 4.26025L9.14675 4.20008L9.07217 4.13998L8.33061 3.54238Z" fill="white" stroke="white" stroke-width="0.15"/>
</svg>
