<svg width="22" height="22" viewBox="0 0 22 22" fill="none" xmlns="http://www.w3.org/2000/svg">
<g clip-path="url(#clip0_68314_18391)">
<path d="M11 17.3359C11.5933 17.3359 12.0742 16.855 12.0742 16.2617C12.0742 15.6684 11.5933 15.1875 11 15.1875C10.4067 15.1875 9.92578 15.6684 9.92578 16.2617C9.92578 16.855 10.4067 17.3359 11 17.3359Z" fill="white"/>
<path d="M11 0C4.92061 0 0 4.91979 0 11C0 17.0794 4.91979 22 11 22C17.0794 22 22 17.0802 22 11C22 4.92061 17.0802 0 11 0ZM11 20.2812C5.87052 20.2812 1.71875 16.1302 1.71875 11C1.71875 5.87052 5.86983 1.71875 11 1.71875C16.1295 1.71875 20.2812 5.86983 20.2812 11C20.2812 16.1295 16.1302 20.2812 11 20.2812Z" fill="white"/>
<path d="M11 5.52344C9.10456 5.52344 7.5625 7.0655 7.5625 8.96094C7.5625 9.43557 7.94724 9.82031 8.42188 9.82031C8.89651 9.82031 9.28125 9.43557 9.28125 8.96094C9.28125 8.01322 10.0523 7.24219 11 7.24219C11.9477 7.24219 12.7188 8.01322 12.7188 8.96094C12.7188 9.90866 11.9477 10.6797 11 10.6797C10.5254 10.6797 10.1406 11.0644 10.1406 11.5391V13.6875C10.1406 14.1621 10.5254 14.5469 11 14.5469C11.4746 14.5469 11.8594 14.1621 11.8594 13.6875V12.2897C13.3403 11.9071 14.4375 10.5598 14.4375 8.96094C14.4375 7.0655 12.8954 5.52344 11 5.52344Z" fill="white"/>
</g>
<defs>
<clipPath id="clip0_68314_18391">
<rect width="22" height="22" fill="white"/>
</clipPath>
</defs>
</svg>
