<svg width="14" height="14" viewBox="0 0 14 14" fill="none" xmlns="http://www.w3.org/2000/svg">
<path d="M12.3529 12.3516H0.823529C0.368707 12.3516 0 12.7203 0 13.1751C0 13.6299 0.368707 13.9986 0.823529 13.9986H12.3529C12.8078 13.9986 13.1765 13.6299 13.1765 13.1751C13.1765 12.7203 12.8078 12.3516 12.3529 12.3516Z" fill="#20446C"/>
<path d="M0 11.5294L0 13.1765C0 13.6313 0.368707 14 0.823529 14C1.27835 14 1.64706 13.6313 1.64706 13.1765L1.64706 11.5294C1.64706 11.0746 1.27835 10.7059 0.823529 10.7059C0.368707 10.7059 0 11.0746 0 11.5294Z" fill="#20446C"/>
<path d="M11.5293 11.5294V13.1765C11.5293 13.6313 11.898 14 12.3528 14C12.8076 14 13.1764 13.6313 13.1764 13.1765V11.5294C13.1764 11.0746 12.8076 10.7059 12.3528 10.7059C11.898 10.7059 11.5293 11.0746 11.5293 11.5294Z" fill="#20446C"/>
<path d="M6.58756 9.88132C6.41683 9.88262 6.24992 9.83082 6.10992 9.73309L2.8158 7.41073C2.63826 7.28479 2.5178 7.09367 2.48076 6.87917C2.44372 6.66466 2.49312 6.44422 2.61815 6.26603C2.68056 6.17696 2.76 6.10114 2.85187 6.04294C2.94375 5.98474 3.04624 5.94531 3.15343 5.92694C3.26063 5.90856 3.3704 5.9116 3.47641 5.93587C3.58242 5.96015 3.68258 6.00519 3.77109 6.06838L6.58756 8.03662L9.38756 5.92838C9.56229 5.79733 9.78193 5.74106 9.99814 5.77195C10.2144 5.80284 10.4095 5.91836 10.5405 6.09309C10.6715 6.26782 10.7278 6.48745 10.6969 6.70367C10.666 6.91989 10.5505 7.11498 10.3758 7.24603L7.08168 9.71662C6.93913 9.82353 6.76575 9.88132 6.58756 9.88132Z" fill="#20446C"/>
<path d="M6.58818 8.23529C6.36976 8.23529 6.1603 8.14853 6.00585 7.99409C5.85141 7.83965 5.76465 7.63018 5.76465 7.41176V0.823529C5.76465 0.605116 5.85141 0.395648 6.00585 0.241206C6.1603 0.0867644 6.36976 0 6.58818 0C6.80659 0 7.01606 0.0867644 7.1705 0.241206C7.32494 0.395648 7.41171 0.605116 7.41171 0.823529V7.41176C7.41171 7.63018 7.32494 7.83965 7.1705 7.99409C7.01606 8.14853 6.80659 8.23529 6.58818 8.23529Z" fill="#20446C"/>
</svg>
