<svg width="77" height="67" viewBox="0 0 77 67" fill="none" xmlns="http://www.w3.org/2000/svg">
<path d="M59.2194 7.66066L38.328 0L17.6379 7.57598C14.9974 8.83271 12.6791 9.59476 12.6791 12.1082V24.6175C12.6352 33.3811 14.9918 41.9907 19.4953 49.5202C23.3531 55.9152 29.3412 62.5019 38.5293 66.6909C46.9879 63.8834 53.2983 56.4054 57.1562 50.006C61.657 42.4774 64.0105 33.8691 63.9633 25.1077V13.8551C63.9633 10.2721 62.115 8.52075 59.2194 7.66066Z" fill="#FFD0AE"/>
<path d="M48.923 37.5663H45.7717V20.3828C45.7717 18.437 44.9996 16.571 43.6252 15.1951C42.2508 13.8193 40.3868 13.0463 38.4431 13.0463C36.4994 13.0463 34.6354 13.8193 33.261 15.1951C31.8866 16.571 31.1145 18.437 31.1145 20.3828V37.5663H27.9595V20.3828C27.9224 18.9817 28.1661 17.5873 28.6761 16.282C29.1861 14.9767 29.9521 13.7869 30.9289 12.7828C31.9057 11.7787 33.0735 10.9806 34.3635 10.4356C35.6534 9.89072 37.0393 9.60997 38.4394 9.60997C39.8395 9.60997 41.2254 9.89072 42.5154 10.4356C43.8053 10.9806 44.9732 11.7787 45.95 12.7828C46.9268 13.7869 47.6928 14.9767 48.2028 16.282C48.7128 17.5873 48.9564 18.9817 48.9194 20.3828L48.923 37.5663Z" fill="#20446C"/>
<path d="M50.3039 29.7036H26.5758C25.4082 29.7036 24.4617 30.6718 24.4617 31.8661V45.8873C24.4617 47.0817 25.4082 48.0499 26.5758 48.0499H50.3039C51.4715 48.0499 52.418 47.0817 52.418 45.8873V31.8661C52.418 30.6718 51.4715 29.7036 50.3039 29.7036Z" fill="#20446C"/>
<path d="M41.0605 36.6179C41.0642 36.1462 40.9309 35.683 40.6757 35.2805C40.4205 34.8781 40.0536 34.5526 39.6165 34.3408C39.1794 34.129 38.6895 34.0394 38.2023 34.0821C37.7151 34.1248 37.2501 34.2982 36.8598 34.5825C36.4694 34.8669 36.1695 35.2509 35.9937 35.6911C35.818 36.1313 35.7736 36.6102 35.8654 37.0735C35.9573 37.5368 36.1818 37.966 36.5135 38.3127C36.8453 38.6594 37.271 38.9096 37.7426 39.035V42.8081H39.1733V39.035C39.7172 38.8841 40.1955 38.5667 40.5359 38.1307C40.8764 37.6946 41.0605 37.1637 41.0605 36.6179Z" fill="white"/>
<path d="M25.4228 46.3026C25.3737 46.3026 25.3355 43.3683 25.3355 39.7521C25.3355 36.136 25.3737 33.1981 25.4228 33.1981C25.472 33.1981 25.5102 36.1288 25.5102 39.7521C25.5102 43.3754 25.4693 46.3026 25.4228 46.3026Z" fill="#FAFAFA"/>
<path d="M36.3113 39.3135C36.3113 39.3135 36.2145 39.2763 36.0662 39.1536C35.8616 38.9758 35.6821 38.7625 35.534 38.5213C35.2756 38.128 35.0958 37.6736 35.0075 37.1908C34.9192 36.708 34.9245 36.2086 35.0232 35.7284C35.1218 35.2483 35.3113 34.7992 35.578 34.4133C35.8447 34.0275 36.1822 33.7144 36.5661 33.4965C36.7916 33.3597 37.0343 33.2644 37.2853 33.2139C37.378 33.1928 37.4733 33.1928 37.5659 33.2139C37.2454 33.3353 36.9338 33.4858 36.6338 33.6639C36.2836 33.8886 35.9779 34.1953 35.7366 34.5643C35.4952 34.9333 35.3235 35.3564 35.2323 35.8065C35.1412 36.2566 35.1328 36.7237 35.2075 37.1778C35.2822 37.6319 35.4385 38.0629 35.6663 38.4432C35.8607 38.7528 36.0764 39.0438 36.3113 39.3135Z" fill="#FAFAFA"/>
<path d="M64.1514 61.8378L64.402 61.5036L64.5407 61.3209C64.59 61.2496 64.6302 61.1693 64.6839 61.0802C64.807 60.8805 64.9118 60.6702 64.9972 60.4518C65.0465 60.3271 65.1046 60.1978 65.1583 60.0597C65.212 59.9215 65.2389 59.7611 65.2836 59.614C65.3304 59.4489 65.3648 59.2806 65.3866 59.1105C65.4219 58.9263 65.4473 58.7403 65.4627 58.5534C65.538 57.6606 65.4973 56.7619 65.3418 55.8795C64.8773 53.4544 64.0426 51.1144 62.8669 48.9408C61.3476 46.044 59.5696 43.2892 57.5545 40.7097C55.1303 37.5688 52.4862 34.6023 49.6419 31.8324C46.3853 28.6433 42.905 25.6886 39.2276 22.9908C37.2852 21.5692 35.2355 20.1877 33.0783 18.8909C30.8818 17.5564 28.6005 16.3655 26.2488 15.3257C23.8222 14.2217 21.2662 13.4252 18.6405 12.9549C17.3051 12.716 15.9413 12.6784 14.5947 12.8435C13.9199 12.9425 13.2619 13.1329 12.6389 13.4094C12.0192 13.7102 11.4608 14.1227 10.992 14.6261C10.5471 15.1521 10.2055 15.7568 9.98498 16.4086C9.78106 17.0573 9.66516 17.7303 9.64037 18.4096C9.6223 19.767 9.81092 21.1193 10.1998 22.4204C10.9704 24.9615 12.0558 27.3972 13.4311 29.6711C14.7377 31.8802 16.1863 34.0029 17.7678 36.026C19.3073 38.0136 20.9006 39.8853 22.5565 41.6411C25.6688 44.9672 29.0128 48.0707 32.5636 50.9284C35.6455 53.4315 38.9013 55.7145 42.3067 57.7601C45.1096 59.4599 48.0603 60.9052 51.1233 62.0785C53.4244 62.9946 55.853 63.5537 58.3243 63.7363C59.2236 63.7886 60.1259 63.7272 61.0096 63.5535C61.2065 63.5268 61.3811 63.4555 61.5601 63.4154C61.7272 63.3746 61.8904 63.3194 62.0479 63.2505L62.4954 63.0767C62.6297 63.0099 62.755 62.9386 62.8714 62.8762C63.0783 62.7645 63.2759 62.6363 63.4621 62.4929C63.5427 62.4305 63.6233 62.3815 63.6859 62.3236C63.7486 62.2656 63.8023 62.2121 63.856 62.1676L64.1558 61.8824C64.1558 61.8824 64.0619 61.9849 63.8649 62.1765L63.6993 62.3414C63.6367 62.3949 63.5561 62.4483 63.4756 62.5107C63.2932 62.6598 63.0968 62.7911 62.8893 62.9029C62.7684 62.9697 62.6476 63.041 62.5133 63.1079L62.0658 63.2906C61.9042 63.3569 61.7382 63.412 61.569 63.4555C61.39 63.5135 61.2076 63.5611 61.023 63.5981C60.1403 63.7793 59.2378 63.8466 58.3377 63.7986C55.857 63.6259 53.4177 63.0743 51.1054 62.1631C48.0329 60.9956 45.073 59.5533 42.2619 57.8537C38.8474 55.8123 35.5826 53.5323 32.492 51.0309C28.9328 48.1749 25.5812 45.0714 22.4625 41.7436C20.82 39.961 19.2044 38.1116 17.6604 36.1196C16.0744 34.0921 14.6214 31.9649 13.3102 29.7513C11.9256 27.4673 10.834 25.0194 10.0611 22.465C9.66675 21.1512 9.47658 19.7851 9.49716 18.414C9.51977 17.7196 9.63721 17.0314 9.84625 16.3685C10.0761 15.704 10.4299 15.0886 10.889 14.5547C11.3631 14.031 11.9325 13.6015 12.5673 13.2891C13.2063 13.0066 13.8808 12.8118 14.5723 12.7098C15.9361 12.5363 17.3185 12.5708 18.6718 12.8123C21.3085 13.2858 23.875 14.0868 26.3114 15.1965C28.6678 16.2355 30.9537 17.4264 33.1544 18.7616C35.3205 20.0629 37.3703 21.4355 39.3126 22.8705C42.9876 25.5777 46.4662 28.5397 49.7225 31.7344C52.5709 34.5156 55.218 37.494 57.6441 40.6473C59.6588 43.2347 61.4338 45.9987 62.9475 48.9052C64.1204 51.0877 64.9491 53.437 65.4045 55.8706C65.5545 56.7627 65.5906 57.6701 65.5119 58.5712C65.5119 58.7673 65.4537 58.95 65.4313 59.1283C65.4027 59.3006 65.3608 59.4704 65.306 59.6363L65.1762 60.082C65.127 60.2246 65.0644 60.3538 65.0151 60.4786C64.9247 60.697 64.8153 60.9073 64.6884 61.1069C64.6392 61.1916 64.5944 61.2763 64.5452 61.3476L64.402 61.5259C64.2453 61.7309 64.1514 61.8378 64.1514 61.8378Z" fill="#8E9398"/>
<path d="M73.9836 38.205C73.9836 38.205 73.9836 38.0624 73.9478 37.7906C73.9478 37.7237 73.9478 37.648 73.9478 37.5633C73.9478 37.4786 73.912 37.385 73.8941 37.287C73.8518 37.0561 73.7889 36.8294 73.7061 36.6096C73.6613 36.4848 73.6211 36.3511 73.5629 36.213L73.3525 35.7673C73.2779 35.6122 73.1911 35.4632 73.093 35.3217C72.99 35.1746 72.905 35.0053 72.7797 34.8761C72.2359 34.1589 71.6028 33.5135 70.8955 32.9553C68.9281 31.4529 66.7411 30.2596 64.4106 29.4169C61.3407 28.2635 58.1727 27.388 54.945 26.8009C51.0363 26.0694 47.0806 25.6137 43.1074 25.4373C38.5471 25.2147 33.9766 25.3144 29.4305 25.7359C27.0316 25.9631 24.5836 26.2929 22.1042 26.7519C19.5657 27.211 17.0601 27.8347 14.6033 28.6192C12.0578 29.4026 9.6206 30.5 7.34861 31.8858C6.19203 32.5968 5.14951 33.4772 4.25607 34.4973C3.81917 35.0197 3.45488 35.5983 3.17301 36.2174C2.90936 36.8466 2.7652 37.519 2.74784 38.2006C2.76581 38.8816 2.90837 39.5536 3.16853 40.1837C3.45117 40.8025 3.8154 41.381 4.25159 41.9039C5.14475 42.9255 6.18728 43.8073 7.34413 44.5198C9.61726 45.9065 12.056 47.0039 14.6033 47.7864C17.0541 48.5707 19.5537 49.1944 22.0863 49.6537C24.5657 50.0993 27.0093 50.4469 29.4126 50.6742C33.959 51.092 38.5293 51.1903 43.0895 50.9683C47.0619 50.7987 51.0175 50.352 54.9271 49.6314C58.1619 49.0373 61.336 48.1528 64.4106 46.9887C66.7411 46.146 68.9281 44.9527 70.8955 43.4503C71.6038 42.8932 72.237 42.2477 72.7797 41.5295C72.905 41.3825 72.99 41.2131 73.093 41.0839C73.1909 40.9423 73.2777 40.7933 73.3525 40.6383C73.4241 40.4912 73.4958 40.353 73.5629 40.2193C73.63 40.0857 73.6613 39.943 73.7061 39.8183C73.79 39.5988 73.8529 39.3721 73.8941 39.1409C73.8941 39.0428 73.9343 38.9537 73.9478 38.869C73.9612 38.7844 73.9478 38.7086 73.9478 38.6373C73.9702 38.3655 73.9836 38.2273 73.9836 38.2273C73.9836 38.2273 73.9836 38.3655 73.9836 38.6418C73.9836 38.7071 73.9836 38.7829 73.9836 38.869C73.9836 38.9537 73.9478 39.0473 73.9299 39.1453C73.8938 39.3796 73.8338 39.6095 73.7508 39.8316C73.7061 39.9564 73.6658 40.0946 73.6076 40.2327C73.5495 40.3709 73.4734 40.509 73.4018 40.6784C73.3276 40.8328 73.2423 40.9818 73.1467 41.124C73.0437 41.2711 72.9587 41.4449 72.8334 41.5919C72.2917 42.3175 71.6584 42.9705 70.9492 43.535C68.9817 45.0489 66.7913 46.2515 64.4553 47.1001C61.3843 48.2656 58.213 49.1502 54.9808 49.7428C51.0668 50.4826 47.105 50.9457 43.1254 51.1288C38.5594 51.356 33.9829 51.2607 29.4305 50.8435C27.0272 50.6207 24.5746 50.2909 22.0863 49.8319C19.5475 49.3722 17.0418 48.747 14.5854 47.9602C12.0249 47.1748 9.5739 46.0714 7.29042 44.6758C6.11705 43.959 5.06059 43.0678 4.15761 42.0331C3.70966 41.4916 3.33778 40.8919 3.05217 40.2505C2.77624 39.6024 2.62445 38.9087 2.60463 38.205C2.62621 37.5016 2.77793 36.8081 3.05217 36.1595C3.34013 35.5266 3.71355 34.9359 4.16208 34.4037C5.06497 33.3677 6.12142 32.475 7.2949 31.7565C9.56785 30.365 12.0065 29.2617 14.5541 28.4721C17.0125 27.6883 19.5196 27.0646 22.0594 26.6049C24.5433 26.1592 26.9824 25.8161 29.3991 25.5888C33.9519 25.1752 38.5285 25.0859 43.094 25.3214C47.0721 25.5028 51.0324 25.9645 54.945 26.7029C58.1738 27.2913 61.3421 28.1714 64.4106 29.3322C66.7449 30.1813 68.9338 31.3838 70.9 32.8974C71.6105 33.4618 72.2453 34.1148 72.7886 34.8404C72.9009 34.9916 73.004 35.1493 73.0974 35.3128C73.1954 35.4544 73.2822 35.6034 73.357 35.7584C73.4286 35.9055 73.5002 36.0481 73.5629 36.2041C73.6255 36.3601 73.6613 36.4804 73.7061 36.6096C73.7869 36.8309 73.8469 37.0591 73.8851 37.2915C73.8851 37.394 73.9254 37.4831 73.9388 37.5678C73.9522 37.6524 73.9388 37.7282 73.9388 37.7995C73.9791 38.0624 73.9836 38.205 73.9836 38.205Z" fill="#8E9398"/>
<path d="M60.9605 8.78395C60.9605 8.78395 60.8396 8.71265 60.6069 8.56113L60.4145 8.43635C60.3428 8.39178 60.2533 8.35613 60.1638 8.31156C59.9545 8.20188 59.7359 8.1109 59.5104 8.03972C59.3851 7.99961 59.2508 7.95059 59.1076 7.91048L58.6601 7.8169C58.4922 7.78035 58.3215 7.75799 58.1499 7.75005C57.9629 7.72513 57.7746 7.71173 57.586 7.70994C56.6814 7.6977 55.7789 7.80104 54.9007 8.01744C52.5025 8.64367 50.2155 9.63423 48.1204 10.9542C45.3224 12.6617 42.686 14.6187 40.2436 16.8011C37.2684 19.4239 34.4837 22.2534 31.9103 25.2684C28.9346 28.7224 26.2096 32.383 23.7561 36.2224C22.4627 38.2501 21.223 40.3803 20.0728 42.6129C18.8863 44.8873 17.8502 47.2364 16.9713 49.6452C16.0318 52.1293 15.4094 54.7209 15.1184 57.3594C14.9699 58.7049 15.0303 60.0652 15.2975 61.3925C15.442 62.0555 15.6769 62.6957 15.9956 63.2954C16.3194 63.8954 16.7652 64.4217 17.3046 64.8407C17.844 65.2596 18.4651 65.562 19.1284 65.7286C19.7935 65.8865 20.477 65.954 21.1603 65.9292C22.5167 65.8555 23.8539 65.576 25.1255 65.1003C27.6255 64.1621 29.998 62.9165 32.1878 61.3925C34.3099 59.9423 36.3355 58.3569 38.252 56.6463C40.1407 54.9796 41.8995 53.2505 43.551 51.5036C46.6681 48.1821 49.5456 44.6452 52.1617 40.9195C54.4566 37.6861 56.5189 34.2952 58.3334 30.7721C59.843 27.8707 61.0877 24.84 62.0525 21.7166C62.8134 19.3678 63.2059 16.9161 63.2161 14.4481C63.2103 13.5448 63.087 12.646 62.8491 11.7742C62.8002 11.5926 62.7404 11.414 62.6701 11.2395C62.6175 11.0761 62.5532 10.9167 62.4776 10.7626C62.4015 10.6156 62.3344 10.4729 62.2673 10.317C62.2002 10.161 62.1151 10.0719 62.0435 9.96045C61.9119 9.76003 61.7621 9.57206 61.596 9.39894C61.5288 9.32318 61.4707 9.24742 61.4125 9.18503L61.2424 9.03351C61.0365 8.84634 60.9381 8.7483 60.9381 8.7483L61.2514 9.02014L61.4259 9.17166C61.4886 9.23405 61.5467 9.30535 61.6139 9.38111C61.78 9.55425 61.9298 9.74222 62.0614 9.94263C62.133 10.054 62.2136 10.1699 62.2897 10.2991L62.5045 10.7448C62.5835 10.8995 62.6493 11.0605 62.7014 11.2261C62.7739 11.4003 62.8352 11.5789 62.8849 11.7609C63.1311 12.6313 63.2605 13.5304 63.2698 14.4347C63.2765 16.9191 62.8945 19.3894 62.1375 21.7567C61.1829 24.8889 59.9425 27.9275 58.4318 30.8345C56.6228 34.3673 54.5634 37.7673 52.2691 41.0086C49.6531 44.7427 46.7741 48.287 43.6539 51.615C42.0025 53.3708 40.2391 55.1 38.3505 56.7711C36.4289 58.4887 34.3973 60.08 32.2684 61.5351C30.076 63.0687 27.6989 64.3219 25.1927 65.2651C23.9001 65.7449 22.5421 66.0273 21.1648 66.103C20.4665 66.1282 19.7679 66.0593 19.0882 65.898C18.4017 65.7278 17.7585 65.4167 17.1997 64.9847C16.641 64.5526 16.179 64.0091 15.8435 63.389C15.5175 62.7734 15.2766 62.1169 15.1274 61.437C14.8612 60.0947 14.7993 58.7201 14.9439 57.3594C15.2377 54.7071 15.8647 52.102 16.8102 49.6051C17.6986 47.1909 18.7451 44.8373 19.943 42.5595C21.0976 40.3312 22.3418 38.1877 23.6352 36.16C26.0897 32.3173 28.8162 28.6537 31.794 25.1971C34.3762 22.1815 37.1699 19.3519 40.1541 16.7298C42.6061 14.5481 45.2531 12.594 48.0622 10.8919C50.1651 9.56213 52.4632 8.5668 54.8738 7.94168C55.7525 7.72886 56.6549 7.62852 57.5591 7.64309C57.756 7.64309 57.944 7.67429 58.1275 7.68766C58.3009 7.69849 58.4731 7.72384 58.6422 7.76342L59.0897 7.86146C59.2329 7.90157 59.3672 7.95059 59.497 7.99516C59.7219 8.06575 59.9393 8.1583 60.1459 8.27146C60.2399 8.32048 60.3249 8.35613 60.3965 8.40069L60.589 8.52993L60.9605 8.78395Z" fill="#8E9398"/>
<path d="M2.278 52.8586C2.46971 53.0439 2.6015 53.2821 2.65651 53.5425C2.71152 53.8028 2.68725 54.0737 2.5868 54.3202C2.48635 54.5668 2.31429 54.7779 2.09265 54.9266C1.871 55.0752 1.60986 55.1546 1.34263 55.1546C1.07541 55.1546 0.814265 55.0752 0.592621 54.9266C0.370978 54.7779 0.19892 54.5668 0.0984703 54.3202C-0.00197995 54.0737 -0.026253 53.8028 0.0287579 53.5425C0.0837688 53.2821 0.215561 53.0439 0.407266 52.8586C0.657834 52.6163 0.993361 52.4807 1.34263 52.4807C1.69191 52.4807 2.02744 52.6163 2.278 52.8586Z" fill="#F0792E"/>
<path d="M77.0002 11.9967C77.0002 12.2611 76.9214 12.5196 76.7739 12.7395C76.6263 12.9593 76.4167 13.1307 76.1713 13.2319C75.926 13.3331 75.656 13.3596 75.3956 13.308C75.1351 13.2564 74.8959 13.1291 74.7081 12.9421C74.5203 12.7551 74.3925 12.5169 74.3407 12.2575C74.2889 11.9982 74.3155 11.7294 74.4171 11.4851C74.5187 11.2408 74.6908 11.032 74.9116 10.8851C75.1324 10.7382 75.392 10.6598 75.6575 10.6598C76.0136 10.6598 76.3551 10.8006 76.6069 11.0514C76.8587 11.3021 77.0002 11.6421 77.0002 11.9967Z" fill="#F0792E"/>
<path d="M10.6431 57.1947C10.6431 57.2608 10.6234 57.3254 10.5866 57.3804C10.5497 57.4353 10.4973 57.4782 10.4359 57.5035C10.3746 57.5288 10.3071 57.5354 10.242 57.5225C10.1769 57.5096 10.1171 57.4778 10.0701 57.431C10.0232 57.3843 9.99121 57.3247 9.97826 57.2599C9.96531 57.1951 9.97195 57.1279 9.99736 57.0668C10.0228 57.0057 10.0658 56.9535 10.121 56.9168C10.1762 56.8801 10.2411 56.8605 10.3075 56.8605C10.3965 56.8605 10.4819 56.8957 10.5448 56.9584C10.6078 57.021 10.6431 57.106 10.6431 57.1947Z" fill="#F0792E"/>
<path d="M17.8257 20.241C17.8257 20.3071 17.806 20.3717 17.7692 20.4267C17.7323 20.4816 17.6799 20.5245 17.6185 20.5498C17.5572 20.5751 17.4897 20.5817 17.4246 20.5688C17.3595 20.5559 17.2997 20.5241 17.2527 20.4773C17.2058 20.4306 17.1738 20.371 17.1609 20.3062C17.1479 20.2413 17.1546 20.1741 17.18 20.1131C17.2054 20.052 17.2484 19.9998 17.3036 19.9631C17.3588 19.9263 17.4237 19.9067 17.4901 19.9067C17.5791 19.9067 17.6645 19.942 17.7274 20.0046C17.7904 20.0673 17.8257 20.1523 17.8257 20.241Z" fill="#F0792E"/>
<path d="M70.3453 38.205C70.3453 38.2711 70.3257 38.3358 70.2888 38.3907C70.2519 38.4457 70.1995 38.4885 70.1381 38.5138C70.0768 38.5391 70.0093 38.5457 69.9442 38.5329C69.8791 38.52 69.8193 38.4881 69.7724 38.4414C69.7254 38.3946 69.6935 38.3351 69.6805 38.2702C69.6676 38.2054 69.6742 38.1382 69.6996 38.0771C69.725 38.0161 69.768 37.9639 69.8232 37.9271C69.8784 37.8904 69.9433 37.8708 70.0097 37.8708C70.0987 37.8708 70.1841 37.906 70.247 37.9687C70.31 38.0314 70.3453 38.1164 70.3453 38.205Z" fill="#F0792E"/>
<path d="M75.0225 22.5812C75.0225 22.6473 75.0028 22.7119 74.9659 22.7669C74.929 22.8219 74.8766 22.8647 74.8153 22.89C74.754 22.9153 74.6865 22.9219 74.6214 22.909C74.5562 22.8961 74.4964 22.8643 74.4495 22.8175C74.4026 22.7708 74.3706 22.7112 74.3576 22.6464C74.3447 22.5816 74.3513 22.5144 74.3767 22.4533C74.4021 22.3922 74.4452 22.34 74.5004 22.3033C74.5556 22.2666 74.6205 22.247 74.6868 22.247C74.7759 22.247 74.8612 22.2822 74.9242 22.3449C74.9871 22.4075 75.0225 22.4926 75.0225 22.5812Z" fill="#F0792E"/>
</svg>
