<svg width="10" height="7" viewBox="0 0 10 7" fill="none" xmlns="http://www.w3.org/2000/svg">
<path d="M3.967 4.63307L4.14516 4.81404L4.32332 4.63307L8.40819 0.483796C8.40821 0.483776 8.40823 0.483755 8.40825 0.483735C8.71537 0.172051 9.21129 0.172115 9.51821 0.483766C9.82725 0.797565 9.82729 1.3082 9.51818 1.62218L4.70026 6.51606C4.70025 6.51608 4.70024 6.51609 4.70022 6.5161C4.5521 6.66643 4.3526 6.75 4.14516 6.75C3.93766 6.75 3.73805 6.66638 3.59013 6.51613L0.481822 3.35867L0.481788 3.35863C0.172754 3.04483 0.172711 2.5342 0.481818 2.22022C0.78888 1.90832 1.28477 1.90841 1.59174 2.22022C1.59175 2.22022 1.59175 2.22022 1.59175 2.22022L3.967 4.63307Z" fill="#F0792E" stroke="#F7EAE0" stroke-width="0.5"/>
</svg>
