<svg width="20" height="20" viewBox="0 0 20 20" fill="none" xmlns="http://www.w3.org/2000/svg">
<path d="M18.2489 13.4008L16.6416 11.7935C16.1625 11.3182 15.5158 11.0503 14.8409 11.0474C14.1661 11.0445 13.5171 11.307 13.034 11.7781C12.7762 12.0374 12.4361 12.1987 12.0722 12.2343C11.7083 12.2699 11.3434 12.1776 11.0403 11.9732C9.84374 11.1747 8.81582 10.1487 8.01496 8.95375C7.81417 8.64721 7.72518 8.28083 7.76297 7.91634C7.80076 7.55185 7.96303 7.21152 8.22244 6.9527C8.68935 6.46911 8.94841 5.82196 8.94418 5.14977C8.93994 4.47758 8.67276 3.83375 8.1998 3.35608L6.59253 1.74881C6.11133 1.26927 5.45968 1 4.78034 1C4.10099 1 3.44934 1.26927 2.96815 1.74881L2.50569 2.212C0.0947918 4.62289 0.275244 9.69163 5.29137 14.7048C8.31596 17.7301 11.3603 18.997 13.8289 18.997C14.5556 19.0212 15.2798 18.9005 15.9594 18.642C16.6389 18.3835 17.2603 17.9923 17.7871 17.4912L18.2503 17.0281C18.7307 16.5466 19.0004 15.8942 19.0002 15.2141C18.9999 14.534 18.7297 13.8818 18.2489 13.4008ZM17.2158 15.995L16.7526 16.4582C14.8531 18.3577 10.6604 18.0107 6.32295 13.6725C1.98552 9.33438 1.63777 5.13868 3.53726 3.23918L3.9968 2.77673C4.2037 2.57057 4.48387 2.45482 4.77595 2.45482C5.06803 2.45482 5.34821 2.57057 5.55511 2.77673L7.16238 4.384C7.36552 4.58816 7.48083 4.86363 7.4837 5.15163C7.48657 5.43963 7.37676 5.71734 7.17772 5.92551C6.68405 6.42232 6.37611 7.0737 6.30549 7.77051C6.23486 8.46732 6.40584 9.16723 6.78978 9.753C7.69975 11.1147 8.86991 12.2831 10.233 13.1911C10.817 13.5751 11.5151 13.7471 12.2106 13.6783C12.9062 13.6096 13.5571 13.3043 14.0546 12.8134C14.2624 12.612 14.5409 12.5001 14.8302 12.5019C15.1196 12.5037 15.3967 12.6189 15.602 12.8229L17.2093 14.4301C17.3128 14.5322 17.3952 14.6538 17.4516 14.7878C17.5081 14.9219 17.5374 15.0658 17.538 15.2112C17.5387 15.3567 17.5105 15.5008 17.4552 15.6353C17.3999 15.7698 17.3186 15.8921 17.2158 15.995Z" fill="#F0792E"/>
</svg>
