<svg width="21" height="8" viewBox="0 0 21 8" fill="none" xmlns="http://www.w3.org/2000/svg">
<path d="M2.85691 8C4.84268 8 6.02223 6.48349 6.02223 3.91546C6.02223 2.94848 5.83285 2.13474 5.47033 1.50594C4.94548 0.528402 4.04188 0 2.90019 0C1.2012 0 0 1.11493 0 2.679C0 4.14795 1.08216 5.21532 2.57013 5.21532C3.48456 5.21532 4.22584 4.79789 4.59378 4.07398H4.61001C4.61001 4.07398 4.63165 4.07398 4.63706 4.07398C4.64789 4.07398 4.68576 4.07398 4.68576 4.07398C4.68576 5.8177 4.00941 6.85865 2.86773 6.85865C2.19679 6.85865 1.67735 6.49934 1.49879 5.92338H0.108216C0.340881 7.17569 1.42845 8 2.85691 8ZM2.90561 4.1321C2.00741 4.1321 1.36893 3.50859 1.36893 2.63672C1.36893 1.786 2.03988 1.13606 2.91102 1.13606C3.78216 1.13606 4.4531 1.79657 4.4531 2.65786C4.4531 3.50859 3.79839 4.1321 2.90561 4.1321Z" fill="black"/>
<path d="M8.30581 7.92602C8.81984 7.92602 9.17154 7.56671 9.17154 7.09115C9.17154 6.6103 8.81984 6.25627 8.30581 6.25627C7.79719 6.25627 7.44008 6.6103 7.44008 7.09115C7.44008 7.56671 7.79719 7.92602 8.30581 7.92602ZM8.30581 3.96301C8.81984 3.96301 9.17154 3.60898 9.17154 3.13342C9.17154 2.65258 8.81984 2.29855 8.30581 2.29855C7.79719 2.29855 7.44008 2.65258 7.44008 3.13342C7.44008 3.60898 7.79719 3.96301 8.30581 3.96301Z" fill="black"/>
<path d="M14.2363 7.81506H15.5727V6.39366H16.6279V5.24174H15.5727V0.190225H13.6032C12.2235 2.21929 11.1251 3.91546 10.4217 5.17834V6.39366H14.2363V7.81506ZM11.7148 5.19419C12.6239 3.63012 13.4355 2.37781 14.1822 1.29987H14.2579V5.27345H11.7148V5.19419Z" fill="black"/>
<path d="M19.604 7.81506H21V0.190225H19.6094L17.5695 1.5852V2.89564L19.512 1.56407H19.604V7.81506Z" fill="black"/>
</svg>
