<svg width="24" height="24" viewBox="0 0 24 24" fill="none" xmlns="http://www.w3.org/2000/svg">
<path d="M3.11117 12.8893H16.4444C17.058 12.8893 17.5556 12.392 17.5556 11.7782C17.5556 11.1646 17.0583 10.667 16.4444 10.667H3.11117C2.4976 10.667 2 11.1643 2 11.7782C2 12.3917 2.49732 12.8893 3.11117 12.8893Z" fill="white"/>
<path d="M3.11117 19.5553H20.8888C21.5024 19.5553 22 19.058 22 18.4442C22 17.8306 21.5027 17.333 20.8888 17.333H3.11117C2.4976 17.333 2 17.8303 2 18.4442C2 19.0578 2.49732 19.5553 3.11117 19.5553Z" fill="white"/>
<path d="M20.8888 4H3.11117C2.4976 4 2 4.49732 2 5.11117C2 5.72474 2.49732 6.22234 3.11117 6.22234H20.8888C21.5024 6.22234 22 5.72502 22 5.11117C21.9997 4.4976 21.5024 4 20.8886 4H20.8888Z" fill="white"/>
</svg>
