<svg width="49" height="105" viewBox="0 0 49 105" fill="none" xmlns="http://www.w3.org/2000/svg">
<path d="M26.9122 65.7047C26.8126 69.749 28.8192 69.4379 28.8192 69.4379C29.0277 68.9714 29.2798 68.5256 29.572 68.1064C30.6235 66.4918 32.2319 64.227 31.6283 62.8862C31.2339 62.0848 30.7849 61.3115 30.2844 60.5717C29.2111 58.926 27.9761 57.2585 27.9761 57.2585L33.33 56.3719C33.33 56.3719 37.144 57.9492 40.1523 58.1327H40.3856C43.1357 58.1856 42.6909 56.0297 42.6909 55.3329C42.6909 55.0373 41.9473 54.4929 41.0794 53.9578C39.835 53.1988 38.3355 52.449 38.3355 52.449L39.1506 50.7629C39.618 50.859 40.0972 50.8852 40.5723 50.8407C42.6566 50.6136 42.3704 48.5603 42.0313 47.6675C41.9349 47.4093 41.4558 47.0235 40.787 46.5756C38.6435 45.1632 34.5402 43.1971 34.5402 43.1971H28.5143L22.6035 59.3553C22.6035 59.3553 27.0086 61.6543 26.9122 65.7047Z" fill="white"/>
<path opacity="0.1" d="M26.9122 65.7047C26.8126 69.749 28.8192 69.4379 28.8192 69.4379C29.0277 68.9714 29.2798 68.5256 29.572 68.1064C30.6235 66.4918 32.2319 64.227 31.6283 62.8862C31.2339 62.0848 30.7849 61.3115 30.2844 60.5717C29.2111 58.926 27.9761 57.2585 27.9761 57.2585L33.33 56.3719C33.33 56.3719 37.144 57.9492 40.1523 58.1327H40.3856C43.1357 58.1856 42.6909 56.0297 42.6909 55.3329C42.6909 55.0373 41.9473 54.4929 41.0794 53.9578C39.835 53.1988 38.3355 52.449 38.3355 52.449L39.1506 50.7629C39.618 50.859 40.0972 50.8852 40.5723 50.8407C42.6566 50.6136 42.3704 48.5603 42.0313 47.6675C41.9349 47.4093 41.4558 47.0235 40.787 46.5756C38.6435 45.1632 34.5402 43.1971 34.5402 43.1971H28.5143L22.6035 59.3553C22.6035 59.3553 27.0086 61.6543 26.9122 65.7047Z" fill="#FFE4C8"/>
<path opacity="0.4" d="M26.9122 65.7047C26.8126 69.749 28.8192 69.4379 28.8192 69.4379C29.0277 68.9714 29.2798 68.5256 29.572 68.1064C29.4978 67.7178 29.4613 67.323 29.4631 66.9273C29.4911 65.5399 30.6266 62.8831 30.6266 62.8831L29.4631 61.0414C29.7032 60.8314 29.9823 60.6708 30.2844 60.5686C29.2111 58.9229 27.9761 57.2554 27.9761 57.2554L33.33 56.3688C33.33 56.3688 37.144 57.946 40.1523 58.1296H40.3856C40.2114 56.6208 40.8087 54.7076 41.0794 53.9578C39.835 53.1988 38.3355 52.449 38.3355 52.449L39.1506 50.7629C39.618 50.859 40.0972 50.8852 40.5723 50.8407C40.2985 49.5247 40.5723 47.6986 40.7807 46.5756C38.6373 45.1632 34.534 43.1971 34.534 43.1971H28.5143L22.6035 59.3553C22.6035 59.3553 27.0086 61.6543 26.9122 65.7047Z" fill="#FFE4C8"/>
<path d="M28.5143 43.2005H34.534C34.534 43.2005 41.6269 46.6039 42.0282 47.6678C42.4295 48.7318 42.7562 51.4165 39.1475 50.7788L38.3324 52.4618C38.3324 52.4618 42.6877 54.6394 42.6877 55.3456C42.6877 56.0518 43.1575 58.3135 40.1492 58.1455C37.1409 57.9775 33.33 56.3878 33.33 56.3878L27.973 57.2744C27.973 57.2744 30.8226 61.1164 31.6221 62.9021C32.4216 64.6878 29.3169 68.1036 28.8223 69.4537C28.8223 69.4537 26.8157 69.7804 26.9153 65.7206C27.0148 61.6608 22.6035 59.3743 22.6035 59.3743" stroke="#263238" stroke-width="0.310691" stroke-linecap="round" stroke-linejoin="round"/>
<path d="M29.9391 62.1562C29.9391 62.1562 28.4303 61.3131 27.609 62.881" stroke="#263238" stroke-width="0.310691" stroke-linecap="round" stroke-linejoin="round"/>
<path d="M43.9367 67.9298L20.7587 67.9165C20.0958 67.9163 19.4394 67.786 18.8271 67.5332C18.2147 67.2804 17.6584 66.9099 17.1899 66.443C16.7213 65.9761 16.3497 65.4218 16.0962 64.8119C15.8428 64.202 15.7125 63.5483 15.7127 62.8882L15.7242 5.02832C15.7242 4.36783 15.8549 3.71381 16.1088 3.10363C16.3627 2.49344 16.7348 1.93904 17.2039 1.47209C17.673 1.00514 18.2299 0.634798 18.8428 0.382213C19.4557 0.129628 20.1125 -0.000249259 20.7758 3.59132e-07L43.9539 0.0133027C45.2925 0.0143102 46.5759 0.544523 47.5221 1.48741C48.4683 2.43029 48.9998 3.70869 48.9998 5.04162L48.9884 62.9015C48.9886 63.5621 48.8581 64.2162 48.6043 64.8265C48.3505 65.4368 47.9784 65.9913 47.5092 66.4583C47.04 66.9253 46.483 67.2956 45.8701 67.5481C45.2571 67.8006 44.6001 67.9303 43.9367 67.9298Z" fill="#20446C"/>
<path d="M43.9252 2.06332H39.4346C39.2877 2.06652 39.1429 2.0986 39.0086 2.15772C38.8742 2.21683 38.7529 2.30182 38.6516 2.40778C38.5503 2.51374 38.4711 2.6386 38.4185 2.77516C38.3658 2.91173 38.3408 3.05731 38.3449 3.20353V4.01498C38.3487 4.16114 38.3235 4.30661 38.2708 4.44307C38.218 4.57952 38.1388 4.70427 38.0375 4.81019C37.9363 4.9161 37.8151 5.00109 37.6809 5.06029C37.5466 5.11949 37.4019 5.15174 37.2551 5.15519H28.4954C28.3485 5.15174 28.2037 5.1195 28.0694 5.06032C27.935 5.00115 27.8137 4.91619 27.7123 4.8103C27.6109 4.70442 27.5315 4.57968 27.4786 4.44321C27.4256 4.30675 27.4002 4.16123 27.4037 4.01498V3.19023C27.4076 3.04407 27.3824 2.8986 27.3296 2.76215C27.2769 2.62569 27.1977 2.50094 27.0964 2.39502C26.9952 2.28911 26.874 2.20412 26.7397 2.14492C26.6055 2.08572 26.4608 2.05347 26.314 2.05002H20.7986C20.3341 2.04952 19.8741 2.14019 19.4449 2.31683C19.0156 2.49348 18.6255 2.75264 18.2969 3.0795C17.9683 3.40636 17.7076 3.79451 17.5298 4.22176C17.3519 4.649 17.2604 5.10697 17.2604 5.56947L17.2489 62.0459C17.2499 62.9789 17.6227 63.8733 18.2854 64.5328C18.948 65.1923 19.8464 65.563 20.7833 65.5635L43.9137 65.5768C44.3782 65.5773 44.8382 65.4866 45.2675 65.31C45.6967 65.1333 46.0868 64.8742 46.4154 64.5473C46.744 64.2204 47.0047 63.8323 47.1826 63.405C47.3604 62.9778 47.452 62.5198 47.452 62.0573L47.4634 5.58087C47.4624 4.64728 47.0891 3.7523 46.4256 3.09269C45.7621 2.43307 44.8627 2.06282 43.9252 2.06332Z" fill="#FAFAFA"/>
<path d="M37.1279 47.4975H28.1061C27.2951 47.4975 26.5173 47.1753 25.9438 46.6019C25.3703 46.0284 25.0481 45.2505 25.0481 44.4395C25.0481 43.6281 25.3702 42.85 25.9436 42.276C26.517 41.702 27.2948 41.3791 28.1061 41.3783H37.1279C37.9392 41.3791 38.717 41.702 39.2904 42.276C39.8638 42.85 40.1859 43.6281 40.1859 44.4395C40.1859 45.2505 39.8637 46.0284 39.2902 46.6019C38.7167 47.1753 37.9389 47.4975 37.1279 47.4975Z" fill="#053C6D" stroke="#053C6D" stroke-width="0.310691" stroke-linecap="round" stroke-linejoin="round"/>
<path d="M29.3161 30.161H29.3317C29.3884 30.161 29.4384 30.1064 29.4384 30.0337C29.4384 29.961 29.3884 29.9063 29.3317 29.9063H28.3632C28.3065 29.9063 28.2565 29.961 28.2565 30.0337C28.2565 30.1064 28.3065 30.161 28.3632 30.161L28.6408 30.161L28.6408 30.161H29.3161ZM29.3161 30.161V30.1625M29.3161 30.161V30.1625M29.3161 30.1625H29.0908H29.0642L29.0772 30.1856C29.1107 30.2453 29.135 30.3115 29.1489 30.3812L29.1514 30.3937H29.1642H29.3317C29.3884 30.3937 29.4384 30.4483 29.4384 30.521C29.4384 30.5937 29.3884 30.6484 29.3317 30.6484H29.1642H29.1514L29.1489 30.6608C29.0951 30.9268 28.8989 31.1173 28.6691 31.1328L28.6371 31.135L28.6586 31.1588L29.1282 31.6775L29.1282 31.6775C29.149 31.7005 29.1615 31.7327 29.1624 31.7671C29.1632 31.8014 29.1523 31.8344 29.1326 31.8587C29.1117 31.8836 29.0838 31.8971 29.0552 31.8973C29.0287 31.8975 29.0026 31.8859 28.9825 31.8638C28.9825 31.8638 28.9824 31.8638 28.9824 31.8638L28.2904 31.0994C28.2904 31.0994 28.2904 31.0993 28.2904 31.0993C28.2581 31.0635 28.2473 31.0073 28.2641 30.9578C28.281 30.9085 28.321 30.8781 28.3633 30.8781L29.3161 30.1625Z" fill="#263238" stroke="white" stroke-width="0.0310691"/>
<path d="M29.5823 20.5404V15.9269" stroke="#263238" stroke-width="0.310691" stroke-linecap="round" stroke-linejoin="round"/>
<path d="M29.5823 23.3096V21.4648" stroke="#263238" stroke-width="0.310691" stroke-linecap="round" stroke-linejoin="round"/>
<path d="M29.5823 25.0356V24.0463" stroke="#263238" stroke-width="0.310691" stroke-linecap="round" stroke-linejoin="round"/>
<path d="M30.4492 16.465L29.5782 15.3886L28.7071 16.465" stroke="#263238" stroke-width="0.310691" stroke-linecap="round" stroke-linejoin="round"/>
<path d="M35.6526 18.8292V14.2157" stroke="#263238" stroke-width="0.310691" stroke-linecap="round" stroke-linejoin="round"/>
<path d="M35.6526 21.5984V19.7536" stroke="#263238" stroke-width="0.310691" stroke-linecap="round" stroke-linejoin="round"/>
<path d="M35.6526 23.3249V22.3356" stroke="#263238" stroke-width="0.310691" stroke-linecap="round" stroke-linejoin="round"/>
<path d="M36.5196 14.7543L35.6485 13.6779L34.7775 14.7543" stroke="#263238" stroke-width="0.310691" stroke-linecap="round" stroke-linejoin="round"/>
<path d="M32.4786 15.7314V11.1179" stroke="#263238" stroke-width="0.310691" stroke-linecap="round" stroke-linejoin="round"/>
<path d="M32.4786 18.4992V16.6544" stroke="#263238" stroke-width="0.310691" stroke-linecap="round" stroke-linejoin="round"/>
<path d="M32.4786 20.2271V19.2378" stroke="#263238" stroke-width="0.310691" stroke-linecap="round" stroke-linejoin="round"/>
<path d="M33.3514 11.6557L32.4804 10.5762L31.6093 11.6557" stroke="#263238" stroke-width="0.310691" stroke-linecap="round" stroke-linejoin="round"/>
<path d="M37.3135 23.3086C37.9216 20.7141 36.3112 18.1179 33.7167 17.5099C31.1222 16.9018 28.526 18.5121 27.918 21.1066C27.3099 23.7012 28.9202 26.2974 31.5147 26.9054C34.1093 27.5135 36.7055 25.9031 37.3135 23.3086Z" fill="#20446C" stroke="#263238" stroke-width="0.310691" stroke-linecap="round" stroke-linejoin="round"/>
<path d="M33.9961 20.8979C34.1791 20.8979 34.3274 20.7523 34.3274 20.5727C34.3274 20.3931 34.1791 20.2474 33.9961 20.2474H31.3723C31.1893 20.2474 31.041 20.3931 31.041 20.5727C31.041 20.7523 31.1893 20.8979 31.3723 20.8979H32.1243C32.4353 20.8974 32.7178 21.0755 32.8465 21.3532H31.3755C31.1926 21.3532 31.0442 21.4989 31.0442 21.6784C31.0442 21.8581 31.1926 22.0037 31.3755 22.0037H32.8465C32.7166 22.2806 32.4347 22.4582 32.1243 22.459H31.3723C31.2364 22.4591 31.1142 22.5406 31.0639 22.6644C31.0135 22.7883 31.0451 22.9298 31.1436 23.0217L33.0188 24.7617C33.0808 24.8186 33.1625 24.85 33.2473 24.8495C33.3384 24.849 33.4255 24.8126 33.4892 24.7487C33.5495 24.6862 33.582 24.6027 33.5795 24.5167C33.5771 24.4307 33.5398 24.3492 33.476 24.2901L32.2037 23.1095C32.8491 23.0729 33.3934 22.6245 33.5422 22.007H33.9961C34.1791 22.007 34.3274 21.8614 34.3274 21.6817C34.3274 21.5021 34.1791 21.3565 33.9961 21.3565H33.5422C33.5037 21.1945 33.4364 21.0403 33.3435 20.9012H33.9961V20.8979Z" fill="white"/>
<path d="M29.8541 30.2311C29.932 30.2404 30.0106 30.2199 30.074 30.1738C30.1375 30.1276 30.1812 30.0592 30.1963 29.9822H30.4203V31.967H30.1092V30.452H29.8697L29.8541 30.2311Z" fill="#263238"/>
<path d="M30.7533 30.4591C30.7394 30.39 30.741 30.3187 30.758 30.2503C30.775 30.1819 30.807 30.1182 30.8517 30.0637C30.8963 30.0092 30.9525 29.9653 31.0162 29.9351C31.0799 29.9049 31.1494 29.8893 31.2199 29.8893C31.2904 29.8893 31.3599 29.9049 31.4236 29.9351C31.4873 29.9653 31.5435 30.0092 31.5881 30.0637C31.6328 30.1182 31.6648 30.1819 31.6818 30.2503C31.6988 30.3187 31.7004 30.39 31.6865 30.4591V31.4919C31.7004 31.561 31.6988 31.6323 31.6818 31.7007C31.6648 31.769 31.6328 31.8328 31.5881 31.8873C31.5435 31.9418 31.4873 31.9857 31.4236 32.0159C31.3599 32.046 31.2904 32.0617 31.2199 32.0617C31.1494 32.0617 31.0799 32.046 31.0162 32.0159C30.9525 31.9857 30.8963 31.9418 30.8517 31.8873C30.807 31.8328 30.775 31.769 30.758 31.7007C30.741 31.6323 30.7394 31.561 30.7533 31.4919V30.4591ZM31.0644 31.5106C31.0644 31.6537 31.1266 31.7066 31.2261 31.7066C31.3257 31.7066 31.3848 31.6537 31.3848 31.5106V30.4404C31.3848 30.2973 31.3226 30.2444 31.2261 30.2444C31.1297 30.2444 31.0644 30.2973 31.0644 30.4404V31.5106Z" fill="#263238"/>
<path d="M31.8758 30.4591C31.8619 30.39 31.8635 30.3187 31.8806 30.2503C31.8976 30.1819 31.9296 30.1182 31.9742 30.0637C32.0189 30.0092 32.0751 29.9653 32.1387 29.9351C32.2024 29.9049 32.272 29.8893 32.3425 29.8893C32.4129 29.8893 32.4825 29.9049 32.5462 29.9351C32.6099 29.9653 32.666 30.0092 32.7107 30.0637C32.7553 30.1182 32.7873 30.1819 32.8043 30.2503C32.8214 30.3187 32.823 30.39 32.8091 30.4591V31.4919C32.823 31.561 32.8214 31.6323 32.8043 31.7007C32.7873 31.769 32.7553 31.8328 32.7107 31.8873C32.666 31.9418 32.6099 31.9857 32.5462 32.0159C32.4825 32.046 32.4129 32.0617 32.3425 32.0617C32.272 32.0617 32.2024 32.046 32.1387 32.0159C32.0751 31.9857 32.0189 31.9418 31.9742 31.8873C31.9296 31.8328 31.8976 31.769 31.8806 31.7007C31.8635 31.6323 31.8619 31.561 31.8758 31.4919V30.4591ZM32.1869 31.5106C32.1869 31.6537 32.2491 31.7066 32.3487 31.7066C32.4482 31.7066 32.5073 31.6537 32.5073 31.5106V30.4404C32.5073 30.2973 32.4451 30.2444 32.3487 30.2444C32.2522 30.2444 32.1869 30.2973 32.1869 30.4404V31.5106Z" fill="#263238"/>
<path d="M32.9984 30.4591C32.9845 30.39 32.9861 30.3187 33.0031 30.2503C33.0201 30.1819 33.0521 30.1182 33.0968 30.0637C33.1414 30.0092 33.1976 29.9653 33.2613 29.9351C33.325 29.9049 33.3945 29.8893 33.465 29.8893C33.5355 29.8893 33.605 29.9049 33.6687 29.9351C33.7324 29.9653 33.7886 30.0092 33.8332 30.0637C33.8779 30.1182 33.9099 30.1819 33.9269 30.2503C33.9439 30.3187 33.9455 30.39 33.9316 30.4591V31.4919C33.9455 31.561 33.9439 31.6323 33.9269 31.7007C33.9099 31.769 33.8779 31.8328 33.8332 31.8873C33.7886 31.9418 33.7324 31.9857 33.6687 32.0159C33.605 32.046 33.5355 32.0617 33.465 32.0617C33.3945 32.0617 33.325 32.046 33.2613 32.0159C33.1976 31.9857 33.1414 31.9418 33.0968 31.8873C33.0521 31.8328 33.0201 31.769 33.0031 31.7007C32.9861 31.6323 32.9845 31.561 32.9984 31.4919V30.4591ZM33.3095 31.5106C33.3095 31.6537 33.3717 31.7066 33.4712 31.7066C33.5708 31.7066 33.6299 31.6537 33.6299 31.5106V30.4404C33.6299 30.2973 33.5677 30.2444 33.4712 30.2444C33.3748 30.2444 33.3095 30.2973 33.3095 30.4404V31.5106Z" fill="#263238"/>
<path d="M34.4618 31.6655V31.9766H34.1507V31.6655H34.4618Z" fill="#263238"/>
<path d="M34.6527 30.4572C34.6416 30.3895 34.6453 30.3203 34.6637 30.2542C34.682 30.1881 34.7145 30.1269 34.7589 30.0746C34.8033 30.0224 34.8585 29.9804 34.9208 29.9516C34.983 29.9228 35.0507 29.9079 35.1193 29.9079C35.1879 29.9079 35.2556 29.9228 35.3178 29.9516C35.3801 29.9804 35.4353 30.0224 35.4797 30.0746C35.5241 30.1269 35.5566 30.1881 35.5749 30.2542C35.5933 30.3203 35.597 30.3895 35.5859 30.4572V31.49C35.597 31.5577 35.5933 31.627 35.5749 31.693C35.5566 31.7591 35.5241 31.8204 35.4797 31.8726C35.4353 31.9249 35.3801 31.9669 35.3178 31.9957C35.2556 32.0244 35.1879 32.0394 35.1193 32.0394C35.0507 32.0394 34.983 32.0244 34.9208 31.9957C34.8585 31.9669 34.8033 31.9249 34.7589 31.8726C34.7145 31.8204 34.682 31.7591 34.6637 31.693C34.6453 31.627 34.6416 31.5577 34.6527 31.49V30.4572ZM34.9638 31.5087C34.9638 31.6518 35.026 31.7047 35.1255 31.7047C35.2251 31.7047 35.2873 31.6518 35.2873 31.5087V30.4385C35.2873 30.2954 35.2251 30.2426 35.1255 30.2426C35.026 30.2426 34.9638 30.2954 34.9638 30.4385V31.5087Z" fill="#263238"/>
<path d="M35.7752 30.4572C35.7641 30.3895 35.7679 30.3203 35.7862 30.2542C35.8046 30.1881 35.8371 30.1269 35.8815 30.0746C35.9259 30.0224 35.9811 29.9804 36.0433 29.9516C36.1055 29.9228 36.1733 29.9079 36.2419 29.9079C36.3104 29.9079 36.3782 29.9228 36.4404 29.9516C36.5026 29.9804 36.5578 30.0224 36.6022 30.0746C36.6466 30.1269 36.6791 30.1881 36.6975 30.2542C36.7158 30.3203 36.7196 30.3895 36.7085 30.4572V31.49C36.7196 31.5577 36.7158 31.627 36.6975 31.693C36.6791 31.7591 36.6466 31.8204 36.6022 31.8726C36.5578 31.9249 36.5026 31.9669 36.4404 31.9957C36.3782 32.0244 36.3104 32.0394 36.2419 32.0394C36.1733 32.0394 36.1055 32.0244 36.0433 31.9957C35.9811 31.9669 35.9259 31.9249 35.8815 31.8726C35.8371 31.8204 35.8046 31.7591 35.7862 31.693C35.7679 31.627 35.7641 31.5577 35.7752 31.49V30.4572ZM36.0863 31.5087C36.0863 31.6518 36.1485 31.7047 36.2481 31.7047C36.3476 31.7047 36.4098 31.6518 36.4098 31.5087V30.4385C36.4098 30.2954 36.3476 30.2426 36.2481 30.2426C36.1485 30.2426 36.0863 30.2954 36.0863 30.4385V31.5087Z" fill="#263238"/>
<path d="M27.1377 33.8026H27.4488V35.7842H27.1377V33.8026Z" fill="#263238"/>
<path d="M27.6775 33.8026H28.1721C28.4832 33.8026 28.6356 33.9737 28.6356 34.291V35.2958C28.6356 35.6069 28.4832 35.7842 28.1721 35.7842H27.6775V33.8026ZM27.9886 34.0857V35.5012H28.1659C28.2654 35.5012 28.3245 35.4514 28.3245 35.3083V34.2786C28.3245 34.1354 28.2654 34.0857 28.1659 34.0857H27.9886Z" fill="#263238"/>
<path d="M29.1062 35.4859V35.797H28.7951V35.4859H29.1062Z" fill="#263238"/>
<path d="M29.7971 34.0632C29.6975 34.0632 29.6353 34.1161 29.6353 34.2561V34.4707H29.3429V34.2778C29.3429 33.9667 29.5015 33.7801 29.8064 33.7801C30.1113 33.7801 30.2699 33.9605 30.2699 34.2778C30.2636 34.4281 30.2261 34.5755 30.1597 34.7105C30.0932 34.8454 29.9994 34.9651 29.8842 35.0618C29.7006 35.2609 29.6509 35.3542 29.6509 35.46C29.6493 35.4734 29.6493 35.487 29.6509 35.5004H30.2388V35.7835H29.3398V35.5409C29.345 35.4211 29.3754 35.3038 29.429 35.1966C29.4826 35.0894 29.5582 34.9947 29.6509 34.9187C29.7443 34.8434 29.8204 34.7488 29.8741 34.6415C29.9278 34.5341 29.9578 34.4165 29.962 34.2965C29.9526 34.1098 29.8904 34.0632 29.7971 34.0632Z" fill="#263238"/>
<path d="M30.651 34.0514C30.7289 34.0608 30.8075 34.0403 30.871 33.9942C30.9344 33.948 30.9781 33.8796 30.9932 33.8026H31.2017V35.7842H30.8906V34.2723H30.651V34.0514Z" fill="#263238"/>
<path d="M32.0278 35.8088C31.9609 35.8154 31.8934 35.8069 31.8303 35.7838C31.7672 35.7608 31.7101 35.7239 31.6632 35.6758C31.6163 35.6277 31.5808 35.5696 31.5594 35.506C31.538 35.4423 31.5311 35.3746 31.5394 35.308V35.1524C31.53 35.0728 31.543 34.9921 31.5771 34.9195C31.6112 34.847 31.665 34.7854 31.7322 34.7418C31.6651 34.7018 31.6111 34.6432 31.5769 34.573C31.5426 34.5028 31.5296 34.4242 31.5394 34.3467V34.2845C31.534 34.2173 31.5426 34.1497 31.5646 34.086C31.5866 34.0222 31.6216 33.9638 31.6674 33.9142C31.7131 33.8647 31.7686 33.8251 31.8303 33.7981C31.8921 33.7711 31.9588 33.7571 32.0262 33.7571C32.0936 33.7571 32.1603 33.7711 32.2221 33.7981C32.2839 33.8251 32.3394 33.8647 32.3851 33.9142C32.4308 33.9638 32.4658 34.0222 32.4878 34.086C32.5099 34.1497 32.5185 34.2173 32.5131 34.2845V34.3467C32.5221 34.4241 32.5087 34.5025 32.4745 34.5725C32.4403 34.6425 32.3868 34.7013 32.3202 34.7418C32.3875 34.7854 32.4412 34.847 32.4753 34.9195C32.5094 34.9921 32.5225 35.0728 32.5131 35.1524V35.308C32.5213 35.3744 32.5145 35.4417 32.4932 35.5051C32.4719 35.5686 32.4367 35.6264 32.3902 35.6744C32.3436 35.7225 32.2869 35.7595 32.2242 35.7827C32.1615 35.806 32.0944 35.8149 32.0278 35.8088ZM31.8505 34.3996C31.8505 34.5582 31.9251 34.608 32.0278 34.608C32.1304 34.608 32.202 34.5582 32.202 34.3996V34.2876C32.202 34.1103 32.1242 34.0636 32.0278 34.0636C31.9313 34.0636 31.8505 34.1103 31.8505 34.2876V34.3996ZM32.0278 35.5257C32.1242 35.5257 32.1989 35.476 32.202 35.3018V35.1182C32.202 34.9596 32.1367 34.8942 32.0278 34.8942C31.9189 34.8942 31.8505 34.9596 31.8505 35.1182V35.3018C31.8505 35.476 31.9282 35.5257 32.0278 35.5257Z" fill="#263238"/>
<path d="M32.9069 34.0514C32.9848 34.0608 33.0634 34.0403 33.1268 33.9942C33.1903 33.948 33.234 33.8796 33.2491 33.8026H33.4575V35.7842H33.1464V34.2723H32.9069V34.0514Z" fill="#263238"/>
<path d="M34.7415 35.2932C34.7415 35.6261 34.589 35.8096 34.2655 35.8096C33.9419 35.8096 33.7988 35.6261 33.7988 35.3088V35.259H34.0944V35.3368C34.0944 35.4768 34.1566 35.5328 34.2562 35.5328C34.3557 35.5328 34.4304 35.4768 34.4304 35.287V34.9292C34.4067 34.9836 34.3667 35.0292 34.316 35.0598C34.2653 35.0905 34.2064 35.1046 34.1473 35.1003C33.9171 35.1003 33.802 34.9386 33.802 34.6461V34.2791C33.7909 34.2114 33.7946 34.1421 33.813 34.0761C33.8313 34.01 33.8638 33.9487 33.9082 33.8965C33.9526 33.8442 34.0078 33.8022 34.0701 33.7734C34.1323 33.7446 34.2 33.7297 34.2686 33.7297C34.3372 33.7297 34.4049 33.7446 34.4671 33.7734C34.5294 33.8022 34.5846 33.8442 34.629 33.8965C34.6734 33.9487 34.7059 34.01 34.7242 34.0761C34.7426 34.1421 34.7463 34.2114 34.7352 34.2791L34.7415 35.2932ZM34.4304 34.615V34.2573C34.4304 34.1173 34.3681 34.0675 34.2686 34.0675C34.169 34.0675 34.1068 34.1173 34.1068 34.2573V34.615C34.1068 34.7581 34.169 34.811 34.2686 34.811C34.3681 34.811 34.4304 34.7581 34.4304 34.615Z" fill="#263238"/>
<path d="M35.2298 35.1471V35.3369C35.2298 35.4769 35.292 35.5298 35.3916 35.5298C35.4911 35.5298 35.5534 35.4769 35.5534 35.3369V34.9014C35.5534 34.7583 35.4911 34.7054 35.3916 34.7054C35.292 34.7054 35.2298 34.7583 35.2298 34.9014V34.9605H34.9343L34.9903 33.8094H35.8116V34.0925H35.2703L35.2423 34.5654C35.2697 34.5189 35.3096 34.4808 35.3574 34.4556C35.4051 34.4303 35.459 34.4188 35.5129 34.4223C35.74 34.4223 35.8582 34.584 35.8582 34.8734V35.3151C35.8582 35.6262 35.6996 35.816 35.3916 35.816C35.0836 35.816 34.9281 35.6324 34.9281 35.3151V35.1534L35.2298 35.1471Z" fill="#263238"/>
<path d="M36.0506 34.2929C36.0506 33.96 36.203 33.7796 36.5266 33.7796C36.592 33.7742 36.6577 33.7837 36.7189 33.8072C36.7801 33.8308 36.8352 33.8679 36.8801 33.9158C36.925 33.9636 36.9585 34.021 36.978 34.0836C36.9976 34.1462 37.0028 34.2125 36.9932 34.2774V34.3271H36.6977V34.2556C36.6977 34.1156 36.6355 34.0627 36.5359 34.0627C36.4364 34.0627 36.3617 34.1156 36.3617 34.3054V34.6662C36.3853 34.6116 36.4251 34.5656 36.4757 34.5344C36.5264 34.5032 36.5854 34.4884 36.6448 34.492C36.875 34.492 36.9932 34.6538 36.9932 34.9462V35.3071C37.0071 35.3762 37.0055 35.4475 36.9885 35.5158C36.9714 35.5842 36.9395 35.6479 36.8948 35.7025C36.8502 35.757 36.794 35.8009 36.7303 35.831C36.6666 35.8612 36.597 35.8768 36.5266 35.8768C36.4561 35.8768 36.3865 35.8612 36.3229 35.831C36.2592 35.8009 36.203 35.757 36.1583 35.7025C36.1137 35.6479 36.0817 35.5842 36.0647 35.5158C36.0477 35.4475 36.0461 35.3762 36.0599 35.3071L36.0506 34.2929ZM36.3617 34.9711V35.3351C36.3617 35.4751 36.427 35.528 36.5235 35.528C36.6199 35.528 36.6852 35.4751 36.6852 35.3351V34.9773C36.6852 34.8373 36.623 34.7813 36.5235 34.7813C36.4239 34.7813 36.3617 34.8311 36.3617 34.9711Z" fill="#263238"/>
<path d="M38.1095 33.8026V34.0732L37.6491 35.7842H37.338L37.7953 34.0857H37.1732V33.8026H38.1095Z" fill="#263238"/>
<path d="M32.2165 32.4639H32.593V32.5697H32.4685V33.2137H32.3503V32.5697H32.2259L32.2165 32.4639Z" fill="#263238"/>
<path d="M32.6258 32.646C32.6224 32.6211 32.6247 32.5958 32.6325 32.5719C32.6402 32.548 32.6532 32.5261 32.6705 32.5079C32.6879 32.4897 32.709 32.4756 32.7325 32.4667C32.756 32.4577 32.7812 32.4542 32.8062 32.4563C32.8312 32.4541 32.8563 32.4576 32.8796 32.4665C32.903 32.4755 32.924 32.4896 32.9411 32.5079C32.9582 32.5262 32.9709 32.5482 32.9783 32.5721C32.9856 32.596 32.9874 32.6213 32.9835 32.646V33.0349C32.9874 33.0596 32.9856 33.0849 32.9783 33.1088C32.9709 33.1328 32.9582 33.1547 32.9411 33.173C32.924 33.1913 32.903 33.2054 32.8796 33.2144C32.8563 33.2233 32.8312 33.2268 32.8062 33.2247C32.7812 33.2267 32.756 33.2232 32.7325 33.2142C32.709 33.2053 32.6879 33.1912 32.6705 33.173C32.6532 33.1548 32.6402 33.1329 32.6325 33.109C32.6247 33.0851 32.6224 33.0598 32.6258 33.0349V32.646ZM32.744 33.0442C32.744 33.0971 32.7689 33.1158 32.8062 33.1158C32.8436 33.1158 32.8653 33.0971 32.8653 33.0442V32.6367C32.8653 32.5838 32.8436 32.562 32.8062 32.562C32.7689 32.562 32.744 32.5838 32.744 32.6367V33.0442Z" fill="#263238"/>
<path d="M30.1045 42.8015C30.5525 42.8015 30.7796 43.0691 30.7796 43.5357V43.6259H30.3472V43.5046C30.3472 43.2993 30.2632 43.2184 30.117 43.2184C29.9708 43.2184 29.8899 43.2993 29.8899 43.5046C29.8899 43.7099 29.9801 43.8779 30.2787 44.1268C30.6645 44.4628 30.7827 44.7054 30.7827 45.0383C30.7827 45.5049 30.5525 45.7725 30.1014 45.7725C29.6503 45.7725 29.417 45.5049 29.417 45.0383V44.8579H29.8525V45.0663C29.8525 45.2747 29.9428 45.3494 30.089 45.3494C30.2352 45.3494 30.3254 45.2747 30.3254 45.0663C30.3254 44.8579 30.2352 44.6961 29.9334 44.4441C29.7828 44.3436 29.6587 44.2083 29.5715 44.0496C29.4843 43.891 29.4366 43.7136 29.4326 43.5326C29.4419 43.0629 29.669 42.8015 30.1045 42.8015Z" fill="white"/>
<path d="M31.514 44.046H32.1362V44.4629H31.514V45.3153H32.3041V45.7321H31.0598V42.8172H32.3041V43.2341H31.514V44.046Z" fill="white"/>
<path d="M33.0056 43.632V45.7444H32.595V42.8294H33.1705L33.634 44.5746V42.8294H34.0415V45.7444H33.5718L33.0056 43.632Z" fill="white"/>
<path d="M34.3662 42.8294H35.0848C35.5421 42.8294 35.7661 43.0845 35.7661 43.548V45.0226C35.7661 45.4893 35.5421 45.7444 35.0848 45.7444H34.3599L34.3662 42.8294ZM34.8235 43.2463V45.3275H35.0848C35.231 45.3275 35.3181 45.2528 35.3181 45.0444V43.5294C35.3181 43.3209 35.231 43.2463 35.0848 43.2463H34.8235Z" fill="white"/>
<path d="M12.966 38.1891C12.966 38.1891 14.9695 38.8113 15.6725 40.5534" stroke="#263238" stroke-width="0.310691" stroke-linecap="round" stroke-linejoin="round"/>
<path d="M3.88785 93.4522C4.10873 89.576 4.25805 85.6158 4.45093 82.4271C4.85224 75.8194 5.154 71.3832 5.75441 66.8723C6.35483 62.3615 6.25528 55.5392 6.55704 53.1593C6.8588 50.7794 7.75475 50.2724 8.46404 47.4445C9.17334 44.6167 9.80797 38.9827 10.9715 38.1895C12.135 37.3962 15.6845 35.9122 15.6845 35.9122V51.8683C17.7906 55.1068 20.2981 55.9125 20.2981 55.9125C21.9033 51.2679 21.7042 49.4262 23.3064 47.7183C24.9085 46.0104 26.0689 43.786 28.595 44.7162C29.7958 45.1611 30.4366 45.6122 29.8393 49.6937C29.242 53.7753 28.035 55.0383 28.035 55.0383C27.8328 56.4289 28.1345 60.47 28.6354 62.5388C29.1363 64.6076 27.2324 70.0984 26.3302 73.6106C25.428 77.1229 20.6123 84.2345 20.6123 84.2345C20.496 86.9036 20.5542 89.5775 20.7865 92.239C20.8238 92.6154 20.8705 93.0198 20.9234 93.4429L21.2345 104.365L3.88785 104.061V93.4522Z" fill="white"/>
<path opacity="0.8" d="M29.4603 45.9065C29.3679 45.6748 29.3679 45.4164 29.4603 45.1847C29.2013 44.9692 28.9021 44.8074 28.5799 44.7088C26.0601 43.7755 24.9028 46.0091 23.2913 47.7108C23.1477 47.8641 23.0136 48.0262 22.89 48.1961C24.3428 47.6486 26.2467 47.6579 27.012 48.7219C27.9795 50.0533 29.9425 47.6455 29.4603 45.9065Z" fill="#FFE4C8"/>
<path opacity="0.8" d="M18.5733 89.539L17.7769 92.5131C17.7769 92.5131 18.8969 91.418 20.5768 88.7582C20.4959 86.1667 20.5954 84.2162 20.5954 84.2162C20.5954 84.2162 25.4081 77.1015 26.3134 73.5923C27.2186 70.0832 29.1132 64.5861 28.6186 62.5205C28.1239 60.4548 27.8191 56.4106 28.0182 55.02C28.2542 54.7315 28.4499 54.4123 28.5999 54.0712C28.3943 53.8562 28.1341 53.7013 27.8471 53.6232C27.0138 55.8797 26.6805 58.2902 26.8702 60.6881C27.1813 64.6981 26.4938 65.0434 25.1654 70.2481C23.8371 75.4527 21.6189 81.3697 20.5861 82.4274C19.5533 83.4851 19.0991 88.2604 18.5733 89.539Z" fill="#FFE4C8"/>
<path opacity="0.8" d="M16.677 54.4006C16.677 54.4006 15.0966 54.6463 14.4589 55.0228C14.4589 55.0228 17.548 55.8285 17.7471 56.6902C17.9462 57.552 18.6089 58.4417 19.7848 57.3902C19.7848 57.3902 19.8439 56.7338 19.9652 55.7818C19.2217 55.449 17.3271 54.4068 15.6752 51.8714V35.9122C15.6752 35.9122 13.9207 36.6464 12.4741 37.3557C13.5474 37.4988 14.6517 37.8286 15.0717 38.5534C14.9321 38.9968 14.6987 39.405 14.3874 39.7501C14.0761 40.0953 13.6941 40.3694 13.2674 40.5538C12.1256 41.064 13.2674 49.675 13.2674 49.675C13.2674 49.675 11.4008 50.1386 10.7786 51.8527C10.7786 51.8527 13.8553 52.1638 15.1339 53.1438C15.6693 53.5362 16.1843 53.9557 16.677 54.4006Z" fill="#FFE4C8"/>
<path opacity="0.8" d="M4.44108 82.4274C4.28242 85.0095 4.15798 88.0987 3.99932 91.2376C4.39441 85.2677 5.59523 75.0203 5.59523 75.0203C5.59523 75.0203 6.66851 78.8094 6.74939 78.4081C6.98583 77.2197 6.24542 70.5156 6.31075 68.1264C6.34186 67.0438 6.26409 64.2689 6.16765 61.5592C6.08054 63.4258 5.9561 65.2924 5.74456 66.8727C5.13482 71.396 4.84239 75.8198 4.44108 82.4274Z" fill="#FFE4C8"/>
<path d="M3.88785 104.785V93.4522C4.10873 89.576 4.25805 85.6158 4.45093 82.4271C4.85224 75.8194 5.154 71.3832 5.75441 66.8723C6.35483 62.3615 6.25528 55.5392 6.55704 53.1593C6.8588 50.7794 7.75475 50.2724 8.46404 47.4445C9.17334 44.6167 9.80797 38.9827 10.9715 38.1895C12.135 37.3962 15.6845 35.9122 15.6845 35.9122V51.8683C17.7907 55.1068 20.2981 55.9125 20.2981 55.9125C21.9033 51.2679 21.7042 49.4262 23.3064 47.7183C24.9085 46.0104 26.0689 43.786 28.595 44.7162C29.7958 45.1611 30.4366 45.6122 29.8393 49.6937C29.242 53.7753 28.035 55.0383 28.035 55.0383C27.8328 56.4289 28.1345 60.47 28.6354 62.5388C29.1363 64.6076 27.2324 70.0984 26.3302 73.6106C25.428 77.1229 20.6123 84.2345 20.6123 84.2345C20.496 86.9036 20.5542 89.5775 20.7865 92.239C20.8238 92.6154 20.8705 93.0198 20.9234 93.4429C20.9234 93.4429 21.0851 100.495 21.8567 104.776" stroke="#263238" stroke-width="0.310691" stroke-linecap="round" stroke-linejoin="round"/>
<path d="M20.2877 55.9054C20.2877 55.9054 19.7868 58.1453 18.7851 58.6462C17.7834 59.147 16.3337 58.64 16.3337 58.64" stroke="#263238" stroke-width="0.310691" stroke-linecap="round" stroke-linejoin="round"/>
<path d="M15.6714 51.8682C15.6714 51.8682 14.6697 49.6376 11.4592 51.5726" stroke="#263238" stroke-width="0.310691" stroke-linecap="round" stroke-linejoin="round"/>
<path d="M15.6735 42.8593C15.6735 42.8593 15.4744 41.6771 13.8069 41.3754" stroke="#263238" stroke-width="0.310691" stroke-linecap="round" stroke-linejoin="round"/>
<path d="M20.5891 84.216C18.6821 86.6301 19.0336 88.9384 18.3119 90.1424C17.5901 91.3463 17.6897 95.6581 17.6897 95.6581" stroke="#263238" stroke-width="0.310691" stroke-linecap="round" stroke-linejoin="round"/>
<path d="M6.74996 61.0395V69.4391C6.77695 71.8398 7.01114 74.2338 7.44992 76.5942" stroke="#263238" stroke-width="0.310691" stroke-linecap="round" stroke-linejoin="round"/>
<path d="M28.0103 55.0184C28.0103 55.0184 28.0103 53.5874 27.609 53.1519" stroke="#263238" stroke-width="0.310691" stroke-linecap="round" stroke-linejoin="round"/>
<path d="M26.9069 50.5157C26.9069 50.5157 26.0203 47.523 23.4102 48.8296" stroke="#263238" stroke-width="0.310691" stroke-linecap="round" stroke-linejoin="round"/>
<path d="M18.8689 55.1688C16.9308 55.2093 14.9678 54.3507 13.8167 55.3959" stroke="#263238" stroke-width="0.310691" stroke-linecap="round" stroke-linejoin="round"/>
<path d="M3.07136 89.6063H3.594C3.75901 89.6063 3.91727 89.6719 4.03395 89.7885C4.15064 89.9052 4.21619 90.0635 4.21619 90.2285V100.887C4.21619 101.052 4.15064 101.21 4.03395 101.327C3.91727 101.443 3.75901 101.509 3.594 101.509H3.07136V89.6063Z" fill="#263238"/>
<path d="M3.07136 91.1502C3.07136 91.1502 12.2673 88.7455 21.0931 91.4862C21.2293 91.5292 21.3483 91.6145 21.4328 91.7297C21.5173 91.845 21.5628 91.9842 21.5628 92.1271V97.7734C21.5632 97.823 21.5526 97.8721 21.5318 97.9172C21.5109 97.9622 21.4804 98.0021 21.4423 98.0339C21.4042 98.0657 21.3596 98.0887 21.3116 98.1012C21.2636 98.1138 21.2134 98.1155 21.1646 98.1063C19.27 97.7641 10.9389 96.4482 3.52556 98.1809L3.07136 91.1502Z" fill="#263238"/>
<path d="M3.46863 91.0437V89.7714C3.46904 89.6718 3.44979 89.5732 3.41198 89.4811C3.37417 89.389 3.31855 89.3053 3.24832 89.2348C3.17808 89.1643 3.0946 89.1083 3.00268 89.0701C2.91076 89.0319 2.81221 89.0123 2.71267 89.0123H1.67984C1.55271 89.0137 1.42822 89.0487 1.31897 89.1137C1.20971 89.1787 1.11956 89.2714 1.05765 89.3825L0.155475 91.0437V100.765L1.05454 101.857C1.12113 101.939 1.2051 102.005 1.30036 102.05C1.39561 102.095 1.49974 102.119 1.60517 102.119H2.722C2.82154 102.119 2.92009 102.099 3.01202 102.061C3.10394 102.023 3.18741 101.967 3.25765 101.896C3.32789 101.826 3.38351 101.742 3.42131 101.65C3.45912 101.558 3.47837 101.459 3.47796 101.36L3.46863 91.0437Z" fill="#F0792E" stroke="#263238" stroke-width="0.310691" stroke-linecap="round" stroke-linejoin="round"/>
<path d="M2.82013 90.4162L4.92002 90.0274C4.97849 90.0164 5.03867 90.0184 5.09626 90.0334C5.15385 90.0483 5.20743 90.0758 5.25319 90.1138C5.29894 90.1519 5.33574 90.1995 5.36097 90.2534C5.38619 90.3073 5.39921 90.3661 5.3991 90.4256V91.6357L4.70225 92.1521V96.0906H5.3991V98.15C5.39912 98.2653 5.35912 98.3771 5.28593 98.4661C5.21274 98.5552 5.1109 98.6161 4.99779 98.6385L3.00679 99.0522C2.93647 99.0671 2.86373 99.066 2.79389 99.0491C2.72404 99.0322 2.65885 98.9999 2.60309 98.9546C2.54733 98.9093 2.5024 98.852 2.47159 98.7871C2.44079 98.7222 2.42488 98.6512 2.42504 98.5794V90.8953C2.42391 90.7817 2.46292 90.6714 2.5352 90.5837C2.60748 90.4961 2.70839 90.4368 2.82013 90.4162Z" fill="#F0792E" stroke="#263238" stroke-width="0.310691" stroke-linecap="round" stroke-linejoin="round"/>
<path d="M2.89633 98.5106L4.60735 98.1186C4.66982 98.1036 4.72524 98.0676 4.76432 98.0167C4.80341 97.9657 4.82377 97.9028 4.822 97.8386V96.5538" stroke="#263238" stroke-width="0.310691" stroke-linecap="round" stroke-linejoin="round"/>
<path d="M4.12644 96.0282V91.8129L4.81085 91.2902V90.5" stroke="#263238" stroke-width="0.310691" stroke-linecap="round" stroke-linejoin="round"/>
<path d="M1.34647 89.7813V101.043" stroke="#263238" stroke-width="0.310691" stroke-linecap="round" stroke-linejoin="round"/>
<path d="M9.65132 94.1767C9.56881 94.1767 9.48968 94.1439 9.43134 94.0856C9.373 94.0272 9.34022 93.9481 9.34022 93.8656V93.1936C9.34022 93.1111 9.373 93.032 9.43134 92.9736C9.48968 92.9153 9.56881 92.8825 9.65132 92.8825C9.73383 92.8825 9.81295 92.9153 9.8713 92.9736C9.92964 93.032 9.96241 93.1111 9.96241 93.1936V93.8656C9.96241 93.9481 9.92964 94.0272 9.8713 94.0856C9.81295 94.1439 9.73383 94.1767 9.65132 94.1767Z" fill="white"/>
<path d="M14.3899 94.3014C14.3074 94.3014 14.2282 94.2686 14.1699 94.2102C14.1116 94.1519 14.0788 94.0728 14.0788 93.9903V93.3183C14.0788 93.2358 14.1116 93.1567 14.1699 93.0983C14.2282 93.04 14.3074 93.0072 14.3899 93.0072C14.4724 93.0072 14.5515 93.04 14.6099 93.0983C14.6682 93.1567 14.701 93.2358 14.701 93.3183V93.9903C14.701 94.0728 14.6682 94.1519 14.6099 94.2102C14.5515 94.2686 14.4724 94.3014 14.3899 94.3014Z" fill="white"/>
<path d="M18.6033 94.8206C18.5208 94.8206 18.4417 94.7878 18.3834 94.7295C18.325 94.6711 18.2923 94.592 18.2923 94.5095V93.8375C18.2923 93.755 18.325 93.6759 18.3834 93.6175C18.4417 93.5592 18.5208 93.5264 18.6033 93.5264C18.6859 93.5264 18.765 93.5592 18.8233 93.6175C18.8817 93.6759 18.9144 93.755 18.9144 93.8375V94.5095C18.9144 94.592 18.8817 94.6711 18.8233 94.7295C18.765 94.7878 18.6859 94.8206 18.6033 94.8206Z" fill="white"/>
</svg>
