<svg width="165" height="196" viewBox="0 0 165 196" fill="none" xmlns="http://www.w3.org/2000/svg">
<g filter="url(#filter0_d_10784_12056)">
<rect x="10" y="6" width="145" height="176" rx="12" fill="white"/>
</g>
<rect width="111" height="111" transform="translate(27 14)" fill="white"/>
<g opacity="0.8">
<path opacity="0.3" d="M120.352 104.006C118.323 106.134 116.402 107.507 114.884 108.589C97.0524 121.329 75.9551 117.615 71.4733 116.707C64.8533 115.367 52.0531 112.781 42.7987 101.942C28.8 85.5486 30.9806 59.7171 41.8378 42.6675C43.8234 39.5498 54.3153 22.2377 75.6431 19.4606C88.5497 17.7794 103.594 21.1701 114.487 30.2571C137.354 49.3426 135.726 87.886 120.352 104.006Z" fill="url(#paint0_linear_10784_12056)"/>
<path d="M52.6603 39.2169C59.7164 43.8111 99.6992 72.232 79.7766 114.551C79.7766 114.551 48.6399 102.618 51.5577 39.7782C51.583 39.2281 52.1974 38.9166 52.6603 39.2169Z" fill="url(#paint1_linear_10784_12056)"/>
<path opacity="0.43" d="M55.5726 47.1621C56.4283 48.296 57.2476 49.4494 58.0584 50.6141C58.8664 51.7788 59.6604 52.9519 60.4376 54.139C61.9947 56.5076 63.4929 58.9156 64.9294 61.3572C67.8023 66.2432 70.448 71.2696 72.757 76.4531C75.0576 81.6366 77.03 86.9801 78.4047 92.4948C78.7526 93.8728 79.0472 95.262 79.3081 96.6596C79.3698 97.0104 79.44 97.3584 79.4933 97.7092L79.6616 98.7616C79.757 99.466 79.8608 100.17 79.931 100.878C80.2508 103.704 80.3237 106.561 80.1161 109.401C80.1077 109.522 80.0039 109.609 79.8833 109.6C79.7626 109.592 79.6756 109.488 79.6841 109.367V109.364C79.9001 106.555 79.8384 103.723 79.5326 100.917C79.4652 100.215 79.3642 99.5165 79.2716 98.8149L79.1089 97.7681C79.0556 97.4201 78.9883 97.0721 78.9294 96.7241C78.6768 95.3349 78.3879 93.9513 78.0456 92.579C76.6989 87.0868 74.7518 81.7517 72.4764 76.5738C70.1955 71.3931 67.5722 66.3667 64.7189 61.4779C63.2909 59.0334 61.8039 56.6227 60.258 54.2512C59.4865 53.0641 58.6981 51.8882 57.8957 50.7235C57.0905 49.5589 56.274 48.4026 55.4267 47.2716C55.3959 47.2323 55.4043 47.1734 55.4464 47.1425C55.4857 47.1144 55.5446 47.1229 55.5726 47.1621Z" fill="white"/>
<path d="M124.28 115.75H102.388V72.0551H125.037V114.99C125.037 115.412 124.699 115.75 124.28 115.75Z" fill="url(#paint2_linear_10784_12056)"/>
<path d="M128.069 75.8334H101.309L96.4106 56.142H122.342L129.125 74.1784C129.482 74.9502 128.918 75.8334 128.069 75.8334Z" fill="url(#paint3_linear_10784_12056)"/>
<path d="M122.48 56.4071L94.9022 57.1482L94.1689 54.7252L120.549 54.2529C121.54 54.2529 122.342 54.8404 122.342 55.5623L122.48 56.4071Z" fill="white"/>
<g opacity="0.89">
<path opacity="0.89" d="M120.207 103.884H107.351C107.328 103.884 107.309 103.865 107.309 103.842V83.9703C107.309 83.9473 107.328 83.9281 107.351 83.9281H120.207C120.231 83.9281 120.25 83.9473 120.25 83.9703V103.842C120.25 103.865 120.231 103.884 120.207 103.884Z" fill="white"/>
<g opacity="0.89">
<path opacity="0.89" d="M113.252 102.805H108.276C108.265 102.805 108.253 102.794 108.253 102.782V85.0302C108.253 85.0187 108.265 85.0072 108.276 85.0072H113.255C113.267 85.0072 113.278 85.0187 113.278 85.0302V102.779C113.278 102.794 113.267 102.805 113.252 102.805Z" fill="url(#paint4_linear_10784_12056)"/>
<path opacity="0.89" d="M119.282 102.805H114.303C114.292 102.805 114.28 102.794 114.28 102.782V85.0303C114.28 85.0188 114.292 85.0072 114.303 85.0072H119.282C119.294 85.0072 119.305 85.0188 119.305 85.0303V102.779C119.305 102.794 119.298 102.805 119.282 102.805Z" fill="url(#paint5_linear_10784_12056)"/>
</g>
</g>
<path d="M77.6738 44.7255C77.6738 44.7255 46.9671 67.9151 46.207 67.9151V115.558C46.207 116.729 47.1552 117.677 48.3261 117.677H107.636C108.469 117.677 109.141 117.001 109.141 116.172V67.9151L77.6738 44.7255Z" fill="url(#paint6_linear_10784_12056)"/>
<path opacity="0.9" d="M86.023 115.749H66.5103V112.558C66.5103 112.489 66.564 112.435 66.6331 112.435H85.904C85.9731 112.435 86.0268 112.489 86.0268 112.558V115.749H86.023Z" fill="url(#paint7_linear_10784_12056)"/>
<path d="M86.023 117.858H66.5103V114.667C66.5103 114.598 66.564 114.544 66.6331 114.544H85.904C85.9731 114.544 86.0268 114.598 86.0268 114.667V117.858H86.023Z" fill="url(#paint8_linear_10784_12056)"/>
<path d="M82.9292 112.44H69.6123V86.5889C69.6123 86.5121 69.6737 86.4506 69.7505 86.4506H82.7948C82.8716 86.4506 82.933 86.5121 82.933 86.5889V112.44H82.9292Z" fill="url(#paint9_linear_10784_12056)"/>
<path opacity="0.51" d="M81.9886 84.6993H70.5528C70.0346 84.6993 69.6123 84.2769 69.6123 83.7585V82.9368C69.6123 82.4414 69.9962 82.0344 70.4876 81.9998L81.9234 81.205C82.4685 81.1666 82.9291 81.5966 82.9291 82.1419V83.7585C82.9291 84.2808 82.5069 84.6993 81.9886 84.6993Z" fill="white"/>
<path opacity="0.9" d="M93.0051 73.6674V84.1996H87.7095V78.7746C87.7095 75.9428 90.0951 73.8344 93.0051 73.6674Z" fill="#20446C" stroke="#20446C"/>
<path opacity="0.9" d="M87.7095 103.884V86.9506H93.0051V104.882H88.484C88.4639 104.882 88.4044 104.872 88.3074 104.81C88.2135 104.749 88.1107 104.656 88.0141 104.537C87.8066 104.283 87.7095 104.017 87.7095 103.884Z" fill="#20446C" stroke="#20446C"/>
<path opacity="0.9" d="M95.4023 84.2034V73.6592C98.3714 73.7422 100.698 75.8587 100.698 78.7784V84.2034H95.4023Z" fill="#20446C" stroke="#20446C"/>
<path opacity="0.9" d="M100.115 104.878H95.4023V86.9467H100.698V103.88C100.698 104.057 100.615 104.338 100.459 104.575C100.29 104.833 100.15 104.878 100.115 104.878Z" fill="#20446C" stroke="#20446C"/>
<path d="M58.8289 73.1567H58.7022C55.4123 73.1567 52.5332 75.4875 52.5332 78.7746V84.6996H58.8289V73.1567Z" fill="#20446C"/>
<path d="M52.5332 86.4506V103.884C52.5332 104.472 53.2203 105.382 53.8077 105.382H58.8289V86.4506H52.5332Z" fill="#20446C"/>
<path d="M60.5486 73.1567H60.23V84.7034H66.5256V78.7784C66.5218 75.4837 63.8385 73.1567 60.5486 73.1567Z" fill="#20446C"/>
<path d="M60.2261 105.378H65.4392C66.0265 105.378 66.5217 104.468 66.5217 103.88V86.4467H60.2261V105.378Z" fill="#20446C"/>
<path d="M101.743 106.468H86.5875C85.7199 106.468 85.0098 105.762 85.0098 104.89V78.644C85.0098 74.4929 88.3841 71.1176 92.5338 71.1176H95.7891C99.9389 71.1176 103.313 74.4929 103.313 78.644V104.89C103.317 105.762 102.611 106.468 101.743 106.468ZM92.5377 71.2635C88.4685 71.2635 85.1595 74.5736 85.1595 78.644V104.89C85.1595 105.677 85.8006 106.322 86.5875 106.322H101.743C102.53 106.322 103.175 105.681 103.175 104.89V78.644C103.175 74.5736 99.866 71.2635 95.7968 71.2635H92.5377Z" fill="white"/>
<path d="M67.0747 106.468H51.9191C51.0515 106.468 50.3413 105.762 50.3413 104.89V78.644C50.3413 74.4929 53.7156 71.1176 57.8654 71.1176H61.1207C65.2705 71.1176 68.6448 74.4929 68.6448 78.644V104.89C68.6525 105.762 67.9423 106.468 67.0747 106.468ZM57.8692 71.2635C53.8001 71.2635 50.491 74.5736 50.491 78.644V104.89C50.491 105.677 51.1321 106.322 51.9229 106.322H67.0785C67.8655 106.322 68.5066 105.681 68.5066 104.89V78.644C68.5066 74.5736 65.1975 71.2635 61.1284 71.2635H57.8692Z" fill="white"/>
<path opacity="0.9" d="M70.0802 112.44H69.7577C69.6311 112.44 69.5312 112.34 69.5312 112.213V86.6426C69.5312 86.5351 69.6195 86.4506 69.7232 86.4506H70.0802V112.44Z" fill="url(#paint10_linear_10784_12056)"/>
<path d="M96.6605 45.2325H91.4551V53.7111H96.6605V45.2325Z" fill="url(#paint11_linear_10784_12056)"/>
<path d="M98.3766 46.6073H89.9619V44.2381C89.9619 44.1075 90.0656 44.0038 90.1961 44.0038H98.0196C98.2154 44.0038 98.3766 44.1651 98.3766 44.361V46.6073Z" fill="#20446C"/>
<path d="M44.2798 70.3459L77.6775 44.7256L109.378 69.3206C110.53 70.2153 112.219 69.5894 112.515 68.1609L112.96 65.9837L77.6813 39.1L43.5312 65.1926C42.9208 65.6611 42.6982 66.479 42.9899 67.1894L44.2798 70.3459Z" fill="#20446C"/>
<path d="M105.272 57.6169L80.9912 36.4175L81.1526 36.2345L105.265 57.2941L128.211 35.6606L128.376 35.8364L105.272 57.6169Z" fill="url(#paint12_linear_10784_12056)"/>
<path d="M105.258 65.4798L105.014 65.4762L105.15 57.4555L105.014 35.1836H105.258L105.39 57.4555L105.258 65.4798Z" fill="url(#paint13_linear_10784_12056)"/>
<path d="M105.268 58.1801L93.5205 36.6578L93.7321 36.5395L105.268 57.6779L116.826 36.5395L117.037 36.6578L105.268 58.1801Z" fill="url(#paint14_linear_10784_12056)"/>
<path d="M128.677 36.3242L122.653 33.2071L116.768 37.0524L110.923 32.7013L105.268 37.0524L99.8246 32.9057L93.646 36.9519L87.6717 33.2071L80.6289 36.9196C81.9485 31.5857 86.9797 19.0454 105.135 19.0454C122.646 19.0454 127.404 30.7069 128.677 36.3242Z" fill="url(#paint15_linear_10784_12056)"/>
<path d="M87.6719 33.3366C87.6719 33.3366 92.036 19.7094 104.651 19.1714C104.651 19.1714 92.8142 26.4567 93.6461 37.0815C91.9105 35.3382 87.6719 33.3366 87.6719 33.3366Z" fill="url(#paint16_linear_10784_12056)"/>
<path d="M105.268 37.0524L105.136 19.0454C105.136 19.0454 99.172 27.0051 99.8283 32.9057C102.919 35.9978 105.268 37.0524 105.268 37.0524Z" fill="url(#paint17_linear_10784_12056)"/>
<path d="M105.135 19.0454C105.135 19.0454 110.841 26.3988 110.919 32.7049L116.765 37.056C116.768 37.0524 119.232 25.1828 105.135 19.0454Z" fill="url(#paint18_linear_10784_12056)"/>
<path d="M105.537 19.1099C105.537 19.1099 121.089 24.1031 122.653 33.207L128.677 36.3242C128.677 36.3242 126.239 19.3825 105.537 19.1099Z" fill="url(#paint19_linear_10784_12056)"/>
<path d="M101.506 58.8293C101.506 58.8293 97.3932 53.0793 99.534 53.5313C101.675 53.9832 101.901 55.167 104.325 53.8685C106.749 52.5735 107.312 51.3862 107.764 53.1367C108.216 54.8836 107.764 55.5041 109.625 55.167C111.486 54.8298 111.88 55.3356 108.947 58.2662C105.788 58.2662 101.506 58.8293 101.506 58.8293Z" fill="url(#paint20_linear_10784_12056)"/>
<path d="M101.205 59.2886C101.205 59.2886 88.5071 70.3151 92.2616 79.4119C92.2616 79.4119 94.216 85.187 104.813 85.187C115.409 85.187 116.159 81.2951 117.288 79.2648C118.188 76.3342 120.781 72.5427 108.947 59.2886H101.205Z" fill="url(#paint21_linear_10784_12056)"/>
<path d="M109.625 58.84C109.625 59.1342 109.384 59.3745 109.09 59.3745H101.087C100.793 59.3745 100.552 59.1342 100.552 58.84V58.7575C100.552 58.4634 100.793 58.2231 101.087 58.2231H109.09C109.384 58.2231 109.625 58.4634 109.625 58.7575V58.84Z" fill="#20446C"/>
<path d="M40.2438 69.7585C40.2438 69.7585 39.3469 68.0133 40.1896 67.4907C41.0324 66.9682 41.7026 67.7471 42.0427 68.1365C42.3778 68.526 41.2443 70.0493 40.9437 70.1775C40.643 70.2958 40.2438 69.7585 40.2438 69.7585Z" fill="url(#paint22_linear_10784_12056)"/>
<path d="M41.1604 69.4527C41.1604 69.4527 38.2329 77.1581 43.3289 80.1851C44.0484 80.614 44.2505 81.5655 43.7922 82.2655C43.6936 82.4183 43.5802 82.5712 43.457 82.719C42.8656 83.429 41.7863 83.429 41.185 82.7289C39.5488 80.8161 36.7889 76.2264 40.3176 69.6992L41.1604 69.4527Z" fill="url(#paint23_linear_10784_12056)"/>
<path d="M46.158 101.024L42.3878 99.9688L41.4415 105.387C41.4415 105.387 39.9088 105.411 38.6422 106.195C37.3756 106.984 32.9154 111.11 32.9154 111.11L32.1367 110.933L31.836 111.125L31.4023 114.443L32.6492 112.678C32.8464 112.397 33.3934 111.968 33.3786 111.939C35.7886 110.8 41.5844 107.487 43.1221 106.604C43.3685 106.461 43.5706 106.249 43.6987 105.993L46.158 101.024Z" fill="url(#paint24_linear_10784_12056)"/>
<path d="M45.9166 116.884C45.887 116.884 45.8525 116.884 45.8229 116.884C45.9609 115.138 46.6016 107.467 47.2374 104.593C47.9619 101.34 46.1531 94.8321 46.1531 94.8321L42.9004 98.0859L44.7091 104.229C43.4721 106.087 44.9112 116.967 44.8816 116.962V116.987L44.4085 117.638L44.4676 117.988L47.3458 119.689L46.2123 117.85C46.0349 117.554 45.9363 117.224 45.9166 116.884Z" fill="url(#paint25_linear_10784_12056)"/>
<mask id="path-45-inside-1_10784_12056" fill="white">
<path d="M47.5379 119.954H46.6213C46.4488 119.954 46.2861 119.876 46.1826 119.737C45.8968 119.363 45.3004 118.638 45.0195 118.618C44.6351 118.594 44.6844 119.949 44.6844 119.949H44.4725L44.2014 118.263C44.1324 117.839 44.3443 117.416 44.7238 117.218C44.7238 117.218 44.8125 117.864 45.2857 118.15C45.7588 118.436 47.2127 119.461 47.2127 119.461C47.2127 119.461 47.3901 119.437 47.5872 119.471C47.8731 119.525 47.8337 119.954 47.5379 119.954Z"/>
</mask>
<path d="M47.5379 119.954H46.6213C46.4488 119.954 46.2861 119.876 46.1826 119.737C45.8968 119.363 45.3004 118.638 45.0195 118.618C44.6351 118.594 44.6844 119.949 44.6844 119.949H44.4725L44.2014 118.263C44.1324 117.839 44.3443 117.416 44.7238 117.218C44.7238 117.218 44.8125 117.864 45.2857 118.15C45.7588 118.436 47.2127 119.461 47.2127 119.461C47.2127 119.461 47.3901 119.437 47.5872 119.471C47.8731 119.525 47.8337 119.954 47.5379 119.954Z" fill="url(#paint26_linear_10784_12056)"/>
<path d="M46.1826 119.737L46.9827 119.138L46.9777 119.131L46.1826 119.737ZM45.0195 118.618L45.0895 117.621L45.0835 117.62L45.0195 118.618ZM44.6844 119.949V120.949H45.7214L45.6837 119.913L44.6844 119.949ZM44.4725 119.949L43.4851 120.108L43.6204 120.949H44.4725V119.949ZM44.2014 118.263L45.1887 118.105L45.1884 118.103L44.2014 118.263ZM44.7238 117.218L45.7145 117.082L45.5215 115.677L44.2627 116.331L44.7238 117.218ZM47.2127 119.461L46.6363 120.279L46.9591 120.506L47.3503 120.452L47.2127 119.461ZM47.5872 119.471L47.7736 118.489L47.7666 118.487L47.7597 118.486L47.5872 119.471ZM47.5379 118.954H46.6213V120.954H47.5379V118.954ZM46.6213 118.954C46.7537 118.954 46.8915 119.016 46.9827 119.138L45.3826 120.337C45.6807 120.735 46.1438 120.954 46.6213 120.954V118.954ZM46.9777 119.131C46.8247 118.93 46.5789 118.623 46.3227 118.354C46.1963 118.222 46.0462 118.077 45.888 117.955C45.7787 117.871 45.4814 117.648 45.0895 117.621L44.9495 119.616C44.7972 119.605 44.7004 119.556 44.6821 119.547C44.6552 119.533 44.6507 119.527 44.6712 119.543C44.7127 119.574 44.7822 119.637 44.8758 119.735C45.0594 119.928 45.2547 120.17 45.3876 120.344L46.9777 119.131ZM45.0835 117.62C44.7014 117.596 44.3939 117.759 44.1951 117.954C44.0201 118.125 43.9267 118.319 43.8765 118.445C43.7749 118.699 43.7339 118.976 43.7134 119.169C43.691 119.38 43.6843 119.583 43.6828 119.727C43.6819 119.801 43.6824 119.863 43.6832 119.907C43.6835 119.93 43.6839 119.948 43.6843 119.961C43.6845 119.968 43.6846 119.973 43.6848 119.977C43.6848 119.979 43.6849 119.981 43.6849 119.983C43.685 119.983 43.685 119.984 43.685 119.984C43.685 119.985 43.685 119.985 43.685 119.985C43.685 119.985 43.685 119.985 43.685 119.985C43.685 119.986 43.6851 119.986 44.6844 119.949C45.6837 119.913 45.6837 119.913 45.6837 119.913C45.6837 119.913 45.6837 119.914 45.6837 119.914C45.6838 119.914 45.6838 119.914 45.6838 119.914C45.6838 119.914 45.6838 119.914 45.6838 119.914C45.6838 119.914 45.6838 119.914 45.6838 119.914C45.6837 119.913 45.6837 119.911 45.6836 119.907C45.6834 119.901 45.6831 119.89 45.6829 119.875C45.6824 119.846 45.6821 119.802 45.6826 119.749C45.6838 119.64 45.6889 119.505 45.7022 119.38C45.7088 119.318 45.7165 119.267 45.7246 119.228C45.7332 119.185 45.7384 119.175 45.7335 119.187C45.7327 119.189 45.6985 119.281 45.5944 119.383C45.5371 119.439 45.4515 119.505 45.3343 119.553C45.2132 119.603 45.083 119.625 44.9555 119.616L45.0835 117.62ZM44.6844 118.949H44.4725V120.949H44.6844V118.949ZM45.4598 119.791L45.1887 118.105L43.2141 118.422L43.4851 120.108L45.4598 119.791ZM45.1884 118.103C45.1887 118.105 45.188 118.105 45.1889 118.103C45.1898 118.101 45.1892 118.103 45.1849 118.106L44.2627 116.331C43.4977 116.728 43.0764 117.576 43.2144 118.424L45.1884 118.103ZM44.7238 117.218C43.7331 117.354 43.7332 117.355 43.7332 117.355C43.7332 117.355 43.7333 117.355 43.7333 117.356C43.7334 117.356 43.7334 117.357 43.7335 117.357C43.7336 117.358 43.7338 117.359 43.7339 117.36C43.7342 117.362 43.7345 117.364 43.7349 117.367C43.7356 117.371 43.7364 117.377 43.7374 117.383C43.7394 117.395 43.7419 117.41 43.745 117.427C43.7514 117.462 43.7604 117.506 43.773 117.559C43.7979 117.662 43.8384 117.802 43.9028 117.958C44.0241 118.252 44.2736 118.707 44.7684 119.006L45.8029 117.294C45.8246 117.307 45.7931 117.296 45.7518 117.196C45.7349 117.155 45.7236 117.116 45.7171 117.089C45.714 117.076 45.7124 117.068 45.7121 117.066C45.7119 117.065 45.712 117.066 45.7125 117.068C45.7127 117.07 45.7129 117.071 45.7133 117.074C45.7135 117.075 45.7137 117.076 45.7139 117.078C45.714 117.078 45.7141 117.079 45.7142 117.08C45.7142 117.08 45.7143 117.081 45.7143 117.081C45.7144 117.081 45.7144 117.081 45.7144 117.082C45.7145 117.082 45.7145 117.082 44.7238 117.218ZM44.7684 119.006C44.9732 119.13 45.4273 119.438 45.858 119.736C46.0672 119.88 46.262 120.016 46.4046 120.116C46.4758 120.166 46.534 120.207 46.5742 120.235C46.5943 120.249 46.6099 120.26 46.6205 120.267C46.6257 120.271 46.6297 120.274 46.6324 120.276C46.6337 120.277 46.6347 120.277 46.6354 120.278C46.6357 120.278 46.636 120.278 46.6361 120.278C46.6362 120.279 46.6362 120.279 46.6363 120.279C46.6363 120.279 46.6363 120.279 46.6363 120.279C46.6363 120.279 46.6363 120.279 47.2127 119.461C47.789 118.644 47.789 118.644 47.789 118.644C47.789 118.644 47.789 118.644 47.7889 118.644C47.7889 118.644 47.7888 118.644 47.7887 118.644C47.7885 118.644 47.7882 118.644 47.7878 118.643C47.7871 118.643 47.786 118.642 47.7846 118.641C47.7817 118.639 47.7775 118.636 47.772 118.632C47.761 118.624 47.745 118.613 47.7244 118.599C47.6832 118.57 47.6241 118.528 47.5516 118.478C47.4068 118.376 47.2086 118.238 46.9952 118.09C46.5807 117.804 46.0712 117.456 45.8029 117.294L44.7684 119.006ZM47.2127 119.461C47.3503 120.452 47.3501 120.452 47.35 120.452C47.3499 120.452 47.3497 120.452 47.3496 120.452C47.3494 120.452 47.3492 120.452 47.349 120.452C47.3486 120.452 47.3482 120.452 47.3478 120.452C47.3469 120.452 47.3462 120.452 47.3454 120.453C47.3439 120.453 47.3426 120.453 47.3414 120.453C47.339 120.453 47.3371 120.454 47.3358 120.454C47.333 120.454 47.3322 120.454 47.333 120.454C47.3348 120.454 47.342 120.453 47.3528 120.453C47.3782 120.452 47.4014 120.454 47.4148 120.456L47.7597 118.486C47.5759 118.454 47.4118 118.451 47.2992 118.454C47.241 118.455 47.1916 118.459 47.154 118.462C47.135 118.464 47.1188 118.466 47.1056 118.467C47.099 118.468 47.0931 118.469 47.088 118.469C47.0855 118.47 47.0831 118.47 47.0809 118.47C47.0799 118.47 47.0788 118.47 47.0779 118.471C47.0774 118.471 47.0769 118.471 47.0764 118.471C47.0762 118.471 47.076 118.471 47.0757 118.471C47.0756 118.471 47.0754 118.471 47.0754 118.471C47.0752 118.471 47.0751 118.471 47.2127 119.461ZM47.4008 120.454C47.2127 120.418 47.0292 120.304 46.9096 120.124C46.8003 119.96 46.771 119.784 46.7854 119.636C46.7997 119.489 46.8627 119.321 47.0014 119.182C47.1529 119.029 47.3523 118.954 47.5379 118.954V120.954C48.2906 120.954 48.7243 120.362 48.776 119.83C48.8272 119.303 48.5198 118.63 47.7736 118.489L47.4008 120.454Z" fill="url(#paint27_linear_10784_12056)" mask="url(#path-45-inside-1_10784_12056)"/>
<mask id="path-47-inside-2_10784_12056" fill="white">
<path d="M31.2299 114.714L30.8701 113.866C30.8011 113.708 30.811 113.526 30.8947 113.378C31.1264 112.969 31.5601 112.136 31.4664 111.87C31.3383 111.51 30.1111 112.086 30.1111 112.086L30.0273 111.889L31.4763 110.977C31.841 110.746 32.3092 110.775 32.6443 111.051C32.6443 111.051 32.0825 111.386 32.0086 111.934C31.9297 112.481 31.5601 114.221 31.5601 114.221C31.5601 114.221 31.6537 114.374 31.6981 114.571C31.7572 114.852 31.3482 114.985 31.2299 114.714Z"/>
</mask>
<path d="M31.2299 114.714L30.8701 113.866C30.8011 113.708 30.811 113.526 30.8947 113.378C31.1264 112.969 31.5601 112.136 31.4664 111.87C31.3383 111.51 30.1111 112.086 30.1111 112.086L30.0273 111.889L31.4763 110.977C31.841 110.746 32.3092 110.775 32.6443 111.051C32.6443 111.051 32.0825 111.386 32.0086 111.934C31.9297 112.481 31.5601 114.221 31.5601 114.221C31.5601 114.221 31.6537 114.374 31.6981 114.571C31.7572 114.852 31.3482 114.985 31.2299 114.714Z" fill="url(#paint28_linear_10784_12056)"/>
<path d="M31.2299 114.714L30.3093 115.105L30.3133 115.114L31.2299 114.714ZM30.8701 113.866L31.7907 113.476L31.7863 113.465L30.8701 113.866ZM30.8947 113.378L31.7648 113.871L31.765 113.871L30.8947 113.378ZM31.4664 111.87L32.4098 111.538L32.4085 111.534L31.4664 111.87ZM30.1111 112.086L29.1908 112.478L29.5968 113.433L30.5365 112.992L30.1111 112.086ZM30.0273 111.889L29.4946 111.043L28.774 111.497L29.107 112.28L30.0273 111.889ZM31.4763 110.977L32.009 111.824L32.0126 111.821L31.4763 110.977ZM32.6443 111.051L33.1567 111.91L34.3762 111.182L33.2802 110.279L32.6443 111.051ZM32.0086 111.934L32.9984 112.076L32.9996 112.068L32.0086 111.934ZM31.5601 114.221L30.5819 114.013L30.499 114.403L30.7074 114.744L31.5601 114.221ZM31.6981 114.571L32.6767 114.365L32.6737 114.352L31.6981 114.571ZM32.1504 114.324L31.7907 113.476L29.9495 114.257L30.3093 115.105L32.1504 114.324ZM31.7863 113.465C31.8434 113.596 31.8364 113.745 31.7648 113.871L30.0247 112.885C29.7856 113.307 29.7588 113.821 29.9539 114.267L31.7863 113.465ZM31.765 113.871C31.8885 113.653 32.075 113.306 32.2215 112.965C32.2937 112.796 32.3687 112.601 32.4182 112.407C32.4523 112.274 32.5409 111.911 32.4098 111.538L30.5231 112.201C30.4721 112.056 30.4791 111.947 30.4806 111.926C30.4827 111.895 30.4866 111.888 30.4802 111.913C30.4674 111.963 30.4371 112.051 30.3837 112.176C30.2788 112.42 30.1327 112.694 30.0245 112.885L31.765 113.871ZM32.4085 111.534C32.2793 111.171 32.0052 110.954 31.7488 110.849C31.523 110.757 31.3091 110.748 31.1746 110.752C30.9024 110.759 30.632 110.83 30.447 110.887C30.2447 110.949 30.0557 111.023 29.9224 111.078C29.8544 111.106 29.7976 111.131 29.757 111.149C29.7366 111.158 29.7201 111.166 29.7081 111.171C29.702 111.174 29.6971 111.176 29.6934 111.178C29.6915 111.179 29.6899 111.18 29.6887 111.18C29.688 111.18 29.6875 111.181 29.687 111.181C29.6867 111.181 29.6865 111.181 29.6863 111.181C29.6862 111.181 29.6861 111.181 29.686 111.181C29.6859 111.181 29.6858 111.181 30.1111 112.086C30.5365 112.992 30.5364 112.992 30.5363 112.992C30.5362 112.992 30.5361 112.992 30.5361 112.992C30.5359 112.992 30.5358 112.992 30.5357 112.992C30.5355 112.992 30.5354 112.992 30.5354 112.992C30.5353 112.992 30.5355 112.992 30.5359 112.992C30.5368 112.991 30.5388 112.99 30.5418 112.989C30.5478 112.986 30.5578 112.982 30.5712 112.976C30.5982 112.964 30.6383 112.946 30.6873 112.926C30.7882 112.884 30.914 112.836 31.0345 112.799C31.0943 112.781 31.1448 112.767 31.1845 112.759C31.2274 112.75 31.2393 112.751 31.2267 112.751C31.2252 112.751 31.1282 112.756 30.9941 112.702C30.9201 112.671 30.8253 112.619 30.7339 112.531C30.6394 112.439 30.5677 112.327 30.5244 112.205L32.4085 111.534ZM31.0315 111.695L30.9477 111.498L29.107 112.28L29.1908 112.478L31.0315 111.695ZM30.56 112.736L32.009 111.824L30.9436 110.131L29.4946 111.043L30.56 112.736ZM32.0126 111.821C32.0135 111.821 32.0131 111.821 32.0116 111.821C32.0104 111.822 32.0092 111.822 32.0083 111.822C32.0073 111.822 32.0066 111.822 32.0063 111.821C32.0057 111.821 32.0065 111.821 32.0085 111.823L33.2802 110.279C32.6132 109.73 31.6722 109.668 30.9401 110.133L32.0126 111.821ZM32.6443 111.051C32.1319 110.192 32.1317 110.193 32.1314 110.193C32.1313 110.193 32.131 110.193 32.1308 110.193C32.1304 110.193 32.13 110.194 32.1296 110.194C32.1288 110.194 32.1279 110.195 32.1271 110.195C32.1253 110.196 32.1234 110.198 32.1213 110.199C32.1171 110.201 32.1124 110.204 32.1072 110.208C32.0966 110.214 32.0839 110.222 32.0692 110.232C32.0399 110.251 32.0024 110.277 31.9591 110.309C31.8738 110.373 31.7601 110.465 31.6412 110.586C31.4177 110.813 31.0954 111.223 31.0176 111.8L32.9996 112.068C32.9956 112.097 32.9912 112.066 33.0671 111.988C33.098 111.957 33.1293 111.932 33.1516 111.915C33.1622 111.907 33.1692 111.902 33.1709 111.901C33.1717 111.901 33.1711 111.901 33.1689 111.903C33.1677 111.903 33.1662 111.904 33.1642 111.905C33.1632 111.906 33.162 111.907 33.1608 111.908C33.1602 111.908 33.1595 111.908 33.1589 111.909C33.1585 111.909 33.1582 111.909 33.1578 111.909C33.1576 111.909 33.1574 111.91 33.1573 111.91C33.157 111.91 33.1567 111.91 32.6443 111.051ZM31.0188 111.791C30.9843 112.03 30.8789 112.571 30.7748 113.084C30.7241 113.333 30.6759 113.566 30.6402 113.736C30.6224 113.821 30.6078 113.891 30.5976 113.939C30.5926 113.963 30.5886 113.982 30.5859 113.994C30.5846 114.001 30.5836 114.005 30.5829 114.009C30.5826 114.01 30.5823 114.011 30.5821 114.012C30.5821 114.013 30.582 114.013 30.582 114.013C30.5819 114.013 30.5819 114.013 30.5819 114.013C30.5819 114.013 30.5819 114.013 30.5819 114.013C30.5819 114.013 30.5819 114.013 31.5601 114.221C32.5383 114.429 32.5383 114.429 32.5383 114.429C32.5383 114.429 32.5383 114.429 32.5383 114.429C32.5383 114.429 32.5383 114.429 32.5383 114.428C32.5384 114.428 32.5385 114.428 32.5386 114.427C32.5388 114.427 32.539 114.425 32.5394 114.424C32.5401 114.42 32.5412 114.415 32.5426 114.409C32.5453 114.395 32.5494 114.376 32.5546 114.352C32.565 114.302 32.5798 114.232 32.5979 114.145C32.6341 113.972 32.6831 113.736 32.7347 113.482C32.8352 112.987 32.954 112.384 32.9983 112.076L31.0188 111.791ZM31.5601 114.221C30.7074 114.744 30.7073 114.743 30.7072 114.743C30.7072 114.743 30.7071 114.743 30.707 114.743C30.7069 114.743 30.7068 114.743 30.7067 114.742C30.7064 114.742 30.7062 114.742 30.706 114.741C30.7055 114.74 30.7051 114.74 30.7047 114.739C30.7038 114.738 30.7031 114.736 30.7024 114.735C30.701 114.733 30.7 114.731 30.6992 114.73C30.6975 114.727 30.6969 114.726 30.697 114.726C30.6974 114.727 30.7002 114.732 30.7042 114.741C30.7137 114.761 30.7202 114.78 30.7225 114.791L32.6737 114.352C32.6317 114.165 32.5691 114.009 32.5207 113.904C32.4957 113.85 32.4724 113.804 32.4538 113.77C32.4445 113.753 32.4362 113.738 32.4292 113.726C32.4258 113.72 32.4226 113.715 32.4199 113.71C32.4185 113.708 32.4172 113.706 32.416 113.704C32.4154 113.703 32.4149 113.702 32.4143 113.701C32.4141 113.701 32.4138 113.7 32.4135 113.7C32.4134 113.7 32.4133 113.7 32.4131 113.699C32.4131 113.699 32.413 113.699 32.413 113.699C32.4129 113.699 32.4128 113.699 31.5601 114.221ZM30.7195 114.777C30.6792 114.586 30.7165 114.372 30.8348 114.195C30.9427 114.033 31.0916 113.939 31.2303 113.896C31.3696 113.852 31.546 113.844 31.7273 113.915C31.9252 113.993 32.0724 114.145 32.1465 114.314L30.3133 115.114C30.6134 115.802 31.326 115.962 31.8307 115.804C32.326 115.648 32.8335 115.11 32.6766 114.365L30.7195 114.777Z" fill="url(#paint29_linear_10784_12056)" mask="url(#path-47-inside-2_10784_12056)"/>
<path d="M46.9859 89.335C46.9859 89.335 46.8775 89.9858 47.0352 91.7753C47.1929 93.5649 47.9371 97.7701 47.7843 101.793C47.7843 101.793 45.6701 102.286 41.9935 102.054C41.9935 102.054 40.441 95.7735 40.8205 93.3825C41.2 90.9964 43.2502 89.2808 43.2502 89.2808L46.9859 89.335Z" fill="#20446C"/>
<path d="M45.4188 77.3654L45.68 80.4071H43.2207L43.8318 75.7632L45.4188 77.3654Z" fill="url(#paint30_linear_10784_12056)"/>
<path d="M42.4962 79.988C43.3439 79.9436 45.2414 79.8549 46.5819 79.9289C47.2867 79.9683 47.883 80.4761 48.0259 81.1663L48.3512 82.7389C48.4744 83.3255 48.4547 83.927 48.297 84.5038L46.9811 89.3351C46.9811 89.3351 45.8131 90.04 43.2404 89.2858C43.2404 89.2858 40.9832 83.9023 41.9098 80.4613C41.9837 80.1951 42.2203 80.0028 42.4962 79.988Z" fill="url(#paint31_linear_10784_12056)"/>
<path d="M46.4589 73.8553C46.5476 73.9046 47.2376 76.3449 46.661 77.3703C46.0794 78.3908 44.315 77.247 43.8321 75.7681C43.354 74.2891 44.1228 72.4749 46.4589 73.8553Z" fill="url(#paint32_linear_10784_12056)"/>
<path d="M41.8751 75.7628C41.4809 77.7051 40.165 77.1727 39.2335 78.0404C37.7254 79.4405 35.5668 77.996 33.4672 79.3271C31.9542 80.2884 31.2199 82.7386 31.9493 84.7204C32.9547 87.4663 36.3997 88.5953 38.1788 87.7572C39.884 86.9586 39.6426 84.5676 41.9343 83.6407C42.9101 83.2463 43.3881 83.5027 43.9697 82.921C44.9899 81.9005 44.7139 79.9285 44.6104 79.1644C44.3788 77.5129 43.8268 77.2122 44.0929 76.4875C44.6055 75.0775 47.0105 75.3684 47.2077 74.3676C47.39 73.4605 45.6503 71.74 44.0141 72.0111C41.4809 72.4351 42.0525 74.9 41.8751 75.7628Z" fill="#434B53"/>
<path opacity="0.6" d="M32.7086 84.2574C32.679 84.2574 32.6494 84.2377 32.6445 84.2081C32.3192 82.8622 32.4671 81.7579 33.0831 80.9248C34.1033 79.5444 36.0845 79.4064 36.1042 79.4064C36.1338 79.4014 36.1732 79.431 36.1732 79.4705C36.1732 79.505 36.1486 79.5395 36.1092 79.5395C36.0894 79.5395 34.1674 79.6726 33.1817 81.0037C32.5903 81.8023 32.4523 82.8721 32.7677 84.1785C32.7776 84.213 32.7529 84.2525 32.7184 84.2574C32.7184 84.2574 32.7135 84.2574 32.7086 84.2574Z" fill="white"/>
<path opacity="0.72" d="M39.2037 85.4896C39.1988 85.4896 39.1988 85.4896 39.1939 85.4896C39.1742 85.4847 39.1643 85.465 39.1692 85.4502C39.4846 84.2374 40.0416 83.3944 40.8153 82.9458C41.3821 82.6204 41.9094 82.5909 42.3776 82.5613C42.8261 82.5366 43.2155 82.512 43.5309 82.2359C44.1765 81.6591 44.142 80.2738 43.4175 78.1194C43.4126 78.0997 43.4225 78.0849 43.4372 78.0751C43.4569 78.0701 43.4717 78.08 43.4816 78.0948C44.211 80.2787 44.2455 81.6838 43.5752 82.2803C43.245 82.5761 42.8458 82.5958 42.3826 82.6254C41.9242 82.65 41.4018 82.6796 40.8498 83C40.0908 83.4388 39.5438 84.267 39.2333 85.465C39.2284 85.4798 39.2185 85.4896 39.2037 85.4896Z" fill="white"/>
<path opacity="0.72" d="M42.8165 75.2846C42.8116 75.2846 42.8116 75.2846 42.8066 75.2846C42.7869 75.2797 42.782 75.2599 42.7869 75.2402C43.0383 74.4909 43.7628 74.6043 44.5267 74.7226C45.0096 74.7965 45.5123 74.8754 45.9411 74.7472C46.2565 74.6536 46.4487 74.5057 46.503 74.3134C46.5966 73.9831 46.2713 73.6133 46.2664 73.6133C46.2516 73.5986 46.2565 73.5788 46.2664 73.569C46.2812 73.5591 46.3009 73.5591 46.3107 73.569C46.3255 73.5838 46.6656 73.9683 46.5621 74.3331C46.503 74.55 46.296 74.7127 45.9559 74.8113C45.5173 74.9395 45.0047 74.8656 44.5119 74.7867C43.743 74.6684 43.0777 74.5648 42.8411 75.2599C42.8411 75.2747 42.8313 75.2846 42.8165 75.2846Z" fill="white"/>
<path d="M52.4025 70.7743C52.4025 70.7743 53.7036 69.3052 53.0185 68.5903C52.3335 67.8755 51.4858 68.4622 51.0619 68.753C50.6381 69.0488 51.3576 70.8039 51.6188 71.0011C51.88 71.1983 52.4025 70.7743 52.4025 70.7743Z" fill="url(#paint33_linear_10784_12056)"/>
<path d="M51.5894 70.2515C51.5894 70.2515 52.5159 78.4401 46.8236 80.1113C46.0202 80.3479 45.5865 81.2205 45.8576 82.0142C45.9168 82.1868 45.9858 82.3593 46.0695 82.5368C46.4638 83.37 47.5136 83.6411 48.2676 83.1136C50.3277 81.6642 54.1423 77.9076 52.3434 70.71L51.5894 70.2515Z" fill="url(#paint34_linear_10784_12056)"/>
<path d="M55.714 101.832C55.714 101.832 55.1472 100.994 54.5312 100.215C54.2897 99.9096 53.8659 99.8455 53.5997 100.072C52.7028 100.836 50.7856 102.473 50.1597 103.124C50.066 103.222 50.1055 103.395 50.2385 103.464C50.3519 103.523 50.4751 103.538 50.5885 103.503L55.0881 102.232L55.714 101.832Z" fill="url(#paint35_linear_10784_12056)"/>
<path d="M56.1972 102.182L55.2756 101.403C55.2756 101.403 54.418 101.684 54.3047 102.374L55.4579 103.119L56.1972 102.182Z" fill="url(#paint36_linear_10784_12056)"/>
<path d="M76.5663 81.4126C78.0005 78.1934 79.3558 73.3818 77.7787 68.5751L76.8669 67.6631C76.8669 67.6631 76.8669 75.196 74.9941 78.9328C75.5166 79.7611 76.039 80.5893 76.5663 81.4126Z" fill="url(#paint37_linear_10784_12056)"/>
<path d="M76.6454 66.2236L76.3004 66.7412C76.2068 66.8842 76.1822 67.0617 76.2364 67.2244C76.3744 67.6483 76.6947 68.4815 77.1383 68.9301C77.7543 69.5463 78.3655 68.0674 78.4887 67.5793C78.6119 67.0863 77.7494 65.8588 77.5079 65.6123C77.2615 65.3609 76.2758 65.4841 76.6454 66.2236Z" fill="url(#paint38_linear_10784_12056)"/>
<path d="M71.9387 116.888C71.9387 116.888 71.7613 117.889 71.6775 118.88C71.643 119.264 71.9436 119.605 72.3281 119.619C73.6439 119.674 76.463 119.782 77.4733 119.738C77.6261 119.733 77.7247 119.575 77.6704 119.432C77.6212 119.314 77.5325 119.22 77.4142 119.166L72.7568 117.026L71.9387 116.888Z" fill="url(#paint39_linear_10784_12056)"/>
<path d="M71.7954 116.302L71.9383 117.499C71.9383 117.499 72.7515 117.879 73.3084 117.45L72.9684 116.119L71.7954 116.302Z" fill="url(#paint40_linear_10784_12056)"/>
<path d="M71.8989 93.8162C71.8398 94.1268 71.5687 109.4 73.2 116.242C73.2247 116.356 73.1705 116.469 73.062 116.513C72.8107 116.617 72.3228 116.765 71.7314 116.785C71.549 116.79 71.3864 116.671 71.3322 116.499C70.864 114.911 67.6605 105.722 67.3697 98.125C67.0445 89.6308 68.5328 93.8212 68.5328 93.8212L71.8989 93.8162Z" fill="#434B53"/>
<path d="M64.8515 94.0923C63.4814 97.5432 63.0329 98.0855 62.4267 102.024C61.6924 106.752 58.1193 103.489 56.212 101.951C55.9705 101.758 55.2558 102.453 55.1819 103.429C55.0932 104.701 62.8013 110.745 64.8909 106.476C66.2216 103.745 66.5912 100.674 67.4783 98.9728C67.5868 98.7609 67.7691 98.5933 67.9909 98.4996L70.7114 97.3312L71.4802 94.6592L64.8515 94.0923Z" fill="#434B53"/>
<path d="M63.3581 81.8315C61.9239 78.6122 60.5686 73.8007 62.1457 68.994L63.0574 68.082C63.0574 68.082 63.0574 75.6149 64.9302 79.3517C64.4128 80.175 63.8903 81.0032 63.3581 81.8315Z" fill="url(#paint41_linear_10784_12056)"/>
<path d="M71.904 80.6778H67.3994C66.946 80.6778 66.5123 80.5053 66.187 80.1947C65.7681 79.7954 65.226 79.12 64.8465 78.0502C64.7874 77.8875 64.6149 77.7988 64.4522 77.8481C63.8707 78.0206 62.6041 78.5136 61.9387 79.6573C61.8747 79.7658 61.8796 79.8989 61.9437 80.0024L64.7529 84.3506L64.4769 95.078C64.4769 95.078 71.5344 96.1872 72.5053 95.078L73.4761 85.2478C73.4761 85.2478 76.9359 83.1723 77.9068 79.8496L74.999 78.1882C74.999 78.1882 74.659 78.203 74.3731 78.9819C73.9838 80.0024 72.9981 80.6778 71.904 80.6778Z" fill="url(#paint42_linear_10784_12056)"/>
<path d="M68.045 77.3994L67.9415 80.875C67.9366 81.0968 68.0746 81.299 68.2865 81.368C68.7202 81.5109 69.5038 81.6884 70.3811 81.5011C70.6423 81.4468 70.8099 81.1856 70.7655 80.9243L70.2875 78.1833L68.045 77.3994Z" fill="url(#paint43_linear_10784_12056)"/>
<path d="M70.4305 74.2148C70.4601 74.2542 71.5148 77.1136 71.9731 78.3756C72.0914 78.6961 71.914 79.0461 71.5936 79.1496L70.5784 79.337C69.9032 79.4602 69.2378 79.1003 68.9668 78.4693L67.7445 77.0446C67.0792 76.2706 67.3059 75.0726 68.2177 74.6043C69.1097 74.1458 70.0904 73.7908 70.4305 74.2148Z" fill="url(#paint44_linear_10784_12056)"/>
<path d="M68.4048 77.36L68.6956 77.2121C68.6956 77.2121 67.5325 75.319 68.8435 75.176C70.1544 75.0281 71.3175 74.7373 71.3175 74.0126C71.3175 73.2829 71.3175 71.9765 69.7158 72.5582C68.1141 73.14 68.2619 74.1605 67.3896 74.3034C66.5173 74.4513 65.7879 74.5943 66.0786 75.4669C66.3694 76.3395 66.951 76.9212 66.6602 77.2121C66.3694 77.5079 67.6804 78.9622 68.4048 77.36Z" fill="url(#paint45_linear_10784_12056)"/>
<path d="M68.7153 77.9269C68.7153 77.9269 68.4738 76.6501 67.9316 76.6156C67.3895 76.586 66.8967 77.0543 67.4733 77.7495C68.1929 78.6122 68.7153 77.9269 68.7153 77.9269Z" fill="url(#paint46_linear_10784_12056)"/>
<path d="M63.2844 66.6375L63.6294 67.1551C63.723 67.2981 63.7477 67.4755 63.6934 67.6382C63.5554 68.0622 63.2351 68.8953 62.7915 69.3439C62.1755 69.9602 61.5644 68.4812 61.4412 67.9932C61.318 67.5002 62.1804 66.2726 62.4219 66.0261C62.6683 65.7797 63.6491 65.9029 63.2844 66.6375Z" fill="url(#paint47_linear_10784_12056)"/>
<path d="M70.5682 74.2595C70.5485 74.2595 70.5337 74.2447 70.5288 74.225C70.5239 74.2004 70.5386 74.1806 70.5584 74.1757C70.5633 74.1757 70.7259 74.1363 70.8146 73.9637C70.9231 73.7616 70.8886 73.4461 70.7259 73.0566C70.7161 73.0369 70.7259 73.0123 70.7456 73.0024C70.7653 72.9925 70.79 73.0024 70.7998 73.0221C70.9773 73.4412 71.0068 73.7715 70.8836 73.9982C70.7752 74.2102 70.5781 74.2497 70.5682 74.2497C70.5731 74.2595 70.5731 74.2595 70.5682 74.2595Z" fill="white"/>
<path d="M107.801 70.5771H107.159C107.071 70.1126 106.878 69.6931 106.62 69.3286H107.801C108.122 69.3286 108.383 69.0489 108.383 68.7043C108.383 68.3597 108.122 68.0801 107.801 68.0801H104.305H101.974C101.652 68.0801 101.391 68.3597 101.391 68.7043C101.391 69.0489 101.652 69.3286 101.974 69.3286H104.305C105.063 69.3286 105.704 69.8517 105.945 70.5771H101.974C101.652 70.5771 101.391 70.8567 101.391 71.2013C101.391 71.5459 101.652 71.8255 101.974 71.8255H105.945C105.704 72.5509 105.063 73.074 104.305 73.074H101.974C101.898 73.074 101.823 73.0903 101.751 73.1215C101.609 73.1851 101.495 73.3062 101.436 73.4598C101.376 73.6121 101.376 73.7844 101.436 73.9367C101.465 74.0141 101.508 74.0828 101.563 74.1402L106.223 79.1329C106.337 79.2553 106.486 79.3165 106.635 79.3165C106.785 79.3165 106.934 79.2553 107.048 79.1342C107.275 78.8907 107.275 78.495 107.048 78.2515L103.381 74.3225H104.305C105.712 74.3225 106.888 73.2488 107.159 71.8255H107.801C108.122 71.8255 108.383 71.5459 108.383 71.2013C108.383 70.8567 108.122 70.5771 107.801 70.5771Z" fill="url(#paint48_linear_10784_12056)"/>
</g>
<defs>
<filter id="filter0_d_10784_12056" x="0" y="0" width="165" height="196" filterUnits="userSpaceOnUse" color-interpolation-filters="sRGB">
<feFlood flood-opacity="0" result="BackgroundImageFix"/>
<feColorMatrix in="SourceAlpha" type="matrix" values="0 0 0 0 0 0 0 0 0 0 0 0 0 0 0 0 0 0 127 0" result="hardAlpha"/>
<feOffset dy="4"/>
<feGaussianBlur stdDeviation="5"/>
<feColorMatrix type="matrix" values="0 0 0 0 0.95 0 0 0 0 0.387322 0 0 0 0 0.0316667 0 0 0 0.25 0"/>
<feBlend mode="normal" in2="BackgroundImageFix" result="effect1_dropShadow_10784_12056"/>
<feBlend mode="normal" in="SourceGraphic" in2="effect1_dropShadow_10784_12056" result="shape"/>
</filter>
<linearGradient id="paint0_linear_10784_12056" x1="18.9609" y1="131.489" x2="140.99" y2="90.3656" gradientUnits="userSpaceOnUse">
<stop offset="0.18695" stop-color="#E3EDF8"/>
<stop offset="0.925223" stop-color="#EF8B24"/>
</linearGradient>
<linearGradient id="paint1_linear_10784_12056" x1="66.7533" y1="78.5775" x2="75.8464" y2="17.3558" gradientUnits="userSpaceOnUse">
<stop stop-color="#EF8B24"/>
<stop offset="1" stop-color="#F06837"/>
</linearGradient>
<linearGradient id="paint2_linear_10784_12056" x1="123.365" y1="-24.4418" x2="102.839" y2="-24.4418" gradientUnits="userSpaceOnUse">
<stop stop-color="#E15A52"/>
<stop offset="1" stop-color="#FBEBDF"/>
</linearGradient>
<linearGradient id="paint3_linear_10784_12056" x1="93.0031" y1="49.2848" x2="156.716" y2="77.0447" gradientUnits="userSpaceOnUse">
<stop offset="0.411458" stop-color="#20446C"/>
<stop offset="1" stop-color="#E3EDF8"/>
</linearGradient>
<linearGradient id="paint4_linear_10784_12056" x1="110.533" y1="94.3196" x2="113.839" y2="80.3412" gradientUnits="userSpaceOnUse">
<stop stop-color="#EF8B24"/>
<stop offset="1" stop-color="#F06837"/>
</linearGradient>
<linearGradient id="paint5_linear_10784_12056" x1="116.56" y1="94.3197" x2="119.866" y2="80.3413" gradientUnits="userSpaceOnUse">
<stop stop-color="#EF8B24"/>
<stop offset="1" stop-color="#F06837"/>
</linearGradient>
<linearGradient id="paint6_linear_10784_12056" x1="101.527" y1="-29.3456" x2="88.74" y2="35.7334" gradientUnits="userSpaceOnUse">
<stop stop-color="#E3EDF8"/>
<stop offset="1" stop-color="#F2F2F2"/>
</linearGradient>
<linearGradient id="paint7_linear_10784_12056" x1="64.4842" y1="111.281" x2="77.8606" y2="131.873" gradientUnits="userSpaceOnUse">
<stop offset="0.411458" stop-color="#20446C"/>
<stop offset="1" stop-color="#E3EDF8"/>
</linearGradient>
<linearGradient id="paint8_linear_10784_12056" x1="64.4842" y1="113.39" x2="77.8605" y2="133.981" gradientUnits="userSpaceOnUse">
<stop offset="0.411458" stop-color="#20446C"/>
<stop offset="1" stop-color="#E3EDF8"/>
</linearGradient>
<linearGradient id="paint9_linear_10784_12056" x1="81.9498" y1="29.0563" x2="69.8777" y2="29.0563" gradientUnits="userSpaceOnUse">
<stop stop-color="#E15A52"/>
<stop offset="1" stop-color="#FBEBDF"/>
</linearGradient>
<linearGradient id="paint10_linear_10784_12056" x1="98.0002" y1="50.3628" x2="66.4957" y2="105.252" gradientUnits="userSpaceOnUse">
<stop stop-color="#A737D5"/>
<stop offset="1" stop-color="#EF497A"/>
</linearGradient>
<linearGradient id="paint11_linear_10784_12056" x1="91.1184" y1="49.2033" x2="96.1539" y2="51.9659" gradientUnits="userSpaceOnUse">
<stop offset="0.00075448" stop-color="#EF8B24"/>
<stop offset="1" stop-color="#E3EDF8"/>
</linearGradient>
<linearGradient id="paint12_linear_10784_12056" x1="106.459" y1="29.6752" x2="99.2272" y2="55.955" gradientUnits="userSpaceOnUse">
<stop stop-color="#2B3582"/>
<stop offset="1" stop-color="#150E42"/>
</linearGradient>
<linearGradient id="paint13_linear_10784_12056" x1="109.017" y1="36.2171" x2="101.25" y2="64.4399" gradientUnits="userSpaceOnUse">
<stop stop-color="#2B3582"/>
<stop offset="1" stop-color="#150E42"/>
</linearGradient>
<linearGradient id="paint14_linear_10784_12056" x1="106.122" y1="33.5945" x2="99.7725" y2="56.6666" gradientUnits="userSpaceOnUse">
<stop stop-color="#2B3582"/>
<stop offset="1" stop-color="#150E42"/>
</linearGradient>
<linearGradient id="paint15_linear_10784_12056" x1="75.6408" y1="12.7747" x2="150.296" y2="64.8438" gradientUnits="userSpaceOnUse">
<stop offset="0.411458" stop-color="#20446C"/>
<stop offset="1" stop-color="#E3EDF8"/>
</linearGradient>
<linearGradient id="paint16_linear_10784_12056" x1="95.3747" y1="28.5424" x2="96.4157" y2="13.7626" gradientUnits="userSpaceOnUse">
<stop stop-color="#EF8B24"/>
<stop offset="1" stop-color="#F06837"/>
</linearGradient>
<linearGradient id="paint17_linear_10784_12056" x1="102.269" y1="28.4671" x2="105.389" y2="14.2171" gradientUnits="userSpaceOnUse">
<stop stop-color="#EF8B24"/>
<stop offset="1" stop-color="#F06837"/>
</linearGradient>
<linearGradient id="paint18_linear_10784_12056" x1="110.487" y1="28.4689" x2="111.994" y2="13.6862" gradientUnits="userSpaceOnUse">
<stop stop-color="#EF8B24"/>
<stop offset="1" stop-color="#F06837"/>
</linearGradient>
<linearGradient id="paint19_linear_10784_12056" x1="116.035" y1="28.1168" x2="116.742" y2="13.8759" gradientUnits="userSpaceOnUse">
<stop stop-color="#EF8B24"/>
<stop offset="1" stop-color="#F06837"/>
</linearGradient>
<linearGradient id="paint20_linear_10784_12056" x1="104.437" y1="55.6955" x2="104.633" y2="50.2515" gradientUnits="userSpaceOnUse">
<stop stop-color="#EF8B24"/>
<stop offset="1" stop-color="#F06837"/>
</linearGradient>
<linearGradient id="paint21_linear_10784_12056" x1="103.634" y1="72.8392" x2="105.025" y2="51.4517" gradientUnits="userSpaceOnUse">
<stop stop-color="#EF8B24"/>
<stop offset="1" stop-color="#F06837"/>
</linearGradient>
<linearGradient id="paint22_linear_10784_12056" x1="40.7635" y1="66.2158" x2="41.3261" y2="72.0646" gradientUnits="userSpaceOnUse">
<stop stop-color="#C4421B"/>
<stop offset="1" stop-color="#5C0E16"/>
</linearGradient>
<linearGradient id="paint23_linear_10784_12056" x1="44.1966" y1="85.4351" x2="35.6315" y2="61.8903" gradientUnits="userSpaceOnUse">
<stop stop-color="#C4421B"/>
<stop offset="1" stop-color="#5C0E16"/>
</linearGradient>
<linearGradient id="paint24_linear_10784_12056" x1="28.9201" y1="110.864" x2="48.9747" y2="101.66" gradientUnits="userSpaceOnUse">
<stop stop-color="#C4421B"/>
<stop offset="1" stop-color="#5C0E16"/>
</linearGradient>
<linearGradient id="paint25_linear_10784_12056" x1="38.4749" y1="186.649" x2="65.4636" y2="-128.686" gradientUnits="userSpaceOnUse">
<stop stop-color="#C4421B"/>
<stop offset="1" stop-color="#5C0E16"/>
</linearGradient>
<linearGradient id="paint26_linear_10784_12056" x1="45.8187" y1="118.65" x2="45.9337" y2="116.387" gradientUnits="userSpaceOnUse">
<stop stop-color="#EF8B24"/>
<stop offset="1" stop-color="#F06837"/>
</linearGradient>
<linearGradient id="paint27_linear_10784_12056" x1="45.8187" y1="118.65" x2="45.9337" y2="116.387" gradientUnits="userSpaceOnUse">
<stop stop-color="#EF8B24"/>
<stop offset="1" stop-color="#F06837"/>
</linearGradient>
<linearGradient id="paint28_linear_10784_12056" x1="31.2146" y1="112.936" x2="31.5564" y2="109.62" gradientUnits="userSpaceOnUse">
<stop stop-color="#EF8B24"/>
<stop offset="1" stop-color="#F06837"/>
</linearGradient>
<linearGradient id="paint29_linear_10784_12056" x1="31.2146" y1="112.936" x2="31.5564" y2="109.62" gradientUnits="userSpaceOnUse">
<stop stop-color="#EF8B24"/>
<stop offset="1" stop-color="#F06837"/>
</linearGradient>
<linearGradient id="paint30_linear_10784_12056" x1="43.2222" y1="78.0866" x2="45.679" y2="78.0866" gradientUnits="userSpaceOnUse">
<stop stop-color="#C4421B"/>
<stop offset="1" stop-color="#5C0E16"/>
</linearGradient>
<linearGradient id="paint31_linear_10784_12056" x1="44.7463" y1="84.9934" x2="45.5171" y2="76.9953" gradientUnits="userSpaceOnUse">
<stop stop-color="#EF8B24"/>
<stop offset="1" stop-color="#F06837"/>
</linearGradient>
<linearGradient id="paint32_linear_10784_12056" x1="47.3144" y1="78.0856" x2="42.5382" y2="71.1038" gradientUnits="userSpaceOnUse">
<stop stop-color="#C4421B"/>
<stop offset="1" stop-color="#5C0E16"/>
</linearGradient>
<linearGradient id="paint33_linear_10784_12056" x1="52.7776" y1="67.2142" x2="50.7793" y2="72.7397" gradientUnits="userSpaceOnUse">
<stop stop-color="#C4421B"/>
<stop offset="1" stop-color="#5C0E16"/>
</linearGradient>
<linearGradient id="paint34_linear_10784_12056" x1="44.6793" y1="84.9781" x2="58.8244" y2="64.3005" gradientUnits="userSpaceOnUse">
<stop stop-color="#C4421B"/>
<stop offset="1" stop-color="#5C0E16"/>
</linearGradient>
<linearGradient id="paint35_linear_10784_12056" x1="52.6514" y1="101.812" x2="52.7782" y2="98.8446" gradientUnits="userSpaceOnUse">
<stop stop-color="#EF8B24"/>
<stop offset="1" stop-color="#F06837"/>
</linearGradient>
<linearGradient id="paint36_linear_10784_12056" x1="55.8011" y1="101.757" x2="54.6934" y2="102.789" gradientUnits="userSpaceOnUse">
<stop stop-color="#F9B776"/>
<stop offset="1" stop-color="#F47960"/>
</linearGradient>
<linearGradient id="paint37_linear_10784_12056" x1="77.6688" y1="67.1109" x2="75.8659" y2="85.1879" gradientUnits="userSpaceOnUse">
<stop stop-color="#F9B776"/>
<stop offset="1" stop-color="#F47960"/>
</linearGradient>
<linearGradient id="paint38_linear_10784_12056" x1="77.3726" y1="67.0814" x2="75.5696" y2="85.1583" gradientUnits="userSpaceOnUse">
<stop stop-color="#F9B776"/>
<stop offset="1" stop-color="#F47960"/>
</linearGradient>
<linearGradient id="paint39_linear_10784_12056" x1="74.4016" y1="118.385" x2="74.4768" y2="116.015" gradientUnits="userSpaceOnUse">
<stop stop-color="#EF8B24"/>
<stop offset="1" stop-color="#F06837"/>
</linearGradient>
<linearGradient id="paint40_linear_10784_12056" x1="71.7944" y1="116.885" x2="73.3087" y2="116.885" gradientUnits="userSpaceOnUse">
<stop stop-color="#F9B776"/>
<stop offset="1" stop-color="#F47960"/>
</linearGradient>
<linearGradient id="paint41_linear_10784_12056" x1="63.3343" y1="82.3575" x2="63.7765" y2="100.039" gradientUnits="userSpaceOnUse">
<stop stop-color="#F9B776"/>
<stop offset="1" stop-color="#F47960"/>
</linearGradient>
<linearGradient id="paint42_linear_10784_12056" x1="71.2548" y1="94.3534" x2="61.9547" y2="92.9785" gradientUnits="userSpaceOnUse">
<stop offset="0.253898" stop-color="#20446C"/>
<stop offset="1" stop-color="#E3EDF8"/>
</linearGradient>
<linearGradient id="paint43_linear_10784_12056" x1="73.3226" y1="70.2039" x2="68.0171" y2="82.4691" gradientUnits="userSpaceOnUse">
<stop stop-color="#F9B776"/>
<stop offset="1" stop-color="#F47960"/>
</linearGradient>
<linearGradient id="paint44_linear_10784_12056" x1="85.9977" y1="85.9047" x2="92.9371" y2="89.9087" gradientUnits="userSpaceOnUse">
<stop stop-color="#F9B776"/>
<stop offset="1" stop-color="#F47960"/>
</linearGradient>
<linearGradient id="paint45_linear_10784_12056" x1="19.6966" y1="184.779" x2="22.4832" y2="178.511" gradientUnits="userSpaceOnUse">
<stop stop-color="#2B3582"/>
<stop offset="1" stop-color="#150E42"/>
</linearGradient>
<linearGradient id="paint46_linear_10784_12056" x1="85.1859" y1="87.3114" x2="92.1252" y2="91.3154" gradientUnits="userSpaceOnUse">
<stop stop-color="#F9B776"/>
<stop offset="1" stop-color="#F47960"/>
</linearGradient>
<linearGradient id="paint47_linear_10784_12056" x1="62.9411" y1="82.3671" x2="63.3833" y2="100.048" gradientUnits="userSpaceOnUse">
<stop stop-color="#F9B776"/>
<stop offset="1" stop-color="#F47960"/>
</linearGradient>
<linearGradient id="paint48_linear_10784_12056" x1="100.665" y1="64.1672" x2="116.398" y2="66.7262" gradientUnits="userSpaceOnUse">
<stop offset="0.411458" stop-color="#20446C"/>
<stop offset="1" stop-color="#E3EDF8"/>
</linearGradient>
</defs>
</svg>
