<svg width="31" height="31" viewBox="0 0 31 31" fill="none" xmlns="http://www.w3.org/2000/svg">
<path d="M1.15401 10.4651L1.15404 10.465C3.29281 4.5069 9.0132 0.499998 15.3894 0.499999C23.7243 0.499999 30.5 7.2328 30.5 15.5C30.5 23.7672 23.7245 30.5 15.3894 30.5C8.04946 30.5 1.79723 25.2985 0.516196 18.138C0.416541 17.5805 0.790553 17.0428 1.35993 16.9425L1.36044 16.9424C1.92962 16.8414 2.46946 17.2195 2.56957 17.7784C3.67489 23.9568 9.06939 28.4368 15.3894 28.4368C22.5687 28.4368 28.4147 22.6372 28.4147 15.5002C28.4147 8.36319 22.5687 2.5636 15.3894 2.5636C9.89645 2.5636 4.9649 6.01425 3.11896 11.1558C2.92671 11.6911 2.33058 11.9749 1.78535 11.7819C1.24157 11.5893 0.962448 10.9985 1.15401 10.4651Z" fill="#F0792E" stroke="#F7EAE0"/>
</svg>
