<svg width="20" height="20" viewBox="0 0 20 20" fill="none" xmlns="http://www.w3.org/2000/svg">
<path d="M19.6667 0H6.33333C6.24493 8.84039e-07 6.16014 0.0351201 6.09763 0.097632C6.03512 0.160144 6 0.244928 6 0.333333V5.66667H6.66667V0.666667H19.3333V18.3333H13V19H19.6667C19.7551 19 19.8399 18.9649 19.9024 18.9024C19.9649 18.8399 20 18.7551 20 18.6667V0.333333C20 0.244928 19.9649 0.160144 19.9024 0.097632C19.8399 0.0351201 19.7551 8.84039e-07 19.6667 0Z" fill="#FF6B00"/>
<path d="M8.33398 1.33301C8.1362 1.33301 7.94286 1.39166 7.77841 1.50154C7.61396 1.61142 7.48579 1.7676 7.41011 1.95032C7.33442 2.13305 7.31461 2.33411 7.3532 2.52809C7.39178 2.72207 7.48703 2.90026 7.62688 3.04011C7.76673 3.17996 7.94491 3.2752 8.13889 3.31379C8.33287 3.35237 8.53394 3.33257 8.71666 3.25688C8.89939 3.18119 9.05557 3.05302 9.16545 2.88857C9.27533 2.72412 9.33398 2.53079 9.33398 2.333C9.33368 2.06788 9.22823 1.8137 9.04076 1.62623C8.85328 1.43876 8.59911 1.33331 8.33398 1.33301ZM8.33398 2.66634C8.26805 2.66634 8.20361 2.64679 8.14879 2.61016C8.09398 2.57353 8.05125 2.52147 8.02602 2.46057C8.00079 2.39966 7.99419 2.33263 8.00705 2.26797C8.01992 2.20331 8.05166 2.14392 8.09828 2.0973C8.1449 2.05069 8.20429 2.01894 8.26895 2.00608C8.33361 1.99322 8.40063 1.99982 8.46154 2.02505C8.52245 2.05027 8.57451 2.093 8.61114 2.14781C8.64776 2.20263 8.66731 2.26708 8.66731 2.333C8.66721 2.42138 8.63206 2.5061 8.56957 2.56859C8.50708 2.63108 8.42236 2.66624 8.33398 2.66634Z" fill="#FF6B00"/>
<path d="M12.6667 1.33301H10V1.99967H12.6667V1.33301Z" fill="#FF6B00"/>
<path d="M12 2.66699H10V3.33366H12V2.66699Z" fill="#FF6B00"/>
<path d="M13.9993 2.66699H12.666V3.33366H13.9993V2.66699Z" fill="#FF6B00"/>
<path d="M9.66634 4H8.33301V4.66667H9.66634V4Z" fill="#FF6B00"/>
<path d="M14.9997 4H10.333V4.66667H14.9997V4Z" fill="#FF6B00"/>
<path d="M18.6663 6.66699H9.33301V7.33366H18.6663V6.66699Z" fill="#FF6B00"/>
<path d="M8.99935 5.33301H7.66602V5.99967H8.99935V5.33301Z" fill="#FF6B00"/>
<path d="M13.6663 5.33301H10.333V5.99967H13.6663V5.33301Z" fill="#FF6B00"/>
<path d="M18.0003 5.33301H16.667V5.99967H18.0003V5.33301Z" fill="#FF6B00"/>
<path d="M15.3333 8H12V8.66667H15.3333V8Z" fill="#FF6B00"/>
<path d="M18.0003 8H16.667V8.66667H18.0003V8Z" fill="#FF6B00"/>
<path d="M15.333 9.33301H13.333V9.99967H15.333V9.33301Z" fill="#FF6B00"/>
<path d="M18.0003 9.33301H16.667V9.99967H18.0003V9.33301Z" fill="#FF6B00"/>
<path d="M15.333 10.667H13.333V11.3337H15.333V10.667Z" fill="#FF6B00"/>
<path d="M18.0003 10.667H16.667V11.3337H18.0003V10.667Z" fill="#FF6B00"/>
<path d="M15.334 12H12.334V12.6667H15.334V12Z" fill="#FF6B00"/>
<path d="M18.0003 12H16.667V12.6667H18.0003V12Z" fill="#FF6B00"/>
<path d="M18.6673 13.333H12.334V13.9997H18.6673V13.333Z" fill="#FF6B00"/>
<path d="M13.9993 14.667H12.666V15.3337H13.9993V14.667Z" fill="#FF6B00"/>
<path d="M18.0003 14.667H14.667V15.3337H18.0003V14.667Z" fill="#FF6B00"/>
<path d="M12.6667 16H12V16.6667H12.6667V16Z" fill="#FF6B00"/>
<path d="M14.6663 16H13.333V16.6667H14.6663V16Z" fill="#FF6B00"/>
<path d="M15.9997 16H15.333V16.6667H15.9997V16Z" fill="#FF6B00"/>
<path d="M18.0003 16H16.667V16.6667H18.0003V16Z" fill="#FF6B00"/>
<path d="M0.333333 11.6663H1V13.333C1.00026 13.5397 1.06448 13.7413 1.18384 13.9101C1.3032 14.0788 1.47185 14.2065 1.66667 14.2757V16.7237C1.47185 16.7928 1.3032 16.9205 1.18384 17.0893C1.06448 17.258 1.00026 17.4596 1 17.6663V18.057C0.805187 18.1261 0.636533 18.2538 0.517174 18.4226C0.397816 18.5914 0.333599 18.793 0.333333 18.9997V19.6663C0.333334 19.7547 0.368453 19.8395 0.430965 19.902C0.493477 19.9645 0.578261 19.9997 0.666667 19.9997H12C12.0884 19.9997 12.1732 19.9645 12.2357 19.902C12.2982 19.8395 12.3333 19.7547 12.3333 19.6663V18.9997C12.3331 18.793 12.2689 18.5914 12.1495 18.4226C12.0301 18.2538 11.8615 18.1261 11.6667 18.057V17.6663C11.6664 17.4596 11.6022 17.258 11.4828 17.0893C11.3635 16.9205 11.1948 16.7928 11 16.7237V14.2757C11.1948 14.2065 11.3635 14.0788 11.4828 13.9101C11.6022 13.7413 11.6664 13.5397 11.6667 13.333V11.6663H12.3333C12.4217 11.6663 12.5065 11.6312 12.569 11.5687C12.6315 11.5062 12.6667 11.4214 12.6667 11.333V9.66633C12.6667 9.60443 12.6494 9.54375 12.6169 9.49109C12.5843 9.43844 12.5378 9.39588 12.4824 9.36819L6.48242 6.36819C6.43613 6.34505 6.38509 6.33301 6.33333 6.33301C6.28158 6.33301 6.23054 6.34505 6.18424 6.36819L0.184245 9.36819C0.12888 9.39588 0.0823172 9.43844 0.0497754 9.49109C0.0172335 9.54375 -2.02752e-06 9.60443 1.78892e-10 9.66633V11.333C8.84218e-07 11.4214 0.0351201 11.5062 0.097632 11.5687C0.160144 11.6312 0.244928 11.6663 0.333333 11.6663ZM11 17.9997H10.3333V17.6663C10.3334 17.5528 10.314 17.44 10.276 17.333H10.6667C10.755 17.3331 10.8398 17.3683 10.9023 17.4307C10.9647 17.4932 10.9999 17.578 11 17.6663V17.9997ZM9 16.6663H8.33333V14.333H9V16.6663ZM8 17.333H9.33333C9.42171 17.3331 9.50643 17.3683 9.56892 17.4307C9.63141 17.4932 9.66656 17.578 9.66667 17.6663V17.9997H7.66667V17.6663C7.66677 17.578 7.70192 17.4932 7.76441 17.4307C7.8269 17.3683 7.91162 17.3331 8 17.333ZM9.66667 16.6663V14.333H10.3333V16.6663H9.66667ZM9.33333 13.6663H8C7.91162 13.6662 7.8269 13.6311 7.76441 13.5686C7.70192 13.5061 7.66677 13.4214 7.66667 13.333V12.9997H9.66667V13.333C9.66656 13.4214 9.63141 13.5061 9.56892 13.5686C9.50643 13.6311 9.42171 13.6662 9.33333 13.6663ZM7.66667 14.2757V16.7237C7.47185 16.7928 7.3032 16.9205 7.18384 17.0893C7.06448 17.258 7.00027 17.4596 7 17.6663V17.9997H5.66667V17.6663C5.6664 17.4596 5.60218 17.258 5.48283 17.0893C5.36347 16.9205 5.19481 16.7928 5 16.7237V14.2757C5.19481 14.2065 5.36347 14.0788 5.48283 13.9101C5.60218 13.7413 5.6664 13.5397 5.66667 13.333V12.9997H7V13.333C7.00027 13.5397 7.06448 13.7413 7.18384 13.9101C7.3032 14.0788 7.47185 14.2065 7.66667 14.2757ZM3 14.333V16.6663H2.33333V14.333H3ZM4.33333 16.6663H3.66667V14.333H4.33333V16.6663ZM3.33333 17.333H4.66667C4.75504 17.3331 4.83977 17.3683 4.90226 17.4307C4.96475 17.4932 4.9999 17.578 5 17.6663V17.9997H3V17.6663C3.0001 17.578 3.03525 17.4932 3.09774 17.4307C3.16023 17.3683 3.24496 17.3331 3.33333 17.333ZM5 13.333C4.9999 13.4214 4.96475 13.5061 4.90226 13.5686C4.83977 13.6311 4.75504 13.6662 4.66667 13.6663H3.33333C3.24496 13.6662 3.16023 13.6311 3.09774 13.5686C3.03525 13.5061 3.0001 13.4214 3 13.333V12.9997H5V13.333ZM2.39068 13.6663H2C1.91163 13.6662 1.8269 13.6311 1.76441 13.5686C1.70192 13.5061 1.66677 13.4214 1.66667 13.333V12.9997H2.33333V13.333C2.33329 13.4466 2.35268 13.5593 2.39068 13.6663ZM2 17.333H2.39068C2.35268 17.44 2.33329 17.5528 2.33333 17.6663V17.9997H1.66667V17.6663C1.66677 17.578 1.70192 17.4932 1.76441 17.4307C1.8269 17.3683 1.91163 17.3331 2 17.333ZM11.6667 19.333H1V18.9997C1.0001 18.9113 1.03525 18.8266 1.09774 18.7641C1.16023 18.7016 1.24496 18.6664 1.33333 18.6663H11.3333C11.4217 18.6664 11.5064 18.7016 11.5689 18.7641C11.6314 18.8266 11.6666 18.9113 11.6667 18.9997V19.333ZM10.6667 13.6663H10.276C10.314 13.5593 10.3334 13.4466 10.3333 13.333V12.9997H11V13.333C10.9999 13.4214 10.9647 13.5061 10.9023 13.5686C10.8398 13.6311 10.755 13.6662 10.6667 13.6663ZM11 12.333H1.66667V11.6663H11V12.333ZM0.666667 9.87234L6.33333 7.03901L12 9.87234V10.9997H0.666667V9.87234Z" fill="#FF6B00"/>
<path d="M6.333 10.333C6.53079 10.333 6.72412 10.2744 6.88857 10.1645C7.05302 10.0546 7.18119 9.89843 7.25688 9.71571C7.33257 9.53298 7.35237 9.33191 7.31379 9.13793C7.2752 8.94394 7.17996 8.76576 7.04011 8.6259C6.90026 8.48605 6.72207 8.39081 6.52809 8.35222C6.33411 8.31364 6.13305 8.33344 5.95032 8.40913C5.7676 8.48482 5.61142 8.61299 5.50154 8.77744C5.39166 8.94189 5.33301 9.13524 5.33301 9.33302C5.33331 9.59815 5.43876 9.85233 5.62623 10.0398C5.8137 10.2273 6.06788 10.3327 6.333 10.333ZM6.333 8.99968C6.39893 8.99968 6.46338 9.01923 6.51819 9.05586C6.57301 9.09249 6.61573 9.14455 6.64096 9.20546C6.66619 9.26637 6.67279 9.33339 6.65993 9.39805C6.64707 9.46271 6.61532 9.52211 6.56871 9.56872C6.52209 9.61534 6.4627 9.64709 6.39803 9.65995C6.33337 9.67281 6.26635 9.66621 6.20544 9.64098C6.14454 9.61575 6.09248 9.57303 6.05585 9.51821C6.01922 9.46339 5.99967 9.39895 5.99967 9.33302C5.99977 9.24464 6.03492 9.15992 6.09741 9.09743C6.1599 9.03493 6.24463 8.99978 6.333 8.99968Z" fill="#FF6B00"/>
<path d="M4.66667 9H4V9.66667H4.66667V9Z" fill="#FF6B00"/>
<path d="M8.66667 9H8V9.66667H8.66667V9Z" fill="#FF6B00"/>
</svg>
