<svg width="14" height="14" viewBox="0 0 14 14" fill="none" xmlns="http://www.w3.org/2000/svg">
<path d="M12.7135 13.6796L12.821 13.4539L12.7135 13.6796C12.803 13.7222 12.9002 13.746 12.9993 13.7495C13.0983 13.7531 13.197 13.7363 13.2893 13.7001C13.3816 13.664 13.4655 13.6093 13.5358 13.5395C13.6061 13.4697 13.6614 13.3862 13.6982 13.2942C13.735 13.2022 13.7525 13.1036 13.7497 13.0045C13.7469 12.9055 13.7238 12.808 13.6819 12.7183C13.6411 12.631 13.5834 12.5527 13.5121 12.488L9.80159 8.77686C10.4793 7.88398 10.8796 6.76946 10.8796 5.5657C10.8796 2.63558 8.49451 0.25 5.5648 0.25C2.6351 0.25 0.249995 2.63559 0.25 5.5657C0.249993 8.49584 2.6351 10.8814 5.56481 10.8814C6.76999 10.8814 7.88301 10.4775 8.77552 9.79842L12.4853 13.5088C12.5493 13.5803 12.6268 13.6383 12.7135 13.6796ZM5.5648 1.69982C7.70505 1.69982 9.42996 3.42496 9.42996 5.5657C9.42996 7.70644 7.70504 9.43161 5.56481 9.4316C3.42456 9.43161 1.69965 7.70647 1.69965 5.5657C1.69965 3.42497 3.42456 1.69982 5.5648 1.69982Z" fill="#999999" stroke="#999999" stroke-width="0.5"/>
</svg>
