<svg width="29" height="29" viewBox="0 0 29 29" fill="none" xmlns="http://www.w3.org/2000/svg">
<g clip-path="url(#clip0_2673_13917)">
<path d="M29 14.5C29 22.1572 23.0635 28.4291 15.5422 28.9626C15.1978 28.9875 14.8506 29 14.5 29C13.6187 29 12.756 28.9213 11.9183 28.7706C11.9178 28.7706 11.9166 28.7706 11.9161 28.77C11.8317 28.7553 11.7478 28.7395 11.6646 28.7225C11.314 28.6534 10.9679 28.5712 10.6269 28.4766C10.3596 28.403 10.0951 28.3214 9.83395 28.2325C8.85689 27.9012 7.92686 27.4679 7.05629 26.9462C6.83822 26.8154 6.62355 26.6794 6.41342 26.5378C5.81189 26.1323 5.24152 25.6831 4.70854 25.1943C4.06396 24.6036 3.47264 23.9556 2.94361 23.2578C2.79691 23.0658 2.65588 22.8692 2.51938 22.6698C2.51938 22.6698 2.51938 22.6693 2.51881 22.6693C2.07758 22.023 1.68676 21.3388 1.35258 20.6229C0.946465 19.7517 0.623613 18.8336 0.395918 17.8786C0.395918 17.878 0.395918 17.878 0.395918 17.878C0.13707 16.7945 0 15.6634 0 14.5C0 6.49215 6.49215 0 14.5 0C22.5079 0 29 6.49215 29 14.5Z" fill="#FDF4E2"/>
<path d="M26.6343 5.24145V22.4421C24.0436 26.3916 19.5769 28.9999 14.5007 28.9999C9.42461 28.9999 4.95793 26.3916 2.36719 22.4421V5.24145C2.36719 3.26186 3.97182 1.65723 5.95141 1.65723H23.0501C25.0297 1.65723 26.6343 3.26186 26.6343 5.24145Z" fill="#F4AA39"/>
<path d="M7.31984 1.65723C5.50791 1.65723 4.0092 3.00244 3.76961 4.74924C3.74695 4.9101 3.73563 5.07436 3.73563 5.24145V24.2138C3.23549 23.6604 2.77783 23.0679 2.36719 22.4421V5.24145C2.36719 3.26186 3.97182 1.65723 5.95141 1.65723H7.31984Z" fill="#C98001"/>
<path d="M19.8077 7.57523H9.19416C8.43433 7.57523 7.81836 6.95926 7.81836 6.19943V4.38166C7.81836 3.62183 8.43433 3.00586 9.19416 3.00586H19.8078C20.5676 3.00586 21.1836 3.62183 21.1836 4.38166V6.19937C21.1835 6.95926 20.5675 7.57523 19.8077 7.57523Z" fill="#C98001"/>
<path d="M23.0378 8.30818V26.2213C22.4459 26.6535 21.82 27.0415 21.1646 27.3808C20.5269 27.7116 19.8619 27.9965 19.1732 28.2304H9.82746C9.13814 27.9965 8.47262 27.7116 7.83484 27.3808C6.96371 26.9288 6.14412 26.3913 5.38797 25.779C5.19143 25.621 4.99998 25.4573 4.8125 25.2885V8.30818C4.8125 7.86469 5.04982 7.4767 5.40383 7.2643C5.58734 7.15328 5.80201 7.08984 6.03141 7.08984H21.8188C22.4917 7.08984 23.0378 7.63529 23.0378 8.30818Z" fill="#C98001"/>
<path d="M23.6114 7.45857V25.779C23.4239 25.9314 23.2319 26.0786 23.0365 26.2214C22.4446 26.6535 21.8187 27.0415 21.1634 27.3808H7.83359C6.96246 26.9288 6.14287 26.3913 5.38672 25.779V7.45857C5.38672 7.3923 5.39182 7.32773 5.40258 7.2643C5.4949 6.68373 5.99844 6.24023 6.60506 6.24023H22.3931C23.066 6.24023 23.6114 6.78568 23.6114 7.45857Z" fill="#F1F4F6"/>
<path d="M18.1871 9.68942H10.8143C9.6093 9.68942 8.62891 8.70908 8.62891 7.50405V4.52051C8.62891 4.17642 8.90786 3.89746 9.25195 3.89746H19.7494C20.0935 3.89746 20.3724 4.17642 20.3724 4.52051V7.504C20.3724 8.70902 19.3921 9.68942 18.1871 9.68942ZM9.875 5.14355V7.504C9.875 8.02192 10.2964 8.44327 10.8143 8.44327H18.1871C18.705 8.44327 19.1264 8.02192 19.1264 7.504V5.14355H9.875Z" fill="#D0E2E7"/>
<path d="M19.0844 21.2022C18.8325 21.2022 18.5957 21.0753 18.4567 20.8621L16.7702 18.2762C16.5441 17.9295 16.6419 17.4651 16.9886 17.239C17.3353 17.0129 17.7997 17.1106 18.0259 17.4573L18.9621 18.8929L21.4736 13.2879C21.6428 12.9101 22.0864 12.7412 22.4641 12.9104C22.8419 13.0797 23.0109 13.5232 22.8416 13.9009L19.7685 20.7592C19.6563 21.0094 19.4165 21.1785 19.1431 21.1999C19.1235 21.2015 19.1039 21.2022 19.0844 21.2022Z" fill="#E94A47"/>
<path d="M15.5711 28.7469C15.566 28.82 15.5563 28.8919 15.5427 28.9622C15.1984 28.9871 14.8512 28.9995 14.5006 28.9995C7.65611 28.9995 1.91842 24.2565 0.396484 17.8776C0.439531 16.0889 0.523926 14.3002 0.650234 12.5115C0.713105 11.6171 1.40412 10.8949 2.29451 10.7936C6.17212 10.3501 10.0492 10.3501 13.9268 10.7936C14.8172 10.8949 15.5082 11.6171 15.5711 12.5115C15.9534 17.9235 15.9534 23.3349 15.5711 28.7469Z" fill="#20446C"/>
<path d="M2.55109 10.7656C2.04133 11.0822 1.69242 11.6305 1.64768 12.2621C1.45113 15.0494 1.35314 17.8361 1.35314 20.6228C0.947031 19.7517 0.62418 18.8335 0.396484 17.8786C0.396484 17.878 0.396484 17.878 0.396484 17.878C0.439531 16.0893 0.523926 14.3006 0.650234 12.5119C0.713105 11.6181 1.40355 10.8959 2.29451 10.7939C2.37947 10.7843 2.46557 10.7753 2.55109 10.7656Z" fill="#0A2E43"/>
<path d="M12.7029 18.2583H3.51805C2.81236 18.2583 2.24023 17.6863 2.24023 16.9805V13.8638C2.24023 13.1581 2.8123 12.5859 3.51805 12.5859H12.7029C13.4086 12.5859 13.9807 13.158 13.9807 13.8638V16.9805C13.9807 17.6863 13.4086 18.2583 12.7029 18.2583Z" fill="#F0F0F0"/>
<path d="M4.99206 21.7052H3.00245C2.58149 21.7052 2.24023 21.3639 2.24023 20.943V19.7705C2.24023 19.3496 2.58149 19.0083 3.00245 19.0083H4.99206C5.41301 19.0083 5.75427 19.3496 5.75427 19.7705V20.943C5.75427 21.3639 5.41301 21.7052 4.99206 21.7052Z" fill="#F1F4F6"/>
<path d="M3.70604 21.7053H3.00256C2.58144 21.7053 2.24023 21.3635 2.24023 20.943V19.7701C2.24023 19.3496 2.58138 19.0078 3.00256 19.0078H3.70604C3.28491 19.0078 2.94371 19.3496 2.94371 19.7701V20.943C2.94371 21.3635 3.28486 21.7053 3.70604 21.7053Z" fill="#D0E2E7"/>
<path d="M9.10535 21.7936H7.11573C6.69478 21.7936 6.35352 21.4523 6.35352 21.0314V19.8589C6.35352 19.4379 6.69478 19.0967 7.11573 19.0967H9.10535C9.5263 19.0967 9.86756 19.4379 9.86756 19.8589V21.0314C9.86756 21.4523 9.5263 21.7936 9.10535 21.7936Z" fill="#F1F4F6"/>
<path d="M13.2186 21.7936H11.229C10.8081 21.7936 10.4668 21.4523 10.4668 21.0314V19.8589C10.4668 19.4379 10.8081 19.0967 11.229 19.0967H13.2186C13.6396 19.0967 13.9808 19.4379 13.9808 19.8589V21.0314C13.9808 21.4523 13.6396 21.7936 13.2186 21.7936Z" fill="#F1F4F6"/>
<path d="M7.81932 21.7932H7.11584C6.69472 21.7932 6.35352 21.4514 6.35352 21.0309V19.858C6.35352 19.4375 6.69466 19.0957 7.11584 19.0957H7.81932C7.3982 19.0957 7.05699 19.4375 7.05699 19.858V21.0309C7.05699 21.4514 7.39814 21.7932 7.81932 21.7932Z" fill="#D0E2E7"/>
<path d="M11.9326 21.7932H11.2291C10.808 21.7932 10.4668 21.4514 10.4668 21.0309V19.858C10.4668 19.4375 10.8079 19.0957 11.2291 19.0957H11.9326C11.5115 19.0957 11.1703 19.4375 11.1703 19.858V21.0309C11.1703 21.4514 11.5114 21.7932 11.9326 21.7932Z" fill="#D0E2E7"/>
<path d="M5.75525 23.2584V24.4309C5.75525 24.8523 5.41371 25.1932 4.99287 25.1932H4.70967C3.88724 24.4399 3.15205 23.5931 2.52051 22.6688C2.65191 22.5612 2.81957 22.4966 3.00309 22.4966H4.99287C5.41371 22.4966 5.75525 22.8376 5.75525 23.2584Z" fill="#F1F4F6"/>
<path d="M3.70615 22.4961C3.28588 22.4961 2.94547 22.8365 2.94434 23.2568C2.79764 23.0648 2.6566 22.8682 2.5201 22.6688C2.5201 22.6688 2.5201 22.6683 2.51953 22.6683C2.65094 22.5612 2.81916 22.4961 3.00268 22.4961H3.70615Z" fill="#D0E2E7"/>
<path d="M9.10535 25.2809H7.11573C6.69478 25.2809 6.35352 24.9396 6.35352 24.5187V23.3462C6.35352 22.9252 6.69478 22.584 7.11573 22.584H9.10535C9.5263 22.584 9.86756 22.9252 9.86756 23.3462V24.5187C9.86756 24.9396 9.5263 25.2809 9.10535 25.2809Z" fill="#F1F4F6"/>
<path d="M13.2186 25.2809H11.229C10.8081 25.2809 10.4668 24.9396 10.4668 24.5187V23.3462C10.4668 22.9252 10.8081 22.584 11.229 22.584H13.2186C13.6396 22.584 13.9808 22.9252 13.9808 23.3462V24.5187C13.9808 24.9396 13.6396 25.2809 13.2186 25.2809Z" fill="#F1F4F6"/>
<path d="M7.81932 25.2815H7.11584C6.69472 25.2815 6.35352 24.9397 6.35352 24.5192V23.3463C6.35352 22.9258 6.69466 22.584 7.11584 22.584H7.81932C7.3982 22.584 7.05699 22.9258 7.05699 23.3463V24.5192C7.05699 24.9397 7.39814 25.2815 7.81932 25.2815Z" fill="#D0E2E7"/>
<path d="M11.9326 25.2815H11.2291C10.808 25.2815 10.4668 24.9397 10.4668 24.5192V23.3463C10.4668 22.9258 10.8079 22.584 11.2291 22.584H11.9326C11.5115 22.584 11.1703 22.9258 11.1703 23.3463V24.5192C11.1703 24.9397 11.5114 25.2815 11.9326 25.2815Z" fill="#D0E2E7"/>
<path d="M9.868 26.8346V28.007C9.868 28.0852 9.85611 28.1605 9.83458 28.2313C8.61285 27.8167 7.46474 27.2435 6.41406 26.5366C6.53018 26.2636 6.80092 26.0728 7.11584 26.0728H9.10562C9.52646 26.0728 9.868 26.4137 9.868 26.8346Z" fill="#F1F4F6"/>
<path d="M13.9808 26.8346V28.007C13.9808 28.4284 13.6398 28.7694 13.219 28.7694H11.9191C11.4812 28.6907 11.0508 28.5927 10.6277 28.4754C10.5268 28.3463 10.4668 28.1837 10.4668 28.007V26.8346C10.4668 26.4137 10.8083 26.0728 11.2292 26.0728H13.219C13.6398 26.0728 13.9808 26.4137 13.9808 26.8346Z" fill="#F1F4F6"/>
<path d="M7.81931 26.0723C7.39847 26.0723 7.05693 26.4138 7.05693 26.8347V26.9451C6.83886 26.8143 6.6242 26.6783 6.41406 26.5367C6.53018 26.2637 6.80092 26.0723 7.11584 26.0723H7.81931Z" fill="#D0E2E7"/>
<path d="M11.916 28.7686C11.9209 28.7691 11.9264 28.7691 11.9313 28.7691H11.9182C11.9177 28.7691 11.9166 28.7691 11.916 28.7686Z" fill="#D0E2E7"/>
<path d="M11.6653 28.7213C11.3147 28.6522 10.9686 28.5701 10.6277 28.4755C10.5268 28.3458 10.4668 28.1833 10.4668 28.0071V26.8346C10.4668 26.4138 10.8083 26.0723 11.2292 26.0723H11.9327C11.5118 26.0723 11.1703 26.4138 11.1703 26.8346V28.0071C11.1703 28.3339 11.3764 28.6132 11.6653 28.7213Z" fill="#D0E2E7"/>
<path d="M4.13692 17.2781C4.10441 17.2781 4.07133 17.2717 4.03944 17.2584C3.91098 17.2044 3.8506 17.0566 3.90447 16.9282L5.25987 13.6986C5.3138 13.5702 5.46151 13.5098 5.59003 13.5636C5.71849 13.6176 5.77887 13.7654 5.72501 13.8938L4.3696 17.1234C4.3291 17.2199 4.23547 17.2781 4.13692 17.2781Z" fill="#434B53"/>
<path d="M3.87843 15.2898C3.40916 15.2898 3.02734 14.8645 3.02734 14.3417C3.02734 13.8189 3.40916 13.3936 3.87843 13.3936C4.34775 13.3936 4.72951 13.8189 4.72951 14.3417C4.72956 14.8645 4.34775 15.2898 3.87843 15.2898ZM3.87843 13.898C3.68726 13.898 3.53179 14.097 3.53179 14.3417C3.53179 14.5864 3.68732 14.7854 3.87843 14.7854C4.06959 14.7854 4.22512 14.5864 4.22512 14.3417C4.22512 14.097 4.06959 13.898 3.87843 13.898Z" fill="#434B53"/>
<path d="M5.7085 17.4979C5.23918 17.4979 4.85742 17.0726 4.85742 16.5497C4.85742 16.0269 5.23924 15.6016 5.7085 15.6016C6.17777 15.6016 6.55959 16.0269 6.55959 16.5497C6.55959 17.0726 6.17777 17.4979 5.7085 17.4979ZM5.7085 16.1061C5.51734 16.1061 5.36181 16.3051 5.36181 16.5498C5.36181 16.7945 5.51734 16.9935 5.7085 16.9935C5.89967 16.9935 6.05514 16.7945 6.05514 16.5498C6.05514 16.3051 5.89961 16.1061 5.7085 16.1061Z" fill="#434B53"/>
<path d="M7.49239 17.2781C7.45988 17.2781 7.4268 17.2717 7.39491 17.2584C7.26645 17.2044 7.20607 17.0566 7.25993 16.9282L8.61534 13.6986C8.66926 13.5702 8.81698 13.5098 8.9455 13.5636C9.07396 13.6176 9.13434 13.7654 9.08048 13.8938L7.72507 17.1234C7.68457 17.2199 7.59094 17.2781 7.49239 17.2781Z" fill="#434B53"/>
<path d="M7.23389 15.2898C6.76463 15.2898 6.38281 14.8645 6.38281 14.3417C6.38281 13.8189 6.76463 13.3936 7.23389 13.3936C7.70321 13.3936 8.08497 13.8189 8.08497 14.3417C8.08503 14.8645 7.70321 15.2898 7.23389 15.2898ZM7.23389 13.898C7.04273 13.898 6.88725 14.097 6.88725 14.3417C6.88725 14.5864 7.04279 14.7854 7.23389 14.7854C7.42505 14.7854 7.58059 14.5864 7.58059 14.3417C7.58059 14.097 7.42505 13.898 7.23389 13.898Z" fill="#434B53"/>
<path d="M9.06397 17.4979C8.59465 17.4979 8.21289 17.0726 8.21289 16.5497C8.21289 16.0269 8.59471 15.6016 9.06397 15.6016C9.53324 15.6016 9.91506 16.0269 9.91506 16.5497C9.91506 17.0726 9.5333 17.4979 9.06397 17.4979ZM9.06397 16.1061C8.87281 16.1061 8.71728 16.3051 8.71728 16.5498C8.71728 16.7945 8.87281 16.9935 9.06397 16.9935C9.25514 16.9935 9.41061 16.7945 9.41061 16.5498C9.41061 16.3051 9.25514 16.1061 9.06397 16.1061Z" fill="#434B53"/>
<path d="M10.8498 17.2781C10.8173 17.2781 10.7842 17.2717 10.7523 17.2584C10.6239 17.2044 10.5635 17.0566 10.6174 16.9282L11.9728 13.6986C12.0267 13.5702 12.1744 13.5098 12.3029 13.5636C12.4314 13.6176 12.4918 13.7654 12.4379 13.8938L11.0825 17.1234C11.042 17.2199 10.9484 17.2781 10.8498 17.2781Z" fill="#434B53"/>
<path d="M10.5913 15.2898C10.122 15.2898 9.74023 14.8645 9.74023 14.3417C9.74023 13.8189 10.122 13.3936 10.5913 13.3936C11.0606 13.3936 11.4424 13.8189 11.4424 14.3417C11.4425 14.8645 11.0606 15.2898 10.5913 15.2898ZM10.5913 13.898C10.4002 13.898 10.2447 14.097 10.2447 14.3417C10.2447 14.5864 10.4002 14.7854 10.5913 14.7854C10.7825 14.7854 10.938 14.5864 10.938 14.3417C10.938 14.097 10.7825 13.898 10.5913 13.898Z" fill="#434B53"/>
<path d="M12.4214 17.4979C11.9521 17.4979 11.5703 17.0726 11.5703 16.5497C11.5703 16.0269 11.9521 15.6016 12.4214 15.6016C12.8907 15.6016 13.2725 16.0269 13.2725 16.5497C13.2725 17.0726 12.8907 17.4979 12.4214 17.4979ZM12.4214 16.1061C12.2302 16.1061 12.0747 16.3051 12.0747 16.5498C12.0747 16.7945 12.2302 16.9935 12.4214 16.9935C12.6126 16.9935 12.768 16.7945 12.768 16.5498C12.768 16.3051 12.6126 16.1061 12.4214 16.1061Z" fill="#434B53"/>
</g>
<defs>
<clipPath id="clip0_2673_13917">
<rect width="29" height="29" fill="white"/>
</clipPath>
</defs>
</svg>
