<svg width="34" height="27" viewBox="0 0 34 27" fill="none" xmlns="http://www.w3.org/2000/svg">
<path d="M32.6738 12.2641L31.6111 12.7586L32.6738 12.2641L27.9561 2.12558C27.3058 0.728041 25.264 0.908459 24.8688 2.39836L19.2076 23.7426C18.7672 25.4028 20.8426 26.5452 22.0097 25.285L32.3887 14.0793C32.8435 13.5883 32.9562 12.8709 32.6738 12.2641Z" stroke="#F0792E" stroke-width="2.3"/>
<path d="M21.0843 2.39836L15.423 23.7426C14.9827 25.4028 17.0581 26.5452 18.2252 25.285L28.6042 14.0793C29.059 13.5883 29.1717 12.8709 28.8893 12.2641L24.1716 2.12558C23.5213 0.728039 21.4795 0.908461 21.0843 2.39836Z" fill="#FFEEDC" stroke="#F0792E" stroke-width="2.3"/>
<path d="M9.6706 6.01522H15.0777M1.01929 10.2963H11.8334M6.96707 21.3046H10.752" stroke="#F0792E" stroke-width="2" stroke-linecap="round" stroke-linejoin="round"/>
</svg>
