<svg width="25" height="28" viewBox="0 0 25 28" fill="none" xmlns="http://www.w3.org/2000/svg">
<path d="M22.1484 3.28125H21.3281V2.46094C21.3281 1.10398 20.2241 0 18.8672 0H2.46094C1.10398 0 0 1.10398 0 2.46094V22.2578C0 23.6148 1.10398 24.7188 2.46094 24.7188H3.28125V25.5391C3.28125 26.896 4.38523 28 5.74219 28H22.1484C23.5054 28 24.6094 26.896 24.6094 25.5391V5.74219C24.6094 4.38523 23.5054 3.28125 22.1484 3.28125ZM4.00203 6.32226C3.53719 6.78705 3.28125 7.40502 3.28125 8.06236V23.0781H2.46094C2.00862 23.0781 1.64062 22.7101 1.64062 22.2578V2.46094C1.64062 2.00862 2.00862 1.64062 2.46094 1.64062H18.8672C19.3195 1.64062 19.6875 2.00862 19.6875 2.46094V3.28125H8.06236C7.40502 3.28125 6.78705 3.53724 6.32226 4.00203L4.00203 6.32226ZM8.20312 4.92188V8.20312H4.92188V8.06236C4.92188 7.84328 5.00719 7.63727 5.16212 7.48234L7.48234 5.16212C7.63727 5.00719 7.84328 4.92188 8.06236 4.92188H8.20312ZM22.9688 25.5391C22.9688 25.9914 22.6008 26.3594 22.1484 26.3594H5.74219C5.28987 26.3594 4.92188 25.9914 4.92188 25.5391V9.84375H9.02344C9.47647 9.84375 9.84375 9.47647 9.84375 9.02344V4.92188H22.1484C22.6008 4.92188 22.9688 5.28987 22.9688 5.74219V25.5391Z" fill="#F0792E"/>
<path d="M20.5078 21.2007H7.38281C6.92978 21.2007 6.5625 21.568 6.5625 22.021C6.5625 22.474 6.92978 22.8413 7.38281 22.8413H20.5078C20.9608 22.8413 21.3281 22.474 21.3281 22.021C21.3281 21.568 20.9608 21.2007 20.5078 21.2007Z" fill="#F0792E"/>
<path d="M19.0961 17.7837H7.29977C6.8926 17.7837 6.5625 18.1138 6.5625 18.521C6.5625 18.9281 6.8926 19.2582 7.29977 19.2582H19.0961C19.5032 19.2582 19.8333 18.9281 19.8333 18.521C19.8333 18.1138 19.5032 17.7837 19.0961 17.7837Z" fill="#F0792E"/>
<path d="M17.9942 14.3481H7.23495C6.86358 14.3481 6.5625 14.6492 6.5625 15.0206C6.5625 15.392 6.86358 15.6931 7.23495 15.6931H17.9942C18.3656 15.6931 18.6667 15.392 18.6667 15.0206C18.6667 14.6492 18.3656 14.3481 17.9942 14.3481Z" fill="#F0792E"/>
</svg>
