<svg width="24" height="24" viewBox="0 0 24 24" fill="none" xmlns="http://www.w3.org/2000/svg">
<path d="M8.60389 15.6949C6.38989 15.6949 4.58789 13.8929 4.58789 11.6789C4.58789 9.46387 6.38989 7.66187 8.60489 7.66187C10.8189 7.66187 12.6209 9.46387 12.6209 11.6789C12.6209 13.8929 10.8189 15.6949 8.60389 15.6949ZM8.60389 8.26686C6.72389 8.26686 5.19189 9.79687 5.19189 11.6789C5.19189 13.5599 6.72289 15.0909 8.60389 15.0909C10.4859 15.0909 12.0159 13.5599 12.0159 11.6789C12.0159 9.79687 10.4859 8.26686 8.60389 8.26686Z" fill="#E77817"/>
<path d="M8.60485 17.4428C5.42585 17.4428 2.83984 14.8568 2.83984 11.6788C2.83984 8.49982 5.42585 5.91382 8.60485 5.91382C11.7828 5.91382 14.3688 8.49982 14.3688 11.6788C14.3688 14.8568 11.7828 17.4428 8.60485 17.4428ZM8.60485 6.51882C5.75985 6.51882 3.44484 8.83282 3.44484 11.6788C3.44484 14.5238 5.75985 16.8388 8.60485 16.8388C11.4498 16.8388 13.7648 14.5238 13.7648 11.6788C13.7648 8.83382 11.4498 6.51882 8.60485 6.51882Z" fill="#E77817"/>
<rect x="9" y="6.99976" width="15" height="10" rx="2" fill="white"/>
<path d="M22.25 16.9998H10.75C9.785 16.9998 9 16.2148 9 15.2498V8.74976C9 7.78476 9.785 6.99976 10.75 6.99976H22.25C23.215 6.99976 24 7.78476 24 8.74976V15.2498C24 16.2148 23.215 16.9998 22.25 16.9998ZM10.75 8.49976C10.612 8.49976 10.5 8.61176 10.5 8.74976V15.2498C10.5 15.3878 10.612 15.4998 10.75 15.4998H22.25C22.388 15.4998 22.5 15.3878 22.5 15.2498V8.74976C22.5 8.61176 22.388 8.49976 22.25 8.49976H10.75Z" fill="#20446C"/>
<path d="M9 9.99976H24V10.9998H9V9.99976Z" fill="#20446C"/>
<path d="M10.25 4H5.75C4.785 4 4 3.215 4 2.25C4 1.836 3.664 1.5 3.25 1.5H2.75V0H3.25C4.491 0 5.5 1.009 5.5 2.25C5.5 2.388 5.612 2.5 5.75 2.5H10.25C10.388 2.5 10.5 2.388 10.5 2.25C10.5 1.009 11.509 0 12.75 0H13.25V1.5H12.75C12.336 1.5 12 1.836 12 2.25C12 3.215 11.215 4 10.25 4Z" fill="#20446C"/>
<path d="M13.25 24H2.75C1.233 24 0 22.767 0 21.25V2.75C0 1.233 1.233 0 2.75 0H13.25C14.767 0 16 1.233 16 2.75V4.25H14.5V2.75C14.5 2.061 13.939 1.5 13.25 1.5H2.75C2.061 1.5 1.5 2.061 1.5 2.75V21.25C1.5 21.939 2.061 22.5 2.75 22.5H13.25C13.939 22.5 14.5 21.939 14.5 21.25V19.75H16V21.25C16 22.767 14.767 24 13.25 24Z" fill="#20446C"/>
<path d="M18 15L18 14L21 14L21 15L18 15Z" fill="#F0792E"/>
</svg>
