<svg width="31" height="30" viewBox="0 0 31 30" fill="none" xmlns="http://www.w3.org/2000/svg">
<path d="M1.04479 30.0001L0 28.3353L14.0923 19.4866C14.4764 19.2428 14.985 19.2992 15.3101 19.6229L19.859 24.1718L29.3237 14.707L30.7146 16.0979L20.5551 26.2575C20.1867 26.6258 19.5339 26.6258 19.1642 26.2575L14.4751 21.5683L1.04479 30.0001Z" fill="#F0792E"/>
<path d="M30.9983 20.6473H29.032V16.3855H24.7715V14.4204H30.0151C30.5579 14.4204 30.9983 14.8609 30.9983 15.4036V20.6473Z" fill="#F0792E"/>
<path d="M7.75253 21.4517C3.55893 19.7266 0.850586 15.6798 0.850586 11.1427C0.850586 4.9985 5.84909 0 11.9933 0C18.1376 0 23.1361 4.9985 23.1361 11.1427C23.1361 14.5655 21.601 17.7471 18.9228 19.8708L17.701 18.3291C19.906 16.5817 21.1697 13.9612 21.1697 11.1427C21.1697 6.08262 17.0521 1.96636 11.9933 1.96636C6.93452 1.96636 2.81695 6.08262 2.81695 11.1427C2.81695 14.8801 5.04812 18.2125 8.49975 19.6335L7.75253 21.4517Z" fill="#F0792E"/>
<path d="M14.6087 7.33046C14.8248 7.33046 14.9999 7.14794 14.9999 6.9228C14.9999 6.69766 14.8248 6.51514 14.6087 6.51514H9.83558C9.61951 6.51514 9.44434 6.69766 9.44434 6.9228C9.44434 7.14794 9.61951 7.33046 9.83558 7.33046H11.4788C11.9888 7.33046 12.4237 7.67132 12.5852 8.14581H9.83558C9.61951 8.14581 9.44434 8.32834 9.44434 8.55347C9.44434 8.77861 9.61951 8.96114 9.83558 8.96114H12.5852C12.4237 9.4356 11.9888 9.77646 11.4788 9.77646H9.86166C9.70918 9.77646 9.5706 9.86875 9.5066 10.0129C9.44259 10.1571 9.46476 10.3269 9.56346 10.448L12.7977 14.4159C12.8751 14.5109 12.9852 14.5597 13.0961 14.5597C13.1856 14.5597 13.2756 14.5279 13.3491 14.4628C13.5138 14.317 13.534 14.0597 13.3941 13.8881L10.7073 10.5918H11.4788C12.4235 10.5918 13.2139 9.89036 13.3956 8.96111H14.6087C14.8248 8.96111 15 8.77858 15 8.55345C15 8.32831 14.8248 8.14578 14.6087 8.14578H13.3956C13.3367 7.84469 13.2139 7.56758 13.0427 7.33043H14.6087V7.33046Z" fill="#F0792E" stroke="#F0792E" stroke-width="0.0933824"/>
</svg>
