<svg width="18" height="20" viewBox="0 0 18 20" fill="none" xmlns="http://www.w3.org/2000/svg">
<path d="M9 6.42986H1.95652C1.74044 6.42986 1.56522 6.60509 1.56522 6.82117V9.16899C1.56522 9.38507 1.74044 9.5603 1.95652 9.5603H9C9.21608 9.5603 9.3913 9.38507 9.3913 9.16899V6.82117C9.3913 6.60509 9.21612 6.42986 9 6.42986ZM8.6087 8.77769H2.34783V7.21247H8.6087V8.77769Z" fill="#F0792E"/>
<path d="M3.52174 11.9081H2.73913C2.52305 11.9081 2.34783 12.0834 2.34783 12.2994C2.34783 12.5155 2.52305 12.6907 2.73913 12.6907H3.52174C3.73782 12.6907 3.91304 12.5155 3.91304 12.2994C3.91304 12.0834 3.73786 11.9081 3.52174 11.9081Z" fill="#F0792E"/>
<path d="M3.52174 13.4733H2.73913C2.52305 13.4733 2.34783 13.6486 2.34783 13.8646C2.34783 14.0807 2.52305 14.256 2.73913 14.256H3.52174C3.73782 14.256 3.91304 14.0807 3.91304 13.8646C3.91304 13.6486 3.73786 13.4733 3.52174 13.4733Z" fill="#F0792E"/>
<path d="M5.86957 11.9081H5.08696C4.87088 11.9081 4.69565 12.0834 4.69565 12.2994C4.69565 12.5155 4.87088 12.6907 5.08696 12.6907H5.86957C6.08564 12.6907 6.26087 12.5155 6.26087 12.2994C6.26087 12.0834 6.08568 11.9081 5.86957 11.9081Z" fill="#F0792E"/>
<path d="M5.86957 13.4733H5.08696C4.87088 13.4733 4.69565 13.6486 4.69565 13.8646C4.69565 14.0807 4.87088 14.256 5.08696 14.256H5.86957C6.08564 14.256 6.26087 14.0807 6.26087 13.8646C6.26087 13.6486 6.08568 13.4733 5.86957 13.4733Z" fill="#F0792E"/>
<path d="M8.21739 11.9081H7.43478C7.2187 11.9081 7.04348 12.0834 7.04348 12.2994C7.04348 12.5155 7.2187 12.6907 7.43478 12.6907H8.21739C8.43347 12.6907 8.6087 12.5155 8.6087 12.2994C8.6087 12.0834 8.43351 11.9081 8.21739 11.9081Z" fill="#F0792E"/>
<path d="M8.21739 13.4733H7.43478C7.2187 13.4733 7.04348 13.6486 7.04348 13.8646C7.04348 14.0807 7.2187 14.256 7.43478 14.256H8.21739C8.43347 14.256 8.6087 14.0807 8.6087 13.8646C8.6087 13.6486 8.43351 13.4733 8.21739 13.4733Z" fill="#F0792E"/>
<path d="M8.21739 15.0386H7.43478C7.2187 15.0386 7.04348 15.2138 7.04348 15.4299C7.04348 15.6459 7.2187 15.8212 7.43478 15.8212H8.21739C8.43347 15.8212 8.6087 15.6459 8.6087 15.4299C8.6087 15.2138 8.43351 15.0386 8.21739 15.0386Z" fill="#F0792E"/>
<path d="M8.21739 16.6038H7.43478C7.2187 16.6038 7.04348 16.779 7.04348 16.9951C7.04348 17.2112 7.2187 17.3864 7.43478 17.3864H8.21739C8.43347 17.3864 8.6087 17.2112 8.6087 16.9951C8.6087 16.779 8.43351 16.6038 8.21739 16.6038Z" fill="#F0792E"/>
<path d="M5.86957 15.0386H5.08696C4.87088 15.0386 4.69565 15.2138 4.69565 15.4299C4.69565 15.6459 4.87088 15.8212 5.08696 15.8212H5.86957C6.08564 15.8212 6.26087 15.6459 6.26087 15.4299C6.26087 15.2138 6.08568 15.0386 5.86957 15.0386Z" fill="#F0792E"/>
<path d="M5.86957 16.6038H5.08696C4.87088 16.6038 4.69565 16.779 4.69565 16.9951C4.69565 17.2112 4.87088 17.3864 5.08696 17.3864H5.86957C6.08564 17.3864 6.26087 17.2112 6.26087 16.9951C6.26087 16.779 6.08568 16.6038 5.86957 16.6038Z" fill="#F0792E"/>
<path d="M3.52174 15.0386H2.73913C2.52305 15.0386 2.34783 15.2138 2.34783 15.4299C2.34783 15.6459 2.52305 15.8212 2.73913 15.8212H3.52174C3.73782 15.8212 3.91304 15.6459 3.91304 15.4299C3.91304 15.2138 3.73786 15.0386 3.52174 15.0386Z" fill="#F0792E"/>
<path d="M3.52174 16.6038H2.73913C2.52305 16.6038 2.34783 16.779 2.34783 16.9951C2.34783 17.2112 2.52305 17.3864 2.73913 17.3864H3.52174C3.73782 17.3864 3.91304 17.2112 3.91304 16.9951C3.91304 16.779 3.73786 16.6038 3.52174 16.6038Z" fill="#F0792E"/>
<path d="M9.21706 9.03295e-06L8.04314 3.05277e-07C7.92391 -4.02798e-06 7.74783 8.65978e-06 7.60903 6.19681e-06L6.62009 9.03295e-06H5.69532C5.55652 9.03295e-06 5.4 9.03295e-06 5.2612 9.03295e-06H4.30435H3.34749C3.18913 9.03295e-06 3.07174 9.03295e-06 2.91338 9.03295e-06H1.73947C1.6306 0.072596 1.56522 0.194761 1.56522 0.325574V3.29949H1.17391C0.526617 3.29949 0 3.8261 0 4.4734V9.07514C0 9.71801 0.145565 10.3351 0.432626 10.9093C0.664826 11.3738 0.782609 11.8731 0.782609 12.3934V18.0125C0.782609 18.6598 1.30923 19.1864 1.95652 19.1864H9C9.6473 19.1864 10.1739 18.6598 10.1739 18.0125V13.4734H16.8261C17.4734 13.4734 18 12.9468 18 12.2995V6.82123C18 6.17393 17.4734 5.64731 16.8261 5.64731H10.9565V4.4734C10.9565 3.8261 10.4299 3.29949 9.78261 3.29949H9.3913V0.325574C9.3913 0.194761 9.32592 0.072596 9.21706 9.03295e-06ZM2.34783 0.535H3.13043H4.08729C4.28478 0.535 4.64275 0.535 4.79927 0.535H5.47826H6.43512C6.61304 0.535 6.73043 0.535 6.86923 0.535H7.82609H8.6087V4.8647H2.34783V0.535ZM16.8261 12.6908H10.1739V12.3934C10.1739 11.873 10.2917 11.3737 10.5239 10.9093C10.7379 10.4811 10.8732 10.0291 10.9282 9.56032H17.2174V12.2994C17.2174 12.5153 17.0419 12.6908 16.8261 12.6908ZM16.8261 6.42992C17.0419 6.42992 17.2174 6.60546 17.2174 6.82123V7.99514H10.9565V6.42992H16.8261ZM9.78261 4.0821C9.99837 4.0821 10.1739 4.25763 10.1739 4.4734V9.07518C10.1739 9.59554 10.0562 10.0949 9.82393 10.5593C9.53687 11.1333 9.3913 11.7504 9.3913 12.3934V18.0125C9.3913 18.2283 9.21576 18.4038 9 18.4038H1.95652C1.74076 18.4038 1.56522 18.2283 1.56522 18.0125V12.3934C1.56522 11.7505 1.41965 11.1334 1.13259 10.5593C0.900391 10.0948 0.782609 9.59546 0.782609 9.07514V4.4734C0.782609 4.25763 0.958148 4.0821 1.17391 4.0821H1.56522V5.25601C1.56522 5.47209 1.74044 5.64731 1.95652 5.64731H9C9.21608 5.64731 9.3913 5.47209 9.3913 5.25601V4.0821H9.78261Z" fill="#F0792E"/>
<path d="M7.43478 2.51682H3.52174C3.30566 2.51682 3.13043 2.69205 3.13043 2.90813C3.13043 3.1242 3.30566 3.29943 3.52174 3.29943H7.43478C7.65086 3.29943 7.82609 3.1242 7.82609 2.90813C7.82609 2.69205 7.6509 2.51682 7.43478 2.51682Z" fill="#F0792E"/>
<path d="M16.0435 11.1255H14.4783C14.2622 11.1255 14.087 11.3007 14.087 11.5168C14.087 11.7329 14.2622 11.9081 14.4783 11.9081H16.0435C16.2596 11.9081 16.4348 11.7329 16.4348 11.5168C16.4348 11.3007 16.2596 11.1255 16.0435 11.1255Z" fill="#F0792E"/>
</svg>
