<svg width="19" height="19" viewBox="0 0 19 19" fill="none" xmlns="http://www.w3.org/2000/svg">
<path d="M10.7257 1.50605C10.7257 1.47687 10.7257 1.47687 10.7257 1.44769C10.7257 0.776532 10.1713 0.251279 9.52931 0.251279C8.88733 0.251279 8.3329 0.776532 8.3329 1.44769C8.3329 1.47687 8.3329 1.47687 8.3329 1.50605M10.7257 1.50605C10.3464 1.47687 9.93784 1.44769 9.52931 1.44769C9.12078 1.44769 8.74143 1.47687 8.3329 1.50605M10.7257 1.50605C15.4822 4.19068 13.9648 8.91796 13.9648 8.91796M8.3329 1.50605C3.57644 4.19068 5.09384 8.91796 5.09384 8.91796M7.51584 17.3512C7.51584 17.9056 7.95355 18.3433 8.50798 18.3433C9.06242 18.3433 9.50013 17.9056 9.50013 17.3512V15.6879V8.91796L7.51584 17.3512Z" stroke="#F0792E" stroke-width="0.5" stroke-miterlimit="10" stroke-linecap="round" stroke-linejoin="round"/>
<path d="M15.599 10.7565C16.7079 11.2233 17.4958 12.3322 17.4958 13.6162C17.4958 15.3378 16.0951 16.7385 14.3734 16.7385C12.6518 16.7385 11.2511 15.3378 11.2511 13.6162C11.2511 11.8945 12.6518 10.4938 14.3734 10.4938H14.4026" stroke="#F0792E" stroke-width="0.5" stroke-miterlimit="10" stroke-linecap="round" stroke-linejoin="round"/>
<path d="M7.74896 14.1998C7.48633 15.6588 6.20238 16.7385 4.68498 16.7385C2.96331 16.7385 1.56264 15.3378 1.56264 13.6162C1.56264 11.8945 2.96331 10.4938 4.68498 10.4938C6.20238 10.4938 7.48633 11.5735 7.74896 13.0326" stroke="#F0792E" stroke-width="0.5" stroke-miterlimit="10" stroke-linecap="round" stroke-linejoin="round"/>
<path d="M5.48147 12.9772H5.16433H5.10622L5.09709 13.0346C5.07007 13.2044 4.9948 13.3397 4.87173 13.4444C4.74806 13.5495 4.58425 13.6162 4.37626 13.6407L4.24222 13.6564L4.33454 13.7548C4.5458 13.9801 4.8364 14.3194 5.20693 14.7734H4.84763C4.4554 14.3026 4.13537 13.9356 3.88782 13.6724V13.4372H4.09713C4.27312 13.4372 4.42186 13.4086 4.5385 13.3461L4.50634 13.2861M5.48147 12.9772L4.63078 12.6574C4.54204 12.5577 4.3853 12.5076 4.16065 12.5076H3.88134C3.86458 12.5076 3.85013 12.5015 3.83813 12.4895C3.82586 12.4772 3.81973 12.4629 3.81973 12.4461V12.1899C3.81973 12.1718 3.82545 12.1569 3.83704 12.1454C3.84863 12.134 3.86335 12.1281 3.88134 12.1281H5.48399C5.50198 12.1281 5.5167 12.134 5.52829 12.1454C5.53988 12.1569 5.5456 12.1718 5.5456 12.1899V12.3864C5.5456 12.4043 5.53988 12.4191 5.52829 12.4306C5.5167 12.4423 5.50198 12.4479 5.48399 12.4479H5.1188C5.10945 12.4337 5.09957 12.4198 5.08915 12.4063L5.03524 12.4479V12.516H5.08082C5.11681 12.5784 5.14268 12.6483 5.15847 12.7254H5.48781C5.50594 12.7254 5.52066 12.7312 5.53211 12.7427M5.48147 12.9772V12.7935M5.48147 12.9772H5.48794C5.48896 12.9772 5.48939 12.9771 5.48935 12.9771C5.48932 12.9771 5.48881 12.9772 5.48796 12.9775C5.48796 12.9776 5.48795 12.9776 5.48794 12.9776C5.48624 12.9782 5.48476 12.9792 5.48382 12.9801C5.48378 12.9801 5.48375 12.9802 5.48372 12.9802L5.47751 12.3798M4.50634 13.2861C4.58638 13.2435 4.64388 13.186 4.6789 13.1134H4.704V13.0453L4.63822 13.0277C4.63663 13.0337 4.63489 13.0395 4.63301 13.0453H3.88134C3.86335 13.0453 3.84863 13.0394 3.83704 13.028L3.88134 12.9842L3.88203 12.9835L3.88548 12.9801C3.88587 12.9805 3.88681 12.9817 3.88747 12.9834C3.88749 12.9834 3.8875 12.9835 3.88752 12.9835C3.88807 12.985 3.88782 12.9853 3.88782 12.9835V12.9772M4.50634 13.2861L4.53831 13.3462C4.6572 13.283 4.73629 13.1881 4.76978 13.0629L4.79268 12.9772H4.704H3.88782M4.50634 13.2861C4.40302 13.3415 4.26657 13.3691 4.09713 13.3691H3.88134C3.86458 13.3691 3.85026 13.375 3.83813 13.3873C3.82586 13.3994 3.81973 13.4141 3.81973 13.4306V13.6754C3.81973 13.6922 3.82545 13.7064 3.83704 13.7178C4.08363 13.9799 4.40343 14.3466 4.79642 14.8183C4.80801 14.8337 4.82423 14.8414 4.84468 14.8414H5.22036C5.24721 14.8414 5.26602 14.8297 5.27611 14.8065C5.28892 14.7835 5.28647 14.7618 5.26848 14.7411C4.92547 14.3206 4.64964 13.9967 4.44087 13.7694C4.42483 13.7718 4.40859 13.774 4.39215 13.7759L4.38421 13.7083L4.43387 13.6617C4.4444 13.6729 4.45512 13.6844 4.46603 13.6962C4.64719 13.6638 4.79721 13.5971 4.91583 13.4962C5.05187 13.3806 5.13489 13.2303 5.16433 13.0453H5.48794C5.50607 13.0453 5.52079 13.0397 5.53224 13.028C5.54383 13.0162 5.54969 13.0017 5.54956 12.9838V12.7872C5.54956 12.769 5.54369 12.7544 5.53211 12.7427M3.88782 12.9772V12.7936H4.67701H4.78762L4.7378 12.6948C4.64664 12.5142 4.43918 12.4395 4.16065 12.4395H3.88782V12.1962H5.47751M3.88782 12.9772L5.47751 12.3798M5.53211 12.7427L5.48781 12.7865L5.48712 12.7872L5.48367 12.7906C5.48339 12.7903 5.4825 12.7892 5.48185 12.7875C5.48179 12.7874 5.48175 12.7873 5.48171 12.7872C5.48148 12.7865 5.48142 12.7861 5.48142 12.7861C5.48142 12.7861 5.48147 12.7864 5.48147 12.7872V12.7935M5.53211 12.7427L5.48781 12.787L5.48764 12.7872L5.48395 12.7908C5.48463 12.7915 5.48593 12.7925 5.48757 12.7931C5.48765 12.7932 5.48773 12.7932 5.48781 12.7932C5.48912 12.7937 5.48937 12.7935 5.48781 12.7935H5.48147M5.48147 12.7935H5.15847H5.10291L5.09177 12.739C5.07181 12.6416 5.03472 12.5587 4.98133 12.4895L4.89671 12.3798H5.03524H5.47751M5.47751 12.3798V12.3864C5.47751 12.3871 5.47746 12.3874 5.47746 12.3874C5.47746 12.3874 5.47752 12.3871 5.47776 12.3864C5.47779 12.3863 5.47783 12.3862 5.47786 12.3861C5.47838 12.3848 5.47914 12.3836 5.47988 12.3827C5.47996 12.3826 5.48005 12.3825 5.48013 12.3825C5.48023 12.3824 5.48033 12.3823 5.48045 12.3822C5.48127 12.3815 5.48249 12.3807 5.48391 12.3802C5.48393 12.3801 5.48396 12.3801 5.48399 12.3801C5.48555 12.3795 5.48586 12.3798 5.48399 12.3798H5.47751ZM5.47751 12.3798V12.1962M5.47751 12.1962H5.48399C5.48465 12.1962 5.48495 12.1963 5.48495 12.1963C5.48495 12.1963 5.4846 12.1962 5.48399 12.196C5.48388 12.1959 5.48377 12.1959 5.48365 12.1959C5.48209 12.1952 5.48093 12.1944 5.48042 12.1939C5.47953 12.193 5.47851 12.1915 5.47785 12.1899C5.47784 12.1899 5.47783 12.1898 5.47782 12.1898C5.47752 12.189 5.47745 12.1886 5.47745 12.1886C5.47745 12.1886 5.47751 12.189 5.47751 12.1899V12.1962ZM5.48042 12.3821L5.4803 12.3823C5.48034 12.3822 5.48038 12.3822 5.48042 12.3821Z" fill="#F0792E" stroke="#F0792E" stroke-width="0.135484"/>
<path d="M15.247 12.9772H14.9298H14.8717L14.8626 13.0346C14.8356 13.2044 14.7603 13.3397 14.6372 13.4444C14.5136 13.5495 14.3498 13.6162 14.1418 13.6407L14.0077 13.6564L14.1 13.7548C14.3113 13.9801 14.6019 14.3194 14.9724 14.7734H14.6131C14.2209 14.3026 13.9009 13.9356 13.6533 13.6724V13.4372H13.8626C14.0386 13.4372 14.1874 13.4086 14.304 13.3461L14.2719 13.2861M15.247 12.9772L14.3963 12.6574C14.3075 12.5577 14.1508 12.5076 13.9262 12.5076H13.6469C13.6301 12.5076 13.6156 12.5015 13.6036 12.4895C13.5914 12.4772 13.5852 12.4629 13.5852 12.4461V12.1899C13.5852 12.1718 13.591 12.1569 13.6026 12.1454C13.6141 12.134 13.6289 12.1281 13.6469 12.1281H15.2495C15.2675 12.1281 15.2822 12.134 15.2938 12.1454C15.3054 12.1569 15.3111 12.1718 15.3111 12.1899V12.3864C15.3111 12.4043 15.3054 12.4191 15.2938 12.4306C15.2822 12.4423 15.2675 12.4479 15.2495 12.4479H14.8843C14.875 12.4337 14.8651 12.4198 14.8547 12.4063L14.8008 12.4479V12.516H14.8463C14.8823 12.5784 14.9082 12.6483 14.924 12.7254H15.2533C15.2714 12.7254 15.2862 12.7312 15.2976 12.7427M15.247 12.9772V12.7935M15.247 12.9772H15.2535C15.2545 12.9772 15.2549 12.9771 15.2549 12.9771C15.2548 12.9771 15.2543 12.9772 15.2535 12.9775C15.2535 12.9776 15.2535 12.9776 15.2535 12.9776C15.2518 12.9782 15.2503 12.9792 15.2493 12.9801C15.2493 12.9801 15.2493 12.9802 15.2492 12.9802L15.243 12.3798M14.2719 13.2861C14.3519 13.2435 14.4094 13.186 14.4444 13.1134H14.4695V13.0453L14.4037 13.0277C14.4021 13.0337 14.4004 13.0395 14.3985 13.0453H13.6469C13.6289 13.0453 13.6141 13.0394 13.6026 13.028L13.6469 12.9842L13.6475 12.9835L13.651 12.9801C13.6514 12.9805 13.6523 12.9817 13.653 12.9834C13.653 12.9834 13.653 12.9835 13.653 12.9835C13.6536 12.985 13.6533 12.9853 13.6533 12.9835V12.9772M14.2719 13.2861L14.3038 13.3462C14.4227 13.283 14.5018 13.1881 14.5353 13.0629L14.5582 12.9772H14.4695H13.6533M14.2719 13.2861C14.1685 13.3415 14.0321 13.3691 13.8626 13.3691H13.6469C13.6301 13.3691 13.6158 13.375 13.6036 13.3873C13.5914 13.3994 13.5852 13.4141 13.5852 13.4306V13.6754C13.5852 13.6922 13.591 13.7064 13.6026 13.7178C13.8491 13.9799 14.1689 14.3466 14.5619 14.8183C14.5735 14.8337 14.5897 14.8414 14.6102 14.8414H14.9859C15.0127 14.8414 15.0315 14.8297 15.0416 14.8065C15.0544 14.7835 15.052 14.7618 15.034 14.7411C14.691 14.3206 14.4151 13.9967 14.2064 13.7694C14.1903 13.7718 14.1741 13.774 14.1577 13.7759L14.1497 13.7083L14.1994 13.6617C14.2099 13.6729 14.2206 13.6844 14.2315 13.6962C14.4127 13.6638 14.5627 13.5971 14.6813 13.4962C14.8174 13.3806 14.9004 13.2303 14.9298 13.0453H15.2535C15.2716 13.0453 15.2863 13.0397 15.2978 13.028C15.3093 13.0162 15.3152 13.0017 15.3151 12.9838V12.7872C15.3151 12.769 15.3092 12.7544 15.2976 12.7427M13.6533 12.9772V12.7936H14.4425H14.5531L14.5033 12.6948C14.4122 12.5142 14.2047 12.4395 13.9262 12.4395H13.6533V12.1962H15.243M13.6533 12.9772L15.243 12.3798M15.2976 12.7427L15.2533 12.7865L15.2526 12.7872L15.2492 12.7906C15.2489 12.7903 15.248 12.7892 15.2474 12.7875C15.2473 12.7874 15.2473 12.7873 15.2472 12.7872C15.247 12.7865 15.2469 12.7861 15.2469 12.7861C15.2469 12.7861 15.247 12.7864 15.247 12.7872V12.7935M15.2976 12.7427L15.2533 12.787L15.2531 12.7872L15.2495 12.7908C15.2501 12.7915 15.2514 12.7925 15.2531 12.7931C15.2532 12.7932 15.2532 12.7932 15.2533 12.7932C15.2546 12.7937 15.2549 12.7935 15.2533 12.7935H15.247M15.247 12.7935H14.924H14.8684L14.8573 12.739C14.8373 12.6416 14.8002 12.5587 14.7468 12.4895L14.6622 12.3798H14.8008H15.243M15.243 12.3798V12.3864C15.243 12.3871 15.243 12.3874 15.243 12.3874C15.243 12.3874 15.243 12.3871 15.2433 12.3864C15.2433 12.3863 15.2433 12.3862 15.2434 12.3861C15.2439 12.3848 15.2447 12.3836 15.2454 12.3827C15.2455 12.3826 15.2456 12.3825 15.2456 12.3825C15.2457 12.3824 15.2458 12.3823 15.246 12.3822C15.2468 12.3815 15.248 12.3807 15.2494 12.3802C15.2494 12.3801 15.2495 12.3801 15.2495 12.3801C15.2511 12.3795 15.2514 12.3798 15.2495 12.3798H15.243ZM15.243 12.3798V12.1962M15.243 12.1962H15.2495C15.2502 12.1962 15.2505 12.1963 15.2505 12.1963C15.2505 12.1963 15.2501 12.1962 15.2495 12.196C15.2494 12.1959 15.2493 12.1959 15.2492 12.1959C15.2476 12.1952 15.2464 12.1944 15.2459 12.1939C15.245 12.193 15.244 12.1915 15.2434 12.1899C15.2434 12.1899 15.2433 12.1898 15.2433 12.1898C15.243 12.189 15.243 12.1886 15.243 12.1886C15.243 12.1886 15.243 12.189 15.243 12.1899V12.1962ZM15.2459 12.3821L15.2458 12.3823C15.2459 12.3822 15.2459 12.3822 15.2459 12.3821Z" fill="#F0792E" stroke="#F0792E" stroke-width="0.135484"/>
<path d="M17.1162 4.80358C18.0208 5.94163 18.546 7.31313 18.546 8.77216C18.546 8.85971 18.546 8.97643 18.546 9.06397C17.9916 8.53872 17.1162 8.18855 16.1532 8.18855C15.2778 8.18855 14.4899 8.45118 13.9355 8.91807C13.381 8.48036 12.5932 8.18855 11.7177 8.18855C10.8423 8.18855 10.0544 8.45118 9.5 8.91807C8.94557 8.48036 8.15769 8.18855 7.28226 8.18855C6.40684 8.18855 5.61896 8.45118 5.06453 8.91807C4.51009 8.48036 3.72221 8.18855 2.84679 8.18855C1.88383 8.18855 1.03758 8.53872 0.45397 9.06397C0.45397 8.97643 0.45397 8.88889 0.45397 8.77216C0.512332 4.71604 4.53927 1.4478 9.52918 1.4478C12.0971 1.4478 14.4024 2.32322 16.0365 3.69471" stroke="#F0792E" stroke-width="0.903226" stroke-miterlimit="10" stroke-linecap="round" stroke-linejoin="round"/>
</svg>
