<svg width="16" height="17" viewBox="0 0 16 17" fill="none" xmlns="http://www.w3.org/2000/svg">
<path d="M6.66634 7.79181H4.73367L4.73434 7.78543C4.82139 7.33255 4.99176 6.90239 5.23567 6.51964C5.59864 5.95143 6.10777 5.50613 6.70234 5.23685C6.90367 5.14618 7.11367 5.07677 7.32767 5.03073C7.7716 4.9351 8.22908 4.9351 8.67301 5.03073C9.31099 5.16963 9.89641 5.50489 10.3563 5.99477L11.3003 4.9946C10.8749 4.54243 10.3715 4.18146 9.81767 3.93139C9.53522 3.80434 9.24154 3.70753 8.94101 3.64239C8.3209 3.50853 7.68178 3.50853 7.06168 3.64239C6.76091 3.7078 6.46702 3.80484 6.18434 3.9321C5.35136 4.30759 4.63829 4.93091 4.13101 5.72702C3.7896 6.26383 3.55085 6.86672 3.42834 7.50139C3.40967 7.59702 3.39967 7.69477 3.38634 7.79181H1.33301L3.99967 10.6251L6.66634 7.79181ZM9.33301 9.20848H11.2657L11.265 9.21414C11.0908 10.1221 10.5872 10.9206 9.86301 11.4369C9.50288 11.6963 9.09799 11.8773 8.67167 11.9696C8.22797 12.0652 7.77071 12.0652 7.32701 11.9696C6.90076 11.8771 6.49591 11.6961 6.13567 11.4369C5.95876 11.3097 5.79357 11.1651 5.64234 11.0048L4.69967 12.0064C5.12535 12.4584 5.62896 12.8192 6.18301 13.0689C6.46567 13.1964 6.76101 13.2934 7.05967 13.3579C7.67955 13.4918 8.31846 13.4918 8.93834 13.3579C10.1334 13.0944 11.1845 12.346 11.8683 11.2719C12.2094 10.7354 12.4479 10.133 12.5703 9.49889C12.5883 9.40327 12.599 9.30552 12.6123 9.20848H14.6663L11.9997 6.37514L9.33301 9.20848Z" fill="#20446C"/>
</svg>
