<svg width="17" height="12" viewBox="0 0 17 12" fill="none" xmlns="http://www.w3.org/2000/svg">
<path d="M14.0259 11.8499L14.0261 11.8499C14.6683 11.8492 15.284 11.5937 15.7381 11.1396C16.1923 10.6855 16.4477 10.0698 16.4485 9.42756V9.42738V2.57232V2.57215C16.4477 1.92993 16.1923 1.31423 15.7381 0.860117C15.284 0.406 14.6683 0.150547 14.0261 0.149792H14.0259L2.57232 0.149792L2.57215 0.149793C1.92993 0.150547 1.31423 0.406001 0.860117 0.860117C0.406001 1.31423 0.150547 1.92993 0.149792 2.57215V2.57232L0.149792 9.42738L0.149793 9.42756C0.150547 10.0698 0.406001 10.6855 0.860117 11.1396C1.31423 11.5937 1.92993 11.8492 2.57215 11.8499H2.57232L14.0259 11.8499ZM1.6386 1.6386C1.88624 1.39096 2.22211 1.25184 2.57232 1.25184H14.0259C14.3761 1.25184 14.712 1.39096 14.9597 1.6386C15.2073 1.88624 15.3464 2.22211 15.3464 2.57232V9.42738C15.3464 9.77759 15.2073 10.1135 14.9597 10.3611C14.712 10.6087 14.3761 10.7479 14.0259 10.7479H2.57232C2.22211 10.7479 1.88624 10.6087 1.6386 10.3611C1.39096 10.1135 1.25184 9.77759 1.25184 9.42738V2.57232C1.25184 2.22211 1.39096 1.88624 1.6386 1.6386Z" fill="white" stroke="white" stroke-width="0.3"/>
<path d="M8.29961 7.77418C8.82687 7.77495 9.34003 7.60387 9.76134 7.28686L9.76164 7.28663L16.0025 2.56658C16.0621 2.52429 16.1127 2.47058 16.1513 2.40854C16.1904 2.3457 16.2165 2.27561 16.228 2.20246C16.2394 2.12931 16.236 2.0546 16.218 1.98279C16.1999 1.91099 16.1676 1.84356 16.1229 1.78454C16.0782 1.72551 16.022 1.6761 15.9578 1.63926C15.8936 1.60241 15.8226 1.57888 15.7491 1.57009C15.6756 1.56129 15.601 1.56739 15.5299 1.58804C15.4598 1.60842 15.3944 1.64254 15.3375 1.68841L9.09752 6.41318C9.09737 6.41329 9.09721 6.41341 9.09705 6.41352C8.86669 6.58533 8.587 6.67815 8.29961 6.67815C8.0122 6.67815 7.73249 6.58531 7.50211 6.41348C7.50198 6.41338 7.50184 6.41328 7.50171 6.41318L1.26172 1.68842C1.20488 1.64254 1.13948 1.60842 1.06932 1.58804C0.998213 1.56739 0.923678 1.56129 0.850161 1.57009C0.776645 1.57888 0.705656 1.60241 0.641433 1.63926C0.577211 1.6761 0.521073 1.72551 0.476372 1.78454C0.431672 1.84356 0.399325 1.91099 0.381264 1.98279C0.363203 2.0546 0.359798 2.12931 0.371253 2.20246C0.382708 2.27561 0.408788 2.3457 0.447935 2.40854C0.486574 2.47057 0.537162 2.52429 0.596744 2.56657L6.83759 7.28663L6.83789 7.28686C7.2592 7.60387 7.77235 7.77495 8.29961 7.77418ZM8.29961 7.77418C8.29954 7.77418 8.29946 7.77418 8.29938 7.77418L8.29961 7.62419L8.29985 7.77418C8.29977 7.77418 8.29969 7.77418 8.29961 7.77418Z" fill="white" stroke="white" stroke-width="0.3"/>
<path d="M0.856855 10.7329C0.992952 10.7343 1.12456 10.6842 1.22536 10.5928C1.22556 10.5926 1.22575 10.5924 1.22594 10.5923L6.14422 6.20592L6.14428 6.20587C6.25337 6.10847 6.3193 5.97172 6.32757 5.82571C6.33583 5.6797 6.28575 5.53638 6.18835 5.42729L6.07699 5.52673L6.18835 5.42729C6.09095 5.3182 5.9542 5.25227 5.80819 5.24401C5.66221 5.23575 5.51892 5.2858 5.40984 5.38317C5.40982 5.38319 5.4098 5.3832 5.40978 5.38322L0.490514 9.77046M0.856855 10.7329C0.745451 10.7329 0.636664 10.6991 0.544852 10.6359L0.629142 10.5133L0.544852 10.6359C0.452763 10.5726 0.382105 10.4828 0.342253 10.3784C0.302402 10.274 0.295241 10.1599 0.32172 10.0513C0.3482 9.94276 0.407068 9.8448 0.490514 9.77046M0.856855 10.7329C0.856521 10.7329 0.856187 10.7329 0.855853 10.7329L0.857644 10.5829M0.856855 10.7329C0.857191 10.7329 0.857528 10.7329 0.857864 10.7329L0.857644 10.5829M0.490514 9.77046L0.590286 9.88245M0.490514 9.77046L0.490455 9.77051L0.590286 9.88245M0.590286 9.88245C0.529554 9.93655 0.486709 10.0078 0.467437 10.0869C0.448165 10.1659 0.453377 10.2489 0.482381 10.3249C0.511385 10.4009 0.56281 10.4663 0.629833 10.5123C0.696855 10.5584 0.776306 10.583 0.857644 10.5829M0.590286 9.88245L0.857644 10.5829M15.7406 10.7329C15.6041 10.7345 15.4721 10.6845 15.371 10.5928C15.3709 10.5926 15.3707 10.5924 15.3705 10.5923L10.4522 6.20592L10.4521 6.20587C10.3981 6.15764 10.3541 6.09924 10.3227 6.03402C10.2912 5.96879 10.273 5.898 10.2689 5.82571C10.2648 5.75341 10.275 5.68101 10.2988 5.61266C10.3227 5.54429 10.3599 5.48131 10.4081 5.42729C10.4563 5.37328 10.5147 5.32929 10.5799 5.29784C10.6452 5.26639 10.7159 5.2481 10.7882 5.24401C10.8605 5.23992 10.9329 5.2501 11.0013 5.27399L10.9518 5.41558L11.0013 5.27399C11.0697 5.29788 11.1326 5.33499 11.1867 5.38322L16.1032 9.77046L15.7406 10.7329ZM15.7406 10.7329C15.8507 10.7321 15.9581 10.6984 16.0489 10.6359C16.141 10.5726 16.2117 10.4828 16.2515 10.3784C16.2914 10.274 16.2985 10.1599 16.272 10.0513C16.2456 9.94279 16.1867 9.84487 16.1033 9.77054L15.7406 10.7329Z" fill="white" stroke="white" stroke-width="0.3"/>
</svg>
