<svg width="104" height="93" viewBox="0 0 104 93" fill="none" xmlns="http://www.w3.org/2000/svg">
<path d="M48.0433 0.26374C77.3613 -2.25945 77.4204 13.7812 90.6348 28.7368C103.849 43.6925 106.675 50.4616 101.695 67.711C96.716 84.9605 79.9172 98.4619 59.1605 90.8051C38.4038 83.1484 26.4992 90.5024 13.4031 83.6943C0.306884 76.8863 -4.56606 63.7565 5.02851 48.2755C14.6231 32.7946 11.8828 3.38791 48.0433 0.26374Z" fill="#92140C"/>
<path d="M40.4265 23.0847C40.7315 23.7998 40.816 24.5908 40.6692 25.3578C40.5224 26.1248 40.151 26.8332 39.6019 27.3934C39.0528 27.9536 38.3507 28.3404 37.5845 28.5049C36.8183 28.6694 36.0224 28.6041 35.2976 28.3174C34.5727 28.0307 33.9515 27.5353 33.5125 26.8941C33.0736 26.2529 32.8366 25.4946 32.8315 24.7152C32.8265 23.9358 33.0536 23.1703 33.4842 22.5156C33.9148 21.8608 34.5295 21.3464 35.2504 21.0372C35.7283 20.8316 36.2413 20.7215 36.7601 20.7131C37.2789 20.7048 37.7934 20.7983 38.274 20.9885C38.7547 21.1786 39.1922 21.4616 39.5616 21.8213C39.9309 22.181 40.2248 22.6103 40.4265 23.0847Z" fill="#F9C0A8"/>
<path d="M39.5586 23.4573C39.7911 24.0023 39.8554 24.6051 39.7435 25.1896C39.6316 25.7741 39.3485 26.3139 38.93 26.7408C38.5115 27.1677 37.9764 27.4624 37.3925 27.5877C36.8086 27.713 36.2021 27.6632 35.6497 27.4446C35.0974 27.226 34.624 26.8485 34.2896 26.3598C33.9551 25.8711 33.7746 25.2932 33.7708 24.6992C33.7671 24.1052 33.9403 23.5219 34.2685 23.023C34.5968 22.5241 35.0653 22.1321 35.6148 21.8967C35.9789 21.7401 36.3698 21.6562 36.7652 21.6499C37.1605 21.6436 37.5525 21.7149 37.9187 21.8598C38.285 22.0048 38.6183 22.2205 38.8997 22.4946C39.1811 22.7687 39.405 23.0958 39.5586 23.4573Z" fill="#FCD3C3"/>
<path d="M36.7398 23.0081C36.8284 22.9202 36.8309 22.7794 36.7455 22.6935C36.66 22.6077 36.5189 22.6094 36.4303 22.6973L35.1598 23.9577C35.0712 24.0456 35.0687 24.1865 35.1542 24.2723C35.2396 24.3581 35.3807 24.3564 35.4693 24.2685L35.8335 23.9073C35.9838 23.7577 36.2053 23.7071 36.3998 23.7779L35.6876 24.4846C35.599 24.5724 35.5965 24.7134 35.6819 24.7992C35.7674 24.885 35.9086 24.8833 35.9971 24.7954L36.7094 24.0888C36.7782 24.2836 36.7263 24.5038 36.5763 24.6533L36.2122 25.0146C36.1465 25.0799 36.1261 25.1775 36.1606 25.2609C36.1952 25.3443 36.2778 25.3968 36.3692 25.3933L38.1052 25.3241C38.1623 25.3215 38.2168 25.2972 38.2576 25.2563C38.3015 25.2123 38.3264 25.1531 38.3268 25.0919C38.3262 25.0331 38.3023 24.9776 38.2601 24.9377C38.218 24.8978 38.1612 24.8767 38.1022 24.8791L36.9243 24.926C37.2194 24.5985 37.2696 24.1228 37.0478 23.7562L37.2676 23.5382C37.3562 23.4502 37.3587 23.3094 37.2732 23.2236C37.1877 23.1377 37.0466 23.1394 36.958 23.2273L36.7383 23.4453C36.6425 23.3864 36.5366 23.345 36.4254 23.3232L36.7414 23.0097L36.7398 23.0081Z" fill="#F38D5D"/>
<path d="M39.5216 23.3728C39.5043 23.3763 39.4424 23.2649 39.3077 23.0731C39.12 22.8029 38.891 22.5637 38.6289 22.3644C38.4484 22.2292 38.2537 22.1139 38.048 22.0207C37.8114 21.9158 37.562 21.8417 37.3059 21.8003C37.1683 21.7771 37.029 21.7644 36.8893 21.7625C36.5937 21.7568 36.2986 21.7954 36.0138 21.8772C35.8644 21.9206 35.7183 21.975 35.5769 22.04C35.436 22.1067 35.3001 22.1833 35.17 22.2692C35.0445 22.3538 34.9256 22.4478 34.8144 22.5504C34.7062 22.6484 34.6061 22.7549 34.515 22.8688C34.4266 22.9785 34.3464 23.0944 34.2751 23.2157C34.1418 23.4386 34.0377 23.6774 33.9653 23.9263C33.9027 24.1438 33.8645 24.3674 33.8514 24.5928C33.8339 24.9225 33.8677 25.2525 33.9517 25.5709C34.0115 25.7979 34.0588 25.9212 34.0423 25.9286C34.0258 25.9359 33.9537 25.8236 33.8663 25.5983C33.7445 25.2765 33.6841 24.9345 33.6881 24.5895C33.6943 24.0711 33.8343 23.5618 34.0947 23.1107C34.2482 22.8436 34.4402 22.6002 34.6647 22.3885C34.7835 22.2767 34.9112 22.1745 35.0465 22.0831C35.186 21.9893 35.3324 21.9062 35.4844 21.8346C35.6372 21.7642 35.7951 21.7056 35.9568 21.6595C36.1139 21.6139 36.2743 21.5811 36.4364 21.5613C36.5922 21.5428 36.7492 21.5365 36.9058 21.5427C37.0558 21.5474 37.2052 21.5637 37.3525 21.5913C37.6234 21.643 37.8858 21.7308 38.1326 21.8525C38.3457 21.957 38.5455 22.0864 38.7276 22.2379C38.9932 22.4572 39.2151 22.7242 39.3821 23.0252C39.4988 23.2375 39.5344 23.3672 39.5216 23.3728Z" fill="#F38D5D"/>
<path d="M62.8244 70.6661C62.7504 71.2774 62.4951 71.8534 62.0907 72.3214C61.6862 72.7894 61.1509 73.1282 60.5524 73.295C59.9539 73.4618 59.3191 73.4491 58.7284 73.2585C58.1377 73.0679 57.6176 72.7079 57.2339 72.2242C56.8503 71.7405 56.6203 71.1547 56.5732 70.541C56.526 69.9273 56.6637 69.3133 56.9689 68.7766C57.2742 68.24 57.7331 67.8049 58.2878 67.5263C58.8424 67.2477 59.4678 67.1383 60.0848 67.2117C60.494 67.26 60.8895 67.3876 61.2487 67.5873C61.6079 67.787 61.9237 68.0549 62.1781 68.3757C62.4325 68.6965 62.6205 69.0639 62.7314 69.4569C62.8423 69.8499 62.8739 70.2608 62.8244 70.6661Z" fill="#F9C0A8"/>
<path d="M62.0817 70.5779C62.0253 71.0438 61.8307 71.4828 61.5225 71.8394C61.2142 72.196 60.8062 72.4542 60.3501 72.5812C59.894 72.7083 59.4102 72.6986 58.9601 72.5533C58.5099 72.408 58.1136 72.1336 57.8213 71.7649C57.529 71.3963 57.3538 70.9498 57.3179 70.4821C57.2821 70.0145 57.3871 69.5465 57.6198 69.1376C57.8524 68.7287 58.2023 68.3972 58.625 68.185C59.0477 67.9728 59.5243 67.8894 59.9945 67.9455C60.3063 67.9823 60.6077 68.0796 60.8813 68.2318C61.155 68.384 61.3956 68.5882 61.5894 68.8327C61.7833 69.0771 61.9265 69.3571 62.011 69.6566C62.0954 69.956 62.1194 70.2691 62.0817 70.5779Z" fill="#FCD3C3"/>
<path d="M60.3252 69.1528C60.4208 69.1276 60.4783 69.032 60.4537 68.9392C60.429 68.8465 60.3316 68.7917 60.236 68.8169L58.8653 69.1784C58.7698 69.2036 58.7123 69.2992 58.7369 69.3919C58.7615 69.4847 58.859 69.5394 58.9546 69.5142L59.3474 69.4106C59.5098 69.3675 59.6818 69.4205 59.7871 69.5462L59.0187 69.7488C58.9232 69.774 58.8656 69.8697 58.8902 69.9624C58.9149 70.0551 59.0124 70.1098 59.1079 70.0846L59.8763 69.882C59.8465 70.0429 59.7236 70.1734 59.5615 70.2166L59.1687 70.3201C59.0977 70.3389 59.045 70.3978 59.0357 70.4687C59.0264 70.5396 59.0623 70.6083 59.1264 70.6421L60.3446 71.2821C60.3848 71.303 60.4318 71.3079 60.476 71.296C60.5235 71.2832 60.564 71.2524 60.5885 71.2106C60.6115 71.1701 60.617 71.1225 60.6039 71.0784C60.5908 71.0344 60.5602 70.9974 60.5187 70.9757L59.6922 70.5414C60.0243 70.4336 60.2472 70.1272 60.2402 69.7879L60.4773 69.7253C60.5729 69.7001 60.6304 69.6045 60.6058 69.5118C60.5811 69.4191 60.4837 69.3643 60.3881 69.3895L60.151 69.4521C60.1087 69.3737 60.0523 69.3034 59.9847 69.2444L60.3256 69.1545L60.3252 69.1528Z" fill="#F38D5D"/>
<path d="M62.089 70.5055C62.0757 70.5011 62.0774 70.4001 62.061 70.2152C62.0393 69.9555 61.9769 69.7008 61.876 69.4602C61.8058 69.296 61.7178 69.1399 61.6137 68.9944C61.4929 68.8288 61.3512 68.6792 61.192 68.5494C61.1068 68.479 61.0162 68.4151 60.9211 68.3585C60.7207 68.2375 60.5029 68.1471 60.2752 68.0904C60.1555 68.061 60.0338 68.0405 59.911 68.0291C59.788 68.019 59.6644 68.0177 59.5411 68.0252C59.4215 68.0335 59.3028 68.0509 59.1858 68.0772C59.0728 68.1016 58.962 68.135 58.8544 68.177C58.7503 68.2172 58.6494 68.265 58.5524 68.32C58.3727 68.4201 58.2067 68.5427 58.0585 68.6847C57.9294 68.8091 57.8147 68.9473 57.7164 69.0968C57.5738 69.316 57.4664 69.5557 57.3979 69.8074C57.349 69.9868 57.3326 70.0902 57.3184 70.0887C57.3042 70.0872 57.2992 69.9816 57.3285 69.7924C57.3723 69.5235 57.4664 69.2649 57.6057 69.0299C57.8153 68.6767 58.113 68.3828 58.4703 68.1765C58.6813 68.0541 58.9095 67.9632 59.1472 67.9069C59.2731 67.8772 59.4011 67.8577 59.5301 67.8485C59.6629 67.8394 59.7963 67.8405 59.9289 67.8515C60.0616 67.8637 60.1931 67.8861 60.3223 67.9185C60.4481 67.9494 60.5711 67.9904 60.6901 68.0411C60.8044 68.0901 60.9145 68.148 61.0195 68.2142C61.1205 68.2769 61.2165 68.3472 61.3067 68.4244C61.472 68.5672 61.6172 68.7314 61.7383 68.9126C61.8431 69.0686 61.9289 69.2365 61.9938 69.4126C62.0892 69.6682 62.1357 69.9392 62.131 70.2118C62.127 70.4037 62.1 70.5067 62.089 70.5055Z" fill="#F38D5D"/>
<path d="M30.5679 26.2858C30.8095 26.8521 30.8764 27.4787 30.7602 28.0862C30.6439 28.6937 30.3497 29.2548 29.9148 29.6985C29.4798 30.1422 28.9237 30.4486 28.3169 30.5789C27.71 30.7092 27.0796 30.6575 26.5055 30.4304C25.9314 30.2033 25.4393 29.8109 25.0916 29.3031C24.744 28.7952 24.5562 28.1945 24.5522 27.5772C24.5482 26.9599 24.7281 26.3535 25.0692 25.835C25.4102 25.3164 25.8971 24.9089 26.4682 24.664C26.8467 24.5012 27.253 24.414 27.6639 24.4073C28.0748 24.4007 28.4823 24.4748 28.863 24.6254C29.2438 24.776 29.5903 25.0002 29.8828 25.2851C30.1754 25.57 30.4081 25.91 30.5679 26.2858Z" fill="#F9C0A8"/>
<path d="M29.8809 26.581C30.065 27.0126 30.1159 27.4901 30.0273 27.9531C29.9387 28.416 29.7144 28.8436 29.3829 29.1817C29.0515 29.5198 28.6277 29.7533 28.1652 29.8525C27.7027 29.9518 27.2223 29.9123 26.7848 29.7392C26.3473 29.5661 25.9724 29.267 25.7075 28.8799C25.4425 28.4928 25.2996 28.0351 25.2966 27.5646C25.2936 27.0942 25.4308 26.6321 25.6908 26.237C25.9508 25.8419 26.3219 25.5314 26.7571 25.3449C27.0455 25.2208 27.3552 25.1544 27.6683 25.1494C27.9814 25.1444 28.2919 25.2009 28.5819 25.3157C28.872 25.4305 29.1361 25.6014 29.3589 25.8185C29.5818 26.0356 29.7592 26.2947 29.8809 26.581Z" fill="#FCD3C3"/>
<path d="M27.6483 26.2246C27.7185 26.1549 27.7205 26.0434 27.6528 25.9754C27.5851 25.9075 27.4733 25.9087 27.4032 25.9784L26.3969 26.9767C26.3267 27.0463 26.3247 27.1579 26.3924 27.2259C26.4601 27.2938 26.5719 27.2925 26.642 27.2229L26.9305 26.9368C27.0495 26.8183 27.225 26.7782 27.3791 26.8343L26.8149 27.394C26.7448 27.4636 26.7428 27.5752 26.8104 27.6432C26.8781 27.7112 26.9899 27.7098 27.0601 27.6402L27.6242 27.0805C27.6788 27.2348 27.6376 27.4093 27.5188 27.5277L27.2304 27.8138C27.1784 27.8656 27.1622 27.9429 27.1896 28.0089C27.217 28.075 27.2824 28.1165 27.3548 28.1138L28.7298 28.059C28.775 28.0569 28.8182 28.0377 28.8505 28.0052C28.8853 27.9704 28.905 27.9235 28.9053 27.8751C28.9049 27.8285 28.8859 27.7845 28.8525 27.7529C28.8192 27.7213 28.7741 27.7046 28.7274 27.7065L27.7945 27.7437C28.0282 27.4843 28.068 27.1075 27.8923 26.8171L28.0664 26.6444C28.1365 26.5748 28.1385 26.4632 28.0708 26.3952C28.0031 26.3272 27.8914 26.3286 27.8212 26.3982L27.6471 26.5709C27.5713 26.5242 27.4873 26.4914 27.3993 26.4741L27.6496 26.2258L27.6483 26.2246Z" fill="#F38D5D"/>
<path d="M29.8522 26.5148C29.8385 26.5176 29.7895 26.4294 29.6828 26.2774C29.5341 26.0634 29.3527 25.874 29.1451 25.716C29.0022 25.609 28.8479 25.5177 28.6851 25.4438C28.4977 25.3608 28.3001 25.3021 28.0973 25.2693C27.9883 25.2509 27.878 25.2409 27.7673 25.2393C27.5332 25.2348 27.2994 25.2654 27.0738 25.3301C26.9555 25.3645 26.8398 25.4076 26.7278 25.4591C26.6162 25.512 26.5085 25.5726 26.4055 25.6407C26.3061 25.7077 26.2119 25.7821 26.1238 25.8634C26.0381 25.941 25.9588 26.0254 25.8867 26.1156C25.8167 26.2024 25.7532 26.2943 25.6967 26.3903C25.5911 26.5669 25.5086 26.7561 25.4513 26.9532C25.4017 27.1255 25.3715 27.3025 25.3611 27.4811C25.3472 27.7422 25.374 28.0036 25.4406 28.2558C25.4879 28.4356 25.5254 28.5333 25.5123 28.5391C25.4992 28.5449 25.4421 28.456 25.3729 28.2775C25.2764 28.0227 25.2286 27.7517 25.2318 27.4785C25.2367 27.0679 25.3476 26.6645 25.5538 26.3072C25.6754 26.0956 25.8275 25.9029 26.0052 25.7352C26.0994 25.6466 26.2005 25.5657 26.3076 25.4932C26.4181 25.4189 26.5341 25.3532 26.6545 25.2964C26.7755 25.2406 26.9006 25.1943 27.0287 25.1578C27.1531 25.1216 27.2801 25.0956 27.4086 25.08C27.532 25.0653 27.6563 25.0603 27.7803 25.0652C27.8992 25.069 28.0175 25.0818 28.1341 25.1037C28.3487 25.1447 28.5566 25.2142 28.752 25.3106C28.9208 25.3934 29.0791 25.4958 29.2234 25.6159C29.4337 25.7896 29.6095 26.001 29.7417 26.2394C29.8342 26.4076 29.8624 26.5103 29.8522 26.5148Z" fill="#F38D5D"/>
<path d="M56.3308 75.5169C56.2375 76.2887 55.9151 77.016 55.4045 77.6068C54.8939 78.1976 54.218 78.6254 53.4624 78.836C52.7067 79.0466 51.9053 79.0306 51.1595 78.7899C50.4137 78.5493 49.7571 78.0948 49.2727 77.4841C48.7884 76.8734 48.498 76.1338 48.4385 75.359C48.3789 74.5842 48.5528 73.809 48.9382 73.1315C49.3235 72.4539 49.903 71.9046 50.6032 71.5529C51.3035 71.2012 52.093 71.063 52.872 71.1557C53.3886 71.2166 53.888 71.3777 54.3415 71.6299C54.7949 71.882 55.1937 72.2203 55.5149 72.6253C55.8361 73.0303 56.0735 73.4942 56.2135 73.9903C56.3535 74.4865 56.3934 75.0052 56.3308 75.5169Z" fill="#F9C0A8"/>
<path d="M55.3942 75.4064C55.3231 75.9945 55.0774 76.5487 54.6882 76.999C54.299 77.4492 53.7839 77.7752 53.2081 77.9356C52.6322 78.0961 52.0215 78.0838 51.4531 77.9003C50.8848 77.7169 50.3844 77.3705 50.0154 76.905C49.6463 76.4395 49.4252 75.8759 49.3799 75.2854C49.3346 74.695 49.4672 74.1042 49.7609 73.5879C50.0547 73.0717 50.4963 72.6531 51.03 72.3852C51.5637 72.1173 52.1655 72.012 52.7591 72.0829C53.1528 72.1293 53.5332 72.2521 53.8787 72.4443C54.2242 72.6365 54.528 72.8943 54.7728 73.2029C55.0175 73.5116 55.1983 73.865 55.3049 74.2431C55.4116 74.6212 55.4419 75.0165 55.3942 75.4064Z" fill="#FCD3C3"/>
<path d="M53.1764 73.6067C53.297 73.5749 53.3696 73.4542 53.3385 73.3371C53.3075 73.2201 53.1844 73.1509 53.0637 73.1827L51.3332 73.639C51.2126 73.6709 51.14 73.7916 51.1711 73.9086C51.2022 74.0257 51.3252 74.0948 51.4459 74.063L51.9418 73.9322C52.1469 73.8778 52.364 73.9448 52.497 74.1034L51.5269 74.3592C51.4063 74.391 51.3336 74.5118 51.3647 74.6288C51.3958 74.7459 51.5189 74.815 51.6395 74.7832L52.6097 74.5274C52.5719 74.7305 52.4168 74.8953 52.2122 74.9498L51.7162 75.0805C51.6266 75.1043 51.5601 75.1786 51.5484 75.2681C51.5366 75.3576 51.582 75.4443 51.6628 75.4871L53.2008 76.2951C53.2516 76.3214 53.3109 76.3276 53.3667 76.3126C53.4267 76.2964 53.4779 76.2575 53.5088 76.2048C53.5378 76.1536 53.5447 76.0935 53.5282 76.0379C53.5117 75.9823 53.473 75.9356 53.4207 75.9082L52.3772 75.3599C52.7965 75.2238 53.0779 74.8369 53.0691 74.4085L53.3684 74.3296C53.4891 74.2978 53.5617 74.1771 53.5306 74.06C53.4995 73.9429 53.3765 73.8738 53.2558 73.9056L52.9564 73.9845C52.903 73.8857 52.8319 73.7968 52.7465 73.7223L53.1769 73.6088L53.1764 73.6067Z" fill="#F38D5D"/>
<path d="M55.4043 75.3151C55.3876 75.3095 55.3897 75.182 55.369 74.9486C55.3416 74.6207 55.2628 74.2991 55.1355 73.9954C55.0468 73.7881 54.9357 73.5909 54.8043 73.4073C54.6518 73.1982 54.4729 73.0094 54.2718 72.8454C54.1643 72.7565 54.0499 72.6759 53.9299 72.6043C53.6768 72.4516 53.4018 72.3375 53.1143 72.2659C52.9632 72.2288 52.8095 72.2029 52.6545 72.1885C52.4992 72.1758 52.3432 72.1742 52.1876 72.1835C52.0366 72.194 51.8866 72.216 51.739 72.2493C51.5963 72.28 51.4564 72.3222 51.3205 72.3753C51.1892 72.4261 51.0617 72.4864 50.9393 72.5558C50.7124 72.6822 50.5028 72.8369 50.3158 73.0163C50.1528 73.1733 50.0079 73.3478 49.8839 73.5366C49.7038 73.8133 49.5682 74.116 49.4817 74.4337C49.42 74.6602 49.3993 74.7907 49.3813 74.7888C49.3633 74.7869 49.3571 74.6536 49.394 74.4148C49.4494 74.0752 49.5681 73.7488 49.7441 73.452C50.0086 73.0062 50.3845 72.6351 50.8356 72.3746C51.1021 72.2201 51.3901 72.1053 51.6903 72.0342C51.8492 71.9968 52.0108 71.9722 52.1737 71.9606C52.3414 71.9491 52.5097 71.9504 52.6772 71.9644C52.8447 71.9797 53.0108 72.008 53.1738 72.0489C53.3326 72.088 53.488 72.1397 53.6383 72.2037C53.7825 72.2655 53.9215 72.3386 54.0541 72.4223C54.1816 72.5014 54.3029 72.5901 54.4166 72.6876C54.6254 72.8679 54.8087 73.0752 54.9616 73.3039C55.0939 73.501 55.2022 73.7129 55.2842 73.9353C55.4045 74.258 55.4633 74.6001 55.4574 74.9442C55.4523 75.1865 55.4183 75.3166 55.4043 75.3151Z" fill="#F38D5D"/>
<g clip-path="url(#clip0_2120_11223)">
<path d="M76.8012 37.9953L63.7627 37.3657L62.8086 56.8005L75.8471 57.43L76.8012 37.9953Z" fill="white" stroke="#263238" stroke-width="0.114759" stroke-linecap="round" stroke-linejoin="round"/>
<path d="M64.6756 38.7368L68.0696 38.8939" stroke="#263238" stroke-width="0.229517" stroke-linecap="round" stroke-linejoin="round"/>
<path d="M64.6448 39.3832L66.9531 39.4892" stroke="#263238" stroke-width="0.229517" stroke-linecap="round" stroke-linejoin="round"/>
<path d="M65.3995 40.947L75.1618 41.3976" stroke="#263238" stroke-width="0.229517" stroke-linecap="round" stroke-linejoin="round"/>
<path d="M65.37 41.591L75.132 42.0431" stroke="#263238" stroke-width="0.229517" stroke-linecap="round" stroke-linejoin="round"/>
<path d="M65.3353 42.3453L73.6604 42.7308" stroke="#263238" stroke-width="0.229517" stroke-linecap="round" stroke-linejoin="round"/>
<path d="M66.1391 43.0709L65.3452 43.0342L65.3082 43.8215L66.1022 43.8582L66.1391 43.0709Z" stroke="#263238" stroke-width="0.114759" stroke-linecap="round" stroke-linejoin="round"/>
<path d="M67.5766 43.1363L66.7827 43.0996L66.7457 43.887L67.5397 43.9236L67.5766 43.1363Z" stroke="#263238" stroke-width="0.114759" stroke-linecap="round" stroke-linejoin="round"/>
<path d="M69.0176 43.2037L68.2236 43.167L68.1867 43.9544L68.9806 43.991L69.0176 43.2037Z" stroke="#263238" stroke-width="0.114759" stroke-linecap="round" stroke-linejoin="round"/>
<path d="M70.456 43.2691L69.6621 43.2324L69.6251 44.0198L70.4191 44.0565L70.456 43.2691Z" stroke="#263238" stroke-width="0.114759" stroke-linecap="round" stroke-linejoin="round"/>
<path d="M64.8814 40.9216C64.88 40.9609 64.8667 40.9989 64.8435 41.0307C64.8202 41.0625 64.7879 41.0868 64.7507 41.1003C64.7134 41.1139 64.673 41.1162 64.6345 41.1069C64.596 41.0976 64.5611 41.0772 64.5343 41.0482C64.5075 41.0192 64.49 40.9829 64.4841 40.944C64.4781 40.9052 64.484 40.8654 64.5009 40.8298C64.5178 40.7943 64.5449 40.7645 64.5789 40.7443C64.6129 40.7241 64.6522 40.7143 64.6918 40.7163C64.7443 40.719 64.7936 40.742 64.8291 40.7804C64.8646 40.8188 64.8834 40.8695 64.8814 40.9216Z" fill="#263238"/>
<path d="M65.2228 44.7151L74.985 45.1657" stroke="#263238" stroke-width="0.229517" stroke-linecap="round" stroke-linejoin="round"/>
<path d="M65.1932 45.36L74.9553 45.8122" stroke="#263238" stroke-width="0.229517" stroke-linecap="round" stroke-linejoin="round"/>
<path d="M65.1578 46.1153L73.4832 46.4993" stroke="#263238" stroke-width="0.229517" stroke-linecap="round" stroke-linejoin="round"/>
<path d="M65.9619 46.8389L65.168 46.8022L65.131 47.5896L65.9249 47.6263L65.9619 46.8389Z" stroke="#263238" stroke-width="0.114759" stroke-linecap="round" stroke-linejoin="round"/>
<path d="M67.4004 46.9058L66.6064 46.8691L66.5695 47.6565L67.3634 47.6932L67.4004 46.9058Z" stroke="#263238" stroke-width="0.114759" stroke-linecap="round" stroke-linejoin="round"/>
<path d="M68.8398 46.9727L68.0459 46.936L68.0089 47.7234L68.8029 47.7601L68.8398 46.9727Z" stroke="#263238" stroke-width="0.114759" stroke-linecap="round" stroke-linejoin="round"/>
<path d="M70.2788 47.0386L69.4849 47.002L69.4479 47.7893L70.2418 47.826L70.2788 47.0386Z" stroke="#263238" stroke-width="0.114759" stroke-linecap="round" stroke-linejoin="round"/>
<path d="M64.7046 44.6917C64.7028 44.7309 64.6894 44.7687 64.6659 44.8004C64.6424 44.832 64.61 44.856 64.5728 44.8693C64.5355 44.8826 64.4951 44.8847 64.4567 44.8752C64.4183 44.8657 64.3836 44.8451 64.357 44.8161C64.3304 44.787 64.313 44.7508 64.3072 44.7119C64.3014 44.6731 64.3074 44.6334 64.3243 44.5979C64.3413 44.5625 64.3685 44.5328 64.4025 44.5127C64.4364 44.4925 64.4757 44.4829 64.5152 44.4849C64.5679 44.4876 64.6174 44.5108 64.6529 44.5496C64.6884 44.5883 64.707 44.6394 64.7046 44.6917Z" fill="#263238"/>
<path d="M65.0457 48.4831L74.8078 48.9352" stroke="#263238" stroke-width="0.229517" stroke-linecap="round" stroke-linejoin="round"/>
<path d="M65.0152 49.1306L74.776 49.581" stroke="#263238" stroke-width="0.229517" stroke-linecap="round" stroke-linejoin="round"/>
<path d="M64.9801 49.8844L73.3055 50.2684" stroke="#263238" stroke-width="0.229517" stroke-linecap="round" stroke-linejoin="round"/>
<path d="M65.7851 50.6075L64.9912 50.5708L64.9542 51.3582L65.7482 51.3948L65.7851 50.6075Z" stroke="#263238" stroke-width="0.114759" stroke-linecap="round" stroke-linejoin="round"/>
<path d="M67.2236 50.6744L66.4297 50.6377L66.3927 51.4251L67.1866 51.4617L67.2236 50.6744Z" stroke="#263238" stroke-width="0.114759" stroke-linecap="round" stroke-linejoin="round"/>
<path d="M68.6636 50.7422L67.8696 50.7056L67.8327 51.4929L68.6266 51.5296L68.6636 50.7422Z" stroke="#263238" stroke-width="0.114759" stroke-linecap="round" stroke-linejoin="round"/>
<path d="M70.1015 50.8082L69.3076 50.7715L69.2706 51.5589L70.0646 51.5955L70.1015 50.8082Z" stroke="#263238" stroke-width="0.114759" stroke-linecap="round" stroke-linejoin="round"/>
<path d="M64.5274 48.4603C64.5256 48.4995 64.5121 48.5373 64.4886 48.5689C64.4652 48.6005 64.4328 48.6245 64.3955 48.6378C64.3583 48.6512 64.3179 48.6532 64.2795 48.6437C64.2411 48.6343 64.2063 48.6137 64.1797 48.5846C64.1531 48.5556 64.1358 48.5193 64.13 48.4805C64.1242 48.4417 64.1301 48.402 64.1471 48.3665C64.164 48.331 64.1912 48.3013 64.2252 48.2812C64.2592 48.2611 64.2985 48.2514 64.338 48.2534C64.3907 48.2561 64.4402 48.2794 64.4757 48.3181C64.5111 48.3569 64.5297 48.408 64.5274 48.4603Z" fill="#263238"/>
<path d="M64.8646 52.3591L74.6251 52.811" stroke="#263238" stroke-width="0.229517" stroke-linecap="round" stroke-linejoin="round"/>
<path d="M64.8338 53.006L74.5943 53.4579" stroke="#263238" stroke-width="0.229517" stroke-linecap="round" stroke-linejoin="round"/>
<path d="M64.7967 53.7593L73.1219 54.1449" stroke="#263238" stroke-width="0.229517" stroke-linecap="round" stroke-linejoin="round"/>
<path d="M65.604 54.4844L64.8101 54.4478L64.7731 55.2351L65.567 55.2718L65.604 54.4844Z" stroke="#263238" stroke-width="0.114759" stroke-linecap="round" stroke-linejoin="round"/>
<path d="M67.0415 54.5508L66.2476 54.5142L66.2106 55.3015L67.0045 55.3382L67.0415 54.5508Z" stroke="#263238" stroke-width="0.114759" stroke-linecap="round" stroke-linejoin="round"/>
<path d="M68.4805 54.6172L67.6865 54.5806L67.6495 55.3679L68.4435 55.4046L68.4805 54.6172Z" stroke="#263238" stroke-width="0.114759" stroke-linecap="round" stroke-linejoin="round"/>
<path d="M69.9209 54.6832L69.127 54.6465L69.09 55.4339L69.8839 55.4705L69.9209 54.6832Z" stroke="#263238" stroke-width="0.114759" stroke-linecap="round" stroke-linejoin="round"/>
<path d="M64.3511 52.3369C64.3494 52.3757 64.3361 52.4132 64.3128 52.4445C64.2896 52.4758 64.2576 52.4996 64.2207 52.5129C64.1839 52.5262 64.1439 52.5283 64.1058 52.5191C64.0677 52.5098 64.0333 52.4896 64.0068 52.4609C63.9803 52.4322 63.963 52.3964 63.957 52.358C63.9511 52.3195 63.9567 52.2802 63.9733 52.245C63.9898 52.2097 64.0166 52.1801 64.0501 52.16C64.0836 52.1398 64.1224 52.1299 64.1615 52.1316C64.1876 52.1327 64.2132 52.1389 64.2368 52.1498C64.2604 52.1607 64.2817 52.1761 64.2993 52.1952C64.3169 52.2143 64.3305 52.2366 64.3394 52.2609C64.3483 52.2852 64.3523 52.311 64.3511 52.3369Z" fill="#263238"/>
<path d="M65.6139 43.3616L65.7181 43.5359L66.1385 43.0716" stroke="#263238" stroke-width="0.229517" stroke-linecap="round" stroke-linejoin="round"/>
<path d="M68.318 47.2156L68.4219 47.3915L68.8426 46.9256" stroke="#263238" stroke-width="0.229517" stroke-linecap="round" stroke-linejoin="round"/>
<path d="M66.6969 50.9958L66.8024 51.172L67.2215 50.7059" stroke="#263238" stroke-width="0.229517" stroke-linecap="round" stroke-linejoin="round"/>
<path d="M69.3766 54.9729L69.4805 55.1488L69.9012 54.683" stroke="#263238" stroke-width="0.229517" stroke-linecap="round" stroke-linejoin="round"/>
</g>
<path opacity="0.2" d="M64.3372 58.5396C64.3372 58.5396 64.3215 65.9614 64.3372 66.3942C64.3529 66.827 64.9265 69.4336 64.9265 69.4336L63.1016 72.7563L64.6731 74.0062L67.7278 71.0386C67.7278 71.0386 70.3287 72.6263 70.804 74.8971C71.2794 77.1679 74.1102 78.8215 77.047 85.1098C79.9838 91.3982 83.3331 71.0386 83.3331 71.0386L74.2712 59.7681L64.3372 58.5396Z" fill="black" fill-opacity="0.7"/>
<path d="M91.6459 87.558L77.6986 89.9026C77.6986 89.9026 75.2705 77.1609 73.8228 75.1521C72.375 73.1433 72.6441 72.3185 71.9369 70.9657C71.5126 70.1486 69.3832 68.625 67.7154 67.1209C67.57 66.9908 67.4286 66.8608 67.293 66.7327C67.2341 66.6803 67.1791 66.624 67.1241 66.5716C66.9021 66.3542 66.6958 66.1427 66.5132 65.935C66.4464 65.8613 66.3809 65.7875 66.3167 65.7138C66.007 65.3731 65.7764 64.9697 65.641 64.5318C65.635 64.5122 65.631 64.492 65.6292 64.4716C65.6235 64.448 65.6195 64.424 65.6174 64.3998C65.5801 64.099 65.5408 63.7554 65.5015 63.3828C65.5015 63.309 65.4858 63.2314 65.4759 63.1538L65.4642 63.0606C65.4308 62.7501 65.3934 62.4201 65.3502 62.0805C65.307 61.7408 65.2599 61.3565 65.2049 60.9858C65.1872 60.8577 65.1695 60.7296 65.1479 60.5977C65.1263 60.454 65.1027 60.3104 65.0791 60.1649L65.0143 59.7922C65.0143 59.7709 65.0045 59.7515 65.0025 59.734L64.9239 59.2973C64.9186 59.2816 64.9153 59.2653 64.9141 59.2488C64.8866 59.1226 64.8611 58.9984 64.8316 58.8722C64.7707 58.5908 64.702 58.3152 64.6352 58.0474C64.4999 57.5433 64.3259 57.0502 64.1146 56.5723C63.1088 54.3539 64.4171 55.1555 63.6294 49.4475C63.6294 49.4475 64.2089 48.1238 65.861 49.1816C65.9886 49.2639 66.1119 49.3526 66.2303 49.4475C66.5651 49.715 66.8606 50.0272 67.1084 50.3752C67.4443 50.849 67.7003 51.3733 67.8666 51.9279C68.1367 52.8274 68.2129 53.7729 68.0906 54.7033C68.0906 54.7033 69.3321 58.9072 69.9862 59.864C70.6404 60.8209 73.3454 55.3244 73.1706 54.6839C73.1092 54.3966 73.0626 54.1064 73.0311 53.8144C73.0193 53.7193 73.0075 53.6203 72.9938 53.5116C72.98 53.4029 72.9682 53.2942 72.9564 53.1797C72.9564 53.1254 72.9427 53.0672 72.9348 53.0109C72.9348 52.9876 72.9348 52.9643 72.9348 52.9429C72.9113 52.7236 72.8838 52.4907 72.8582 52.2501C72.8582 52.1821 72.8445 52.1181 72.8366 52.056L72.8013 51.7066C72.8001 51.6872 72.8001 51.6678 72.8013 51.6484C72.8013 51.5824 72.7855 51.5145 72.7796 51.4446C72.7639 51.3087 72.7502 51.1709 72.7364 51.0331C72.7227 50.8953 72.7129 50.7964 72.7011 50.678C72.6775 50.4548 72.6559 50.2316 72.6343 50.0161C72.6186 49.855 72.6028 49.6959 72.5891 49.5406C72.5891 49.5057 72.5891 49.4708 72.5793 49.4378C72.4968 48.5838 72.4319 47.8851 72.4084 47.5823C72.4084 47.5823 70.444 44.706 70.2475 43.3513C70.0511 41.9965 70.0629 40.57 70.886 39.9897C72.8347 38.6195 72.261 40.8281 73.1372 41.7365C74.0133 42.6448 75.3471 44.1489 76.1054 44.6167C76.8047 45.0553 77.4294 46.7516 77.5178 47.0078C77.4176 46.6352 76.4177 42.9708 76.3961 42.2333C76.3706 41.457 75.7695 37.3501 76.789 35.877C77.8086 34.4039 79.1679 35.5471 79.2937 35.8382C79.4194 36.1293 79.4567 40.1081 79.8162 41.2144C80.1757 42.3207 81.6804 46.9341 81.6804 46.9341C81.6804 46.9341 81.7433 42.4468 82.0831 40.438C82.423 38.4293 83.305 36.8591 84.1693 36.7698C85.0337 36.6805 85.8332 37.6219 85.8332 37.6219C85.8332 37.6219 85.4914 40.8243 85.5896 41.5637C85.6878 42.3032 85.4482 44.9738 85.8587 46.4159C85.8587 46.4159 85.8116 42.5904 86.4127 42.1013C87.0138 41.6122 87.5305 41.3774 87.8683 41.7132C88.2062 42.0489 88.2789 44.3081 88.6227 45.6706C88.9664 47.033 88.9232 48.8846 89.1491 51.0099C89.375 53.1351 90.2649 56.0852 90.0881 57.7718C89.9113 59.4584 89.3672 63.6409 88.9291 66.0961C88.4911 68.5513 87.3733 71.9187 87.3733 71.9187C87.3733 71.9187 87.8821 73.7139 87.7839 75.3151C87.6856 76.9164 91.6459 87.558 91.6459 87.558Z" fill="white"/>
<path opacity="0.8" d="M79.7926 41.2113C80.0598 42.0323 80.9516 44.7728 81.3956 46.1411C81.3956 46.1411 79.4469 47.556 79.496 48.8719C79.5451 50.1878 79.1385 52.8428 78.2623 52.7672C77.3862 52.6915 77.4766 47.1659 77.1799 46.2381C77.3587 46.6263 77.4726 46.9621 77.4962 47.0261C77.4314 46.7874 76.3902 42.9853 76.3686 42.2322C76.3686 42.0536 76.3274 41.7024 76.2861 41.2462V41.2365C76.2861 41.2365 78.223 39.4044 79.6453 40.5262C79.6771 40.7579 79.7263 40.9869 79.7926 41.2113Z" fill="#FFE4C8"/>
<path opacity="0.8" d="M85.5841 42.8013C84.6765 43.6534 83.3073 45.1556 83.1345 46.6054C83.1345 46.6054 83.6413 50.654 83.4252 52.4183L81.6572 46.9431C81.6572 46.9431 81.7201 42.4559 82.0599 40.4471L82.0894 40.2821C83.1928 39.7265 84.4106 39.429 85.6489 39.4126C85.573 40.1268 85.5474 40.8454 85.5723 41.5631C85.5984 41.9753 85.6023 42.3887 85.5841 42.8013Z" fill="#FFE4C8"/>
<path opacity="0.4" d="M86.3871 42.0939C86.3655 42.1094 86.3125 42.1502 86.2358 42.2162C86.2821 42.1287 86.3333 42.0438 86.3891 41.9619L86.3871 42.0939Z" fill="#92E3A9"/>
<path opacity="0.8" d="M86.8495 53.2813C86.8495 53.2813 85.6826 48.9571 85.6709 45.4752C85.661 44.1865 85.8123 43.0123 86.2346 42.2185C86.2809 42.131 86.3321 42.0461 86.3879 41.9642V42.0904C86.5981 41.909 86.832 41.7563 87.0833 41.6362C86.7552 42.1409 86.378 43.1287 86.8141 44.7416C87.4997 47.2531 86.9025 50.3235 86.8495 53.2813Z" fill="#FFE4C8"/>
<path opacity="0.8" d="M70.7539 61.5285C70.7539 61.5285 71.0663 65.6489 67.715 67.124C67.5696 66.9939 67.4282 66.8639 67.2926 66.7358C67.2337 66.6834 67.1787 66.6271 67.1237 66.5747C66.9017 66.3573 66.6955 66.1438 66.5128 65.9381C66.444 65.8624 66.3831 65.7887 66.3163 65.7168C66.0066 65.3762 65.776 64.9728 65.6406 64.5349C65.6348 64.5152 65.6308 64.4951 65.6288 64.4747C65.6231 64.4511 65.6192 64.4271 65.617 64.4029C65.5797 64.102 65.5404 63.7585 65.5011 63.3859C65.5011 63.3121 65.4854 63.2345 65.4756 63.1569L65.4638 63.0637C65.4304 62.7512 65.3931 62.4232 65.3498 62.0836C65.3066 61.7439 65.2595 61.3596 65.2045 60.9889C65.1848 60.8608 65.1671 60.7308 65.1475 60.6007C65.1259 60.4571 65.1023 60.3116 65.0787 60.1679L65.0139 59.7953L65.0021 59.7371C64.9746 59.5915 64.9491 59.4498 64.9196 59.3062C64.9154 59.2902 64.9121 59.274 64.9098 59.2577C64.8823 59.1315 64.8568 59.0054 64.8273 58.8812C64.7644 58.5997 64.6957 58.3241 64.6309 58.0563C65.9568 56.7947 69.0174 57.5866 67.5362 54.6656C67.5362 54.6656 68.2827 52.1658 66.226 49.4564C67.6325 50.5762 68.3534 52.5462 68.0863 54.6967C68.0863 54.6967 69.3278 58.8986 69.9819 59.8574C70.6361 60.8162 73.3411 55.3177 73.1663 54.6753C73.1048 54.3888 73.0589 54.0992 73.0287 53.8078C73.015 53.7127 73.0032 53.6137 72.9914 53.505C72.9796 53.3963 72.9639 53.2876 72.9521 53.1712C72.9521 53.1188 72.9384 53.0605 72.9305 53.0043C72.9305 52.981 72.9305 52.9577 72.9305 52.9363C72.907 52.7151 72.8814 52.4841 72.8539 52.2415C72.8539 52.1755 72.8402 52.1115 72.8323 52.0474C72.8323 51.931 72.8087 51.8145 72.7969 51.6981C72.7959 51.6787 72.7959 51.6592 72.7969 51.6398C72.7969 51.5738 72.7812 51.5059 72.7753 51.436C72.7596 51.2982 72.7478 51.1624 72.7321 51.0246L72.6968 50.6675C72.6732 50.4462 72.6516 50.223 72.63 50.0076C72.6162 49.8445 72.6005 49.6854 72.5848 49.5321C72.5848 49.4971 72.5848 49.4622 72.575 49.4292C72.63 49.6835 73.6259 54.3667 74.1936 55.4594C74.7614 56.5812 72.2901 62.4989 70.7539 61.5285Z" fill="#FFE4C8"/>
<path opacity="0.8" d="M88.9037 66.091C88.4657 68.5481 87.3479 71.9135 87.3479 71.9135C87.3479 71.9135 87.8567 73.7088 87.7585 75.31C87.731 75.7409 88.0021 76.8278 88.4067 78.1883C88.2908 77.8894 87.0317 74.6831 87.0592 73.5633C87.0827 72.3988 86.7448 72.0669 86.0769 70.6248C85.409 69.1828 84.4052 69.34 84.4052 69.34C84.4052 69.34 84.0123 72.9383 83.1009 70.5744C82.1894 68.2104 82.0106 65.4602 84.3149 55.9112C84.3149 55.9112 84.6626 57.1087 84.3718 60.6663C84.0811 64.2239 84.9415 65.3011 84.9415 65.3011C86.2372 63.071 87.2656 60.6995 88.006 58.2344C88.006 58.2344 87.7074 62.3859 87.4422 64.2763C87.177 66.1667 88.3871 62.0851 89.2318 59.5639C90.0176 57.1961 90.0549 56.2975 89.7524 54.6128C89.9763 55.7987 90.1453 56.9302 90.0588 57.757C89.886 59.4416 89.3418 63.628 88.9037 66.091Z" fill="#FFE4C8"/>
<path opacity="0.8" d="M73.1431 74.0854C73.8228 75.1549 75.4866 76.5659 76.4826 80.4689C77.4785 84.372 76.8499 88.6438 76.8499 88.6438L73.1431 74.0854Z" fill="#FFE4C8"/>
<path opacity="0.8" d="M67.7949 51.9307C67.7949 51.9307 64.3159 53.6774 64.0409 56.5887C63.0351 54.3703 64.3434 55.1719 63.5557 49.4638C63.5557 49.4638 64.1352 48.1402 65.7872 49.198C65.9149 49.2802 66.0382 49.369 66.1565 49.4638C66.4914 49.7314 66.7869 50.0436 67.0346 50.3916L67.7949 51.9307Z" fill="#FFE4C8" fill-opacity="0.7"/>
<path d="M77.6986 89.9035C77.6986 89.9035 75.2726 77.1618 73.8228 75.153C72.3731 73.1442 72.6442 72.3194 71.937 70.9666C71.2298 69.6138 65.861 66.3202 65.6233 64.3988C65.3856 62.4773 65.1146 58.7936 64.1068 56.5752C63.0991 54.3568 64.4093 55.1584 63.6196 49.4484C63.6196 49.4484 64.209 48.1267 65.8532 49.1844C67.4974 50.2422 68.3735 52.3558 68.0848 54.6984C68.0848 54.6984 69.3263 58.9003 69.9824 59.8591C70.6385 60.8179 73.3376 55.3195 73.1647 54.677C72.9919 54.0346 72.4713 48.5692 72.3888 47.5735C72.3888 47.5735 70.4244 44.6952 70.2279 43.3405C70.0315 41.9858 70.0433 40.5593 70.8664 39.9809C72.8151 38.6107 72.2415 40.8193 73.1176 41.7277C73.9937 42.636 75.3276 44.1363 76.0839 44.6059C76.8402 45.0756 77.5081 47.0262 77.5081 47.0262C77.5081 47.0262 76.3982 43.0009 76.3766 42.2226C76.3549 41.4443 75.7499 37.3394 76.7694 35.8663C77.789 34.3932 79.1483 35.5363 79.2741 35.8275C79.3998 36.1186 79.4371 40.0973 79.7986 41.2017C80.16 42.306 81.6589 46.9233 81.6589 46.9233C81.6589 46.9233 81.7237 42.4361 82.0635 40.4273C82.4034 38.4185 83.2874 36.8484 84.1498 36.7591C85.0121 36.6698 85.8136 37.6111 85.8136 37.6111C85.8136 37.6111 85.4718 40.8135 85.5681 41.553C85.6643 42.2925 85.4286 44.9611 85.8392 46.4051C85.8392 46.4051 85.792 42.5797 86.3931 42.0906C86.9942 41.6015 87.5109 41.3667 87.8488 41.7024C88.1866 42.0382 88.2593 44.2973 88.6031 45.6598C88.9469 47.0223 88.9056 48.8739 89.1296 50.9991C89.3535 53.1243 90.2453 56.0744 90.0685 57.7591C89.8918 59.4438 89.3476 63.6302 88.9076 66.0854C88.4675 68.5405 87.3557 71.9079 87.3557 71.9079C87.3557 71.9079 87.8645 73.7032 87.7643 75.3044C87.6641 76.9056 91.6519 87.5648 91.6519 87.5648" stroke="#263238" stroke-width="0.114759" stroke-linecap="round" stroke-linejoin="round"/>
<path d="M81.6528 46.9326C82.0595 47.8759 83.0633 51.8566 83.4208 52.4097C83.6026 52.7152 83.8682 52.9635 84.1869 53.1259" stroke="#263238" stroke-width="0.114759" stroke-linecap="round" stroke-linejoin="round"/>
<path d="M85.8329 46.4092C85.8329 46.4092 85.7465 47.2243 86.1924 49.827C86.6383 52.4297 86.8564 53.536 87.1078 54.1163" stroke="#263238" stroke-width="0.114759" stroke-linecap="round" stroke-linejoin="round"/>
<path d="M77.5 47.0361C78.0441 48.6218 78.3526 51.1488 78.6629 51.9096C78.9733 52.6704 79.2523 52.8276 79.2523 52.8276" stroke="#263238" stroke-width="0.114759" stroke-linecap="round" stroke-linejoin="round"/>
<path d="M78.3804 50.8398C78.7081 51.0858 78.9676 51.4096 79.1347 51.7812" stroke="#263238" stroke-width="0.114759" stroke-linecap="round" stroke-linejoin="round"/>
<path d="M69.9819 59.8608C69.9819 59.8608 70.2805 61.9628 71.6124 61.8017" stroke="#263238" stroke-width="0.114759" stroke-linecap="round" stroke-linejoin="round"/>
<path d="M73.1644 54.6787C73.1644 54.6787 73.5081 57.1785 72.9424 58.2382" stroke="#263238" stroke-width="0.114759" stroke-linecap="round" stroke-linejoin="round"/>
<path d="M83.8173 54.7021C83.8173 54.7021 84.7131 55.2436 84.1139 56.8371C83.5148 58.4305 82.4717 64.8392 82.4717 64.8392" stroke="#263238" stroke-width="0.114759" stroke-linecap="round" stroke-linejoin="round"/>
<path d="M87.7169 56.3867C88.0921 57.8229 88.1254 57.8598 87.5204 59.6241C86.9154 61.3883 85.9233 65.7028 85.9233 65.7028" stroke="#263238" stroke-width="0.114759" stroke-linecap="round" stroke-linejoin="round"/>
<path d="M87.3492 71.9025C87.3492 71.9025 86.7599 70.738 87.2471 69.7676" stroke="#263238" stroke-width="0.114759" stroke-linecap="round" stroke-linejoin="round"/>
<path d="M73.8228 75.1553C73.8228 75.1553 75.3039 77.2106 75.9483 79.5105" stroke="#263238" stroke-width="0.114759" stroke-linecap="round" stroke-linejoin="round"/>
<path d="M84.7212 39.1271L85.1219 38.735L85.3027 38.6846L85.2909 38.8787L84.9235 39.3425L84.7212 39.1271Z" fill="#757575" stroke="#263238" stroke-width="0.114759" stroke-linecap="round" stroke-linejoin="round"/>
<path d="M85.0459 39.3421L84.3937 40.8035L66.8711 63.8861L64.9204 62.6575L67.5763 59.3736L83.3132 39.868L84.7021 38.9966C84.7847 39.0199 84.8599 39.064 84.9201 39.1245C84.9804 39.1851 85.0237 39.26 85.0459 39.3421Z" fill="#20446C"/>
<path opacity="0.3" d="M85.0459 39.3421L84.3937 40.8035L66.8711 63.8861L64.9204 62.6575L67.5763 59.3736C68.7923 59.2494 68.9966 59.9559 68.9966 59.9559L84.0872 40.491C83.9379 39.969 83.3015 39.868 83.3015 39.868L84.6903 38.9966C84.7751 39.0181 84.8527 39.0614 84.9151 39.1221C84.9776 39.1827 85.0227 39.2586 85.0459 39.3421Z" fill="black" fill-opacity="0.7"/>
<path d="M85.0459 39.3421L84.3937 40.8035L66.8711 63.8861L64.9204 62.6575L67.5763 59.3736L83.3132 39.868L84.7021 38.9966C84.7847 39.0199 84.8599 39.064 84.9201 39.1245C84.9804 39.1851 85.0237 39.26 85.0459 39.3421Z" stroke="#263238" stroke-width="0.114759" stroke-linecap="round" stroke-linejoin="round"/>
<path d="M72.5871 57.0527C72.5871 57.0527 70.6226 60.8878 68.7486 63.6011L67.4049 63.9447C67.4049 63.9447 64.3208 66.9724 62.4389 68.4824C62.0972 68.2727 61.7876 68.0159 61.5195 67.7196C61.5195 67.7196 64.1911 62.6521 67.1476 59.4419C67.4939 59.5645 67.8201 59.7365 68.116 59.9523C68.5004 60.2202 68.8421 60.5434 69.1297 60.9111L72.424 56.8159L72.5871 57.0527Z" fill="#F0792E"/>
<path opacity="0.3" d="M72.5871 57.0522C72.5871 57.0522 70.6227 60.8873 68.7487 63.6006L67.405 63.9441C67.405 63.9441 64.3209 66.9719 62.439 68.4818L62.49 67.6609C64.5311 64.5807 67.1241 61.2211 68.1161 59.9518C68.5005 60.2196 68.8422 60.5428 69.1298 60.9106L67.2989 63.325L68.3479 63.1309L72.4241 56.8076L72.5871 57.0522Z" fill="black" fill-opacity="0.7"/>
<path d="M72.5871 57.0527C72.5871 57.0527 70.6226 60.8878 68.7486 63.6011L67.4049 63.9447C67.4049 63.9447 64.3208 66.9724 62.4389 68.4824C62.0972 68.2727 61.7876 68.0159 61.5195 67.7196C61.5195 67.7196 64.1911 62.6521 67.1476 59.4419C67.4939 59.5645 67.8201 59.7365 68.116 59.9523C68.5004 60.2202 68.8421 60.5434 69.1297 60.9111L72.424 56.8159L72.5871 57.0527Z" stroke="#263238" stroke-width="0.114759" stroke-linecap="round" stroke-linejoin="round"/>
<path d="M79.2503 52.827L73.7755 58.0673L72.9014 58.9096C73.5005 57.388 73.2098 55.0279 73.1724 54.7504C73.1729 54.742 73.1729 54.7335 73.1724 54.7251C73.1736 54.7109 73.1736 54.6966 73.1724 54.6824C73.111 54.3959 73.0651 54.1063 73.0349 53.8149C73.0212 53.7198 73.0094 53.6208 72.9976 53.5121C72.9858 53.4034 72.9701 53.2947 72.9583 53.1783C72.9583 53.1259 72.9446 53.0676 72.9367 53.0114C72.9367 52.9881 72.9367 52.9648 72.9367 52.9434C72.9131 52.7241 72.8856 52.4912 72.8601 52.2486C72.8601 52.1826 72.8464 52.1186 72.8385 52.0545C72.8385 51.9381 72.8149 51.8216 72.8031 51.7052C72.8021 51.6858 72.8021 51.6663 72.8031 51.6469C72.8031 51.5809 72.7874 51.513 72.7815 51.4431C72.7658 51.3053 72.754 51.1695 72.7383 51.0317L72.7029 50.6746C72.6794 50.4533 72.6578 50.2301 72.6362 50.0147C72.6204 49.8516 72.6047 49.6944 72.591 49.5392C72.591 49.5042 72.591 49.4693 72.5812 49.4363C72.4987 48.5823 72.4338 47.8836 72.4102 47.5808C72.4102 47.5808 70.4458 44.7045 70.2494 43.3478C70.0529 41.9912 70.0647 40.5666 70.8878 39.9882C72.8365 38.618 72.2629 40.8267 73.1391 41.735C74.0152 42.6433 75.349 44.1475 76.1073 44.6152C76.8655 45.083 77.5295 47.0355 77.5295 47.0355C78.0737 48.6211 78.3821 51.1462 78.6925 51.9089C79.0028 52.6717 79.2503 52.827 79.2503 52.827Z" fill="white"/>
<path d="M78.3804 50.8398C78.7081 51.0858 78.9676 51.4096 79.1347 51.7812" stroke="#263238" stroke-width="0.114759" stroke-linecap="round" stroke-linejoin="round"/>
<path opacity="0.8" d="M73.1092 41.7359C73.9775 42.6519 75.3113 44.1386 76.0696 44.6122C75.9635 44.5598 74.5668 43.8883 73.7869 44.6355C72.9756 45.4118 72.3883 47.5759 72.3883 47.5759C72.3883 47.5759 70.4239 44.6995 70.2274 43.3429C70.031 41.9862 70.0428 40.5616 70.8659 39.9833C72.8067 38.613 72.237 40.8217 73.1092 41.7359Z" fill="#FFE4C8"/>
<path opacity="0.8" d="M73.7754 58.0714L72.9012 58.9098C73.5004 57.3882 73.2097 55.0281 73.1723 54.7506C73.1747 54.728 73.1747 54.7052 73.1723 54.6826C73.1109 54.3961 73.065 54.1065 73.0348 53.8151C73.0211 53.72 73.0093 53.621 72.9975 53.5123C72.9857 53.4036 72.97 53.2949 72.9582 53.1785C72.9582 53.1261 72.9445 53.0679 72.9366 53.0116C72.9366 52.9883 72.9366 52.965 72.9366 52.9436C72.913 52.7224 72.8875 52.4914 72.86 52.2488C72.86 52.1828 72.8463 52.1188 72.8384 52.0547C72.8384 51.9383 72.8148 51.8218 72.803 51.7054C72.802 51.686 72.802 51.6665 72.803 51.6472C72.803 51.5812 72.7873 51.5132 72.7814 51.4434C72.7657 51.3056 72.7539 51.1697 72.7382 51.0319L72.7028 50.6748C72.6793 50.4535 72.6577 50.2303 72.6361 50.0149C72.6223 49.8519 72.6066 49.6927 72.5909 49.5394C72.5909 49.5045 72.5909 49.4695 72.5811 49.4365C72.6361 49.6908 73.632 54.374 74.1997 55.4667C74.3922 55.8743 74.1938 56.9379 73.7754 58.0714Z" fill="#FFE4C8"/>
<path d="M79.2503 52.8276C79.2503 52.8276 78.9733 52.6704 78.661 51.9096C78.3486 51.1488 78.0422 48.6218 77.4981 47.0361C77.4981 47.0361 76.8321 45.0953 76.0739 44.6159C75.3156 44.1365 73.9798 42.6537 73.1076 41.7376C72.2354 40.8215 72.8051 38.6128 70.8564 39.9908C70.0333 40.5731 70.0176 41.9957 70.2179 43.3505C70.4183 44.7052 72.3788 47.5835 72.3788 47.5835C72.4613 48.5791 72.9799 54.0465 73.1547 54.687" stroke="#263238" stroke-width="0.114759" stroke-linecap="round" stroke-linejoin="round"/>
<path d="M73.1644 54.6787C73.1644 54.6787 73.5081 57.1785 72.9424 58.2382" stroke="#263238" stroke-width="0.114759" stroke-linecap="round" stroke-linejoin="round"/>
<path opacity="0.2" d="M39.5646 57.7451C39.5646 57.7451 40.8081 63.4493 38.1148 67.6008C35.4216 71.7522 33.3492 72.8566 32.418 74.0949C31.4869 75.3331 27.835 82.2484 27.835 82.2484L23.5723 69.7784L27.835 54.3467L39.5646 57.7451Z" fill="black" fill-opacity="0.7"/>
<g clip-path="url(#clip1_2120_11223)">
<path d="M36.619 34.4069L24.5195 39.2661L31.8837 57.3013L43.9832 52.4421L36.619 34.4069Z" fill="white" stroke="#263238" stroke-width="0.114759" stroke-linecap="round" stroke-linejoin="round"/>
<path d="M25.9282 40.1294L29.0749 38.8583" stroke="#263238" stroke-width="0.229517" stroke-linecap="round" stroke-linejoin="round"/>
<path d="M26.174 40.7282L28.3137 39.863" stroke="#263238" stroke-width="0.229517" stroke-linecap="round" stroke-linejoin="round"/>
<path d="M27.5218 41.8329L36.5723 38.1759" stroke="#263238" stroke-width="0.229517" stroke-linecap="round" stroke-linejoin="round"/>
<path d="M27.7675 42.4306L36.8184 38.775" stroke="#263238" stroke-width="0.229517" stroke-linecap="round" stroke-linejoin="round"/>
<path d="M28.0552 43.1296L35.7739 40.0121" stroke="#263238" stroke-width="0.229517" stroke-linecap="round" stroke-linejoin="round"/>
<path d="M29.092 43.4526L28.356 43.75L28.6558 44.48L29.3919 44.1826L29.092 43.4526Z" stroke="#263238" stroke-width="0.114759" stroke-linecap="round" stroke-linejoin="round"/>
<path d="M30.4245 42.914L29.6885 43.2114L29.9883 43.9414L30.7244 43.644L30.4245 42.914Z" stroke="#263238" stroke-width="0.114759" stroke-linecap="round" stroke-linejoin="round"/>
<path d="M31.7605 42.374L31.0244 42.6714L31.3243 43.4014L32.0603 43.104L31.7605 42.374Z" stroke="#263238" stroke-width="0.114759" stroke-linecap="round" stroke-linejoin="round"/>
<path d="M33.0935 41.8349L32.3574 42.1323L32.6573 42.8623L33.3933 42.5649L33.0935 41.8349Z" stroke="#263238" stroke-width="0.114759" stroke-linecap="round" stroke-linejoin="round"/>
<path d="M27.0401 42.0262C27.0554 42.0625 27.0595 42.1024 27.0519 42.141C27.0442 42.1796 27.0251 42.215 26.9971 42.2428C26.9691 42.2707 26.9334 42.2896 26.8945 42.2972C26.8556 42.3048 26.8153 42.3008 26.7787 42.2856C26.7421 42.2705 26.7109 42.2448 26.689 42.212C26.6672 42.1792 26.6556 42.1407 26.6559 42.1014C26.6561 42.0621 26.6682 42.0237 26.6905 41.9912C26.7128 41.9587 26.7443 41.9335 26.7811 41.9188C26.8299 41.8994 26.8843 41.8998 26.9328 41.9198C26.9813 41.9399 27.0198 41.9781 27.0401 42.0262Z" fill="#263238"/>
<path d="M28.9564 45.3275L38.0068 41.6705" stroke="#263238" stroke-width="0.229517" stroke-linecap="round" stroke-linejoin="round"/>
<path d="M29.2025 45.9247L38.2534 42.2691" stroke="#263238" stroke-width="0.229517" stroke-linecap="round" stroke-linejoin="round"/>
<path d="M29.4902 46.6243L37.2084 43.5052" stroke="#263238" stroke-width="0.229517" stroke-linecap="round" stroke-linejoin="round"/>
<path d="M30.5266 46.9458L29.7905 47.2432L30.0904 47.9731L30.8264 47.6757L30.5266 46.9458Z" stroke="#263238" stroke-width="0.114759" stroke-linecap="round" stroke-linejoin="round"/>
<path d="M31.8601 46.4082L31.124 46.7056L31.4239 47.4355L32.1599 47.1381L31.8601 46.4082Z" stroke="#263238" stroke-width="0.114759" stroke-linecap="round" stroke-linejoin="round"/>
<path d="M33.195 45.8681L32.459 46.1655L32.7589 46.8955L33.4949 46.5981L33.195 45.8681Z" stroke="#263238" stroke-width="0.114759" stroke-linecap="round" stroke-linejoin="round"/>
<path d="M34.5285 45.3301L33.7925 45.6274L34.0923 46.3574L34.8284 46.06L34.5285 45.3301Z" stroke="#263238" stroke-width="0.114759" stroke-linecap="round" stroke-linejoin="round"/>
<path d="M28.4753 45.5218C28.4903 45.5581 28.4941 45.598 28.4862 45.6365C28.4782 45.675 28.459 45.7102 28.4308 45.7378C28.4027 45.7654 28.3669 45.7841 28.328 45.7915C28.2891 45.7989 28.2489 45.7947 28.2125 45.7794C28.176 45.7641 28.1449 45.7384 28.1232 45.7056C28.1015 45.6728 28.0901 45.6343 28.0905 45.5951C28.0908 45.5558 28.1029 45.5175 28.1253 45.4851C28.1476 45.4527 28.1791 45.4276 28.2158 45.4129C28.2648 45.3934 28.3196 45.3939 28.3682 45.4143C28.4168 45.4347 28.4553 45.4733 28.4753 45.5218Z" fill="#263238"/>
<path d="M30.3925 48.8207L39.4434 45.1651" stroke="#263238" stroke-width="0.229517" stroke-linecap="round" stroke-linejoin="round"/>
<path d="M30.6375 49.4203L39.6865 45.7637" stroke="#263238" stroke-width="0.229517" stroke-linecap="round" stroke-linejoin="round"/>
<path d="M30.9253 50.1194L38.6435 47.0003" stroke="#263238" stroke-width="0.229517" stroke-linecap="round" stroke-linejoin="round"/>
<path d="M31.9616 50.4409L31.2256 50.7383L31.5255 51.4682L32.2615 51.1709L31.9616 50.4409Z" stroke="#263238" stroke-width="0.114759" stroke-linecap="round" stroke-linejoin="round"/>
<path d="M33.2961 49.9013L32.5601 50.1987L32.8599 50.9287L33.596 50.6313L33.2961 49.9013Z" stroke="#263238" stroke-width="0.114759" stroke-linecap="round" stroke-linejoin="round"/>
<path d="M34.632 49.3633L33.896 49.6606L34.1959 50.3906L34.9319 50.0932L34.632 49.3633Z" stroke="#263238" stroke-width="0.114759" stroke-linecap="round" stroke-linejoin="round"/>
<path d="M35.9646 48.8247L35.2285 49.1221L35.5284 49.852L36.2644 49.5546L35.9646 48.8247Z" stroke="#263238" stroke-width="0.114759" stroke-linecap="round" stroke-linejoin="round"/>
<path d="M29.9103 49.0154C29.9253 49.0517 29.9291 49.0917 29.9212 49.1301C29.9133 49.1686 29.894 49.2039 29.8659 49.2315C29.8377 49.2591 29.802 49.2778 29.7631 49.2852C29.7242 49.2926 29.684 49.2884 29.6475 49.2731C29.6111 49.2578 29.58 49.2321 29.5583 49.1993C29.5366 49.1665 29.5252 49.128 29.5255 49.0887C29.5259 49.0495 29.538 49.0112 29.5603 48.9788C29.5826 48.9463 29.6142 48.9212 29.6509 48.9066C29.6999 48.8871 29.7546 48.8876 29.8032 48.908C29.8518 48.9283 29.8903 48.967 29.9103 49.0154Z" fill="#263238"/>
<path d="M31.868 52.4135L40.9175 48.7583" stroke="#263238" stroke-width="0.229517" stroke-linecap="round" stroke-linejoin="round"/>
<path d="M32.1141 53.0126L41.1635 49.3575" stroke="#263238" stroke-width="0.229517" stroke-linecap="round" stroke-linejoin="round"/>
<path d="M32.3999 53.7121L40.1186 50.5946" stroke="#263238" stroke-width="0.229517" stroke-linecap="round" stroke-linejoin="round"/>
<path d="M33.4392 54.0346L32.7031 54.332L33.003 55.062L33.739 54.7646L33.4392 54.0346Z" stroke="#263238" stroke-width="0.114759" stroke-linecap="round" stroke-linejoin="round"/>
<path d="M34.7717 53.4956L34.0356 53.793L34.3355 54.5229L35.0716 54.2255L34.7717 53.4956Z" stroke="#263238" stroke-width="0.114759" stroke-linecap="round" stroke-linejoin="round"/>
<path d="M36.1062 52.957L35.3701 53.2544L35.67 53.9844L36.406 53.687L36.1062 52.957Z" stroke="#263238" stroke-width="0.114759" stroke-linecap="round" stroke-linejoin="round"/>
<path d="M37.4411 52.417L36.7051 52.7144L37.0049 53.4443L37.741 53.1469L37.4411 52.417Z" stroke="#263238" stroke-width="0.114759" stroke-linecap="round" stroke-linejoin="round"/>
<path d="M31.3933 52.6063C31.4081 52.6422 31.4119 52.6818 31.4041 52.7199C31.3963 52.758 31.3773 52.793 31.3495 52.8204C31.3217 52.8478 31.2863 52.8664 31.2478 52.8738C31.2093 52.8813 31.1695 52.8772 31.1333 52.8622C31.0971 52.8473 31.0662 52.822 31.0446 52.7896C31.0229 52.7572 31.0114 52.7191 31.0115 52.6803C31.0116 52.6414 31.0233 52.6034 31.0451 52.5711C31.067 52.5388 31.098 52.5137 31.1343 52.4989C31.1584 52.4891 31.1842 52.4841 31.2103 52.4841C31.2364 52.4842 31.2622 52.4894 31.2862 52.4993C31.3103 52.5093 31.3321 52.5239 31.3505 52.5422C31.3689 52.5606 31.3834 52.5823 31.3933 52.6063Z" fill="#263238"/>
<path d="M28.7392 43.935L28.9075 44.0499L29.0925 43.4534" stroke="#263238" stroke-width="0.229517" stroke-linecap="round" stroke-linejoin="round"/>
<path d="M32.8232 46.3076L32.992 46.4239L33.1765 45.8259" stroke="#263238" stroke-width="0.229517" stroke-linecap="round" stroke-linejoin="round"/>
<path d="M32.954 50.413L33.1243 50.5289L33.3073 49.9314" stroke="#263238" stroke-width="0.229517" stroke-linecap="round" stroke-linejoin="round"/>
<path d="M37.0702 52.9067L37.239 53.023L37.4235 52.4251" stroke="#263238" stroke-width="0.229517" stroke-linecap="round" stroke-linejoin="round"/>
</g>
<path d="M36.6102 55.3835C37.0699 53.8308 38.8614 48.8603 38.6257 46.6613C38.6069 46.4782 38.5647 46.2982 38.5 46.1256C37.8713 44.4837 35.3019 44.6428 34.3157 46.0033C33.2314 47.4997 32.3513 50.1917 32.2708 51.8259C32.2019 52.6448 31.9322 53.4349 31.485 54.1277C31.3315 54.3839 31.1581 54.6279 30.9664 54.8575L25.1066 41.126C24.5148 41.6128 23.9979 42.1823 23.5723 42.8165C23.3328 43.17 23.1782 43.5729 23.1205 43.9946C23.0007 45.3532 21.4488 50.9118 20.8045 53.2582C20.7927 53.3087 20.777 53.3553 20.7652 53.4038C20.1444 55.6591 21.7828 64.0358 21.3133 66.4677C20.8438 68.8996 20.555 68.8472 20.4862 70.5745C20.4371 71.8361 18.6102 75.6731 16.5574 79.6111C15.3788 81.8664 14.1373 84.1547 13.1099 86.016L28.1023 85.4007C28.3616 83.5996 28.6288 81.7014 28.8723 79.8615C28.9782 79.0962 29.1278 78.3374 29.3202 77.5888C29.6503 76.269 30.053 75.0754 30.3024 74.3767C30.6205 73.3496 30.8828 72.3066 31.0882 71.2519C32.8306 69.4294 35.1172 66.5628 35.7792 64.6219V64.6083C35.9416 64.2091 35.9932 63.7743 35.9285 63.3487C35.8554 62.9993 35.8153 62.6439 35.8087 62.2871C35.7399 60.1754 36.2252 56.6761 36.6102 55.3835Z" fill="white"/>
<path opacity="0.8" d="M31.4889 54.1394C31.0253 55.0613 30.4654 55.958 30.1138 56.9905C29.7621 58.023 29.3712 58.1705 28.3222 58.9779C27.2732 59.7853 26.5071 58.4559 26.5071 58.4559C26.5071 58.4559 27.8959 57.0293 27.4343 56.2375C26.9727 55.4456 25.2381 53.4756 25.3402 52.381C25.4424 51.2863 24.2932 48.8486 24.2932 48.8486C24.2932 48.8486 26.9118 47.3309 26.403 45.5492C26.126 44.5846 24.7509 43.552 23.5723 42.8165C23.9978 42.1823 24.5147 41.6128 25.1065 41.126L30.9703 54.8692C31.162 54.6395 31.3354 54.3955 31.4889 54.1394Z" fill="#FFE4C8"/>
<path opacity="0.8" d="M21.9813 62.5695C22.0167 62.686 22.8693 65.4692 22.1503 66.6279C21.4313 67.7866 20.6927 69.3218 21.0443 70.8978C21.3233 72.1554 18.9679 76.697 16.5635 79.6122C18.6104 75.6742 20.4373 71.8371 20.4923 70.5756C20.5611 68.8482 20.8498 68.9006 21.3193 66.4687C21.7888 64.0368 20.1407 55.6601 20.7713 53.4048C20.783 53.3563 20.7988 53.3097 20.8105 53.2593C21.2683 55.8154 22.3349 60.9062 22.6276 62.5424C22.993 64.6249 22.0206 62.653 21.9813 62.5695Z" fill="#FFE4C8"/>
<path opacity="0.8" d="M27.3789 79.3521C29.1213 71.9419 34.9851 66.2572 35.7788 64.6133C35.1167 66.5541 32.8321 69.4208 31.0877 71.2432C30.8823 72.2979 30.62 73.341 30.302 74.368C30.0564 75.0667 29.6537 76.2603 29.3198 77.5801C27.6225 79.5637 27.3789 79.3521 27.3789 79.3521Z" fill="#FFE4C8"/>
<path opacity="0.8" d="M36.6099 55.3836C36.217 56.6762 35.7397 60.1755 35.8143 62.2775C35.5059 60.9557 34.9127 59.2808 34.8145 56.9459C34.6475 52.9866 36.9183 54.4073 36.1267 52.4568C35.335 50.5062 33.0779 53.006 34.1898 48.8778C35.003 45.8617 37.3132 45.8909 38.4997 46.1257C38.5644 46.2983 38.6067 46.4783 38.6254 46.6614C38.8612 48.8604 37.0696 53.8348 36.6099 55.3836Z" fill="#FFE4C8"/>
<path d="M30.9708 54.8687C30.6154 55.5471 30.326 56.2574 30.1065 56.99C29.8609 57.941 28.6175 57.8052 27.9751 58.3952" stroke="#263238" stroke-width="0.114759" stroke-linecap="round" stroke-linejoin="round"/>
<path d="M26.2793 53.1958C26.2793 53.1958 27.9726 53.7781 28.9568 54.5447C29.941 55.3113 30.6698 55.4879 30.6698 55.4879" stroke="#263238" stroke-width="0.114759" stroke-linecap="round" stroke-linejoin="round"/>
<path d="M25.2012 49.0518C25.2012 49.0518 26.5664 49.4303 27.5781 48.9548C27.6238 48.4705 27.7099 47.9908 27.8355 47.5205" stroke="#263238" stroke-width="0.114759" stroke-linecap="round" stroke-linejoin="round"/>
<path d="M27.9033 49.1494C27.9033 49.1494 27.9171 49.3435 28.6125 49.3435" stroke="#263238" stroke-width="0.114759" stroke-linecap="round" stroke-linejoin="round"/>
<path d="M31.0865 71.2461C30.1341 72.1936 29.402 73.3347 28.9414 74.5902" stroke="#263238" stroke-width="0.114759" stroke-linecap="round" stroke-linejoin="round"/>
<path d="M20.6841 53.8169C20.6232 54.9814 22.0042 59.1115 22.4246 61.165C22.8449 63.2184 23.0001 64.6701 23.0001 64.6701" stroke="#263238" stroke-width="0.114759" stroke-linecap="round" stroke-linejoin="round"/>
<path d="M15.396 81.9203C17.2858 78.5277 19.1029 75.0361 20.4288 71.2689C20.588 70.7274 20.3758 70.0229 20.5349 69.4814C22.3147 64.5904 20.2953 59.4996 20.6272 54.4922C20.9042 52.5183 21.5427 50.529 22.1831 48.5396C22.4836 47.0995 22.5956 45.4905 23.0769 44.0426C23.5719 42.9519 24.0591 41.6825 25.114 41.1313C27.1177 45.6671 29.1155 50.2242 30.9778 54.8745C31.8185 54.3951 31.96 53.3218 32.0955 52.4213C32.5473 50.2611 33.005 48.2795 33.8321 46.4629C34.6728 44.9995 36.814 44.3765 38.1282 45.572C38.5054 45.9449 38.721 46.4481 38.7293 46.9753C38.474 49.4828 37.6764 52.0215 36.873 54.366C36.5567 55.449 36.2345 56.3554 36.099 57.4306C36.1147 57.7858 36.1206 57.9644 36.1363 58.3215C35.6707 60.1245 36.099 61.7122 35.9929 63.5016C35.5863 66.7293 32.9736 68.9768 31.0819 71.3737C30.6163 73.1768 30.1488 74.9798 29.5103 76.7906C28.7246 79.4981 28.4731 82.1862 28.204 84.7967" stroke="#263238" stroke-width="0.114759" stroke-linecap="round" stroke-linejoin="round"/>
<path d="M60.0188 30.2104H43.7378V54.5713H60.0188V30.2104Z" fill="white" stroke="#263238" stroke-width="0.114759" stroke-linecap="round" stroke-linejoin="round"/>
<path d="M44.9577 31.8688L49.1954 31.8602" stroke="#263238" stroke-width="0.229517" stroke-linecap="round" stroke-linejoin="round"/>
<path d="M44.96 32.6789L47.8419 32.672" stroke="#263238" stroke-width="0.229517" stroke-linecap="round" stroke-linejoin="round"/>
<path d="M45.9963 34.5893L58.1851 34.5634" stroke="#263238" stroke-width="0.229517" stroke-linecap="round" stroke-linejoin="round"/>
<path d="M45.9984 35.3975L58.1871 35.3734" stroke="#263238" stroke-width="0.229517" stroke-linecap="round" stroke-linejoin="round"/>
<path d="M46.0008 36.3419L56.3954 36.3213" stroke="#263238" stroke-width="0.229517" stroke-linecap="round" stroke-linejoin="round"/>
<path d="M47.0469 37.2006L46.0557 37.2026L46.0578 38.1895L47.049 38.1874L47.0469 37.2006Z" stroke="#263238" stroke-width="0.114759" stroke-linecap="round" stroke-linejoin="round"/>
<path d="M48.8414 37.1957L47.8501 37.1978L47.8522 38.1846L48.8435 38.1825L48.8414 37.1957Z" stroke="#263238" stroke-width="0.114759" stroke-linecap="round" stroke-linejoin="round"/>
<path d="M50.6407 37.1918L49.6494 37.1938L49.6515 38.1807L50.6428 38.1786L50.6407 37.1918Z" stroke="#263238" stroke-width="0.114759" stroke-linecap="round" stroke-linejoin="round"/>
<path d="M52.4366 37.1884L51.4453 37.1904L51.4474 38.1773L52.4387 38.1752L52.4366 37.1884Z" stroke="#263238" stroke-width="0.114759" stroke-linecap="round" stroke-linejoin="round"/>
<path d="M45.3491 34.5877C45.3497 34.6369 45.3356 34.6852 45.3085 34.7264C45.2814 34.7676 45.2427 34.7999 45.1971 34.8191C45.1516 34.8383 45.1014 34.8436 45.0528 34.8343C45.0043 34.825 44.9596 34.8016 44.9244 34.7669C44.8893 34.7323 44.8653 34.688 44.8555 34.6398C44.8457 34.5915 44.8506 34.5415 44.8694 34.4959C44.8883 34.4504 44.9203 34.4116 44.9614 34.3842C45.0026 34.3569 45.0509 34.3423 45.1004 34.3424C45.1659 34.3426 45.2287 34.3684 45.2753 34.4143C45.3218 34.4602 45.3484 34.5225 45.3491 34.5877Z" fill="#263238"/>
<path d="M46.0061 39.3115L58.1949 39.2855" stroke="#263238" stroke-width="0.229517" stroke-linecap="round" stroke-linejoin="round"/>
<path d="M46.0082 40.1196L58.1968 40.0956" stroke="#263238" stroke-width="0.229517" stroke-linecap="round" stroke-linejoin="round"/>
<path d="M46.0114 41.0669L56.4061 41.0445" stroke="#263238" stroke-width="0.229517" stroke-linecap="round" stroke-linejoin="round"/>
<path d="M47.0562 41.9227L46.0649 41.9248L46.067 42.9116L47.0583 42.9096L47.0562 41.9227Z" stroke="#263238" stroke-width="0.114759" stroke-linecap="round" stroke-linejoin="round"/>
<path d="M48.8531 41.9208L47.8618 41.9229L47.8639 42.9097L48.8552 42.9076L48.8531 41.9208Z" stroke="#263238" stroke-width="0.114759" stroke-linecap="round" stroke-linejoin="round"/>
<path d="M50.65 41.9159L49.6587 41.918L49.6608 42.9048L50.6521 42.9027L50.65 41.9159Z" stroke="#263238" stroke-width="0.114759" stroke-linecap="round" stroke-linejoin="round"/>
<path d="M52.4464 41.9125L51.4551 41.9146L51.4572 42.9014L52.4484 42.8993L52.4464 41.9125Z" stroke="#263238" stroke-width="0.114759" stroke-linecap="round" stroke-linejoin="round"/>
<path d="M45.3589 39.3133C45.3591 39.3624 45.3446 39.4105 45.3173 39.4515C45.29 39.4924 45.2511 39.5244 45.2055 39.5433C45.1599 39.5622 45.1098 39.5672 45.0613 39.5577C45.0129 39.5482 44.9684 39.5245 44.9334 39.4898C44.8985 39.4551 44.8747 39.4108 44.8651 39.3626C44.8555 39.3144 44.8605 39.2644 44.8794 39.219C44.8984 39.1736 44.9304 39.1348 44.9716 39.1076C45.0127 39.0804 45.061 39.0659 45.1103 39.0661C45.1762 39.0663 45.2392 39.0924 45.2858 39.1387C45.3324 39.185 45.3586 39.2478 45.3589 39.3133Z" fill="#263238"/>
<path d="M46.016 44.0347L58.2047 44.0106" stroke="#263238" stroke-width="0.229517" stroke-linecap="round" stroke-linejoin="round"/>
<path d="M46.0178 44.8452L58.2047 44.819" stroke="#263238" stroke-width="0.229517" stroke-linecap="round" stroke-linejoin="round"/>
<path d="M46.0206 45.7901L56.4154 45.7676" stroke="#263238" stroke-width="0.229517" stroke-linecap="round" stroke-linejoin="round"/>
<path d="M47.066 46.6473L46.0747 46.6494L46.0768 47.6363L47.0681 47.6342L47.066 46.6473Z" stroke="#263238" stroke-width="0.114759" stroke-linecap="round" stroke-linejoin="round"/>
<path d="M48.8629 46.6434L47.8716 46.6455L47.8737 47.6323L48.8649 47.6303L48.8629 46.6434Z" stroke="#263238" stroke-width="0.114759" stroke-linecap="round" stroke-linejoin="round"/>
<path d="M50.6612 46.6405L49.6699 46.6426L49.672 47.6294L50.6633 47.6273L50.6612 46.6405Z" stroke="#263238" stroke-width="0.114759" stroke-linecap="round" stroke-linejoin="round"/>
<path d="M52.4561 46.6361L51.4648 46.6382L51.4669 47.625L52.4582 47.6229L52.4561 46.6361Z" stroke="#263238" stroke-width="0.114759" stroke-linecap="round" stroke-linejoin="round"/>
<path d="M45.3682 44.0374C45.3684 44.0866 45.3539 44.1347 45.3266 44.1756C45.2993 44.2166 45.2604 44.2485 45.2148 44.2674C45.1692 44.2863 45.119 44.2913 45.0706 44.2818C45.0222 44.2723 44.9777 44.2487 44.9427 44.2139C44.9078 44.1792 44.884 44.1349 44.8744 44.0867C44.8648 44.0385 44.8698 43.9885 44.8887 43.9431C44.9077 43.8977 44.9397 43.859 44.9808 43.8317C45.0219 43.8045 45.0702 43.7901 45.1196 43.7902C45.1854 43.7904 45.2485 43.8165 45.2951 43.8628C45.3416 43.9091 45.3679 43.9719 45.3682 44.0374Z" fill="#263238"/>
<path d="M46.0268 48.8926L58.2135 48.8684" stroke="#263238" stroke-width="0.229517" stroke-linecap="round" stroke-linejoin="round"/>
<path d="M46.0292 49.7031L58.2159 49.6789" stroke="#263238" stroke-width="0.229517" stroke-linecap="round" stroke-linejoin="round"/>
<path d="M46.0291 50.648L56.4237 50.6275" stroke="#263238" stroke-width="0.229517" stroke-linecap="round" stroke-linejoin="round"/>
<path d="M47.0777 51.5057L46.0864 51.5078L46.0885 52.4947L47.0798 52.4926L47.0777 51.5057Z" stroke="#263238" stroke-width="0.114759" stroke-linecap="round" stroke-linejoin="round"/>
<path d="M48.8726 51.5013L47.8813 51.5034L47.8834 52.4903L48.8747 52.4882L48.8726 51.5013Z" stroke="#263238" stroke-width="0.114759" stroke-linecap="round" stroke-linejoin="round"/>
<path d="M50.67 51.4974L49.6787 51.4995L49.6808 52.4863L50.6721 52.4843L50.67 51.4974Z" stroke="#263238" stroke-width="0.114759" stroke-linecap="round" stroke-linejoin="round"/>
<path d="M52.4683 51.493L51.4771 51.4951L51.4791 52.482L52.4704 52.4799L52.4683 51.493Z" stroke="#263238" stroke-width="0.114759" stroke-linecap="round" stroke-linejoin="round"/>
<path d="M45.3869 48.8942C45.3871 48.9429 45.3728 48.9905 45.3458 49.0311C45.3188 49.0717 45.2803 49.1034 45.2352 49.1222C45.1901 49.141 45.1405 49.1461 45.0925 49.1368C45.0445 49.1276 45.0003 49.1043 44.9656 49.0701C44.9308 49.0358 44.9071 48.9921 44.8973 48.9444C44.8875 48.8967 44.8921 48.8472 44.9106 48.8021C44.9291 48.757 44.9606 48.7184 45.0011 48.6912C45.0416 48.6639 45.0893 48.6492 45.1382 48.6489C45.1707 48.6487 45.2029 48.6549 45.2331 48.6672C45.2632 48.6794 45.2906 48.6974 45.3137 48.7202C45.3368 48.743 45.3551 48.7701 45.3677 48.7999C45.3803 48.8298 45.3868 48.8618 45.3869 48.8942Z" fill="#263238"/>
<path d="M46.4112 37.5953L46.5516 37.807L47.0469 37.201" stroke="#263238" stroke-width="0.229517" stroke-linecap="round" stroke-linejoin="round"/>
<path d="M50.0142 42.252L50.1544 42.4657L50.65 41.8578" stroke="#263238" stroke-width="0.229517" stroke-linecap="round" stroke-linejoin="round"/>
<path d="M48.2276 47.0772L48.3697 47.2911L48.8633 46.683" stroke="#263238" stroke-width="0.229517" stroke-linecap="round" stroke-linejoin="round"/>
<path d="M51.8086 51.8887L51.9488 52.1024L52.4444 51.4945" stroke="#263238" stroke-width="0.229517" stroke-linecap="round" stroke-linejoin="round"/>
<defs>
<clipPath id="clip0_2120_11223">
<rect width="15.0258" height="20.7621" fill="white" transform="matrix(0.998836 0.0482276 -0.0490328 0.998797 62.8086 36.667)"/>
</clipPath>
<clipPath id="clip1_2120_11223">
<rect width="15.0086" height="20.7861" fill="white" transform="matrix(0.927964 -0.372671 0.378023 0.925796 23.3579 39.0293)"/>
</clipPath>
</defs>
</svg>
