<svg width="23" height="23" viewBox="0 0 23 23" fill="none" xmlns="http://www.w3.org/2000/svg">
<path d="M19.941 12.7216C19.941 17.6603 15.7858 21.6703 10.6517 21.6703C5.51768 21.6703 1.36243 17.6602 1.36243 12.7216C1.36243 7.78308 5.51768 3.77295 10.6517 3.77295C15.7859 3.77295 19.941 7.78308 19.941 12.7216ZM10.6517 22.8887C16.472 22.8887 21.1972 18.3403 21.1972 12.7216C21.1972 7.10282 16.472 2.55458 10.6517 2.55458C4.83129 2.55458 0.106227 7.10282 0.106227 12.7216C0.106227 18.3403 4.83129 22.8887 10.6517 22.8887Z" fill="white" stroke="white" stroke-width="0.205"/>
<path d="M15.5345 12.5856C15.5345 13.0498 15.2702 13.4697 14.8377 13.6981L8.99939 16.7998C8.78315 16.9177 8.54289 16.9766 8.30263 16.9766C8.06237 16.9766 7.82211 16.9177 7.60588 16.7998C7.1654 16.5641 6.90111 16.1515 6.90111 15.6873V9.48388C6.90111 9.01973 7.1654 8.59978 7.60588 8.37139C8.03835 8.13563 8.56692 8.13563 9.0074 8.37139L14.8457 11.4731C15.2702 11.7089 15.5345 12.1215 15.5345 12.5856Z" fill="white"/>
<ellipse cx="17.3345" cy="5.59799" rx="5.66412" ry="5.21066" fill="white"/>
<path d="M17.1251 0C13.8781 0 11.2502 2.41717 11.2502 5.40452C11.2502 8.39155 13.8777 10.809 17.1251 10.809C20.372 10.809 22.9999 8.39187 22.9999 5.40452C22.9999 2.41749 20.3724 0 17.1251 0ZM17.1251 10.0549C14.3377 10.0549 12.07 7.96875 12.07 5.40452C12.07 2.84029 14.3377 0.754121 17.1251 0.754121C19.9125 0.754121 22.1802 2.84029 22.1802 5.40452C22.1802 7.96875 19.9125 10.0549 17.1251 10.0549Z" fill="white"/>
<g clip-path="url(#clip0_2120_11554)">
<path d="M17.5364 7.52349L17.4701 7.83218C17.2713 7.9216 17.1124 7.98965 16.9941 8.03644C16.8756 8.08338 16.738 8.10673 16.5812 8.10673C16.3404 8.10673 16.1532 8.03954 16.0196 7.9061C15.886 7.77212 15.8192 7.60234 15.8192 7.39639C15.8192 7.31666 15.8241 7.23465 15.8341 7.1511C15.8443 7.06745 15.8605 6.97324 15.8826 6.86793L16.1311 5.86585C16.1532 5.7699 16.172 5.67898 16.1871 5.593C16.2024 5.50756 16.2097 5.42895 16.2097 5.35818C16.2097 5.23021 16.1865 5.14069 16.1401 5.09037C16.0938 5.04018 16.0055 5.01471 15.8743 5.01471C15.81 5.01471 15.744 5.02643 15.6767 5.0491C15.609 5.07186 15.5512 5.09385 15.5027 5.11429L15.5692 4.80536C15.732 4.72984 15.8877 4.66518 16.0366 4.61151C16.1854 4.5577 16.3261 4.53077 16.4592 4.53077C16.6983 4.53077 16.8828 4.59659 17.0124 4.72825C17.142 4.86 17.2067 5.03079 17.2067 5.24125C17.2067 5.28479 17.2025 5.36152 17.1933 5.47118C17.1844 5.58109 17.1678 5.68179 17.1436 5.77339L16.896 6.77144C16.8758 6.85161 16.8575 6.94325 16.8417 7.04638C16.8253 7.14882 16.8175 7.2271 16.8175 7.2796C16.8175 7.41213 16.8434 7.50261 16.8954 7.55071C16.9478 7.59881 17.038 7.62274 17.1662 7.62274C17.2264 7.62274 17.2949 7.61058 17.3709 7.5867C17.4468 7.56282 17.5021 7.54185 17.5364 7.52349ZM17.5992 3.33334C17.5992 3.50723 17.5417 3.65574 17.4261 3.77785C17.3107 3.9004 17.1717 3.96172 17.0092 3.96172C16.8461 3.96172 16.7068 3.9004 16.5901 3.77785C16.4737 3.65569 16.4153 3.50723 16.4153 3.33334C16.4153 3.15978 16.4737 3.01103 16.5901 2.88737C16.7066 2.7639 16.8461 2.70219 17.0092 2.70219C17.1717 2.70219 17.3107 2.76405 17.4261 2.88737C17.5418 3.01103 17.5992 3.15983 17.5992 3.33334Z" fill="#F06F33"/>
</g>
<defs>
<clipPath id="clip0_2120_11554">
<rect width="4.58194" height="5.21889" fill="white" transform="translate(14.1779 2.70219) scale(1.03557)"/>
</clipPath>
</defs>
</svg>
