<svg width="48" height="48" viewBox="0 0 48 48" fill="none" xmlns="http://www.w3.org/2000/svg">
<g clip-path="url(#clip0_2481_15558)">
<path d="M34.7317 8.68041V3.75C34.7317 1.68225 33.0494 0 30.9817 0H7.26562C5.19787 0 3.51562 1.68225 3.51562 3.75V44.25C3.51562 46.3177 5.19787 48 7.26562 48H30.9817C33.0495 48 34.7317 46.3177 34.7317 44.25V30.8205C40.2217 30.1287 44.4835 25.4262 44.4835 19.75C44.4834 14.0738 40.2228 9.37397 34.7317 8.68041ZM25.2813 2.8125L24.8094 4.26469H13.4378L12.966 2.8125H25.2813ZM7.26562 2.8125H10.0087L11.0788 6.10556C11.2671 6.68494 11.807 7.07719 12.4163 7.07719H25.8312C26.4405 7.07719 26.9804 6.68484 27.1687 6.10556L28.2385 2.8125H30.9817C31.4986 2.8125 31.9192 3.23306 31.9192 3.75V8.68041C26.428 9.37397 22.1674 14.0738 22.1674 19.75C22.1674 23.1612 23.729 26.3722 26.38 28.4826V33.043C26.38 33.5753 26.6805 34.0618 27.1563 34.3002C27.6306 34.5379 28.2004 34.4889 28.628 34.1695L31.9192 31.7105V37.3125H6.32812V3.75C6.32812 3.23306 6.74869 2.8125 7.26562 2.8125ZM30.9817 45.1875H7.26562C6.74869 45.1875 6.32812 44.7669 6.32812 44.25V40.125H31.9192V44.25C31.9192 44.7669 31.4986 45.1875 30.9817 45.1875ZM33.3255 28.0957C33.1091 28.0957 32.8898 28.0871 32.6736 28.0704C32.3337 28.0434 31.9963 28.1421 31.7234 28.3459L29.1925 30.2369V27.7762C29.1925 27.3143 28.9658 26.8821 28.5861 26.6195C26.328 25.0583 24.98 22.4903 24.98 19.75C24.98 15.1483 28.7238 11.4045 33.3255 11.4045C37.9272 11.4045 41.671 15.1483 41.671 19.75C41.6709 24.3518 37.9272 28.0957 33.3255 28.0957ZM34.7317 18.4453V23.7422C34.7317 24.5188 34.102 25.1484 33.3254 25.1484C32.5488 25.1484 31.9192 24.5188 31.9192 23.7422V18.4453C31.9192 17.6687 32.5488 17.0391 33.3254 17.0391C34.102 17.0391 34.7317 17.6687 34.7317 18.4453ZM34.7317 15.1172V15.2109C34.7317 15.9876 34.102 16.6172 33.3254 16.6172C32.5488 16.6172 31.9192 15.9876 31.9192 15.2109V15.1172C31.9192 14.3406 32.5488 13.7109 33.3254 13.7109C34.102 13.7109 34.7317 14.3406 34.7317 15.1172ZM22.3112 42.6562C22.3112 43.4329 21.6816 44.0625 20.9049 44.0625H17.3424C16.5658 44.0625 15.9362 43.4329 15.9362 42.6562C15.9362 41.8796 16.5658 41.25 17.3424 41.25H20.9049C21.6816 41.25 22.3112 41.8796 22.3112 42.6562Z" fill="#F0792E"/>
</g>
<defs>
<clipPath id="clip0_2481_15558">
<rect width="48" height="48" fill="white"/>
</clipPath>
</defs>
</svg>
