<svg width="13" height="13" viewBox="0 0 13 13" fill="none" xmlns="http://www.w3.org/2000/svg">
<g clip-path="url(#clip0_2481_14982)">
<path d="M7.69101 6.48929L12.753 11.5514C13.0824 11.8807 13.0824 12.413 12.753 12.7423C12.4237 13.0716 11.8913 13.0716 11.562 12.7423L6.49993 7.68021L1.43799 12.7423C1.10856 13.0716 0.576336 13.0716 0.247067 12.7423C-0.0823557 12.413 -0.0823557 11.8807 0.247067 11.5514L5.30901 6.48929L0.247067 1.4272C-0.0823557 1.09793 -0.0823557 0.565545 0.247067 0.236278C0.411162 0.0720282 0.626921 -0.0104809 0.842527 -0.0104809C1.05813 -0.0104809 1.27374 0.0720282 1.43799 0.236278L6.49993 5.29837L11.562 0.236278C11.7263 0.0720282 11.9419 -0.0104809 12.1575 -0.0104809C12.3731 -0.0104809 12.5887 0.0720282 12.753 0.236278C13.0824 0.565545 13.0824 1.09793 12.753 1.4272L7.69101 6.48929Z" fill="#434B53"/>
</g>
<defs>
<clipPath id="clip0_2481_14982">
<rect width="13" height="13" fill="white" transform="matrix(1 0 0 -1 0 13)"/>
</clipPath>
</defs>
</svg>
