<svg width="24" height="24" viewBox="0 0 24 24" fill="none" xmlns="http://www.w3.org/2000/svg">
<path d="M16.2188 11.2969C15.4794 11.2969 14.7695 11.4247 14.1094 11.6589V2.85938C14.1094 2.35126 13.8369 1.3938 12.0123 0.688477C10.8635 0.244629 9.3609 0 7.78125 0C4.72888 0 1.45312 0.96698 1.45312 2.85938V16.9219C1.45312 17.5428 1.81805 18.4197 3.55682 19.0717C4.69629 19.4991 6.19647 19.7344 7.78125 19.7344C8.61145 19.7344 9.4292 19.6686 10.1834 19.5428C10.9933 22.1237 13.3925 24 16.2188 24C19.708 24 22.5469 21.1403 22.5469 17.625C22.5469 14.1357 19.708 11.2969 16.2188 11.2969ZM10.3453 15.2703C9.5658 15.431 8.68781 15.5156 7.78125 15.5156C4.59668 15.5156 2.85938 14.5263 2.85938 14.1094V13.1373C4.23944 13.864 6.21185 14.1094 7.78125 14.1094C9.04633 14.1094 10.2568 13.959 11.2738 13.6811C10.8915 14.1594 10.5773 14.6938 10.3453 15.2703ZM12.7031 8.48438C12.7031 8.89801 10.9777 9.89062 7.78125 9.89062C4.59668 9.89062 2.85938 8.90131 2.85938 8.48438V7.51245C4.23669 8.23755 6.20782 8.48438 7.78125 8.48438C9.36603 8.48438 10.8662 8.24908 12.0057 7.82172C12.2686 7.72321 12.4995 7.61938 12.7031 7.51227V8.48438ZM12.7031 5.67188C12.7031 6.08551 10.9777 7.07812 7.78125 7.07812C4.59668 7.07812 2.85938 6.08881 2.85938 5.67188V4.69977C4.23944 5.42651 6.21185 5.67188 7.78125 5.67188C9.34991 5.67188 11.3227 5.4267 12.7031 4.69977V5.67188ZM7.78125 11.2969C9.34991 11.2969 11.3227 11.0517 12.7031 10.3248V11.2969C12.7031 11.3972 12.4843 11.7654 11.5118 12.13C10.5264 12.4995 9.2016 12.7031 7.78125 12.7031C4.59668 12.7031 2.85938 11.7138 2.85938 11.2969V10.3248C4.23944 11.0515 6.21185 11.2969 7.78125 11.2969ZM7.78125 1.40625C10.881 1.40625 12.7031 2.41223 12.7031 2.85938C12.7031 3.27301 10.9777 4.26562 7.78125 4.26562C4.59668 4.26562 2.85938 3.27631 2.85938 2.85938C2.85938 2.4278 4.63806 1.40625 7.78125 1.40625ZM7.78125 18.3281C4.59668 18.3281 2.85938 17.3388 2.85938 16.9219V15.9498C4.23944 16.6765 6.21185 16.9219 7.78125 16.9219C8.5285 16.9219 9.26166 16.869 9.94904 16.7672C9.91077 17.0479 9.89062 17.334 9.89062 17.625C9.89062 17.8061 9.8985 17.9852 9.91333 18.1624C9.24664 18.2714 8.52118 18.3281 7.78125 18.3281ZM16.2188 22.5938C13.8356 22.5938 11.8429 20.8751 11.3925 18.601C11.3904 18.5903 11.3892 18.5795 11.3868 18.5687C11.3864 18.5669 11.3857 18.5652 11.3853 18.5636C11.3275 18.2595 11.2969 17.9458 11.2969 17.625C11.2969 14.911 13.5048 12.7031 16.2188 12.7031C18.9327 12.7031 21.1406 14.911 21.1406 17.625C21.1406 20.3648 18.9327 22.5938 16.2188 22.5938Z" fill="#F0792E"/>
<path d="M18.2965 15.8481C18.547 15.8481 18.75 15.6582 18.75 15.424C18.75 15.19 18.547 15 18.2965 15H14.7046C14.4541 15 14.251 15.19 14.251 15.424C14.251 15.6582 14.4541 15.8481 14.7046 15.8481H15.734C16.1597 15.8474 16.5465 16.0796 16.7228 16.4417H14.709C14.4587 16.4417 14.2555 16.6317 14.2555 16.8657C14.2555 17.0999 14.4587 17.2897 14.709 17.2897H16.7228C16.5449 17.6508 16.159 17.8824 15.734 17.8834H14.7046C14.5185 17.8836 14.3513 17.9897 14.2824 18.1512C14.2135 18.3127 14.2567 18.4972 14.3915 18.617L16.9586 20.8855C17.0434 20.9597 17.1554 21.0007 17.2714 21C17.3961 20.9993 17.5154 20.952 17.6025 20.8686C17.6851 20.7871 17.7296 20.6783 17.7262 20.5662C17.7228 20.4541 17.6718 20.3477 17.5845 20.2707L15.8428 18.7314C16.7263 18.6837 17.4714 18.0992 17.6752 17.2941H18.2965C18.547 17.2941 18.75 17.1042 18.75 16.87C18.75 16.6358 18.547 16.446 18.2965 16.446H17.6752C17.6224 16.2348 17.5303 16.0337 17.4031 15.8524H18.2965V15.8481Z" fill="#F0792E"/>
</svg>
