<svg width="16" height="16" viewBox="0 0 16 16" fill="none" xmlns="http://www.w3.org/2000/svg">
<path d="M5.46452 6.97436H1.51031C1.10994 6.97399 0.726078 6.81367 0.442934 6.52859C0.159791 6.2435 0.000495328 5.85694 0 5.45371V1.52065C0.000495328 1.11742 0.159791 0.730855 0.442934 0.445773C0.726078 0.16069 1.10994 0.000373977 1.51031 0H5.46452C5.8648 0.000498638 6.24855 0.16087 6.53159 0.445939C6.81463 0.731008 6.97386 1.1175 6.97436 1.52065V5.45371C6.97386 5.85686 6.81463 6.24335 6.53159 6.52842C6.24855 6.81349 5.8648 6.97386 5.46452 6.97436ZM1.51031 1.1777C1.41999 1.17783 1.33341 1.21398 1.2695 1.27826C1.2056 1.34253 1.16958 1.42969 1.16933 1.52065V5.45371C1.16958 5.54467 1.2056 5.63183 1.2695 5.6961C1.33341 5.76037 1.41999 5.79653 1.51031 5.79666H5.46452C5.55479 5.79653 5.64133 5.76036 5.70516 5.69607C5.76899 5.63178 5.8049 5.54463 5.80503 5.45371V1.52065C5.8049 1.42973 5.76899 1.34258 5.70516 1.27829C5.64133 1.214 5.55479 1.17783 5.46452 1.1777H1.51031Z" fill="white"/>
<path d="M5.46525 15.9997H1.51051C1.11005 15.9993 0.726134 15.8388 0.442965 15.5537C0.159797 15.2685 0.00049516 14.8819 0 14.4786V10.546C0.000495394 10.1428 0.159812 9.75625 0.442994 9.47116C0.726176 9.18608 1.11009 9.02576 1.51051 9.02539H5.46525C5.86543 9.02614 6.24898 9.18662 6.53186 9.47166C6.81474 9.7567 6.97386 10.1431 6.97436 10.546V14.4786C6.97399 14.8817 6.81492 15.2682 6.53203 15.5533C6.24914 15.8385 5.86551 15.999 5.46525 15.9997ZM1.51051 10.2031C1.42018 10.2032 1.33359 10.2394 1.26967 10.3036C1.20576 10.3679 1.16974 10.4551 1.16949 10.546V14.4786C1.16961 14.5697 1.20558 14.6569 1.26951 14.7213C1.33344 14.7857 1.4201 14.8219 1.51051 14.822H5.46525C5.55558 14.8218 5.64213 14.7855 5.70595 14.7212C5.76978 14.6568 5.80568 14.5696 5.80581 14.4786V10.546C5.80568 10.4551 5.76976 10.368 5.70592 10.3037C5.64208 10.2394 5.55553 10.2032 5.46525 10.2031H1.51051Z" fill="white"/>
<path d="M14.4899 15.9997H10.5357C10.1353 15.9993 9.75143 15.8388 9.4683 15.5537C9.18517 15.2685 9.02589 14.8819 9.02539 14.4786V10.546C9.02589 10.1428 9.18518 9.75625 9.46832 9.47116C9.75147 9.18608 10.1353 9.02576 10.5357 9.02539H14.4899C14.8902 9.02589 15.2739 9.18626 15.557 9.47133C15.84 9.7564 15.9993 10.1429 15.9997 10.546V14.4786C15.9994 14.8819 15.8402 15.2685 15.5571 15.5536C15.2741 15.8388 14.8903 15.9993 14.4899 15.9997ZM10.5357 10.2054C10.4454 10.2056 10.3588 10.2417 10.2949 10.306C10.231 10.3703 10.195 10.4574 10.1947 10.5484V14.481C10.1948 14.572 10.2308 14.6593 10.2947 14.7237C10.3586 14.7881 10.4453 14.8243 10.5357 14.8244H14.4899C14.5802 14.8242 14.6668 14.7879 14.7306 14.7235C14.7944 14.6592 14.8303 14.5719 14.8304 14.481V10.546C14.8303 10.4551 14.7944 10.368 14.7305 10.3037C14.6667 10.2394 14.5802 10.2032 14.4899 10.2031L10.5357 10.2054Z" fill="white"/>
<path d="M12.4867 6.97435C11.7981 6.96923 11.1264 6.76037 10.5564 6.37409C9.98635 5.98781 9.54342 5.44141 9.28346 4.80377C9.02349 4.16613 8.95812 3.46579 9.09559 2.79106C9.23305 2.11632 9.5672 1.49738 10.0559 1.01227C10.5446 0.527165 11.166 0.197604 11.8417 0.0651363C12.5175 -0.0673316 13.2173 0.00322391 13.853 0.267908C14.4887 0.532592 15.0318 0.979556 15.4138 1.55245C15.7958 2.12535 15.9997 2.79853 15.9997 3.48713C15.9951 4.41507 15.6227 5.3033 14.9641 5.95703C14.3055 6.61075 13.4146 6.97661 12.4867 6.97435ZM12.4867 1.17802C12.0311 1.18313 11.5872 1.3229 11.2109 1.57971C10.8346 1.83653 10.5427 2.19892 10.3719 2.62128C10.2011 3.04364 10.1591 3.50709 10.2511 3.95329C10.3431 4.39949 10.565 4.80851 10.8889 5.12885C11.2129 5.4492 11.6243 5.66656 12.0715 5.75358C12.5187 5.84059 12.9817 5.79338 13.4021 5.61787C13.8225 5.44236 14.1816 5.14641 14.4342 4.76726C14.6868 4.38811 14.8216 3.94272 14.8216 3.48713C14.8179 2.87116 14.57 2.28183 14.1322 1.84848C13.6944 1.41513 13.1026 1.17316 12.4867 1.17566V1.17802Z" fill="white"/>
</svg>
