<svg width="11" height="12" viewBox="0 0 11 12" fill="none" xmlns="http://www.w3.org/2000/svg">
<path d="M5.5002 1.93688e-08C5.98715 -6.85451e-05 6.45654 0.1819 6.8162 0.510177C7.17586 0.838454 7.39981 1.28932 7.44408 1.77426H10.4681C10.603 1.7743 10.7328 1.82553 10.8313 1.9176C10.9299 2.00967 10.9898 2.13571 10.999 2.27025C11.0082 2.4048 10.966 2.53782 10.8809 2.64244C10.7958 2.74705 10.6741 2.81546 10.5405 2.83384L10.4681 2.83881H10.0544L9.15517 10.6313C9.11512 10.9773 8.94932 11.2964 8.68931 11.528C8.42929 11.7596 8.09321 11.8876 7.74499 11.8875H3.25541C2.90719 11.8876 2.5711 11.7596 2.31109 11.528C2.05107 11.2964 1.88527 10.9773 1.84523 10.6313L0.945324 2.83881H0.532277C0.403652 2.83881 0.27938 2.79222 0.182443 2.70768C0.0855055 2.62314 0.0224609 2.50635 0.0049679 2.37892L0 2.30653C5.42419e-06 2.17791 0.0465868 2.05364 0.13113 1.9567C0.215673 1.85976 0.332458 1.79672 0.459888 1.77923L0.532277 1.77426H3.55632C3.60059 1.28932 3.82454 0.838454 4.1842 0.510177C4.54386 0.1819 5.01325 -6.85451e-05 5.5002 1.93688e-08ZM4.43564 4.43564C4.26177 4.43564 4.11628 4.54565 4.08647 4.69043L4.08079 4.74649V9.09342L4.08647 9.14878C4.11628 9.29356 4.26177 9.40356 4.43564 9.40356C4.60952 9.40356 4.75501 9.29356 4.78482 9.14878L4.7905 9.09271V4.7472L4.78482 4.69043C4.75501 4.54636 4.60952 4.43564 4.43564 4.43564ZM6.56475 4.43564C6.39088 4.43564 6.24539 4.54565 6.21558 4.69043L6.2099 4.74649V9.09342L6.21558 9.14878C6.24539 9.29356 6.39088 9.40356 6.56475 9.40356C6.73863 9.40356 6.88412 9.29356 6.91393 9.14878L6.9196 9.09271V4.7472L6.91393 4.69043C6.88412 4.54636 6.73863 4.43635 6.56475 4.43635V4.43564ZM5.5002 1.06455C5.07083 1.06455 4.71243 1.36973 4.63081 1.77426H6.36958C6.28726 1.36973 5.92957 1.06455 5.5002 1.06455Z" fill="#20446C"/>
</svg>
