<svg width="39" height="26" viewBox="0 0 39 26" fill="none" xmlns="http://www.w3.org/2000/svg">
<g clip-path="url(#clip0_834_17284)">
<path d="M36.0799 10.193L36.0796 10.1932H36.08C35.869 10.523 35.7924 10.9201 35.728 11.334C35.6492 11.838 35.566 12.3218 35.3936 12.7961C35.1865 13.3646 34.8386 13.9981 34.233 14.4939C33.6037 12.7324 32.6877 11.1149 31.5441 9.70033C32.2657 9.40219 32.9739 9.40683 33.5561 9.50609C34.0397 9.58885 34.4866 9.75632 34.9484 9.93773C35.3271 10.0872 35.6981 10.2172 36.0799 10.193ZM29.0541 2.92987L29.0539 2.93024L29.0544 2.93011C29.031 3.32471 29.1567 3.70818 29.3012 4.09984C29.4766 4.57719 29.6386 5.03914 29.7188 5.53911C29.8148 6.14152 29.8192 6.87448 29.5301 7.62101C28.1597 6.44052 26.593 5.49572 24.8876 4.84759C25.3683 4.21646 25.9838 3.8545 26.5362 3.63948C26.995 3.46125 27.463 3.37532 27.9508 3.29366C28.3509 3.22728 28.7351 3.14819 29.0541 2.92987ZM34.9729 17.3452C35.7365 17.4619 36.3442 17.8301 36.7983 18.2152C37.1769 18.5369 37.4829 18.9129 37.7952 19.3089C38.0507 19.6338 38.3092 19.9382 38.6514 20.1146H35.2037C35.2027 19.1704 35.1232 18.2454 34.9729 17.3452ZM9.85936 2.93011L9.8596 2.93036V2.92999C10.1786 3.14819 10.5628 3.22728 10.9631 3.29391C11.4506 3.37544 11.9186 3.46138 12.3774 3.63948C12.9298 3.8545 13.5454 4.21658 14.026 4.84772C12.3204 5.49572 10.7539 6.44064 9.38355 7.62113C9.09444 6.8746 9.09869 6.14164 9.19494 5.53911C9.275 5.03927 9.43699 4.57719 9.61247 4.09972C9.75696 3.7083 9.88278 3.32471 9.85936 2.93011ZM2.8337 10.1933L2.83405 10.1935L2.83393 10.1931C3.21563 10.2172 3.58668 10.0872 3.96542 9.93785C4.42717 9.75644 4.87402 9.58897 5.35753 9.50609C5.93989 9.40696 6.64806 9.40243 7.36947 9.70046C6.22592 11.115 5.31023 12.7327 4.68069 14.494C4.07516 13.9981 3.72728 13.3649 3.52011 12.7962C3.34771 12.3219 3.26458 11.8381 3.18571 11.334C3.12139 10.9202 3.04476 10.523 2.8337 10.1933ZM0.262451 20.1146C0.604653 19.9382 0.862902 19.6339 1.11878 19.3089C1.43083 18.9131 1.73685 18.537 2.11548 18.2154C2.56966 17.8302 3.17685 17.4619 3.94071 17.3453C3.79042 18.2454 3.71108 19.1704 3.71013 20.1146H0.262451ZM19.4567 0.271484V0.27185L19.457 0.271484C19.6276 0.625373 19.922 0.892469 20.2365 1.157C20.6193 1.4796 20.9832 1.79596 21.2943 2.18738C21.6691 2.65984 22.0276 3.29256 22.1381 4.08921C21.2665 3.93457 20.371 3.85316 19.4569 3.85316C18.5427 3.85316 17.6471 3.93457 16.7755 4.08921C16.886 3.29268 17.2445 2.65984 17.6193 2.18749C17.9306 1.79596 18.2943 1.47959 18.6772 1.15688C18.9916 0.892591 19.286 0.625373 19.4567 0.271484Z" fill="#F0792E"/>
<path d="M16.2544 20.1183L17.4392 20.1147C17.5948 19.0802 17.2904 18.2836 16.2781 18.4737C15.4251 18.6339 14.5088 19.51 13.9551 20.1147L15.5172 20.1076C15.6913 19.9893 16.0319 19.8543 16.1718 19.9548C16.2242 19.9925 16.2515 20.0459 16.2544 20.1183Z" fill="#003D71"/>
<path d="M21.5827 20.1146H23.0607C23.1311 18.31 22.8499 16.4466 22.0384 14.8344C21.3003 13.3675 20.0802 12.3703 18.5007 12.1294C16.1949 11.7777 13.8683 12.7868 11.9013 14.2305C9.75966 15.8024 7.9919 17.9372 6.44702 20.1146L8.39961 20.1116C10.1574 17.5359 14.2006 13.6255 17.1748 13.6C18.1227 13.5919 19.0864 13.8218 19.7989 14.479C20.3152 14.9553 20.9411 15.88 20.9104 16.6306C20.8922 17.0757 20.5102 17.2121 20.1438 17.0742C19.8592 16.9671 19.6582 16.6982 19.4591 16.4154C18.8119 15.4969 17.8025 15.0474 16.6952 15.204C15.3747 15.3907 13.7377 16.4508 12.6819 17.4149C11.7714 18.2464 10.9355 19.1563 10.147 20.1146H12.2464C13.0158 19.1542 13.8282 18.3354 14.8727 17.6628C15.2032 17.45 15.6102 17.2249 16.038 17.0728C17.1172 16.6894 18.1913 16.7864 18.6681 18.1756C18.8556 18.7218 18.8831 19.2008 18.8285 20.0788L18.8284 20.1146H20.2558L20.2595 20.0695C20.2606 19.5887 20.2504 19.2648 20.2924 18.7883C20.3284 18.3777 20.4519 17.9521 20.8208 17.9015C21.6049 17.7317 21.5673 19.535 21.5827 20.1146Z" fill="#003D71"/>
<path d="M24.615 20.1149H26.1053C26.1775 18.4407 26.0387 16.4572 25.5147 14.7253C25.4112 14.3836 25.2931 14.052 25.1589 13.7354C24.8417 12.9869 24.4148 12.3094 23.9059 11.6833C23.3402 10.9877 22.6662 10.3623 21.9063 9.86972C21.6821 9.72437 21.4497 9.59015 21.2096 9.46888V9.46864C20.9714 9.34823 20.7251 9.24054 20.4715 9.14751L20.4706 9.14715C17.5683 8.08181 14.6328 8.83946 12.1705 10.224C11.6904 10.494 11.2284 10.7876 10.7886 11.096C10.3488 11.4042 9.9301 11.728 9.53635 12.0582H9.53623L9.53552 12.0589C9.06809 12.4508 8.48325 12.9871 7.90444 13.6209C7.79045 13.7457 7.67788 13.8729 7.56839 14.0014C7.27549 14.3446 6.82415 14.8259 6.95812 15.3234C7.06419 15.718 7.55668 15.6017 7.72826 15.4658C7.99159 15.3197 8.28082 15.0882 8.5283 14.8717C8.86341 14.5785 9.17995 14.2627 9.51175 13.9654C10.8538 12.7627 12.2527 11.8351 13.6306 11.2074C13.9309 11.0706 14.2316 10.9475 14.5313 10.8387C14.8298 10.7303 15.1269 10.6364 15.4213 10.5573L15.4227 10.557C17.9866 9.86874 20.7727 10.3146 22.5566 12.4761C24.275 14.5582 24.5887 17.3453 24.615 20.1149ZM6.12284 17.7611C6.28294 17.6066 6.44612 17.405 6.61616 17.1818C6.85407 16.8699 6.87796 16.5678 6.78395 16.3497C6.74895 16.2683 6.69728 16.1983 6.63449 16.144C6.57217 16.0902 6.49862 16.0518 6.41928 16.033C6.22536 15.9872 5.99348 16.0589 5.7966 16.3066C5.57395 16.5865 5.26651 17.0655 5.20372 17.489C5.19201 17.5684 5.18882 17.6455 5.19674 17.7179C5.20443 17.7883 5.22264 17.8553 5.25326 17.9164L5.2535 17.917L5.25362 17.9169C5.30376 18.0164 5.3883 18.0688 5.50111 18.0732C5.52464 18.0741 5.55006 18.073 5.57714 18.0699C5.60351 18.0669 5.63212 18.0615 5.66251 18.0541L5.66263 18.0544L5.66405 18.054C5.81588 18.0164 5.9677 17.9108 6.12284 17.7611Z" fill="#003D71"/>
<path d="M28.3429 20.1153L28.3536 20.1151H28.3589C28.5149 20.1239 28.7855 20.0497 28.9416 19.7775C28.9727 19.7231 28.9994 19.6608 29.0197 19.5902C29.0404 19.5183 29.0547 19.4368 29.0607 19.3452H29.0608L29.0619 19.3264C29.1804 15.0472 27.9125 11.5048 25.7601 9.09807C25.3421 8.63074 24.8901 8.20559 24.4079 7.82603C23.926 7.44671 23.4147 7.11336 22.878 6.82902L22.8779 6.82915L22.8694 6.82475L22.8691 6.8245C21.06 5.8687 19.0082 5.50161 16.9942 5.678C16.6013 5.71235 16.2108 5.76724 15.825 5.84217C15.4382 5.91735 15.0546 6.01282 14.6767 6.12809L14.6714 6.1298C12.6002 6.76314 10.6728 8.02039 9.10216 9.67004C8.79626 9.99141 8.50396 10.3272 8.2275 10.6757C8.08998 10.8488 7.95613 11.0253 7.82642 11.2045C8.92787 10.2221 10.1096 9.36028 11.3456 8.67561C11.624 8.52146 11.904 8.3766 12.1848 8.24238C12.466 8.10779 12.7507 7.98225 13.0384 7.86661L13.0393 7.86625L13.0401 7.86588C14.1321 7.42716 15.2086 7.14734 16.2853 7.02229C17.3621 6.89724 18.4395 6.92694 19.5337 7.10676C20.3123 7.23487 21.0724 7.44561 21.757 7.74046C21.8898 7.79767 22.0206 7.85842 22.1485 7.9226C22.2748 7.98592 22.3992 8.05315 22.521 8.1243H22.5212L22.5231 8.12527L22.523 8.1254C24.9336 9.48998 26.6083 12.29 27.3459 15.4515C27.4897 16.068 27.598 16.6978 27.6691 17.3323C27.7401 17.9664 27.7742 18.6077 27.7699 19.2477V19.2479L27.7696 19.2847C27.7819 19.6271 27.8954 19.9135 28.0899 20.0425C28.1261 20.0664 28.1653 20.0851 28.2071 20.0972H28.2073C28.2499 20.1098 28.2952 20.1161 28.3429 20.1153Z" fill="#003D71"/>
<path d="M24.033 5.85352C29.8286 7.83248 34.0171 13.4668 34.0415 20.1147H31.1738C31.3636 14.3076 28.912 9.0659 24.033 5.85352Z" fill="#F0792E"/>
<path d="M7.20526 24.7776H6.04528L5.75806 25.8224H4.8335L6.05675 21.8211H7.2282L8.48586 25.8224H7.5211L7.20526 24.7776ZM6.17736 24.1008H7.06739C6.83397 23.319 6.68274 22.7828 6.6138 22.4918H6.60221L6.41846 23.2518L6.17736 24.1008ZM11.4661 24.7776H10.306L10.0189 25.8224H9.09435L10.3175 21.8211H11.4891L12.7467 25.8224H11.782L11.4661 24.7776ZM10.4381 24.1008H11.3282C11.0947 23.319 10.9435 22.7828 10.8745 22.4918H10.8631L10.6793 23.2518L10.4381 24.1008ZM13.6307 25.8047V21.8745C14.0136 21.8151 14.4232 21.7854 14.8596 21.7854C15.6848 21.7854 16.2772 21.9635 16.6362 22.3207C16.995 22.6779 17.1741 23.145 17.1741 23.7208C17.1741 24.4016 16.9702 24.929 16.5614 25.303C16.1528 25.677 15.5221 25.864 14.6702 25.864C14.2759 25.864 13.9294 25.8442 13.6307 25.8047ZM14.5209 22.5275V25.1338C14.5707 25.1457 14.6779 25.1516 14.8425 25.1516C15.2846 25.1516 15.6273 25.0309 15.8695 24.7905C16.1116 24.55 16.2322 24.2057 16.2322 23.7564C16.2322 23.3448 16.1222 23.0312 15.901 22.8154C15.6799 22.5998 15.3612 22.4918 14.9458 22.4918C14.7717 22.4918 14.63 22.5038 14.5209 22.5275ZM18.127 21.8211H19.0172V23.3586H20.539V21.8211H21.4291V25.8224H20.539V24.1542H19.0172V25.8224H18.127V21.8211ZM24.6562 24.7776H23.4962L23.2091 25.8224H22.2844L23.5076 21.8211H24.6792L25.9369 25.8224H24.9721L24.6562 24.7776ZM23.6283 24.1008H24.5184C24.2849 23.319 24.1336 22.7828 24.0647 22.4918H24.0532L23.8695 23.2518L23.6283 24.1008ZM28.917 24.7776H27.7569L27.4698 25.8224H26.5452L27.7684 21.8211H28.94L30.1976 25.8224H29.2328L28.917 24.7776ZM27.889 24.1008H28.7791C28.5456 23.319 28.3944 22.7828 28.3254 22.4918H28.314L28.1302 23.2518L27.889 24.1008ZM31.0816 25.8224V21.8745C31.4071 21.8151 31.8072 21.7854 32.2819 21.7854C32.8677 21.7854 33.2888 21.8854 33.5453 22.0853C33.8019 22.2851 33.93 22.571 33.93 22.9431C33.93 23.1648 33.8659 23.3646 33.7367 23.5437C33.6076 23.7228 33.44 23.8494 33.2352 23.9227V23.9464C33.4764 24.0394 33.6506 24.2849 33.7577 24.6825C33.955 25.399 34.0621 25.7789 34.0794 25.8224H33.1721C33.0955 25.674 33.0036 25.3634 32.8963 24.8903C32.8428 24.6529 32.77 24.4867 32.6782 24.3917C32.5863 24.2967 32.4388 24.2492 32.2359 24.2492H31.9603V25.8224H31.0816ZM31.9603 22.4918V23.5902H32.3278C32.5499 23.5902 32.725 23.5377 32.8533 23.4338C32.9816 23.33 33.0457 23.1904 33.0457 23.0143C33.0457 22.8381 32.9883 22.7016 32.8724 22.6056C32.7567 22.5097 32.592 22.4622 32.3796 22.4622C32.1709 22.4622 32.0311 22.4722 31.9603 22.4918Z" fill="#003D71"/>
</g>
<defs>
<clipPath id="clip0_834_17284">
<rect width="39" height="26" fill="white"/>
</clipPath>
</defs>
</svg>
