<svg width="32" height="32" viewBox="0 0 32 32" fill="none" xmlns="http://www.w3.org/2000/svg">
<circle cx="16" cy="16" r="16" fill="#FEEEE4"/>
<g clip-path="url(#clip0_2120_11517)">
<path d="M18.6665 6.32667V7.31821L16.8579 6.05842C16.8022 6.01986 16.7362 5.99921 16.6684 5.99921C16.5999 5.99873 16.5328 6.01936 16.4764 6.05842L10.0023 10.5663C9.85163 10.6711 9.81408 10.8781 9.91826 11.0292L10.7256 12.1907C10.8308 12.3424 11.0391 12.3797 11.1904 12.274L12.0003 11.7095V15.6647C12.0003 16.1092 12.667 16.1092 12.667 15.6647V11.2453L16.6658 8.46012L20.6665 11.246V15.6647C20.6665 16.1092 21.3332 16.1092 21.3332 15.6647V11.7102L22.1431 12.274C22.2941 12.3783 22.5009 12.3411 22.606 12.1907L23.4153 11.0292C23.5195 10.8781 23.4819 10.6712 23.3312 10.5663L21.3333 9.17502V6.32667C21.3326 6.14258 21.1827 5.99393 20.9986 5.99463H18.9839C18.7961 6.01177 18.6664 6.1553 18.6665 6.32667ZM19.3332 6.65871H20.6666V8.7108L19.3332 7.78239V6.65871ZM16.6684 6.74006L22.677 10.9231L22.2512 11.5357L16.8579 7.78112C16.7433 7.70112 16.591 7.70112 16.4764 7.78112L11.0824 11.5357L10.6566 10.9231L16.6684 6.74006ZM14.9998 11.9986C14.8157 11.9994 14.6671 12.1492 14.6678 12.3333V15.6648C14.6243 16.149 15.3753 16.149 15.3318 15.6648V12.6653H17.9992V15.6648C17.9992 16.1096 18.6665 16.1096 18.6665 15.6648V12.3333C18.6672 12.149 18.5182 11.999 18.3338 11.9986H14.9998ZM24.4511 14.3984C24.0466 14.3984 23.6424 14.5522 23.3352 14.8594L21.3808 16.8139C21.0537 17.128 21.538 17.6123 21.8521 17.2852L23.8066 15.3308C24.1679 14.9694 24.735 14.9694 25.0963 15.3308C25.2759 15.5103 25.3391 15.7053 25.3307 15.9349C25.3219 16.1645 25.2275 16.4263 25.0599 16.6641C24.4227 17.5676 22.9955 19.6323 22.2317 20.7384C21.6462 21.5864 20.9359 21.9995 19.9999 21.9995H14.3331C13.7261 21.9995 13.3171 22.2616 13.0069 22.5353L8.56737 18.0957C8.43783 17.9662 8.22857 17.9645 8.09731 18.0957L6.09727 20.0965C5.96627 20.2268 5.96627 20.4388 6.09727 20.5691L11.432 25.9013C11.562 26.0305 11.772 26.0305 11.9021 25.9013L13.9021 23.9006C14.0314 23.7705 14.0314 23.5605 13.9021 23.4305L13.4737 23.0021C13.6976 22.7975 13.9191 22.6662 14.3331 22.6662H19.9999C21.1453 22.6662 22.1018 22.0993 22.7799 21.1173C23.5435 20.0115 24.9725 17.9439 25.6042 17.0482C25.8341 16.7222 25.9832 16.347 25.9974 15.959C26.0115 15.5709 25.876 15.1677 25.5677 14.8594C25.2606 14.5522 24.8557 14.3984 24.4511 14.3984ZM12.3331 16.6661C11.0882 16.6661 10.3178 17.2358 9.71323 17.8178C9.38896 18.1259 9.85508 18.6104 10.1755 18.2983C10.7419 17.753 11.2797 17.3327 12.3331 17.3327H19.3332C19.893 17.3327 20.3332 17.773 20.3332 18.3327C20.3332 18.8925 19.893 19.3328 19.3332 19.3328H15.6665C15.2157 19.3265 15.2157 20.0058 15.6665 19.9995H19.3332C20.2508 19.9995 20.9999 19.2503 20.9999 18.3327C20.9999 17.4152 20.2508 16.6661 19.3332 16.6661H12.3331ZM8.33364 18.8048L13.1964 23.6668L11.6683 25.1949L6.80562 20.3328L8.33364 18.8048Z" fill="#F0792E"/>
</g>
<defs>
<clipPath id="clip0_2120_11517">
<rect width="21.3333" height="21.3333" fill="white" transform="translate(5.33301 5.33301)"/>
</clipPath>
</defs>
</svg>
