<svg width="84" height="78" viewBox="0 0 84 78" fill="none" xmlns="http://www.w3.org/2000/svg">
<path opacity="0.06" d="M38.8053 0.219579C62.4859 -1.88112 62.5337 11.4736 73.2071 23.925C83.8806 36.3765 86.1627 42.0197 82.1332 56.3732C78.1037 70.7267 64.5637 81.977 47.7848 75.6023C31.006 69.2276 21.4038 75.3483 10.8259 69.6821C0.247875 64.016 -3.68808 53.0847 4.0616 40.194C11.8113 27.3033 9.5979 2.82063 38.8053 0.219579Z" fill="#F0792E"/>
<path d="M17.9641 16.9911C15.4614 20.9269 15.6251 26.3845 18.3602 30.1627C20.183 32.6826 22.9165 34.3729 25.0871 36.5965C27.2577 38.8201 28.9074 42.1025 27.7613 44.9935C26.595 47.9359 23.1785 49.1319 20.6212 50.9969C17.7997 53.0519 15.8842 56.1203 15.2771 59.5577C14.67 62.9951 15.4185 66.534 17.3653 69.4312H43.9393C43.9393 69.4312 48.608 60.5353 42.6061 53.7538C36.6043 46.9723 33.3811 46.8631 33.6026 42.4159C33.824 37.9687 36.9364 36.5263 38.7156 34.8579C40.4948 33.1894 49.1631 29.302 44.05 16.9896L17.9641 16.9911Z" fill="#FAFAFA"/>
<path d="M17.9627 16.9909H18.4196H19.7669H24.9532L44.0487 16.9768H44.069V16.9955C44.4604 17.9278 44.7937 18.8834 45.0669 19.8569C45.3539 20.8761 45.5429 21.9204 45.6314 22.9756C45.7234 24.0785 45.6667 25.1888 45.463 26.2766C45.2392 27.4043 44.8337 28.4881 44.2623 29.4857C43.9663 29.9946 43.6316 30.4799 43.2612 30.9375C42.8832 31.4012 42.4743 31.8388 42.0372 32.2473C41.5945 32.6633 41.1308 33.0562 40.6478 33.4246C40.1644 33.7988 39.6592 34.1512 39.1664 34.5255C38.9201 34.711 38.6986 34.92 38.4585 35.1289C38.2184 35.3379 37.9798 35.5328 37.7334 35.7293C37.2422 36.1222 36.7464 36.5089 36.2786 36.944C35.3022 37.7903 34.5519 38.8663 34.0955 40.0751C33.8762 40.6951 33.7378 41.3408 33.6839 41.9962C33.6698 42.1521 33.648 42.3237 33.6418 42.4889C33.6355 42.6542 33.6293 42.8195 33.6418 42.9848C33.6453 43.3167 33.6787 43.6475 33.7415 43.9734C33.8652 44.6338 34.1348 45.2581 34.5306 45.801C34.9379 46.3437 35.3992 46.8436 35.9075 47.2932C36.9163 48.2148 37.9876 49.0958 39.0121 50.047C40.0365 50.9982 41.0392 51.9899 42.006 53.0393C42.4992 53.5588 42.9606 54.1076 43.3875 54.6829C43.817 55.2653 44.1903 55.8871 44.5024 56.54C45.1335 57.8634 45.5212 59.2895 45.647 60.7502C45.7742 62.2311 45.687 63.7226 45.3881 65.1787C45.2429 65.9143 45.0523 66.6403 44.8174 67.3524C44.5866 68.0705 44.3052 68.7713 43.9754 69.4497L43.9645 69.4715H17.3421L17.3312 69.4543C16.085 67.578 15.3208 65.4234 15.1061 63.1812C14.8901 61.0274 15.206 58.8535 16.0261 56.8503C16.8055 54.9355 18.0057 53.2206 19.5377 51.8324C20.2811 51.1761 21.084 50.5904 21.9359 50.0829C22.7655 49.5683 23.6028 49.0911 24.3934 48.5703C25.1847 48.0757 25.9117 47.4849 26.5577 46.8114C27.1747 46.15 27.6323 45.3564 27.8956 44.4911C28.1264 43.6469 28.1627 42.7613 28.0017 41.9011C27.8478 41.0709 27.5709 40.2683 27.1799 39.52C26.806 38.7994 26.3576 38.12 25.842 37.4929C25.3444 36.8913 24.8034 36.3268 24.2234 35.8041C23.0992 34.7687 21.9468 33.8628 20.9114 32.9318C20.3922 32.464 19.901 31.9963 19.4472 31.5175C19.0074 31.0489 18.602 30.5491 18.2341 30.0221C17.5689 29.0557 17.0562 27.9929 16.7137 26.8708C16.4138 25.9017 16.2398 24.8981 16.196 23.8846C16.1742 23.6539 16.1836 23.4262 16.1836 23.2032C16.1836 22.9802 16.1836 22.7635 16.2038 22.553C16.2241 22.3425 16.235 22.1366 16.2506 21.9293C16.2662 21.7219 16.3083 21.5363 16.3348 21.3476C16.5071 20.199 16.8586 19.0846 17.3764 18.045C17.4466 17.8842 17.5268 17.7279 17.6166 17.5772L17.8084 17.2513C17.9097 17.0782 17.9643 16.9909 17.9643 16.9909L17.8084 17.256L17.6228 17.5772C17.5352 17.7286 17.456 17.8848 17.3858 18.045C16.8726 19.0871 16.5254 20.203 16.3566 21.3523C16.3301 21.5394 16.2989 21.7328 16.2756 21.9308C16.2522 22.1288 16.2444 22.3362 16.2288 22.5467C16.2132 22.7573 16.2132 22.974 16.2116 23.1954C16.2101 23.4168 16.2038 23.6445 16.2257 23.8753C16.2708 24.8854 16.4463 25.8854 16.748 26.8505C17.0901 27.9686 17.6023 29.0273 18.2668 29.9894C18.6338 30.5142 19.0388 31.0114 19.4784 31.477C19.9306 31.9573 20.4218 32.4251 20.9411 32.8804C21.9764 33.816 23.1241 34.7126 24.2562 35.7495C24.8407 36.2761 25.3858 36.8446 25.8872 37.4508C26.4056 38.0824 26.8567 38.7665 27.2329 39.4919C27.6276 40.2449 27.9072 41.0528 28.0625 41.8886C28.2258 42.7581 28.1896 43.6533 27.9565 44.5067C27.6919 45.382 27.2299 46.1849 26.6061 46.8535C25.9569 47.5308 25.2268 48.1258 24.4324 48.6249C23.6387 49.1473 22.8013 49.6244 21.9733 50.139C21.125 50.6452 20.3253 51.2288 19.5844 51.8823C18.0618 53.2633 16.8687 54.9685 16.0931 56.8722C15.278 58.8652 14.9647 61.0279 15.1809 63.1703C15.3956 65.3996 16.1561 67.5418 17.3951 69.4076L17.364 69.3904H43.938L43.9021 69.4122C44.2314 68.7356 44.5117 68.0363 44.741 67.3196C44.9746 66.6106 45.1642 65.8877 45.3086 65.1553C45.6061 63.7065 45.6928 62.2222 45.5659 60.7486C45.4426 59.2959 45.0575 57.8775 44.4292 56.5619C44.1193 55.9137 43.7491 55.2961 43.3236 54.7172C42.8977 54.1449 42.4384 53.5982 41.9483 53.0799C40.9867 52.0331 39.9903 51.0372 38.959 50.0922C37.9361 49.1426 36.868 48.2631 35.856 47.3369C35.3437 46.8836 34.8783 46.38 34.4666 45.8337C34.0631 45.2843 33.7867 44.6521 33.6573 43.9828C33.5949 43.6521 33.561 43.3166 33.556 42.9801C33.5482 42.8133 33.556 42.6464 33.556 42.4796C33.556 42.3127 33.5841 42.1475 33.5965 41.9822C33.6538 41.3228 33.7953 40.6735 34.0176 40.0502C34.4779 38.8307 35.2352 37.7454 36.2209 36.8925C36.6887 36.459 37.1892 36.0661 37.6804 35.6747C37.9268 35.4782 38.1685 35.2802 38.4039 35.0775C38.6394 34.8748 38.8717 34.6565 39.115 34.4693C39.6108 34.0951 40.1145 33.7427 40.5963 33.37C41.0779 33.0033 41.5405 32.6124 41.9826 32.199C42.4168 31.7923 42.8236 31.3573 43.2004 30.8969C43.5678 30.4409 43.9009 29.9583 44.1968 29.453C44.765 28.4623 45.1684 27.3858 45.3913 26.2657C45.5941 25.1867 45.6512 24.0854 45.5612 22.9912C45.4741 21.9362 45.2866 20.8919 45.0014 19.8725C44.732 18.8963 44.4029 17.9376 44.0159 17.0018L44.0424 17.0189L24.9579 17.0049H19.7684H18.4181L17.9627 16.9909Z" fill="#263238"/>
<path d="M42.9903 24.2087C46.9042 24.8527 40.7339 31.7855 37.2395 34.5205C35.2123 36.1033 33.0449 37.8216 32.0843 40.2043C30.9928 42.9082 31.8021 45.9457 31.275 48.6652C31.2581 48.759 31.2062 48.8428 31.13 48.9C31.0537 48.9571 30.9586 48.9833 30.8639 48.9732C30.7691 48.9631 30.6816 48.9176 30.6191 48.8457C30.5565 48.7738 30.5235 48.6809 30.5266 48.5857C30.5515 46.8002 30.5047 45.0164 30.2147 43.259C29.7952 40.7641 28.8378 38.3019 27.0961 36.4759C25.6693 34.9837 23.7996 33.9935 22.2793 32.5995C20.0588 30.5645 17.7775 27.9402 17.5545 24.9369C17.5545 24.9369 21.8177 21.5064 24.1848 21.9352C26.951 22.442 29.6736 26.7099 33.9586 26.2218C36.9401 25.8803 38.4511 23.4634 42.9903 24.2087Z" fill="#F0792E"/>
<path d="M43.3346 61.3132C43.2363 60.3339 42.9744 59.2268 42.1058 58.7652C41.5803 58.4846 40.9394 58.5158 40.3625 58.667C39.7855 58.8183 39.2445 59.0818 38.6737 59.2518C37.5392 59.5854 36.3276 59.5466 35.2167 59.141C34.1548 58.7512 33.2442 58.0495 32.254 57.4913C31.2638 56.933 30.1146 56.5245 29.0168 56.7974C27.1238 57.2652 26.1383 59.548 24.2671 60.0985C23.4345 60.3417 22.541 60.2045 21.6958 60.0143C20.8507 59.824 20.0008 59.5761 19.1354 59.6088C18.4555 59.6338 17.7492 59.8692 17.2736 60.3339L17.2611 60.348C17.1819 60.4255 17.1099 60.5101 17.0459 60.6006C16.4658 61.3802 16.3723 62.4141 16.5516 63.359C16.7512 64.4178 17.2455 65.3955 17.7757 66.3326C18.3994 67.4366 19.1105 68.5344 20.1427 69.2704C21.4183 70.1795 23.0197 69.5526 24.5806 69.6758C28.2185 69.9627 32.1324 70.1577 35.7718 69.877C37.6945 69.7211 39.4955 69.9362 41.0205 68.7558C42.0933 67.9263 42.7919 66.6757 43.1287 65.3627C43.4655 64.0498 43.4702 62.662 43.3346 61.3132Z" fill="#F0792E"/>
<g opacity="0.24">
<path opacity="0.24" d="M36.4696 59.4385C36.2653 59.7504 36.1764 60.1745 36.3744 60.4926C36.5725 60.8107 36.8422 61.1023 36.9264 61.4688C37.0621 62.0426 36.7159 62.6039 36.4586 63.1357C35.9824 64.0864 35.8026 65.1582 35.9425 66.2122C36.09 67.2697 36.6361 68.2309 37.4691 68.8989C37.8386 69.1843 38.3189 69.4057 38.7649 69.2654C39.1843 69.1344 39.4541 68.7087 39.5445 68.2768C39.635 67.8448 39.5586 67.4004 39.504 66.9654C39.25 64.9378 39.3026 62.8835 39.6599 60.8715C39.7192 60.5363 39.7753 60.1527 39.5633 59.886C39.4103 59.7308 39.216 59.6225 39.0035 59.5742C38.1926 59.3044 37.3178 59.6038 36.4774 59.4448" fill="black"/>
</g>
<path d="M15.4126 70.6379C15.4126 70.6379 15.3394 69.4185 16.9299 68.7387H44.8808C44.8808 68.7387 46.3387 69.4778 46.518 70.6099L15.4126 70.6379Z" fill="#434B53"/>
<path d="M44.2889 17.1389L44.2437 17.1592L17.9612 16.9908C17.9612 16.9908 17.8677 16.9315 17.7289 16.8208C17.5651 16.6925 17.4455 16.516 17.3871 16.3163C17.3286 16.1165 17.3342 15.9035 17.403 15.7071C17.4718 15.5106 17.6004 15.3407 17.7707 15.2211C17.941 15.1014 18.1445 15.0381 18.3526 15.0401L43.8632 15.2459C44.9126 15.2553 45.2432 16.6898 44.2889 17.1389Z" fill="#434B53"/>
<g opacity="0.24">
<path opacity="0.24" d="M40.0772 27.1656C40.1302 27.267 39.9322 27.4775 39.5564 27.8205C39.1806 28.1636 38.6208 28.6142 37.9253 29.1803C37.0903 29.8701 36.2042 30.4957 35.2745 31.0514C34.697 31.3859 34.0893 31.6652 33.4594 31.8857C33.1181 32.0037 32.7697 32.1 32.4162 32.1742C32.0449 32.253 31.6679 32.302 31.2888 32.3207C30.5206 32.3625 29.7515 32.2567 29.0231 32.0089C28.3792 31.7747 27.7673 31.4603 27.2019 31.0733C26.6779 30.7271 26.2273 30.3841 25.7985 30.055C25.3696 29.726 24.9876 29.4095 24.6414 29.1101C23.2614 27.9141 22.5348 27.0346 22.6751 26.8647C22.8155 26.6947 23.7978 27.2483 25.326 28.1838L26.5734 28.9479C27.021 29.2192 27.4997 29.5202 27.9893 29.7977C28.4752 30.083 28.9901 30.3156 29.5252 30.4916C30.0729 30.6556 30.6448 30.7232 31.2156 30.6912C32.4131 30.6289 33.5748 30.2079 34.5806 29.7213C35.5863 29.2348 36.497 28.6672 37.286 28.2244C37.9104 27.8559 38.5633 27.5378 39.2383 27.2732C39.7326 27.1001 40.032 27.0674 40.0772 27.1656Z" fill="black"/>
</g>
<path d="M30.5453 51.9231C30.6558 51.8792 30.7791 51.8805 30.8886 51.9268C30.9981 51.9731 31.085 52.0607 31.1304 52.1706C31.1758 52.2805 31.1761 52.4039 31.1312 52.514C31.0863 52.6241 30.9999 52.7121 30.8906 52.7589C30.7813 52.8058 30.658 52.8077 30.5473 52.7642C30.4366 52.7208 30.3475 52.6355 30.2992 52.5269C30.2509 52.4182 30.2474 52.2949 30.2894 52.1836C30.3313 52.0724 30.4154 51.9822 30.5235 51.9325" fill="#FF725E"/>
<path d="M21.1436 31.5138C21.1094 31.4858 21.0781 31.4544 21.05 31.4203L20.7959 31.1427C20.6883 31.0195 20.5464 30.8761 20.4014 30.6936L19.9055 30.0699C19.7355 29.8297 19.5437 29.5709 19.3504 29.2902L19.065 28.8365C19.0167 28.7585 18.9652 28.6805 18.9184 28.5979L18.7812 28.3453C18.3662 27.6098 18.0411 26.8271 17.8129 26.0141C17.5835 25.2017 17.4598 24.3632 17.4449 23.5192C17.4449 23.3242 17.4558 23.1356 17.4589 22.95C17.4589 22.858 17.4589 22.7676 17.4714 22.6787C17.4839 22.5898 17.4901 22.5025 17.4995 22.4167C17.5197 22.2452 17.5322 22.0783 17.5556 21.9193C17.579 21.7602 17.6117 21.6074 17.6382 21.4655C17.6819 21.1739 17.7599 20.9198 17.8144 20.6859C17.8441 20.5736 17.8675 20.4676 17.8971 20.374L17.9828 20.1136L18.1029 19.7565C18.1144 19.714 18.1301 19.6727 18.1497 19.6333C18.1433 19.6768 18.1328 19.7196 18.1185 19.7612C18.092 19.8516 18.0577 19.9717 18.0125 20.123L17.9345 20.3834C17.908 20.4785 17.8862 20.5845 17.8581 20.6952C17.8082 20.9213 17.7349 21.1771 17.7022 21.4749C17.6772 21.6183 17.6523 21.7696 17.6258 21.9271C17.5993 22.0846 17.593 22.2499 17.5743 22.4214C17.5743 22.5072 17.5572 22.5929 17.5478 22.6818C17.5384 22.7707 17.5478 22.8611 17.5384 22.9516C17.5384 23.1356 17.526 23.3227 17.5275 23.516C17.5427 24.3551 17.6648 25.1888 17.8908 25.9969C18.1179 26.804 18.4387 27.5817 18.8467 28.3141C18.8919 28.3983 18.9372 28.4825 18.9808 28.5667C19.0245 28.6509 19.0791 28.7226 19.1258 28.8037L19.4065 29.2575C19.5967 29.5444 19.7854 29.8032 19.9507 30.0371L20.4372 30.6609C20.5776 30.8464 20.7163 30.9914 20.8193 31.1193L21.0625 31.4078C21.0917 31.4414 21.1188 31.4768 21.1436 31.5138Z" fill="#263238"/>
<path d="M19.6656 54.68C19.6734 54.662 19.6828 54.6448 19.6937 54.6286L19.7873 54.482C19.8294 54.4165 19.8808 54.3385 19.9432 54.245L20.0414 54.089C20.0804 54.0376 20.1256 53.9861 20.1709 53.9331L20.4827 53.5589C20.6028 53.4294 20.74 53.2953 20.885 53.1488C21.2213 52.825 21.5786 52.5239 21.9547 52.2475C22.7827 51.6237 23.8509 51 25.0079 50.2687C25.6163 49.8938 26.2011 49.4818 26.759 49.0353C27.3575 48.5585 27.8861 48 28.3292 47.3761C29.1403 46.13 29.581 44.6792 29.6001 43.1925C29.6199 41.9807 29.4169 40.7756 29.0013 39.6372C28.726 38.869 28.3805 38.1277 27.969 37.423C27.824 37.1719 27.7055 36.9817 27.6244 36.8523L27.5324 36.7057C27.5122 36.6729 27.5028 36.6542 27.5028 36.6542C27.5167 36.6682 27.5288 36.6839 27.5387 36.701L27.6385 36.8445C27.7242 36.9692 27.8474 37.1563 27.9955 37.4074C28.4197 38.1084 28.7749 38.8489 29.0559 39.6185C29.4826 40.7617 29.6941 41.9739 29.6796 43.194C29.673 43.5458 29.6444 43.8968 29.5939 44.245C29.5433 44.6092 29.4667 44.9693 29.3646 45.3225C29.1516 46.0704 28.8205 46.7795 28.3838 47.4229C27.9362 48.0535 27.4018 48.6179 26.7964 49.0992C26.2352 49.5462 25.6473 49.9586 25.036 50.3342C23.8743 51.0593 22.8046 51.6768 21.9766 52.2958C21.6005 52.5686 21.2422 52.8649 20.9037 53.1831C20.7587 53.3281 20.6199 53.4591 20.4983 53.5869L20.1865 53.9534C20.1397 54.0095 20.0945 54.061 20.0555 54.1093L19.9541 54.2574L19.7982 54.4898L19.6984 54.6317C19.6888 54.6486 19.6778 54.6648 19.6656 54.68Z" fill="#263238"/>
<path d="M18.2156 57.4352C18.2062 57.4605 18.1947 57.4851 18.1813 57.5085L18.069 57.7065C18.0191 57.7907 17.9599 57.8968 17.8991 58.0184C17.8383 58.14 17.7603 58.2835 17.6948 58.4472C17.6605 58.5283 17.6231 58.6125 17.5857 58.6998C17.5482 58.7872 17.517 58.8838 17.4796 58.9805C17.4048 59.1739 17.3455 59.3859 17.2769 59.6042C17.0057 60.5818 16.9122 61.6 17.0009 62.6106C17.0274 62.8414 17.0461 63.0628 17.0867 63.2655C17.1038 63.3669 17.1179 63.4667 17.1381 63.5602C17.1584 63.6538 17.1802 63.7442 17.2005 63.83C17.2348 64.0031 17.2863 64.1543 17.3237 64.2884C17.3611 64.4225 17.3985 64.5379 17.4328 64.6315L17.5061 64.8467C17.5166 64.871 17.5235 64.8968 17.5264 64.9231C17.5114 64.9014 17.4993 64.8778 17.4905 64.8529C17.4671 64.7952 17.4391 64.7266 17.4032 64.6424C17.3561 64.5314 17.315 64.4179 17.28 64.3025C17.2379 64.1684 17.1833 64.0171 17.1444 63.844C17.1225 63.7583 17.1007 63.6678 17.0773 63.5743C17.0539 63.4807 17.0399 63.3794 17.0196 63.278C16.976 63.0722 16.9541 62.8508 16.9261 62.6184C16.8284 61.6016 16.9226 60.5754 17.2036 59.5933C17.2738 59.3688 17.3362 59.1552 17.4157 58.9618C17.4547 58.8651 17.4859 58.77 17.5264 58.6811L17.6418 58.4269C17.7104 58.271 17.7977 58.126 17.8585 58.0012C17.9135 57.894 17.9744 57.7899 18.041 57.6894L18.1657 57.4976C18.1969 57.4555 18.2125 57.4337 18.2156 57.4352Z" fill="#263238"/>
<path d="M37.4905 61.1837L37.4593 61.2055L37.3627 61.2663L36.9837 61.494L36.7093 61.6499C36.6064 61.7076 36.4925 61.7606 36.3709 61.8214C36.1245 61.9399 35.8532 62.0912 35.532 62.2128L35.033 62.4171C34.8599 62.4857 34.6713 62.5403 34.481 62.6058C34.1021 62.7446 33.6811 62.8444 33.2429 62.9582C31.319 63.4088 29.3234 63.4618 27.3783 63.1141C26.9323 63.0237 26.5082 62.9457 26.1215 62.8272C25.9281 62.7711 25.7379 62.7274 25.5601 62.6713L25.0518 62.4857C24.7259 62.3812 24.4452 62.2456 24.1942 62.1395C24.0694 62.085 23.9525 62.0366 23.848 61.9836L23.5642 61.8355L23.1744 61.6281L23.0746 61.572L23.0418 61.5517C23.0418 61.5517 23.0558 61.5517 23.0792 61.5657L23.1822 61.6141L23.5782 61.8074L23.8636 61.9477C23.9696 61.9976 24.0881 62.0429 24.2129 62.0959C24.4639 62.1957 24.7446 62.3282 25.0721 62.428L25.5742 62.6105C25.7519 62.6697 25.9422 62.7118 26.1355 62.7664C26.5207 62.8818 26.9432 62.9551 27.383 63.044C29.3191 63.3792 31.3025 63.3262 33.218 62.888C33.6546 62.7757 34.074 62.6806 34.453 62.545C34.6432 62.481 34.8303 62.4296 35.0034 62.361L35.5024 62.1629C35.8236 62.0444 36.0965 61.8978 36.3429 61.784C36.4645 61.7248 36.5799 61.6733 36.6828 61.6281L36.9603 61.4722L37.3455 61.257L37.4469 61.2039C37.478 61.1868 37.4905 61.1821 37.4905 61.1837Z" fill="#263238"/>
<path d="M39.1166 28.1805C39.1071 28.1918 39.0961 28.2018 39.0839 28.2101L38.981 28.2943C38.8858 28.3707 38.7533 28.4783 38.5833 28.6062C38.2372 28.8806 37.7351 29.2783 37.1004 29.7523C36.3619 30.3177 35.5873 30.8344 34.7817 31.2991C34.3026 31.5673 33.8031 31.7972 33.2879 31.9868C32.7321 32.189 32.1523 32.318 31.5633 32.3704C30.4179 32.4347 29.2758 32.197 28.2512 31.6812C27.8082 31.4561 27.3805 31.2019 26.971 30.9202C26.5906 30.652 26.2428 30.3916 25.9357 30.1406C25.3119 29.6447 24.8348 29.2252 24.498 28.9383L24.1128 28.6046L24.0146 28.5173L23.9818 28.4846C23.9818 28.4846 23.9959 28.4846 24.0192 28.5095L24.1237 28.5922L24.5182 28.9134C24.8613 29.1941 25.3509 29.6057 25.9715 30.0953C26.2834 30.3402 26.628 30.5974 27.01 30.8625C27.418 31.1393 27.8436 31.3894 28.284 31.611C29.2984 32.1166 30.4269 32.3493 31.5586 32.2862C32.1406 32.2346 32.7135 32.1077 33.2629 31.9088C33.7747 31.7218 34.271 31.495 34.7474 31.2305C35.5518 30.7742 36.3272 30.2685 37.0692 29.7164C37.7054 29.2486 38.2122 28.8588 38.5662 28.5922L38.9732 28.2803L39.0808 28.2023C39.0915 28.1933 39.1036 28.1859 39.1166 28.1805Z" fill="#263238"/>
<g opacity="0.24">
<path opacity="0.24" d="M25.055 62.4929C25.7941 61.9222 26.8326 62.0594 27.7464 62.2528C28.6601 62.4461 29.5801 62.7564 30.5048 62.627C31.2018 62.5288 31.8412 62.1873 32.5319 62.0376C33.2227 61.8879 34.0538 61.9986 34.4359 62.5896C31.3825 63.5735 28.0922 63.5395 25.0597 62.4929" fill="black"/>
</g>
<path d="M58.9614 47.1572L60.8757 41.0813C60.8757 41.0813 60.7383 40.7572 59.6273 40.4798C58.5163 40.2024 58.0295 40.9426 57.4053 41.1507C56.781 41.3588 55.9954 40.1418 55.1832 40.1103C53.6699 40.0548 53.3093 40.6652 52.337 41.0813C51.3647 41.4975 51.3647 40.6652 50.3193 40.3184C49.2738 39.9716 48.3015 41.1507 48.3015 41.1507L50.9901 46.8546C46.3935 48.4523 43.0756 53.0338 43.0756 58.43C43.0756 65.1591 48.2284 70.6133 54.5842 70.6133C60.9401 70.6133 66.0928 65.1591 66.0928 58.43C66.1016 53.339 63.1507 48.9782 58.9614 47.1572Z" fill="#E4EEF8" stroke="#434B53" stroke-width="0.191283" stroke-linejoin="round"/>
<path d="M56.7917 54.417C57.1419 54.417 57.4256 54.1315 57.4256 53.7792C57.4256 53.4272 57.1419 53.1415 56.7917 53.1415H51.7715C51.4213 53.1415 51.1376 53.4272 51.1376 53.7792C51.1376 54.1315 51.4213 54.417 51.7715 54.417H53.2103C53.8053 54.416 54.3458 54.7652 54.5922 55.3098H51.7776C51.4278 55.3098 51.1438 55.5955 51.1438 55.9475C51.1438 56.2998 51.4278 56.5853 51.7776 56.5853H54.5922C54.3436 57.1283 53.8043 57.4766 53.2103 57.4781H51.7715C51.5115 57.4784 51.2777 57.638 51.1814 57.8809C51.0851 58.1238 51.1455 58.4013 51.3339 58.5814L54.9218 61.9934C55.0404 62.105 55.1969 62.1665 55.3591 62.1655C55.5334 62.1645 55.7 62.0932 55.8218 61.9679C55.9372 61.8454 55.9994 61.6817 55.9947 61.5131C55.99 61.3444 55.9187 61.1845 55.7966 61.0686L53.3623 58.7536C54.5972 58.6818 55.6386 57.8027 55.9234 56.5917H56.7917C57.1419 56.5917 57.4256 56.3063 57.4256 55.954C57.4256 55.6018 57.1419 55.3163 56.7917 55.3163H55.9234C55.8496 54.9986 55.7208 54.6962 55.543 54.4234H56.7917V54.417Z" fill="#F0792E"/>
<path d="M52.1453 46.112L51.2928 44.8156" stroke="#434B53" stroke-width="0.191283" stroke-miterlimit="10"/>
<path d="M57.6707 44.3055L57.16 46.1807" stroke="#434B53" stroke-width="0.191283" stroke-miterlimit="10"/>
<path d="M52.3833 44.3489L52.319 43.7953" stroke="#434B53" stroke-width="0.191283" stroke-miterlimit="10"/>
<path d="M52.5954 46.1811L52.4365 44.8078" stroke="#434B53" stroke-width="0.191283" stroke-miterlimit="10"/>
<path d="M58.5857 43.9064L58.7836 43.4839" stroke="#434B53" stroke-width="0.191283" stroke-miterlimit="10"/>
<path d="M57.5399 46.1465L58.3987 44.3104" stroke="#434B53" stroke-width="0.191283" stroke-miterlimit="10"/>
<path d="M59.7106 54.034C59.5936 54.0339 59.481 53.9893 59.3957 53.9091C59.3105 53.829 59.2589 53.7195 59.2515 53.6027C59.0144 49.74 56.52 47.2065 56.4923 47.1825C56.4058 47.0963 56.3572 46.9791 56.3571 46.857C56.357 46.7348 56.4054 46.6177 56.4917 46.5312C56.5779 46.4447 56.695 46.3961 56.8172 46.396C56.9393 46.3959 57.0565 46.4443 57.143 46.5306C57.2552 46.6441 59.9048 49.339 60.1696 53.5447C60.1735 53.605 60.1655 53.6655 60.146 53.7227C60.1265 53.7799 60.0959 53.8327 60.0559 53.878C60.016 53.9234 59.9675 53.9604 59.9132 53.9869C59.8589 54.0135 59.7999 54.029 59.7396 54.0327L59.7106 54.034Z" fill="white" stroke="#434B53" stroke-width="0.191283" stroke-linejoin="round"/>
<path d="M62.0819 53.1233C61.9689 53.1533 61.8487 53.1391 61.7458 53.0836C61.6429 53.028 61.5651 52.9353 61.5283 52.8244C60.3012 49.1534 57.2406 47.3463 57.2129 47.3286C57.1581 47.2996 57.1098 47.2599 57.0708 47.2118C57.0318 47.1636 57.0029 47.1082 56.9859 47.0486C56.9688 46.9891 56.9639 46.9267 56.9716 46.8653C56.9792 46.8038 56.9991 46.7445 57.0302 46.6909C57.0613 46.6374 57.1028 46.5906 57.1524 46.5535C57.202 46.5164 57.2585 46.4896 57.3187 46.4748C57.3788 46.4601 57.4413 46.4576 57.5025 46.4676C57.5636 46.4776 57.6221 46.4998 57.6744 46.5329C57.8119 46.6123 61.0654 48.5355 62.4009 52.5331C62.4201 52.5903 62.4278 52.6507 62.4236 52.7109C62.4194 52.7711 62.4034 52.8299 62.3764 52.8839C62.3495 52.9379 62.3122 52.986 62.2666 53.0256C62.221 53.0652 62.1681 53.0953 62.1109 53.1144L62.0819 53.1233Z" fill="white" stroke="#434B53" stroke-width="0.191283" stroke-linejoin="round"/>
<path d="M58.7775 47.3667H50.7848C50.7063 47.3669 50.6286 47.3515 50.556 47.3215C50.4835 47.2915 50.4176 47.2475 50.3622 47.1919C50.3068 47.1364 50.2629 47.0704 50.233 46.9978C50.2032 46.9252 50.188 46.8474 50.1883 46.7689C50.1883 46.6111 50.251 46.4597 50.3626 46.348C50.4743 46.2364 50.6257 46.1737 50.7835 46.1737H58.7763C58.9341 46.1737 59.0855 46.2364 59.1971 46.348C59.3088 46.4597 59.3715 46.6111 59.3715 46.7689C59.3718 46.8472 59.3567 46.9248 59.327 46.9972C59.2973 47.0696 59.2537 47.1355 59.1985 47.191C59.1433 47.2465 59.0777 47.2906 59.0055 47.3208C58.9333 47.3509 58.8558 47.3665 58.7775 47.3667Z" fill="white" stroke="#434B53" stroke-width="0.191283" stroke-linejoin="round"/>
<path d="M60.8061 67.217H48.1751V70.6623H60.8061V67.217Z" fill="#F29A62" stroke="#434B53" stroke-width="0.191283" stroke-miterlimit="10"/>
<path d="M66.8413 67.217H60.7868V70.6623H66.8413V67.217Z" fill="#D26E2E" stroke="#434B53" stroke-width="0.191283" stroke-linejoin="round"/>
<path d="M48.2652 67.8741H51.3763" stroke="#434B53" stroke-width="0.191283" stroke-linejoin="round"/>
<path d="M50.0512 68.6936H52.6591" stroke="#434B53" stroke-width="0.191283" stroke-linejoin="round"/>
<path d="M59.4787 68.2559H60.852H61.7297" stroke="#434B53" stroke-width="0.191283" stroke-linejoin="round"/>
<path d="M48.2652 69.6787H49.3636" stroke="#434B53" stroke-width="0.191283" stroke-linejoin="round"/>
<path d="M49.8201 69.6787H50.7357" stroke="#434B53" stroke-width="0.191283" stroke-linejoin="round"/>
<path d="M60.852 69.4055H56.0007" stroke="#434B53" stroke-width="0.191283" stroke-linejoin="round"/>
<path d="M56.0004 67.217H53.1806V70.6623H56.0004V67.217Z" fill="white" stroke="#434B53" stroke-width="0.191283" stroke-linejoin="round"/>
<path d="M66.8084 68.9923H64.9307" stroke="#434B53" stroke-width="0.191283" stroke-linejoin="round"/>
<path d="M60.7907 70.0429H62.183" stroke="#434B53" stroke-width="0.191283" stroke-linejoin="round"/>
<path d="M60.8221 68.9022H63.4754" stroke="#434B53" stroke-width="0.191283" stroke-linejoin="round"/>
<path d="M66.8091 68.3078H64.2844" stroke="#434B53" stroke-width="0.191283" stroke-linejoin="round"/>
<path d="M62.7334 70.0429H63.4131" stroke="#434B53" stroke-width="0.191283" stroke-linejoin="round"/>
<path d="M59.8543 63.834H47.2234V67.2793H59.8543V63.834Z" fill="#F29A62" stroke="#434B53" stroke-width="0.191283" stroke-miterlimit="10"/>
<path d="M65.8934 63.834H59.839V67.2793H65.8934V63.834Z" fill="#A3A3A3" stroke="#434B53" stroke-width="0.191283" stroke-linejoin="round"/>
<path d="M47.3174 64.4891H50.4285" stroke="#434B53" stroke-width="0.191283" stroke-linejoin="round"/>
<path d="M49.1034 65.3096H51.7113" stroke="#434B53" stroke-width="0.191283" stroke-linejoin="round"/>
<path d="M58.5269 64.8729H59.9002H60.7779" stroke="#434B53" stroke-width="0.191283" stroke-linejoin="round"/>
<path d="M47.3174 66.2937H48.4158" stroke="#434B53" stroke-width="0.191283" stroke-linejoin="round"/>
<path d="M48.8723 66.2937H49.7866" stroke="#434B53" stroke-width="0.191283" stroke-linejoin="round"/>
<path d="M59.9003 66.0205H55.0489" stroke="#434B53" stroke-width="0.191283" stroke-linejoin="round"/>
<path d="M55.0526 63.832H52.2328V67.2773H55.0526V63.832Z" fill="white" stroke="#434B53" stroke-width="0.191283" stroke-linejoin="round"/>
<path d="M65.8606 65.6092H63.9828" stroke="#434B53" stroke-width="0.191283" stroke-linejoin="round"/>
<path d="M59.8429 66.6589H61.2339" stroke="#434B53" stroke-width="0.191283" stroke-linejoin="round"/>
<path d="M59.8742 65.5172H62.5288" stroke="#434B53" stroke-width="0.191283" stroke-linejoin="round"/>
<path d="M65.8613 64.9248H63.3366" stroke="#434B53" stroke-width="0.191283" stroke-linejoin="round"/>
<path d="M61.7817 66.6589H62.4614" stroke="#434B53" stroke-width="0.191283" stroke-linejoin="round"/>
<path d="M60.8688 60.449H48.2378V63.8943H60.8688V60.449Z" fill="#F29A62" stroke="#434B53" stroke-width="0.191283" stroke-miterlimit="10"/>
<path d="M66.9039 60.449H60.8495V63.8943H66.9039V60.449Z" fill="#D26E2E" stroke="#434B53" stroke-width="0.191283" stroke-linejoin="round"/>
<path d="M48.3318 61.1051H51.4429" stroke="#434B53" stroke-width="0.191283" stroke-linejoin="round"/>
<path d="M50.1139 61.9256H52.7218" stroke="#434B53" stroke-width="0.191283" stroke-linejoin="round"/>
<path d="M59.5413 61.4879H60.9146H61.7924" stroke="#434B53" stroke-width="0.191283" stroke-linejoin="round"/>
<path d="M48.3318 62.9097H49.4302" stroke="#434B53" stroke-width="0.191283" stroke-linejoin="round"/>
<path d="M49.8867 62.9097H50.8023" stroke="#434B53" stroke-width="0.191283" stroke-linejoin="round"/>
<path d="M60.9147 62.6355H56.0633" stroke="#434B53" stroke-width="0.191283" stroke-linejoin="round"/>
<path d="M56.0631 60.449H53.2433V63.8943H56.0631V60.449Z" fill="white" stroke="#434B53" stroke-width="0.191283" stroke-linejoin="round"/>
<path d="M66.875 62.2243H64.9973" stroke="#434B53" stroke-width="0.191283" stroke-linejoin="round"/>
<path d="M60.8534 63.2749H62.2456" stroke="#434B53" stroke-width="0.191283" stroke-linejoin="round"/>
<path d="M60.8847 62.1342H63.5381" stroke="#434B53" stroke-width="0.191283" stroke-linejoin="round"/>
<path d="M66.8718 61.5398H64.3471" stroke="#434B53" stroke-width="0.191283" stroke-linejoin="round"/>
<path d="M62.7961 63.2749H63.4758" stroke="#434B53" stroke-width="0.191283" stroke-linejoin="round"/>
<path d="M66.0485 63.4061H50.3606V70.6636H66.0485V63.4061Z" fill="#D26E2E" stroke="#434B53" stroke-width="0.191283" stroke-linejoin="round"/>
<path d="M64.5782 63.4443V66.4709" stroke="#434B53" stroke-width="0.191283" stroke-linejoin="round"/>
<path d="M65.0012 63.4658V64.3864" stroke="#434B53" stroke-width="0.191283" stroke-linejoin="round"/>
<path d="M64.8758 70.644V67.9025" stroke="#434B53" stroke-width="0.191283" stroke-linejoin="round"/>
<path d="M65.3145 70.6852V70.2035" stroke="#434B53" stroke-width="0.191283" stroke-linejoin="round"/>
<path d="M65.7336 70.6641V69.3046" stroke="#434B53" stroke-width="0.191283" stroke-linejoin="round"/>
<path d="M64.8523 67.6293V67.0643" stroke="#434B53" stroke-width="0.191283" stroke-linejoin="round"/>
<path d="M64.9777 64.6164V64.9505" stroke="#434B53" stroke-width="0.191283" stroke-linejoin="round"/>
<path d="M64.23 63.4061H50.3606V70.6636H64.23V63.4061Z" fill="#F29A62" stroke="#434B53" stroke-width="0.191283" stroke-linejoin="round"/>
<path d="M63.3228 69.5075V64.564C63.1921 64.564 63.0666 64.5121 62.9742 64.4196C62.8817 64.3272 62.8297 64.2017 62.8297 64.071H51.8357C51.8357 64.2017 51.7837 64.3272 51.6912 64.4196C51.5988 64.5121 51.4734 64.564 51.3426 64.564C51.3194 64.5633 51.2962 64.5611 51.2732 64.5577V69.515C51.2961 69.5106 51.3193 69.5081 51.3426 69.5075C51.4074 69.5075 51.4717 69.5203 51.5316 69.5451C51.5915 69.57 51.6459 69.6064 51.6917 69.6523C51.7375 69.6983 51.7738 69.7528 51.7985 69.8127C51.8232 69.8727 51.8358 69.937 51.8357 70.0018H62.8297C62.8296 69.937 62.8422 69.8727 62.8669 69.8127C62.8916 69.7528 62.9279 69.6983 62.9737 69.6523C63.0195 69.6064 63.0739 69.57 63.1338 69.5451C63.1937 69.5203 63.258 69.5075 63.3228 69.5075ZM57.2974 69.0825C56.8926 69.0825 56.4969 68.9624 56.1603 68.7376C55.8237 68.5127 55.5614 68.193 55.4065 67.819C55.2515 67.445 55.211 67.0335 55.29 66.6365C55.369 66.2394 55.5639 65.8747 55.8501 65.5885C56.1364 65.3023 56.5011 65.1073 56.8981 65.0284C57.2951 64.9494 57.7067 64.9899 58.0806 65.1448C58.4546 65.2997 58.7743 65.5621 58.9992 65.8987C59.2241 66.2352 59.3441 66.631 59.3441 67.0358C59.3441 67.5786 59.1285 68.0992 58.7447 68.483C58.3608 68.8669 57.8402 69.0825 57.2974 69.0825Z" fill="white" stroke="#434B53" stroke-width="0.191283" stroke-linejoin="round"/>
<path d="M57.933 63.3855H56.6782V70.6531H57.933V63.3855Z" fill="white" stroke="#434B53" stroke-width="0.191283" stroke-linejoin="round"/>
<path d="M49.3433 68.8209H44.0039V70.6621H49.3433V68.8209Z" fill="#FDB62F" stroke="#434B53" stroke-width="0.191283" stroke-linejoin="round"/>
<path d="M45.3651 68.8209H44.6854V70.6621H45.3651V68.8209Z" fill="#434B53" stroke="#434B53" stroke-width="0.191283" stroke-linejoin="round"/>
<path d="M46.0207 68.8209H45.6802V70.6621H46.0207V68.8209Z" fill="#434B53" stroke="#434B53" stroke-width="0.191283" stroke-linejoin="round"/>
<path d="M49.7898 66.9752H44.4504V68.8164H49.7898V66.9752Z" fill="#FFA83D" stroke="#434B53" stroke-width="0.191283" stroke-linejoin="round"/>
<path d="M45.8077 66.9752H45.128V68.8164H45.8077V66.9752Z" fill="#434B53" stroke="#434B53" stroke-width="0.191283" stroke-linejoin="round"/>
<path d="M46.4672 66.9752H46.1267V68.8164H46.4672V66.9752Z" fill="#434B53" stroke="#434B53" stroke-width="0.191283" stroke-linejoin="round"/>
<path d="M49.3433 65.1275H44.0039V66.9687H49.3433V65.1275Z" fill="#FDB62F" stroke="#434B53" stroke-width="0.191283" stroke-linejoin="round"/>
<path d="M45.3651 65.1275H44.6854V66.9687H45.3651V65.1275Z" fill="#434B53" stroke="#434B53" stroke-width="0.191283" stroke-linejoin="round"/>
<path d="M46.0207 65.1275H45.6802V66.9687H46.0207V65.1275Z" fill="#434B53" stroke="#434B53" stroke-width="0.191283" stroke-linejoin="round"/>
<path d="M49.0809 63.2818H43.7415V65.1229H49.0809V63.2818Z" fill="#FDB62F" stroke="#434B53" stroke-width="0.191283" stroke-linejoin="round"/>
<path d="M45.0988 63.2818H44.419V65.1229H45.0988V63.2818Z" fill="#434B53" stroke="#434B53" stroke-width="0.191283" stroke-linejoin="round"/>
<path d="M45.7583 63.2818H45.4178V65.1229H45.7583V63.2818Z" fill="#434B53" stroke="#434B53" stroke-width="0.191283" stroke-linejoin="round"/>
<path d="M49.3433 61.435H44.0039V63.2762H49.3433V61.435Z" fill="#FFA83D" stroke="#434B53" stroke-width="0.191283" stroke-linejoin="round"/>
<path d="M45.3651 61.435H44.6854V63.2762H45.3651V61.435Z" fill="#434B53" stroke="#434B53" stroke-width="0.191283" stroke-linejoin="round"/>
<path d="M46.0207 61.435H45.6802V63.2762H46.0207V61.435Z" fill="#434B53" stroke="#434B53" stroke-width="0.191283" stroke-linejoin="round"/>
<path d="M44.7059 68.8209H39.3665V70.6621H44.7059V68.8209Z" fill="#FDB62F" stroke="#434B53" stroke-width="0.191283" stroke-linejoin="round"/>
<path d="M40.7277 68.8209H40.048V70.6621H40.7277V68.8209Z" fill="#434B53" stroke="#434B53" stroke-width="0.191283" stroke-linejoin="round"/>
<path d="M41.3873 68.8209H41.0468V70.6621H41.3873V68.8209Z" fill="#434B53" stroke="#434B53" stroke-width="0.191283" stroke-linejoin="round"/>
<path d="M45.1524 66.9752H39.813V68.8164H45.1524V66.9752Z" fill="#FFA83D" stroke="#434B53" stroke-width="0.191283" stroke-linejoin="round"/>
<path d="M41.1742 66.9752H40.4945V68.8164H41.1742V66.9752Z" fill="#434B53" stroke="#434B53" stroke-width="0.191283" stroke-linejoin="round"/>
<path d="M41.8299 66.9752H41.4894V68.8164H41.8299V66.9752Z" fill="#434B53" stroke="#434B53" stroke-width="0.191283" stroke-linejoin="round"/>
<path d="M44.7059 65.1275H39.3665V66.9687H44.7059V65.1275Z" fill="#FDB62F" stroke="#434B53" stroke-width="0.191283" stroke-linejoin="round"/>
<path d="M40.7277 65.1275H40.048V66.9687H40.7277V65.1275Z" fill="#434B53" stroke="#434B53" stroke-width="0.191283" stroke-linejoin="round"/>
<path d="M41.3873 65.1275H41.0468V66.9687H41.3873V65.1275Z" fill="#434B53" stroke="#434B53" stroke-width="0.191283" stroke-linejoin="round"/>
<path d="M44.4435 63.2818H39.1041V65.1229H44.4435V63.2818Z" fill="#FFA83D" stroke="#434B53" stroke-width="0.191283" stroke-linejoin="round"/>
<path d="M40.4614 63.2818H39.7817V65.1229H40.4614V63.2818Z" fill="#434B53" stroke="#434B53" stroke-width="0.191283" stroke-linejoin="round"/>
<path d="M41.1209 63.2818H40.7804V65.1229H41.1209V63.2818Z" fill="#434B53" stroke="#434B53" stroke-width="0.191283" stroke-linejoin="round"/>
<path d="M44.7059 61.435H39.3665V63.2762H44.7059V61.435Z" fill="#FDB62F" stroke="#434B53" stroke-width="0.191283" stroke-linejoin="round"/>
<path d="M40.7277 61.435H40.048V63.2762H40.7277V61.435Z" fill="#434B53" stroke="#434B53" stroke-width="0.191283" stroke-linejoin="round"/>
<path d="M41.3873 61.435H41.0468V63.2762H41.3873V61.435Z" fill="#434B53" stroke="#434B53" stroke-width="0.191283" stroke-linejoin="round"/>
<path d="M44.7059 59.6177H39.3665V61.4589H44.7059V59.6177Z" fill="#FFA83D" stroke="#434B53" stroke-width="0.191283" stroke-linejoin="round"/>
<path d="M40.7277 59.6177H40.048V61.4589H40.7277V59.6177Z" fill="#434B53" stroke="#434B53" stroke-width="0.191283" stroke-linejoin="round"/>
<path d="M41.3873 59.6177H41.0468V61.4589H41.3873V59.6177Z" fill="#434B53" stroke="#434B53" stroke-width="0.191283" stroke-linejoin="round"/>
<path d="M44.7059 57.8023H39.3665V59.6435H44.7059V57.8023Z" fill="#FDB62F" stroke="#434B53" stroke-width="0.191283" stroke-linejoin="round"/>
<path d="M40.7277 57.8023H40.048V59.6435H40.7277V57.8023Z" fill="#434B53" stroke="#434B53" stroke-width="0.191283" stroke-linejoin="round"/>
<path d="M41.3873 57.8023H41.0468V59.6435H41.3873V57.8023Z" fill="#434B53" stroke="#434B53" stroke-width="0.191283" stroke-linejoin="round"/>
<path d="M46.2882 70.6362C47.7251 70.6362 48.8898 69.4714 48.8898 68.0346C48.8898 66.5978 47.7251 65.433 46.2882 65.433C44.8514 65.433 43.6866 66.5978 43.6866 68.0346C43.6866 69.4714 44.8514 70.6362 46.2882 70.6362Z" fill="#FFA83D" stroke="#434B53" stroke-width="0.191283" stroke-linejoin="round"/>
<path d="M46.0258 70.6362C47.4626 70.6362 48.6274 69.4714 48.6274 68.0346C48.6274 66.5978 47.4626 65.433 46.0258 65.433C44.589 65.433 43.4242 66.5978 43.4242 68.0346C43.4242 69.4714 44.589 70.6362 46.0258 70.6362Z" fill="#FDB62F" stroke="#434B53" stroke-width="0.191283" stroke-linejoin="round"/>
<path d="M46.0246 70.2627C47.2553 70.2627 48.2529 69.2651 48.2529 68.0344C48.2529 66.8037 47.2553 65.8061 46.0246 65.8061C44.7939 65.8061 43.7963 66.8037 43.7963 68.0344C43.7963 69.2651 44.7939 70.2627 46.0246 70.2627Z" fill="#FFA83D" stroke="#434B53" stroke-width="0.191283" stroke-linejoin="round"/>
<path d="M46.6785 67.4623C46.7563 67.4623 46.8194 67.3988 46.8194 67.3206C46.8194 67.2423 46.7563 67.1788 46.6785 67.1788H45.5629C45.4851 67.1788 45.422 67.2423 45.422 67.3206C45.422 67.3988 45.4851 67.4623 45.5629 67.4623H45.8826C46.0149 67.4621 46.135 67.5397 46.1897 67.6607H45.5643C45.4865 67.6607 45.4234 67.7242 45.4234 67.8024C45.4234 67.8807 45.4865 67.9441 45.5643 67.9441H46.1897C46.1345 68.0648 46.0146 68.1422 45.8826 68.1425H45.5629C45.5051 68.1426 45.4532 68.1781 45.4318 68.2321C45.4104 68.286 45.4238 68.3477 45.4657 68.3877L46.263 69.1459C46.2893 69.1707 46.3241 69.1844 46.3601 69.1842C46.3989 69.184 46.4359 69.1681 46.463 69.1403C46.4886 69.113 46.5024 69.0767 46.5014 69.0392C46.5003 69.0017 46.4845 68.9662 46.4574 68.9404L45.9164 68.426C46.1908 68.41 46.4223 68.2147 46.4855 67.9456H46.6785C46.7563 67.9456 46.8194 67.8821 46.8194 67.8039C46.8194 67.7256 46.7563 67.6621 46.6785 67.6621H46.4855C46.4691 67.5916 46.4405 67.5243 46.401 67.4637H46.6785V67.4623Z" fill="white"/>
</svg>
