<svg width="6" height="6" viewBox="0 0 6 6" fill="none" xmlns="http://www.w3.org/2000/svg">
<path d="M5.93615 2.37498C6.05795 2.95346 6.00467 3.55492 5.78306 4.10324C5.56144 4.65156 5.18146 5.12209 4.69119 5.45529C4.20092 5.78849 3.6224 5.96938 3.02885 5.97506C2.4353 5.98075 1.85339 5.81098 1.35678 5.48723C0.860162 5.16348 0.471157 4.70032 0.238991 4.15634C0.00682579 3.61237 -0.0580609 3.01204 0.052538 2.43133C0.163137 1.85063 0.444252 1.31564 0.860309 0.894077C1.27636 0.472515 1.80866 0.183329 2.38983 0.0631142C2.77514 -0.0170813 3.17254 -0.0208901 3.55933 0.0519055C3.94612 0.124701 4.31471 0.272674 4.64405 0.487369C4.97339 0.702065 5.25701 0.979274 5.47871 1.30316C5.70042 1.62704 5.85586 1.99125 5.93615 2.37498Z" fill="#FFE8DE"/>
<path d="M5.23738 2.52016C5.33018 2.96101 5.28955 3.41937 5.12063 3.83722C4.95172 4.25507 4.66211 4.61362 4.28847 4.86751C3.91482 5.1214 3.47394 5.25921 3.0216 5.26349C2.56927 5.26778 2.12584 5.13835 1.74741 4.89158C1.36898 4.64481 1.07258 4.2918 0.89572 3.87722C0.718856 3.46265 0.66948 3.00515 0.753842 2.56262C0.838204 2.12009 1.05251 1.71243 1.36964 1.39123C1.68677 1.07003 2.09246 0.849731 2.53538 0.758214C2.82898 0.697153 3.1318 0.694296 3.42651 0.749806C3.72123 0.805317 4.00207 0.918107 4.253 1.08173C4.50392 1.24536 4.72001 1.45661 4.88891 1.70342C5.05782 1.95023 5.17623 2.22777 5.23738 2.52016Z" fill="#FFD2C0"/>
<path d="M3.20546 1.75316C3.28396 1.70128 3.30631 1.59678 3.25539 1.51972C3.2045 1.44271 3.09956 1.42224 3.02106 1.47411L1.89544 2.21792C1.81694 2.26979 1.79462 2.37435 1.84551 2.45136C1.89644 2.52842 2.00133 2.54884 2.07983 2.49697L2.40245 2.28379C2.53571 2.19541 2.7074 2.19174 2.84137 2.27438L2.2103 2.69138C2.13185 2.74322 2.10948 2.84781 2.16037 2.92483C2.21129 3.00189 2.31625 3.02227 2.39469 2.97043L3.02576 2.55342C3.04854 2.70907 2.97797 2.86517 2.845 2.9535L2.52238 3.16669C2.46412 3.20526 2.4348 3.27483 2.44832 3.34224C2.46184 3.40965 2.5155 3.46141 2.58379 3.4729L3.8815 3.68778C3.92423 3.69462 3.96821 3.6849 4.00443 3.66065C4.04337 3.6346 4.07044 3.59433 4.07963 3.54886C4.08779 3.50495 4.07806 3.45994 4.05262 3.42374C4.02719 3.38754 3.98808 3.36311 3.94396 3.35585L3.06348 3.21003C3.32997 3.01138 3.43639 2.66474 3.32516 2.35762L3.51987 2.22896C3.59837 2.17709 3.62072 2.07258 3.56979 1.99552C3.51887 1.91845 3.41397 1.89804 3.33547 1.94991L3.14077 2.07857C3.07831 2.02001 3.00572 1.97292 2.92642 1.93958L3.20639 1.75458L3.20546 1.75316Z" fill="#F38D5D"/>
<path d="M5.2202 2.44935C5.20686 2.44935 5.1772 2.35708 5.1053 2.19395C5.00552 1.96442 4.87048 1.75175 4.70501 1.56358C4.5908 1.4356 4.46305 1.32027 4.32398 1.21961C4.16361 1.10562 3.98922 1.0126 3.80508 0.942803C3.70628 0.904583 3.60467 0.873983 3.50115 0.851273C3.28244 0.802046 3.05754 0.785871 2.83399 0.803294C2.71665 0.812832 2.60019 0.83109 2.48559 0.857916C2.3712 0.886061 2.25897 0.922322 2.14978 0.966423C2.04413 1.01021 1.94203 1.06203 1.84437 1.12143C1.74964 1.17783 1.65965 1.24176 1.57528 1.31261C1.49354 1.38069 1.41698 1.45471 1.34623 1.53406C1.2145 1.67952 1.10214 1.84128 1.01191 2.01532C0.933485 2.16753 0.872321 2.32796 0.829547 2.49364C0.768169 2.73613 0.744913 2.98663 0.760608 3.23621C0.771727 3.4141 0.788778 3.51302 0.775434 3.51597C0.762091 3.51892 0.725028 3.42444 0.693152 3.24359C0.649872 2.98579 0.655148 2.72221 0.708717 2.46633C0.789347 2.08177 0.96805 1.72435 1.22762 1.4285C1.38079 1.25326 1.55915 1.10153 1.7569 0.978234C1.86161 0.913165 1.97143 0.856636 2.08529 0.809199C2.20267 0.760689 2.3236 0.721205 2.44704 0.691096C2.57085 0.661957 2.69676 0.642461 2.82361 0.632783C2.94696 0.622771 3.07092 0.622771 3.19426 0.632783C3.31273 0.642669 3.43022 0.661922 3.54563 0.690358C3.65638 0.716695 3.76493 0.75149 3.87031 0.794436C4.06397 0.874126 4.24598 0.979394 4.41145 1.10741C4.55444 1.21755 4.68383 1.34416 4.79692 1.4846C4.96201 1.6881 5.08769 1.92038 5.16757 2.1696C5.22317 2.34527 5.23058 2.44714 5.2202 2.44935Z" fill="#F38D5D"/>
</svg>
