<svg width="16" height="18" viewBox="0 0 16 18" fill="none" xmlns="http://www.w3.org/2000/svg">
<path d="M8 0C5.3488 0 3.2 2.1488 3.2 4.8C3.2 8.2288 8 13.6 8 13.6C8 13.6 12.8 8.2288 12.8 4.8C12.8 2.1488 10.6512 0 8 0ZM8 1.6C9.7648 1.6 11.2 3.0352 11.2 4.8C11.2 6.408 9.53524 9.0883 7.99844 11.0875C6.46164 9.0915 4.8 6.4128 4.8 4.8C4.8 3.0352 6.2352 1.6 8 1.6ZM8 3.2C7.57565 3.2 7.16869 3.36857 6.86863 3.66863C6.56857 3.96869 6.4 4.37565 6.4 4.8C6.4 5.22435 6.56857 5.63131 6.86863 5.93137C7.16869 6.23143 7.57565 6.4 8 6.4C8.42435 6.4 8.83131 6.23143 9.13137 5.93137C9.43143 5.63131 9.6 5.22435 9.6 4.8C9.6 4.37565 9.43143 3.96869 9.13137 3.66863C8.83131 3.36857 8.42435 3.2 8 3.2ZM4.38438 11.5484C1.78517 12.0764 0 13.1536 0 14.4C0 16.1672 3.5816 17.6 8 17.6C12.4184 17.6 16 16.1672 16 14.4C16 13.1536 14.2148 12.0772 11.6156 11.5484C11.254 12.0772 10.8998 12.5619 10.5734 12.9859C12.759 13.3171 14.053 14.0096 14.3594 14.3984C13.9474 14.9216 11.7568 15.9984 8.00156 15.9984L8 16.0016L7.99844 16C4.24324 16 2.05343 14.924 1.64062 14.4C1.94703 14.0104 3.24016 13.3163 5.42656 12.9859C5.10016 12.5611 4.74598 12.0764 4.38438 11.5484Z" fill="white"/>
<path d="M8 0C5.3488 0 3.2 2.1488 3.2 4.8C3.2 8.2288 8 13.6 8 13.6C8 13.6 12.8 8.2288 12.8 4.8C12.8 2.1488 10.6512 0 8 0ZM8 1.6C9.7648 1.6 11.2 3.0352 11.2 4.8C11.2 6.408 9.53524 9.0883 7.99844 11.0875C6.46164 9.0915 4.8 6.4128 4.8 4.8C4.8 3.0352 6.2352 1.6 8 1.6ZM8 3.2C7.57565 3.2 7.16869 3.36857 6.86863 3.66863C6.56857 3.96869 6.4 4.37565 6.4 4.8C6.4 5.22435 6.56857 5.63131 6.86863 5.93137C7.16869 6.23143 7.57565 6.4 8 6.4C8.42435 6.4 8.83131 6.23143 9.13137 5.93137C9.43143 5.63131 9.6 5.22435 9.6 4.8C9.6 4.37565 9.43143 3.96869 9.13137 3.66863C8.83131 3.36857 8.42435 3.2 8 3.2ZM4.38438 11.5484C1.78517 12.0764 0 13.1536 0 14.4C0 16.1672 3.5816 17.6 8 17.6C12.4184 17.6 16 16.1672 16 14.4C16 13.1536 14.2148 12.0772 11.6156 11.5484C11.254 12.0772 10.8998 12.5619 10.5734 12.9859C12.759 13.3171 14.053 14.0096 14.3594 14.3984C13.9474 14.9216 11.7568 15.9984 8.00156 15.9984L8 16.0016L7.99844 16C4.24324 16 2.05343 14.924 1.64062 14.4C1.94703 14.0104 3.24016 13.3163 5.42656 12.9859C5.10016 12.5611 4.74598 12.0764 4.38438 11.5484Z" fill="white"/>
</svg>
