<svg width="28" height="28" viewBox="0 0 28 28" fill="none" xmlns="http://www.w3.org/2000/svg">
<path d="M20.5078 0H5.74219C5.52557 0 5.31665 0.0852356 5.16049 0.242035C5.16006 0.242462 5.15942 0.242889 5.159 0.24353L0.237122 5.22009C0.230072 5.22714 0.223877 5.23483 0.217255 5.2421C0.0722046 5.39975 0 5.60034 0 5.79688V27.1797C0 27.6328 0.367218 28 0.820312 28H20.5078C20.9609 28 21.3281 27.6328 21.3281 27.1797V0.820312C21.3281 0.367218 20.9609 0 20.5078 0ZM4.92188 2.81619V4.97656H2.78543L4.92188 2.81619ZM19.6875 26.3594H1.64062V6.61719H5.74219C6.19528 6.61719 6.5625 6.24997 6.5625 5.79688V1.64062H19.6875V26.3594Z" fill="#F0792E"/>
<path d="M26.3594 1.8363V0.820312C26.3594 0.367218 25.9922 0 25.5391 0C25.086 0 24.7188 0.367218 24.7188 0.820312V1.8363C23.7639 2.17511 23.0781 3.08685 23.0781 4.15625V22.2031C23.0781 22.3304 23.1078 22.4561 23.1649 22.5699L24.7188 25.6779V27.1797C24.7188 27.6328 25.086 28 25.5391 28C25.9922 28 26.3594 27.6328 26.3594 27.1797V25.6779L27.9133 22.5699C27.9703 22.4561 28 22.3304 28 22.2031V4.15625C28 3.08685 27.3143 2.17511 26.3594 1.8363ZM25.5391 3.33594C25.9913 3.33594 26.3594 3.70401 26.3594 4.15625V11.5391H24.7188V4.15625C24.7188 3.70401 25.0868 3.33594 25.5391 3.33594ZM25.5391 23.6502L24.7188 22.0096V13.1797H26.3594V22.0096L25.5391 23.6502Z" fill="#F0792E"/>
<path d="M17.2266 6.61719H9.02344C8.57034 6.61719 8.20312 6.98441 8.20312 7.4375C8.20312 7.89059 8.57034 8.25781 9.02344 8.25781H17.2266C17.6797 8.25781 18.0469 7.89059 18.0469 7.4375C18.0469 6.98441 17.6797 6.61719 17.2266 6.61719Z" fill="#F0792E"/>
<path d="M9.02344 4.97656H17.2266C17.6797 4.97656 18.0469 4.60934 18.0469 4.15625C18.0469 3.70316 17.6797 3.33594 17.2266 3.33594H9.02344C8.57034 3.33594 8.20312 3.70316 8.20312 4.15625C8.20312 4.60934 8.57034 4.97656 9.02344 4.97656Z" fill="#F0792E"/>
<path d="M17.2266 9.89844H4.10156C3.64847 9.89844 3.28125 10.2657 3.28125 10.7187C3.28125 11.1718 3.64847 11.5391 4.10156 11.5391H17.2266C17.6797 11.5391 18.0469 11.1718 18.0469 10.7187C18.0469 10.2657 17.6797 9.89844 17.2266 9.89844Z" fill="#F0792E"/>
<path d="M13.5687 16.4946C13.9055 16.4946 14.1784 16.2394 14.1784 15.9245C14.1784 15.6099 13.9055 15.3545 13.5687 15.3545H8.73998C8.40322 15.3545 8.13029 15.6099 8.13029 15.9245C8.13029 16.2394 8.40322 16.4946 8.73998 16.4946H10.1239C10.6962 16.4937 11.2162 16.8059 11.4531 17.2926H8.74594C8.40942 17.2926 8.13624 17.548 8.13624 17.8626C8.13624 18.1775 8.40942 18.4327 8.74594 18.4327H11.4531C11.214 18.9181 10.6953 19.2294 10.1239 19.2307H8.73998C8.48991 19.231 8.26509 19.3737 8.17244 19.5908C8.0798 19.8079 8.13791 20.0559 8.31915 20.2169L11.7701 23.2666C11.8842 23.3664 12.0347 23.4214 12.1907 23.4205C12.3584 23.4196 12.5187 23.3559 12.6358 23.2439C12.7468 23.1344 12.8066 22.9881 12.8021 22.8373C12.7976 22.6866 12.729 22.5436 12.6116 22.4401L10.2702 20.3708C11.4579 20.3067 12.4596 19.5209 12.7335 18.4385H13.5687C13.9055 18.4385 14.1784 18.1833 14.1784 17.8684C14.1784 17.5536 13.9055 17.2984 13.5687 17.2984H12.7335C12.6625 17.0145 12.5387 16.7442 12.3677 16.5004H13.5687V16.4946Z" fill="#F0792E"/>
</svg>
