<svg width="128" height="128" viewBox="0 0 128 128" fill="none" xmlns="http://www.w3.org/2000/svg">
<circle cx="64" cy="64" r="64" fill="#FFDCDE"/>
<circle cx="63.9926" cy="63.9996" r="49.92" fill="#F9C5C8"/>
<path d="M64.0036 98.5604C83.0906 98.5604 98.5636 83.0874 98.5636 64.0004C98.5636 44.9135 83.0906 29.4404 64.0036 29.4404C44.9166 29.4404 29.4436 44.9135 29.4436 64.0004C29.4436 83.0874 44.9166 98.5604 64.0036 98.5604Z" fill="#E7645C"/>
<path d="M62 74.6667C62 73.5621 62.8954 72.6667 64 72.6667H64.4167C65.5212 72.6667 66.4167 73.5621 66.4167 74.6667V75.0833C66.4167 76.1879 65.5212 77.0833 64.4167 77.0833H64C62.8954 77.0833 62 76.1879 62 75.0833V74.6667ZM61.0985 49.094C61.0449 47.9538 61.9549 47 63.0963 47H65.3203C66.4618 47 67.3718 47.9538 67.3181 49.094L66.4167 68.25H62L61.0985 49.094Z" fill="white"/>
</svg>
