<svg width="24" height="18" viewBox="0 0 24 18" fill="none" xmlns="http://www.w3.org/2000/svg">
<path d="M21.4286 0H2.57143C1.15127 0 0 1.15127 0 2.57143V14.5714C0 15.9916 1.15127 17.1428 2.57143 17.1428H21.4286C22.8487 17.1428 24 15.9916 24 14.5714V2.57143C24 1.15127 22.8487 0 21.4286 0ZM22.2857 14.5714C22.2857 15.0448 21.9019 15.4286 21.4285 15.4286H2.57143C2.09802 15.4286 1.71427 15.0448 1.71427 14.5714V9.42855H22.2857V14.5714ZM22.2857 7.71428H1.71427V6.00001H22.2857V7.71428ZM22.2857 4.2857H1.71427V2.57143C1.71427 2.09802 2.09802 1.71427 2.57143 1.71427H21.4286C21.902 1.71427 22.2857 2.09802 22.2857 2.57143V4.2857H22.2857Z" fill="#20446C"/>
<path d="M19.7145 11.1426H16.2859C15.8125 11.1426 15.4287 11.5263 15.4287 11.9997C15.4287 12.4731 15.8125 12.8569 16.2859 12.8569H19.7145C20.1879 12.8569 20.5716 12.4731 20.5716 11.9997C20.5716 11.5263 20.1879 11.1426 19.7145 11.1426Z" fill="#F0792E"/>
</svg>
