<svg width="18" height="21" viewBox="0 0 18 21" fill="none" xmlns="http://www.w3.org/2000/svg">
<path d="M18 12.0171C18.0045 9.63012 17.0607 7.33915 15.376 5.64814C13.6914 3.95712 11.404 3.00459 9.01705 3.00008L9.02272 8.34347e-05L5.12538 3.88273L4.98524 3.95246L9.0076 8.00007L9.01327 5.00007C10.8698 5.00358 12.6489 5.74444 13.9591 7.05968C15.2694 8.37491 16.0035 10.1568 16 12.0133C15.9965 13.8698 15.2557 15.6489 13.9404 16.9592C12.6252 18.2694 10.8433 19.0036 8.98682 19C7.13031 18.9965 5.35123 18.2557 4.04095 16.9404C2.73068 15.6252 1.99655 13.8433 2.00006 11.9868C2.00371 10.0568 2.79701 8.30833 4.06939 7.05074L2.65207 5.62806C1.009 7.25495 0.00478606 9.48306 6.20526e-05 11.9831C-0.00444833 14.37 0.939436 16.661 2.62407 18.352C4.30871 20.043 6.5961 20.9955 8.98304 21C11.37 21.0046 13.661 20.0607 15.352 18.376C17.043 16.6914 17.9955 14.404 18 12.0171Z" fill="white"/>
</svg>
