<svg width="230" height="249" viewBox="0 0 230 249" fill="none" xmlns="http://www.w3.org/2000/svg">
<g opacity="0.6">
<path d="M134.791 183.306H121.62V170.135H134.791V183.306ZM121.62 137.208H108.45V170.135H121.62V137.208ZM174.303 124.038H161.132V150.379H174.303V124.038ZM161.132 110.867H147.962V124.038H161.132V110.867ZM82.1083 124.038H68.9376V137.208H82.1083V124.038ZM68.9376 110.867H55.767V124.038H68.9376V110.867ZM115.035 77.9404H128.206V64.7697H115.035V77.9404ZM65.645 74.6477V94.4037H85.401V74.6477H65.645ZM95.279 104.282H55.767V64.7697H95.279V104.282ZM65.645 153.672V173.428H85.401V153.672H65.645ZM95.279 183.306H55.767V143.794H95.279V183.306ZM144.669 74.6477V94.4037H164.425V74.6477H144.669ZM174.303 104.282H134.791V64.7697H174.303V104.282ZM161.132 170.135V150.379H134.791V163.55H147.962V183.306H174.303V170.135H161.132ZM147.962 124.038H121.62V137.208H147.962V124.038ZM121.62 110.867H82.1083V124.038H95.279V137.208H108.45V124.038H121.62V110.867ZM128.206 104.282V91.111H115.035V77.9404H101.864V104.282H128.206ZM80.462 79.5867H70.584V89.4647H80.462V79.5867ZM80.462 158.611H70.584V168.489H80.462V158.611ZM159.486 79.5867H149.608V89.4647H159.486V79.5867Z" fill="white"/>
</g>
<path fill-rule="evenodd" clip-rule="evenodd" d="M35.9353 2.52177C35.9353 1.12904 34.8063 0 33.4135 0H5.04355H4.00122C1.79141 0 0 1.79141 0 4.00122V5.04355V33.4135C0 34.8063 1.12904 35.9353 2.52177 35.9353C3.91451 35.9353 5.04355 34.8063 5.04355 33.4135L5.04355 9.04477C5.04355 6.83495 6.83496 5.04355 9.04477 5.04355H33.4135C34.8063 5.04355 35.9353 3.91451 35.9353 2.52177Z" fill="white"/>
<path fill-rule="evenodd" clip-rule="evenodd" d="M194.058 246.478C194.058 247.871 195.187 249 196.58 249L224.95 249L225.993 249C228.202 249 229.994 247.209 229.994 244.999L229.994 243.956L229.994 215.586C229.994 214.194 228.865 213.065 227.472 213.065C226.079 213.065 224.95 214.194 224.95 215.586L224.95 239.955C224.95 242.165 223.159 243.956 220.949 243.956L196.58 243.956C195.187 243.956 194.058 245.085 194.058 246.478Z" fill="white"/>
<path fill-rule="evenodd" clip-rule="evenodd" d="M227.472 35.9353C228.865 35.9353 229.994 34.8062 229.994 33.4135L229.994 5.04355L229.994 4.00122C229.994 1.79141 228.202 -7.83052e-08 225.993 -1.74899e-07L224.95 -2.2046e-07L196.58 -1.46055e-06C195.187 -1.52143e-06 194.058 1.12904 194.058 2.52177C194.058 3.91451 195.187 5.04355 196.58 5.04355L220.949 5.04355C223.159 5.04355 224.95 6.83496 224.95 9.04477L224.95 33.4135C224.95 34.8063 226.079 35.9353 227.472 35.9353Z" fill="white"/>
<path fill-rule="evenodd" clip-rule="evenodd" d="M2.52177 213.065C1.12904 213.065 -1.52143e-06 214.194 -1.46055e-06 215.586L-2.2046e-07 243.956L-1.74899e-07 244.999C-7.83048e-08 247.209 1.79141 249 4.00122 249L5.04355 249L33.4135 249C34.8063 249 35.9353 247.871 35.9353 246.478C35.9353 245.085 34.8063 243.956 33.4135 243.956L9.04476 243.956C6.83495 243.956 5.04355 242.165 5.04355 239.955L5.04355 215.586C5.04355 214.194 3.91451 213.065 2.52177 213.065Z" fill="white"/>
</svg>
