<svg width="18" height="18" viewBox="0 0 18 18" fill="none" xmlns="http://www.w3.org/2000/svg">
<path fill-rule="evenodd" clip-rule="evenodd" d="M17.6894 2.05982e-05C17.6737 0.000738668 17.658 0.00269781 17.6426 0.00587978C15.9863 0.0135651 14.4609 0.356206 13.0759 0.935146C13.068 0.937941 13.0602 0.941069 13.0525 0.944521C13.0396 0.949943 13.0255 0.95312 13.0126 0.958583C12.9869 0.969629 12.9628 0.984223 12.9412 1.00194C12.8277 1.05567 12.7029 1.11994 12.5697 1.19295C12.5617 1.19613 12.5539 1.19965 12.5462 1.2035C12.5318 1.2108 12.5184 1.21959 12.5041 1.22693C12.4463 1.25894 12.4127 1.27567 12.3576 1.30662C10.405 2.33448 8.75812 3.78203 7.43001 5.40688C7.17477 5.30012 6.91262 5.22001 6.64136 5.18657V5.18774C5.62939 5.06301 4.52865 5.42906 3.50553 6.14513C2.14137 7.09994 0.878587 8.68485 0.024002 10.6848C-0.00201281 10.7459 -0.00704144 10.8139 0.00970349 10.8781C0.0264484 10.9423 0.0640214 10.9992 0.116539 11.0398C0.169057 11.0804 0.233554 11.1024 0.299932 11.1024C0.36631 11.1025 0.43082 11.0805 0.483362 11.0399C1.72148 10.0796 2.68415 9.56189 3.35788 9.44034C3.69474 9.37956 3.95161 9.41094 4.16644 9.51299C4.35166 9.60082 4.51462 9.7513 4.6633 9.97587C4.62474 10.0655 4.57706 10.156 4.54026 10.2454C4.51763 10.3003 4.51178 10.3606 4.52347 10.4188C4.53515 10.477 4.56383 10.5304 4.60588 10.5723L5.25039 11.2168C4.6908 12.0601 4.1145 13.0201 3.49147 14.096C3.49041 14.096 3.48902 14.0959 3.48795 14.1019C3.4855 14.1061 3.48316 14.1104 3.48092 14.1148C3.47971 14.1175 3.47854 14.1202 3.4774 14.123C3.4766 14.1249 3.47582 14.1269 3.47506 14.1289C3.47161 14.1365 3.46848 14.1444 3.46569 14.1523C3.46488 14.1542 3.4641 14.1562 3.46334 14.1582C3.46111 14.1655 3.45915 14.1729 3.45748 14.1804C3.45505 14.1901 3.45309 14.1999 3.45162 14.2097C3.45067 14.2155 3.44989 14.2214 3.44928 14.2273C3.44881 14.2312 3.44842 14.2351 3.44811 14.239C3.44808 14.2414 3.44808 14.2437 3.44811 14.246C3.44798 14.2562 3.44837 14.2664 3.44928 14.2765C3.44975 14.2843 3.45054 14.2922 3.45162 14.2999C3.452 14.3019 3.45239 14.3039 3.4528 14.3058C3.45465 14.3157 3.45699 14.3255 3.45983 14.3351C3.46252 14.3442 3.46565 14.3532 3.4692 14.3621C3.47203 14.3696 3.47515 14.377 3.47858 14.3843C3.48249 14.3927 3.48679 14.4009 3.49147 14.4089C3.49186 14.4089 3.49225 14.4089 3.49264 14.4089C3.49379 14.4109 3.49496 14.4128 3.49615 14.4148C3.5006 14.4212 3.50529 14.4275 3.51022 14.4335C3.51137 14.4355 3.51254 14.4375 3.51373 14.4394C3.51894 14.4459 3.52441 14.4521 3.53014 14.4581C3.53505 14.463 3.54013 14.4677 3.54537 14.4722C3.54729 14.4746 3.54924 14.4769 3.55123 14.4792C3.55277 14.4812 3.55433 14.4832 3.55592 14.4851C3.56198 14.49 3.56824 14.4947 3.57467 14.4992C3.57621 14.5011 3.57777 14.5031 3.57935 14.505C3.58618 14.51 3.59322 14.5147 3.60045 14.5191C3.60919 14.5242 3.61818 14.5289 3.6274 14.5331C3.63204 14.5352 3.63673 14.5372 3.64146 14.539C3.64571 14.5411 3.65001 14.543 3.65435 14.5449C3.65631 14.5449 3.65826 14.5449 3.66021 14.5449C3.66794 14.5471 3.67576 14.5491 3.68365 14.5507C3.69061 14.5529 3.69764 14.5549 3.70474 14.5566C3.70943 14.5567 3.71412 14.5567 3.7188 14.5566C3.727 14.5569 3.73521 14.5569 3.74341 14.5566C3.74497 14.5566 3.74654 14.5566 3.7481 14.5566C3.76817 14.5566 3.78819 14.5547 3.80786 14.5507C3.81735 14.5488 3.82673 14.5465 3.83599 14.5437C3.84593 14.5407 3.85571 14.5372 3.86528 14.5331C3.87654 14.5283 3.8875 14.5229 3.89809 14.5167C3.90506 14.5107 3.90988 14.5092 3.91684 14.505C4.98726 13.8838 5.94375 13.3087 6.78433 12.7508L7.40657 13.373C7.44847 13.4151 7.50189 13.4438 7.56009 13.4554C7.61829 13.4671 7.67864 13.4613 7.73352 13.4386C7.82114 13.4026 7.91039 13.3557 7.99835 13.3179C8.48079 13.6339 8.65265 14.0031 8.5456 14.6316C8.42976 15.3117 7.91974 16.2794 6.9601 17.5166C6.91954 17.5692 6.89755 17.6337 6.89756 17.7001C6.89758 17.7664 6.91962 17.8309 6.96021 17.8835C7.0008 17.936 7.05767 17.9736 7.1219 17.9903C7.18613 18.007 7.2541 18.002 7.31517 17.976C9.31519 17.1214 10.9001 15.8586 11.8549 14.4945C12.7661 13.1926 13.0991 11.7671 12.5873 10.5571C14.2024 9.25097 15.6473 7.63636 16.6758 5.72327C16.7175 5.65025 16.743 5.60179 16.7883 5.52289C16.8827 5.35837 16.9653 5.20426 17.0332 5.06118C17.0432 5.04598 17.0519 5.0299 17.059 5.01314C17.0595 5.01201 17.0597 5.01075 17.0602 5.00962C17.0652 4.99838 17.0754 4.98307 17.0801 4.97212C17.0896 4.94959 17.0963 4.92598 17.1 4.90181C17.6746 3.50849 17.9988 1.95822 17.9988 0.300011C17.9988 0.260518 17.991 0.221414 17.9759 0.184943C17.9607 0.148472 17.9385 0.11535 17.9105 0.0874792C17.8825 0.059608 17.8493 0.0375351 17.8128 0.0225269C17.7763 0.00751864 17.7371 -0.000129692 17.6976 2.05982e-05C17.6973 1.98355e-05 17.6969 1.98355e-05 17.6965 2.05982e-05C17.6941 -6.86607e-06 17.6918 -6.86607e-06 17.6894 2.05982e-05ZM17.366 0.633984C17.3292 1.94031 17.0776 3.16137 16.6606 4.2866L13.731 1.35818C14.855 0.936149 16.0624 0.672833 17.366 0.633984ZM13.0794 1.60895L16.4145 4.95103C16.388 5.0023 16.3563 5.05991 16.3266 5.11509C16.3262 5.11548 16.3258 5.11587 16.3254 5.11626C16.3152 5.13029 16.3061 5.14519 16.2985 5.16079C16.2471 5.26202 16.1894 5.35884 16.1356 5.45844C16.0781 5.55883 16.0124 5.6707 15.9727 5.74905C15.9668 5.76081 15.9617 5.77295 15.9575 5.78538C14.0365 9.11363 10.7525 11.4934 7.67844 12.7965L7.28587 12.4039C7.78893 12.0511 8.25773 11.7015 8.64638 11.3516C9.77354 10.3369 10.4128 9.25796 10.2705 8.0271C10.2682 8.00517 10.2635 7.98355 10.2565 7.96265L10.2506 7.94859C10.2278 7.8826 10.1826 7.82665 10.1229 7.79039L10.0995 7.77633C10.0627 7.75376 10.0216 7.73937 9.97875 7.73414V7.72828C8.74794 7.58591 7.66712 8.22569 6.65191 9.35245C6.30108 9.74183 5.95078 10.2113 5.59726 10.7153L5.18243 10.3005C6.48407 7.23187 8.85841 3.99894 12.1842 2.08237C12.1974 2.07782 12.2103 2.07233 12.2228 2.06597C12.4446 1.95347 12.8219 1.74178 13.0794 1.60895ZM12.3213 4.19637C11.9409 4.19637 11.5596 4.34052 11.2713 4.62878C10.6947 5.20536 10.6959 6.14978 11.2725 6.72636C11.849 7.30295 12.7923 7.30295 13.3689 6.72636C13.9454 6.14978 13.9466 5.20536 13.3701 4.62878C13.0818 4.34052 12.7016 4.19637 12.3213 4.19637ZM12.3213 4.79283C12.5468 4.79283 12.7722 4.87935 12.9458 5.05298C13.2931 5.40025 13.292 5.95489 12.9447 6.30216C12.5974 6.64943 12.0439 6.64943 11.6967 6.30216C11.3494 5.95489 11.3482 5.40025 11.6955 5.05298C11.8691 4.87935 12.0957 4.79283 12.3213 4.79283ZM6.02967 5.78421C6.35735 5.78764 6.66461 5.87644 6.96831 5.9717C6.87008 6.10543 6.77518 6.24641 6.67886 6.38419C6.67148 6.39454 6.66513 6.40547 6.65777 6.41583C6.42343 6.75233 6.194 7.09903 5.97342 7.46111C5.78765 7.76202 5.61786 8.06399 5.45195 8.36811C5.42268 8.42244 5.39296 8.47492 5.36406 8.52982C5.20146 8.83465 5.04955 9.13773 4.90705 9.44268C4.75342 9.27259 4.62393 9.06509 4.42425 8.97043C4.08006 8.80724 3.67985 8.7724 3.25124 8.84973C2.66819 8.95491 1.97594 9.32641 1.2181 9.81767C1.9767 8.47233 2.87141 7.32029 3.84888 6.63613C4.47386 6.19869 5.10028 5.91979 5.69452 5.81233C5.80889 5.79165 5.92044 5.78306 6.02967 5.78421ZM9.619 8.381C9.61132 9.25031 9.19312 10.0464 8.24444 10.9004C7.39346 11.6665 6.11119 12.4812 4.6387 13.3601C5.51697 11.8868 6.3308 10.6039 7.09721 9.75322C7.95192 8.80459 8.74894 8.38808 9.619 8.381ZM12.0283 11.0258C12.3225 11.9578 12.1396 13.0417 11.3639 14.15C10.6787 15.1289 9.52355 16.0251 8.1753 16.7842C8.66693 16.0205 9.037 15.3217 9.13738 14.7324C9.2533 14.0518 8.97963 13.5036 8.52919 13.0754C8.84427 12.9287 9.15801 12.7723 9.47369 12.6043C9.48926 12.5962 9.50387 12.5878 9.51939 12.5797C9.79778 12.4306 10.0761 12.2859 10.3526 12.1203C10.9445 11.7749 11.5024 11.4088 12.0283 11.0258ZM4.09262 12.4836L1.75246 14.8249L2.03605 15.1097L3.27702 13.8687C3.55667 13.3863 3.82791 12.9227 4.09262 12.4836ZM5.49296 13.9261C5.05351 14.1911 4.59014 14.4628 4.10785 14.7429L2.60439 16.2464L2.88914 16.53L5.49296 13.9261ZM3.2032 14.5109L1.4677 16.2464L1.75246 16.53L3.48795 14.7945C3.48046 14.7945 3.47282 14.7887 3.46569 14.7851C3.46331 14.7832 3.46097 14.7812 3.45866 14.7792C3.44913 14.7732 3.43975 14.7676 3.43053 14.7616L3.43405 14.7675C3.42288 14.7609 3.41193 14.753 3.40124 14.7452C3.38836 14.7362 3.37585 14.7261 3.36374 14.7159C3.36135 14.7136 3.35901 14.7113 3.35671 14.7089C3.35188 14.7048 3.34719 14.7005 3.34264 14.696C3.34147 14.696 3.3403 14.696 3.33913 14.696C3.33874 14.696 3.33835 14.696 3.33796 14.696C3.33676 14.6941 3.33559 14.6921 3.33444 14.6902C3.33024 14.6842 3.32564 14.6844 3.32155 14.6784C3.31996 14.6761 3.31839 14.6738 3.31686 14.6714C3.31182 14.6654 3.30648 14.6634 3.30163 14.6574C3.29271 14.6478 3.28411 14.6383 3.27585 14.6281C3.27504 14.6257 3.27426 14.6234 3.27351 14.621C3.26292 14.6078 3.25475 14.5932 3.24538 14.5788C3.23114 14.5611 3.21895 14.5419 3.20905 14.5214C3.20732 14.5159 3.2049 14.5144 3.2032 14.5109ZM1.4677 15.1097L1.18295 15.3933L1.4677 15.678L1.75129 15.3933L1.4677 15.1097ZM1.18295 16.53L0.899364 16.8147L1.18295 17.0983L1.4677 16.8147L1.18295 16.53ZM2.31963 16.53L2.03605 16.8147L2.31963 17.0983L2.60439 16.8147L2.31963 16.53Z" fill="#F0792E"/>
</svg>
