<svg width="25" height="20" viewBox="0 0 25 20" fill="none" xmlns="http://www.w3.org/2000/svg">
<path d="M3.02145 19.8973H21.9683C23.5781 19.8973 24.8871 18.5796 24.8871 16.9596V6.13382C24.8871 4.51384 23.5791 3.19608 21.9683 3.19608H3.02145C1.41061 3.19608 0.102615 4.51384 0.102615 6.13382V16.9596C0.102615 18.5796 1.41061 19.8973 3.02145 19.8973ZM1.84368 6.13382C1.84368 5.47936 2.37302 4.94745 3.02145 4.94745H21.9683C22.6167 4.94745 23.1461 5.47936 23.1461 6.13382V16.9596C23.1461 17.6141 22.6167 18.146 21.9683 18.146H3.02145C2.37302 18.146 1.84368 17.6141 1.84368 16.9596V6.13382Z" fill="#20446C" stroke="#20446C" stroke-width="0.2"/>
<path d="M4.04561 6.39096H6.60599V7.9375H4.04561V6.39096Z" fill="#F0792E"/>
<path d="M18.3838 15.1548H20.9441V16.7013H18.3838V15.1548Z" fill="#F0792E"/>
<path d="M3.02145 0.102615H2.91904V0.205031V1.75157V1.85399H3.02145H21.9683H22.0707V1.75157V0.205031V0.102615H21.9683H3.02145Z" fill="#20446C" stroke="#20446C" stroke-width="0.2"/>
<path d="M15.1346 8.05226C15.3736 8.05226 15.5673 7.84312 15.5673 7.58516C15.5673 7.3272 15.3736 7.11807 15.1346 7.11807H9.85515C9.61616 7.11807 9.42241 7.3272 9.42241 7.58516C9.42241 7.84312 9.61616 8.05226 9.85515 8.05226H11.6727C12.2368 8.05226 12.7178 8.44281 12.8964 8.98648H9.85515C9.61616 8.98648 9.42241 9.19562 9.42241 9.45358C9.42241 9.71154 9.61616 9.92067 9.85515 9.92067H12.8964C12.7178 10.4643 12.2368 10.8549 11.6726 10.8549H9.884C9.71535 10.8549 9.56207 10.9606 9.49128 11.1258C9.42048 11.291 9.445 11.4856 9.55417 11.6243L13.1314 16.1707C13.217 16.2795 13.3389 16.3355 13.4615 16.3355C13.5605 16.3355 13.66 16.299 13.7414 16.2244C13.9236 16.0574 13.9458 15.7626 13.7911 15.566L10.8193 11.789H11.6727C12.7175 11.789 13.5918 10.9854 13.7928 9.92064H15.1346C15.3736 9.92064 15.5673 9.71151 15.5673 9.45355C15.5673 9.19558 15.3736 8.98645 15.1346 8.98645H13.7928C13.7277 8.64145 13.5918 8.32395 13.4024 8.05223H15.1346V8.05226Z" fill="#F0792E" stroke="#F0792E" stroke-width="0.0933824"/>
</svg>
