<svg width="21" height="31" viewBox="0 0 21 31" fill="none" xmlns="http://www.w3.org/2000/svg">
<path d="M17.5499 0.0766668V0.0757169H17.4741H3.0464C1.40856 0.0757169 0.0757169 1.40316 0.0757169 3.03555V27.9591C0.0757169 29.5942 1.40583 30.9243 3.04095 30.9243H17.4796C19.1147 30.9243 20.4448 29.5942 20.4448 27.9591V3.03555C20.4448 1.42842 19.1529 0.116876 17.5499 0.0766668ZM1.42645 3.03555C1.42645 2.14882 2.15276 1.42645 3.0464 1.42645H17.4742C18.3678 1.42645 19.0941 2.14876 19.0941 3.03555V24.7873H1.42645V3.03555ZM19.0941 27.9591C19.0941 28.8493 18.3697 29.5736 17.4796 29.5736H3.04089C2.15076 29.5736 1.42639 28.8493 1.42639 27.9591V26.138H19.0941V27.9591Z" fill="#F0792E" stroke="#F0792E" stroke-width="0.15"/>
<path d="M9.8608 28.532H10.6602C11.0332 28.532 11.3355 28.2296 11.3355 27.8566C11.3355 27.4837 11.0332 27.1813 10.6602 27.1813H9.8608C9.48779 27.1813 9.18544 27.4837 9.18544 27.8566C9.18544 28.2296 9.48786 28.532 9.8608 28.532Z" fill="#F0792E" stroke="#F0792E" stroke-width="0.15"/>
<path d="M7.41259 3.79717H13.107C13.48 3.79717 13.7824 3.49474 13.7824 3.1218C13.7824 2.74886 13.48 2.44644 13.107 2.44644H7.41259C7.03958 2.44644 6.73722 2.74886 6.73722 3.1218C6.73722 3.49474 7.03958 3.79717 7.41259 3.79717Z" fill="#F0792E" stroke="#F0792E" stroke-width="0.15"/>
<path d="M6.20319 16.8147H14.879C15.2067 16.8147 15.4946 16.5967 15.588 16.2798L17.3813 10.1946L17.3086 10.1732L17.3814 10.1946C17.448 9.96822 17.4054 9.72301 17.266 9.53328C17.1266 9.34348 16.9065 9.23125 16.6723 9.23125H5.23773L5.05617 7.80525L5.05617 7.80525C5.00869 7.43247 4.69523 7.15184 4.32242 7.15184H1.82647C1.41684 7.15184 1.08659 7.48832 1.08659 7.90102C1.08659 8.31372 1.41684 8.6502 1.82647 8.6502H3.6718L4.96114 18.7781C4.98652 18.9774 5.08787 19.1502 5.23363 19.268C5.10648 19.5526 5.0357 19.8683 5.0357 20.2004C5.0357 21.449 6.03659 22.4666 7.26939 22.4666C8.5022 22.4666 9.50308 21.4489 9.50308 20.2004C9.50308 19.9307 9.45637 19.6717 9.37069 19.4314H11.1632C11.0778 19.6714 11.0312 19.93 11.0312 20.1993C11.0312 21.4479 12.0321 22.4655 13.2649 22.4655C14.4977 22.4655 15.4986 21.4479 15.4986 20.1993C15.4986 19.7468 15.3671 19.3246 15.1408 18.9703C15.1773 18.8815 15.1975 18.7842 15.1975 18.6822C15.1975 18.2695 14.8673 17.9331 14.4577 17.9331H6.34558L6.20319 16.8147ZM7.26939 20.9682C6.85491 20.9682 6.51546 20.6249 6.51546 20.2004C6.51546 19.7758 6.85491 19.4325 7.26939 19.4325C7.68387 19.4325 8.02332 19.7758 8.02332 20.2004C8.02338 20.6249 7.68388 20.9682 7.26939 20.9682ZM13.2649 20.9672C12.8505 20.9672 12.511 20.6239 12.511 20.1994C12.511 19.7748 12.8505 19.4315 13.2649 19.4315C13.6794 19.4315 14.0189 19.7748 14.0189 20.1994C14.0189 20.6239 13.6794 20.9672 13.2649 20.9672ZM15.6794 10.7296L14.3276 15.3164H6.01243L5.4285 10.7296H15.6794Z" fill="#F0792E" stroke="#F0792E" stroke-width="0.15"/>
</svg>
