<svg width="13" height="13" viewBox="0 0 13 13" fill="none" xmlns="http://www.w3.org/2000/svg">
<path d="M6.50249 12.9052L6.50251 12.9052C8.19987 12.9032 9.82715 12.2277 11.0274 11.027C12.2276 9.82622 12.9027 8.19822 12.9046 6.50011L12.9046 6.5C12.9046 6.34617 12.8436 6.19862 12.7348 6.08983C12.6261 5.98104 12.4786 5.91992 12.3248 5.91992C12.171 5.91992 12.0235 5.98104 11.9148 6.08983C11.806 6.19862 11.7449 6.34617 11.7449 6.5L11.7449 6.50011C11.7464 7.74237 11.3075 8.94491 10.5065 9.89406C9.70539 10.8432 8.59393 11.4775 7.36959 11.6842C6.14524 11.8909 4.88729 11.6567 3.81923 11.0232C2.75118 10.3897 1.94219 9.39782 1.53602 8.2239C1.12985 7.04998 1.15281 5.77001 1.60081 4.61142C2.04882 3.45284 2.89286 2.49068 3.98294 1.89589C5.07303 1.3011 6.33857 1.11219 7.55471 1.36274C8.67289 1.5931 9.68273 2.18124 10.434 3.03413L9.93568 2.89625L9.93567 2.89624C9.78741 2.85524 9.62895 2.87484 9.49513 2.95072C9.36132 3.02661 9.26314 3.15255 9.22216 3.30085C9.18118 3.44914 9.20077 3.60765 9.27661 3.7415C9.35245 3.87535 9.47834 3.9736 9.62659 4.0146L9.65183 3.92337L9.6266 4.01461L11.6101 4.56313L11.6099 4.56378L11.6211 4.56549C11.6465 4.56934 11.672 4.57146 11.6977 4.57184C11.7335 4.57776 11.7697 4.5802 11.806 4.57914L11.806 4.57976L11.8168 4.5782C11.8535 4.57288 11.8896 4.56398 11.9246 4.55162C11.9499 4.54704 11.9748 4.54072 11.9992 4.53269L11.9994 4.53323L12.0088 4.52894C12.0168 4.52532 12.0232 4.52124 12.028 4.51778C12.0327 4.51614 12.0391 4.51363 12.046 4.50984L12.0464 4.51049L12.056 4.50359C12.0807 4.48577 12.104 4.46599 12.1256 4.44444C12.1524 4.42471 12.1775 4.40269 12.2005 4.37865L12.2012 4.37929L12.2089 4.36854C12.2283 4.34165 12.2454 4.31312 12.2598 4.28328C12.2789 4.25273 12.295 4.22044 12.308 4.18685C12.3116 4.18094 12.3167 4.17139 12.3201 4.15884L12.8721 2.17403L12.8721 2.17388C12.9131 2.02558 12.8935 1.86708 12.8177 1.73322C12.7418 1.59937 12.6159 1.50113 12.4677 1.46012C12.3194 1.41912 12.161 1.43871 12.0271 1.5146C11.8933 1.59048 11.7952 1.71643 11.7542 1.86472L11.7542 1.86474L11.5575 2.57704C10.9274 1.76336 10.1098 1.11279 9.17348 0.681606C8.17831 0.223336 7.08224 0.0282167 5.99014 0.114914C4.89805 0.201613 3.84646 0.567227 2.93598 1.17678C2.02551 1.78633 1.28661 2.61942 0.789983 3.59634C0.293351 4.57327 0.0555974 5.66135 0.0994647 6.75648C0.143332 7.85161 0.467353 8.91717 1.04053 9.8512C1.61371 10.7852 2.41687 11.5565 3.37318 12.0912C4.3295 12.6259 5.40696 12.9062 6.50249 12.9052Z" fill="white" stroke="white" stroke-width="0.18"/>
</svg>
