<svg width="77" height="67" viewBox="0 0 77 67" fill="none" xmlns="http://www.w3.org/2000/svg">
<path d="M59.2194 7.66066L38.328 0L17.6379 7.57598C14.9974 8.83271 12.6791 9.59476 12.6791 12.1082V24.6175C12.6352 33.3811 14.9918 41.9907 19.4953 49.5202C23.3531 55.9152 29.3412 62.5019 38.5293 66.6909C46.9879 63.8834 53.2983 56.4054 57.1562 50.006C61.657 42.4774 64.0105 33.8691 63.9633 25.1077V13.8551C63.9633 10.2721 62.115 8.52075 59.2194 7.66066Z" fill="#FFD0AE"/>
<path d="M48.923 37.5663H45.7717V20.3828C45.7717 18.4371 44.9996 16.571 43.6252 15.1952C42.2508 13.8193 40.3868 13.0464 38.4431 13.0464C36.4994 13.0464 34.6354 13.8193 33.261 15.1952C31.8866 16.571 31.1145 18.4371 31.1145 20.3828V37.5663H27.9595V20.3828C27.9224 18.9817 28.1661 17.5874 28.6761 16.2821C29.1861 14.9768 29.9521 13.787 30.9289 12.7828C31.9057 11.7787 33.0735 10.9806 34.3635 10.4357C35.6534 9.89078 37.0393 9.61003 38.4394 9.61003C39.8395 9.61003 41.2254 9.89078 42.5154 10.4357C43.8053 10.9806 44.9732 11.7787 45.95 12.7828C46.9268 13.787 47.6928 14.9768 48.2028 16.2821C48.7128 17.5874 48.9564 18.9817 48.9194 20.3828L48.923 37.5663Z" fill="#20446C"/>
<path d="M50.3039 29.7034H26.5758C25.4082 29.7034 24.4617 30.6716 24.4617 31.8659V45.8871C24.4617 47.0815 25.4082 48.0497 26.5758 48.0497H50.3039C51.4715 48.0497 52.418 47.0815 52.418 45.8871V31.8659C52.418 30.6716 51.4715 29.7034 50.3039 29.7034Z" fill="#20446C"/>
<path d="M41.0605 36.6179C41.0642 36.1462 40.9309 35.683 40.6757 35.2805C40.4205 34.8781 40.0536 34.5526 39.6165 34.3408C39.1794 34.129 38.6895 34.0394 38.2023 34.0821C37.7151 34.1248 37.2501 34.2982 36.8598 34.5825C36.4694 34.8669 36.1695 35.2509 35.9937 35.6911C35.818 36.1313 35.7736 36.6102 35.8654 37.0735C35.9573 37.5368 36.1818 37.966 36.5135 38.3127C36.8453 38.6594 37.271 38.9096 37.7426 39.035V42.8081H39.1733V39.035C39.7172 38.8841 40.1955 38.5667 40.5359 38.1307C40.8764 37.6946 41.0605 37.1637 41.0605 36.6179Z" fill="white"/>
<path d="M25.4228 46.3025C25.3737 46.3025 25.3355 43.3682 25.3355 39.752C25.3355 36.1359 25.3737 33.198 25.4228 33.198C25.472 33.198 25.5102 36.1287 25.5102 39.752C25.5102 43.3753 25.4693 46.3025 25.4228 46.3025Z" fill="#FAFAFA"/>
<path d="M36.3113 39.3134C36.3113 39.3134 36.2145 39.2762 36.0662 39.1535C35.8616 38.9756 35.6821 38.7624 35.534 38.5212C35.2756 38.1279 35.0958 37.6735 35.0075 37.1907C34.9192 36.7079 34.9245 36.2085 35.0232 35.7283C35.1218 35.2481 35.3113 34.7991 35.578 34.4132C35.8447 34.0274 36.1822 33.7143 36.5661 33.4964C36.7916 33.3596 37.0343 33.2642 37.2853 33.2138C37.378 33.1927 37.4733 33.1927 37.5659 33.2138C37.2454 33.3352 36.9338 33.4857 36.6338 33.6638C36.2836 33.8885 35.9779 34.1952 35.7366 34.5641C35.4952 34.9331 35.3235 35.3563 35.2323 35.8064C35.1412 36.2565 35.1328 36.7236 35.2075 37.1777C35.2822 37.6317 35.4385 38.0628 35.6663 38.4431C35.8607 38.7526 36.0764 39.0437 36.3113 39.3134Z" fill="#FAFAFA"/>
<path d="M64.1514 61.8376L64.402 61.5034L64.5407 61.3207C64.59 61.2494 64.6302 61.1692 64.6839 61.08C64.807 60.8803 64.9118 60.67 64.9972 60.4517C65.0465 60.3269 65.1046 60.1976 65.1583 60.0595C65.212 59.9213 65.2389 59.7609 65.2836 59.6138C65.3304 59.4487 65.3648 59.2804 65.3866 59.1103C65.4219 58.9261 65.4473 58.7401 65.4627 58.5532C65.538 57.6605 65.4973 56.7618 65.3418 55.8793C64.8773 53.4542 64.0426 51.1142 62.8669 48.9406C61.3476 46.0438 59.5696 43.289 57.5545 40.7095C55.1303 37.5686 52.4862 34.6021 49.6419 31.8323C46.3853 28.6431 42.905 25.6884 39.2276 22.9906C37.2852 21.569 35.2355 20.1875 33.0783 18.8907C30.8818 17.5562 28.6005 16.3653 26.2488 15.3255C23.8222 14.2215 21.2662 13.425 18.6405 12.9547C17.3051 12.7158 15.9413 12.6782 14.5947 12.8433C13.9199 12.9423 13.2619 13.1327 12.6389 13.4093C12.0192 13.71 11.4608 14.1225 10.992 14.6259C10.5471 15.152 10.2055 15.7567 9.98498 16.4085C9.78106 17.0572 9.66516 17.7301 9.64037 18.4094C9.6223 19.7668 9.81092 21.1191 10.1998 22.4202C10.9704 24.9613 12.0558 27.397 13.4311 29.6709C14.7377 31.88 16.1863 34.0027 17.7678 36.0258C19.3073 38.0134 20.9006 39.8851 22.5565 41.6409C25.6688 44.9671 29.0128 48.0705 32.5636 50.9282C35.6455 53.4313 38.9013 55.7143 42.3067 57.76C45.1096 59.4598 48.0603 60.905 51.1233 62.0783C53.4244 62.9944 55.853 63.5535 58.3243 63.7361C59.2236 63.7884 60.1259 63.727 61.0096 63.5534C61.2065 63.5266 61.3811 63.4553 61.5601 63.4152C61.7272 63.3744 61.8904 63.3192 62.0479 63.2503L62.4954 63.0765C62.6297 63.0097 62.755 62.9384 62.8714 62.876C63.0783 62.7643 63.2759 62.6361 63.4621 62.4927C63.5427 62.4303 63.6233 62.3813 63.6859 62.3234C63.7486 62.2654 63.8023 62.212 63.856 62.1674L64.1558 61.8822C64.1558 61.8822 64.0619 61.9847 63.8649 62.1763L63.6993 62.3412C63.6367 62.3947 63.5561 62.4482 63.4756 62.5105C63.2932 62.6596 63.0968 62.7909 62.8893 62.9027C62.7684 62.9696 62.6476 63.0409 62.5133 63.1077L62.0658 63.2904C61.9042 63.3567 61.7382 63.4118 61.569 63.4553C61.39 63.5133 61.2076 63.561 61.023 63.5979C60.1403 63.7791 59.2378 63.8465 58.3377 63.7985C55.857 63.6257 53.4177 63.0741 51.1054 62.1629C48.0329 60.9954 45.073 59.5531 42.2619 57.8535C38.8474 55.8121 35.5826 53.5321 32.492 51.0307C28.9328 48.1747 25.5812 45.0712 22.4625 41.7434C20.82 39.9609 19.2044 38.1114 17.6604 36.1194C16.0744 34.0919 14.6214 31.9647 13.3102 29.7511C11.9256 27.4671 10.834 25.0192 10.0611 22.4648C9.66675 21.151 9.47658 19.7849 9.49716 18.4139C9.51977 17.7194 9.63721 17.0313 9.84625 16.3683C10.0761 15.7038 10.4299 15.0884 10.889 14.5546C11.3631 14.0308 11.9325 13.6013 12.5673 13.2889C13.2063 13.0065 13.8808 12.8116 14.5723 12.7096C15.9361 12.5361 17.3185 12.5706 18.6718 12.8121C21.3085 13.2856 23.875 14.0866 26.3114 15.1963C28.6678 16.2353 30.9537 17.4262 33.1544 18.7615C35.3205 20.0628 37.3703 21.4353 39.3126 22.8703C42.9876 25.5776 46.4662 28.5395 49.7225 31.7342C52.5709 34.5154 55.218 37.4938 57.6441 40.6471C59.6588 43.2346 61.4338 45.9985 62.9475 48.905C64.1204 51.0876 64.9491 53.4369 65.4045 55.8704C65.5545 56.7625 65.5906 57.6699 65.5119 58.571C65.5119 58.7671 65.4537 58.9498 65.4313 59.1281C65.4027 59.3004 65.3608 59.4702 65.306 59.6361L65.1762 60.0818C65.127 60.2244 65.0644 60.3536 65.0151 60.4784C64.9247 60.6969 64.8153 60.9071 64.6884 61.1068C64.6392 61.1914 64.5944 61.2761 64.5452 61.3474L64.402 61.5257C64.2453 61.7307 64.1514 61.8376 64.1514 61.8376Z" fill="#8E9398"/>
<path d="M73.9836 38.2048C73.9836 38.2048 73.9836 38.0622 73.9478 37.7904C73.9478 37.7235 73.9478 37.6478 73.9478 37.5631C73.9478 37.4784 73.912 37.3849 73.8941 37.2868C73.8518 37.0559 73.7889 36.8292 73.7061 36.6094C73.6613 36.4847 73.6211 36.351 73.5629 36.2128L73.3525 35.7672C73.2779 35.6121 73.1911 35.4631 73.093 35.3215C72.99 35.1745 72.905 35.0051 72.7797 34.8759C72.2359 34.1587 71.6028 33.5133 70.8955 32.9551C68.9281 31.4527 66.7411 30.2594 64.4106 29.4167C61.3407 28.2633 58.1727 27.3878 54.945 26.8008C51.0363 26.0692 47.0806 25.6135 43.1074 25.4371C38.5471 25.2145 33.9766 25.3143 29.4305 25.7357C27.0316 25.9629 24.5836 26.2927 22.1042 26.7517C19.5657 27.2108 17.0601 27.8345 14.6033 28.619C12.0578 29.4024 9.6206 30.4998 7.34861 31.8856C6.19203 32.5967 5.14951 33.477 4.25607 34.4971C3.81917 35.0195 3.45488 35.5981 3.17301 36.2173C2.90936 36.8464 2.7652 37.5189 2.74784 38.2004C2.76581 38.8814 2.90837 39.5534 3.16853 40.1835C3.45117 40.8023 3.8154 41.3808 4.25159 41.9037C5.14475 42.9253 6.18728 43.8072 7.34413 44.5196C9.61726 45.9063 12.056 47.0037 14.6033 47.7862C17.0541 48.5705 19.5537 49.1942 22.0863 49.6535C24.5657 50.0991 27.0093 50.4467 29.4126 50.674C33.959 51.0918 38.5293 51.1901 43.0895 50.9681C47.0619 50.7985 51.0175 50.3518 54.9271 49.6312C58.1619 49.0372 61.336 48.1526 64.4106 46.9885C66.7411 46.1458 68.9281 44.9525 70.8955 43.4501C71.6038 42.893 72.237 42.2475 72.7797 41.5294C72.905 41.3823 72.99 41.213 73.093 41.0837C73.1909 40.9421 73.2777 40.7931 73.3525 40.6381C73.4241 40.491 73.4958 40.3529 73.5629 40.2192C73.63 40.0855 73.6613 39.9429 73.7061 39.8181C73.79 39.5987 73.8529 39.3719 73.8941 39.1407C73.8941 39.0427 73.9343 38.9535 73.9478 38.8689C73.9612 38.7842 73.9478 38.7084 73.9478 38.6371C73.9702 38.3653 73.9836 38.2271 73.9836 38.2271C73.9836 38.2271 73.9836 38.3653 73.9836 38.6416C73.9836 38.7069 73.9836 38.7827 73.9836 38.8689C73.9836 38.9535 73.9478 39.0471 73.9299 39.1452C73.8938 39.3794 73.8338 39.6094 73.7508 39.8315C73.7061 39.9562 73.6658 40.0944 73.6076 40.2325C73.5495 40.3707 73.4734 40.5088 73.4018 40.6782C73.3276 40.8326 73.2423 40.9816 73.1467 41.1238C73.0437 41.2709 72.9587 41.4447 72.8334 41.5918C72.2917 42.3173 71.6584 42.9703 70.9492 43.5348C68.9817 45.0487 66.7913 46.2513 64.4553 47.0999C61.3843 48.2654 58.213 49.15 54.9808 49.7426C51.0668 50.4824 47.105 50.9455 43.1254 51.1286C38.5594 51.3559 33.9829 51.2605 29.4305 50.8434C27.0272 50.6205 24.5746 50.2908 22.0863 49.8317C19.5475 49.3721 17.0418 48.7468 14.5854 47.96C12.0249 47.1747 9.5739 46.0712 7.29042 44.6756C6.11705 43.9588 5.06059 43.0676 4.15761 42.0329C3.70966 41.4914 3.33778 40.8917 3.05217 40.2504C2.77624 39.6023 2.62445 38.9085 2.60463 38.2048C2.62621 37.5014 2.77793 36.808 3.05217 36.1593C3.34013 35.5265 3.71355 34.9357 4.16208 34.4035C5.06497 33.3675 6.12142 32.4748 7.2949 31.7563C9.56785 30.3648 12.0065 29.2615 14.5541 28.4719C17.0125 27.6881 19.5196 27.0644 22.0594 26.6047C24.5433 26.159 26.9824 25.8159 29.3991 25.5886C33.9519 25.1751 38.5285 25.0857 43.094 25.3212C47.0721 25.5026 51.0324 25.9643 54.945 26.7027C58.1738 27.2912 61.3421 28.1712 64.4106 29.332C66.7449 30.1811 68.9338 31.3836 70.9 32.8972C71.6105 33.4616 72.2453 34.1146 72.7886 34.8402C72.9009 34.9914 73.004 35.1492 73.0974 35.3126C73.1954 35.4542 73.2822 35.6032 73.357 35.7582C73.4286 35.9053 73.5002 36.0479 73.5629 36.2039C73.6255 36.3599 73.6613 36.4802 73.7061 36.6094C73.7869 36.8307 73.8469 37.0589 73.8851 37.2913C73.8851 37.3938 73.9254 37.4829 73.9388 37.5676C73.9522 37.6522 73.9388 37.728 73.9388 37.7993C73.9791 38.0622 73.9836 38.2048 73.9836 38.2048Z" fill="#8E9398"/>
<path d="M60.9605 8.78383C60.9605 8.78383 60.8396 8.71252 60.6069 8.561L60.4145 8.43622C60.3428 8.39166 60.2533 8.35601 60.1638 8.31144C59.9545 8.20175 59.7359 8.11078 59.5104 8.0396C59.3851 7.99949 59.2508 7.95047 59.1076 7.91036L58.6601 7.81677C58.4922 7.78023 58.3215 7.75787 58.1499 7.74993C57.9629 7.725 57.7746 7.71161 57.586 7.70982C56.6814 7.69757 55.7789 7.80092 54.9007 8.01731C52.5025 8.64354 50.2155 9.63411 48.1204 10.9541C45.3224 12.6616 42.686 14.6186 40.2436 16.801C37.2684 19.4238 34.4837 22.2533 31.9103 25.2683C28.9346 28.7223 26.2096 32.3828 23.7561 36.2223C22.4627 38.25 21.223 40.3801 20.0728 42.6128C18.8863 44.8872 17.8502 47.2363 16.9713 49.6451C16.0318 52.1291 15.4094 54.7208 15.1184 57.3593C14.9699 58.7048 15.0303 60.0651 15.2975 61.3924C15.442 62.0554 15.6769 62.6956 15.9956 63.2953C16.3194 63.8953 16.7652 64.4216 17.3046 64.8406C17.844 65.2595 18.4651 65.5619 19.1284 65.7285C19.7935 65.8864 20.477 65.9538 21.1603 65.929C22.5167 65.8554 23.8539 65.5758 25.1255 65.1001C27.6255 64.1619 29.998 62.9164 32.1878 61.3924C34.3099 59.9422 36.3355 58.3568 38.252 56.6462C40.1407 54.9795 41.8995 53.2504 43.551 51.5035C46.6681 48.1819 49.5456 44.6451 52.1617 40.9194C54.4566 37.686 56.5189 34.2951 58.3334 30.772C59.843 27.8705 61.0877 24.8398 62.0525 21.7165C62.8134 19.3677 63.2059 16.916 63.2161 14.448C63.2103 13.5446 63.087 12.6459 62.8491 11.7741C62.8002 11.5924 62.7404 11.4139 62.6701 11.2393C62.6175 11.076 62.5532 10.9166 62.4776 10.7625C62.4015 10.6154 62.3344 10.4728 62.2673 10.3168C62.2002 10.1609 62.1151 10.0717 62.0435 9.96033C61.9119 9.7599 61.7621 9.57194 61.596 9.39882C61.5288 9.32306 61.4707 9.2473 61.4125 9.18491L61.2424 9.03339C61.0365 8.84622 60.9381 8.74817 60.9381 8.74817L61.2514 9.02002L61.4259 9.17154C61.4886 9.23393 61.5467 9.30523 61.6139 9.38099C61.78 9.55413 61.9298 9.74209 62.0614 9.94251C62.133 10.0539 62.2136 10.1698 62.2897 10.299L62.5045 10.7447C62.5835 10.8994 62.6493 11.0604 62.7014 11.226C62.7739 11.4001 62.8352 11.5788 62.8849 11.7607C63.1311 12.6312 63.2605 13.5303 63.2698 14.4346C63.2765 16.919 62.8945 19.3893 62.1375 21.7566C61.1829 24.8887 59.9425 27.9273 58.4318 30.8344C56.6228 34.3672 54.5634 37.7671 52.2691 41.0085C49.6531 44.7425 46.7741 48.2869 43.6539 51.6149C42.0025 53.3707 40.2391 55.0998 38.3505 56.771C36.4289 58.4886 34.3973 60.0799 32.2684 61.535C30.076 63.0686 27.6989 64.3217 25.1927 65.265C23.9001 65.7448 22.5421 66.0272 21.1648 66.1028C20.4665 66.1281 19.7679 66.0592 19.0882 65.8978C18.4017 65.7277 17.7585 65.4166 17.1997 64.9845C16.641 64.5525 16.179 64.009 15.8435 63.3888C15.5175 62.7733 15.2766 62.1167 15.1274 61.4369C14.8612 60.0946 14.7993 58.72 14.9439 57.3593C15.2377 54.7069 15.8647 52.1018 16.8102 49.605C17.6986 47.1908 18.7451 44.8372 19.943 42.5594C21.0976 40.3311 22.3418 38.1876 23.6352 36.1599C26.0897 32.3171 28.8162 28.6536 31.794 25.197C34.3762 22.1813 37.1699 19.3518 40.1541 16.7297C42.6061 14.548 45.2531 12.5939 48.0622 10.8917C50.1651 9.562 52.4632 8.56667 54.8738 7.94155C55.7525 7.72873 56.6549 7.6284 57.5591 7.64297C57.756 7.64297 57.944 7.67417 58.1275 7.68754C58.3009 7.69837 58.4731 7.72371 58.6422 7.7633L59.0897 7.86134C59.2329 7.90145 59.3672 7.95047 59.497 7.99503C59.7219 8.06563 59.9393 8.15818 60.1459 8.27133C60.2399 8.32035 60.3249 8.35601 60.3965 8.40057L60.589 8.52981L60.9605 8.78383Z" fill="#8E9398"/>
<path d="M2.278 52.8587C2.46971 53.0441 2.6015 53.2822 2.65651 53.5426C2.71152 53.803 2.68725 54.0738 2.5868 54.3204C2.48635 54.5669 2.31429 54.7781 2.09265 54.9267C1.871 55.0753 1.60986 55.1547 1.34263 55.1547C1.07541 55.1547 0.814265 55.0753 0.592621 54.9267C0.370978 54.7781 0.19892 54.5669 0.0984703 54.3204C-0.00197995 54.0738 -0.026253 53.803 0.0287579 53.5426C0.0837688 53.2822 0.215561 53.0441 0.407266 52.8587C0.657834 52.6164 0.993361 52.4809 1.34263 52.4809C1.69191 52.4809 2.02744 52.6164 2.278 52.8587Z" fill="#F0792E"/>
<path d="M77.0002 11.997C77.0002 12.2614 76.9214 12.5199 76.7739 12.7397C76.6263 12.9596 76.4167 13.131 76.1713 13.2321C75.926 13.3333 75.656 13.3598 75.3956 13.3082C75.1351 13.2566 74.8959 13.1293 74.7081 12.9423C74.5203 12.7554 74.3925 12.5171 74.3407 12.2578C74.2889 11.9985 74.3155 11.7296 74.4171 11.4853C74.5187 11.2411 74.6908 11.0322 74.9116 10.8853C75.1324 10.7384 75.392 10.66 75.6575 10.66C76.0136 10.66 76.3551 10.8009 76.6069 11.0516C76.8587 11.3023 77.0002 11.6424 77.0002 11.997Z" fill="#F0792E"/>
<path d="M10.6431 57.1948C10.6431 57.2609 10.6234 57.3255 10.5866 57.3804C10.5497 57.4354 10.4973 57.4782 10.4359 57.5035C10.3746 57.5288 10.3071 57.5355 10.242 57.5226C10.1769 57.5097 10.1171 57.4778 10.0701 57.4311C10.0232 57.3843 9.99121 57.3248 9.97826 57.26C9.96531 57.1951 9.97195 57.1279 9.99736 57.0668C10.0228 57.0058 10.0658 56.9536 10.121 56.9168C10.1762 56.8801 10.2411 56.8605 10.3075 56.8605C10.3965 56.8605 10.4819 56.8957 10.5448 56.9584C10.6078 57.0211 10.6431 57.1061 10.6431 57.1948Z" fill="#F0792E"/>
<path d="M17.8257 20.241C17.8257 20.3071 17.806 20.3718 17.7692 20.4267C17.7323 20.4817 17.6799 20.5245 17.6185 20.5498C17.5572 20.5751 17.4897 20.5817 17.4246 20.5688C17.3595 20.5559 17.2997 20.5241 17.2527 20.4774C17.2058 20.4306 17.1738 20.3711 17.1609 20.3062C17.1479 20.2414 17.1546 20.1742 17.18 20.1131C17.2054 20.0521 17.2484 19.9999 17.3036 19.9631C17.3588 19.9264 17.4237 19.9068 17.4901 19.9068C17.5791 19.9068 17.6645 19.942 17.7274 20.0047C17.7904 20.0674 17.8257 20.1524 17.8257 20.241Z" fill="#F0792E"/>
<path d="M70.3453 38.2049C70.3453 38.271 70.3257 38.3356 70.2888 38.3906C70.2519 38.4456 70.1995 38.4884 70.1381 38.5137C70.0768 38.539 70.0093 38.5456 69.9442 38.5327C69.8791 38.5198 69.8193 38.488 69.7724 38.4413C69.7254 38.3945 69.6935 38.335 69.6805 38.2701C69.6676 38.2053 69.6742 38.1381 69.6996 38.077C69.725 38.0159 69.768 37.9637 69.8232 37.927C69.8784 37.8903 69.9433 37.8707 70.0097 37.8707C70.0987 37.8707 70.1841 37.9059 70.247 37.9686C70.31 38.0313 70.3453 38.1163 70.3453 38.2049Z" fill="#F0792E"/>
<path d="M75.0225 22.5811C75.0225 22.6472 75.0028 22.7118 74.9659 22.7668C74.929 22.8217 74.8766 22.8646 74.8153 22.8899C74.754 22.9152 74.6865 22.9218 74.6214 22.9089C74.5562 22.896 74.4964 22.8642 74.4495 22.8174C74.4026 22.7707 74.3706 22.7111 74.3576 22.6463C74.3447 22.5814 74.3513 22.5142 74.3767 22.4532C74.4021 22.3921 74.4452 22.3399 74.5004 22.3032C74.5556 22.2664 74.6205 22.2468 74.6868 22.2468C74.7759 22.2468 74.8612 22.2821 74.9242 22.3447C74.9871 22.4074 75.0225 22.4924 75.0225 22.5811Z" fill="#F0792E"/>
</svg>
